%TF.GenerationSoftware,KiCad,Pcbnew,(5.1.8)-1*%
%TF.CreationDate,2020-12-26T22:37:01+00:00*%
%TF.ProjectId,vga-board,7667612d-626f-4617-9264-2e6b69636164,rev?*%
%TF.SameCoordinates,Original*%
%TF.FileFunction,Copper,L1,Top*%
%TF.FilePolarity,Positive*%
%FSLAX46Y46*%
G04 Gerber Fmt 4.6, Leading zero omitted, Abs format (unit mm)*
G04 Created by KiCad (PCBNEW (5.1.8)-1) date 2020-12-26 22:37:01*
%MOMM*%
%LPD*%
G01*
G04 APERTURE LIST*
%TA.AperFunction,ComponentPad*%
%ADD10O,1.600000X1.600000*%
%TD*%
%TA.AperFunction,ComponentPad*%
%ADD11R,1.600000X1.600000*%
%TD*%
%TA.AperFunction,ComponentPad*%
%ADD12C,1.600000*%
%TD*%
%TA.AperFunction,ComponentPad*%
%ADD13O,1.700000X1.700000*%
%TD*%
%TA.AperFunction,ComponentPad*%
%ADD14R,1.700000X1.700000*%
%TD*%
%TA.AperFunction,ComponentPad*%
%ADD15C,4.000000*%
%TD*%
%TA.AperFunction,ViaPad*%
%ADD16C,0.800000*%
%TD*%
%TA.AperFunction,Conductor*%
%ADD17C,0.500000*%
%TD*%
%TA.AperFunction,Conductor*%
%ADD18C,0.250000*%
%TD*%
G04 APERTURE END LIST*
D10*
%TO.P,U23,16*%
%TO.N,+5V*%
X213995000Y-120015000D03*
%TO.P,U23,8*%
%TO.N,GND*%
X206375000Y-137795000D03*
%TO.P,U23,15*%
%TO.N,BLANK_OUT*%
X213995000Y-122555000D03*
%TO.P,U23,7*%
%TO.N,Net-(R3-Pad1)*%
X206375000Y-135255000D03*
%TO.P,U23,14*%
%TO.N,FG_B*%
X213995000Y-125095000D03*
%TO.P,U23,6*%
%TO.N,BG_G*%
X206375000Y-132715000D03*
%TO.P,U23,13*%
%TO.N,BG_B*%
X213995000Y-127635000D03*
%TO.P,U23,5*%
%TO.N,FG_B*%
X206375000Y-130175000D03*
%TO.P,U23,12*%
%TO.N,Net-(R5-Pad1)*%
X213995000Y-130175000D03*
%TO.P,U23,4*%
%TO.N,Net-(R1-Pad1)*%
X206375000Y-127635000D03*
%TO.P,U23,11*%
%TO.N,FG_I*%
X213995000Y-132715000D03*
%TO.P,U23,3*%
%TO.N,BG_R*%
X206375000Y-125095000D03*
%TO.P,U23,10*%
%TO.N,BG_I*%
X213995000Y-135255000D03*
%TO.P,U23,2*%
%TO.N,FG_R*%
X206375000Y-122555000D03*
%TO.P,U23,9*%
%TO.N,Net-(R2-Pad2)*%
X213995000Y-137795000D03*
D11*
%TO.P,U23,1*%
%TO.N,PIXEL*%
X206375000Y-120015000D03*
%TD*%
D12*
%TO.P,C23,2*%
%TO.N,+5V*%
X119935000Y-146050000D03*
%TO.P,C23,1*%
%TO.N,GND*%
X114935000Y-146050000D03*
%TD*%
%TO.P,C25,2*%
%TO.N,+5V*%
X184785000Y-146050000D03*
%TO.P,C25,1*%
%TO.N,GND*%
X179785000Y-146050000D03*
%TD*%
%TO.P,C24,2*%
%TO.N,+5V*%
X161925000Y-114300000D03*
%TO.P,C24,1*%
%TO.N,GND*%
X156925000Y-114300000D03*
%TD*%
%TO.P,C22,2*%
%TO.N,+5V*%
X147955000Y-146050000D03*
%TO.P,C22,1*%
%TO.N,GND*%
X142955000Y-146050000D03*
%TD*%
%TO.P,C21,2*%
%TO.N,+5V*%
X161845000Y-151130000D03*
%TO.P,C21,1*%
%TO.N,GND*%
X156845000Y-151130000D03*
%TD*%
%TO.P,C20,2*%
%TO.N,+5V*%
X106045000Y-146050000D03*
%TO.P,C20,1*%
%TO.N,GND*%
X101045000Y-146050000D03*
%TD*%
%TO.P,C19,2*%
%TO.N,+5V*%
X198755000Y-146050000D03*
%TO.P,C19,1*%
%TO.N,GND*%
X193755000Y-146050000D03*
%TD*%
%TO.P,C18,2*%
%TO.N,+5V*%
X133985000Y-124460000D03*
%TO.P,C18,1*%
%TO.N,GND*%
X128985000Y-124460000D03*
%TD*%
%TO.P,C17,2*%
%TO.N,+5V*%
X67865000Y-109220000D03*
%TO.P,C17,1*%
%TO.N,GND*%
X62865000Y-109220000D03*
%TD*%
%TO.P,C16,2*%
%TO.N,+5V*%
X185420000Y-114300000D03*
%TO.P,C16,1*%
%TO.N,GND*%
X180420000Y-114300000D03*
%TD*%
%TO.P,C15,2*%
%TO.N,+5V*%
X147955000Y-114300000D03*
%TO.P,C15,1*%
%TO.N,GND*%
X142955000Y-114300000D03*
%TD*%
%TO.P,C14,2*%
%TO.N,+5V*%
X39925000Y-109220000D03*
%TO.P,C14,1*%
%TO.N,GND*%
X34925000Y-109220000D03*
%TD*%
%TO.P,C13,2*%
%TO.N,+5V*%
X213280000Y-109220000D03*
%TO.P,C13,1*%
%TO.N,GND*%
X208280000Y-109220000D03*
%TD*%
%TO.P,C12,2*%
%TO.N,+5V*%
X67865000Y-135890000D03*
%TO.P,C12,1*%
%TO.N,GND*%
X62865000Y-135890000D03*
%TD*%
%TO.P,C11,2*%
%TO.N,+5V*%
X199390000Y-114300000D03*
%TO.P,C11,1*%
%TO.N,GND*%
X194390000Y-114300000D03*
%TD*%
%TO.P,C10,2*%
%TO.N,+5V*%
X91360000Y-146050000D03*
%TO.P,C10,1*%
%TO.N,GND*%
X86360000Y-146050000D03*
%TD*%
%TO.P,C9,2*%
%TO.N,+5V*%
X212725000Y-140970000D03*
%TO.P,C9,1*%
%TO.N,GND*%
X207725000Y-140970000D03*
%TD*%
%TO.P,C8,2*%
%TO.N,+5V*%
X105965000Y-114300000D03*
%TO.P,C8,1*%
%TO.N,GND*%
X100965000Y-114300000D03*
%TD*%
%TO.P,C7,2*%
%TO.N,+5V*%
X67865000Y-162560000D03*
%TO.P,C7,1*%
%TO.N,GND*%
X62865000Y-162560000D03*
%TD*%
%TO.P,C6,2*%
%TO.N,+5V*%
X53895000Y-119380000D03*
%TO.P,C6,1*%
%TO.N,GND*%
X48895000Y-119380000D03*
%TD*%
%TO.P,C5,2*%
%TO.N,+5V*%
X91360000Y-114300000D03*
%TO.P,C5,1*%
%TO.N,GND*%
X86360000Y-114300000D03*
%TD*%
%TO.P,C4,2*%
%TO.N,+5V*%
X39925000Y-162560000D03*
%TO.P,C4,1*%
%TO.N,GND*%
X34925000Y-162560000D03*
%TD*%
%TO.P,C3,2*%
%TO.N,+5V*%
X53895000Y-162560000D03*
%TO.P,C3,1*%
%TO.N,GND*%
X48895000Y-162560000D03*
%TD*%
%TO.P,C2,2*%
%TO.N,+5V*%
X39925000Y-135890000D03*
%TO.P,C2,1*%
%TO.N,GND*%
X34925000Y-135890000D03*
%TD*%
%TO.P,C1,2*%
%TO.N,+5V*%
X119935000Y-114300000D03*
%TO.P,C1,1*%
%TO.N,GND*%
X114935000Y-114300000D03*
%TD*%
D13*
%TO.P,J2,40*%
%TO.N,GND*%
X172720000Y-139065000D03*
%TO.P,J2,39*%
X170180000Y-139065000D03*
%TO.P,J2,38*%
%TO.N,+5V*%
X172720000Y-136525000D03*
%TO.P,J2,37*%
X170180000Y-136525000D03*
%TO.P,J2,36*%
%TO.N,Net-(J2-Pad36)*%
X172720000Y-133985000D03*
%TO.P,J2,35*%
%TO.N,Net-(J2-Pad35)*%
X170180000Y-133985000D03*
%TO.P,J2,34*%
%TO.N,Net-(J2-Pad34)*%
X172720000Y-131445000D03*
%TO.P,J2,33*%
%TO.N,Net-(J2-Pad33)*%
X170180000Y-131445000D03*
%TO.P,J2,32*%
%TO.N,Net-(J2-Pad32)*%
X172720000Y-128905000D03*
%TO.P,J2,31*%
%TO.N,Net-(J2-Pad31)*%
X170180000Y-128905000D03*
%TO.P,J2,30*%
%TO.N,Net-(J2-Pad30)*%
X172720000Y-126365000D03*
%TO.P,J2,29*%
%TO.N,Net-(J2-Pad29)*%
X170180000Y-126365000D03*
%TO.P,J2,28*%
%TO.N,Net-(J2-Pad28)*%
X172720000Y-123825000D03*
%TO.P,J2,27*%
%TO.N,Net-(J2-Pad27)*%
X170180000Y-123825000D03*
%TO.P,J2,26*%
%TO.N,Net-(J2-Pad26)*%
X172720000Y-121285000D03*
%TO.P,J2,25*%
%TO.N,Net-(J2-Pad25)*%
X170180000Y-121285000D03*
%TO.P,J2,24*%
%TO.N,Net-(J2-Pad24)*%
X172720000Y-118745000D03*
%TO.P,J2,23*%
%TO.N,Net-(J2-Pad23)*%
X170180000Y-118745000D03*
%TO.P,J2,22*%
%TO.N,Net-(J2-Pad22)*%
X172720000Y-116205000D03*
%TO.P,J2,21*%
%TO.N,Net-(J2-Pad21)*%
X170180000Y-116205000D03*
%TO.P,J2,20*%
%TO.N,Net-(J2-Pad20)*%
X172720000Y-113665000D03*
%TO.P,J2,19*%
%TO.N,Net-(J2-Pad19)*%
X170180000Y-113665000D03*
%TO.P,J2,18*%
%TO.N,Net-(J2-Pad18)*%
X172720000Y-111125000D03*
%TO.P,J2,17*%
%TO.N,Net-(J2-Pad17)*%
X170180000Y-111125000D03*
%TO.P,J2,16*%
%TO.N,Net-(J2-Pad16)*%
X172720000Y-108585000D03*
%TO.P,J2,15*%
%TO.N,Net-(J2-Pad15)*%
X170180000Y-108585000D03*
%TO.P,J2,14*%
%TO.N,Net-(J2-Pad14)*%
X172720000Y-106045000D03*
%TO.P,J2,13*%
%TO.N,Net-(J2-Pad13)*%
X170180000Y-106045000D03*
%TO.P,J2,12*%
%TO.N,Net-(J2-Pad12)*%
X172720000Y-103505000D03*
%TO.P,J2,11*%
%TO.N,Net-(J2-Pad11)*%
X170180000Y-103505000D03*
%TO.P,J2,10*%
%TO.N,Net-(J2-Pad10)*%
X172720000Y-100965000D03*
%TO.P,J2,9*%
%TO.N,Net-(J2-Pad9)*%
X170180000Y-100965000D03*
%TO.P,J2,8*%
%TO.N,Net-(J2-Pad8)*%
X172720000Y-98425000D03*
%TO.P,J2,7*%
%TO.N,Net-(J2-Pad7)*%
X170180000Y-98425000D03*
%TO.P,J2,6*%
%TO.N,Net-(J2-Pad6)*%
X172720000Y-95885000D03*
%TO.P,J2,5*%
%TO.N,Net-(J2-Pad5)*%
X170180000Y-95885000D03*
%TO.P,J2,4*%
%TO.N,Net-(J2-Pad4)*%
X172720000Y-93345000D03*
%TO.P,J2,3*%
%TO.N,Net-(J2-Pad3)*%
X170180000Y-93345000D03*
%TO.P,J2,2*%
%TO.N,Net-(J2-Pad2)*%
X172720000Y-90805000D03*
D14*
%TO.P,J2,1*%
%TO.N,Net-(J2-Pad1)*%
X170180000Y-90805000D03*
%TD*%
D13*
%TO.P,J1,40*%
%TO.N,GND*%
X78740000Y-139065000D03*
%TO.P,J1,39*%
X76200000Y-139065000D03*
%TO.P,J1,38*%
%TO.N,+5V*%
X78740000Y-136525000D03*
%TO.P,J1,37*%
X76200000Y-136525000D03*
%TO.P,J1,36*%
%TO.N,D7*%
X78740000Y-133985000D03*
%TO.P,J1,35*%
%TO.N,D6*%
X76200000Y-133985000D03*
%TO.P,J1,34*%
%TO.N,D5*%
X78740000Y-131445000D03*
%TO.P,J1,33*%
%TO.N,D4*%
X76200000Y-131445000D03*
%TO.P,J1,32*%
%TO.N,D3*%
X78740000Y-128905000D03*
%TO.P,J1,31*%
%TO.N,D2*%
X76200000Y-128905000D03*
%TO.P,J1,30*%
%TO.N,D1*%
X78740000Y-126365000D03*
%TO.P,J1,29*%
%TO.N,D0*%
X76200000Y-126365000D03*
%TO.P,J1,28*%
%TO.N,A15*%
X78740000Y-123825000D03*
%TO.P,J1,27*%
%TO.N,A14*%
X76200000Y-123825000D03*
%TO.P,J1,26*%
%TO.N,A13*%
X78740000Y-121285000D03*
%TO.P,J1,25*%
%TO.N,A12*%
X76200000Y-121285000D03*
%TO.P,J1,24*%
%TO.N,A11*%
X78740000Y-118745000D03*
%TO.P,J1,23*%
%TO.N,A10*%
X76200000Y-118745000D03*
%TO.P,J1,22*%
%TO.N,A9*%
X78740000Y-116205000D03*
%TO.P,J1,21*%
%TO.N,A8*%
X76200000Y-116205000D03*
%TO.P,J1,20*%
%TO.N,A7*%
X78740000Y-113665000D03*
%TO.P,J1,19*%
%TO.N,A6*%
X76200000Y-113665000D03*
%TO.P,J1,18*%
%TO.N,A5*%
X78740000Y-111125000D03*
%TO.P,J1,17*%
%TO.N,A4*%
X76200000Y-111125000D03*
%TO.P,J1,16*%
%TO.N,A3*%
X78740000Y-108585000D03*
%TO.P,J1,15*%
%TO.N,A2*%
X76200000Y-108585000D03*
%TO.P,J1,14*%
%TO.N,A1*%
X78740000Y-106045000D03*
%TO.P,J1,13*%
%TO.N,A0*%
X76200000Y-106045000D03*
%TO.P,J1,12*%
%TO.N,!P_SELECT*%
X78740000Y-103505000D03*
%TO.P,J1,11*%
%TO.N,RDY*%
X76200000Y-103505000D03*
%TO.P,J1,10*%
%TO.N,!RESET*%
X78740000Y-100965000D03*
%TO.P,J1,9*%
%TO.N,R!W*%
X76200000Y-100965000D03*
%TO.P,J1,8*%
%TO.N,!WRITE*%
X78740000Y-98425000D03*
%TO.P,J1,7*%
%TO.N,!READ*%
X76200000Y-98425000D03*
%TO.P,J1,6*%
%TO.N,!NMI*%
X78740000Y-95885000D03*
%TO.P,J1,5*%
%TO.N,!IRQ*%
X76200000Y-95885000D03*
%TO.P,J1,4*%
%TO.N,PHI2*%
X78740000Y-93345000D03*
%TO.P,J1,3*%
%TO.N,PHI1*%
X76200000Y-93345000D03*
%TO.P,J1,2*%
%TO.N,CLK*%
X78740000Y-90805000D03*
D14*
%TO.P,J1,1*%
%TO.N,GND*%
X76200000Y-90805000D03*
%TD*%
D12*
%TO.P,X1,4*%
%TO.N,GND*%
X134620000Y-141605000D03*
%TO.P,X1,5*%
%TO.N,VCLK*%
X134620000Y-133985000D03*
%TO.P,X1,8*%
%TO.N,+5V*%
X127000000Y-133985000D03*
D11*
%TO.P,X1,1*%
%TO.N,Net-(X1-Pad1)*%
X127000000Y-141605000D03*
%TD*%
D10*
%TO.P,U25,20*%
%TO.N,+5V*%
X163195000Y-88265000D03*
%TO.P,U25,10*%
%TO.N,GND*%
X155575000Y-111125000D03*
%TO.P,U25,19*%
%TO.N,Net-(U25-Pad19)*%
X163195000Y-90805000D03*
%TO.P,U25,9*%
%TO.N,Net-(U25-Pad9)*%
X155575000Y-108585000D03*
%TO.P,U25,18*%
%TO.N,Net-(U25-Pad18)*%
X163195000Y-93345000D03*
%TO.P,U25,8*%
%TO.N,Net-(U25-Pad8)*%
X155575000Y-106045000D03*
%TO.P,U25,17*%
%TO.N,Net-(U25-Pad17)*%
X163195000Y-95885000D03*
%TO.P,U25,7*%
%TO.N,Net-(U24-Pad6)*%
X155575000Y-103505000D03*
%TO.P,U25,16*%
%TO.N,Net-(U25-Pad16)*%
X163195000Y-98425000D03*
%TO.P,U25,6*%
%TO.N,BLANK_OUT*%
X155575000Y-100965000D03*
%TO.P,U25,15*%
%TO.N,Net-(U25-Pad15)*%
X163195000Y-100965000D03*
%TO.P,U25,5*%
%TO.N,VSYNC_OUT*%
X155575000Y-98425000D03*
%TO.P,U25,14*%
%TO.N,Net-(U25-Pad14)*%
X163195000Y-103505000D03*
%TO.P,U25,4*%
%TO.N,Net-(U24-Pad5)*%
X155575000Y-95885000D03*
%TO.P,U25,13*%
%TO.N,Net-(U25-Pad13)*%
X163195000Y-106045000D03*
%TO.P,U25,3*%
%TO.N,Net-(U24-Pad2)*%
X155575000Y-93345000D03*
%TO.P,U25,12*%
%TO.N,Net-(U25-Pad12)*%
X163195000Y-108585000D03*
%TO.P,U25,2*%
%TO.N,HSYNC_OUT*%
X155575000Y-90805000D03*
%TO.P,U25,11*%
%TO.N,RELATCH*%
X163195000Y-111125000D03*
D11*
%TO.P,U25,1*%
%TO.N,GND*%
X155575000Y-88265000D03*
%TD*%
D10*
%TO.P,U24,20*%
%TO.N,+5V*%
X149225000Y-88265000D03*
%TO.P,U24,10*%
%TO.N,GND*%
X141605000Y-111125000D03*
%TO.P,U24,19*%
%TO.N,Net-(U24-Pad19)*%
X149225000Y-90805000D03*
%TO.P,U24,9*%
%TO.N,Net-(U24-Pad9)*%
X141605000Y-108585000D03*
%TO.P,U24,18*%
%TO.N,Net-(U24-Pad18)*%
X149225000Y-93345000D03*
%TO.P,U24,8*%
%TO.N,Net-(U24-Pad8)*%
X141605000Y-106045000D03*
%TO.P,U24,17*%
%TO.N,Net-(U24-Pad17)*%
X149225000Y-95885000D03*
%TO.P,U24,7*%
%TO.N,BLANK*%
X141605000Y-103505000D03*
%TO.P,U24,16*%
%TO.N,Net-(U24-Pad16)*%
X149225000Y-98425000D03*
%TO.P,U24,6*%
%TO.N,Net-(U24-Pad6)*%
X141605000Y-100965000D03*
%TO.P,U24,15*%
%TO.N,Net-(U24-Pad15)*%
X149225000Y-100965000D03*
%TO.P,U24,5*%
%TO.N,Net-(U24-Pad5)*%
X141605000Y-98425000D03*
%TO.P,U24,14*%
%TO.N,Net-(U24-Pad14)*%
X149225000Y-103505000D03*
%TO.P,U24,4*%
%TO.N,VSYNC*%
X141605000Y-95885000D03*
%TO.P,U24,13*%
%TO.N,Net-(U24-Pad13)*%
X149225000Y-106045000D03*
%TO.P,U24,3*%
%TO.N,HSYNC*%
X141605000Y-93345000D03*
%TO.P,U24,12*%
%TO.N,Net-(U24-Pad12)*%
X149225000Y-108585000D03*
%TO.P,U24,2*%
%TO.N,Net-(U24-Pad2)*%
X141605000Y-90805000D03*
%TO.P,U24,11*%
%TO.N,COLOR_LATCH*%
X149225000Y-111125000D03*
D11*
%TO.P,U24,1*%
%TO.N,GND*%
X141605000Y-88265000D03*
%TD*%
D10*
%TO.P,U22,20*%
%TO.N,+5V*%
X200025000Y-120015000D03*
%TO.P,U22,10*%
%TO.N,GND*%
X192405000Y-142875000D03*
%TO.P,U22,19*%
%TO.N,BG_I*%
X200025000Y-122555000D03*
%TO.P,U22,9*%
%TO.N,FG_I*%
X192405000Y-140335000D03*
%TO.P,U22,18*%
%TO.N,Net-(U21-Pad19)*%
X200025000Y-125095000D03*
%TO.P,U22,8*%
%TO.N,Net-(U21-Pad9)*%
X192405000Y-137795000D03*
%TO.P,U22,17*%
%TO.N,Net-(U21-Pad16)*%
X200025000Y-127635000D03*
%TO.P,U22,7*%
%TO.N,Net-(U21-Pad6)*%
X192405000Y-135255000D03*
%TO.P,U22,16*%
%TO.N,BG_B*%
X200025000Y-130175000D03*
%TO.P,U22,6*%
%TO.N,FG_B*%
X192405000Y-132715000D03*
%TO.P,U22,15*%
%TO.N,BG_G*%
X200025000Y-132715000D03*
%TO.P,U22,5*%
%TO.N,FG_B*%
X192405000Y-130175000D03*
%TO.P,U22,14*%
%TO.N,Net-(U21-Pad15)*%
X200025000Y-135255000D03*
%TO.P,U22,4*%
%TO.N,Net-(U21-Pad5)*%
X192405000Y-127635000D03*
%TO.P,U22,13*%
%TO.N,Net-(U21-Pad12)*%
X200025000Y-137795000D03*
%TO.P,U22,3*%
%TO.N,Net-(U21-Pad2)*%
X192405000Y-125095000D03*
%TO.P,U22,12*%
%TO.N,BG_R*%
X200025000Y-140335000D03*
%TO.P,U22,2*%
%TO.N,FG_R*%
X192405000Y-122555000D03*
%TO.P,U22,11*%
%TO.N,RELATCH*%
X200025000Y-142875000D03*
D11*
%TO.P,U22,1*%
%TO.N,GND*%
X192405000Y-120015000D03*
%TD*%
D10*
%TO.P,U21,20*%
%TO.N,+5V*%
X186055000Y-120015000D03*
%TO.P,U21,10*%
%TO.N,GND*%
X178435000Y-142875000D03*
%TO.P,U21,19*%
%TO.N,Net-(U21-Pad19)*%
X186055000Y-122555000D03*
%TO.P,U21,9*%
%TO.N,Net-(U21-Pad9)*%
X178435000Y-140335000D03*
%TO.P,U21,18*%
%TO.N,VD7*%
X186055000Y-125095000D03*
%TO.P,U21,8*%
%TO.N,VD3*%
X178435000Y-137795000D03*
%TO.P,U21,17*%
%TO.N,VD6*%
X186055000Y-127635000D03*
%TO.P,U21,7*%
%TO.N,VD2*%
X178435000Y-135255000D03*
%TO.P,U21,16*%
%TO.N,Net-(U21-Pad16)*%
X186055000Y-130175000D03*
%TO.P,U21,6*%
%TO.N,Net-(U21-Pad6)*%
X178435000Y-132715000D03*
%TO.P,U21,15*%
%TO.N,Net-(U21-Pad15)*%
X186055000Y-132715000D03*
%TO.P,U21,5*%
%TO.N,Net-(U21-Pad5)*%
X178435000Y-130175000D03*
%TO.P,U21,14*%
%TO.N,VD5*%
X186055000Y-135255000D03*
%TO.P,U21,4*%
%TO.N,VD1*%
X178435000Y-127635000D03*
%TO.P,U21,13*%
%TO.N,VD4*%
X186055000Y-137795000D03*
%TO.P,U21,3*%
%TO.N,VD0*%
X178435000Y-125095000D03*
%TO.P,U21,12*%
%TO.N,Net-(U21-Pad12)*%
X186055000Y-140335000D03*
%TO.P,U21,2*%
%TO.N,Net-(U21-Pad2)*%
X178435000Y-122555000D03*
%TO.P,U21,11*%
%TO.N,COLOR_LATCH*%
X186055000Y-142875000D03*
D11*
%TO.P,U21,1*%
%TO.N,GND*%
X178435000Y-120015000D03*
%TD*%
D10*
%TO.P,U20,16*%
%TO.N,+5V*%
X214630000Y-88265000D03*
%TO.P,U20,8*%
%TO.N,GND*%
X207010000Y-106045000D03*
%TO.P,U20,15*%
%TO.N,Net-(U19-Pad12)*%
X214630000Y-90805000D03*
%TO.P,U20,7*%
%TO.N,GND*%
X207010000Y-103505000D03*
%TO.P,U20,14*%
%TO.N,Net-(U19-Pad15)*%
X214630000Y-93345000D03*
%TO.P,U20,6*%
%TO.N,Net-(U20-Pad6)*%
X207010000Y-100965000D03*
%TO.P,U20,13*%
%TO.N,Net-(U19-Pad16)*%
X214630000Y-95885000D03*
%TO.P,U20,5*%
%TO.N,PIXEL*%
X207010000Y-98425000D03*
%TO.P,U20,12*%
%TO.N,Net-(U19-Pad19)*%
X214630000Y-98425000D03*
%TO.P,U20,4*%
%TO.N,Net-(U19-Pad2)*%
X207010000Y-95885000D03*
%TO.P,U20,11*%
%TO.N,X0*%
X214630000Y-100965000D03*
%TO.P,U20,3*%
%TO.N,Net-(U19-Pad5)*%
X207010000Y-93345000D03*
%TO.P,U20,10*%
%TO.N,X1*%
X214630000Y-103505000D03*
%TO.P,U20,2*%
%TO.N,Net-(U19-Pad6)*%
X207010000Y-90805000D03*
%TO.P,U20,9*%
%TO.N,CLK*%
X214630000Y-106045000D03*
D11*
%TO.P,U20,1*%
%TO.N,Net-(U19-Pad9)*%
X207010000Y-88265000D03*
%TD*%
D10*
%TO.P,U19,20*%
%TO.N,+5V*%
X200660000Y-88265000D03*
%TO.P,U19,10*%
%TO.N,GND*%
X193040000Y-111125000D03*
%TO.P,U19,19*%
%TO.N,Net-(U19-Pad19)*%
X200660000Y-90805000D03*
%TO.P,U19,9*%
%TO.N,Net-(U19-Pad9)*%
X193040000Y-108585000D03*
%TO.P,U19,18*%
%TO.N,Net-(U18-Pad19)*%
X200660000Y-93345000D03*
%TO.P,U19,8*%
%TO.N,Net-(U18-Pad9)*%
X193040000Y-106045000D03*
%TO.P,U19,17*%
%TO.N,Net-(U18-Pad16)*%
X200660000Y-95885000D03*
%TO.P,U19,7*%
%TO.N,Net-(U18-Pad6)*%
X193040000Y-103505000D03*
%TO.P,U19,16*%
%TO.N,Net-(U19-Pad16)*%
X200660000Y-98425000D03*
%TO.P,U19,6*%
%TO.N,Net-(U19-Pad6)*%
X193040000Y-100965000D03*
%TO.P,U19,15*%
%TO.N,Net-(U19-Pad15)*%
X200660000Y-100965000D03*
%TO.P,U19,5*%
%TO.N,Net-(U19-Pad5)*%
X193040000Y-98425000D03*
%TO.P,U19,14*%
%TO.N,Net-(U18-Pad15)*%
X200660000Y-103505000D03*
%TO.P,U19,4*%
%TO.N,Net-(U18-Pad5)*%
X193040000Y-95885000D03*
%TO.P,U19,13*%
%TO.N,Net-(U18-Pad12)*%
X200660000Y-106045000D03*
%TO.P,U19,3*%
%TO.N,Net-(U18-Pad2)*%
X193040000Y-93345000D03*
%TO.P,U19,12*%
%TO.N,Net-(U19-Pad12)*%
X200660000Y-108585000D03*
%TO.P,U19,2*%
%TO.N,Net-(U19-Pad2)*%
X193040000Y-90805000D03*
%TO.P,U19,11*%
%TO.N,RELATCH*%
X200660000Y-111125000D03*
D11*
%TO.P,U19,1*%
%TO.N,VCLK*%
X193040000Y-88265000D03*
%TD*%
D10*
%TO.P,U18,20*%
%TO.N,+5V*%
X186690000Y-88265000D03*
%TO.P,U18,10*%
%TO.N,GND*%
X179070000Y-111125000D03*
%TO.P,U18,19*%
%TO.N,Net-(U18-Pad19)*%
X186690000Y-90805000D03*
%TO.P,U18,9*%
%TO.N,Net-(U18-Pad9)*%
X179070000Y-108585000D03*
%TO.P,U18,18*%
%TO.N,VD7*%
X186690000Y-93345000D03*
%TO.P,U18,8*%
%TO.N,VD3*%
X179070000Y-106045000D03*
%TO.P,U18,17*%
%TO.N,VD6*%
X186690000Y-95885000D03*
%TO.P,U18,7*%
%TO.N,VD2*%
X179070000Y-103505000D03*
%TO.P,U18,16*%
%TO.N,Net-(U18-Pad16)*%
X186690000Y-98425000D03*
%TO.P,U18,6*%
%TO.N,Net-(U18-Pad6)*%
X179070000Y-100965000D03*
%TO.P,U18,15*%
%TO.N,Net-(U18-Pad15)*%
X186690000Y-100965000D03*
%TO.P,U18,5*%
%TO.N,Net-(U18-Pad5)*%
X179070000Y-98425000D03*
%TO.P,U18,14*%
%TO.N,VD5*%
X186690000Y-103505000D03*
%TO.P,U18,4*%
%TO.N,VD1*%
X179070000Y-95885000D03*
%TO.P,U18,13*%
%TO.N,VD4*%
X186690000Y-106045000D03*
%TO.P,U18,3*%
%TO.N,VD0*%
X179070000Y-93345000D03*
%TO.P,U18,12*%
%TO.N,Net-(U18-Pad12)*%
X186690000Y-108585000D03*
%TO.P,U18,2*%
%TO.N,Net-(U18-Pad2)*%
X179070000Y-90805000D03*
%TO.P,U18,11*%
%TO.N,FONT_LATCH*%
X186690000Y-111125000D03*
D11*
%TO.P,U18,1*%
%TO.N,GND*%
X179070000Y-88265000D03*
%TD*%
D10*
%TO.P,U17,20*%
%TO.N,+5V*%
X149225000Y-120015000D03*
%TO.P,U17,10*%
%TO.N,GND*%
X141605000Y-142875000D03*
%TO.P,U17,19*%
%TO.N,Net-(U17-Pad19)*%
X149225000Y-122555000D03*
%TO.P,U17,9*%
%TO.N,VD3*%
X141605000Y-140335000D03*
%TO.P,U17,18*%
%TO.N,Net-(U17-Pad18)*%
X149225000Y-125095000D03*
%TO.P,U17,8*%
%TO.N,D3*%
X141605000Y-137795000D03*
%TO.P,U17,17*%
%TO.N,Net-(U17-Pad17)*%
X149225000Y-127635000D03*
%TO.P,U17,7*%
%TO.N,D2*%
X141605000Y-135255000D03*
%TO.P,U17,16*%
%TO.N,Net-(U17-Pad16)*%
X149225000Y-130175000D03*
%TO.P,U17,6*%
%TO.N,VD2*%
X141605000Y-132715000D03*
%TO.P,U17,15*%
%TO.N,VD5*%
X149225000Y-132715000D03*
%TO.P,U17,5*%
%TO.N,VD1*%
X141605000Y-130175000D03*
%TO.P,U17,14*%
%TO.N,D5*%
X149225000Y-135255000D03*
%TO.P,U17,4*%
%TO.N,D1*%
X141605000Y-127635000D03*
%TO.P,U17,13*%
%TO.N,D4*%
X149225000Y-137795000D03*
%TO.P,U17,3*%
%TO.N,D0*%
X141605000Y-125095000D03*
%TO.P,U17,12*%
%TO.N,VD4*%
X149225000Y-140335000D03*
%TO.P,U17,2*%
%TO.N,VD0*%
X141605000Y-122555000D03*
%TO.P,U17,11*%
%TO.N,+5V*%
X149225000Y-142875000D03*
D11*
%TO.P,U17,1*%
%TO.N,!CPU_MASTER*%
X141605000Y-120015000D03*
%TD*%
D10*
%TO.P,U16,20*%
%TO.N,+5V*%
X92710000Y-120015000D03*
%TO.P,U16,10*%
%TO.N,GND*%
X85090000Y-142875000D03*
%TO.P,U16,19*%
%TO.N,Net-(U16-Pad19)*%
X92710000Y-122555000D03*
%TO.P,U16,9*%
%TO.N,VA11*%
X85090000Y-140335000D03*
%TO.P,U16,18*%
%TO.N,Net-(U16-Pad18)*%
X92710000Y-125095000D03*
%TO.P,U16,8*%
%TO.N,A11*%
X85090000Y-137795000D03*
%TO.P,U16,17*%
%TO.N,A14*%
X92710000Y-127635000D03*
%TO.P,U16,7*%
%TO.N,A10*%
X85090000Y-135255000D03*
%TO.P,U16,16*%
%TO.N,VA14*%
X92710000Y-130175000D03*
%TO.P,U16,6*%
%TO.N,VA10*%
X85090000Y-132715000D03*
%TO.P,U16,15*%
%TO.N,VA13*%
X92710000Y-132715000D03*
%TO.P,U16,5*%
%TO.N,VA9*%
X85090000Y-130175000D03*
%TO.P,U16,14*%
%TO.N,A13*%
X92710000Y-135255000D03*
%TO.P,U16,4*%
%TO.N,A9*%
X85090000Y-127635000D03*
%TO.P,U16,13*%
%TO.N,A12*%
X92710000Y-137795000D03*
%TO.P,U16,3*%
%TO.N,A8*%
X85090000Y-125095000D03*
%TO.P,U16,12*%
%TO.N,VA12*%
X92710000Y-140335000D03*
%TO.P,U16,2*%
%TO.N,VA8*%
X85090000Y-122555000D03*
%TO.P,U16,11*%
%TO.N,+5V*%
X92710000Y-142875000D03*
D11*
%TO.P,U16,1*%
%TO.N,!CPU_MASTER*%
X85090000Y-120015000D03*
%TD*%
D10*
%TO.P,U15,20*%
%TO.N,+5V*%
X92710000Y-88265000D03*
%TO.P,U15,10*%
%TO.N,GND*%
X85090000Y-111125000D03*
%TO.P,U15,19*%
%TO.N,VA7*%
X92710000Y-90805000D03*
%TO.P,U15,9*%
%TO.N,VA3*%
X85090000Y-108585000D03*
%TO.P,U15,18*%
%TO.N,A7*%
X92710000Y-93345000D03*
%TO.P,U15,8*%
%TO.N,A3*%
X85090000Y-106045000D03*
%TO.P,U15,17*%
%TO.N,A6*%
X92710000Y-95885000D03*
%TO.P,U15,7*%
%TO.N,A2*%
X85090000Y-103505000D03*
%TO.P,U15,16*%
%TO.N,VA6*%
X92710000Y-98425000D03*
%TO.P,U15,6*%
%TO.N,VA2*%
X85090000Y-100965000D03*
%TO.P,U15,15*%
%TO.N,VA5*%
X92710000Y-100965000D03*
%TO.P,U15,5*%
%TO.N,VA1*%
X85090000Y-98425000D03*
%TO.P,U15,14*%
%TO.N,A5*%
X92710000Y-103505000D03*
%TO.P,U15,4*%
%TO.N,A1*%
X85090000Y-95885000D03*
%TO.P,U15,13*%
%TO.N,A4*%
X92710000Y-106045000D03*
%TO.P,U15,3*%
%TO.N,A0*%
X85090000Y-93345000D03*
%TO.P,U15,12*%
%TO.N,VA4*%
X92710000Y-108585000D03*
%TO.P,U15,2*%
%TO.N,VA0*%
X85090000Y-90805000D03*
%TO.P,U15,11*%
%TO.N,+5V*%
X92710000Y-111125000D03*
D11*
%TO.P,U15,1*%
%TO.N,!CPU_MASTER*%
X85090000Y-88265000D03*
%TD*%
D10*
%TO.P,U14,20*%
%TO.N,+5V*%
X107315000Y-120015000D03*
%TO.P,U14,10*%
%TO.N,GND*%
X99695000Y-142875000D03*
%TO.P,U14,19*%
%TO.N,Net-(U14-Pad19)*%
X107315000Y-122555000D03*
%TO.P,U14,9*%
%TO.N,VA11*%
X99695000Y-140335000D03*
%TO.P,U14,18*%
%TO.N,Net-(U14-Pad18)*%
X107315000Y-125095000D03*
%TO.P,U14,8*%
%TO.N,VD7*%
X99695000Y-137795000D03*
%TO.P,U14,17*%
%TO.N,+5V*%
X107315000Y-127635000D03*
%TO.P,U14,7*%
%TO.N,VD6*%
X99695000Y-135255000D03*
%TO.P,U14,16*%
%TO.N,VA14*%
X107315000Y-130175000D03*
%TO.P,U14,6*%
%TO.N,VA10*%
X99695000Y-132715000D03*
%TO.P,U14,15*%
%TO.N,VA13*%
X107315000Y-132715000D03*
%TO.P,U14,5*%
%TO.N,VA9*%
X99695000Y-130175000D03*
%TO.P,U14,14*%
%TO.N,GND*%
X107315000Y-135255000D03*
%TO.P,U14,4*%
%TO.N,VD5*%
X99695000Y-127635000D03*
%TO.P,U14,13*%
%TO.N,GND*%
X107315000Y-137795000D03*
%TO.P,U14,3*%
%TO.N,VD4*%
X99695000Y-125095000D03*
%TO.P,U14,12*%
%TO.N,VA12*%
X107315000Y-140335000D03*
%TO.P,U14,2*%
%TO.N,VA8*%
X99695000Y-122555000D03*
%TO.P,U14,11*%
%TO.N,CHAR_LATCH*%
X107315000Y-142875000D03*
D11*
%TO.P,U14,1*%
%TO.N,!FONT_MASTER*%
X99695000Y-120015000D03*
%TD*%
D10*
%TO.P,U13,20*%
%TO.N,+5V*%
X107315000Y-88265000D03*
%TO.P,U13,10*%
%TO.N,GND*%
X99695000Y-111125000D03*
%TO.P,U13,19*%
%TO.N,VA7*%
X107315000Y-90805000D03*
%TO.P,U13,9*%
%TO.N,VA3*%
X99695000Y-108585000D03*
%TO.P,U13,18*%
%TO.N,VD3*%
X107315000Y-93345000D03*
%TO.P,U13,8*%
%TO.N,Y3*%
X99695000Y-106045000D03*
%TO.P,U13,17*%
%TO.N,VD2*%
X107315000Y-95885000D03*
%TO.P,U13,7*%
%TO.N,Y2*%
X99695000Y-103505000D03*
%TO.P,U13,16*%
%TO.N,VA6*%
X107315000Y-98425000D03*
%TO.P,U13,6*%
%TO.N,VA2*%
X99695000Y-100965000D03*
%TO.P,U13,15*%
%TO.N,VA5*%
X107315000Y-100965000D03*
%TO.P,U13,5*%
%TO.N,VA1*%
X99695000Y-98425000D03*
%TO.P,U13,14*%
%TO.N,VD1*%
X107315000Y-103505000D03*
%TO.P,U13,4*%
%TO.N,Y1*%
X99695000Y-95885000D03*
%TO.P,U13,13*%
%TO.N,VD0*%
X107315000Y-106045000D03*
%TO.P,U13,3*%
%TO.N,Y0*%
X99695000Y-93345000D03*
%TO.P,U13,12*%
%TO.N,VA4*%
X107315000Y-108585000D03*
%TO.P,U13,2*%
%TO.N,VA0*%
X99695000Y-90805000D03*
%TO.P,U13,11*%
%TO.N,CHAR_LATCH*%
X107315000Y-111125000D03*
D11*
%TO.P,U13,1*%
%TO.N,!FONT_MASTER*%
X99695000Y-88265000D03*
%TD*%
D10*
%TO.P,U12,20*%
%TO.N,+5V*%
X121285000Y-120015000D03*
%TO.P,U12,10*%
%TO.N,GND*%
X113665000Y-142875000D03*
%TO.P,U12,19*%
%TO.N,Net-(U12-Pad19)*%
X121285000Y-122555000D03*
%TO.P,U12,9*%
%TO.N,VA11*%
X113665000Y-140335000D03*
%TO.P,U12,18*%
%TO.N,Net-(U12-Pad18)*%
X121285000Y-125095000D03*
%TO.P,U12,8*%
%TO.N,Y8*%
X113665000Y-137795000D03*
%TO.P,U12,17*%
%TO.N,GND*%
X121285000Y-127635000D03*
%TO.P,U12,7*%
%TO.N,Y7*%
X113665000Y-135255000D03*
%TO.P,U12,16*%
%TO.N,VA14*%
X121285000Y-130175000D03*
%TO.P,U12,6*%
%TO.N,VA10*%
X113665000Y-132715000D03*
%TO.P,U12,15*%
%TO.N,VA13*%
X121285000Y-132715000D03*
%TO.P,U12,5*%
%TO.N,VA9*%
X113665000Y-130175000D03*
%TO.P,U12,14*%
%TO.N,COLOR*%
X121285000Y-135255000D03*
%TO.P,U12,4*%
%TO.N,Y6*%
X113665000Y-127635000D03*
%TO.P,U12,13*%
%TO.N,Y9*%
X121285000Y-137795000D03*
%TO.P,U12,3*%
%TO.N,Y5*%
X113665000Y-125095000D03*
%TO.P,U12,12*%
%TO.N,VA12*%
X121285000Y-140335000D03*
%TO.P,U12,2*%
%TO.N,VA8*%
X113665000Y-122555000D03*
%TO.P,U12,11*%
%TO.N,+5V*%
X121285000Y-142875000D03*
D11*
%TO.P,U12,1*%
%TO.N,!CC_MASTER*%
X113665000Y-120015000D03*
%TD*%
D10*
%TO.P,U11,20*%
%TO.N,+5V*%
X121285000Y-88265000D03*
%TO.P,U11,10*%
%TO.N,GND*%
X113665000Y-111125000D03*
%TO.P,U11,19*%
%TO.N,VA7*%
X121285000Y-90805000D03*
%TO.P,U11,9*%
%TO.N,VA3*%
X113665000Y-108585000D03*
%TO.P,U11,18*%
%TO.N,Y4*%
X121285000Y-93345000D03*
%TO.P,U11,8*%
%TO.N,X6*%
X113665000Y-106045000D03*
%TO.P,U11,17*%
%TO.N,X9*%
X121285000Y-95885000D03*
%TO.P,U11,7*%
%TO.N,X5*%
X113665000Y-103505000D03*
%TO.P,U11,16*%
%TO.N,VA6*%
X121285000Y-98425000D03*
%TO.P,U11,6*%
%TO.N,VA2*%
X113665000Y-100965000D03*
%TO.P,U11,15*%
%TO.N,VA5*%
X121285000Y-100965000D03*
%TO.P,U11,5*%
%TO.N,VA1*%
X113665000Y-98425000D03*
%TO.P,U11,14*%
%TO.N,X8*%
X121285000Y-103505000D03*
%TO.P,U11,4*%
%TO.N,X4*%
X113665000Y-95885000D03*
%TO.P,U11,13*%
%TO.N,X7*%
X121285000Y-106045000D03*
%TO.P,U11,3*%
%TO.N,X3*%
X113665000Y-93345000D03*
%TO.P,U11,12*%
%TO.N,VA4*%
X121285000Y-108585000D03*
%TO.P,U11,2*%
%TO.N,VA0*%
X113665000Y-90805000D03*
%TO.P,U11,11*%
%TO.N,+5V*%
X121285000Y-111125000D03*
D11*
%TO.P,U11,1*%
%TO.N,!CC_MASTER*%
X113665000Y-88265000D03*
%TD*%
D10*
%TO.P,U10,16*%
%TO.N,+5V*%
X69215000Y-141605000D03*
%TO.P,U10,8*%
%TO.N,GND*%
X61595000Y-159385000D03*
%TO.P,U10,15*%
%TO.N,Net-(U10-Pad15)*%
X69215000Y-144145000D03*
%TO.P,U10,7*%
%TO.N,+5V*%
X61595000Y-156845000D03*
%TO.P,U10,14*%
%TO.N,Y8*%
X69215000Y-146685000D03*
%TO.P,U10,6*%
%TO.N,GND*%
X61595000Y-154305000D03*
%TO.P,U10,13*%
%TO.N,Y9*%
X69215000Y-149225000D03*
%TO.P,U10,5*%
%TO.N,GND*%
X61595000Y-151765000D03*
%TO.P,U10,12*%
%TO.N,Y10*%
X69215000Y-151765000D03*
%TO.P,U10,4*%
%TO.N,GND*%
X61595000Y-149225000D03*
%TO.P,U10,11*%
%TO.N,Net-(U10-Pad11)*%
X69215000Y-154305000D03*
%TO.P,U10,3*%
%TO.N,GND*%
X61595000Y-146685000D03*
%TO.P,U10,10*%
%TO.N,Net-(U10-Pad10)*%
X69215000Y-156845000D03*
%TO.P,U10,2*%
%TO.N,VCLK*%
X61595000Y-144145000D03*
%TO.P,U10,9*%
%TO.N,+5V*%
X69215000Y-159385000D03*
D11*
%TO.P,U10,1*%
%TO.N,!VRST*%
X61595000Y-141605000D03*
%TD*%
D10*
%TO.P,U9,16*%
%TO.N,+5V*%
X69215000Y-114935000D03*
%TO.P,U9,8*%
%TO.N,GND*%
X61595000Y-132715000D03*
%TO.P,U9,15*%
%TO.N,Net-(U10-Pad10)*%
X69215000Y-117475000D03*
%TO.P,U9,7*%
%TO.N,+5V*%
X61595000Y-130175000D03*
%TO.P,U9,14*%
%TO.N,Y4*%
X69215000Y-120015000D03*
%TO.P,U9,6*%
%TO.N,GND*%
X61595000Y-127635000D03*
%TO.P,U9,13*%
%TO.N,Y5*%
X69215000Y-122555000D03*
%TO.P,U9,5*%
%TO.N,GND*%
X61595000Y-125095000D03*
%TO.P,U9,12*%
%TO.N,Y6*%
X69215000Y-125095000D03*
%TO.P,U9,4*%
%TO.N,GND*%
X61595000Y-122555000D03*
%TO.P,U9,11*%
%TO.N,Y7*%
X69215000Y-127635000D03*
%TO.P,U9,3*%
%TO.N,GND*%
X61595000Y-120015000D03*
%TO.P,U9,10*%
%TO.N,Net-(U8-Pad15)*%
X69215000Y-130175000D03*
%TO.P,U9,2*%
%TO.N,VCLK*%
X61595000Y-117475000D03*
%TO.P,U9,9*%
%TO.N,+5V*%
X69215000Y-132715000D03*
D11*
%TO.P,U9,1*%
%TO.N,!VRST*%
X61595000Y-114935000D03*
%TD*%
D10*
%TO.P,U8,16*%
%TO.N,+5V*%
X69215000Y-88265000D03*
%TO.P,U8,8*%
%TO.N,GND*%
X61595000Y-106045000D03*
%TO.P,U8,15*%
%TO.N,Net-(U8-Pad15)*%
X69215000Y-90805000D03*
%TO.P,U8,7*%
%TO.N,+5V*%
X61595000Y-103505000D03*
%TO.P,U8,14*%
%TO.N,Y0*%
X69215000Y-93345000D03*
%TO.P,U8,6*%
%TO.N,GND*%
X61595000Y-100965000D03*
%TO.P,U8,13*%
%TO.N,Y1*%
X69215000Y-95885000D03*
%TO.P,U8,5*%
%TO.N,GND*%
X61595000Y-98425000D03*
%TO.P,U8,12*%
%TO.N,Y2*%
X69215000Y-98425000D03*
%TO.P,U8,4*%
%TO.N,GND*%
X61595000Y-95885000D03*
%TO.P,U8,11*%
%TO.N,Y3*%
X69215000Y-100965000D03*
%TO.P,U8,3*%
%TO.N,GND*%
X61595000Y-93345000D03*
%TO.P,U8,10*%
%TO.N,LINE_INC*%
X69215000Y-103505000D03*
%TO.P,U8,2*%
%TO.N,VCLK*%
X61595000Y-90805000D03*
%TO.P,U8,9*%
%TO.N,+5V*%
X69215000Y-106045000D03*
D11*
%TO.P,U8,1*%
%TO.N,!VRST*%
X61595000Y-88265000D03*
%TD*%
D10*
%TO.P,U7,24*%
%TO.N,+5V*%
X55245000Y-131445000D03*
%TO.P,U7,12*%
%TO.N,GND*%
X47625000Y-159385000D03*
%TO.P,U7,23*%
%TO.N,VSYNC*%
X55245000Y-133985000D03*
%TO.P,U7,11*%
%TO.N,Y10*%
X47625000Y-156845000D03*
%TO.P,U7,22*%
%TO.N,VBLANK*%
X55245000Y-136525000D03*
%TO.P,U7,10*%
%TO.N,Y9*%
X47625000Y-154305000D03*
%TO.P,U7,21*%
%TO.N,!VRST*%
X55245000Y-139065000D03*
%TO.P,U7,9*%
%TO.N,Y8*%
X47625000Y-151765000D03*
%TO.P,U7,20*%
%TO.N,Net-(U7-Pad20)*%
X55245000Y-141605000D03*
%TO.P,U7,8*%
%TO.N,Y7*%
X47625000Y-149225000D03*
%TO.P,U7,19*%
%TO.N,Net-(U7-Pad19)*%
X55245000Y-144145000D03*
%TO.P,U7,7*%
%TO.N,Y6*%
X47625000Y-146685000D03*
%TO.P,U7,18*%
%TO.N,Net-(U7-Pad18)*%
X55245000Y-146685000D03*
%TO.P,U7,6*%
%TO.N,Y5*%
X47625000Y-144145000D03*
%TO.P,U7,17*%
%TO.N,Net-(U7-Pad17)*%
X55245000Y-149225000D03*
%TO.P,U7,5*%
%TO.N,Y4*%
X47625000Y-141605000D03*
%TO.P,U7,16*%
%TO.N,Net-(U7-Pad16)*%
X55245000Y-151765000D03*
%TO.P,U7,4*%
%TO.N,Y3*%
X47625000Y-139065000D03*
%TO.P,U7,15*%
%TO.N,Net-(U7-Pad15)*%
X55245000Y-154305000D03*
%TO.P,U7,3*%
%TO.N,Y2*%
X47625000Y-136525000D03*
%TO.P,U7,14*%
%TO.N,Net-(U7-Pad14)*%
X55245000Y-156845000D03*
%TO.P,U7,2*%
%TO.N,Y1*%
X47625000Y-133985000D03*
%TO.P,U7,13*%
%TO.N,Net-(U7-Pad13)*%
X55245000Y-159385000D03*
D11*
%TO.P,U7,1*%
%TO.N,Y0*%
X47625000Y-131445000D03*
%TD*%
D10*
%TO.P,U6,24*%
%TO.N,+5V*%
X163195000Y-120015000D03*
%TO.P,U6,12*%
%TO.N,GND*%
X155575000Y-147955000D03*
%TO.P,U6,23*%
%TO.N,!CPU_MASTER*%
X163195000Y-122555000D03*
%TO.P,U6,11*%
%TO.N,Net-(U6-Pad11)*%
X155575000Y-145415000D03*
%TO.P,U6,22*%
%TO.N,CPU_MASTER*%
X163195000Y-125095000D03*
%TO.P,U6,10*%
%TO.N,Net-(U6-Pad10)*%
X155575000Y-142875000D03*
%TO.P,U6,21*%
%TO.N,!VRAM_WRITE*%
X163195000Y-127635000D03*
%TO.P,U6,9*%
%TO.N,Net-(U6-Pad9)*%
X155575000Y-140335000D03*
%TO.P,U6,20*%
%TO.N,!CC_MASTER*%
X163195000Y-130175000D03*
%TO.P,U6,8*%
%TO.N,Net-(U6-Pad8)*%
X155575000Y-137795000D03*
%TO.P,U6,19*%
%TO.N,COLOR*%
X163195000Y-132715000D03*
%TO.P,U6,7*%
%TO.N,Net-(U6-Pad7)*%
X155575000Y-135255000D03*
%TO.P,U6,18*%
%TO.N,CHAR_LATCH*%
X163195000Y-135255000D03*
%TO.P,U6,6*%
%TO.N,R!W*%
X155575000Y-132715000D03*
%TO.P,U6,17*%
%TO.N,COLOR_LATCH*%
X163195000Y-137795000D03*
%TO.P,U6,5*%
%TO.N,A15*%
X155575000Y-130175000D03*
%TO.P,U6,16*%
%TO.N,!FONT_MASTER*%
X163195000Y-140335000D03*
%TO.P,U6,4*%
%TO.N,CLK*%
X155575000Y-127635000D03*
%TO.P,U6,15*%
%TO.N,FONT_LATCH*%
X163195000Y-142875000D03*
%TO.P,U6,3*%
%TO.N,X1*%
X155575000Y-125095000D03*
%TO.P,U6,14*%
%TO.N,RELATCH*%
X163195000Y-145415000D03*
%TO.P,U6,2*%
%TO.N,X0*%
X155575000Y-122555000D03*
%TO.P,U6,13*%
%TO.N,Net-(U6-Pad13)*%
X163195000Y-147955000D03*
D11*
%TO.P,U6,1*%
%TO.N,VCLK*%
X155575000Y-120015000D03*
%TD*%
D10*
%TO.P,U5,28*%
%TO.N,+5V*%
X135255000Y-88265000D03*
%TO.P,U5,14*%
%TO.N,GND*%
X127635000Y-121285000D03*
%TO.P,U5,27*%
%TO.N,!VRAM_WRITE*%
X135255000Y-90805000D03*
%TO.P,U5,13*%
%TO.N,VD2*%
X127635000Y-118745000D03*
%TO.P,U5,26*%
%TO.N,VA13*%
X135255000Y-93345000D03*
%TO.P,U5,12*%
%TO.N,VD1*%
X127635000Y-116205000D03*
%TO.P,U5,25*%
%TO.N,VA8*%
X135255000Y-95885000D03*
%TO.P,U5,11*%
%TO.N,VD0*%
X127635000Y-113665000D03*
%TO.P,U5,24*%
%TO.N,VA9*%
X135255000Y-98425000D03*
%TO.P,U5,10*%
%TO.N,VA0*%
X127635000Y-111125000D03*
%TO.P,U5,23*%
%TO.N,VA11*%
X135255000Y-100965000D03*
%TO.P,U5,9*%
%TO.N,VA1*%
X127635000Y-108585000D03*
%TO.P,U5,22*%
%TO.N,CPU_MASTER*%
X135255000Y-103505000D03*
%TO.P,U5,8*%
%TO.N,VA2*%
X127635000Y-106045000D03*
%TO.P,U5,21*%
%TO.N,VA10*%
X135255000Y-106045000D03*
%TO.P,U5,7*%
%TO.N,VA3*%
X127635000Y-103505000D03*
%TO.P,U5,20*%
%TO.N,GND*%
X135255000Y-108585000D03*
%TO.P,U5,6*%
%TO.N,VA4*%
X127635000Y-100965000D03*
%TO.P,U5,19*%
%TO.N,VD7*%
X135255000Y-111125000D03*
%TO.P,U5,5*%
%TO.N,VA5*%
X127635000Y-98425000D03*
%TO.P,U5,18*%
%TO.N,VD6*%
X135255000Y-113665000D03*
%TO.P,U5,4*%
%TO.N,VA6*%
X127635000Y-95885000D03*
%TO.P,U5,17*%
%TO.N,VD5*%
X135255000Y-116205000D03*
%TO.P,U5,3*%
%TO.N,VA7*%
X127635000Y-93345000D03*
%TO.P,U5,16*%
%TO.N,VD4*%
X135255000Y-118745000D03*
%TO.P,U5,2*%
%TO.N,VA12*%
X127635000Y-90805000D03*
%TO.P,U5,15*%
%TO.N,VD3*%
X135255000Y-121285000D03*
D11*
%TO.P,U5,1*%
%TO.N,VA14*%
X127635000Y-88265000D03*
%TD*%
D10*
%TO.P,U4,16*%
%TO.N,+5V*%
X41275000Y-141605000D03*
%TO.P,U4,8*%
%TO.N,GND*%
X33655000Y-159385000D03*
%TO.P,U4,15*%
%TO.N,Net-(U4-Pad15)*%
X41275000Y-144145000D03*
%TO.P,U4,7*%
%TO.N,+5V*%
X33655000Y-156845000D03*
%TO.P,U4,14*%
%TO.N,X8*%
X41275000Y-146685000D03*
%TO.P,U4,6*%
%TO.N,GND*%
X33655000Y-154305000D03*
%TO.P,U4,13*%
%TO.N,X9*%
X41275000Y-149225000D03*
%TO.P,U4,5*%
%TO.N,GND*%
X33655000Y-151765000D03*
%TO.P,U4,12*%
%TO.N,X10*%
X41275000Y-151765000D03*
%TO.P,U4,4*%
%TO.N,GND*%
X33655000Y-149225000D03*
%TO.P,U4,11*%
%TO.N,Net-(U4-Pad11)*%
X41275000Y-154305000D03*
%TO.P,U4,3*%
%TO.N,GND*%
X33655000Y-146685000D03*
%TO.P,U4,10*%
%TO.N,Net-(U3-Pad15)*%
X41275000Y-156845000D03*
%TO.P,U4,2*%
%TO.N,VCLK*%
X33655000Y-144145000D03*
%TO.P,U4,9*%
%TO.N,+5V*%
X41275000Y-159385000D03*
D11*
%TO.P,U4,1*%
%TO.N,!HRST*%
X33655000Y-141605000D03*
%TD*%
D10*
%TO.P,U3,16*%
%TO.N,+5V*%
X41275000Y-114935000D03*
%TO.P,U3,8*%
%TO.N,GND*%
X33655000Y-132715000D03*
%TO.P,U3,15*%
%TO.N,Net-(U3-Pad15)*%
X41275000Y-117475000D03*
%TO.P,U3,7*%
%TO.N,+5V*%
X33655000Y-130175000D03*
%TO.P,U3,14*%
%TO.N,X4*%
X41275000Y-120015000D03*
%TO.P,U3,6*%
%TO.N,GND*%
X33655000Y-127635000D03*
%TO.P,U3,13*%
%TO.N,X5*%
X41275000Y-122555000D03*
%TO.P,U3,5*%
%TO.N,GND*%
X33655000Y-125095000D03*
%TO.P,U3,12*%
%TO.N,X6*%
X41275000Y-125095000D03*
%TO.P,U3,4*%
%TO.N,GND*%
X33655000Y-122555000D03*
%TO.P,U3,11*%
%TO.N,X7*%
X41275000Y-127635000D03*
%TO.P,U3,3*%
%TO.N,GND*%
X33655000Y-120015000D03*
%TO.P,U3,10*%
%TO.N,Net-(U2-Pad15)*%
X41275000Y-130175000D03*
%TO.P,U3,2*%
%TO.N,VCLK*%
X33655000Y-117475000D03*
%TO.P,U3,9*%
%TO.N,+5V*%
X41275000Y-132715000D03*
D11*
%TO.P,U3,1*%
%TO.N,!HRST*%
X33655000Y-114935000D03*
%TD*%
D10*
%TO.P,U2,16*%
%TO.N,+5V*%
X41275000Y-88265000D03*
%TO.P,U2,8*%
%TO.N,GND*%
X33655000Y-106045000D03*
%TO.P,U2,15*%
%TO.N,Net-(U2-Pad15)*%
X41275000Y-90805000D03*
%TO.P,U2,7*%
%TO.N,+5V*%
X33655000Y-103505000D03*
%TO.P,U2,14*%
%TO.N,X0*%
X41275000Y-93345000D03*
%TO.P,U2,6*%
%TO.N,GND*%
X33655000Y-100965000D03*
%TO.P,U2,13*%
%TO.N,X1*%
X41275000Y-95885000D03*
%TO.P,U2,5*%
%TO.N,GND*%
X33655000Y-98425000D03*
%TO.P,U2,12*%
%TO.N,CLK*%
X41275000Y-98425000D03*
%TO.P,U2,4*%
%TO.N,GND*%
X33655000Y-95885000D03*
%TO.P,U2,11*%
%TO.N,X3*%
X41275000Y-100965000D03*
%TO.P,U2,3*%
%TO.N,GND*%
X33655000Y-93345000D03*
%TO.P,U2,10*%
%TO.N,+5V*%
X41275000Y-103505000D03*
%TO.P,U2,2*%
%TO.N,VCLK*%
X33655000Y-90805000D03*
%TO.P,U2,9*%
%TO.N,+5V*%
X41275000Y-106045000D03*
D11*
%TO.P,U2,1*%
%TO.N,!HRST*%
X33655000Y-88265000D03*
%TD*%
D10*
%TO.P,U1,24*%
%TO.N,+5V*%
X55245000Y-88265000D03*
%TO.P,U1,12*%
%TO.N,GND*%
X47625000Y-116205000D03*
%TO.P,U1,23*%
%TO.N,HSYNC*%
X55245000Y-90805000D03*
%TO.P,U1,11*%
%TO.N,X10*%
X47625000Y-113665000D03*
%TO.P,U1,22*%
%TO.N,BLANK*%
X55245000Y-93345000D03*
%TO.P,U1,10*%
%TO.N,X9*%
X47625000Y-111125000D03*
%TO.P,U1,21*%
%TO.N,!HRST*%
X55245000Y-95885000D03*
%TO.P,U1,9*%
%TO.N,X8*%
X47625000Y-108585000D03*
%TO.P,U1,20*%
%TO.N,LINE_INC*%
X55245000Y-98425000D03*
%TO.P,U1,8*%
%TO.N,X7*%
X47625000Y-106045000D03*
%TO.P,U1,19*%
%TO.N,Net-(U1-Pad19)*%
X55245000Y-100965000D03*
%TO.P,U1,7*%
%TO.N,X6*%
X47625000Y-103505000D03*
%TO.P,U1,18*%
%TO.N,Net-(U1-Pad18)*%
X55245000Y-103505000D03*
%TO.P,U1,6*%
%TO.N,X5*%
X47625000Y-100965000D03*
%TO.P,U1,17*%
%TO.N,Net-(U1-Pad17)*%
X55245000Y-106045000D03*
%TO.P,U1,5*%
%TO.N,X4*%
X47625000Y-98425000D03*
%TO.P,U1,16*%
%TO.N,Net-(U1-Pad16)*%
X55245000Y-108585000D03*
%TO.P,U1,4*%
%TO.N,X3*%
X47625000Y-95885000D03*
%TO.P,U1,15*%
%TO.N,Net-(U1-Pad15)*%
X55245000Y-111125000D03*
%TO.P,U1,3*%
%TO.N,CLK*%
X47625000Y-93345000D03*
%TO.P,U1,14*%
%TO.N,Net-(U1-Pad14)*%
X55245000Y-113665000D03*
%TO.P,U1,2*%
%TO.N,X1*%
X47625000Y-90805000D03*
%TO.P,U1,13*%
%TO.N,VBLANK*%
X55245000Y-116205000D03*
D11*
%TO.P,U1,1*%
%TO.N,X0*%
X47625000Y-88265000D03*
%TD*%
D12*
%TO.P,R6,1*%
%TO.N,B*%
X190500000Y-162560000D03*
D10*
%TO.P,R6,2*%
%TO.N,Net-(R2-Pad2)*%
X200660000Y-162560000D03*
%TD*%
%TO.P,R5,2*%
%TO.N,B*%
X186690000Y-162560000D03*
D12*
%TO.P,R5,1*%
%TO.N,Net-(R5-Pad1)*%
X176530000Y-162560000D03*
%TD*%
%TO.P,R4,1*%
%TO.N,G*%
X190500000Y-157480000D03*
D10*
%TO.P,R4,2*%
%TO.N,Net-(R2-Pad2)*%
X200660000Y-157480000D03*
%TD*%
%TO.P,R3,2*%
%TO.N,G*%
X186690000Y-157480000D03*
D12*
%TO.P,R3,1*%
%TO.N,Net-(R3-Pad1)*%
X176530000Y-157480000D03*
%TD*%
%TO.P,R2,1*%
%TO.N,R*%
X190500000Y-152400000D03*
D10*
%TO.P,R2,2*%
%TO.N,Net-(R2-Pad2)*%
X200660000Y-152400000D03*
%TD*%
%TO.P,R1,2*%
%TO.N,R*%
X186690000Y-152400000D03*
D12*
%TO.P,R1,1*%
%TO.N,Net-(R1-Pad1)*%
X176530000Y-152400000D03*
%TD*%
D15*
%TO.P,J3,0*%
%TO.N,N/C*%
X144075000Y-160800000D03*
X119075000Y-160800000D03*
D12*
%TO.P,J3,15*%
%TO.N,Net-(J3-Pad15)*%
X126730000Y-162710000D03*
%TO.P,J3,14*%
%TO.N,VSYNC_OUT*%
X129020000Y-162710000D03*
%TO.P,J3,13*%
%TO.N,HSYNC_OUT*%
X131310000Y-162710000D03*
%TO.P,J3,12*%
%TO.N,Net-(J3-Pad12)*%
X133600000Y-162710000D03*
%TO.P,J3,11*%
%TO.N,Net-(J3-Pad11)*%
X135890000Y-162710000D03*
%TO.P,J3,10*%
%TO.N,GND*%
X127875000Y-160730000D03*
%TO.P,J3,9*%
X130165000Y-160730000D03*
%TO.P,J3,8*%
X132455000Y-160730000D03*
%TO.P,J3,7*%
X134745000Y-160730000D03*
%TO.P,J3,6*%
X137035000Y-160730000D03*
%TO.P,J3,5*%
X126730000Y-158750000D03*
%TO.P,J3,4*%
%TO.N,Net-(J3-Pad4)*%
X129020000Y-158750000D03*
%TO.P,J3,3*%
%TO.N,B*%
X131310000Y-158750000D03*
%TO.P,J3,2*%
%TO.N,G*%
X133600000Y-158750000D03*
D11*
%TO.P,J3,1*%
%TO.N,R*%
X135890000Y-158750000D03*
%TD*%
D16*
%TO.N,VD1*%
X137084200Y-117475000D03*
%TO.N,VD7*%
X105978600Y-116746000D03*
%TO.N,VD6*%
X136595900Y-134597700D03*
%TO.N,VD5*%
X102725300Y-122426400D03*
X138372700Y-125201000D03*
%TO.N,VD4*%
X105063400Y-117471300D03*
%TO.N,VD3*%
X136937600Y-111559400D03*
%TO.N,VD2*%
X137669400Y-122102100D03*
X174178600Y-130175000D03*
%TO.N,A5*%
X87247200Y-104107200D03*
%TO.N,A6*%
X86959400Y-95885000D03*
%TO.N,A7*%
X87694300Y-93345000D03*
%TO.N,A12*%
X87426500Y-137795000D03*
%TO.N,A13*%
X82328200Y-131452400D03*
%TO.N,D3*%
X143049900Y-144636600D03*
%TO.N,D4*%
X143569900Y-148354500D03*
%TO.N,D2*%
X144359100Y-146250600D03*
%TO.N,D5*%
X150442300Y-145795300D03*
%TO.N,A14*%
X91864400Y-117465900D03*
%TO.N,X0*%
X158553100Y-88246100D03*
%TO.N,X3*%
X118244800Y-87643100D03*
%TO.N,X6*%
X116147600Y-111026300D03*
%TO.N,X7*%
X119541100Y-110742400D03*
%TO.N,X8*%
X119726200Y-90656500D03*
X49688500Y-95109400D03*
%TO.N,X9*%
X119057600Y-112208400D03*
%TO.N,Y3*%
X59020500Y-101366900D03*
X94967500Y-106116600D03*
X90386800Y-100309000D03*
%TO.N,Y4*%
X82132100Y-88378300D03*
%TO.N,Y9*%
X116242700Y-138910100D03*
%TO.N,VA2*%
X90847500Y-101462800D03*
X96097200Y-101580100D03*
%TO.N,VA8*%
X139591300Y-126820400D03*
%TO.N,VA9*%
X128774600Y-131311100D03*
%TO.N,VA10*%
X128746100Y-132440000D03*
%TO.N,VA11*%
X119271600Y-141015700D03*
%TO.N,VSYNC*%
X86226100Y-116740600D03*
%TO.N,!CC_MASTER*%
X161332500Y-125091800D03*
%TO.N,!FONT_MASTER*%
X103246300Y-142255500D03*
X161332500Y-142252900D03*
%TO.N,COLOR_LATCH*%
X165274500Y-116564300D03*
%TO.N,!VRAM_WRITE*%
X161332500Y-101557400D03*
%TO.N,CPU_MASTER*%
X160883300Y-105995900D03*
%TO.N,A15*%
X81541500Y-137697300D03*
X153338400Y-148166700D03*
%TO.N,CLK*%
X157799200Y-94964900D03*
%TD*%
D17*
%TO.N,GND*%
X101045000Y-146050000D02*
X102304400Y-144790600D01*
X102304400Y-144790600D02*
X106769900Y-144790600D01*
X106769900Y-144790600D02*
X108029300Y-146050000D01*
X108029300Y-146050000D02*
X114935000Y-146050000D01*
X114935000Y-114300000D02*
X113684600Y-115550400D01*
X113684600Y-115550400D02*
X102215400Y-115550400D01*
X102215400Y-115550400D02*
X100965000Y-114300000D01*
X127875000Y-160730000D02*
X126730000Y-159585000D01*
X126730000Y-159585000D02*
X126730000Y-158750000D01*
X100965000Y-114300000D02*
X99706300Y-115558700D01*
X99706300Y-115558700D02*
X87618700Y-115558700D01*
X87618700Y-115558700D02*
X86360000Y-114300000D01*
X155575000Y-147955000D02*
X152419700Y-144799700D01*
X152419700Y-144799700D02*
X144205300Y-144799700D01*
X144205300Y-144799700D02*
X142955000Y-146050000D01*
X61595000Y-93345000D02*
X62865000Y-92075000D01*
X62865000Y-92075000D02*
X69732800Y-92075000D01*
X69732800Y-92075000D02*
X71002800Y-90805000D01*
X71002800Y-90805000D02*
X76200000Y-90805000D01*
X65405000Y-139065000D02*
X65405000Y-142875000D01*
X65405000Y-142875000D02*
X61595000Y-146685000D01*
X62865000Y-135890000D02*
X65405000Y-138430000D01*
X65405000Y-138430000D02*
X65405000Y-139065000D01*
X65405000Y-139065000D02*
X76200000Y-139065000D01*
X193040000Y-111125000D02*
X194310000Y-109855000D01*
X194310000Y-109855000D02*
X207645000Y-109855000D01*
X207645000Y-109855000D02*
X208280000Y-109220000D01*
X47625000Y-159385000D02*
X48895000Y-158115000D01*
X48895000Y-158115000D02*
X60325000Y-158115000D01*
X60325000Y-158115000D02*
X61595000Y-159385000D01*
X190540000Y-118150000D02*
X192405000Y-120015000D01*
X180420000Y-114300000D02*
X184270000Y-118150000D01*
X184270000Y-118150000D02*
X190540000Y-118150000D01*
X194390000Y-114300000D02*
X190540000Y-118150000D01*
X141605000Y-111125000D02*
X142875000Y-109855000D01*
X142875000Y-109855000D02*
X154305000Y-109855000D01*
X154305000Y-109855000D02*
X155575000Y-111125000D01*
X113665000Y-111125000D02*
X114915400Y-109874600D01*
X114915400Y-109874600D02*
X133965400Y-109874600D01*
X133965400Y-109874600D02*
X135255000Y-108585000D01*
X86360000Y-146050000D02*
X87667000Y-144743000D01*
X87667000Y-144743000D02*
X97827000Y-144743000D01*
X97827000Y-144743000D02*
X99695000Y-142875000D01*
X141605000Y-88265000D02*
X142855400Y-89515400D01*
X142855400Y-89515400D02*
X154324600Y-89515400D01*
X154324600Y-89515400D02*
X155575000Y-88265000D01*
X60900400Y-120709600D02*
X61595000Y-120015000D01*
X61595000Y-122555000D02*
X60900400Y-121860400D01*
X60900400Y-121860400D02*
X60900400Y-120709600D01*
X60900400Y-120709600D02*
X50224600Y-120709600D01*
X50224600Y-120709600D02*
X48895000Y-119380000D01*
X179070000Y-88265000D02*
X167735600Y-88265000D01*
X167735600Y-88265000D02*
X166485200Y-89515400D01*
X166485200Y-89515400D02*
X156825400Y-89515400D01*
X156825400Y-89515400D02*
X155575000Y-88265000D01*
X113665000Y-142875000D02*
X114915300Y-144125300D01*
X114915300Y-144125300D02*
X132099700Y-144125300D01*
X132099700Y-144125300D02*
X134620000Y-141605000D01*
X178435000Y-142875000D02*
X179685400Y-141624600D01*
X179685400Y-141624600D02*
X191154600Y-141624600D01*
X191154600Y-141624600D02*
X192405000Y-142875000D01*
X76200000Y-139065000D02*
X78740000Y-139065000D01*
X170180000Y-139065000D02*
X172720000Y-139065000D01*
X132455000Y-160730000D02*
X130165000Y-160730000D01*
X134745000Y-160730000D02*
X132455000Y-160730000D01*
X137035000Y-160730000D02*
X134745000Y-160730000D01*
X207725000Y-140970000D02*
X207090000Y-141605000D01*
X207090000Y-141605000D02*
X193675000Y-141605000D01*
X193675000Y-141605000D02*
X192405000Y-142875000D01*
D18*
%TO.N,VD1*%
X127635000Y-116205000D02*
X133351900Y-116205000D01*
X133351900Y-116205000D02*
X134621900Y-117475000D01*
X134621900Y-117475000D02*
X137084200Y-117475000D01*
X141605000Y-130175000D02*
X145296200Y-126483800D01*
X145296200Y-126483800D02*
X166757600Y-126483800D01*
X166757600Y-126483800D02*
X167908800Y-127635000D01*
X167908800Y-127635000D02*
X178435000Y-127635000D01*
%TO.N,VD0*%
X178435000Y-125095000D02*
X168597200Y-125095000D01*
X168597200Y-125095000D02*
X164787200Y-121285000D01*
X164787200Y-121285000D02*
X160346500Y-121285000D01*
X160346500Y-121285000D02*
X157029000Y-117967500D01*
X157029000Y-117967500D02*
X141345200Y-117967500D01*
X141345200Y-117967500D02*
X140444600Y-118868100D01*
X127635000Y-113665000D02*
X128760400Y-114790400D01*
X128760400Y-114790400D02*
X136366900Y-114790400D01*
X136366900Y-114790400D02*
X140444600Y-118868100D01*
X140444600Y-118868100D02*
X140444600Y-121394600D01*
X140444600Y-121394600D02*
X141605000Y-122555000D01*
%TO.N,VD7*%
X105978600Y-116746000D02*
X106567700Y-116156900D01*
X106567700Y-116156900D02*
X119748900Y-116156900D01*
X119748900Y-116156900D02*
X123510800Y-112395000D01*
X123510800Y-112395000D02*
X133985000Y-112395000D01*
X133985000Y-112395000D02*
X135255000Y-111125000D01*
X135255000Y-111125000D02*
X141196900Y-117066900D01*
X141196900Y-117066900D02*
X164751400Y-117066900D01*
X164751400Y-117066900D02*
X165196300Y-117511800D01*
X165196300Y-117511800D02*
X178471800Y-117511800D01*
X178471800Y-117511800D02*
X186055000Y-125095000D01*
%TO.N,VD6*%
X136595900Y-134597700D02*
X134781200Y-136412400D01*
X134781200Y-136412400D02*
X100852400Y-136412400D01*
X100852400Y-136412400D02*
X99695000Y-135255000D01*
X186055000Y-127635000D02*
X182878100Y-127635000D01*
X182878100Y-127635000D02*
X178923500Y-123680400D01*
X178923500Y-123680400D02*
X175866100Y-123680400D01*
X175866100Y-123680400D02*
X174740700Y-122555000D01*
X174740700Y-122555000D02*
X168611000Y-122555000D01*
X168611000Y-122555000D02*
X163573200Y-117517200D01*
X163573200Y-117517200D02*
X139744100Y-117517200D01*
X139744100Y-117517200D02*
X135891900Y-113665000D01*
X135891900Y-113665000D02*
X135255000Y-113665000D01*
%TO.N,VD5*%
X138372700Y-125201000D02*
X137983100Y-125590600D01*
X137983100Y-125590600D02*
X133515800Y-125590600D01*
X133515800Y-125590600D02*
X131259900Y-123334700D01*
X131259900Y-123334700D02*
X127321900Y-123334700D01*
X127321900Y-123334700D02*
X122414800Y-118427600D01*
X122414800Y-118427600D02*
X107233600Y-118427600D01*
X107233600Y-118427600D02*
X103234800Y-122426400D01*
X103234800Y-122426400D02*
X102725300Y-122426400D01*
X149225000Y-132715000D02*
X150359800Y-131580200D01*
X150359800Y-131580200D02*
X165113300Y-131580200D01*
X165113300Y-131580200D02*
X166342600Y-132809500D01*
X166342600Y-132809500D02*
X174835200Y-132809500D01*
X174835200Y-132809500D02*
X176010700Y-133985000D01*
X176010700Y-133985000D02*
X179254600Y-133985000D01*
X179254600Y-133985000D02*
X180524600Y-135255000D01*
X180524600Y-135255000D02*
X186055000Y-135255000D01*
%TO.N,VD4*%
X105063400Y-117471300D02*
X106279100Y-117471300D01*
X106279100Y-117471300D02*
X106730100Y-117020300D01*
X106730100Y-117020300D02*
X123255200Y-117020300D01*
X123255200Y-117020300D02*
X123583300Y-117348400D01*
X123583300Y-117348400D02*
X133858400Y-117348400D01*
X133858400Y-117348400D02*
X135255000Y-118745000D01*
X149225000Y-140335000D02*
X150350400Y-141460400D01*
X150350400Y-141460400D02*
X178968500Y-141460400D01*
X178968500Y-141460400D02*
X182633900Y-137795000D01*
X182633900Y-137795000D02*
X186055000Y-137795000D01*
%TO.N,VD3*%
X136937600Y-107459800D02*
X136792800Y-107315000D01*
X136792800Y-107315000D02*
X134927500Y-107315000D01*
X134927500Y-107315000D02*
X129243300Y-101630800D01*
X129243300Y-101630800D02*
X129243300Y-100963900D01*
X129243300Y-100963900D02*
X127974400Y-99695000D01*
X127974400Y-99695000D02*
X127259200Y-99695000D01*
X127259200Y-99695000D02*
X122089300Y-94525100D01*
X122089300Y-94525100D02*
X109132000Y-94525100D01*
X109132000Y-94525100D02*
X107951900Y-93345000D01*
X107951900Y-93345000D02*
X107315000Y-93345000D01*
X141605000Y-140335000D02*
X142875000Y-139065000D01*
X142875000Y-139065000D02*
X166638800Y-139065000D01*
X166638800Y-139065000D02*
X167908800Y-137795000D01*
X167908800Y-137795000D02*
X178435000Y-137795000D01*
X136937600Y-107459800D02*
X137010000Y-107387400D01*
X137010000Y-107387400D02*
X177727600Y-107387400D01*
X177727600Y-107387400D02*
X179070000Y-106045000D01*
X136937600Y-111559400D02*
X136937600Y-107459800D01*
%TO.N,VD2*%
X127635000Y-118745000D02*
X132486700Y-118745000D01*
X132486700Y-118745000D02*
X133612100Y-119870400D01*
X133612100Y-119870400D02*
X135437700Y-119870400D01*
X135437700Y-119870400D02*
X137669400Y-122102100D01*
X141605000Y-132715000D02*
X145272600Y-129047400D01*
X145272600Y-129047400D02*
X168422200Y-129047400D01*
X168422200Y-129047400D02*
X169549800Y-130175000D01*
X169549800Y-130175000D02*
X174178600Y-130175000D01*
%TO.N,A3*%
X85090000Y-106045000D02*
X81280000Y-106045000D01*
X81280000Y-106045000D02*
X78740000Y-108585000D01*
%TO.N,A4*%
X92710000Y-106045000D02*
X91440000Y-107315000D01*
X91440000Y-107315000D02*
X82701500Y-107315000D01*
X82701500Y-107315000D02*
X80161500Y-109855000D01*
X80161500Y-109855000D02*
X77470000Y-109855000D01*
X77470000Y-109855000D02*
X76200000Y-111125000D01*
%TO.N,A5*%
X92710000Y-103505000D02*
X87849400Y-103505000D01*
X87849400Y-103505000D02*
X87247200Y-104107200D01*
%TO.N,A6*%
X92710000Y-95885000D02*
X86959400Y-95885000D01*
%TO.N,A7*%
X92710000Y-93345000D02*
X87694300Y-93345000D01*
%TO.N,A12*%
X92710000Y-137795000D02*
X87426500Y-137795000D01*
%TO.N,A13*%
X92710000Y-135255000D02*
X88188200Y-135255000D01*
X88188200Y-135255000D02*
X86918200Y-133985000D01*
X86918200Y-133985000D02*
X84764600Y-133985000D01*
X84764600Y-133985000D02*
X82328200Y-131548600D01*
X82328200Y-131548600D02*
X82328200Y-131452400D01*
%TO.N,D3*%
X143049900Y-144636600D02*
X138666800Y-144636600D01*
X138666800Y-144636600D02*
X138112300Y-145191100D01*
X138112300Y-145191100D02*
X123254000Y-145191100D01*
X123254000Y-145191100D02*
X121269700Y-147175400D01*
X121269700Y-147175400D02*
X85892100Y-147175400D01*
X85892100Y-147175400D02*
X83964600Y-145247900D01*
X83964600Y-145247900D02*
X83964600Y-134129600D01*
X83964600Y-134129600D02*
X78740000Y-128905000D01*
%TO.N,D4*%
X76200000Y-131445000D02*
X77470000Y-132715000D01*
X77470000Y-132715000D02*
X79174300Y-132715000D01*
X79174300Y-132715000D02*
X82459300Y-136000000D01*
X82459300Y-136000000D02*
X82459300Y-145653300D01*
X82459300Y-145653300D02*
X85332300Y-148526300D01*
X85332300Y-148526300D02*
X143398100Y-148526300D01*
X143398100Y-148526300D02*
X143569900Y-148354500D01*
%TO.N,D2*%
X76200000Y-128905000D02*
X77470000Y-130175000D01*
X77470000Y-130175000D02*
X79136400Y-130175000D01*
X79136400Y-130175000D02*
X83472200Y-134510800D01*
X83472200Y-134510800D02*
X83472200Y-145392400D01*
X83472200Y-145392400D02*
X85705500Y-147625700D01*
X85705500Y-147625700D02*
X121456300Y-147625700D01*
X121456300Y-147625700D02*
X121906600Y-147175400D01*
X121906600Y-147175400D02*
X143434300Y-147175400D01*
X143434300Y-147175400D02*
X144359100Y-146250600D01*
%TO.N,D5*%
X78740000Y-131445000D02*
X82909600Y-135614600D01*
X82909600Y-135614600D02*
X82909600Y-145466700D01*
X82909600Y-145466700D02*
X85518900Y-148076000D01*
X85518900Y-148076000D02*
X121642900Y-148076000D01*
X121642900Y-148076000D02*
X122089700Y-147629200D01*
X122089700Y-147629200D02*
X148608400Y-147629200D01*
X148608400Y-147629200D02*
X150442300Y-145795300D01*
%TO.N,D1*%
X141605000Y-127635000D02*
X123198600Y-127635000D01*
X123198600Y-127635000D02*
X121928600Y-126365000D01*
X121928600Y-126365000D02*
X78740000Y-126365000D01*
%TO.N,D0*%
X141605000Y-125095000D02*
X140975800Y-124465800D01*
X140975800Y-124465800D02*
X135626900Y-124465800D01*
X135626900Y-124465800D02*
X134045400Y-122884300D01*
X134045400Y-122884300D02*
X127527100Y-122884300D01*
X127527100Y-122884300D02*
X122620000Y-117977200D01*
X122620000Y-117977200D02*
X107047000Y-117977200D01*
X107047000Y-117977200D02*
X103883800Y-121140400D01*
X103883800Y-121140400D02*
X84754100Y-121140400D01*
X84754100Y-121140400D02*
X80799500Y-125095000D01*
X80799500Y-125095000D02*
X77470000Y-125095000D01*
X77470000Y-125095000D02*
X76200000Y-126365000D01*
%TO.N,A14*%
X76200000Y-123825000D02*
X77470000Y-122555000D01*
X77470000Y-122555000D02*
X80317100Y-122555000D01*
X80317100Y-122555000D02*
X85406200Y-117465900D01*
X85406200Y-117465900D02*
X91864400Y-117465900D01*
D17*
%TO.N,+5V*%
X76200000Y-136525000D02*
X68500000Y-136525000D01*
X68500000Y-136525000D02*
X67865000Y-135890000D01*
X78740000Y-136525000D02*
X76200000Y-136525000D01*
X61595000Y-130175000D02*
X56515000Y-130175000D01*
X56515000Y-130175000D02*
X55245000Y-131445000D01*
X69215000Y-132715000D02*
X66675000Y-130175000D01*
X66675000Y-130175000D02*
X61595000Y-130175000D01*
X147955000Y-114300000D02*
X149209200Y-115554200D01*
X149209200Y-115554200D02*
X160670800Y-115554200D01*
X160670800Y-115554200D02*
X161925000Y-114300000D01*
X185420000Y-114300000D02*
X186673500Y-113046500D01*
X186673500Y-113046500D02*
X198136500Y-113046500D01*
X198136500Y-113046500D02*
X199390000Y-114300000D01*
X69215000Y-88265000D02*
X67964600Y-89515400D01*
X67964600Y-89515400D02*
X56495400Y-89515400D01*
X56495400Y-89515400D02*
X55245000Y-88265000D01*
X69215000Y-106045000D02*
X66675000Y-103505000D01*
X66675000Y-103505000D02*
X61595000Y-103505000D01*
X214630000Y-88265000D02*
X213379600Y-89515400D01*
X213379600Y-89515400D02*
X201910400Y-89515400D01*
X201910400Y-89515400D02*
X200660000Y-88265000D01*
X135255000Y-88265000D02*
X136505400Y-87014600D01*
X136505400Y-87014600D02*
X147974600Y-87014600D01*
X147974600Y-87014600D02*
X149225000Y-88265000D01*
X135255000Y-88265000D02*
X134004700Y-87014700D01*
X134004700Y-87014700D02*
X122535300Y-87014700D01*
X122535300Y-87014700D02*
X121285000Y-88265000D01*
X41275000Y-159385000D02*
X38735000Y-156845000D01*
X38735000Y-156845000D02*
X33655000Y-156845000D01*
X41275000Y-159385000D02*
X42662000Y-160772000D01*
X42662000Y-160772000D02*
X52107000Y-160772000D01*
X52107000Y-160772000D02*
X53895000Y-162560000D01*
X121285000Y-120015000D02*
X120034600Y-121265400D01*
X120034600Y-121265400D02*
X108565400Y-121265400D01*
X108565400Y-121265400D02*
X107315000Y-120015000D01*
X170180000Y-136525000D02*
X172720000Y-136525000D01*
D18*
%TO.N,X0*%
X158553100Y-88246100D02*
X155104500Y-84797500D01*
X155104500Y-84797500D02*
X51092500Y-84797500D01*
X51092500Y-84797500D02*
X47625000Y-88265000D01*
X214630000Y-100965000D02*
X216266200Y-99328800D01*
X216266200Y-99328800D02*
X216266200Y-88274200D01*
X216266200Y-88274200D02*
X215107500Y-87115500D01*
X215107500Y-87115500D02*
X159683700Y-87115500D01*
X159683700Y-87115500D02*
X158553100Y-88246100D01*
%TO.N,X3*%
X47625000Y-95885000D02*
X52225200Y-91284800D01*
X52225200Y-91284800D02*
X52225200Y-88354000D01*
X52225200Y-88354000D02*
X55331400Y-85247800D01*
X55331400Y-85247800D02*
X115849500Y-85247800D01*
X115849500Y-85247800D02*
X118244800Y-87643100D01*
%TO.N,VCLK*%
X36125200Y-118622400D02*
X46799200Y-118622400D01*
X46799200Y-118622400D02*
X47496300Y-117925300D01*
X47496300Y-117925300D02*
X61144700Y-117925300D01*
X61144700Y-117925300D02*
X61595000Y-117475000D01*
X155575000Y-120015000D02*
X151765000Y-123825000D01*
X151765000Y-123825000D02*
X147318100Y-123825000D01*
X147318100Y-123825000D02*
X142382700Y-128760400D01*
X142382700Y-128760400D02*
X139844600Y-128760400D01*
X139844600Y-128760400D02*
X134620000Y-133985000D01*
X33655000Y-117475000D02*
X34802400Y-118622400D01*
X34802400Y-118622400D02*
X36125200Y-118622400D01*
X33655000Y-144145000D02*
X36125200Y-141674800D01*
X36125200Y-141674800D02*
X36125200Y-118622400D01*
%TO.N,X4*%
X47625000Y-98425000D02*
X51344900Y-94705100D01*
X51344900Y-94705100D02*
X108170000Y-94705100D01*
X108170000Y-94705100D02*
X109349900Y-95885000D01*
X109349900Y-95885000D02*
X113665000Y-95885000D01*
%TO.N,X5*%
X47625000Y-100965000D02*
X53830300Y-107170300D01*
X53830300Y-107170300D02*
X72841600Y-107170300D01*
X72841600Y-107170300D02*
X75179000Y-104832900D01*
X75179000Y-104832900D02*
X112337100Y-104832900D01*
X112337100Y-104832900D02*
X113665000Y-103505000D01*
%TO.N,X6*%
X47625000Y-103505000D02*
X53975000Y-109855000D01*
X53975000Y-109855000D02*
X55620700Y-109855000D01*
X55620700Y-109855000D02*
X58090700Y-112325000D01*
X58090700Y-112325000D02*
X81070300Y-112325000D01*
X81070300Y-112325000D02*
X81144900Y-112250400D01*
X81144900Y-112250400D02*
X114923500Y-112250400D01*
X114923500Y-112250400D02*
X116147600Y-111026300D01*
%TO.N,X7*%
X119541100Y-110742400D02*
X119497900Y-110742400D01*
X119497900Y-110742400D02*
X117525800Y-112714500D01*
X117525800Y-112714500D02*
X83636400Y-112714500D01*
X83636400Y-112714500D02*
X81469600Y-114881300D01*
X81469600Y-114881300D02*
X74654000Y-114881300D01*
X74654000Y-114881300D02*
X72711100Y-112938400D01*
X72711100Y-112938400D02*
X56823600Y-112938400D01*
X56823600Y-112938400D02*
X56411800Y-112526600D01*
X56411800Y-112526600D02*
X54106600Y-112526600D01*
X54106600Y-112526600D02*
X47625000Y-106045000D01*
%TO.N,X8*%
X49688500Y-95109400D02*
X52722900Y-92075000D01*
X52722900Y-92075000D02*
X55634500Y-92075000D01*
X55634500Y-92075000D02*
X56423400Y-91286100D01*
X56423400Y-91286100D02*
X56423400Y-90391800D01*
X56423400Y-90391800D02*
X55711200Y-89679600D01*
X55711200Y-89679600D02*
X55004800Y-89679600D01*
X55004800Y-89679600D02*
X54111400Y-88786200D01*
X54111400Y-88786200D02*
X54111400Y-87741600D01*
X54111400Y-87741600D02*
X55704600Y-86148400D01*
X55704600Y-86148400D02*
X115000500Y-86148400D01*
X115000500Y-86148400D02*
X119508600Y-90656500D01*
X119508600Y-90656500D02*
X119726200Y-90656500D01*
%TO.N,X9*%
X47625000Y-111125000D02*
X53862400Y-117362400D01*
X53862400Y-117362400D02*
X56032600Y-117362400D01*
X56032600Y-117362400D02*
X57071200Y-116323800D01*
X57071200Y-116323800D02*
X73625000Y-116323800D01*
X73625000Y-116323800D02*
X74707700Y-117406500D01*
X74707700Y-117406500D02*
X80396400Y-117406500D01*
X80396400Y-117406500D02*
X84628300Y-113174600D01*
X84628300Y-113174600D02*
X118091400Y-113174600D01*
X118091400Y-113174600D02*
X119057600Y-112208400D01*
%TO.N,Y0*%
X69215000Y-93345000D02*
X69295900Y-93345000D01*
X69295900Y-93345000D02*
X70471300Y-92169600D01*
X70471300Y-92169600D02*
X97882700Y-92169600D01*
X97882700Y-92169600D02*
X99058100Y-93345000D01*
X99058100Y-93345000D02*
X99695000Y-93345000D01*
%TO.N,Y1*%
X69215000Y-95885000D02*
X70404600Y-97074600D01*
X70404600Y-97074600D02*
X93594200Y-97074600D01*
X93594200Y-97074600D02*
X94783800Y-95885000D01*
X94783800Y-95885000D02*
X99695000Y-95885000D01*
%TO.N,Y2*%
X69215000Y-98425000D02*
X72978100Y-102188100D01*
X72978100Y-102188100D02*
X95679500Y-102188100D01*
X95679500Y-102188100D02*
X96996400Y-103505000D01*
X96996400Y-103505000D02*
X99695000Y-103505000D01*
%TO.N,Y3*%
X68086800Y-99836800D02*
X68086800Y-97957900D01*
X68086800Y-97957900D02*
X68745000Y-97299700D01*
X68745000Y-97299700D02*
X69988900Y-97299700D01*
X69988900Y-97299700D02*
X72404000Y-99714800D01*
X72404000Y-99714800D02*
X86061500Y-99714800D01*
X86061500Y-99714800D02*
X86655700Y-100309000D01*
X86655700Y-100309000D02*
X90386800Y-100309000D01*
X69215000Y-100965000D02*
X68086800Y-99836800D01*
X59020500Y-101366900D02*
X60550600Y-99836800D01*
X60550600Y-99836800D02*
X68086800Y-99836800D01*
X94967500Y-106116600D02*
X99623400Y-106116600D01*
X99623400Y-106116600D02*
X99695000Y-106045000D01*
%TO.N,Y4*%
X82132100Y-88378300D02*
X83415900Y-87094500D01*
X83415900Y-87094500D02*
X109304500Y-87094500D01*
X109304500Y-87094500D02*
X111706600Y-89496600D01*
X111706600Y-89496600D02*
X113971500Y-89496600D01*
X113971500Y-89496600D02*
X117819900Y-93345000D01*
X117819900Y-93345000D02*
X121285000Y-93345000D01*
X47625000Y-141605000D02*
X52317600Y-136912400D01*
X52317600Y-136912400D02*
X52317600Y-132138700D01*
X52317600Y-132138700D02*
X60631300Y-123825000D01*
X60631300Y-123825000D02*
X65405000Y-123825000D01*
X65405000Y-123825000D02*
X69215000Y-120015000D01*
%TO.N,Y5*%
X47625000Y-144145000D02*
X53213900Y-138556100D01*
X53213900Y-138556100D02*
X53213900Y-131881800D01*
X53213900Y-131881800D02*
X56190700Y-128905000D01*
X56190700Y-128905000D02*
X62865000Y-128905000D01*
X62865000Y-128905000D02*
X69215000Y-122555000D01*
%TO.N,Y6*%
X70861900Y-127706900D02*
X70861900Y-126741900D01*
X70861900Y-126741900D02*
X69215000Y-125095000D01*
X47625000Y-146685000D02*
X53975000Y-140335000D01*
X53975000Y-140335000D02*
X55636800Y-140335000D01*
X55636800Y-140335000D02*
X61262200Y-134709600D01*
X61262200Y-134709600D02*
X69521800Y-134709600D01*
X69521800Y-134709600D02*
X70861900Y-133369500D01*
X70861900Y-133369500D02*
X70861900Y-127706900D01*
X113665000Y-127635000D02*
X109218100Y-127635000D01*
X109218100Y-127635000D02*
X108066900Y-128786200D01*
X108066900Y-128786200D02*
X81950700Y-128786200D01*
X81950700Y-128786200D02*
X80871400Y-127706900D01*
X80871400Y-127706900D02*
X70861900Y-127706900D01*
%TO.N,Y8*%
X47625000Y-151765000D02*
X48895000Y-150495000D01*
X48895000Y-150495000D02*
X65405000Y-150495000D01*
X65405000Y-150495000D02*
X69215000Y-146685000D01*
%TO.N,Y9*%
X121285000Y-137795000D02*
X120169900Y-138910100D01*
X120169900Y-138910100D02*
X116242700Y-138910100D01*
X47625000Y-154305000D02*
X48950500Y-152979500D01*
X48950500Y-152979500D02*
X65460500Y-152979500D01*
X65460500Y-152979500D02*
X69215000Y-149225000D01*
%TO.N,Y10*%
X47625000Y-156845000D02*
X48895000Y-155575000D01*
X48895000Y-155575000D02*
X62567500Y-155575000D01*
X62567500Y-155575000D02*
X62720400Y-155422100D01*
X62720400Y-155422100D02*
X65557900Y-155422100D01*
X65557900Y-155422100D02*
X69215000Y-151765000D01*
%TO.N,Net-(U18-Pad15)*%
X186690000Y-100965000D02*
X187815400Y-102090400D01*
X187815400Y-102090400D02*
X199245400Y-102090400D01*
X199245400Y-102090400D02*
X200660000Y-103505000D01*
%TO.N,!CPU_MASTER*%
X85090000Y-120015000D02*
X86665600Y-118439400D01*
X86665600Y-118439400D02*
X105947900Y-118439400D01*
X105947900Y-118439400D02*
X106916600Y-117470700D01*
X106916600Y-117470700D02*
X123068700Y-117470700D01*
X123068700Y-117470700D02*
X125613000Y-120015000D01*
X125613000Y-120015000D02*
X132316700Y-120015000D01*
X132316700Y-120015000D02*
X136018200Y-123716500D01*
X136018200Y-123716500D02*
X142035300Y-123716500D01*
X142035300Y-123716500D02*
X142875000Y-122876800D01*
X142875000Y-122876800D02*
X142875000Y-121285000D01*
X142875000Y-121285000D02*
X141605000Y-120015000D01*
X163195000Y-122555000D02*
X160941100Y-122555000D01*
X160941100Y-122555000D02*
X156803900Y-118417800D01*
X156803900Y-118417800D02*
X145742200Y-118417800D01*
X145742200Y-118417800D02*
X142875000Y-121285000D01*
%TO.N,VA7*%
X107315000Y-90805000D02*
X106175500Y-91944500D01*
X106175500Y-91944500D02*
X98612800Y-91944500D01*
X98612800Y-91944500D02*
X97473300Y-90805000D01*
X97473300Y-90805000D02*
X92710000Y-90805000D01*
%TO.N,VA0*%
X99695000Y-90805000D02*
X100885600Y-89614400D01*
X100885600Y-89614400D02*
X111187400Y-89614400D01*
X111187400Y-89614400D02*
X112378000Y-90805000D01*
X112378000Y-90805000D02*
X113665000Y-90805000D01*
X99695000Y-90805000D02*
X98551900Y-89661900D01*
X98551900Y-89661900D02*
X86233100Y-89661900D01*
X86233100Y-89661900D02*
X85090000Y-90805000D01*
%TO.N,VA6*%
X107315000Y-98425000D02*
X108449300Y-97290700D01*
X108449300Y-97290700D02*
X120150700Y-97290700D01*
X120150700Y-97290700D02*
X121285000Y-98425000D01*
X107315000Y-98425000D02*
X106173800Y-97283800D01*
X106173800Y-97283800D02*
X98614500Y-97283800D01*
X98614500Y-97283800D02*
X97473300Y-98425000D01*
X97473300Y-98425000D02*
X92710000Y-98425000D01*
%TO.N,VA1*%
X127635000Y-108585000D02*
X129264600Y-106955400D01*
X129264600Y-106955400D02*
X129264600Y-103508000D01*
X129264600Y-103508000D02*
X127991600Y-102235000D01*
X127991600Y-102235000D02*
X125996500Y-102235000D01*
X125996500Y-102235000D02*
X123315900Y-99554400D01*
X123315900Y-99554400D02*
X120192700Y-99554400D01*
X120192700Y-99554400D02*
X119063300Y-98425000D01*
X119063300Y-98425000D02*
X113665000Y-98425000D01*
X113665000Y-98425000D02*
X113028200Y-98425000D01*
X113028200Y-98425000D02*
X111870500Y-99582700D01*
X111870500Y-99582700D02*
X105614100Y-99582700D01*
X105614100Y-99582700D02*
X104456400Y-98425000D01*
X104456400Y-98425000D02*
X99695000Y-98425000D01*
X99695000Y-98425000D02*
X99058200Y-98425000D01*
X99058200Y-98425000D02*
X97900500Y-99582700D01*
X97900500Y-99582700D02*
X86884600Y-99582700D01*
X86884600Y-99582700D02*
X85726900Y-98425000D01*
X85726900Y-98425000D02*
X85090000Y-98425000D01*
%TO.N,VA5*%
X107315000Y-100965000D02*
X111607700Y-100965000D01*
X111607700Y-100965000D02*
X112738700Y-99834000D01*
X112738700Y-99834000D02*
X119517100Y-99834000D01*
X119517100Y-99834000D02*
X120648100Y-100965000D01*
X120648100Y-100965000D02*
X121285000Y-100965000D01*
X107315000Y-100965000D02*
X106041200Y-100965000D01*
X106041200Y-100965000D02*
X104884000Y-99807800D01*
X104884000Y-99807800D02*
X98630500Y-99807800D01*
X98630500Y-99807800D02*
X97583500Y-100854800D01*
X97583500Y-100854800D02*
X92820200Y-100854800D01*
X92820200Y-100854800D02*
X92710000Y-100965000D01*
%TO.N,VA2*%
X127635000Y-106045000D02*
X123969600Y-102379600D01*
X123969600Y-102379600D02*
X115079600Y-102379600D01*
X115079600Y-102379600D02*
X113665000Y-100965000D01*
X99695000Y-100965000D02*
X99079900Y-101580100D01*
X99079900Y-101580100D02*
X96097200Y-101580100D01*
X113665000Y-100965000D02*
X112530000Y-102100000D01*
X112530000Y-102100000D02*
X100830000Y-102100000D01*
X100830000Y-102100000D02*
X99695000Y-100965000D01*
X90847500Y-101462800D02*
X85587800Y-101462800D01*
X85587800Y-101462800D02*
X85090000Y-100965000D01*
%TO.N,VA4*%
X107315000Y-108585000D02*
X108454400Y-109724400D01*
X108454400Y-109724400D02*
X114251900Y-109724400D01*
X114251900Y-109724400D02*
X115391300Y-108585000D01*
X115391300Y-108585000D02*
X121285000Y-108585000D01*
X107315000Y-108585000D02*
X106187000Y-109713000D01*
X106187000Y-109713000D02*
X93838000Y-109713000D01*
X93838000Y-109713000D02*
X92710000Y-108585000D01*
%TO.N,VA3*%
X127635000Y-103505000D02*
X128773500Y-104643500D01*
X128773500Y-104643500D02*
X128773500Y-106504200D01*
X128773500Y-106504200D02*
X127962700Y-107315000D01*
X127962700Y-107315000D02*
X114935000Y-107315000D01*
X114935000Y-107315000D02*
X113665000Y-108585000D01*
X113665000Y-108585000D02*
X112539600Y-107459600D01*
X112539600Y-107459600D02*
X100820400Y-107459600D01*
X100820400Y-107459600D02*
X99695000Y-108585000D01*
X85090000Y-108585000D02*
X90806900Y-108585000D01*
X90806900Y-108585000D02*
X91963700Y-107428200D01*
X91963700Y-107428200D02*
X98538200Y-107428200D01*
X98538200Y-107428200D02*
X99695000Y-108585000D01*
%TO.N,VA8*%
X139591300Y-126820400D02*
X126283700Y-126820400D01*
X126283700Y-126820400D02*
X123288300Y-123825000D01*
X123288300Y-123825000D02*
X114935000Y-123825000D01*
X114935000Y-123825000D02*
X113665000Y-122555000D01*
X113665000Y-122555000D02*
X112507600Y-123712400D01*
X112507600Y-123712400D02*
X100852400Y-123712400D01*
X100852400Y-123712400D02*
X99695000Y-122555000D01*
X99695000Y-122555000D02*
X98545600Y-123704400D01*
X98545600Y-123704400D02*
X86239400Y-123704400D01*
X86239400Y-123704400D02*
X85090000Y-122555000D01*
%TO.N,VA14*%
X121285000Y-130175000D02*
X120108500Y-128998500D01*
X120108500Y-128998500D02*
X108491500Y-128998500D01*
X108491500Y-128998500D02*
X107315000Y-130175000D01*
%TO.N,VA9*%
X113665000Y-130175000D02*
X111246600Y-130175000D01*
X111246600Y-130175000D02*
X110119400Y-131302200D01*
X110119400Y-131302200D02*
X100822200Y-131302200D01*
X100822200Y-131302200D02*
X99695000Y-130175000D01*
X128774600Y-131311100D02*
X120331800Y-131311100D01*
X120331800Y-131311100D02*
X119195700Y-130175000D01*
X119195700Y-130175000D02*
X113665000Y-130175000D01*
X99695000Y-130175000D02*
X98537300Y-131332700D01*
X98537300Y-131332700D02*
X86247700Y-131332700D01*
X86247700Y-131332700D02*
X85090000Y-130175000D01*
%TO.N,VA13*%
X107315000Y-132715000D02*
X101593700Y-132715000D01*
X101593700Y-132715000D02*
X100447900Y-131569200D01*
X100447900Y-131569200D02*
X98937700Y-131569200D01*
X98937700Y-131569200D02*
X97791900Y-132715000D01*
X97791900Y-132715000D02*
X92710000Y-132715000D01*
X107315000Y-132715000D02*
X111232900Y-132715000D01*
X111232900Y-132715000D02*
X112358600Y-131589300D01*
X112358600Y-131589300D02*
X118885500Y-131589300D01*
X118885500Y-131589300D02*
X120011200Y-132715000D01*
X120011200Y-132715000D02*
X121285000Y-132715000D01*
%TO.N,VA10*%
X113665000Y-132715000D02*
X114809800Y-133859800D01*
X114809800Y-133859800D02*
X125325000Y-133859800D01*
X125325000Y-133859800D02*
X126744800Y-132440000D01*
X126744800Y-132440000D02*
X128746100Y-132440000D01*
X113665000Y-132715000D02*
X112525600Y-133854400D01*
X112525600Y-133854400D02*
X100834400Y-133854400D01*
X100834400Y-133854400D02*
X99695000Y-132715000D01*
X99695000Y-132715000D02*
X98553900Y-133856100D01*
X98553900Y-133856100D02*
X91906100Y-133856100D01*
X91906100Y-133856100D02*
X90765000Y-132715000D01*
X90765000Y-132715000D02*
X85090000Y-132715000D01*
%TO.N,VA12*%
X107315000Y-140335000D02*
X106170100Y-139190100D01*
X106170100Y-139190100D02*
X93854900Y-139190100D01*
X93854900Y-139190100D02*
X92710000Y-140335000D01*
X121285000Y-140335000D02*
X121232600Y-140282600D01*
X121232600Y-140282600D02*
X115905700Y-140282600D01*
X115905700Y-140282600D02*
X114818700Y-139195600D01*
X114818700Y-139195600D02*
X108454400Y-139195600D01*
X108454400Y-139195600D02*
X107315000Y-140335000D01*
%TO.N,VA11*%
X99695000Y-140335000D02*
X100825700Y-141465700D01*
X100825700Y-141465700D02*
X108087400Y-141465700D01*
X108087400Y-141465700D02*
X109218100Y-140335000D01*
X109218100Y-140335000D02*
X113665000Y-140335000D01*
X119271600Y-141015700D02*
X114345700Y-141015700D01*
X114345700Y-141015700D02*
X113665000Y-140335000D01*
X99695000Y-140335000D02*
X98552300Y-141477700D01*
X98552300Y-141477700D02*
X86232700Y-141477700D01*
X86232700Y-141477700D02*
X85090000Y-140335000D01*
%TO.N,BG_I*%
X200025000Y-122555000D02*
X201295000Y-123825000D01*
X201295000Y-123825000D02*
X214316700Y-123825000D01*
X214316700Y-123825000D02*
X215154900Y-124663200D01*
X215154900Y-124663200D02*
X215154900Y-134095100D01*
X215154900Y-134095100D02*
X213995000Y-135255000D01*
%TO.N,FG_I*%
X192405000Y-140335000D02*
X198121900Y-140335000D01*
X198121900Y-140335000D02*
X199391900Y-139065000D01*
X199391900Y-139065000D02*
X207645000Y-139065000D01*
X207645000Y-139065000D02*
X213995000Y-132715000D01*
%TO.N,BG_B*%
X200025000Y-130175000D02*
X201186500Y-131336500D01*
X201186500Y-131336500D02*
X210293500Y-131336500D01*
X210293500Y-131336500D02*
X213995000Y-127635000D01*
%TO.N,FG_B*%
X213995000Y-125095000D02*
X208915000Y-130175000D01*
X208915000Y-130175000D02*
X206375000Y-130175000D01*
X192405000Y-130175000D02*
X198121900Y-130175000D01*
X198121900Y-130175000D02*
X199257900Y-129039000D01*
X199257900Y-129039000D02*
X205239000Y-129039000D01*
X205239000Y-129039000D02*
X206375000Y-130175000D01*
%TO.N,BG_G*%
X200025000Y-132715000D02*
X206375000Y-132715000D01*
%TO.N,FG_R*%
X192405000Y-122555000D02*
X193595600Y-121364400D01*
X193595600Y-121364400D02*
X205184400Y-121364400D01*
X205184400Y-121364400D02*
X206375000Y-122555000D01*
%TO.N,!HRST*%
X40014100Y-102099400D02*
X40014100Y-100636300D01*
X40014100Y-100636300D02*
X33992800Y-94615000D01*
X33992800Y-94615000D02*
X33329900Y-94615000D01*
X33329900Y-94615000D02*
X32493800Y-93778900D01*
X32493800Y-93778900D02*
X32493800Y-89426200D01*
X32493800Y-89426200D02*
X33655000Y-88265000D01*
X55245000Y-95885000D02*
X51579600Y-99550400D01*
X51579600Y-99550400D02*
X45378800Y-99550400D01*
X45378800Y-99550400D02*
X42829800Y-102099400D01*
X42829800Y-102099400D02*
X40014100Y-102099400D01*
X40014100Y-102099400D02*
X33655000Y-108458500D01*
X33655000Y-108458500D02*
X33655000Y-114935000D01*
X33655000Y-114935000D02*
X32488600Y-116101400D01*
X32488600Y-116101400D02*
X32488600Y-140438600D01*
X32488600Y-140438600D02*
X33655000Y-141605000D01*
%TO.N,BLANK*%
X55245000Y-93345000D02*
X56370400Y-92219600D01*
X56370400Y-92219600D02*
X61839300Y-92219600D01*
X61839300Y-92219600D02*
X63442200Y-90616700D01*
X63442200Y-90616700D02*
X67677000Y-90616700D01*
X67677000Y-90616700D02*
X68758700Y-89535000D01*
X68758700Y-89535000D02*
X75396900Y-89535000D01*
X75396900Y-89535000D02*
X78287800Y-86644100D01*
X78287800Y-86644100D02*
X114677800Y-86644100D01*
X114677800Y-86644100D02*
X120108700Y-92075000D01*
X120108700Y-92075000D02*
X121621700Y-92075000D01*
X121621700Y-92075000D02*
X126701700Y-97155000D01*
X126701700Y-97155000D02*
X128176200Y-97155000D01*
X128176200Y-97155000D02*
X133256200Y-102235000D01*
X133256200Y-102235000D02*
X140335000Y-102235000D01*
X140335000Y-102235000D02*
X141605000Y-103505000D01*
%TO.N,LINE_INC*%
X55245000Y-98425000D02*
X55245000Y-98617100D01*
X55245000Y-98617100D02*
X58880900Y-102253000D01*
X58880900Y-102253000D02*
X67963000Y-102253000D01*
X67963000Y-102253000D02*
X69215000Y-103505000D01*
%TO.N,HSYNC*%
X141605000Y-93345000D02*
X137795000Y-89535000D01*
X137795000Y-89535000D02*
X119024100Y-89535000D01*
X119024100Y-89535000D02*
X115187200Y-85698100D01*
X115187200Y-85698100D02*
X55518000Y-85698100D01*
X55518000Y-85698100D02*
X53661100Y-87555000D01*
X53661100Y-87555000D02*
X53661100Y-89221100D01*
X53661100Y-89221100D02*
X55245000Y-90805000D01*
%TO.N,VSYNC*%
X55245000Y-133985000D02*
X69546700Y-133985000D01*
X69546700Y-133985000D02*
X70380500Y-133151200D01*
X70380500Y-133151200D02*
X70380500Y-127171000D01*
X70380500Y-127171000D02*
X69574500Y-126365000D01*
X69574500Y-126365000D02*
X68832100Y-126365000D01*
X68832100Y-126365000D02*
X68089500Y-125622400D01*
X68089500Y-125622400D02*
X68089500Y-124545800D01*
X68089500Y-124545800D02*
X68810300Y-123825000D01*
X68810300Y-123825000D02*
X70118800Y-123825000D01*
X70118800Y-123825000D02*
X73928800Y-120015000D01*
X73928800Y-120015000D02*
X80073400Y-120015000D01*
X80073400Y-120015000D02*
X83347800Y-116740600D01*
X83347800Y-116740600D02*
X86226100Y-116740600D01*
%TO.N,RELATCH*%
X200660000Y-111125000D02*
X199483300Y-112301700D01*
X199483300Y-112301700D02*
X164371700Y-112301700D01*
X164371700Y-112301700D02*
X163195000Y-111125000D01*
X200025000Y-142875000D02*
X198183500Y-144716500D01*
X198183500Y-144716500D02*
X163893500Y-144716500D01*
X163893500Y-144716500D02*
X163195000Y-145415000D01*
%TO.N,!CC_MASTER*%
X161332500Y-125091800D02*
X161332500Y-123677600D01*
X161332500Y-123677600D02*
X156544500Y-118889600D01*
X156544500Y-118889600D02*
X153510000Y-118889600D01*
X153510000Y-118889600D02*
X151114600Y-121285000D01*
X151114600Y-121285000D02*
X148339200Y-121285000D01*
X148339200Y-121285000D02*
X143385200Y-126239000D01*
X143385200Y-126239000D02*
X141157400Y-126239000D01*
X141157400Y-126239000D02*
X140966400Y-126048000D01*
X140966400Y-126048000D02*
X128929000Y-126048000D01*
X128929000Y-126048000D02*
X121759000Y-118878000D01*
X121759000Y-118878000D02*
X114802000Y-118878000D01*
X114802000Y-118878000D02*
X113665000Y-120015000D01*
%TO.N,CHAR_LATCH*%
X107315000Y-142875000D02*
X108449000Y-141741000D01*
X108449000Y-141741000D02*
X124400200Y-141741000D01*
X124400200Y-141741000D02*
X126972200Y-139169000D01*
X126972200Y-139169000D02*
X142134100Y-139169000D01*
X142134100Y-139169000D02*
X144778100Y-136525000D01*
X144778100Y-136525000D02*
X161925000Y-136525000D01*
X161925000Y-136525000D02*
X163195000Y-135255000D01*
%TO.N,!FONT_MASTER*%
X161332500Y-142252900D02*
X159568300Y-144017100D01*
X159568300Y-144017100D02*
X148205500Y-144017100D01*
X148205500Y-144017100D02*
X148053900Y-143865500D01*
X148053900Y-143865500D02*
X142726000Y-143865500D01*
X142726000Y-143865500D02*
X142529000Y-144062500D01*
X142529000Y-144062500D02*
X134869300Y-144062500D01*
X134869300Y-144062500D02*
X134191100Y-144740700D01*
X134191100Y-144740700D02*
X107589100Y-144740700D01*
X107589100Y-144740700D02*
X105103900Y-142255500D01*
X105103900Y-142255500D02*
X103246300Y-142255500D01*
%TO.N,COLOR_LATCH*%
X165274500Y-116564300D02*
X165274500Y-116056900D01*
X165274500Y-116056900D02*
X162158800Y-112941200D01*
X162158800Y-112941200D02*
X151041200Y-112941200D01*
X151041200Y-112941200D02*
X149225000Y-111125000D01*
%TO.N,!VRAM_WRITE*%
X135255000Y-90805000D02*
X139065000Y-94615000D01*
X139065000Y-94615000D02*
X155906200Y-94615000D01*
X155906200Y-94615000D02*
X161332500Y-100041300D01*
X161332500Y-100041300D02*
X161332500Y-101557400D01*
%TO.N,CPU_MASTER*%
X135255000Y-103505000D02*
X136525000Y-104775000D01*
X136525000Y-104775000D02*
X159662400Y-104775000D01*
X159662400Y-104775000D02*
X160883300Y-105995900D01*
%TO.N,COLOR*%
X163195000Y-132715000D02*
X162037600Y-133872400D01*
X162037600Y-133872400D02*
X136295500Y-133872400D01*
X136295500Y-133872400D02*
X135870600Y-134297300D01*
X135870600Y-134297300D02*
X135870600Y-134328600D01*
X135870600Y-134328600D02*
X134944200Y-135255000D01*
X134944200Y-135255000D02*
X121285000Y-135255000D01*
%TO.N,A15*%
X153338400Y-148166700D02*
X144783400Y-148166700D01*
X144783400Y-148166700D02*
X144783400Y-148166800D01*
X144783400Y-148166800D02*
X143838300Y-149111900D01*
X143838300Y-149111900D02*
X85281000Y-149111900D01*
X85281000Y-149111900D02*
X81541500Y-145372400D01*
X81541500Y-145372400D02*
X81541500Y-137697300D01*
%TO.N,Net-(U21-Pad15)*%
X186055000Y-132715000D02*
X187325000Y-133985000D01*
X187325000Y-133985000D02*
X198755000Y-133985000D01*
X198755000Y-133985000D02*
X200025000Y-135255000D01*
%TO.N,CLK*%
X214630000Y-106045000D02*
X213215400Y-104630400D01*
X213215400Y-104630400D02*
X206379000Y-104630400D01*
X206379000Y-104630400D02*
X201443600Y-99695000D01*
X201443600Y-99695000D02*
X162529300Y-99695000D01*
X162529300Y-99695000D02*
X157799200Y-94964900D01*
%TO.N,BLANK_OUT*%
X155575000Y-100965000D02*
X156939500Y-102329500D01*
X156939500Y-102329500D02*
X179763500Y-102329500D01*
X179763500Y-102329500D02*
X182209000Y-104775000D01*
X182209000Y-104775000D02*
X203232400Y-104775000D01*
X203232400Y-104775000D02*
X205941200Y-107483800D01*
X205941200Y-107483800D02*
X208135300Y-107483800D01*
X208135300Y-107483800D02*
X212580400Y-111928900D01*
X212580400Y-111928900D02*
X212580400Y-121140400D01*
X212580400Y-121140400D02*
X213995000Y-122555000D01*
%TO.N,Net-(U18-Pad19)*%
X186690000Y-90805000D02*
X187869500Y-89625500D01*
X187869500Y-89625500D02*
X196940500Y-89625500D01*
X196940500Y-89625500D02*
X200660000Y-93345000D01*
%TO.N,Net-(U18-Pad16)*%
X186690000Y-98425000D02*
X191136900Y-98425000D01*
X191136900Y-98425000D02*
X192262300Y-97299600D01*
X192262300Y-97299600D02*
X199245400Y-97299600D01*
X199245400Y-97299600D02*
X200660000Y-95885000D01*
%TO.N,B*%
X131310000Y-158750000D02*
X134155800Y-155904200D01*
X134155800Y-155904200D02*
X190591300Y-155904200D01*
X190591300Y-155904200D02*
X191626600Y-156939500D01*
X191626600Y-156939500D02*
X191626600Y-161433400D01*
X191626600Y-161433400D02*
X190500000Y-162560000D01*
X186690000Y-162560000D02*
X190500000Y-162560000D01*
%TO.N,G*%
X133600000Y-158750000D02*
X135995400Y-156354600D01*
X135995400Y-156354600D02*
X185564600Y-156354600D01*
X185564600Y-156354600D02*
X186690000Y-157480000D01*
X190500000Y-157480000D02*
X186690000Y-157480000D01*
%TO.N,R*%
X135890000Y-158750000D02*
X136207200Y-158432800D01*
X136207200Y-158432800D02*
X170556600Y-158432800D01*
X170556600Y-158432800D02*
X175835100Y-163711300D01*
X175835100Y-163711300D02*
X191009500Y-163711300D01*
X191009500Y-163711300D02*
X192076900Y-162643900D01*
X192076900Y-162643900D02*
X192076900Y-153976900D01*
X192076900Y-153976900D02*
X190500000Y-152400000D01*
X190500000Y-152400000D02*
X186690000Y-152400000D01*
%TO.N,Net-(R2-Pad2)*%
X200660000Y-152400000D02*
X200660000Y-151130000D01*
X200660000Y-151130000D02*
X213995000Y-137795000D01*
%TO.N,Net-(U18-Pad9)*%
X179070000Y-108585000D02*
X180195400Y-107459600D01*
X180195400Y-107459600D02*
X187144300Y-107459600D01*
X187144300Y-107459600D02*
X188558900Y-106045000D01*
X188558900Y-106045000D02*
X193040000Y-106045000D01*
%TO.N,Net-(U18-Pad6)*%
X179070000Y-100965000D02*
X180340000Y-102235000D01*
X180340000Y-102235000D02*
X187167400Y-102235000D01*
X187167400Y-102235000D02*
X188437400Y-103505000D01*
X188437400Y-103505000D02*
X193040000Y-103505000D01*
%TO.N,Net-(U18-Pad5)*%
X179070000Y-98425000D02*
X180340000Y-97155000D01*
X180340000Y-97155000D02*
X191770000Y-97155000D01*
X191770000Y-97155000D02*
X193040000Y-95885000D01*
%TO.N,Net-(U18-Pad12)*%
X200660000Y-106045000D02*
X199390000Y-107315000D01*
X199390000Y-107315000D02*
X187960000Y-107315000D01*
X187960000Y-107315000D02*
X186690000Y-108585000D01*
%TO.N,Net-(U18-Pad2)*%
X179070000Y-90805000D02*
X180340000Y-92075000D01*
X180340000Y-92075000D02*
X191770000Y-92075000D01*
X191770000Y-92075000D02*
X193040000Y-93345000D01*
%TO.N,Net-(U19-Pad19)*%
X200660000Y-90805000D02*
X202045000Y-92190000D01*
X202045000Y-92190000D02*
X211674800Y-92190000D01*
X211674800Y-92190000D02*
X214099800Y-94615000D01*
X214099800Y-94615000D02*
X214951800Y-94615000D01*
X214951800Y-94615000D02*
X215771400Y-95434600D01*
X215771400Y-95434600D02*
X215771400Y-97283600D01*
X215771400Y-97283600D02*
X214630000Y-98425000D01*
%TO.N,Net-(U19-Pad16)*%
X214630000Y-95885000D02*
X210928500Y-99586500D01*
X210928500Y-99586500D02*
X202868100Y-99586500D01*
X202868100Y-99586500D02*
X201706600Y-98425000D01*
X201706600Y-98425000D02*
X200660000Y-98425000D01*
%TO.N,Net-(U19-Pad5)*%
X193040000Y-98425000D02*
X198756900Y-98425000D01*
X198756900Y-98425000D02*
X200026900Y-97155000D01*
X200026900Y-97155000D02*
X207371700Y-97155000D01*
X207371700Y-97155000D02*
X208161400Y-96365300D01*
X208161400Y-96365300D02*
X208161400Y-94496400D01*
X208161400Y-94496400D02*
X207010000Y-93345000D01*
%TO.N,Net-(U19-Pad2)*%
X193040000Y-90805000D02*
X196850000Y-94615000D01*
X196850000Y-94615000D02*
X205740000Y-94615000D01*
X205740000Y-94615000D02*
X207010000Y-95885000D01*
%TO.N,Net-(U21-Pad19)*%
X186055000Y-122555000D02*
X187325000Y-123825000D01*
X187325000Y-123825000D02*
X198755000Y-123825000D01*
X198755000Y-123825000D02*
X200025000Y-125095000D01*
%TO.N,Net-(U21-Pad9)*%
X178435000Y-140335000D02*
X182165600Y-136604400D01*
X182165600Y-136604400D02*
X191214400Y-136604400D01*
X191214400Y-136604400D02*
X192405000Y-137795000D01*
%TO.N,Net-(U21-Pad16)*%
X186055000Y-130175000D02*
X190501900Y-130175000D01*
X190501900Y-130175000D02*
X191771900Y-128905000D01*
X191771900Y-128905000D02*
X198755000Y-128905000D01*
X198755000Y-128905000D02*
X200025000Y-127635000D01*
%TO.N,Net-(U21-Pad6)*%
X192405000Y-135255000D02*
X187923900Y-135255000D01*
X187923900Y-135255000D02*
X186509300Y-133840400D01*
X186509300Y-133840400D02*
X180197300Y-133840400D01*
X180197300Y-133840400D02*
X179071900Y-132715000D01*
X179071900Y-132715000D02*
X178435000Y-132715000D01*
%TO.N,Net-(U21-Pad5)*%
X178435000Y-130175000D02*
X179560400Y-129049600D01*
X179560400Y-129049600D02*
X190990400Y-129049600D01*
X190990400Y-129049600D02*
X192405000Y-127635000D01*
%TO.N,Net-(U21-Pad12)*%
X186055000Y-140335000D02*
X187180400Y-139209600D01*
X187180400Y-139209600D02*
X198610400Y-139209600D01*
X198610400Y-139209600D02*
X200025000Y-137795000D01*
%TO.N,Net-(U21-Pad2)*%
X192405000Y-125095000D02*
X191243500Y-126256500D01*
X191243500Y-126256500D02*
X182136500Y-126256500D01*
X182136500Y-126256500D02*
X178435000Y-122555000D01*
%TO.N,Net-(U24-Pad6)*%
X141605000Y-100965000D02*
X142875000Y-102235000D01*
X142875000Y-102235000D02*
X154305000Y-102235000D01*
X154305000Y-102235000D02*
X155575000Y-103505000D01*
%TO.N,Net-(U24-Pad5)*%
X141605000Y-98425000D02*
X142875000Y-97155000D01*
X142875000Y-97155000D02*
X154305000Y-97155000D01*
X154305000Y-97155000D02*
X155575000Y-95885000D01*
%TO.N,Net-(U24-Pad2)*%
X141605000Y-90805000D02*
X142875000Y-92075000D01*
X142875000Y-92075000D02*
X154305000Y-92075000D01*
X154305000Y-92075000D02*
X155575000Y-93345000D01*
%TD*%
M02*
