M48
; DRILL file {KiCad (5.1.8)-1} date 12/28/20 18:02:55
; FORMAT={-:-/ absolute / inch / decimal}
; #@! TF.CreationDate,2020-12-28T18:02:55+00:00
; #@! TF.GenerationSoftware,Kicad,Pcbnew,(5.1.8)-1
FMAT,2
INCH
T1C0.0157
T2C0.0315
T3C0.0394
T4C0.1260
%
G90
G05
T1
X1.9562Y-3.7445
X2.3236Y-3.9908
X3.2103Y-5.4212
X3.2335Y-3.4795
X3.2413Y-5.1753
X3.3947Y-4.5961
X3.4236Y-3.775
X3.4349Y-4.0987
X3.442Y-5.425
X3.4525Y-3.675
X3.5585Y-3.9492
X3.5767Y-3.9946
X3.6167Y-4.6246
X3.7389Y-4.1778
X3.7834Y-3.9992
X4.0443Y-4.8199
X4.0648Y-5.6006
X4.1364Y-4.6249
X4.1724Y-4.5963
X4.5727Y-4.3711
X4.5765Y-5.4689
X4.6553Y-3.4505
X4.6873Y-4.4177
X4.6957Y-5.5518
X4.7063Y-4.3599
X4.7136Y-3.5692
X5.0687Y-5.2142
X5.0699Y-5.1697
X5.3778Y-5.2991
X5.3912Y-4.3921
X5.397Y-4.625
X5.4201Y-4.8072
X5.4477Y-4.9292
X5.4957Y-4.9929
X5.6319Y-5.6944
X5.6524Y-5.8407
X5.6834Y-5.7579
X5.9229Y-5.74
X6.0369Y-5.8333
X6.2126Y-3.7388
X6.2422Y-3.4743
X6.334Y-4.1731
X6.3517Y-3.9983
X6.3517Y-4.9249
X6.3517Y-5.6005
X6.5069Y-4.5891
X6.8574Y-5.125
T2
X7.5Y-6.2
X7.9Y-6.2
X5.025Y-3.475
X5.025Y-3.575
X5.025Y-3.675
X5.025Y-3.775
X5.025Y-3.875
X5.025Y-3.975
X5.025Y-4.075
X5.025Y-4.175
X5.025Y-4.275
X5.025Y-4.375
X5.025Y-4.475
X5.025Y-4.575
X5.025Y-4.675
X5.025Y-4.775
X5.325Y-3.475
X5.325Y-3.575
X5.325Y-3.675
X5.325Y-3.775
X5.325Y-3.875
X5.325Y-3.975
X5.325Y-4.075
X5.325Y-4.175
X5.325Y-4.275
X5.325Y-4.375
X5.325Y-4.475
X5.325Y-4.575
X5.325Y-4.675
X5.325Y-4.775
X3.925Y-4.725
X3.925Y-4.825
X3.925Y-4.925
X3.925Y-5.025
X3.925Y-5.125
X3.925Y-5.225
X3.925Y-5.325
X3.925Y-5.425
X3.925Y-5.525
X3.925Y-5.625
X4.225Y-4.725
X4.225Y-4.825
X4.225Y-4.925
X4.225Y-5.025
X4.225Y-5.125
X4.225Y-5.225
X4.225Y-5.325
X4.225Y-5.425
X4.225Y-5.525
X4.225Y-5.625
X5.575Y-3.475
X5.575Y-3.575
X5.575Y-3.675
X5.575Y-3.775
X5.575Y-3.875
X5.575Y-3.975
X5.575Y-4.075
X5.575Y-4.175
X5.575Y-4.275
X5.575Y-4.375
X5.875Y-3.475
X5.875Y-3.575
X5.875Y-3.675
X5.875Y-3.775
X5.875Y-3.875
X5.875Y-3.975
X5.875Y-4.075
X5.875Y-4.175
X5.875Y-4.275
X5.875Y-4.375
X2.425Y-3.475
X2.425Y-3.575
X2.425Y-3.675
X2.425Y-3.775
X2.425Y-3.875
X2.425Y-3.975
X2.425Y-4.075
X2.425Y-4.175
X2.725Y-3.475
X2.725Y-3.575
X2.725Y-3.675
X2.725Y-3.775
X2.725Y-3.875
X2.725Y-3.975
X2.725Y-4.075
X2.725Y-4.175
X6.125Y-3.475
X6.125Y-3.575
X6.125Y-3.675
X6.125Y-3.775
X6.125Y-3.875
X6.125Y-3.975
X6.125Y-4.075
X6.125Y-4.175
X6.125Y-4.275
X6.125Y-4.375
X6.425Y-3.475
X6.425Y-3.575
X6.425Y-3.675
X6.425Y-3.775
X6.425Y-3.875
X6.425Y-3.975
X6.425Y-4.075
X6.425Y-4.175
X6.425Y-4.275
X6.425Y-4.375
X8.1781Y-5.55
X8.375Y-5.55
X1.875Y-3.475
X1.875Y-3.575
X1.875Y-3.675
X1.875Y-3.775
X1.875Y-3.875
X1.875Y-3.975
X1.875Y-4.075
X1.875Y-4.175
X1.875Y-4.275
X1.875Y-4.375
X1.875Y-4.475
X1.875Y-4.575
X2.175Y-3.475
X2.175Y-3.575
X2.175Y-3.675
X2.175Y-3.775
X2.175Y-3.875
X2.175Y-3.975
X2.175Y-4.075
X2.175Y-4.175
X2.175Y-4.275
X2.175Y-4.375
X2.175Y-4.475
X2.175Y-4.575
X6.95Y-6.0
X7.35Y-6.0
X3.35Y-3.475
X3.35Y-3.575
X3.35Y-3.675
X3.35Y-3.775
X3.35Y-3.875
X3.35Y-3.975
X3.35Y-4.075
X3.35Y-4.175
X3.35Y-4.275
X3.35Y-4.375
X3.65Y-3.475
X3.65Y-3.575
X3.65Y-3.675
X3.65Y-3.775
X3.65Y-3.875
X3.65Y-3.975
X3.65Y-4.075
X3.65Y-4.175
X3.65Y-4.275
X3.65Y-4.375
X8.125Y-4.725
X8.125Y-4.825
X8.125Y-4.925
X8.125Y-5.025
X8.125Y-5.125
X8.125Y-5.225
X8.125Y-5.325
X8.125Y-5.425
X8.425Y-4.725
X8.425Y-4.825
X8.425Y-4.925
X8.425Y-5.025
X8.425Y-5.125
X8.425Y-5.225
X8.425Y-5.325
X8.425Y-5.425
X3.925Y-3.475
X3.925Y-3.575
X3.925Y-3.675
X3.925Y-3.775
X3.925Y-3.875
X3.925Y-3.975
X3.925Y-4.075
X3.925Y-4.175
X3.925Y-4.275
X3.925Y-4.375
X4.225Y-3.475
X4.225Y-3.575
X4.225Y-3.675
X4.225Y-3.775
X4.225Y-3.875
X4.225Y-3.975
X4.225Y-4.075
X4.225Y-4.175
X4.225Y-4.275
X4.225Y-4.375
X5.6281Y-5.75
X5.825Y-5.75
X7.575Y-4.725
X7.575Y-4.825
X7.575Y-4.925
X7.575Y-5.025
X7.575Y-5.125
X7.575Y-5.225
X7.575Y-5.325
X7.575Y-5.425
X7.575Y-5.525
X7.575Y-5.625
X7.875Y-4.725
X7.875Y-4.825
X7.875Y-4.925
X7.875Y-5.025
X7.875Y-5.125
X7.875Y-5.225
X7.875Y-5.325
X7.875Y-5.425
X7.875Y-5.525
X7.875Y-5.625
X7.1031Y-4.5
X7.3Y-4.5
X5.0Y-5.275
X5.0Y-5.575
X5.3Y-5.275
X5.3Y-5.575
X3.975Y-4.5
X4.1719Y-4.5
X3.4Y-5.75
X3.5969Y-5.75
X1.325Y-5.575
X1.325Y-5.675
X1.325Y-5.775
X1.325Y-5.875
X1.325Y-5.975
X1.325Y-6.075
X1.325Y-6.175
X1.325Y-6.275
X1.625Y-5.575
X1.625Y-5.675
X1.625Y-5.775
X1.625Y-5.875
X1.625Y-5.975
X1.625Y-6.075
X1.625Y-6.175
X1.625Y-6.275
X5.6281Y-4.5
X5.825Y-4.5
X3.35Y-4.725
X3.35Y-4.825
X3.35Y-4.925
X3.35Y-5.025
X3.35Y-5.125
X3.35Y-5.225
X3.35Y-5.325
X3.35Y-5.425
X3.35Y-5.525
X3.35Y-5.625
X3.65Y-4.725
X3.65Y-4.825
X3.65Y-4.925
X3.65Y-5.025
X3.65Y-5.125
X3.65Y-5.225
X3.65Y-5.325
X3.65Y-5.425
X3.65Y-5.525
X3.65Y-5.625
X7.6281Y-5.75
X7.825Y-5.75
X6.125Y-4.725
X6.125Y-4.825
X6.125Y-4.925
X6.125Y-5.025
X6.125Y-5.125
X6.125Y-5.225
X6.125Y-5.325
X6.125Y-5.425
X6.125Y-5.525
X6.125Y-5.625
X6.125Y-5.725
X6.125Y-5.825
X6.425Y-4.725
X6.425Y-4.825
X6.425Y-4.925
X6.425Y-5.025
X6.425Y-5.125
X6.425Y-5.225
X6.425Y-5.325
X6.425Y-5.425
X6.425Y-5.525
X6.425Y-5.625
X6.425Y-5.725
X6.425Y-5.825
X4.475Y-3.475
X4.475Y-3.575
X4.475Y-3.675
X4.475Y-3.775
X4.475Y-3.875
X4.475Y-3.975
X4.475Y-4.075
X4.475Y-4.175
X4.475Y-4.275
X4.475Y-4.375
X4.775Y-3.475
X4.775Y-3.575
X4.775Y-3.675
X4.775Y-3.775
X4.775Y-3.875
X4.775Y-3.975
X4.775Y-4.075
X4.775Y-4.175
X4.775Y-4.275
X4.775Y-4.375
X2.475Y-4.3
X2.6719Y-4.3
X1.375Y-5.35
X1.5719Y-5.35
X7.5Y-6.4
X7.9Y-6.4
X5.575Y-4.725
X5.575Y-4.825
X5.575Y-4.925
X5.575Y-5.025
X5.575Y-5.125
X5.575Y-5.225
X5.575Y-5.325
X5.575Y-5.425
X5.575Y-5.525
X5.575Y-5.625
X5.875Y-4.725
X5.875Y-4.825
X5.875Y-4.925
X5.875Y-5.025
X5.875Y-5.125
X5.875Y-5.225
X5.875Y-5.325
X5.875Y-5.425
X5.875Y-5.525
X5.875Y-5.625
X7.6Y-3.475
X7.6Y-3.575
X7.6Y-3.675
X7.6Y-3.775
X7.6Y-3.875
X7.6Y-3.975
X7.6Y-4.075
X7.6Y-4.175
X7.6Y-4.275
X7.6Y-4.375
X7.9Y-3.475
X7.9Y-3.575
X7.9Y-3.675
X7.9Y-3.775
X7.9Y-3.875
X7.9Y-3.975
X7.9Y-4.075
X7.9Y-4.175
X7.9Y-4.275
X7.9Y-4.375
X6.1781Y-4.5
X6.375Y-4.5
X5.0781Y-4.9
X5.275Y-4.9
X4.525Y-4.5
X4.7219Y-4.5
X2.475Y-5.35
X2.6719Y-5.35
X7.5Y-6.0
X7.9Y-6.0
X7.025Y-4.725
X7.025Y-4.825
X7.025Y-4.925
X7.025Y-5.025
X7.025Y-5.125
X7.025Y-5.225
X7.025Y-5.325
X7.025Y-5.425
X7.025Y-5.525
X7.025Y-5.625
X7.325Y-4.725
X7.325Y-4.825
X7.325Y-4.925
X7.325Y-5.025
X7.325Y-5.125
X7.325Y-5.225
X7.325Y-5.325
X7.325Y-5.425
X7.325Y-5.525
X7.325Y-5.625
X3.9781Y-5.75
X4.175Y-5.75
X1.875Y-5.175
X1.875Y-5.275
X1.875Y-5.375
X1.875Y-5.475
X1.875Y-5.575
X1.875Y-5.675
X1.875Y-5.775
X1.875Y-5.875
X1.875Y-5.975
X1.875Y-6.075
X1.875Y-6.175
X1.875Y-6.275
X2.175Y-5.175
X2.175Y-5.275
X2.175Y-5.375
X2.175Y-5.475
X2.175Y-5.575
X2.175Y-5.675
X2.175Y-5.775
X2.175Y-5.875
X2.175Y-5.975
X2.175Y-6.075
X2.175Y-6.175
X2.175Y-6.275
X7.0781Y-5.75
X7.275Y-5.75
X2.475Y-6.4
X2.6719Y-6.4
X3.4Y-4.5
X3.5969Y-4.5
X1.325Y-4.525
X1.325Y-4.625
X1.325Y-4.725
X1.325Y-4.825
X1.325Y-4.925
X1.325Y-5.025
X1.325Y-5.125
X1.325Y-5.225
X1.625Y-4.525
X1.625Y-4.625
X1.625Y-4.725
X1.625Y-4.825
X1.625Y-4.925
X1.625Y-5.025
X1.625Y-5.125
X1.625Y-5.225
X7.05Y-3.475
X7.05Y-3.575
X7.05Y-3.675
X7.05Y-3.775
X7.05Y-3.875
X7.05Y-3.975
X7.05Y-4.075
X7.05Y-4.175
X7.05Y-4.275
X7.05Y-4.375
X7.35Y-3.475
X7.35Y-3.575
X7.35Y-3.675
X7.35Y-3.775
X7.35Y-3.875
X7.35Y-3.975
X7.35Y-4.075
X7.35Y-4.175
X7.35Y-4.275
X7.35Y-4.375
X6.175Y-5.95
X6.3719Y-5.95
X2.425Y-5.575
X2.425Y-5.675
X2.425Y-5.775
X2.425Y-5.875
X2.425Y-5.975
X2.425Y-6.075
X2.425Y-6.175
X2.425Y-6.275
X2.725Y-5.575
X2.725Y-5.675
X2.725Y-5.775
X2.725Y-5.875
X2.725Y-5.975
X2.725Y-6.075
X2.725Y-6.175
X2.725Y-6.275
X1.375Y-4.3
X1.5719Y-4.3
X1.925Y-6.4
X2.1219Y-6.4
X7.6531Y-4.5
X7.85Y-4.5
X6.95Y-6.2
X7.35Y-6.2
X6.95Y-6.4
X7.35Y-6.4
X1.325Y-3.475
X1.325Y-3.575
X1.325Y-3.675
X1.325Y-3.775
X1.325Y-3.875
X1.325Y-3.975
X1.325Y-4.075
X1.325Y-4.175
X1.625Y-3.475
X1.625Y-3.575
X1.625Y-3.675
X1.625Y-3.775
X1.625Y-3.875
X1.625Y-3.975
X1.625Y-4.075
X1.625Y-4.175
X4.475Y-4.725
X4.475Y-4.825
X4.475Y-4.925
X4.475Y-5.025
X4.475Y-5.125
X4.475Y-5.225
X4.475Y-5.325
X4.475Y-5.425
X4.475Y-5.525
X4.475Y-5.625
X4.775Y-4.725
X4.775Y-4.825
X4.775Y-4.925
X4.775Y-5.025
X4.775Y-5.125
X4.775Y-5.225
X4.775Y-5.325
X4.775Y-5.425
X4.775Y-5.525
X4.775Y-5.625
X8.15Y-3.475
X8.15Y-3.575
X8.15Y-3.675
X8.15Y-3.775
X8.15Y-3.875
X8.15Y-3.975
X8.15Y-4.075
X8.15Y-4.175
X8.45Y-3.475
X8.45Y-3.575
X8.45Y-3.675
X8.45Y-3.775
X8.45Y-3.875
X8.45Y-3.975
X8.45Y-4.075
X8.45Y-4.175
X4.525Y-5.75
X4.7219Y-5.75
X2.425Y-4.525
X2.425Y-4.625
X2.425Y-4.725
X2.425Y-4.825
X2.425Y-4.925
X2.425Y-5.025
X2.425Y-5.125
X2.425Y-5.225
X2.725Y-4.525
X2.725Y-4.625
X2.725Y-4.725
X2.725Y-4.825
X2.725Y-4.925
X2.725Y-5.025
X2.725Y-5.125
X2.725Y-5.225
X1.925Y-4.7
X2.1219Y-4.7
X1.375Y-6.4
X1.5719Y-6.4
X8.2Y-4.3
X8.3969Y-4.3
T3
X4.9894Y-6.25
X4.9894Y-6.4059
X5.0344Y-6.328
X5.0795Y-6.25
X5.0795Y-6.4059
X5.1246Y-6.328
X5.1697Y-6.25
X5.1697Y-6.4059
X5.2148Y-6.328
X5.2598Y-6.25
X5.2598Y-6.4059
X5.3049Y-6.328
X5.35Y-6.25
X5.35Y-6.4059
X5.3951Y-6.328
X3.0Y-3.575
X3.0Y-3.675
X3.0Y-3.775
X3.0Y-3.875
X3.0Y-3.975
X3.0Y-4.075
X3.0Y-4.175
X3.0Y-4.275
X3.0Y-4.375
X3.0Y-4.475
X3.0Y-4.575
X3.0Y-4.675
X3.0Y-4.775
X3.0Y-4.875
X3.0Y-4.975
X3.0Y-5.075
X3.0Y-5.175
X3.0Y-5.275
X3.0Y-5.375
X3.0Y-5.475
X3.1Y-3.575
X3.1Y-3.675
X3.1Y-3.775
X3.1Y-3.875
X3.1Y-3.975
X3.1Y-4.075
X3.1Y-4.175
X3.1Y-4.275
X3.1Y-4.375
X3.1Y-4.475
X3.1Y-4.575
X3.1Y-4.675
X3.1Y-4.775
X3.1Y-4.875
X3.1Y-4.975
X3.1Y-5.075
X3.1Y-5.175
X3.1Y-5.275
X3.1Y-5.375
X3.1Y-5.475
X6.7Y-3.575
X6.7Y-3.675
X6.7Y-3.775
X6.7Y-3.875
X6.7Y-3.975
X6.7Y-4.075
X6.7Y-4.175
X6.7Y-4.275
X6.7Y-4.375
X6.7Y-4.475
X6.7Y-4.575
X6.7Y-4.675
X6.7Y-4.775
X6.7Y-4.875
X6.7Y-4.975
X6.7Y-5.075
X6.7Y-5.175
X6.7Y-5.275
X6.7Y-5.375
X6.7Y-5.475
X6.8Y-3.575
X6.8Y-3.675
X6.8Y-3.775
X6.8Y-3.875
X6.8Y-3.975
X6.8Y-4.075
X6.8Y-4.175
X6.8Y-4.275
X6.8Y-4.375
X6.8Y-4.475
X6.8Y-4.575
X6.8Y-4.675
X6.8Y-4.775
X6.8Y-4.875
X6.8Y-4.975
X6.8Y-5.075
X6.8Y-5.175
X6.8Y-5.275
X6.8Y-5.375
X6.8Y-5.475
T4
X4.688Y-6.3307
X5.6722Y-6.3307
T0
M30
