%TF.GenerationSoftware,KiCad,Pcbnew,(5.1.8)-1*%
%TF.CreationDate,2020-12-28T18:18:32+00:00*%
%TF.ProjectId,sound-board,736f756e-642d-4626-9f61-72642e6b6963,rev?*%
%TF.SameCoordinates,Original*%
%TF.FileFunction,Legend,Bot*%
%TF.FilePolarity,Positive*%
%FSLAX46Y46*%
G04 Gerber Fmt 4.6, Leading zero omitted, Abs format (unit mm)*
G04 Created by KiCad (PCBNEW (5.1.8)-1) date 2020-12-28 18:18:32*
%MOMM*%
%LPD*%
G01*
G04 APERTURE LIST*
%ADD10C,0.150000*%
G04 APERTURE END LIST*
D10*
X187499047Y-57872380D02*
X187499047Y-58586666D01*
X187546666Y-58729523D01*
X187641904Y-58824761D01*
X187784761Y-58872380D01*
X187880000Y-58872380D01*
X186546666Y-58872380D02*
X187022857Y-58872380D01*
X187022857Y-57872380D01*
X185641904Y-58777142D02*
X185689523Y-58824761D01*
X185832380Y-58872380D01*
X185927619Y-58872380D01*
X186070476Y-58824761D01*
X186165714Y-58729523D01*
X186213333Y-58634285D01*
X186260952Y-58443809D01*
X186260952Y-58300952D01*
X186213333Y-58110476D01*
X186165714Y-58015238D01*
X186070476Y-57920000D01*
X185927619Y-57872380D01*
X185832380Y-57872380D01*
X185689523Y-57920000D01*
X185641904Y-57967619D01*
X184927619Y-57872380D02*
X184927619Y-58586666D01*
X184975238Y-58729523D01*
X185070476Y-58824761D01*
X185213333Y-58872380D01*
X185308571Y-58872380D01*
X183975238Y-58872380D02*
X184451428Y-58872380D01*
X184451428Y-57872380D01*
X183070476Y-58777142D02*
X183118095Y-58824761D01*
X183260952Y-58872380D01*
X183356190Y-58872380D01*
X183499047Y-58824761D01*
X183594285Y-58729523D01*
X183641904Y-58634285D01*
X183689523Y-58443809D01*
X183689523Y-58300952D01*
X183641904Y-58110476D01*
X183594285Y-58015238D01*
X183499047Y-57920000D01*
X183356190Y-57872380D01*
X183260952Y-57872380D01*
X183118095Y-57920000D01*
X183070476Y-57967619D01*
X182356190Y-57872380D02*
X182356190Y-58586666D01*
X182403809Y-58729523D01*
X182499047Y-58824761D01*
X182641904Y-58872380D01*
X182737142Y-58872380D01*
X181403809Y-58872380D02*
X181880000Y-58872380D01*
X181880000Y-57872380D01*
X180499047Y-58777142D02*
X180546666Y-58824761D01*
X180689523Y-58872380D01*
X180784761Y-58872380D01*
X180927619Y-58824761D01*
X181022857Y-58729523D01*
X181070476Y-58634285D01*
X181118095Y-58443809D01*
X181118095Y-58300952D01*
X181070476Y-58110476D01*
X181022857Y-58015238D01*
X180927619Y-57920000D01*
X180784761Y-57872380D01*
X180689523Y-57872380D01*
X180546666Y-57920000D01*
X180499047Y-57967619D01*
X179784761Y-57872380D02*
X179784761Y-58586666D01*
X179832380Y-58729523D01*
X179927619Y-58824761D01*
X180070476Y-58872380D01*
X180165714Y-58872380D01*
X178832380Y-58872380D02*
X179308571Y-58872380D01*
X179308571Y-57872380D01*
X177927619Y-58777142D02*
X177975238Y-58824761D01*
X178118095Y-58872380D01*
X178213333Y-58872380D01*
X178356190Y-58824761D01*
X178451428Y-58729523D01*
X178499047Y-58634285D01*
X178546666Y-58443809D01*
X178546666Y-58300952D01*
X178499047Y-58110476D01*
X178451428Y-58015238D01*
X178356190Y-57920000D01*
X178213333Y-57872380D01*
X178118095Y-57872380D01*
X177975238Y-57920000D01*
X177927619Y-57967619D01*
M02*
