M48
; DRILL file {KiCad (5.1.8)-1} date 12/28/20 18:18:34
; FORMAT={-:-/ absolute / inch / decimal}
; #@! TF.CreationDate,2020-12-28T18:18:34+00:00
; #@! TF.GenerationSoftware,Kicad,Pcbnew,(5.1.8)-1
FMAT,2
INCH
T1C0.0118
T2C0.0315
T3C0.0394
T4C0.0669
T5C0.0472
%
G90
G05
T1
X0.3797Y-3.5199
X1.0508Y-3.4301
X1.6955Y-3.3971
X1.9775Y-3.7679
X1.9786Y-3.7188
X1.9801Y-3.8605
X2.1373Y-3.1582
X2.2193Y-3.5864
X2.3806Y-3.8292
X2.3842Y-3.1
X2.3889Y-2.9
X2.3979Y-3.8832
X2.5803Y-3.4476
X2.8156Y-4.9194
X2.8344Y-2.4356
X2.8702Y-4.1851
X2.8942Y-2.4506
X2.9332Y-2.4468
X2.943Y-3.95
X2.9748Y-4.4754
X2.9771Y-2.4622
X2.9904Y-4.71
X3.0763Y-4.1
X3.1817Y-3.6261
X3.2072Y-3.8408
X3.3953Y-4.0445
X3.4198Y-2.833
X3.4805Y-3.4365
X3.5145Y-3.2707
X3.5307Y-3.4595
X3.5789Y-3.5139
X3.68Y-3.6576
X3.9914Y-4.9778
X4.0296Y-4.3861
X4.2388Y-4.2622
X4.4644Y-3.9461
X4.591Y-2.9615
X4.7689Y-3.7566
X5.0244Y-2.8044
X5.0547Y-4.4214
X5.1381Y-4.3081
X5.1594Y-3.9908
X5.3062Y-3.655
X5.7738Y-4.1191
X5.7883Y-4.3261
X5.9321Y-3.8828
X5.9482Y-3.8117
X6.0879Y-4.3177
X6.1257Y-3.2698
X6.3016Y-3.5991
T2
X4.875Y-5.075
X5.275Y-5.075
X6.4781Y-4.875
X6.675Y-4.875
X4.375Y-5.075
X4.775Y-5.075
X4.4281Y-4.575
X4.625Y-4.575
X0.125Y-3.55
X0.125Y-3.65
X0.125Y-3.75
X0.125Y-3.85
X0.125Y-3.95
X0.125Y-4.05
X0.125Y-4.15
X0.125Y-4.25
X0.425Y-3.55
X0.425Y-3.65
X0.425Y-3.75
X0.425Y-3.85
X0.425Y-3.95
X0.425Y-4.05
X0.425Y-4.15
X0.425Y-4.25
X3.8781Y-4.775
X4.075Y-4.775
X0.225Y-5.075
X0.625Y-5.075
X0.675Y-3.55
X0.675Y-3.65
X0.675Y-3.75
X0.675Y-3.85
X0.675Y-3.95
X0.675Y-4.05
X0.675Y-4.15
X0.675Y-4.25
X0.675Y-4.35
X0.675Y-4.45
X0.975Y-3.55
X0.975Y-3.65
X0.975Y-3.75
X0.975Y-3.85
X0.975Y-3.95
X0.975Y-4.05
X0.975Y-4.15
X0.975Y-4.25
X0.975Y-4.35
X0.975Y-4.45
X5.875Y-2.5
X5.875Y-2.6
X5.875Y-2.7
X5.875Y-2.8
X5.875Y-2.9
X5.875Y-3.0
X5.875Y-3.1
X5.875Y-3.2
X6.175Y-2.5
X6.175Y-2.6
X6.175Y-2.7
X6.175Y-2.8
X6.175Y-2.9
X6.175Y-3.0
X6.175Y-3.1
X6.175Y-3.2
X2.2281Y-4.575
X2.425Y-4.575
X6.975Y-4.2
X6.975Y-4.3
X6.975Y-4.4
X6.975Y-4.5
X7.275Y-4.2
X7.275Y-4.3
X7.275Y-4.4
X7.275Y-4.5
X1.725Y-5.075
X2.125Y-5.075
X3.8781Y-3.525
X4.075Y-3.525
X5.375Y-4.875
X5.775Y-4.875
X1.275Y-3.325
X1.4719Y-3.325
X1.225Y-3.55
X1.225Y-3.65
X1.225Y-3.75
X1.225Y-3.85
X1.225Y-3.95
X1.225Y-4.05
X1.225Y-4.15
X1.225Y-4.25
X1.225Y-4.35
X1.225Y-4.45
X1.525Y-3.55
X1.525Y-3.65
X1.525Y-3.75
X1.525Y-3.85
X1.525Y-3.95
X1.525Y-4.05
X1.525Y-4.15
X1.525Y-4.25
X1.525Y-4.35
X1.525Y-4.45
X4.375Y-2.5
X4.375Y-2.6
X4.375Y-2.7
X4.375Y-2.8
X4.375Y-2.9
X4.375Y-3.0
X4.375Y-3.1
X4.375Y-3.2
X4.375Y-3.3
X4.375Y-3.4
X4.675Y-2.5
X4.675Y-2.6
X4.675Y-2.7
X4.675Y-2.8
X4.675Y-2.9
X4.675Y-3.0
X4.675Y-3.1
X4.675Y-3.2
X4.675Y-3.3
X4.675Y-3.4
X1.275Y-4.575
X1.4719Y-4.575
X6.475Y-4.575
X6.6719Y-4.575
X2.725Y-4.875
X3.125Y-4.875
X0.125Y-2.5
X0.125Y-2.6
X0.125Y-2.7
X0.125Y-2.8
X0.125Y-2.9
X0.125Y-3.0
X0.125Y-3.1
X0.125Y-3.2
X0.425Y-2.5
X0.425Y-2.6
X0.425Y-2.7
X0.425Y-2.8
X0.425Y-2.9
X0.425Y-3.0
X0.425Y-3.1
X0.425Y-3.2
X6.475Y-3.325
X6.6719Y-3.325
X1.225Y-4.875
X1.625Y-4.875
X6.975Y-2.5
X6.975Y-2.6
X6.975Y-2.7
X6.975Y-2.8
X6.975Y-2.9
X6.975Y-3.0
X6.975Y-3.1
X6.975Y-3.2
X7.275Y-2.5
X7.275Y-2.6
X7.275Y-2.7
X7.275Y-2.8
X7.275Y-2.9
X7.275Y-3.0
X7.275Y-3.1
X7.275Y-3.2
X3.825Y-2.5
X3.825Y-2.6
X3.825Y-2.7
X3.825Y-2.8
X3.825Y-2.9
X3.825Y-3.0
X3.825Y-3.1
X3.825Y-3.2
X3.825Y-3.3
X3.825Y-3.4
X4.125Y-2.5
X4.125Y-2.6
X4.125Y-2.7
X4.125Y-2.8
X4.125Y-2.9
X4.125Y-3.0
X4.125Y-3.1
X4.125Y-3.2
X4.125Y-3.3
X4.125Y-3.4
X5.875Y-3.55
X5.875Y-3.65
X5.875Y-3.75
X5.875Y-3.85
X5.875Y-3.95
X5.875Y-4.05
X5.875Y-4.15
X5.875Y-4.25
X5.875Y-4.35
X5.875Y-4.45
X6.175Y-3.55
X6.175Y-3.65
X6.175Y-3.75
X6.175Y-3.85
X6.175Y-3.95
X6.175Y-4.05
X6.175Y-4.15
X6.175Y-4.25
X6.175Y-4.35
X6.175Y-4.45
X3.225Y-4.875
X3.625Y-4.875
X7.0281Y-3.325
X7.225Y-3.325
X4.875Y-4.875
X5.275Y-4.875
X5.875Y-5.075
X6.275Y-5.075
X2.225Y-3.525
X2.4219Y-3.525
X0.225Y-4.875
X0.625Y-4.875
X1.225Y-2.5
X1.225Y-2.6
X1.225Y-2.7
X1.225Y-2.8
X1.225Y-2.9
X1.225Y-3.0
X1.225Y-3.1
X1.225Y-3.2
X1.525Y-2.5
X1.525Y-2.6
X1.525Y-2.7
X1.525Y-2.8
X1.525Y-2.9
X1.525Y-3.0
X1.525Y-3.1
X1.525Y-3.2
X2.175Y-2.5
X2.175Y-2.6
X2.175Y-2.7
X2.175Y-2.8
X2.175Y-2.9
X2.175Y-3.0
X2.175Y-3.1
X2.175Y-3.2
X2.175Y-3.3
X2.175Y-3.4
X2.475Y-2.5
X2.475Y-2.6
X2.475Y-2.7
X2.475Y-2.8
X2.475Y-2.9
X2.475Y-3.0
X2.475Y-3.1
X2.475Y-3.2
X2.475Y-3.3
X2.475Y-3.4
X0.175Y-3.325
X0.3719Y-3.325
X6.425Y-2.5
X6.425Y-2.6
X6.425Y-2.7
X6.425Y-2.8
X6.425Y-2.9
X6.425Y-3.0
X6.425Y-3.1
X6.425Y-3.2
X6.725Y-2.5
X6.725Y-2.6
X6.725Y-2.7
X6.725Y-2.8
X6.725Y-2.9
X6.725Y-3.0
X6.725Y-3.1
X6.725Y-3.2
X5.925Y-4.575
X6.1219Y-4.575
X2.7781Y-4.575
X2.975Y-4.575
X1.725Y-4.875
X2.125Y-4.875
X5.875Y-4.875
X6.275Y-4.875
X7.025Y-4.625
X7.2219Y-4.625
X4.375Y-4.875
X4.775Y-4.875
X2.7781Y-3.525
X2.975Y-3.525
X0.725Y-5.075
X1.125Y-5.075
X6.425Y-3.55
X6.425Y-3.65
X6.425Y-3.75
X6.425Y-3.85
X6.425Y-3.95
X6.425Y-4.05
X6.425Y-4.15
X6.425Y-4.25
X6.425Y-4.35
X6.425Y-4.45
X6.725Y-3.55
X6.725Y-3.65
X6.725Y-3.75
X6.725Y-3.85
X6.725Y-3.95
X6.725Y-4.05
X6.725Y-4.15
X6.725Y-4.25
X6.725Y-4.35
X6.725Y-4.45
X0.675Y-2.5
X0.675Y-2.6
X0.675Y-2.7
X0.675Y-2.8
X0.675Y-2.9
X0.675Y-3.0
X0.675Y-3.1
X0.675Y-3.2
X0.975Y-2.5
X0.975Y-2.6
X0.975Y-2.7
X0.975Y-2.8
X0.975Y-2.9
X0.975Y-3.0
X0.975Y-3.1
X0.975Y-3.2
X0.725Y-3.325
X0.9219Y-3.325
X4.925Y-2.5
X4.925Y-2.6
X4.925Y-2.7
X4.925Y-2.8
X4.925Y-2.9
X4.925Y-3.0
X4.925Y-3.1
X4.925Y-3.2
X4.925Y-3.3
X4.925Y-3.4
X5.225Y-2.5
X5.225Y-2.6
X5.225Y-2.7
X5.225Y-2.8
X5.225Y-2.9
X5.225Y-3.0
X5.225Y-3.1
X5.225Y-3.2
X5.225Y-3.3
X5.225Y-3.4
X0.7281Y-4.575
X0.925Y-4.575
X6.975Y-3.6
X6.975Y-3.9
X7.275Y-3.6
X7.275Y-3.9
X1.225Y-5.075
X1.625Y-5.075
X4.9781Y-3.525
X5.175Y-3.525
X3.825Y-3.75
X3.825Y-3.85
X3.825Y-3.95
X3.825Y-4.05
X3.825Y-4.15
X3.825Y-4.25
X3.825Y-4.35
X3.825Y-4.45
X3.825Y-4.55
X3.825Y-4.65
X4.125Y-3.75
X4.125Y-3.85
X4.125Y-3.95
X4.125Y-4.05
X4.125Y-4.15
X4.125Y-4.25
X4.125Y-4.35
X4.125Y-4.45
X4.125Y-4.55
X4.125Y-4.65
X5.925Y-3.325
X6.1219Y-3.325
X5.375Y-5.075
X5.775Y-5.075
X0.725Y-4.875
X1.125Y-4.875
X2.725Y-2.5
X2.725Y-2.6
X2.725Y-2.7
X2.725Y-2.8
X2.725Y-2.9
X2.725Y-3.0
X2.725Y-3.1
X2.725Y-3.2
X2.725Y-3.3
X2.725Y-3.4
X3.025Y-2.5
X3.025Y-2.6
X3.025Y-2.7
X3.025Y-2.8
X3.025Y-2.9
X3.025Y-3.0
X3.025Y-3.1
X3.025Y-3.2
X3.025Y-3.3
X3.025Y-3.4
X2.725Y-3.75
X2.725Y-3.85
X2.725Y-3.95
X2.725Y-4.05
X2.725Y-4.15
X2.725Y-4.25
X2.725Y-4.35
X2.725Y-4.45
X3.025Y-3.75
X3.025Y-3.85
X3.025Y-3.95
X3.025Y-4.05
X3.025Y-4.15
X3.025Y-4.25
X3.025Y-4.35
X3.025Y-4.45
X4.9781Y-4.575
X5.175Y-4.575
X4.375Y-3.75
X4.375Y-3.85
X4.375Y-3.95
X4.375Y-4.05
X4.375Y-4.15
X4.375Y-4.25
X4.375Y-4.35
X4.375Y-4.45
X4.675Y-3.75
X4.675Y-3.85
X4.675Y-3.95
X4.675Y-4.05
X4.675Y-4.15
X4.675Y-4.25
X4.675Y-4.35
X4.675Y-4.45
X4.925Y-3.75
X4.925Y-3.85
X4.925Y-3.95
X4.925Y-4.05
X4.925Y-4.15
X4.925Y-4.25
X4.925Y-4.35
X4.925Y-4.45
X5.225Y-3.75
X5.225Y-3.85
X5.225Y-3.95
X5.225Y-4.05
X5.225Y-4.15
X5.225Y-4.25
X5.225Y-4.35
X5.225Y-4.45
X2.725Y-5.075
X3.125Y-5.075
X2.225Y-4.875
X2.625Y-4.875
X3.3281Y-3.525
X3.525Y-3.525
X2.225Y-5.075
X2.625Y-5.075
X4.4281Y-3.525
X4.625Y-3.525
X3.275Y-3.75
X3.275Y-3.85
X3.275Y-3.95
X3.275Y-4.05
X3.275Y-4.15
X3.275Y-4.25
X3.275Y-4.35
X3.575Y-3.75
X3.575Y-3.85
X3.575Y-3.95
X3.575Y-4.05
X3.575Y-4.15
X3.575Y-4.25
X3.575Y-4.35
X3.275Y-2.5
X3.275Y-2.6
X3.275Y-2.7
X3.275Y-2.8
X3.275Y-2.9
X3.275Y-3.0
X3.275Y-3.1
X3.275Y-3.2
X3.275Y-3.3
X3.275Y-3.4
X3.575Y-2.5
X3.575Y-2.6
X3.575Y-2.7
X3.575Y-2.8
X3.575Y-2.9
X3.575Y-3.0
X3.575Y-3.1
X3.575Y-3.2
X3.575Y-3.3
X3.575Y-3.4
X2.175Y-3.75
X2.175Y-3.85
X2.175Y-3.95
X2.175Y-4.05
X2.175Y-4.15
X2.175Y-4.25
X2.175Y-4.35
X2.175Y-4.45
X2.475Y-3.75
X2.475Y-3.85
X2.475Y-3.95
X2.475Y-4.05
X2.475Y-4.15
X2.475Y-4.25
X2.475Y-4.35
X2.475Y-4.45
X0.1781Y-4.375
X0.375Y-4.375
X3.3281Y-4.475
X3.525Y-4.475
T3
X5.5Y-2.6
X5.5Y-2.7
X5.5Y-2.8
X5.5Y-2.9
X5.5Y-3.0
X5.5Y-3.1
X5.5Y-3.2
X5.5Y-3.3
X5.5Y-3.4
X5.5Y-3.5
X5.5Y-3.6
X5.5Y-3.7
X5.5Y-3.8
X5.5Y-3.9
X5.5Y-4.0
X5.5Y-4.1
X5.5Y-4.2
X5.5Y-4.3
X5.5Y-4.4
X5.5Y-4.5
X5.6Y-2.6
X5.6Y-2.7
X5.6Y-2.8
X5.6Y-2.9
X5.6Y-3.0
X5.6Y-3.1
X5.6Y-3.2
X5.6Y-3.3
X5.6Y-3.4
X5.6Y-3.5
X5.6Y-3.6
X5.6Y-3.7
X5.6Y-3.8
X5.6Y-3.9
X5.6Y-4.0
X5.6Y-4.1
X5.6Y-4.2
X5.6Y-4.3
X5.6Y-4.4
X5.6Y-4.5
X1.8Y-2.6
X1.8Y-2.7
X1.8Y-2.8
X1.8Y-2.9
X1.8Y-3.0
X1.8Y-3.1
X1.8Y-3.2
X1.8Y-3.3
X1.8Y-3.4
X1.8Y-3.5
X1.8Y-3.6
X1.8Y-3.7
X1.8Y-3.8
X1.8Y-3.9
X1.8Y-4.0
X1.8Y-4.1
X1.8Y-4.2
X1.8Y-4.3
X1.8Y-4.4
X1.8Y-4.5
X1.9Y-2.6
X1.9Y-2.7
X1.9Y-2.8
X1.9Y-2.9
X1.9Y-3.0
X1.9Y-3.1
X1.9Y-3.2
X1.9Y-3.3
X1.9Y-3.4
X1.9Y-3.5
X1.9Y-3.6
X1.9Y-3.7
X1.9Y-3.8
X1.9Y-3.9
X1.9Y-4.0
X1.9Y-4.1
X1.9Y-4.2
X1.9Y-4.3
X1.9Y-4.4
X1.9Y-4.5
T4
X6.9031Y-5.001
X7.0213Y-5.001
X7.1Y-5.1978
X7.1787Y-5.001
X7.2969Y-5.001
T5
X6.9031Y-5.1978
X6.9031Y-5.2963
X7.1Y-5.001
X7.2969Y-5.1978
X7.2969Y-5.2963
T0
M30
