%TF.GenerationSoftware,KiCad,Pcbnew,(5.1.8)-1*%
%TF.CreationDate,2020-12-28T18:18:32+00:00*%
%TF.ProjectId,sound-board,736f756e-642d-4626-9f61-72642e6b6963,rev?*%
%TF.SameCoordinates,Original*%
%TF.FileFunction,Legend,Top*%
%TF.FilePolarity,Positive*%
%FSLAX46Y46*%
G04 Gerber Fmt 4.6, Leading zero omitted, Abs format (unit mm)*
G04 Created by KiCad (PCBNEW (5.1.8)-1) date 2020-12-28 18:18:32*
%MOMM*%
%LPD*%
G01*
G04 APERTURE LIST*
%ADD10C,0.120000*%
%ADD11C,0.200000*%
%ADD12C,0.100000*%
%ADD13C,0.150000*%
%ADD14C,0.254000*%
G04 APERTURE END LIST*
D10*
%TO.C,C6*%
X31765000Y-83085000D02*
X38005000Y-83085000D01*
X31765000Y-85825000D02*
X38005000Y-85825000D01*
X31765000Y-83085000D02*
X31765000Y-83530000D01*
X31765000Y-85380000D02*
X31765000Y-85825000D01*
X38005000Y-83085000D02*
X38005000Y-83530000D01*
X38005000Y-85380000D02*
X38005000Y-85825000D01*
%TO.C,C1*%
X170165000Y-125195000D02*
X163925000Y-125195000D01*
X170165000Y-122455000D02*
X163925000Y-122455000D01*
X170165000Y-125195000D02*
X170165000Y-124750000D01*
X170165000Y-122900000D02*
X170165000Y-122455000D01*
X163925000Y-125195000D02*
X163925000Y-124750000D01*
X163925000Y-122900000D02*
X163925000Y-122455000D01*
%TO.C,C25*%
X69945000Y-88165000D02*
X76185000Y-88165000D01*
X69945000Y-90905000D02*
X76185000Y-90905000D01*
X69945000Y-88165000D02*
X69945000Y-88610000D01*
X69945000Y-90460000D02*
X69945000Y-90905000D01*
X76185000Y-88165000D02*
X76185000Y-88610000D01*
X76185000Y-90460000D02*
X76185000Y-90905000D01*
%TO.C,C24*%
X97885000Y-88165000D02*
X104125000Y-88165000D01*
X97885000Y-90905000D02*
X104125000Y-90905000D01*
X97885000Y-88165000D02*
X97885000Y-88610000D01*
X97885000Y-90460000D02*
X97885000Y-90905000D01*
X104125000Y-88165000D02*
X104125000Y-88610000D01*
X104125000Y-90460000D02*
X104125000Y-90905000D01*
%TO.C,C23*%
X83915000Y-88165000D02*
X90155000Y-88165000D01*
X83915000Y-90905000D02*
X90155000Y-90905000D01*
X83915000Y-88165000D02*
X83915000Y-88610000D01*
X83915000Y-90460000D02*
X83915000Y-90905000D01*
X90155000Y-88165000D02*
X90155000Y-88610000D01*
X90155000Y-90460000D02*
X90155000Y-90905000D01*
%TO.C,C22*%
X111855000Y-88165000D02*
X118095000Y-88165000D01*
X111855000Y-90905000D02*
X118095000Y-90905000D01*
X111855000Y-88165000D02*
X111855000Y-88610000D01*
X111855000Y-90460000D02*
X111855000Y-90905000D01*
X118095000Y-88165000D02*
X118095000Y-88610000D01*
X118095000Y-90460000D02*
X118095000Y-90905000D01*
%TO.C,C21*%
X125825000Y-88165000D02*
X132065000Y-88165000D01*
X125825000Y-90905000D02*
X132065000Y-90905000D01*
X125825000Y-88165000D02*
X125825000Y-88610000D01*
X125825000Y-90460000D02*
X125825000Y-90905000D01*
X132065000Y-88165000D02*
X132065000Y-88610000D01*
X132065000Y-90460000D02*
X132065000Y-90905000D01*
%TO.C,C20*%
X55895000Y-88165000D02*
X62135000Y-88165000D01*
X55895000Y-90905000D02*
X62135000Y-90905000D01*
X55895000Y-88165000D02*
X55895000Y-88610000D01*
X55895000Y-90460000D02*
X55895000Y-90905000D01*
X62135000Y-88165000D02*
X62135000Y-88610000D01*
X62135000Y-90460000D02*
X62135000Y-90905000D01*
%TO.C,C19*%
X97885000Y-119915000D02*
X104125000Y-119915000D01*
X97885000Y-122655000D02*
X104125000Y-122655000D01*
X97885000Y-119915000D02*
X97885000Y-120360000D01*
X97885000Y-122210000D02*
X97885000Y-122655000D01*
X104125000Y-119915000D02*
X104125000Y-120360000D01*
X104125000Y-122210000D02*
X104125000Y-122655000D01*
%TO.C,C18*%
X163845000Y-83085000D02*
X170085000Y-83085000D01*
X163845000Y-85825000D02*
X170085000Y-85825000D01*
X163845000Y-83085000D02*
X163845000Y-83530000D01*
X163845000Y-85380000D02*
X163845000Y-85825000D01*
X170085000Y-83085000D02*
X170085000Y-83530000D01*
X170085000Y-85380000D02*
X170085000Y-85825000D01*
%TO.C,C17*%
X111855000Y-114835000D02*
X118095000Y-114835000D01*
X111855000Y-117575000D02*
X118095000Y-117575000D01*
X111855000Y-114835000D02*
X111855000Y-115280000D01*
X111855000Y-117130000D02*
X111855000Y-117575000D01*
X118095000Y-114835000D02*
X118095000Y-115280000D01*
X118095000Y-117130000D02*
X118095000Y-117575000D01*
%TO.C,C16*%
X149875000Y-83085000D02*
X156115000Y-83085000D01*
X149875000Y-85825000D02*
X156115000Y-85825000D01*
X149875000Y-83085000D02*
X149875000Y-83530000D01*
X149875000Y-85380000D02*
X149875000Y-85825000D01*
X156115000Y-83085000D02*
X156115000Y-83530000D01*
X156115000Y-85380000D02*
X156115000Y-85825000D01*
%TO.C,C15*%
X177815000Y-116105000D02*
X184055000Y-116105000D01*
X177815000Y-118845000D02*
X184055000Y-118845000D01*
X177815000Y-116105000D02*
X177815000Y-116550000D01*
X177815000Y-118400000D02*
X177815000Y-118845000D01*
X184055000Y-116105000D02*
X184055000Y-116550000D01*
X184055000Y-118400000D02*
X184055000Y-118845000D01*
%TO.C,C14*%
X125825000Y-114835000D02*
X132065000Y-114835000D01*
X125825000Y-117575000D02*
X132065000Y-117575000D01*
X125825000Y-114835000D02*
X125825000Y-115280000D01*
X125825000Y-117130000D02*
X125825000Y-117575000D01*
X132065000Y-114835000D02*
X132065000Y-115280000D01*
X132065000Y-117130000D02*
X132065000Y-117575000D01*
%TO.C,C13*%
X177895000Y-83085000D02*
X184135000Y-83085000D01*
X177895000Y-85825000D02*
X184135000Y-85825000D01*
X177895000Y-83085000D02*
X177895000Y-83530000D01*
X177895000Y-85380000D02*
X177895000Y-85825000D01*
X184135000Y-83085000D02*
X184135000Y-83530000D01*
X184135000Y-85380000D02*
X184135000Y-85825000D01*
%TO.C,C12*%
X163845000Y-114835000D02*
X170085000Y-114835000D01*
X163845000Y-117575000D02*
X170085000Y-117575000D01*
X163845000Y-114835000D02*
X163845000Y-115280000D01*
X163845000Y-117130000D02*
X163845000Y-117575000D01*
X170085000Y-114835000D02*
X170085000Y-115280000D01*
X170085000Y-117130000D02*
X170085000Y-117575000D01*
%TO.C,C11*%
X149875000Y-114835000D02*
X156115000Y-114835000D01*
X149875000Y-117575000D02*
X156115000Y-117575000D01*
X149875000Y-114835000D02*
X149875000Y-115280000D01*
X149875000Y-117130000D02*
X149875000Y-117575000D01*
X156115000Y-114835000D02*
X156115000Y-115280000D01*
X156115000Y-117130000D02*
X156115000Y-117575000D01*
%TO.C,C10*%
X83915000Y-112295000D02*
X90155000Y-112295000D01*
X83915000Y-115035000D02*
X90155000Y-115035000D01*
X83915000Y-112295000D02*
X83915000Y-112740000D01*
X83915000Y-114590000D02*
X83915000Y-115035000D01*
X90155000Y-112295000D02*
X90155000Y-112740000D01*
X90155000Y-114590000D02*
X90155000Y-115035000D01*
%TO.C,C9*%
X31765000Y-114835000D02*
X38005000Y-114835000D01*
X31765000Y-117575000D02*
X38005000Y-117575000D01*
X31765000Y-114835000D02*
X31765000Y-115280000D01*
X31765000Y-117130000D02*
X31765000Y-117575000D01*
X38005000Y-114835000D02*
X38005000Y-115280000D01*
X38005000Y-117130000D02*
X38005000Y-117575000D01*
%TO.C,C8*%
X55975000Y-114835000D02*
X62215000Y-114835000D01*
X55975000Y-117575000D02*
X62215000Y-117575000D01*
X55975000Y-114835000D02*
X55975000Y-115280000D01*
X55975000Y-117130000D02*
X55975000Y-117575000D01*
X62215000Y-114835000D02*
X62215000Y-115280000D01*
X62215000Y-117130000D02*
X62215000Y-117575000D01*
%TO.C,C7*%
X17875000Y-114835000D02*
X24115000Y-114835000D01*
X17875000Y-117575000D02*
X24115000Y-117575000D01*
X17875000Y-114835000D02*
X17875000Y-115280000D01*
X17875000Y-117130000D02*
X17875000Y-117575000D01*
X24115000Y-114835000D02*
X24115000Y-115280000D01*
X24115000Y-117130000D02*
X24115000Y-117575000D01*
%TO.C,C5*%
X3905000Y-109755000D02*
X10145000Y-109755000D01*
X3905000Y-112495000D02*
X10145000Y-112495000D01*
X3905000Y-109755000D02*
X3905000Y-110200000D01*
X3905000Y-112050000D02*
X3905000Y-112495000D01*
X10145000Y-109755000D02*
X10145000Y-110200000D01*
X10145000Y-112050000D02*
X10145000Y-112495000D01*
%TO.C,C4*%
X17795000Y-83085000D02*
X24035000Y-83085000D01*
X17795000Y-85825000D02*
X24035000Y-85825000D01*
X17795000Y-83085000D02*
X17795000Y-83530000D01*
X17795000Y-85380000D02*
X17795000Y-85825000D01*
X24035000Y-83085000D02*
X24035000Y-83530000D01*
X24035000Y-85380000D02*
X24035000Y-85825000D01*
%TO.C,C3*%
X3825000Y-83085000D02*
X10065000Y-83085000D01*
X3825000Y-85825000D02*
X10065000Y-85825000D01*
X3825000Y-83085000D02*
X3825000Y-83530000D01*
X3825000Y-85380000D02*
X3825000Y-85825000D01*
X10065000Y-83085000D02*
X10065000Y-83530000D01*
X10065000Y-85380000D02*
X10065000Y-85825000D01*
%TO.C,C2*%
X69945000Y-114835000D02*
X76185000Y-114835000D01*
X69945000Y-117575000D02*
X76185000Y-117575000D01*
X69945000Y-114835000D02*
X69945000Y-115280000D01*
X69945000Y-117130000D02*
X69945000Y-117575000D01*
X76185000Y-114835000D02*
X76185000Y-115280000D01*
X76185000Y-117130000D02*
X76185000Y-117575000D01*
D11*
%TO.C,J3*%
X180440000Y-139375000D02*
X180440000Y-139375000D01*
X180240000Y-139375000D02*
X180240000Y-139375000D01*
D12*
X186340000Y-124825000D02*
X186340000Y-125325000D01*
X174340000Y-124825000D02*
X186340000Y-124825000D01*
X174340000Y-125325000D02*
X174340000Y-124825000D01*
X174340000Y-131325000D02*
X174340000Y-128325000D01*
X186340000Y-131325000D02*
X186340000Y-128325000D01*
X176340000Y-136525000D02*
X184340000Y-136525000D01*
D11*
X180240000Y-139375000D02*
G75*
G02*
X180440000Y-139375000I100000J0D01*
G01*
X180440000Y-139375000D02*
G75*
G02*
X180240000Y-139375000I-100000J0D01*
G01*
D10*
%TO.C,U24*%
X186115000Y-105290000D02*
X175835000Y-105290000D01*
X186115000Y-115690000D02*
X186115000Y-105290000D01*
X175835000Y-115690000D02*
X186115000Y-115690000D01*
X175835000Y-105290000D02*
X175835000Y-115690000D01*
X183625000Y-105350000D02*
X181975000Y-105350000D01*
X183625000Y-115630000D02*
X183625000Y-105350000D01*
X178325000Y-115630000D02*
X183625000Y-115630000D01*
X178325000Y-105350000D02*
X178325000Y-115630000D01*
X179975000Y-105350000D02*
X178325000Y-105350000D01*
X181975000Y-105350000D02*
G75*
G02*
X179975000Y-105350000I-1000000J0D01*
G01*
%TO.C,R22*%
X78335000Y-128905000D02*
X77565000Y-128905000D01*
X70255000Y-128905000D02*
X71025000Y-128905000D01*
X77565000Y-127535000D02*
X71025000Y-127535000D01*
X77565000Y-130275000D02*
X77565000Y-127535000D01*
X71025000Y-130275000D02*
X77565000Y-130275000D01*
X71025000Y-127535000D02*
X71025000Y-130275000D01*
%TO.C,R20*%
X91035000Y-123825000D02*
X90265000Y-123825000D01*
X82955000Y-123825000D02*
X83725000Y-123825000D01*
X90265000Y-122455000D02*
X83725000Y-122455000D01*
X90265000Y-125195000D02*
X90265000Y-122455000D01*
X83725000Y-125195000D02*
X90265000Y-125195000D01*
X83725000Y-122455000D02*
X83725000Y-125195000D01*
%TO.C,X1*%
X174525000Y-101700000D02*
X186675000Y-101700000D01*
X187425000Y-100950000D02*
X187425000Y-89550000D01*
X186675000Y-88800000D02*
X175275000Y-88800000D01*
X174525000Y-89550000D02*
X174525000Y-101700000D01*
X175275000Y-88800000D02*
G75*
G03*
X174525000Y-89550000I0J-750000D01*
G01*
X187425000Y-89550000D02*
G75*
G03*
X186675000Y-88800000I-750000J0D01*
G01*
X186675000Y-101700000D02*
G75*
G03*
X187425000Y-100950000I0J750000D01*
G01*
%TO.C,U23*%
X134045000Y-93860000D02*
X123765000Y-93860000D01*
X134045000Y-114420000D02*
X134045000Y-93860000D01*
X123765000Y-114420000D02*
X134045000Y-114420000D01*
X123765000Y-93860000D02*
X123765000Y-114420000D01*
X131555000Y-93920000D02*
X129905000Y-93920000D01*
X131555000Y-114360000D02*
X131555000Y-93920000D01*
X126255000Y-114360000D02*
X131555000Y-114360000D01*
X126255000Y-93920000D02*
X126255000Y-114360000D01*
X127905000Y-93920000D02*
X126255000Y-93920000D01*
X129905000Y-93920000D02*
G75*
G02*
X127905000Y-93920000I-1000000J0D01*
G01*
%TO.C,U22*%
X120075000Y-93860000D02*
X109795000Y-93860000D01*
X120075000Y-114420000D02*
X120075000Y-93860000D01*
X109795000Y-114420000D02*
X120075000Y-114420000D01*
X109795000Y-93860000D02*
X109795000Y-114420000D01*
X117585000Y-93920000D02*
X115935000Y-93920000D01*
X117585000Y-114360000D02*
X117585000Y-93920000D01*
X112285000Y-114360000D02*
X117585000Y-114360000D01*
X112285000Y-93920000D02*
X112285000Y-114360000D01*
X113935000Y-93920000D02*
X112285000Y-93920000D01*
X115935000Y-93920000D02*
G75*
G02*
X113935000Y-93920000I-1000000J0D01*
G01*
%TO.C,U21*%
X158175000Y-62110000D02*
X147895000Y-62110000D01*
X158175000Y-82670000D02*
X158175000Y-62110000D01*
X147895000Y-82670000D02*
X158175000Y-82670000D01*
X147895000Y-62110000D02*
X147895000Y-82670000D01*
X155685000Y-62170000D02*
X154035000Y-62170000D01*
X155685000Y-82610000D02*
X155685000Y-62170000D01*
X150385000Y-82610000D02*
X155685000Y-82610000D01*
X150385000Y-62170000D02*
X150385000Y-82610000D01*
X152035000Y-62170000D02*
X150385000Y-62170000D01*
X154035000Y-62170000D02*
G75*
G02*
X152035000Y-62170000I-1000000J0D01*
G01*
%TO.C,U20*%
X172145000Y-62110000D02*
X161865000Y-62110000D01*
X172145000Y-82670000D02*
X172145000Y-62110000D01*
X161865000Y-82670000D02*
X172145000Y-82670000D01*
X161865000Y-62110000D02*
X161865000Y-82670000D01*
X169655000Y-62170000D02*
X168005000Y-62170000D01*
X169655000Y-82610000D02*
X169655000Y-62170000D01*
X164355000Y-82610000D02*
X169655000Y-82610000D01*
X164355000Y-62170000D02*
X164355000Y-82610000D01*
X166005000Y-62170000D02*
X164355000Y-62170000D01*
X168005000Y-62170000D02*
G75*
G02*
X166005000Y-62170000I-1000000J0D01*
G01*
%TO.C,U19*%
X134045000Y-62110000D02*
X123765000Y-62110000D01*
X134045000Y-87750000D02*
X134045000Y-62110000D01*
X123765000Y-87750000D02*
X134045000Y-87750000D01*
X123765000Y-62110000D02*
X123765000Y-87750000D01*
X131555000Y-62170000D02*
X129905000Y-62170000D01*
X131555000Y-87690000D02*
X131555000Y-62170000D01*
X126255000Y-87690000D02*
X131555000Y-87690000D01*
X126255000Y-62170000D02*
X126255000Y-87690000D01*
X127905000Y-62170000D02*
X126255000Y-62170000D01*
X129905000Y-62170000D02*
G75*
G02*
X127905000Y-62170000I-1000000J0D01*
G01*
%TO.C,U18*%
X158175000Y-88780000D02*
X147895000Y-88780000D01*
X158175000Y-114420000D02*
X158175000Y-88780000D01*
X147895000Y-114420000D02*
X158175000Y-114420000D01*
X147895000Y-88780000D02*
X147895000Y-114420000D01*
X155685000Y-88840000D02*
X154035000Y-88840000D01*
X155685000Y-114360000D02*
X155685000Y-88840000D01*
X150385000Y-114360000D02*
X155685000Y-114360000D01*
X150385000Y-88840000D02*
X150385000Y-114360000D01*
X152035000Y-88840000D02*
X150385000Y-88840000D01*
X154035000Y-88840000D02*
G75*
G02*
X152035000Y-88840000I-1000000J0D01*
G01*
%TO.C,U17*%
X172145000Y-88780000D02*
X161865000Y-88780000D01*
X172145000Y-114420000D02*
X172145000Y-88780000D01*
X161865000Y-114420000D02*
X172145000Y-114420000D01*
X161865000Y-88780000D02*
X161865000Y-114420000D01*
X169655000Y-88840000D02*
X168005000Y-88840000D01*
X169655000Y-114360000D02*
X169655000Y-88840000D01*
X164355000Y-114360000D02*
X169655000Y-114360000D01*
X164355000Y-88840000D02*
X164355000Y-114360000D01*
X166005000Y-88840000D02*
X164355000Y-88840000D01*
X168005000Y-88840000D02*
G75*
G02*
X166005000Y-88840000I-1000000J0D01*
G01*
%TO.C,U16*%
X106105000Y-62110000D02*
X95825000Y-62110000D01*
X106105000Y-87750000D02*
X106105000Y-62110000D01*
X95825000Y-87750000D02*
X106105000Y-87750000D01*
X95825000Y-62110000D02*
X95825000Y-87750000D01*
X103615000Y-62170000D02*
X101965000Y-62170000D01*
X103615000Y-87690000D02*
X103615000Y-62170000D01*
X98315000Y-87690000D02*
X103615000Y-87690000D01*
X98315000Y-62170000D02*
X98315000Y-87690000D01*
X99965000Y-62170000D02*
X98315000Y-62170000D01*
X101965000Y-62170000D02*
G75*
G02*
X99965000Y-62170000I-1000000J0D01*
G01*
%TO.C,U15*%
X120075000Y-62110000D02*
X109795000Y-62110000D01*
X120075000Y-87750000D02*
X120075000Y-62110000D01*
X109795000Y-87750000D02*
X120075000Y-87750000D01*
X109795000Y-62110000D02*
X109795000Y-87750000D01*
X117585000Y-62170000D02*
X115935000Y-62170000D01*
X117585000Y-87690000D02*
X117585000Y-62170000D01*
X112285000Y-87690000D02*
X117585000Y-87690000D01*
X112285000Y-62170000D02*
X112285000Y-87690000D01*
X113935000Y-62170000D02*
X112285000Y-62170000D01*
X115935000Y-62170000D02*
G75*
G02*
X113935000Y-62170000I-1000000J0D01*
G01*
%TO.C,U14*%
X64195000Y-93860000D02*
X53915000Y-93860000D01*
X64195000Y-114420000D02*
X64195000Y-93860000D01*
X53915000Y-114420000D02*
X64195000Y-114420000D01*
X53915000Y-93860000D02*
X53915000Y-114420000D01*
X61705000Y-93920000D02*
X60055000Y-93920000D01*
X61705000Y-114360000D02*
X61705000Y-93920000D01*
X56405000Y-114360000D02*
X61705000Y-114360000D01*
X56405000Y-93920000D02*
X56405000Y-114360000D01*
X58055000Y-93920000D02*
X56405000Y-93920000D01*
X60055000Y-93920000D02*
G75*
G02*
X58055000Y-93920000I-1000000J0D01*
G01*
%TO.C,U13*%
X78165000Y-93860000D02*
X67885000Y-93860000D01*
X78165000Y-114420000D02*
X78165000Y-93860000D01*
X67885000Y-114420000D02*
X78165000Y-114420000D01*
X67885000Y-93860000D02*
X67885000Y-114420000D01*
X75675000Y-93920000D02*
X74025000Y-93920000D01*
X75675000Y-114360000D02*
X75675000Y-93920000D01*
X70375000Y-114360000D02*
X75675000Y-114360000D01*
X70375000Y-93920000D02*
X70375000Y-114360000D01*
X72025000Y-93920000D02*
X70375000Y-93920000D01*
X74025000Y-93920000D02*
G75*
G02*
X72025000Y-93920000I-1000000J0D01*
G01*
%TO.C,U12*%
X40065000Y-62110000D02*
X29785000Y-62110000D01*
X40065000Y-82670000D02*
X40065000Y-62110000D01*
X29785000Y-82670000D02*
X40065000Y-82670000D01*
X29785000Y-62110000D02*
X29785000Y-82670000D01*
X37575000Y-62170000D02*
X35925000Y-62170000D01*
X37575000Y-82610000D02*
X37575000Y-62170000D01*
X32275000Y-82610000D02*
X37575000Y-82610000D01*
X32275000Y-62170000D02*
X32275000Y-82610000D01*
X33925000Y-62170000D02*
X32275000Y-62170000D01*
X35925000Y-62170000D02*
G75*
G02*
X33925000Y-62170000I-1000000J0D01*
G01*
%TO.C,U11*%
X26095000Y-62110000D02*
X15815000Y-62110000D01*
X26095000Y-82670000D02*
X26095000Y-62110000D01*
X15815000Y-82670000D02*
X26095000Y-82670000D01*
X15815000Y-62110000D02*
X15815000Y-82670000D01*
X23605000Y-62170000D02*
X21955000Y-62170000D01*
X23605000Y-82610000D02*
X23605000Y-62170000D01*
X18305000Y-82610000D02*
X23605000Y-82610000D01*
X18305000Y-62170000D02*
X18305000Y-82610000D01*
X19955000Y-62170000D02*
X18305000Y-62170000D01*
X21955000Y-62170000D02*
G75*
G02*
X19955000Y-62170000I-1000000J0D01*
G01*
%TO.C,U10*%
X64195000Y-62110000D02*
X53915000Y-62110000D01*
X64195000Y-87750000D02*
X64195000Y-62110000D01*
X53915000Y-87750000D02*
X64195000Y-87750000D01*
X53915000Y-62110000D02*
X53915000Y-87750000D01*
X61705000Y-62170000D02*
X60055000Y-62170000D01*
X61705000Y-87690000D02*
X61705000Y-62170000D01*
X56405000Y-87690000D02*
X61705000Y-87690000D01*
X56405000Y-62170000D02*
X56405000Y-87690000D01*
X58055000Y-62170000D02*
X56405000Y-62170000D01*
X60055000Y-62170000D02*
G75*
G02*
X58055000Y-62170000I-1000000J0D01*
G01*
%TO.C,U9*%
X40065000Y-88780000D02*
X29785000Y-88780000D01*
X40065000Y-114420000D02*
X40065000Y-88780000D01*
X29785000Y-114420000D02*
X40065000Y-114420000D01*
X29785000Y-88780000D02*
X29785000Y-114420000D01*
X37575000Y-88840000D02*
X35925000Y-88840000D01*
X37575000Y-114360000D02*
X37575000Y-88840000D01*
X32275000Y-114360000D02*
X37575000Y-114360000D01*
X32275000Y-88840000D02*
X32275000Y-114360000D01*
X33925000Y-88840000D02*
X32275000Y-88840000D01*
X35925000Y-88840000D02*
G75*
G02*
X33925000Y-88840000I-1000000J0D01*
G01*
%TO.C,U8*%
X26095000Y-88780000D02*
X15815000Y-88780000D01*
X26095000Y-114420000D02*
X26095000Y-88780000D01*
X15815000Y-114420000D02*
X26095000Y-114420000D01*
X15815000Y-88780000D02*
X15815000Y-114420000D01*
X23605000Y-88840000D02*
X21955000Y-88840000D01*
X23605000Y-114360000D02*
X23605000Y-88840000D01*
X18305000Y-114360000D02*
X23605000Y-114360000D01*
X18305000Y-88840000D02*
X18305000Y-114360000D01*
X19955000Y-88840000D02*
X18305000Y-88840000D01*
X21955000Y-88840000D02*
G75*
G02*
X19955000Y-88840000I-1000000J0D01*
G01*
%TO.C,U7*%
X92135000Y-62110000D02*
X81855000Y-62110000D01*
X92135000Y-87750000D02*
X92135000Y-62110000D01*
X81855000Y-87750000D02*
X92135000Y-87750000D01*
X81855000Y-62110000D02*
X81855000Y-87750000D01*
X89645000Y-62170000D02*
X87995000Y-62170000D01*
X89645000Y-87690000D02*
X89645000Y-62170000D01*
X84345000Y-87690000D02*
X89645000Y-87690000D01*
X84345000Y-62170000D02*
X84345000Y-87690000D01*
X85995000Y-62170000D02*
X84345000Y-62170000D01*
X87995000Y-62170000D02*
G75*
G02*
X85995000Y-62170000I-1000000J0D01*
G01*
%TO.C,U6*%
X78165000Y-62110000D02*
X67885000Y-62110000D01*
X78165000Y-87750000D02*
X78165000Y-62110000D01*
X67885000Y-87750000D02*
X78165000Y-87750000D01*
X67885000Y-62110000D02*
X67885000Y-87750000D01*
X75675000Y-62170000D02*
X74025000Y-62170000D01*
X75675000Y-87690000D02*
X75675000Y-62170000D01*
X70375000Y-87690000D02*
X75675000Y-87690000D01*
X70375000Y-62170000D02*
X70375000Y-87690000D01*
X72025000Y-62170000D02*
X70375000Y-62170000D01*
X74025000Y-62170000D02*
G75*
G02*
X72025000Y-62170000I-1000000J0D01*
G01*
%TO.C,U5*%
X186115000Y-62110000D02*
X175835000Y-62110000D01*
X186115000Y-82670000D02*
X186115000Y-62110000D01*
X175835000Y-82670000D02*
X186115000Y-82670000D01*
X175835000Y-62110000D02*
X175835000Y-82670000D01*
X183625000Y-62170000D02*
X181975000Y-62170000D01*
X183625000Y-82610000D02*
X183625000Y-62170000D01*
X178325000Y-82610000D02*
X183625000Y-82610000D01*
X178325000Y-62170000D02*
X178325000Y-82610000D01*
X179975000Y-62170000D02*
X178325000Y-62170000D01*
X181975000Y-62170000D02*
G75*
G02*
X179975000Y-62170000I-1000000J0D01*
G01*
%TO.C,U4*%
X106105000Y-93860000D02*
X95825000Y-93860000D01*
X106105000Y-119500000D02*
X106105000Y-93860000D01*
X95825000Y-119500000D02*
X106105000Y-119500000D01*
X95825000Y-93860000D02*
X95825000Y-119500000D01*
X103615000Y-93920000D02*
X101965000Y-93920000D01*
X103615000Y-119440000D02*
X103615000Y-93920000D01*
X98315000Y-119440000D02*
X103615000Y-119440000D01*
X98315000Y-93920000D02*
X98315000Y-119440000D01*
X99965000Y-93920000D02*
X98315000Y-93920000D01*
X101965000Y-93920000D02*
G75*
G02*
X99965000Y-93920000I-1000000J0D01*
G01*
%TO.C,U3*%
X12125000Y-88780000D02*
X1845000Y-88780000D01*
X12125000Y-109340000D02*
X12125000Y-88780000D01*
X1845000Y-109340000D02*
X12125000Y-109340000D01*
X1845000Y-88780000D02*
X1845000Y-109340000D01*
X9635000Y-88840000D02*
X7985000Y-88840000D01*
X9635000Y-109280000D02*
X9635000Y-88840000D01*
X4335000Y-109280000D02*
X9635000Y-109280000D01*
X4335000Y-88840000D02*
X4335000Y-109280000D01*
X5985000Y-88840000D02*
X4335000Y-88840000D01*
X7985000Y-88840000D02*
G75*
G02*
X5985000Y-88840000I-1000000J0D01*
G01*
%TO.C,U2*%
X92135000Y-93860000D02*
X81855000Y-93860000D01*
X92135000Y-111880000D02*
X92135000Y-93860000D01*
X81855000Y-111880000D02*
X92135000Y-111880000D01*
X81855000Y-93860000D02*
X81855000Y-111880000D01*
X89645000Y-93920000D02*
X87995000Y-93920000D01*
X89645000Y-111820000D02*
X89645000Y-93920000D01*
X84345000Y-111820000D02*
X89645000Y-111820000D01*
X84345000Y-93920000D02*
X84345000Y-111820000D01*
X85995000Y-93920000D02*
X84345000Y-93920000D01*
X87995000Y-93920000D02*
G75*
G02*
X85995000Y-93920000I-1000000J0D01*
G01*
%TO.C,U1*%
X12125000Y-62110000D02*
X1845000Y-62110000D01*
X12125000Y-82670000D02*
X12125000Y-62110000D01*
X1845000Y-82670000D02*
X12125000Y-82670000D01*
X1845000Y-62110000D02*
X1845000Y-82670000D01*
X9635000Y-62170000D02*
X7985000Y-62170000D01*
X9635000Y-82610000D02*
X9635000Y-62170000D01*
X4335000Y-82610000D02*
X9635000Y-82610000D01*
X4335000Y-62170000D02*
X4335000Y-82610000D01*
X5985000Y-62170000D02*
X4335000Y-62170000D01*
X7985000Y-62170000D02*
G75*
G02*
X5985000Y-62170000I-1000000J0D01*
G01*
%TO.C,R19*%
X158345000Y-128905000D02*
X157575000Y-128905000D01*
X150265000Y-128905000D02*
X151035000Y-128905000D01*
X157575000Y-127535000D02*
X151035000Y-127535000D01*
X157575000Y-130275000D02*
X157575000Y-127535000D01*
X151035000Y-130275000D02*
X157575000Y-130275000D01*
X151035000Y-127535000D02*
X151035000Y-130275000D01*
%TO.C,R18*%
X158345000Y-123825000D02*
X157575000Y-123825000D01*
X150265000Y-123825000D02*
X151035000Y-123825000D01*
X157575000Y-122455000D02*
X151035000Y-122455000D01*
X157575000Y-125195000D02*
X157575000Y-122455000D01*
X151035000Y-125195000D02*
X157575000Y-125195000D01*
X151035000Y-122455000D02*
X151035000Y-125195000D01*
%TO.C,R17*%
X145645000Y-128905000D02*
X144875000Y-128905000D01*
X137565000Y-128905000D02*
X138335000Y-128905000D01*
X144875000Y-127535000D02*
X138335000Y-127535000D01*
X144875000Y-130275000D02*
X144875000Y-127535000D01*
X138335000Y-130275000D02*
X144875000Y-130275000D01*
X138335000Y-127535000D02*
X138335000Y-130275000D01*
%TO.C,R16*%
X145645000Y-123825000D02*
X144875000Y-123825000D01*
X137565000Y-123825000D02*
X138335000Y-123825000D01*
X144875000Y-122455000D02*
X138335000Y-122455000D01*
X144875000Y-125195000D02*
X144875000Y-122455000D01*
X138335000Y-125195000D02*
X144875000Y-125195000D01*
X138335000Y-122455000D02*
X138335000Y-125195000D01*
%TO.C,R15*%
X132945000Y-128905000D02*
X132175000Y-128905000D01*
X124865000Y-128905000D02*
X125635000Y-128905000D01*
X132175000Y-127535000D02*
X125635000Y-127535000D01*
X132175000Y-130275000D02*
X132175000Y-127535000D01*
X125635000Y-130275000D02*
X132175000Y-130275000D01*
X125635000Y-127535000D02*
X125635000Y-130275000D01*
%TO.C,R14*%
X132945000Y-123825000D02*
X132175000Y-123825000D01*
X124865000Y-123825000D02*
X125635000Y-123825000D01*
X132175000Y-122455000D02*
X125635000Y-122455000D01*
X132175000Y-125195000D02*
X132175000Y-122455000D01*
X125635000Y-125195000D02*
X132175000Y-125195000D01*
X125635000Y-122455000D02*
X125635000Y-125195000D01*
%TO.C,R13*%
X120245000Y-128905000D02*
X119475000Y-128905000D01*
X112165000Y-128905000D02*
X112935000Y-128905000D01*
X119475000Y-127535000D02*
X112935000Y-127535000D01*
X119475000Y-130275000D02*
X119475000Y-127535000D01*
X112935000Y-130275000D02*
X119475000Y-130275000D01*
X112935000Y-127535000D02*
X112935000Y-130275000D01*
%TO.C,R12*%
X120245000Y-123825000D02*
X119475000Y-123825000D01*
X112165000Y-123825000D02*
X112935000Y-123825000D01*
X119475000Y-122455000D02*
X112935000Y-122455000D01*
X119475000Y-125195000D02*
X119475000Y-122455000D01*
X112935000Y-125195000D02*
X119475000Y-125195000D01*
X112935000Y-122455000D02*
X112935000Y-125195000D01*
%TO.C,R11*%
X65635000Y-128905000D02*
X64865000Y-128905000D01*
X57555000Y-128905000D02*
X58325000Y-128905000D01*
X64865000Y-127535000D02*
X58325000Y-127535000D01*
X64865000Y-130275000D02*
X64865000Y-127535000D01*
X58325000Y-130275000D02*
X64865000Y-130275000D01*
X58325000Y-127535000D02*
X58325000Y-130275000D01*
%TO.C,R10*%
X78335000Y-123825000D02*
X77565000Y-123825000D01*
X70255000Y-123825000D02*
X71025000Y-123825000D01*
X77565000Y-122455000D02*
X71025000Y-122455000D01*
X77565000Y-125195000D02*
X77565000Y-122455000D01*
X71025000Y-125195000D02*
X77565000Y-125195000D01*
X71025000Y-122455000D02*
X71025000Y-125195000D01*
%TO.C,R9*%
X65635000Y-123825000D02*
X64865000Y-123825000D01*
X57555000Y-123825000D02*
X58325000Y-123825000D01*
X64865000Y-122455000D02*
X58325000Y-122455000D01*
X64865000Y-125195000D02*
X64865000Y-122455000D01*
X58325000Y-125195000D02*
X64865000Y-125195000D01*
X58325000Y-122455000D02*
X58325000Y-125195000D01*
%TO.C,R8*%
X52935000Y-128905000D02*
X52165000Y-128905000D01*
X44855000Y-128905000D02*
X45625000Y-128905000D01*
X52165000Y-127535000D02*
X45625000Y-127535000D01*
X52165000Y-130275000D02*
X52165000Y-127535000D01*
X45625000Y-130275000D02*
X52165000Y-130275000D01*
X45625000Y-127535000D02*
X45625000Y-130275000D01*
%TO.C,R7*%
X52935000Y-123825000D02*
X52165000Y-123825000D01*
X44855000Y-123825000D02*
X45625000Y-123825000D01*
X52165000Y-122455000D02*
X45625000Y-122455000D01*
X52165000Y-125195000D02*
X52165000Y-122455000D01*
X45625000Y-125195000D02*
X52165000Y-125195000D01*
X45625000Y-122455000D02*
X45625000Y-125195000D01*
%TO.C,R6*%
X40235000Y-128905000D02*
X39465000Y-128905000D01*
X32155000Y-128905000D02*
X32925000Y-128905000D01*
X39465000Y-127535000D02*
X32925000Y-127535000D01*
X39465000Y-130275000D02*
X39465000Y-127535000D01*
X32925000Y-130275000D02*
X39465000Y-130275000D01*
X32925000Y-127535000D02*
X32925000Y-130275000D01*
%TO.C,R5*%
X40235000Y-123825000D02*
X39465000Y-123825000D01*
X32155000Y-123825000D02*
X32925000Y-123825000D01*
X39465000Y-122455000D02*
X32925000Y-122455000D01*
X39465000Y-125195000D02*
X39465000Y-122455000D01*
X32925000Y-125195000D02*
X39465000Y-125195000D01*
X32925000Y-122455000D02*
X32925000Y-125195000D01*
%TO.C,R4*%
X27535000Y-123825000D02*
X26765000Y-123825000D01*
X19455000Y-123825000D02*
X20225000Y-123825000D01*
X26765000Y-122455000D02*
X20225000Y-122455000D01*
X26765000Y-125195000D02*
X26765000Y-122455000D01*
X20225000Y-125195000D02*
X26765000Y-125195000D01*
X20225000Y-122455000D02*
X20225000Y-125195000D01*
%TO.C,R3*%
X27535000Y-128905000D02*
X26765000Y-128905000D01*
X19455000Y-128905000D02*
X20225000Y-128905000D01*
X26765000Y-127535000D02*
X20225000Y-127535000D01*
X26765000Y-130275000D02*
X26765000Y-127535000D01*
X20225000Y-130275000D02*
X26765000Y-130275000D01*
X20225000Y-127535000D02*
X20225000Y-130275000D01*
%TO.C,R2*%
X14835000Y-123825000D02*
X14065000Y-123825000D01*
X6755000Y-123825000D02*
X7525000Y-123825000D01*
X14065000Y-122455000D02*
X7525000Y-122455000D01*
X14065000Y-125195000D02*
X14065000Y-122455000D01*
X7525000Y-125195000D02*
X14065000Y-125195000D01*
X7525000Y-122455000D02*
X7525000Y-125195000D01*
%TO.C,R1*%
X14835000Y-128905000D02*
X14065000Y-128905000D01*
X6755000Y-128905000D02*
X7525000Y-128905000D01*
X14065000Y-127535000D02*
X7525000Y-127535000D01*
X14065000Y-130275000D02*
X14065000Y-127535000D01*
X7525000Y-130275000D02*
X14065000Y-130275000D01*
X7525000Y-127535000D02*
X7525000Y-130275000D01*
%TO.C,J2*%
X138370000Y-64710000D02*
X139700000Y-64710000D01*
X138370000Y-66040000D02*
X138370000Y-64710000D01*
X140970000Y-64710000D02*
X143570000Y-64710000D01*
X140970000Y-67310000D02*
X140970000Y-64710000D01*
X138370000Y-67310000D02*
X140970000Y-67310000D01*
X143570000Y-64710000D02*
X143570000Y-115630000D01*
X138370000Y-67310000D02*
X138370000Y-115630000D01*
X138370000Y-115630000D02*
X143570000Y-115630000D01*
%TO.C,J1*%
X44390000Y-64710000D02*
X45720000Y-64710000D01*
X44390000Y-66040000D02*
X44390000Y-64710000D01*
X46990000Y-64710000D02*
X49590000Y-64710000D01*
X46990000Y-67310000D02*
X46990000Y-64710000D01*
X44390000Y-67310000D02*
X46990000Y-67310000D01*
X49590000Y-64710000D02*
X49590000Y-115630000D01*
X44390000Y-67310000D02*
X44390000Y-115630000D01*
X44390000Y-115630000D02*
X49590000Y-115630000D01*
%TO.C,C1*%
D13*
X162211666Y-121491666D02*
X162687857Y-121491666D01*
X162116428Y-121777380D02*
X162449761Y-120777380D01*
X162783095Y-121777380D01*
X163687857Y-121682142D02*
X163640238Y-121729761D01*
X163497380Y-121777380D01*
X163402142Y-121777380D01*
X163259285Y-121729761D01*
X163164047Y-121634523D01*
X163116428Y-121539285D01*
X163068809Y-121348809D01*
X163068809Y-121205952D01*
X163116428Y-121015476D01*
X163164047Y-120920238D01*
X163259285Y-120825000D01*
X163402142Y-120777380D01*
X163497380Y-120777380D01*
X163640238Y-120825000D01*
X163687857Y-120872619D01*
X165449761Y-121682142D02*
X165402142Y-121729761D01*
X165259285Y-121777380D01*
X165164047Y-121777380D01*
X165021190Y-121729761D01*
X164925952Y-121634523D01*
X164878333Y-121539285D01*
X164830714Y-121348809D01*
X164830714Y-121205952D01*
X164878333Y-121015476D01*
X164925952Y-120920238D01*
X165021190Y-120825000D01*
X165164047Y-120777380D01*
X165259285Y-120777380D01*
X165402142Y-120825000D01*
X165449761Y-120872619D01*
X166068809Y-120777380D02*
X166259285Y-120777380D01*
X166354523Y-120825000D01*
X166449761Y-120920238D01*
X166497380Y-121110714D01*
X166497380Y-121444047D01*
X166449761Y-121634523D01*
X166354523Y-121729761D01*
X166259285Y-121777380D01*
X166068809Y-121777380D01*
X165973571Y-121729761D01*
X165878333Y-121634523D01*
X165830714Y-121444047D01*
X165830714Y-121110714D01*
X165878333Y-120920238D01*
X165973571Y-120825000D01*
X166068809Y-120777380D01*
X166925952Y-120777380D02*
X166925952Y-121586904D01*
X166973571Y-121682142D01*
X167021190Y-121729761D01*
X167116428Y-121777380D01*
X167306904Y-121777380D01*
X167402142Y-121729761D01*
X167449761Y-121682142D01*
X167497380Y-121586904D01*
X167497380Y-120777380D01*
X167973571Y-121777380D02*
X167973571Y-120777380D01*
X168354523Y-120777380D01*
X168449761Y-120825000D01*
X168497380Y-120872619D01*
X168545000Y-120967857D01*
X168545000Y-121110714D01*
X168497380Y-121205952D01*
X168449761Y-121253571D01*
X168354523Y-121301190D01*
X167973571Y-121301190D01*
X169449761Y-121777380D02*
X168973571Y-121777380D01*
X168973571Y-120777380D01*
X169783095Y-121777380D02*
X169783095Y-120777380D01*
X170259285Y-121777380D02*
X170259285Y-120777380D01*
X170830714Y-121777380D01*
X170830714Y-120777380D01*
X171830714Y-120825000D02*
X171735476Y-120777380D01*
X171592619Y-120777380D01*
X171449761Y-120825000D01*
X171354523Y-120920238D01*
X171306904Y-121015476D01*
X171259285Y-121205952D01*
X171259285Y-121348809D01*
X171306904Y-121539285D01*
X171354523Y-121634523D01*
X171449761Y-121729761D01*
X171592619Y-121777380D01*
X171687857Y-121777380D01*
X171830714Y-121729761D01*
X171878333Y-121682142D01*
X171878333Y-121348809D01*
X171687857Y-121348809D01*
%TO.C,J3*%
D14*
X179644523Y-132573333D02*
X180551666Y-132573333D01*
X180733095Y-132633809D01*
X180854047Y-132754761D01*
X180914523Y-132936190D01*
X180914523Y-133057142D01*
X179644523Y-132089523D02*
X179644523Y-131303333D01*
X180128333Y-131726666D01*
X180128333Y-131545238D01*
X180188809Y-131424285D01*
X180249285Y-131363809D01*
X180370238Y-131303333D01*
X180672619Y-131303333D01*
X180793571Y-131363809D01*
X180854047Y-131424285D01*
X180914523Y-131545238D01*
X180914523Y-131908095D01*
X180854047Y-132029047D01*
X180793571Y-132089523D01*
X176892857Y-123764523D02*
X176288095Y-123764523D01*
X176288095Y-122494523D01*
X177316190Y-123764523D02*
X177316190Y-122494523D01*
X177920952Y-123764523D02*
X177920952Y-122494523D01*
X178646666Y-123764523D01*
X178646666Y-122494523D01*
X179251428Y-123099285D02*
X179674761Y-123099285D01*
X179856190Y-123764523D02*
X179251428Y-123764523D01*
X179251428Y-122494523D01*
X179856190Y-122494523D01*
X181610000Y-122494523D02*
X181851904Y-122494523D01*
X181972857Y-122555000D01*
X182093809Y-122675952D01*
X182154285Y-122917857D01*
X182154285Y-123341190D01*
X182093809Y-123583095D01*
X181972857Y-123704047D01*
X181851904Y-123764523D01*
X181610000Y-123764523D01*
X181489047Y-123704047D01*
X181368095Y-123583095D01*
X181307619Y-123341190D01*
X181307619Y-122917857D01*
X181368095Y-122675952D01*
X181489047Y-122555000D01*
X181610000Y-122494523D01*
X182698571Y-122494523D02*
X182698571Y-123522619D01*
X182759047Y-123643571D01*
X182819523Y-123704047D01*
X182940476Y-123764523D01*
X183182380Y-123764523D01*
X183303333Y-123704047D01*
X183363809Y-123643571D01*
X183424285Y-123522619D01*
X183424285Y-122494523D01*
X183847619Y-122494523D02*
X184573333Y-122494523D01*
X184210476Y-123764523D02*
X184210476Y-122494523D01*
%TO.C,U24*%
D13*
X179284523Y-104592380D02*
X178808333Y-104592380D01*
X178808333Y-103592380D01*
X179617857Y-104592380D02*
X179617857Y-103592380D01*
X179951190Y-104306666D01*
X180284523Y-103592380D01*
X180284523Y-104592380D01*
X180665476Y-103592380D02*
X181284523Y-103592380D01*
X180951190Y-103973333D01*
X181094047Y-103973333D01*
X181189285Y-104020952D01*
X181236904Y-104068571D01*
X181284523Y-104163809D01*
X181284523Y-104401904D01*
X181236904Y-104497142D01*
X181189285Y-104544761D01*
X181094047Y-104592380D01*
X180808333Y-104592380D01*
X180713095Y-104544761D01*
X180665476Y-104497142D01*
X182189285Y-103592380D02*
X181713095Y-103592380D01*
X181665476Y-104068571D01*
X181713095Y-104020952D01*
X181808333Y-103973333D01*
X182046428Y-103973333D01*
X182141666Y-104020952D01*
X182189285Y-104068571D01*
X182236904Y-104163809D01*
X182236904Y-104401904D01*
X182189285Y-104497142D01*
X182141666Y-104544761D01*
X182046428Y-104592380D01*
X181808333Y-104592380D01*
X181713095Y-104544761D01*
X181665476Y-104497142D01*
X182808333Y-104020952D02*
X182713095Y-103973333D01*
X182665476Y-103925714D01*
X182617857Y-103830476D01*
X182617857Y-103782857D01*
X182665476Y-103687619D01*
X182713095Y-103640000D01*
X182808333Y-103592380D01*
X182998809Y-103592380D01*
X183094047Y-103640000D01*
X183141666Y-103687619D01*
X183189285Y-103782857D01*
X183189285Y-103830476D01*
X183141666Y-103925714D01*
X183094047Y-103973333D01*
X182998809Y-104020952D01*
X182808333Y-104020952D01*
X182713095Y-104068571D01*
X182665476Y-104116190D01*
X182617857Y-104211428D01*
X182617857Y-104401904D01*
X182665476Y-104497142D01*
X182713095Y-104544761D01*
X182808333Y-104592380D01*
X182998809Y-104592380D01*
X183094047Y-104544761D01*
X183141666Y-104497142D01*
X183189285Y-104401904D01*
X183189285Y-104211428D01*
X183141666Y-104116190D01*
X183094047Y-104068571D01*
X182998809Y-104020952D01*
%TO.C,R22*%
X73223571Y-126817380D02*
X72652142Y-126817380D01*
X72937857Y-126817380D02*
X72937857Y-125817380D01*
X72842619Y-125960238D01*
X72747380Y-126055476D01*
X72652142Y-126103095D01*
X73842619Y-125817380D02*
X73937857Y-125817380D01*
X74033095Y-125865000D01*
X74080714Y-125912619D01*
X74128333Y-126007857D01*
X74175952Y-126198333D01*
X74175952Y-126436428D01*
X74128333Y-126626904D01*
X74080714Y-126722142D01*
X74033095Y-126769761D01*
X73937857Y-126817380D01*
X73842619Y-126817380D01*
X73747380Y-126769761D01*
X73699761Y-126722142D01*
X73652142Y-126626904D01*
X73604523Y-126436428D01*
X73604523Y-126198333D01*
X73652142Y-126007857D01*
X73699761Y-125912619D01*
X73747380Y-125865000D01*
X73842619Y-125817380D01*
X74795000Y-125817380D02*
X74890238Y-125817380D01*
X74985476Y-125865000D01*
X75033095Y-125912619D01*
X75080714Y-126007857D01*
X75128333Y-126198333D01*
X75128333Y-126436428D01*
X75080714Y-126626904D01*
X75033095Y-126722142D01*
X74985476Y-126769761D01*
X74890238Y-126817380D01*
X74795000Y-126817380D01*
X74699761Y-126769761D01*
X74652142Y-126722142D01*
X74604523Y-126626904D01*
X74556904Y-126436428D01*
X74556904Y-126198333D01*
X74604523Y-126007857D01*
X74652142Y-125912619D01*
X74699761Y-125865000D01*
X74795000Y-125817380D01*
X75556904Y-126817380D02*
X75556904Y-125817380D01*
X75652142Y-126436428D02*
X75937857Y-126817380D01*
X75937857Y-126150714D02*
X75556904Y-126531666D01*
%TO.C,R20*%
X85923571Y-121737380D02*
X85352142Y-121737380D01*
X85637857Y-121737380D02*
X85637857Y-120737380D01*
X85542619Y-120880238D01*
X85447380Y-120975476D01*
X85352142Y-121023095D01*
X86542619Y-120737380D02*
X86637857Y-120737380D01*
X86733095Y-120785000D01*
X86780714Y-120832619D01*
X86828333Y-120927857D01*
X86875952Y-121118333D01*
X86875952Y-121356428D01*
X86828333Y-121546904D01*
X86780714Y-121642142D01*
X86733095Y-121689761D01*
X86637857Y-121737380D01*
X86542619Y-121737380D01*
X86447380Y-121689761D01*
X86399761Y-121642142D01*
X86352142Y-121546904D01*
X86304523Y-121356428D01*
X86304523Y-121118333D01*
X86352142Y-120927857D01*
X86399761Y-120832619D01*
X86447380Y-120785000D01*
X86542619Y-120737380D01*
X87495000Y-120737380D02*
X87590238Y-120737380D01*
X87685476Y-120785000D01*
X87733095Y-120832619D01*
X87780714Y-120927857D01*
X87828333Y-121118333D01*
X87828333Y-121356428D01*
X87780714Y-121546904D01*
X87733095Y-121642142D01*
X87685476Y-121689761D01*
X87590238Y-121737380D01*
X87495000Y-121737380D01*
X87399761Y-121689761D01*
X87352142Y-121642142D01*
X87304523Y-121546904D01*
X87256904Y-121356428D01*
X87256904Y-121118333D01*
X87304523Y-120927857D01*
X87352142Y-120832619D01*
X87399761Y-120785000D01*
X87495000Y-120737380D01*
X88256904Y-121737380D02*
X88256904Y-120737380D01*
X88352142Y-121356428D02*
X88637857Y-121737380D01*
X88637857Y-121070714D02*
X88256904Y-121451666D01*
%TO.C,X1*%
X179760714Y-88082380D02*
X179189285Y-88082380D01*
X179475000Y-88082380D02*
X179475000Y-87082380D01*
X179379761Y-87225238D01*
X179284523Y-87320476D01*
X179189285Y-87368095D01*
X180189285Y-88082380D02*
X180189285Y-87082380D01*
X180522619Y-87796666D01*
X180855952Y-87082380D01*
X180855952Y-88082380D01*
X181332142Y-88082380D02*
X181332142Y-87082380D01*
X181332142Y-87558571D02*
X181903571Y-87558571D01*
X181903571Y-88082380D02*
X181903571Y-87082380D01*
X182284523Y-87415714D02*
X182808333Y-87415714D01*
X182284523Y-88082380D01*
X182808333Y-88082380D01*
%TO.C,U23*%
X125643095Y-92162380D02*
X126309761Y-92162380D01*
X125881190Y-93162380D01*
X127119285Y-92495714D02*
X127119285Y-93162380D01*
X126881190Y-92114761D02*
X126643095Y-92829047D01*
X127262142Y-92829047D01*
X127643095Y-93162380D02*
X127643095Y-92162380D01*
X127643095Y-92638571D02*
X128214523Y-92638571D01*
X128214523Y-93162380D02*
X128214523Y-92162380D01*
X129262142Y-93067142D02*
X129214523Y-93114761D01*
X129071666Y-93162380D01*
X128976428Y-93162380D01*
X128833571Y-93114761D01*
X128738333Y-93019523D01*
X128690714Y-92924285D01*
X128643095Y-92733809D01*
X128643095Y-92590952D01*
X128690714Y-92400476D01*
X128738333Y-92305238D01*
X128833571Y-92210000D01*
X128976428Y-92162380D01*
X129071666Y-92162380D01*
X129214523Y-92210000D01*
X129262142Y-92257619D01*
X129643095Y-92257619D02*
X129690714Y-92210000D01*
X129785952Y-92162380D01*
X130024047Y-92162380D01*
X130119285Y-92210000D01*
X130166904Y-92257619D01*
X130214523Y-92352857D01*
X130214523Y-92448095D01*
X130166904Y-92590952D01*
X129595476Y-93162380D01*
X130214523Y-93162380D01*
X130785952Y-92590952D02*
X130690714Y-92543333D01*
X130643095Y-92495714D01*
X130595476Y-92400476D01*
X130595476Y-92352857D01*
X130643095Y-92257619D01*
X130690714Y-92210000D01*
X130785952Y-92162380D01*
X130976428Y-92162380D01*
X131071666Y-92210000D01*
X131119285Y-92257619D01*
X131166904Y-92352857D01*
X131166904Y-92400476D01*
X131119285Y-92495714D01*
X131071666Y-92543333D01*
X130976428Y-92590952D01*
X130785952Y-92590952D01*
X130690714Y-92638571D01*
X130643095Y-92686190D01*
X130595476Y-92781428D01*
X130595476Y-92971904D01*
X130643095Y-93067142D01*
X130690714Y-93114761D01*
X130785952Y-93162380D01*
X130976428Y-93162380D01*
X131071666Y-93114761D01*
X131119285Y-93067142D01*
X131166904Y-92971904D01*
X131166904Y-92781428D01*
X131119285Y-92686190D01*
X131071666Y-92638571D01*
X130976428Y-92590952D01*
X131500238Y-92162380D02*
X132119285Y-92162380D01*
X131785952Y-92543333D01*
X131928809Y-92543333D01*
X132024047Y-92590952D01*
X132071666Y-92638571D01*
X132119285Y-92733809D01*
X132119285Y-92971904D01*
X132071666Y-93067142D01*
X132024047Y-93114761D01*
X131928809Y-93162380D01*
X131643095Y-93162380D01*
X131547857Y-93114761D01*
X131500238Y-93067142D01*
%TO.C,U22*%
X111673095Y-92162380D02*
X112339761Y-92162380D01*
X111911190Y-93162380D01*
X113149285Y-92495714D02*
X113149285Y-93162380D01*
X112911190Y-92114761D02*
X112673095Y-92829047D01*
X113292142Y-92829047D01*
X113673095Y-93162380D02*
X113673095Y-92162380D01*
X113673095Y-92638571D02*
X114244523Y-92638571D01*
X114244523Y-93162380D02*
X114244523Y-92162380D01*
X115292142Y-93067142D02*
X115244523Y-93114761D01*
X115101666Y-93162380D01*
X115006428Y-93162380D01*
X114863571Y-93114761D01*
X114768333Y-93019523D01*
X114720714Y-92924285D01*
X114673095Y-92733809D01*
X114673095Y-92590952D01*
X114720714Y-92400476D01*
X114768333Y-92305238D01*
X114863571Y-92210000D01*
X115006428Y-92162380D01*
X115101666Y-92162380D01*
X115244523Y-92210000D01*
X115292142Y-92257619D01*
X115673095Y-92257619D02*
X115720714Y-92210000D01*
X115815952Y-92162380D01*
X116054047Y-92162380D01*
X116149285Y-92210000D01*
X116196904Y-92257619D01*
X116244523Y-92352857D01*
X116244523Y-92448095D01*
X116196904Y-92590952D01*
X115625476Y-93162380D01*
X116244523Y-93162380D01*
X116815952Y-92590952D02*
X116720714Y-92543333D01*
X116673095Y-92495714D01*
X116625476Y-92400476D01*
X116625476Y-92352857D01*
X116673095Y-92257619D01*
X116720714Y-92210000D01*
X116815952Y-92162380D01*
X117006428Y-92162380D01*
X117101666Y-92210000D01*
X117149285Y-92257619D01*
X117196904Y-92352857D01*
X117196904Y-92400476D01*
X117149285Y-92495714D01*
X117101666Y-92543333D01*
X117006428Y-92590952D01*
X116815952Y-92590952D01*
X116720714Y-92638571D01*
X116673095Y-92686190D01*
X116625476Y-92781428D01*
X116625476Y-92971904D01*
X116673095Y-93067142D01*
X116720714Y-93114761D01*
X116815952Y-93162380D01*
X117006428Y-93162380D01*
X117101666Y-93114761D01*
X117149285Y-93067142D01*
X117196904Y-92971904D01*
X117196904Y-92781428D01*
X117149285Y-92686190D01*
X117101666Y-92638571D01*
X117006428Y-92590952D01*
X117530238Y-92162380D02*
X118149285Y-92162380D01*
X117815952Y-92543333D01*
X117958809Y-92543333D01*
X118054047Y-92590952D01*
X118101666Y-92638571D01*
X118149285Y-92733809D01*
X118149285Y-92971904D01*
X118101666Y-93067142D01*
X118054047Y-93114761D01*
X117958809Y-93162380D01*
X117673095Y-93162380D01*
X117577857Y-93114761D01*
X117530238Y-93067142D01*
%TO.C,U21*%
X149773095Y-60412380D02*
X150439761Y-60412380D01*
X150011190Y-61412380D01*
X151249285Y-60745714D02*
X151249285Y-61412380D01*
X151011190Y-60364761D02*
X150773095Y-61079047D01*
X151392142Y-61079047D01*
X151773095Y-61412380D02*
X151773095Y-60412380D01*
X151773095Y-60888571D02*
X152344523Y-60888571D01*
X152344523Y-61412380D02*
X152344523Y-60412380D01*
X153392142Y-61317142D02*
X153344523Y-61364761D01*
X153201666Y-61412380D01*
X153106428Y-61412380D01*
X152963571Y-61364761D01*
X152868333Y-61269523D01*
X152820714Y-61174285D01*
X152773095Y-60983809D01*
X152773095Y-60840952D01*
X152820714Y-60650476D01*
X152868333Y-60555238D01*
X152963571Y-60460000D01*
X153106428Y-60412380D01*
X153201666Y-60412380D01*
X153344523Y-60460000D01*
X153392142Y-60507619D01*
X153773095Y-60507619D02*
X153820714Y-60460000D01*
X153915952Y-60412380D01*
X154154047Y-60412380D01*
X154249285Y-60460000D01*
X154296904Y-60507619D01*
X154344523Y-60602857D01*
X154344523Y-60698095D01*
X154296904Y-60840952D01*
X153725476Y-61412380D01*
X154344523Y-61412380D01*
X154915952Y-60840952D02*
X154820714Y-60793333D01*
X154773095Y-60745714D01*
X154725476Y-60650476D01*
X154725476Y-60602857D01*
X154773095Y-60507619D01*
X154820714Y-60460000D01*
X154915952Y-60412380D01*
X155106428Y-60412380D01*
X155201666Y-60460000D01*
X155249285Y-60507619D01*
X155296904Y-60602857D01*
X155296904Y-60650476D01*
X155249285Y-60745714D01*
X155201666Y-60793333D01*
X155106428Y-60840952D01*
X154915952Y-60840952D01*
X154820714Y-60888571D01*
X154773095Y-60936190D01*
X154725476Y-61031428D01*
X154725476Y-61221904D01*
X154773095Y-61317142D01*
X154820714Y-61364761D01*
X154915952Y-61412380D01*
X155106428Y-61412380D01*
X155201666Y-61364761D01*
X155249285Y-61317142D01*
X155296904Y-61221904D01*
X155296904Y-61031428D01*
X155249285Y-60936190D01*
X155201666Y-60888571D01*
X155106428Y-60840952D01*
X155630238Y-60412380D02*
X156249285Y-60412380D01*
X155915952Y-60793333D01*
X156058809Y-60793333D01*
X156154047Y-60840952D01*
X156201666Y-60888571D01*
X156249285Y-60983809D01*
X156249285Y-61221904D01*
X156201666Y-61317142D01*
X156154047Y-61364761D01*
X156058809Y-61412380D01*
X155773095Y-61412380D01*
X155677857Y-61364761D01*
X155630238Y-61317142D01*
%TO.C,U20*%
X163743095Y-60412380D02*
X164409761Y-60412380D01*
X163981190Y-61412380D01*
X165219285Y-60745714D02*
X165219285Y-61412380D01*
X164981190Y-60364761D02*
X164743095Y-61079047D01*
X165362142Y-61079047D01*
X165743095Y-61412380D02*
X165743095Y-60412380D01*
X165743095Y-60888571D02*
X166314523Y-60888571D01*
X166314523Y-61412380D02*
X166314523Y-60412380D01*
X167362142Y-61317142D02*
X167314523Y-61364761D01*
X167171666Y-61412380D01*
X167076428Y-61412380D01*
X166933571Y-61364761D01*
X166838333Y-61269523D01*
X166790714Y-61174285D01*
X166743095Y-60983809D01*
X166743095Y-60840952D01*
X166790714Y-60650476D01*
X166838333Y-60555238D01*
X166933571Y-60460000D01*
X167076428Y-60412380D01*
X167171666Y-60412380D01*
X167314523Y-60460000D01*
X167362142Y-60507619D01*
X167743095Y-60507619D02*
X167790714Y-60460000D01*
X167885952Y-60412380D01*
X168124047Y-60412380D01*
X168219285Y-60460000D01*
X168266904Y-60507619D01*
X168314523Y-60602857D01*
X168314523Y-60698095D01*
X168266904Y-60840952D01*
X167695476Y-61412380D01*
X168314523Y-61412380D01*
X168885952Y-60840952D02*
X168790714Y-60793333D01*
X168743095Y-60745714D01*
X168695476Y-60650476D01*
X168695476Y-60602857D01*
X168743095Y-60507619D01*
X168790714Y-60460000D01*
X168885952Y-60412380D01*
X169076428Y-60412380D01*
X169171666Y-60460000D01*
X169219285Y-60507619D01*
X169266904Y-60602857D01*
X169266904Y-60650476D01*
X169219285Y-60745714D01*
X169171666Y-60793333D01*
X169076428Y-60840952D01*
X168885952Y-60840952D01*
X168790714Y-60888571D01*
X168743095Y-60936190D01*
X168695476Y-61031428D01*
X168695476Y-61221904D01*
X168743095Y-61317142D01*
X168790714Y-61364761D01*
X168885952Y-61412380D01*
X169076428Y-61412380D01*
X169171666Y-61364761D01*
X169219285Y-61317142D01*
X169266904Y-61221904D01*
X169266904Y-61031428D01*
X169219285Y-60936190D01*
X169171666Y-60888571D01*
X169076428Y-60840952D01*
X169600238Y-60412380D02*
X170219285Y-60412380D01*
X169885952Y-60793333D01*
X170028809Y-60793333D01*
X170124047Y-60840952D01*
X170171666Y-60888571D01*
X170219285Y-60983809D01*
X170219285Y-61221904D01*
X170171666Y-61317142D01*
X170124047Y-61364761D01*
X170028809Y-61412380D01*
X169743095Y-61412380D01*
X169647857Y-61364761D01*
X169600238Y-61317142D01*
%TO.C,U19*%
X125643095Y-60412380D02*
X126309761Y-60412380D01*
X125881190Y-61412380D01*
X127119285Y-60745714D02*
X127119285Y-61412380D01*
X126881190Y-60364761D02*
X126643095Y-61079047D01*
X127262142Y-61079047D01*
X127643095Y-61412380D02*
X127643095Y-60412380D01*
X127643095Y-60888571D02*
X128214523Y-60888571D01*
X128214523Y-61412380D02*
X128214523Y-60412380D01*
X129262142Y-61317142D02*
X129214523Y-61364761D01*
X129071666Y-61412380D01*
X128976428Y-61412380D01*
X128833571Y-61364761D01*
X128738333Y-61269523D01*
X128690714Y-61174285D01*
X128643095Y-60983809D01*
X128643095Y-60840952D01*
X128690714Y-60650476D01*
X128738333Y-60555238D01*
X128833571Y-60460000D01*
X128976428Y-60412380D01*
X129071666Y-60412380D01*
X129214523Y-60460000D01*
X129262142Y-60507619D01*
X130166904Y-60412380D02*
X129690714Y-60412380D01*
X129643095Y-60888571D01*
X129690714Y-60840952D01*
X129785952Y-60793333D01*
X130024047Y-60793333D01*
X130119285Y-60840952D01*
X130166904Y-60888571D01*
X130214523Y-60983809D01*
X130214523Y-61221904D01*
X130166904Y-61317142D01*
X130119285Y-61364761D01*
X130024047Y-61412380D01*
X129785952Y-61412380D01*
X129690714Y-61364761D01*
X129643095Y-61317142D01*
X130547857Y-60412380D02*
X131214523Y-60412380D01*
X130785952Y-61412380D01*
X131500238Y-60412380D02*
X132119285Y-60412380D01*
X131785952Y-60793333D01*
X131928809Y-60793333D01*
X132024047Y-60840952D01*
X132071666Y-60888571D01*
X132119285Y-60983809D01*
X132119285Y-61221904D01*
X132071666Y-61317142D01*
X132024047Y-61364761D01*
X131928809Y-61412380D01*
X131643095Y-61412380D01*
X131547857Y-61364761D01*
X131500238Y-61317142D01*
%TO.C,U18*%
X149773095Y-87082380D02*
X150439761Y-87082380D01*
X150011190Y-88082380D01*
X151249285Y-87415714D02*
X151249285Y-88082380D01*
X151011190Y-87034761D02*
X150773095Y-87749047D01*
X151392142Y-87749047D01*
X151773095Y-88082380D02*
X151773095Y-87082380D01*
X151773095Y-87558571D02*
X152344523Y-87558571D01*
X152344523Y-88082380D02*
X152344523Y-87082380D01*
X153392142Y-87987142D02*
X153344523Y-88034761D01*
X153201666Y-88082380D01*
X153106428Y-88082380D01*
X152963571Y-88034761D01*
X152868333Y-87939523D01*
X152820714Y-87844285D01*
X152773095Y-87653809D01*
X152773095Y-87510952D01*
X152820714Y-87320476D01*
X152868333Y-87225238D01*
X152963571Y-87130000D01*
X153106428Y-87082380D01*
X153201666Y-87082380D01*
X153344523Y-87130000D01*
X153392142Y-87177619D01*
X153773095Y-87177619D02*
X153820714Y-87130000D01*
X153915952Y-87082380D01*
X154154047Y-87082380D01*
X154249285Y-87130000D01*
X154296904Y-87177619D01*
X154344523Y-87272857D01*
X154344523Y-87368095D01*
X154296904Y-87510952D01*
X153725476Y-88082380D01*
X154344523Y-88082380D01*
X154677857Y-87082380D02*
X155344523Y-87082380D01*
X154915952Y-88082380D01*
X155630238Y-87082380D02*
X156249285Y-87082380D01*
X155915952Y-87463333D01*
X156058809Y-87463333D01*
X156154047Y-87510952D01*
X156201666Y-87558571D01*
X156249285Y-87653809D01*
X156249285Y-87891904D01*
X156201666Y-87987142D01*
X156154047Y-88034761D01*
X156058809Y-88082380D01*
X155773095Y-88082380D01*
X155677857Y-88034761D01*
X155630238Y-87987142D01*
%TO.C,U17*%
X163743095Y-87082380D02*
X164409761Y-87082380D01*
X163981190Y-88082380D01*
X165219285Y-87415714D02*
X165219285Y-88082380D01*
X164981190Y-87034761D02*
X164743095Y-87749047D01*
X165362142Y-87749047D01*
X165743095Y-88082380D02*
X165743095Y-87082380D01*
X165743095Y-87558571D02*
X166314523Y-87558571D01*
X166314523Y-88082380D02*
X166314523Y-87082380D01*
X167362142Y-87987142D02*
X167314523Y-88034761D01*
X167171666Y-88082380D01*
X167076428Y-88082380D01*
X166933571Y-88034761D01*
X166838333Y-87939523D01*
X166790714Y-87844285D01*
X166743095Y-87653809D01*
X166743095Y-87510952D01*
X166790714Y-87320476D01*
X166838333Y-87225238D01*
X166933571Y-87130000D01*
X167076428Y-87082380D01*
X167171666Y-87082380D01*
X167314523Y-87130000D01*
X167362142Y-87177619D01*
X167743095Y-87177619D02*
X167790714Y-87130000D01*
X167885952Y-87082380D01*
X168124047Y-87082380D01*
X168219285Y-87130000D01*
X168266904Y-87177619D01*
X168314523Y-87272857D01*
X168314523Y-87368095D01*
X168266904Y-87510952D01*
X167695476Y-88082380D01*
X168314523Y-88082380D01*
X168647857Y-87082380D02*
X169314523Y-87082380D01*
X168885952Y-88082380D01*
X169600238Y-87082380D02*
X170219285Y-87082380D01*
X169885952Y-87463333D01*
X170028809Y-87463333D01*
X170124047Y-87510952D01*
X170171666Y-87558571D01*
X170219285Y-87653809D01*
X170219285Y-87891904D01*
X170171666Y-87987142D01*
X170124047Y-88034761D01*
X170028809Y-88082380D01*
X169743095Y-88082380D01*
X169647857Y-88034761D01*
X169600238Y-87987142D01*
%TO.C,U16*%
X97703095Y-60412380D02*
X98369761Y-60412380D01*
X97941190Y-61412380D01*
X99179285Y-60745714D02*
X99179285Y-61412380D01*
X98941190Y-60364761D02*
X98703095Y-61079047D01*
X99322142Y-61079047D01*
X99703095Y-61412380D02*
X99703095Y-60412380D01*
X99703095Y-60888571D02*
X100274523Y-60888571D01*
X100274523Y-61412380D02*
X100274523Y-60412380D01*
X101322142Y-61317142D02*
X101274523Y-61364761D01*
X101131666Y-61412380D01*
X101036428Y-61412380D01*
X100893571Y-61364761D01*
X100798333Y-61269523D01*
X100750714Y-61174285D01*
X100703095Y-60983809D01*
X100703095Y-60840952D01*
X100750714Y-60650476D01*
X100798333Y-60555238D01*
X100893571Y-60460000D01*
X101036428Y-60412380D01*
X101131666Y-60412380D01*
X101274523Y-60460000D01*
X101322142Y-60507619D01*
X102226904Y-60412380D02*
X101750714Y-60412380D01*
X101703095Y-60888571D01*
X101750714Y-60840952D01*
X101845952Y-60793333D01*
X102084047Y-60793333D01*
X102179285Y-60840952D01*
X102226904Y-60888571D01*
X102274523Y-60983809D01*
X102274523Y-61221904D01*
X102226904Y-61317142D01*
X102179285Y-61364761D01*
X102084047Y-61412380D01*
X101845952Y-61412380D01*
X101750714Y-61364761D01*
X101703095Y-61317142D01*
X102607857Y-60412380D02*
X103274523Y-60412380D01*
X102845952Y-61412380D01*
X103560238Y-60412380D02*
X104179285Y-60412380D01*
X103845952Y-60793333D01*
X103988809Y-60793333D01*
X104084047Y-60840952D01*
X104131666Y-60888571D01*
X104179285Y-60983809D01*
X104179285Y-61221904D01*
X104131666Y-61317142D01*
X104084047Y-61364761D01*
X103988809Y-61412380D01*
X103703095Y-61412380D01*
X103607857Y-61364761D01*
X103560238Y-61317142D01*
%TO.C,U15*%
X111673095Y-60412380D02*
X112339761Y-60412380D01*
X111911190Y-61412380D01*
X113149285Y-60745714D02*
X113149285Y-61412380D01*
X112911190Y-60364761D02*
X112673095Y-61079047D01*
X113292142Y-61079047D01*
X113673095Y-61412380D02*
X113673095Y-60412380D01*
X113673095Y-60888571D02*
X114244523Y-60888571D01*
X114244523Y-61412380D02*
X114244523Y-60412380D01*
X115292142Y-61317142D02*
X115244523Y-61364761D01*
X115101666Y-61412380D01*
X115006428Y-61412380D01*
X114863571Y-61364761D01*
X114768333Y-61269523D01*
X114720714Y-61174285D01*
X114673095Y-60983809D01*
X114673095Y-60840952D01*
X114720714Y-60650476D01*
X114768333Y-60555238D01*
X114863571Y-60460000D01*
X115006428Y-60412380D01*
X115101666Y-60412380D01*
X115244523Y-60460000D01*
X115292142Y-60507619D01*
X116196904Y-60412380D02*
X115720714Y-60412380D01*
X115673095Y-60888571D01*
X115720714Y-60840952D01*
X115815952Y-60793333D01*
X116054047Y-60793333D01*
X116149285Y-60840952D01*
X116196904Y-60888571D01*
X116244523Y-60983809D01*
X116244523Y-61221904D01*
X116196904Y-61317142D01*
X116149285Y-61364761D01*
X116054047Y-61412380D01*
X115815952Y-61412380D01*
X115720714Y-61364761D01*
X115673095Y-61317142D01*
X116577857Y-60412380D02*
X117244523Y-60412380D01*
X116815952Y-61412380D01*
X117530238Y-60412380D02*
X118149285Y-60412380D01*
X117815952Y-60793333D01*
X117958809Y-60793333D01*
X118054047Y-60840952D01*
X118101666Y-60888571D01*
X118149285Y-60983809D01*
X118149285Y-61221904D01*
X118101666Y-61317142D01*
X118054047Y-61364761D01*
X117958809Y-61412380D01*
X117673095Y-61412380D01*
X117577857Y-61364761D01*
X117530238Y-61317142D01*
%TO.C,U14*%
X55793095Y-92162380D02*
X56459761Y-92162380D01*
X56031190Y-93162380D01*
X57269285Y-92495714D02*
X57269285Y-93162380D01*
X57031190Y-92114761D02*
X56793095Y-92829047D01*
X57412142Y-92829047D01*
X57793095Y-93162380D02*
X57793095Y-92162380D01*
X57793095Y-92638571D02*
X58364523Y-92638571D01*
X58364523Y-93162380D02*
X58364523Y-92162380D01*
X59412142Y-93067142D02*
X59364523Y-93114761D01*
X59221666Y-93162380D01*
X59126428Y-93162380D01*
X58983571Y-93114761D01*
X58888333Y-93019523D01*
X58840714Y-92924285D01*
X58793095Y-92733809D01*
X58793095Y-92590952D01*
X58840714Y-92400476D01*
X58888333Y-92305238D01*
X58983571Y-92210000D01*
X59126428Y-92162380D01*
X59221666Y-92162380D01*
X59364523Y-92210000D01*
X59412142Y-92257619D01*
X59793095Y-92257619D02*
X59840714Y-92210000D01*
X59935952Y-92162380D01*
X60174047Y-92162380D01*
X60269285Y-92210000D01*
X60316904Y-92257619D01*
X60364523Y-92352857D01*
X60364523Y-92448095D01*
X60316904Y-92590952D01*
X59745476Y-93162380D01*
X60364523Y-93162380D01*
X60935952Y-92590952D02*
X60840714Y-92543333D01*
X60793095Y-92495714D01*
X60745476Y-92400476D01*
X60745476Y-92352857D01*
X60793095Y-92257619D01*
X60840714Y-92210000D01*
X60935952Y-92162380D01*
X61126428Y-92162380D01*
X61221666Y-92210000D01*
X61269285Y-92257619D01*
X61316904Y-92352857D01*
X61316904Y-92400476D01*
X61269285Y-92495714D01*
X61221666Y-92543333D01*
X61126428Y-92590952D01*
X60935952Y-92590952D01*
X60840714Y-92638571D01*
X60793095Y-92686190D01*
X60745476Y-92781428D01*
X60745476Y-92971904D01*
X60793095Y-93067142D01*
X60840714Y-93114761D01*
X60935952Y-93162380D01*
X61126428Y-93162380D01*
X61221666Y-93114761D01*
X61269285Y-93067142D01*
X61316904Y-92971904D01*
X61316904Y-92781428D01*
X61269285Y-92686190D01*
X61221666Y-92638571D01*
X61126428Y-92590952D01*
X61650238Y-92162380D02*
X62269285Y-92162380D01*
X61935952Y-92543333D01*
X62078809Y-92543333D01*
X62174047Y-92590952D01*
X62221666Y-92638571D01*
X62269285Y-92733809D01*
X62269285Y-92971904D01*
X62221666Y-93067142D01*
X62174047Y-93114761D01*
X62078809Y-93162380D01*
X61793095Y-93162380D01*
X61697857Y-93114761D01*
X61650238Y-93067142D01*
%TO.C,U13*%
X69763095Y-92162380D02*
X70429761Y-92162380D01*
X70001190Y-93162380D01*
X71239285Y-92495714D02*
X71239285Y-93162380D01*
X71001190Y-92114761D02*
X70763095Y-92829047D01*
X71382142Y-92829047D01*
X71763095Y-93162380D02*
X71763095Y-92162380D01*
X71763095Y-92638571D02*
X72334523Y-92638571D01*
X72334523Y-93162380D02*
X72334523Y-92162380D01*
X73382142Y-93067142D02*
X73334523Y-93114761D01*
X73191666Y-93162380D01*
X73096428Y-93162380D01*
X72953571Y-93114761D01*
X72858333Y-93019523D01*
X72810714Y-92924285D01*
X72763095Y-92733809D01*
X72763095Y-92590952D01*
X72810714Y-92400476D01*
X72858333Y-92305238D01*
X72953571Y-92210000D01*
X73096428Y-92162380D01*
X73191666Y-92162380D01*
X73334523Y-92210000D01*
X73382142Y-92257619D01*
X73763095Y-92257619D02*
X73810714Y-92210000D01*
X73905952Y-92162380D01*
X74144047Y-92162380D01*
X74239285Y-92210000D01*
X74286904Y-92257619D01*
X74334523Y-92352857D01*
X74334523Y-92448095D01*
X74286904Y-92590952D01*
X73715476Y-93162380D01*
X74334523Y-93162380D01*
X74905952Y-92590952D02*
X74810714Y-92543333D01*
X74763095Y-92495714D01*
X74715476Y-92400476D01*
X74715476Y-92352857D01*
X74763095Y-92257619D01*
X74810714Y-92210000D01*
X74905952Y-92162380D01*
X75096428Y-92162380D01*
X75191666Y-92210000D01*
X75239285Y-92257619D01*
X75286904Y-92352857D01*
X75286904Y-92400476D01*
X75239285Y-92495714D01*
X75191666Y-92543333D01*
X75096428Y-92590952D01*
X74905952Y-92590952D01*
X74810714Y-92638571D01*
X74763095Y-92686190D01*
X74715476Y-92781428D01*
X74715476Y-92971904D01*
X74763095Y-93067142D01*
X74810714Y-93114761D01*
X74905952Y-93162380D01*
X75096428Y-93162380D01*
X75191666Y-93114761D01*
X75239285Y-93067142D01*
X75286904Y-92971904D01*
X75286904Y-92781428D01*
X75239285Y-92686190D01*
X75191666Y-92638571D01*
X75096428Y-92590952D01*
X75620238Y-92162380D02*
X76239285Y-92162380D01*
X75905952Y-92543333D01*
X76048809Y-92543333D01*
X76144047Y-92590952D01*
X76191666Y-92638571D01*
X76239285Y-92733809D01*
X76239285Y-92971904D01*
X76191666Y-93067142D01*
X76144047Y-93114761D01*
X76048809Y-93162380D01*
X75763095Y-93162380D01*
X75667857Y-93114761D01*
X75620238Y-93067142D01*
%TO.C,U12*%
X31663095Y-60412380D02*
X32329761Y-60412380D01*
X31901190Y-61412380D01*
X33139285Y-60745714D02*
X33139285Y-61412380D01*
X32901190Y-60364761D02*
X32663095Y-61079047D01*
X33282142Y-61079047D01*
X33663095Y-61412380D02*
X33663095Y-60412380D01*
X33663095Y-60888571D02*
X34234523Y-60888571D01*
X34234523Y-61412380D02*
X34234523Y-60412380D01*
X35282142Y-61317142D02*
X35234523Y-61364761D01*
X35091666Y-61412380D01*
X34996428Y-61412380D01*
X34853571Y-61364761D01*
X34758333Y-61269523D01*
X34710714Y-61174285D01*
X34663095Y-60983809D01*
X34663095Y-60840952D01*
X34710714Y-60650476D01*
X34758333Y-60555238D01*
X34853571Y-60460000D01*
X34996428Y-60412380D01*
X35091666Y-60412380D01*
X35234523Y-60460000D01*
X35282142Y-60507619D01*
X35663095Y-60507619D02*
X35710714Y-60460000D01*
X35805952Y-60412380D01*
X36044047Y-60412380D01*
X36139285Y-60460000D01*
X36186904Y-60507619D01*
X36234523Y-60602857D01*
X36234523Y-60698095D01*
X36186904Y-60840952D01*
X35615476Y-61412380D01*
X36234523Y-61412380D01*
X36805952Y-60840952D02*
X36710714Y-60793333D01*
X36663095Y-60745714D01*
X36615476Y-60650476D01*
X36615476Y-60602857D01*
X36663095Y-60507619D01*
X36710714Y-60460000D01*
X36805952Y-60412380D01*
X36996428Y-60412380D01*
X37091666Y-60460000D01*
X37139285Y-60507619D01*
X37186904Y-60602857D01*
X37186904Y-60650476D01*
X37139285Y-60745714D01*
X37091666Y-60793333D01*
X36996428Y-60840952D01*
X36805952Y-60840952D01*
X36710714Y-60888571D01*
X36663095Y-60936190D01*
X36615476Y-61031428D01*
X36615476Y-61221904D01*
X36663095Y-61317142D01*
X36710714Y-61364761D01*
X36805952Y-61412380D01*
X36996428Y-61412380D01*
X37091666Y-61364761D01*
X37139285Y-61317142D01*
X37186904Y-61221904D01*
X37186904Y-61031428D01*
X37139285Y-60936190D01*
X37091666Y-60888571D01*
X36996428Y-60840952D01*
X37520238Y-60412380D02*
X38139285Y-60412380D01*
X37805952Y-60793333D01*
X37948809Y-60793333D01*
X38044047Y-60840952D01*
X38091666Y-60888571D01*
X38139285Y-60983809D01*
X38139285Y-61221904D01*
X38091666Y-61317142D01*
X38044047Y-61364761D01*
X37948809Y-61412380D01*
X37663095Y-61412380D01*
X37567857Y-61364761D01*
X37520238Y-61317142D01*
%TO.C,U11*%
X17693095Y-60412380D02*
X18359761Y-60412380D01*
X17931190Y-61412380D01*
X19169285Y-60745714D02*
X19169285Y-61412380D01*
X18931190Y-60364761D02*
X18693095Y-61079047D01*
X19312142Y-61079047D01*
X19693095Y-61412380D02*
X19693095Y-60412380D01*
X19693095Y-60888571D02*
X20264523Y-60888571D01*
X20264523Y-61412380D02*
X20264523Y-60412380D01*
X21312142Y-61317142D02*
X21264523Y-61364761D01*
X21121666Y-61412380D01*
X21026428Y-61412380D01*
X20883571Y-61364761D01*
X20788333Y-61269523D01*
X20740714Y-61174285D01*
X20693095Y-60983809D01*
X20693095Y-60840952D01*
X20740714Y-60650476D01*
X20788333Y-60555238D01*
X20883571Y-60460000D01*
X21026428Y-60412380D01*
X21121666Y-60412380D01*
X21264523Y-60460000D01*
X21312142Y-60507619D01*
X21693095Y-60507619D02*
X21740714Y-60460000D01*
X21835952Y-60412380D01*
X22074047Y-60412380D01*
X22169285Y-60460000D01*
X22216904Y-60507619D01*
X22264523Y-60602857D01*
X22264523Y-60698095D01*
X22216904Y-60840952D01*
X21645476Y-61412380D01*
X22264523Y-61412380D01*
X22835952Y-60840952D02*
X22740714Y-60793333D01*
X22693095Y-60745714D01*
X22645476Y-60650476D01*
X22645476Y-60602857D01*
X22693095Y-60507619D01*
X22740714Y-60460000D01*
X22835952Y-60412380D01*
X23026428Y-60412380D01*
X23121666Y-60460000D01*
X23169285Y-60507619D01*
X23216904Y-60602857D01*
X23216904Y-60650476D01*
X23169285Y-60745714D01*
X23121666Y-60793333D01*
X23026428Y-60840952D01*
X22835952Y-60840952D01*
X22740714Y-60888571D01*
X22693095Y-60936190D01*
X22645476Y-61031428D01*
X22645476Y-61221904D01*
X22693095Y-61317142D01*
X22740714Y-61364761D01*
X22835952Y-61412380D01*
X23026428Y-61412380D01*
X23121666Y-61364761D01*
X23169285Y-61317142D01*
X23216904Y-61221904D01*
X23216904Y-61031428D01*
X23169285Y-60936190D01*
X23121666Y-60888571D01*
X23026428Y-60840952D01*
X23550238Y-60412380D02*
X24169285Y-60412380D01*
X23835952Y-60793333D01*
X23978809Y-60793333D01*
X24074047Y-60840952D01*
X24121666Y-60888571D01*
X24169285Y-60983809D01*
X24169285Y-61221904D01*
X24121666Y-61317142D01*
X24074047Y-61364761D01*
X23978809Y-61412380D01*
X23693095Y-61412380D01*
X23597857Y-61364761D01*
X23550238Y-61317142D01*
%TO.C,U10*%
X55793095Y-60412380D02*
X56459761Y-60412380D01*
X56031190Y-61412380D01*
X57269285Y-60745714D02*
X57269285Y-61412380D01*
X57031190Y-60364761D02*
X56793095Y-61079047D01*
X57412142Y-61079047D01*
X57793095Y-61412380D02*
X57793095Y-60412380D01*
X57793095Y-60888571D02*
X58364523Y-60888571D01*
X58364523Y-61412380D02*
X58364523Y-60412380D01*
X59412142Y-61317142D02*
X59364523Y-61364761D01*
X59221666Y-61412380D01*
X59126428Y-61412380D01*
X58983571Y-61364761D01*
X58888333Y-61269523D01*
X58840714Y-61174285D01*
X58793095Y-60983809D01*
X58793095Y-60840952D01*
X58840714Y-60650476D01*
X58888333Y-60555238D01*
X58983571Y-60460000D01*
X59126428Y-60412380D01*
X59221666Y-60412380D01*
X59364523Y-60460000D01*
X59412142Y-60507619D01*
X60316904Y-60412380D02*
X59840714Y-60412380D01*
X59793095Y-60888571D01*
X59840714Y-60840952D01*
X59935952Y-60793333D01*
X60174047Y-60793333D01*
X60269285Y-60840952D01*
X60316904Y-60888571D01*
X60364523Y-60983809D01*
X60364523Y-61221904D01*
X60316904Y-61317142D01*
X60269285Y-61364761D01*
X60174047Y-61412380D01*
X59935952Y-61412380D01*
X59840714Y-61364761D01*
X59793095Y-61317142D01*
X60697857Y-60412380D02*
X61364523Y-60412380D01*
X60935952Y-61412380D01*
X61650238Y-60412380D02*
X62269285Y-60412380D01*
X61935952Y-60793333D01*
X62078809Y-60793333D01*
X62174047Y-60840952D01*
X62221666Y-60888571D01*
X62269285Y-60983809D01*
X62269285Y-61221904D01*
X62221666Y-61317142D01*
X62174047Y-61364761D01*
X62078809Y-61412380D01*
X61793095Y-61412380D01*
X61697857Y-61364761D01*
X61650238Y-61317142D01*
%TO.C,U9*%
X31663095Y-87082380D02*
X32329761Y-87082380D01*
X31901190Y-88082380D01*
X33139285Y-87415714D02*
X33139285Y-88082380D01*
X32901190Y-87034761D02*
X32663095Y-87749047D01*
X33282142Y-87749047D01*
X33663095Y-88082380D02*
X33663095Y-87082380D01*
X33663095Y-87558571D02*
X34234523Y-87558571D01*
X34234523Y-88082380D02*
X34234523Y-87082380D01*
X35282142Y-87987142D02*
X35234523Y-88034761D01*
X35091666Y-88082380D01*
X34996428Y-88082380D01*
X34853571Y-88034761D01*
X34758333Y-87939523D01*
X34710714Y-87844285D01*
X34663095Y-87653809D01*
X34663095Y-87510952D01*
X34710714Y-87320476D01*
X34758333Y-87225238D01*
X34853571Y-87130000D01*
X34996428Y-87082380D01*
X35091666Y-87082380D01*
X35234523Y-87130000D01*
X35282142Y-87177619D01*
X35663095Y-87177619D02*
X35710714Y-87130000D01*
X35805952Y-87082380D01*
X36044047Y-87082380D01*
X36139285Y-87130000D01*
X36186904Y-87177619D01*
X36234523Y-87272857D01*
X36234523Y-87368095D01*
X36186904Y-87510952D01*
X35615476Y-88082380D01*
X36234523Y-88082380D01*
X36567857Y-87082380D02*
X37234523Y-87082380D01*
X36805952Y-88082380D01*
X37520238Y-87082380D02*
X38139285Y-87082380D01*
X37805952Y-87463333D01*
X37948809Y-87463333D01*
X38044047Y-87510952D01*
X38091666Y-87558571D01*
X38139285Y-87653809D01*
X38139285Y-87891904D01*
X38091666Y-87987142D01*
X38044047Y-88034761D01*
X37948809Y-88082380D01*
X37663095Y-88082380D01*
X37567857Y-88034761D01*
X37520238Y-87987142D01*
%TO.C,U8*%
X17693095Y-87082380D02*
X18359761Y-87082380D01*
X17931190Y-88082380D01*
X19169285Y-87415714D02*
X19169285Y-88082380D01*
X18931190Y-87034761D02*
X18693095Y-87749047D01*
X19312142Y-87749047D01*
X19693095Y-88082380D02*
X19693095Y-87082380D01*
X19693095Y-87558571D02*
X20264523Y-87558571D01*
X20264523Y-88082380D02*
X20264523Y-87082380D01*
X21312142Y-87987142D02*
X21264523Y-88034761D01*
X21121666Y-88082380D01*
X21026428Y-88082380D01*
X20883571Y-88034761D01*
X20788333Y-87939523D01*
X20740714Y-87844285D01*
X20693095Y-87653809D01*
X20693095Y-87510952D01*
X20740714Y-87320476D01*
X20788333Y-87225238D01*
X20883571Y-87130000D01*
X21026428Y-87082380D01*
X21121666Y-87082380D01*
X21264523Y-87130000D01*
X21312142Y-87177619D01*
X21693095Y-87177619D02*
X21740714Y-87130000D01*
X21835952Y-87082380D01*
X22074047Y-87082380D01*
X22169285Y-87130000D01*
X22216904Y-87177619D01*
X22264523Y-87272857D01*
X22264523Y-87368095D01*
X22216904Y-87510952D01*
X21645476Y-88082380D01*
X22264523Y-88082380D01*
X22597857Y-87082380D02*
X23264523Y-87082380D01*
X22835952Y-88082380D01*
X23550238Y-87082380D02*
X24169285Y-87082380D01*
X23835952Y-87463333D01*
X23978809Y-87463333D01*
X24074047Y-87510952D01*
X24121666Y-87558571D01*
X24169285Y-87653809D01*
X24169285Y-87891904D01*
X24121666Y-87987142D01*
X24074047Y-88034761D01*
X23978809Y-88082380D01*
X23693095Y-88082380D01*
X23597857Y-88034761D01*
X23550238Y-87987142D01*
%TO.C,U7*%
X83733095Y-60412380D02*
X84399761Y-60412380D01*
X83971190Y-61412380D01*
X85209285Y-60745714D02*
X85209285Y-61412380D01*
X84971190Y-60364761D02*
X84733095Y-61079047D01*
X85352142Y-61079047D01*
X85733095Y-61412380D02*
X85733095Y-60412380D01*
X85733095Y-60888571D02*
X86304523Y-60888571D01*
X86304523Y-61412380D02*
X86304523Y-60412380D01*
X87352142Y-61317142D02*
X87304523Y-61364761D01*
X87161666Y-61412380D01*
X87066428Y-61412380D01*
X86923571Y-61364761D01*
X86828333Y-61269523D01*
X86780714Y-61174285D01*
X86733095Y-60983809D01*
X86733095Y-60840952D01*
X86780714Y-60650476D01*
X86828333Y-60555238D01*
X86923571Y-60460000D01*
X87066428Y-60412380D01*
X87161666Y-60412380D01*
X87304523Y-60460000D01*
X87352142Y-60507619D01*
X88256904Y-60412380D02*
X87780714Y-60412380D01*
X87733095Y-60888571D01*
X87780714Y-60840952D01*
X87875952Y-60793333D01*
X88114047Y-60793333D01*
X88209285Y-60840952D01*
X88256904Y-60888571D01*
X88304523Y-60983809D01*
X88304523Y-61221904D01*
X88256904Y-61317142D01*
X88209285Y-61364761D01*
X88114047Y-61412380D01*
X87875952Y-61412380D01*
X87780714Y-61364761D01*
X87733095Y-61317142D01*
X88637857Y-60412380D02*
X89304523Y-60412380D01*
X88875952Y-61412380D01*
X89590238Y-60412380D02*
X90209285Y-60412380D01*
X89875952Y-60793333D01*
X90018809Y-60793333D01*
X90114047Y-60840952D01*
X90161666Y-60888571D01*
X90209285Y-60983809D01*
X90209285Y-61221904D01*
X90161666Y-61317142D01*
X90114047Y-61364761D01*
X90018809Y-61412380D01*
X89733095Y-61412380D01*
X89637857Y-61364761D01*
X89590238Y-61317142D01*
%TO.C,U6*%
X69763095Y-60412380D02*
X70429761Y-60412380D01*
X70001190Y-61412380D01*
X71239285Y-60745714D02*
X71239285Y-61412380D01*
X71001190Y-60364761D02*
X70763095Y-61079047D01*
X71382142Y-61079047D01*
X71763095Y-61412380D02*
X71763095Y-60412380D01*
X71763095Y-60888571D02*
X72334523Y-60888571D01*
X72334523Y-61412380D02*
X72334523Y-60412380D01*
X73382142Y-61317142D02*
X73334523Y-61364761D01*
X73191666Y-61412380D01*
X73096428Y-61412380D01*
X72953571Y-61364761D01*
X72858333Y-61269523D01*
X72810714Y-61174285D01*
X72763095Y-60983809D01*
X72763095Y-60840952D01*
X72810714Y-60650476D01*
X72858333Y-60555238D01*
X72953571Y-60460000D01*
X73096428Y-60412380D01*
X73191666Y-60412380D01*
X73334523Y-60460000D01*
X73382142Y-60507619D01*
X74286904Y-60412380D02*
X73810714Y-60412380D01*
X73763095Y-60888571D01*
X73810714Y-60840952D01*
X73905952Y-60793333D01*
X74144047Y-60793333D01*
X74239285Y-60840952D01*
X74286904Y-60888571D01*
X74334523Y-60983809D01*
X74334523Y-61221904D01*
X74286904Y-61317142D01*
X74239285Y-61364761D01*
X74144047Y-61412380D01*
X73905952Y-61412380D01*
X73810714Y-61364761D01*
X73763095Y-61317142D01*
X74667857Y-60412380D02*
X75334523Y-60412380D01*
X74905952Y-61412380D01*
X75620238Y-60412380D02*
X76239285Y-60412380D01*
X75905952Y-60793333D01*
X76048809Y-60793333D01*
X76144047Y-60840952D01*
X76191666Y-60888571D01*
X76239285Y-60983809D01*
X76239285Y-61221904D01*
X76191666Y-61317142D01*
X76144047Y-61364761D01*
X76048809Y-61412380D01*
X75763095Y-61412380D01*
X75667857Y-61364761D01*
X75620238Y-61317142D01*
%TO.C,U5*%
X177713095Y-60412380D02*
X178379761Y-60412380D01*
X177951190Y-61412380D01*
X179189285Y-60745714D02*
X179189285Y-61412380D01*
X178951190Y-60364761D02*
X178713095Y-61079047D01*
X179332142Y-61079047D01*
X179713095Y-61412380D02*
X179713095Y-60412380D01*
X179713095Y-60888571D02*
X180284523Y-60888571D01*
X180284523Y-61412380D02*
X180284523Y-60412380D01*
X181332142Y-61317142D02*
X181284523Y-61364761D01*
X181141666Y-61412380D01*
X181046428Y-61412380D01*
X180903571Y-61364761D01*
X180808333Y-61269523D01*
X180760714Y-61174285D01*
X180713095Y-60983809D01*
X180713095Y-60840952D01*
X180760714Y-60650476D01*
X180808333Y-60555238D01*
X180903571Y-60460000D01*
X181046428Y-60412380D01*
X181141666Y-60412380D01*
X181284523Y-60460000D01*
X181332142Y-60507619D01*
X182284523Y-61412380D02*
X181713095Y-61412380D01*
X181998809Y-61412380D02*
X181998809Y-60412380D01*
X181903571Y-60555238D01*
X181808333Y-60650476D01*
X181713095Y-60698095D01*
X183141666Y-60412380D02*
X182951190Y-60412380D01*
X182855952Y-60460000D01*
X182808333Y-60507619D01*
X182713095Y-60650476D01*
X182665476Y-60840952D01*
X182665476Y-61221904D01*
X182713095Y-61317142D01*
X182760714Y-61364761D01*
X182855952Y-61412380D01*
X183046428Y-61412380D01*
X183141666Y-61364761D01*
X183189285Y-61317142D01*
X183236904Y-61221904D01*
X183236904Y-60983809D01*
X183189285Y-60888571D01*
X183141666Y-60840952D01*
X183046428Y-60793333D01*
X182855952Y-60793333D01*
X182760714Y-60840952D01*
X182713095Y-60888571D01*
X182665476Y-60983809D01*
X183570238Y-60412380D02*
X184189285Y-60412380D01*
X183855952Y-60793333D01*
X183998809Y-60793333D01*
X184094047Y-60840952D01*
X184141666Y-60888571D01*
X184189285Y-60983809D01*
X184189285Y-61221904D01*
X184141666Y-61317142D01*
X184094047Y-61364761D01*
X183998809Y-61412380D01*
X183713095Y-61412380D01*
X183617857Y-61364761D01*
X183570238Y-61317142D01*
%TO.C,U4*%
X97703095Y-92162380D02*
X98369761Y-92162380D01*
X97941190Y-93162380D01*
X99179285Y-92495714D02*
X99179285Y-93162380D01*
X98941190Y-92114761D02*
X98703095Y-92829047D01*
X99322142Y-92829047D01*
X99703095Y-93162380D02*
X99703095Y-92162380D01*
X99703095Y-92638571D02*
X100274523Y-92638571D01*
X100274523Y-93162380D02*
X100274523Y-92162380D01*
X101322142Y-93067142D02*
X101274523Y-93114761D01*
X101131666Y-93162380D01*
X101036428Y-93162380D01*
X100893571Y-93114761D01*
X100798333Y-93019523D01*
X100750714Y-92924285D01*
X100703095Y-92733809D01*
X100703095Y-92590952D01*
X100750714Y-92400476D01*
X100798333Y-92305238D01*
X100893571Y-92210000D01*
X101036428Y-92162380D01*
X101131666Y-92162380D01*
X101274523Y-92210000D01*
X101322142Y-92257619D01*
X102226904Y-92162380D02*
X101750714Y-92162380D01*
X101703095Y-92638571D01*
X101750714Y-92590952D01*
X101845952Y-92543333D01*
X102084047Y-92543333D01*
X102179285Y-92590952D01*
X102226904Y-92638571D01*
X102274523Y-92733809D01*
X102274523Y-92971904D01*
X102226904Y-93067142D01*
X102179285Y-93114761D01*
X102084047Y-93162380D01*
X101845952Y-93162380D01*
X101750714Y-93114761D01*
X101703095Y-93067142D01*
X102607857Y-92162380D02*
X103274523Y-92162380D01*
X102845952Y-93162380D01*
X103560238Y-92162380D02*
X104179285Y-92162380D01*
X103845952Y-92543333D01*
X103988809Y-92543333D01*
X104084047Y-92590952D01*
X104131666Y-92638571D01*
X104179285Y-92733809D01*
X104179285Y-92971904D01*
X104131666Y-93067142D01*
X104084047Y-93114761D01*
X103988809Y-93162380D01*
X103703095Y-93162380D01*
X103607857Y-93114761D01*
X103560238Y-93067142D01*
%TO.C,U3*%
X3723095Y-87082380D02*
X4389761Y-87082380D01*
X3961190Y-88082380D01*
X5199285Y-87415714D02*
X5199285Y-88082380D01*
X4961190Y-87034761D02*
X4723095Y-87749047D01*
X5342142Y-87749047D01*
X5723095Y-88082380D02*
X5723095Y-87082380D01*
X5723095Y-87558571D02*
X6294523Y-87558571D01*
X6294523Y-88082380D02*
X6294523Y-87082380D01*
X7342142Y-87987142D02*
X7294523Y-88034761D01*
X7151666Y-88082380D01*
X7056428Y-88082380D01*
X6913571Y-88034761D01*
X6818333Y-87939523D01*
X6770714Y-87844285D01*
X6723095Y-87653809D01*
X6723095Y-87510952D01*
X6770714Y-87320476D01*
X6818333Y-87225238D01*
X6913571Y-87130000D01*
X7056428Y-87082380D01*
X7151666Y-87082380D01*
X7294523Y-87130000D01*
X7342142Y-87177619D01*
X8294523Y-88082380D02*
X7723095Y-88082380D01*
X8008809Y-88082380D02*
X8008809Y-87082380D01*
X7913571Y-87225238D01*
X7818333Y-87320476D01*
X7723095Y-87368095D01*
X8627857Y-87082380D02*
X9246904Y-87082380D01*
X8913571Y-87463333D01*
X9056428Y-87463333D01*
X9151666Y-87510952D01*
X9199285Y-87558571D01*
X9246904Y-87653809D01*
X9246904Y-87891904D01*
X9199285Y-87987142D01*
X9151666Y-88034761D01*
X9056428Y-88082380D01*
X8770714Y-88082380D01*
X8675476Y-88034761D01*
X8627857Y-87987142D01*
X9818333Y-87510952D02*
X9723095Y-87463333D01*
X9675476Y-87415714D01*
X9627857Y-87320476D01*
X9627857Y-87272857D01*
X9675476Y-87177619D01*
X9723095Y-87130000D01*
X9818333Y-87082380D01*
X10008809Y-87082380D01*
X10104047Y-87130000D01*
X10151666Y-87177619D01*
X10199285Y-87272857D01*
X10199285Y-87320476D01*
X10151666Y-87415714D01*
X10104047Y-87463333D01*
X10008809Y-87510952D01*
X9818333Y-87510952D01*
X9723095Y-87558571D01*
X9675476Y-87606190D01*
X9627857Y-87701428D01*
X9627857Y-87891904D01*
X9675476Y-87987142D01*
X9723095Y-88034761D01*
X9818333Y-88082380D01*
X10008809Y-88082380D01*
X10104047Y-88034761D01*
X10151666Y-87987142D01*
X10199285Y-87891904D01*
X10199285Y-87701428D01*
X10151666Y-87606190D01*
X10104047Y-87558571D01*
X10008809Y-87510952D01*
%TO.C,U2*%
X83780714Y-92162380D02*
X84447380Y-92162380D01*
X84018809Y-93162380D01*
X85256904Y-92495714D02*
X85256904Y-93162380D01*
X85018809Y-92114761D02*
X84780714Y-92829047D01*
X85399761Y-92829047D01*
X85733095Y-92876666D02*
X86209285Y-92876666D01*
X85637857Y-93162380D02*
X85971190Y-92162380D01*
X86304523Y-93162380D01*
X86637857Y-93162380D02*
X86637857Y-92162380D01*
X86637857Y-92638571D02*
X87209285Y-92638571D01*
X87209285Y-93162380D02*
X87209285Y-92162380D01*
X88256904Y-93067142D02*
X88209285Y-93114761D01*
X88066428Y-93162380D01*
X87971190Y-93162380D01*
X87828333Y-93114761D01*
X87733095Y-93019523D01*
X87685476Y-92924285D01*
X87637857Y-92733809D01*
X87637857Y-92590952D01*
X87685476Y-92400476D01*
X87733095Y-92305238D01*
X87828333Y-92210000D01*
X87971190Y-92162380D01*
X88066428Y-92162380D01*
X88209285Y-92210000D01*
X88256904Y-92257619D01*
X88875952Y-92162380D02*
X88971190Y-92162380D01*
X89066428Y-92210000D01*
X89114047Y-92257619D01*
X89161666Y-92352857D01*
X89209285Y-92543333D01*
X89209285Y-92781428D01*
X89161666Y-92971904D01*
X89114047Y-93067142D01*
X89066428Y-93114761D01*
X88971190Y-93162380D01*
X88875952Y-93162380D01*
X88780714Y-93114761D01*
X88733095Y-93067142D01*
X88685476Y-92971904D01*
X88637857Y-92781428D01*
X88637857Y-92543333D01*
X88685476Y-92352857D01*
X88733095Y-92257619D01*
X88780714Y-92210000D01*
X88875952Y-92162380D01*
X90066428Y-92495714D02*
X90066428Y-93162380D01*
X89828333Y-92114761D02*
X89590238Y-92829047D01*
X90209285Y-92829047D01*
%TO.C,U1*%
X3723095Y-60412380D02*
X4389761Y-60412380D01*
X3961190Y-61412380D01*
X5199285Y-60745714D02*
X5199285Y-61412380D01*
X4961190Y-60364761D02*
X4723095Y-61079047D01*
X5342142Y-61079047D01*
X5723095Y-61412380D02*
X5723095Y-60412380D01*
X5723095Y-60888571D02*
X6294523Y-60888571D01*
X6294523Y-61412380D02*
X6294523Y-60412380D01*
X7342142Y-61317142D02*
X7294523Y-61364761D01*
X7151666Y-61412380D01*
X7056428Y-61412380D01*
X6913571Y-61364761D01*
X6818333Y-61269523D01*
X6770714Y-61174285D01*
X6723095Y-60983809D01*
X6723095Y-60840952D01*
X6770714Y-60650476D01*
X6818333Y-60555238D01*
X6913571Y-60460000D01*
X7056428Y-60412380D01*
X7151666Y-60412380D01*
X7294523Y-60460000D01*
X7342142Y-60507619D01*
X8294523Y-61412380D02*
X7723095Y-61412380D01*
X8008809Y-61412380D02*
X8008809Y-60412380D01*
X7913571Y-60555238D01*
X7818333Y-60650476D01*
X7723095Y-60698095D01*
X8627857Y-60412380D02*
X9246904Y-60412380D01*
X8913571Y-60793333D01*
X9056428Y-60793333D01*
X9151666Y-60840952D01*
X9199285Y-60888571D01*
X9246904Y-60983809D01*
X9246904Y-61221904D01*
X9199285Y-61317142D01*
X9151666Y-61364761D01*
X9056428Y-61412380D01*
X8770714Y-61412380D01*
X8675476Y-61364761D01*
X8627857Y-61317142D01*
X9818333Y-60840952D02*
X9723095Y-60793333D01*
X9675476Y-60745714D01*
X9627857Y-60650476D01*
X9627857Y-60602857D01*
X9675476Y-60507619D01*
X9723095Y-60460000D01*
X9818333Y-60412380D01*
X10008809Y-60412380D01*
X10104047Y-60460000D01*
X10151666Y-60507619D01*
X10199285Y-60602857D01*
X10199285Y-60650476D01*
X10151666Y-60745714D01*
X10104047Y-60793333D01*
X10008809Y-60840952D01*
X9818333Y-60840952D01*
X9723095Y-60888571D01*
X9675476Y-60936190D01*
X9627857Y-61031428D01*
X9627857Y-61221904D01*
X9675476Y-61317142D01*
X9723095Y-61364761D01*
X9818333Y-61412380D01*
X10008809Y-61412380D01*
X10104047Y-61364761D01*
X10151666Y-61317142D01*
X10199285Y-61221904D01*
X10199285Y-61031428D01*
X10151666Y-60936190D01*
X10104047Y-60888571D01*
X10008809Y-60840952D01*
%TO.C,R19*%
X153709761Y-126817380D02*
X153138333Y-126817380D01*
X153424047Y-126817380D02*
X153424047Y-125817380D01*
X153328809Y-125960238D01*
X153233571Y-126055476D01*
X153138333Y-126103095D01*
X154328809Y-125817380D02*
X154424047Y-125817380D01*
X154519285Y-125865000D01*
X154566904Y-125912619D01*
X154614523Y-126007857D01*
X154662142Y-126198333D01*
X154662142Y-126436428D01*
X154614523Y-126626904D01*
X154566904Y-126722142D01*
X154519285Y-126769761D01*
X154424047Y-126817380D01*
X154328809Y-126817380D01*
X154233571Y-126769761D01*
X154185952Y-126722142D01*
X154138333Y-126626904D01*
X154090714Y-126436428D01*
X154090714Y-126198333D01*
X154138333Y-126007857D01*
X154185952Y-125912619D01*
X154233571Y-125865000D01*
X154328809Y-125817380D01*
X155090714Y-126817380D02*
X155090714Y-125817380D01*
X155185952Y-126436428D02*
X155471666Y-126817380D01*
X155471666Y-126150714D02*
X155090714Y-126531666D01*
%TO.C,R18*%
X153709761Y-121737380D02*
X153138333Y-121737380D01*
X153424047Y-121737380D02*
X153424047Y-120737380D01*
X153328809Y-120880238D01*
X153233571Y-120975476D01*
X153138333Y-121023095D01*
X154328809Y-120737380D02*
X154424047Y-120737380D01*
X154519285Y-120785000D01*
X154566904Y-120832619D01*
X154614523Y-120927857D01*
X154662142Y-121118333D01*
X154662142Y-121356428D01*
X154614523Y-121546904D01*
X154566904Y-121642142D01*
X154519285Y-121689761D01*
X154424047Y-121737380D01*
X154328809Y-121737380D01*
X154233571Y-121689761D01*
X154185952Y-121642142D01*
X154138333Y-121546904D01*
X154090714Y-121356428D01*
X154090714Y-121118333D01*
X154138333Y-120927857D01*
X154185952Y-120832619D01*
X154233571Y-120785000D01*
X154328809Y-120737380D01*
X155090714Y-121737380D02*
X155090714Y-120737380D01*
X155185952Y-121356428D02*
X155471666Y-121737380D01*
X155471666Y-121070714D02*
X155090714Y-121451666D01*
%TO.C,R17*%
X141009761Y-126817380D02*
X140438333Y-126817380D01*
X140724047Y-126817380D02*
X140724047Y-125817380D01*
X140628809Y-125960238D01*
X140533571Y-126055476D01*
X140438333Y-126103095D01*
X141628809Y-125817380D02*
X141724047Y-125817380D01*
X141819285Y-125865000D01*
X141866904Y-125912619D01*
X141914523Y-126007857D01*
X141962142Y-126198333D01*
X141962142Y-126436428D01*
X141914523Y-126626904D01*
X141866904Y-126722142D01*
X141819285Y-126769761D01*
X141724047Y-126817380D01*
X141628809Y-126817380D01*
X141533571Y-126769761D01*
X141485952Y-126722142D01*
X141438333Y-126626904D01*
X141390714Y-126436428D01*
X141390714Y-126198333D01*
X141438333Y-126007857D01*
X141485952Y-125912619D01*
X141533571Y-125865000D01*
X141628809Y-125817380D01*
X142390714Y-126817380D02*
X142390714Y-125817380D01*
X142485952Y-126436428D02*
X142771666Y-126817380D01*
X142771666Y-126150714D02*
X142390714Y-126531666D01*
%TO.C,R16*%
X141009761Y-121737380D02*
X140438333Y-121737380D01*
X140724047Y-121737380D02*
X140724047Y-120737380D01*
X140628809Y-120880238D01*
X140533571Y-120975476D01*
X140438333Y-121023095D01*
X141628809Y-120737380D02*
X141724047Y-120737380D01*
X141819285Y-120785000D01*
X141866904Y-120832619D01*
X141914523Y-120927857D01*
X141962142Y-121118333D01*
X141962142Y-121356428D01*
X141914523Y-121546904D01*
X141866904Y-121642142D01*
X141819285Y-121689761D01*
X141724047Y-121737380D01*
X141628809Y-121737380D01*
X141533571Y-121689761D01*
X141485952Y-121642142D01*
X141438333Y-121546904D01*
X141390714Y-121356428D01*
X141390714Y-121118333D01*
X141438333Y-120927857D01*
X141485952Y-120832619D01*
X141533571Y-120785000D01*
X141628809Y-120737380D01*
X142390714Y-121737380D02*
X142390714Y-120737380D01*
X142485952Y-121356428D02*
X142771666Y-121737380D01*
X142771666Y-121070714D02*
X142390714Y-121451666D01*
%TO.C,R15*%
X128309761Y-126817380D02*
X127738333Y-126817380D01*
X128024047Y-126817380D02*
X128024047Y-125817380D01*
X127928809Y-125960238D01*
X127833571Y-126055476D01*
X127738333Y-126103095D01*
X128928809Y-125817380D02*
X129024047Y-125817380D01*
X129119285Y-125865000D01*
X129166904Y-125912619D01*
X129214523Y-126007857D01*
X129262142Y-126198333D01*
X129262142Y-126436428D01*
X129214523Y-126626904D01*
X129166904Y-126722142D01*
X129119285Y-126769761D01*
X129024047Y-126817380D01*
X128928809Y-126817380D01*
X128833571Y-126769761D01*
X128785952Y-126722142D01*
X128738333Y-126626904D01*
X128690714Y-126436428D01*
X128690714Y-126198333D01*
X128738333Y-126007857D01*
X128785952Y-125912619D01*
X128833571Y-125865000D01*
X128928809Y-125817380D01*
X129690714Y-126817380D02*
X129690714Y-125817380D01*
X129785952Y-126436428D02*
X130071666Y-126817380D01*
X130071666Y-126150714D02*
X129690714Y-126531666D01*
%TO.C,R14*%
X128309761Y-121737380D02*
X127738333Y-121737380D01*
X128024047Y-121737380D02*
X128024047Y-120737380D01*
X127928809Y-120880238D01*
X127833571Y-120975476D01*
X127738333Y-121023095D01*
X128928809Y-120737380D02*
X129024047Y-120737380D01*
X129119285Y-120785000D01*
X129166904Y-120832619D01*
X129214523Y-120927857D01*
X129262142Y-121118333D01*
X129262142Y-121356428D01*
X129214523Y-121546904D01*
X129166904Y-121642142D01*
X129119285Y-121689761D01*
X129024047Y-121737380D01*
X128928809Y-121737380D01*
X128833571Y-121689761D01*
X128785952Y-121642142D01*
X128738333Y-121546904D01*
X128690714Y-121356428D01*
X128690714Y-121118333D01*
X128738333Y-120927857D01*
X128785952Y-120832619D01*
X128833571Y-120785000D01*
X128928809Y-120737380D01*
X129690714Y-121737380D02*
X129690714Y-120737380D01*
X129785952Y-121356428D02*
X130071666Y-121737380D01*
X130071666Y-121070714D02*
X129690714Y-121451666D01*
%TO.C,R13*%
X115609761Y-126817380D02*
X115038333Y-126817380D01*
X115324047Y-126817380D02*
X115324047Y-125817380D01*
X115228809Y-125960238D01*
X115133571Y-126055476D01*
X115038333Y-126103095D01*
X116228809Y-125817380D02*
X116324047Y-125817380D01*
X116419285Y-125865000D01*
X116466904Y-125912619D01*
X116514523Y-126007857D01*
X116562142Y-126198333D01*
X116562142Y-126436428D01*
X116514523Y-126626904D01*
X116466904Y-126722142D01*
X116419285Y-126769761D01*
X116324047Y-126817380D01*
X116228809Y-126817380D01*
X116133571Y-126769761D01*
X116085952Y-126722142D01*
X116038333Y-126626904D01*
X115990714Y-126436428D01*
X115990714Y-126198333D01*
X116038333Y-126007857D01*
X116085952Y-125912619D01*
X116133571Y-125865000D01*
X116228809Y-125817380D01*
X116990714Y-126817380D02*
X116990714Y-125817380D01*
X117085952Y-126436428D02*
X117371666Y-126817380D01*
X117371666Y-126150714D02*
X116990714Y-126531666D01*
%TO.C,R12*%
X115609761Y-121737380D02*
X115038333Y-121737380D01*
X115324047Y-121737380D02*
X115324047Y-120737380D01*
X115228809Y-120880238D01*
X115133571Y-120975476D01*
X115038333Y-121023095D01*
X116228809Y-120737380D02*
X116324047Y-120737380D01*
X116419285Y-120785000D01*
X116466904Y-120832619D01*
X116514523Y-120927857D01*
X116562142Y-121118333D01*
X116562142Y-121356428D01*
X116514523Y-121546904D01*
X116466904Y-121642142D01*
X116419285Y-121689761D01*
X116324047Y-121737380D01*
X116228809Y-121737380D01*
X116133571Y-121689761D01*
X116085952Y-121642142D01*
X116038333Y-121546904D01*
X115990714Y-121356428D01*
X115990714Y-121118333D01*
X116038333Y-120927857D01*
X116085952Y-120832619D01*
X116133571Y-120785000D01*
X116228809Y-120737380D01*
X116990714Y-121737380D02*
X116990714Y-120737380D01*
X117085952Y-121356428D02*
X117371666Y-121737380D01*
X117371666Y-121070714D02*
X116990714Y-121451666D01*
%TO.C,R11*%
X59952142Y-125912619D02*
X59999761Y-125865000D01*
X60095000Y-125817380D01*
X60333095Y-125817380D01*
X60428333Y-125865000D01*
X60475952Y-125912619D01*
X60523571Y-126007857D01*
X60523571Y-126103095D01*
X60475952Y-126245952D01*
X59904523Y-126817380D01*
X60523571Y-126817380D01*
X60904523Y-125912619D02*
X60952142Y-125865000D01*
X61047380Y-125817380D01*
X61285476Y-125817380D01*
X61380714Y-125865000D01*
X61428333Y-125912619D01*
X61475952Y-126007857D01*
X61475952Y-126103095D01*
X61428333Y-126245952D01*
X60856904Y-126817380D01*
X61475952Y-126817380D01*
X62095000Y-125817380D02*
X62190238Y-125817380D01*
X62285476Y-125865000D01*
X62333095Y-125912619D01*
X62380714Y-126007857D01*
X62428333Y-126198333D01*
X62428333Y-126436428D01*
X62380714Y-126626904D01*
X62333095Y-126722142D01*
X62285476Y-126769761D01*
X62190238Y-126817380D01*
X62095000Y-126817380D01*
X61999761Y-126769761D01*
X61952142Y-126722142D01*
X61904523Y-126626904D01*
X61856904Y-126436428D01*
X61856904Y-126198333D01*
X61904523Y-126007857D01*
X61952142Y-125912619D01*
X61999761Y-125865000D01*
X62095000Y-125817380D01*
X62856904Y-126817380D02*
X62856904Y-125817380D01*
X62952142Y-126436428D02*
X63237857Y-126817380D01*
X63237857Y-126150714D02*
X62856904Y-126531666D01*
%TO.C,R10*%
X72652142Y-120832619D02*
X72699761Y-120785000D01*
X72795000Y-120737380D01*
X73033095Y-120737380D01*
X73128333Y-120785000D01*
X73175952Y-120832619D01*
X73223571Y-120927857D01*
X73223571Y-121023095D01*
X73175952Y-121165952D01*
X72604523Y-121737380D01*
X73223571Y-121737380D01*
X73604523Y-120832619D02*
X73652142Y-120785000D01*
X73747380Y-120737380D01*
X73985476Y-120737380D01*
X74080714Y-120785000D01*
X74128333Y-120832619D01*
X74175952Y-120927857D01*
X74175952Y-121023095D01*
X74128333Y-121165952D01*
X73556904Y-121737380D01*
X74175952Y-121737380D01*
X74795000Y-120737380D02*
X74890238Y-120737380D01*
X74985476Y-120785000D01*
X75033095Y-120832619D01*
X75080714Y-120927857D01*
X75128333Y-121118333D01*
X75128333Y-121356428D01*
X75080714Y-121546904D01*
X75033095Y-121642142D01*
X74985476Y-121689761D01*
X74890238Y-121737380D01*
X74795000Y-121737380D01*
X74699761Y-121689761D01*
X74652142Y-121642142D01*
X74604523Y-121546904D01*
X74556904Y-121356428D01*
X74556904Y-121118333D01*
X74604523Y-120927857D01*
X74652142Y-120832619D01*
X74699761Y-120785000D01*
X74795000Y-120737380D01*
X75556904Y-121737380D02*
X75556904Y-120737380D01*
X75652142Y-121356428D02*
X75937857Y-121737380D01*
X75937857Y-121070714D02*
X75556904Y-121451666D01*
%TO.C,R9*%
X60952142Y-120737380D02*
X60475952Y-120737380D01*
X60428333Y-121213571D01*
X60475952Y-121165952D01*
X60571190Y-121118333D01*
X60809285Y-121118333D01*
X60904523Y-121165952D01*
X60952142Y-121213571D01*
X60999761Y-121308809D01*
X60999761Y-121546904D01*
X60952142Y-121642142D01*
X60904523Y-121689761D01*
X60809285Y-121737380D01*
X60571190Y-121737380D01*
X60475952Y-121689761D01*
X60428333Y-121642142D01*
X61856904Y-120737380D02*
X61666428Y-120737380D01*
X61571190Y-120785000D01*
X61523571Y-120832619D01*
X61428333Y-120975476D01*
X61380714Y-121165952D01*
X61380714Y-121546904D01*
X61428333Y-121642142D01*
X61475952Y-121689761D01*
X61571190Y-121737380D01*
X61761666Y-121737380D01*
X61856904Y-121689761D01*
X61904523Y-121642142D01*
X61952142Y-121546904D01*
X61952142Y-121308809D01*
X61904523Y-121213571D01*
X61856904Y-121165952D01*
X61761666Y-121118333D01*
X61571190Y-121118333D01*
X61475952Y-121165952D01*
X61428333Y-121213571D01*
X61380714Y-121308809D01*
X62380714Y-121737380D02*
X62380714Y-120737380D01*
X62475952Y-121356428D02*
X62761666Y-121737380D01*
X62761666Y-121070714D02*
X62380714Y-121451666D01*
%TO.C,R8*%
X47252142Y-125912619D02*
X47299761Y-125865000D01*
X47395000Y-125817380D01*
X47633095Y-125817380D01*
X47728333Y-125865000D01*
X47775952Y-125912619D01*
X47823571Y-126007857D01*
X47823571Y-126103095D01*
X47775952Y-126245952D01*
X47204523Y-126817380D01*
X47823571Y-126817380D01*
X48204523Y-125912619D02*
X48252142Y-125865000D01*
X48347380Y-125817380D01*
X48585476Y-125817380D01*
X48680714Y-125865000D01*
X48728333Y-125912619D01*
X48775952Y-126007857D01*
X48775952Y-126103095D01*
X48728333Y-126245952D01*
X48156904Y-126817380D01*
X48775952Y-126817380D01*
X49395000Y-125817380D02*
X49490238Y-125817380D01*
X49585476Y-125865000D01*
X49633095Y-125912619D01*
X49680714Y-126007857D01*
X49728333Y-126198333D01*
X49728333Y-126436428D01*
X49680714Y-126626904D01*
X49633095Y-126722142D01*
X49585476Y-126769761D01*
X49490238Y-126817380D01*
X49395000Y-126817380D01*
X49299761Y-126769761D01*
X49252142Y-126722142D01*
X49204523Y-126626904D01*
X49156904Y-126436428D01*
X49156904Y-126198333D01*
X49204523Y-126007857D01*
X49252142Y-125912619D01*
X49299761Y-125865000D01*
X49395000Y-125817380D01*
X50156904Y-126817380D02*
X50156904Y-125817380D01*
X50252142Y-126436428D02*
X50537857Y-126817380D01*
X50537857Y-126150714D02*
X50156904Y-126531666D01*
%TO.C,R7*%
X47252142Y-120832619D02*
X47299761Y-120785000D01*
X47395000Y-120737380D01*
X47633095Y-120737380D01*
X47728333Y-120785000D01*
X47775952Y-120832619D01*
X47823571Y-120927857D01*
X47823571Y-121023095D01*
X47775952Y-121165952D01*
X47204523Y-121737380D01*
X47823571Y-121737380D01*
X48204523Y-120832619D02*
X48252142Y-120785000D01*
X48347380Y-120737380D01*
X48585476Y-120737380D01*
X48680714Y-120785000D01*
X48728333Y-120832619D01*
X48775952Y-120927857D01*
X48775952Y-121023095D01*
X48728333Y-121165952D01*
X48156904Y-121737380D01*
X48775952Y-121737380D01*
X49395000Y-120737380D02*
X49490238Y-120737380D01*
X49585476Y-120785000D01*
X49633095Y-120832619D01*
X49680714Y-120927857D01*
X49728333Y-121118333D01*
X49728333Y-121356428D01*
X49680714Y-121546904D01*
X49633095Y-121642142D01*
X49585476Y-121689761D01*
X49490238Y-121737380D01*
X49395000Y-121737380D01*
X49299761Y-121689761D01*
X49252142Y-121642142D01*
X49204523Y-121546904D01*
X49156904Y-121356428D01*
X49156904Y-121118333D01*
X49204523Y-120927857D01*
X49252142Y-120832619D01*
X49299761Y-120785000D01*
X49395000Y-120737380D01*
X50156904Y-121737380D02*
X50156904Y-120737380D01*
X50252142Y-121356428D02*
X50537857Y-121737380D01*
X50537857Y-121070714D02*
X50156904Y-121451666D01*
%TO.C,R6*%
X35552142Y-125817380D02*
X35075952Y-125817380D01*
X35028333Y-126293571D01*
X35075952Y-126245952D01*
X35171190Y-126198333D01*
X35409285Y-126198333D01*
X35504523Y-126245952D01*
X35552142Y-126293571D01*
X35599761Y-126388809D01*
X35599761Y-126626904D01*
X35552142Y-126722142D01*
X35504523Y-126769761D01*
X35409285Y-126817380D01*
X35171190Y-126817380D01*
X35075952Y-126769761D01*
X35028333Y-126722142D01*
X36456904Y-125817380D02*
X36266428Y-125817380D01*
X36171190Y-125865000D01*
X36123571Y-125912619D01*
X36028333Y-126055476D01*
X35980714Y-126245952D01*
X35980714Y-126626904D01*
X36028333Y-126722142D01*
X36075952Y-126769761D01*
X36171190Y-126817380D01*
X36361666Y-126817380D01*
X36456904Y-126769761D01*
X36504523Y-126722142D01*
X36552142Y-126626904D01*
X36552142Y-126388809D01*
X36504523Y-126293571D01*
X36456904Y-126245952D01*
X36361666Y-126198333D01*
X36171190Y-126198333D01*
X36075952Y-126245952D01*
X36028333Y-126293571D01*
X35980714Y-126388809D01*
X36980714Y-126817380D02*
X36980714Y-125817380D01*
X37075952Y-126436428D02*
X37361666Y-126817380D01*
X37361666Y-126150714D02*
X36980714Y-126531666D01*
%TO.C,R5*%
X34552142Y-120832619D02*
X34599761Y-120785000D01*
X34695000Y-120737380D01*
X34933095Y-120737380D01*
X35028333Y-120785000D01*
X35075952Y-120832619D01*
X35123571Y-120927857D01*
X35123571Y-121023095D01*
X35075952Y-121165952D01*
X34504523Y-121737380D01*
X35123571Y-121737380D01*
X35504523Y-120832619D02*
X35552142Y-120785000D01*
X35647380Y-120737380D01*
X35885476Y-120737380D01*
X35980714Y-120785000D01*
X36028333Y-120832619D01*
X36075952Y-120927857D01*
X36075952Y-121023095D01*
X36028333Y-121165952D01*
X35456904Y-121737380D01*
X36075952Y-121737380D01*
X36695000Y-120737380D02*
X36790238Y-120737380D01*
X36885476Y-120785000D01*
X36933095Y-120832619D01*
X36980714Y-120927857D01*
X37028333Y-121118333D01*
X37028333Y-121356428D01*
X36980714Y-121546904D01*
X36933095Y-121642142D01*
X36885476Y-121689761D01*
X36790238Y-121737380D01*
X36695000Y-121737380D01*
X36599761Y-121689761D01*
X36552142Y-121642142D01*
X36504523Y-121546904D01*
X36456904Y-121356428D01*
X36456904Y-121118333D01*
X36504523Y-120927857D01*
X36552142Y-120832619D01*
X36599761Y-120785000D01*
X36695000Y-120737380D01*
X37456904Y-121737380D02*
X37456904Y-120737380D01*
X37552142Y-121356428D02*
X37837857Y-121737380D01*
X37837857Y-121070714D02*
X37456904Y-121451666D01*
%TO.C,R4*%
X21852142Y-120832619D02*
X21899761Y-120785000D01*
X21995000Y-120737380D01*
X22233095Y-120737380D01*
X22328333Y-120785000D01*
X22375952Y-120832619D01*
X22423571Y-120927857D01*
X22423571Y-121023095D01*
X22375952Y-121165952D01*
X21804523Y-121737380D01*
X22423571Y-121737380D01*
X22804523Y-120832619D02*
X22852142Y-120785000D01*
X22947380Y-120737380D01*
X23185476Y-120737380D01*
X23280714Y-120785000D01*
X23328333Y-120832619D01*
X23375952Y-120927857D01*
X23375952Y-121023095D01*
X23328333Y-121165952D01*
X22756904Y-121737380D01*
X23375952Y-121737380D01*
X23995000Y-120737380D02*
X24090238Y-120737380D01*
X24185476Y-120785000D01*
X24233095Y-120832619D01*
X24280714Y-120927857D01*
X24328333Y-121118333D01*
X24328333Y-121356428D01*
X24280714Y-121546904D01*
X24233095Y-121642142D01*
X24185476Y-121689761D01*
X24090238Y-121737380D01*
X23995000Y-121737380D01*
X23899761Y-121689761D01*
X23852142Y-121642142D01*
X23804523Y-121546904D01*
X23756904Y-121356428D01*
X23756904Y-121118333D01*
X23804523Y-120927857D01*
X23852142Y-120832619D01*
X23899761Y-120785000D01*
X23995000Y-120737380D01*
X24756904Y-121737380D02*
X24756904Y-120737380D01*
X24852142Y-121356428D02*
X25137857Y-121737380D01*
X25137857Y-121070714D02*
X24756904Y-121451666D01*
%TO.C,R3*%
X22852142Y-125817380D02*
X22375952Y-125817380D01*
X22328333Y-126293571D01*
X22375952Y-126245952D01*
X22471190Y-126198333D01*
X22709285Y-126198333D01*
X22804523Y-126245952D01*
X22852142Y-126293571D01*
X22899761Y-126388809D01*
X22899761Y-126626904D01*
X22852142Y-126722142D01*
X22804523Y-126769761D01*
X22709285Y-126817380D01*
X22471190Y-126817380D01*
X22375952Y-126769761D01*
X22328333Y-126722142D01*
X23756904Y-125817380D02*
X23566428Y-125817380D01*
X23471190Y-125865000D01*
X23423571Y-125912619D01*
X23328333Y-126055476D01*
X23280714Y-126245952D01*
X23280714Y-126626904D01*
X23328333Y-126722142D01*
X23375952Y-126769761D01*
X23471190Y-126817380D01*
X23661666Y-126817380D01*
X23756904Y-126769761D01*
X23804523Y-126722142D01*
X23852142Y-126626904D01*
X23852142Y-126388809D01*
X23804523Y-126293571D01*
X23756904Y-126245952D01*
X23661666Y-126198333D01*
X23471190Y-126198333D01*
X23375952Y-126245952D01*
X23328333Y-126293571D01*
X23280714Y-126388809D01*
X24280714Y-126817380D02*
X24280714Y-125817380D01*
X24375952Y-126436428D02*
X24661666Y-126817380D01*
X24661666Y-126150714D02*
X24280714Y-126531666D01*
%TO.C,R2*%
X9152142Y-120832619D02*
X9199761Y-120785000D01*
X9295000Y-120737380D01*
X9533095Y-120737380D01*
X9628333Y-120785000D01*
X9675952Y-120832619D01*
X9723571Y-120927857D01*
X9723571Y-121023095D01*
X9675952Y-121165952D01*
X9104523Y-121737380D01*
X9723571Y-121737380D01*
X10104523Y-120832619D02*
X10152142Y-120785000D01*
X10247380Y-120737380D01*
X10485476Y-120737380D01*
X10580714Y-120785000D01*
X10628333Y-120832619D01*
X10675952Y-120927857D01*
X10675952Y-121023095D01*
X10628333Y-121165952D01*
X10056904Y-121737380D01*
X10675952Y-121737380D01*
X11295000Y-120737380D02*
X11390238Y-120737380D01*
X11485476Y-120785000D01*
X11533095Y-120832619D01*
X11580714Y-120927857D01*
X11628333Y-121118333D01*
X11628333Y-121356428D01*
X11580714Y-121546904D01*
X11533095Y-121642142D01*
X11485476Y-121689761D01*
X11390238Y-121737380D01*
X11295000Y-121737380D01*
X11199761Y-121689761D01*
X11152142Y-121642142D01*
X11104523Y-121546904D01*
X11056904Y-121356428D01*
X11056904Y-121118333D01*
X11104523Y-120927857D01*
X11152142Y-120832619D01*
X11199761Y-120785000D01*
X11295000Y-120737380D01*
X12056904Y-121737380D02*
X12056904Y-120737380D01*
X12152142Y-121356428D02*
X12437857Y-121737380D01*
X12437857Y-121070714D02*
X12056904Y-121451666D01*
%TO.C,R1*%
X9152142Y-125912619D02*
X9199761Y-125865000D01*
X9295000Y-125817380D01*
X9533095Y-125817380D01*
X9628333Y-125865000D01*
X9675952Y-125912619D01*
X9723571Y-126007857D01*
X9723571Y-126103095D01*
X9675952Y-126245952D01*
X9104523Y-126817380D01*
X9723571Y-126817380D01*
X10104523Y-125912619D02*
X10152142Y-125865000D01*
X10247380Y-125817380D01*
X10485476Y-125817380D01*
X10580714Y-125865000D01*
X10628333Y-125912619D01*
X10675952Y-126007857D01*
X10675952Y-126103095D01*
X10628333Y-126245952D01*
X10056904Y-126817380D01*
X10675952Y-126817380D01*
X11295000Y-125817380D02*
X11390238Y-125817380D01*
X11485476Y-125865000D01*
X11533095Y-125912619D01*
X11580714Y-126007857D01*
X11628333Y-126198333D01*
X11628333Y-126436428D01*
X11580714Y-126626904D01*
X11533095Y-126722142D01*
X11485476Y-126769761D01*
X11390238Y-126817380D01*
X11295000Y-126817380D01*
X11199761Y-126769761D01*
X11152142Y-126722142D01*
X11104523Y-126626904D01*
X11056904Y-126436428D01*
X11056904Y-126198333D01*
X11104523Y-126007857D01*
X11152142Y-125912619D01*
X11199761Y-125865000D01*
X11295000Y-125817380D01*
X12056904Y-126817380D02*
X12056904Y-125817380D01*
X12152142Y-126436428D02*
X12437857Y-126817380D01*
X12437857Y-126150714D02*
X12056904Y-126531666D01*
%TO.C,J2*%
X139779523Y-116558571D02*
X140112857Y-116558571D01*
X140255714Y-117082380D02*
X139779523Y-117082380D01*
X139779523Y-116082380D01*
X140255714Y-116082380D01*
X140589047Y-116082380D02*
X141255714Y-117082380D01*
X141255714Y-116082380D02*
X140589047Y-117082380D01*
X141636666Y-117082380D02*
X141636666Y-116082380D01*
X142017619Y-116082380D01*
X142112857Y-116130000D01*
X142160476Y-116177619D01*
X142208095Y-116272857D01*
X142208095Y-116415714D01*
X142160476Y-116510952D01*
X142112857Y-116558571D01*
X142017619Y-116606190D01*
X141636666Y-116606190D01*
%TO.C,J1*%
X45799523Y-116558571D02*
X46132857Y-116558571D01*
X46275714Y-117082380D02*
X45799523Y-117082380D01*
X45799523Y-116082380D01*
X46275714Y-116082380D01*
X46609047Y-116082380D02*
X47275714Y-117082380D01*
X47275714Y-116082380D02*
X46609047Y-117082380D01*
X47656666Y-117082380D02*
X47656666Y-116082380D01*
X48037619Y-116082380D01*
X48132857Y-116130000D01*
X48180476Y-116177619D01*
X48228095Y-116272857D01*
X48228095Y-116415714D01*
X48180476Y-116510952D01*
X48132857Y-116558571D01*
X48037619Y-116606190D01*
X47656666Y-116606190D01*
%TD*%
M02*
