%TF.GenerationSoftware,KiCad,Pcbnew,(5.1.8)-1*%
%TF.CreationDate,2020-12-28T18:18:32+00:00*%
%TF.ProjectId,sound-board,736f756e-642d-4626-9f61-72642e6b6963,rev?*%
%TF.SameCoordinates,Original*%
%TF.FileFunction,Copper,L1,Top*%
%TF.FilePolarity,Positive*%
%FSLAX46Y46*%
G04 Gerber Fmt 4.6, Leading zero omitted, Abs format (unit mm)*
G04 Created by KiCad (PCBNEW (5.1.8)-1) date 2020-12-28 18:18:32*
%MOMM*%
%LPD*%
G01*
G04 APERTURE LIST*
%TA.AperFunction,ComponentPad*%
%ADD10C,1.600000*%
%TD*%
%TA.AperFunction,ComponentPad*%
%ADD11C,2.400000*%
%TD*%
%TA.AperFunction,ComponentPad*%
%ADD12C,2.550000*%
%TD*%
%TA.AperFunction,ComponentPad*%
%ADD13O,1.600000X1.600000*%
%TD*%
%TA.AperFunction,ComponentPad*%
%ADD14R,1.600000X1.600000*%
%TD*%
%TA.AperFunction,ComponentPad*%
%ADD15O,1.700000X1.700000*%
%TD*%
%TA.AperFunction,ComponentPad*%
%ADD16C,1.700000*%
%TD*%
%TA.AperFunction,ViaPad*%
%ADD17C,0.600000*%
%TD*%
%TA.AperFunction,Conductor*%
%ADD18C,0.500000*%
%TD*%
%TA.AperFunction,Conductor*%
%ADD19C,0.250000*%
%TD*%
G04 APERTURE END LIST*
D10*
%TO.P,C6,2*%
%TO.N,+5V*%
X37385000Y-84455000D03*
%TO.P,C6,1*%
%TO.N,GND*%
X32385000Y-84455000D03*
%TD*%
%TO.P,C1,2*%
%TO.N,Net-(C1-Pad2)*%
X164545000Y-123825000D03*
%TO.P,C1,1*%
%TO.N,Net-(C1-Pad1)*%
X169545000Y-123825000D03*
%TD*%
%TO.P,C25,2*%
%TO.N,+5V*%
X75565000Y-89535000D03*
%TO.P,C25,1*%
%TO.N,GND*%
X70565000Y-89535000D03*
%TD*%
%TO.P,C24,2*%
%TO.N,+5V*%
X103505000Y-89535000D03*
%TO.P,C24,1*%
%TO.N,GND*%
X98505000Y-89535000D03*
%TD*%
%TO.P,C23,2*%
%TO.N,+5V*%
X89535000Y-89535000D03*
%TO.P,C23,1*%
%TO.N,GND*%
X84535000Y-89535000D03*
%TD*%
%TO.P,C22,2*%
%TO.N,+5V*%
X117475000Y-89535000D03*
%TO.P,C22,1*%
%TO.N,GND*%
X112475000Y-89535000D03*
%TD*%
%TO.P,C21,2*%
%TO.N,+5V*%
X131445000Y-89535000D03*
%TO.P,C21,1*%
%TO.N,GND*%
X126445000Y-89535000D03*
%TD*%
%TO.P,C20,2*%
%TO.N,+5V*%
X61515000Y-89535000D03*
%TO.P,C20,1*%
%TO.N,GND*%
X56515000Y-89535000D03*
%TD*%
%TO.P,C19,2*%
%TO.N,+5V*%
X103505000Y-121285000D03*
%TO.P,C19,1*%
%TO.N,GND*%
X98505000Y-121285000D03*
%TD*%
%TO.P,C18,2*%
%TO.N,+5V*%
X169465000Y-84455000D03*
%TO.P,C18,1*%
%TO.N,GND*%
X164465000Y-84455000D03*
%TD*%
%TO.P,C17,2*%
%TO.N,+5V*%
X117475000Y-116205000D03*
%TO.P,C17,1*%
%TO.N,GND*%
X112475000Y-116205000D03*
%TD*%
%TO.P,C16,2*%
%TO.N,+5V*%
X155495000Y-84455000D03*
%TO.P,C16,1*%
%TO.N,GND*%
X150495000Y-84455000D03*
%TD*%
%TO.P,C15,2*%
%TO.N,+5V*%
X183435000Y-117475000D03*
%TO.P,C15,1*%
%TO.N,GND*%
X178435000Y-117475000D03*
%TD*%
%TO.P,C14,2*%
%TO.N,+5V*%
X131445000Y-116205000D03*
%TO.P,C14,1*%
%TO.N,GND*%
X126445000Y-116205000D03*
%TD*%
%TO.P,C13,2*%
%TO.N,+5V*%
X183515000Y-84455000D03*
%TO.P,C13,1*%
%TO.N,GND*%
X178515000Y-84455000D03*
%TD*%
%TO.P,C12,2*%
%TO.N,+5V*%
X169465000Y-116205000D03*
%TO.P,C12,1*%
%TO.N,GND*%
X164465000Y-116205000D03*
%TD*%
%TO.P,C11,2*%
%TO.N,+5V*%
X155495000Y-116205000D03*
%TO.P,C11,1*%
%TO.N,GND*%
X150495000Y-116205000D03*
%TD*%
%TO.P,C10,2*%
%TO.N,+5V*%
X89535000Y-113665000D03*
%TO.P,C10,1*%
%TO.N,GND*%
X84535000Y-113665000D03*
%TD*%
%TO.P,C9,2*%
%TO.N,+5V*%
X37385000Y-116205000D03*
%TO.P,C9,1*%
%TO.N,GND*%
X32385000Y-116205000D03*
%TD*%
%TO.P,C8,2*%
%TO.N,+5V*%
X61595000Y-116205000D03*
%TO.P,C8,1*%
%TO.N,GND*%
X56595000Y-116205000D03*
%TD*%
%TO.P,C7,2*%
%TO.N,+5V*%
X23495000Y-116205000D03*
%TO.P,C7,1*%
%TO.N,GND*%
X18495000Y-116205000D03*
%TD*%
%TO.P,C5,2*%
%TO.N,+5V*%
X9525000Y-111125000D03*
%TO.P,C5,1*%
%TO.N,GND*%
X4525000Y-111125000D03*
%TD*%
%TO.P,C4,2*%
%TO.N,+5V*%
X23415000Y-84455000D03*
%TO.P,C4,1*%
%TO.N,GND*%
X18415000Y-84455000D03*
%TD*%
%TO.P,C3,2*%
%TO.N,+5V*%
X9445000Y-84455000D03*
%TO.P,C3,1*%
%TO.N,GND*%
X4445000Y-84455000D03*
%TD*%
%TO.P,C2,2*%
%TO.N,+5V*%
X75565000Y-116205000D03*
%TO.P,C2,1*%
%TO.N,GND*%
X70565000Y-116205000D03*
%TD*%
D11*
%TO.P,J3,11*%
%TO.N,N/C*%
X178340000Y-127025000D03*
%TO.P,J3,10*%
X182340000Y-127025000D03*
D12*
%TO.P,J3,3*%
%TO.N,Net-(C1-Pad1)*%
X175340000Y-127025000D03*
%TO.P,J3,2*%
X185340000Y-127025000D03*
%TO.P,J3,1*%
%TO.N,GND*%
X180340000Y-132025000D03*
%TD*%
D13*
%TO.P,U24,8*%
%TO.N,+5V*%
X184785000Y-106680000D03*
%TO.P,U24,4*%
%TO.N,GND*%
X177165000Y-114300000D03*
%TO.P,U24,7*%
%TO.N,N/C*%
X184785000Y-109220000D03*
%TO.P,U24,3*%
%TO.N,ANALOG_OUT*%
X177165000Y-111760000D03*
%TO.P,U24,6*%
%TO.N,N/C*%
X184785000Y-111760000D03*
%TO.P,U24,2*%
%TO.N,Net-(C1-Pad2)*%
X177165000Y-109220000D03*
%TO.P,U24,5*%
%TO.N,N/C*%
X184785000Y-114300000D03*
D14*
%TO.P,U24,1*%
%TO.N,Net-(C1-Pad2)*%
X177165000Y-106680000D03*
%TD*%
D13*
%TO.P,R22,2*%
%TO.N,GND*%
X79375000Y-128905000D03*
D10*
%TO.P,R22,1*%
%TO.N,ANALOG_OUT*%
X69215000Y-128905000D03*
%TD*%
D13*
%TO.P,R20,2*%
%TO.N,ANALOG_OUT*%
X92075000Y-123825000D03*
D10*
%TO.P,R20,1*%
%TO.N,+5V*%
X81915000Y-123825000D03*
%TD*%
%TO.P,X1,4*%
%TO.N,GND*%
X184785000Y-99060000D03*
%TO.P,X1,5*%
%TO.N,CLK_1M*%
X184785000Y-91440000D03*
%TO.P,X1,8*%
%TO.N,+5V*%
X177165000Y-91440000D03*
D14*
%TO.P,X1,1*%
%TO.N,Net-(X1-Pad1)*%
X177165000Y-99060000D03*
%TD*%
D13*
%TO.P,U23,16*%
%TO.N,+5V*%
X132715000Y-95250000D03*
%TO.P,U23,8*%
%TO.N,GND*%
X125095000Y-113030000D03*
%TO.P,U23,15*%
%TO.N,/Wave Generator B/ADD14*%
X132715000Y-97790000D03*
%TO.P,U23,7*%
%TO.N,/Wave Generator B/CARRY2*%
X125095000Y-110490000D03*
%TO.P,U23,14*%
%TO.N,/Wave Generator B/COUNT14*%
X132715000Y-100330000D03*
%TO.P,U23,6*%
%TO.N,/Wave Generator B/ADD12*%
X125095000Y-107950000D03*
%TO.P,U23,13*%
%TO.N,/Wave Generator B/SUM14*%
X132715000Y-102870000D03*
%TO.P,U23,5*%
%TO.N,/Wave Generator B/COUNT12*%
X125095000Y-105410000D03*
%TO.P,U23,12*%
%TO.N,/Wave Generator B/COUNT15*%
X132715000Y-105410000D03*
%TO.P,U23,4*%
%TO.N,/Wave Generator B/SUM12*%
X125095000Y-102870000D03*
%TO.P,U23,11*%
%TO.N,/Wave Generator B/ADD15*%
X132715000Y-107950000D03*
%TO.P,U23,3*%
%TO.N,/Wave Generator B/COUNT13*%
X125095000Y-100330000D03*
%TO.P,U23,10*%
%TO.N,/Wave Generator B/SUM15*%
X132715000Y-110490000D03*
%TO.P,U23,2*%
%TO.N,/Wave Generator B/ADD13*%
X125095000Y-97790000D03*
%TO.P,U23,9*%
%TO.N,Net-(U23-Pad9)*%
X132715000Y-113030000D03*
D14*
%TO.P,U23,1*%
%TO.N,/Wave Generator B/SUM13*%
X125095000Y-95250000D03*
%TD*%
D13*
%TO.P,U22,16*%
%TO.N,+5V*%
X118745000Y-95250000D03*
%TO.P,U22,8*%
%TO.N,GND*%
X111125000Y-113030000D03*
%TO.P,U22,15*%
%TO.N,/Wave Generator B/ADD10*%
X118745000Y-97790000D03*
%TO.P,U22,7*%
%TO.N,/Wave Generator B/CARRY1*%
X111125000Y-110490000D03*
%TO.P,U22,14*%
%TO.N,/Wave Generator B/COUNT10*%
X118745000Y-100330000D03*
%TO.P,U22,6*%
%TO.N,/Wave Generator B/ADD8*%
X111125000Y-107950000D03*
%TO.P,U22,13*%
%TO.N,/Wave Generator B/SUM10*%
X118745000Y-102870000D03*
%TO.P,U22,5*%
%TO.N,/Wave Generator B/COUNT8*%
X111125000Y-105410000D03*
%TO.P,U22,12*%
%TO.N,/Wave Generator B/COUNT11*%
X118745000Y-105410000D03*
%TO.P,U22,4*%
%TO.N,/Wave Generator B/SUM8*%
X111125000Y-102870000D03*
%TO.P,U22,11*%
%TO.N,/Wave Generator B/ADD11*%
X118745000Y-107950000D03*
%TO.P,U22,3*%
%TO.N,/Wave Generator B/COUNT9*%
X111125000Y-100330000D03*
%TO.P,U22,10*%
%TO.N,/Wave Generator B/SUM11*%
X118745000Y-110490000D03*
%TO.P,U22,2*%
%TO.N,/Wave Generator B/ADD9*%
X111125000Y-97790000D03*
%TO.P,U22,9*%
%TO.N,/Wave Generator B/CARRY2*%
X118745000Y-113030000D03*
D14*
%TO.P,U22,1*%
%TO.N,/Wave Generator B/SUM9*%
X111125000Y-95250000D03*
%TD*%
D13*
%TO.P,U21,16*%
%TO.N,+5V*%
X156845000Y-63500000D03*
%TO.P,U21,8*%
%TO.N,GND*%
X149225000Y-81280000D03*
%TO.P,U21,15*%
%TO.N,/Wave Generator B/ADD6*%
X156845000Y-66040000D03*
%TO.P,U21,7*%
%TO.N,/Wave Generator B/CARRY0*%
X149225000Y-78740000D03*
%TO.P,U21,14*%
%TO.N,/Wave Generator B/COUNT6*%
X156845000Y-68580000D03*
%TO.P,U21,6*%
%TO.N,/Wave Generator B/ADD4*%
X149225000Y-76200000D03*
%TO.P,U21,13*%
%TO.N,/Wave Generator B/SUM6*%
X156845000Y-71120000D03*
%TO.P,U21,5*%
%TO.N,/Wave Generator B/COUNT4*%
X149225000Y-73660000D03*
%TO.P,U21,12*%
%TO.N,/Wave Generator B/COUNT7*%
X156845000Y-73660000D03*
%TO.P,U21,4*%
%TO.N,/Wave Generator B/SUM4*%
X149225000Y-71120000D03*
%TO.P,U21,11*%
%TO.N,/Wave Generator B/ADD7*%
X156845000Y-76200000D03*
%TO.P,U21,3*%
%TO.N,/Wave Generator B/COUNT5*%
X149225000Y-68580000D03*
%TO.P,U21,10*%
%TO.N,/Wave Generator B/SUM7*%
X156845000Y-78740000D03*
%TO.P,U21,2*%
%TO.N,/Wave Generator B/ADD5*%
X149225000Y-66040000D03*
%TO.P,U21,9*%
%TO.N,/Wave Generator B/CARRY1*%
X156845000Y-81280000D03*
D14*
%TO.P,U21,1*%
%TO.N,/Wave Generator B/SUM5*%
X149225000Y-63500000D03*
%TD*%
D13*
%TO.P,U20,16*%
%TO.N,+5V*%
X170815000Y-63500000D03*
%TO.P,U20,8*%
%TO.N,GND*%
X163195000Y-81280000D03*
%TO.P,U20,15*%
%TO.N,/Wave Generator B/ADD2*%
X170815000Y-66040000D03*
%TO.P,U20,7*%
%TO.N,Net-(U20-Pad7)*%
X163195000Y-78740000D03*
%TO.P,U20,14*%
%TO.N,/Wave Generator B/COUNT2*%
X170815000Y-68580000D03*
%TO.P,U20,6*%
%TO.N,/Wave Generator B/ADD0*%
X163195000Y-76200000D03*
%TO.P,U20,13*%
%TO.N,/Wave Generator B/SUM2*%
X170815000Y-71120000D03*
%TO.P,U20,5*%
%TO.N,/Wave Generator B/COUNT0*%
X163195000Y-73660000D03*
%TO.P,U20,12*%
%TO.N,/Wave Generator B/COUNT3*%
X170815000Y-73660000D03*
%TO.P,U20,4*%
%TO.N,/Wave Generator B/SUM0*%
X163195000Y-71120000D03*
%TO.P,U20,11*%
%TO.N,/Wave Generator B/ADD3*%
X170815000Y-76200000D03*
%TO.P,U20,3*%
%TO.N,/Wave Generator B/COUNT1*%
X163195000Y-68580000D03*
%TO.P,U20,10*%
%TO.N,/Wave Generator B/SUM3*%
X170815000Y-78740000D03*
%TO.P,U20,2*%
%TO.N,/Wave Generator B/ADD1*%
X163195000Y-66040000D03*
%TO.P,U20,9*%
%TO.N,/Wave Generator B/CARRY0*%
X170815000Y-81280000D03*
D14*
%TO.P,U20,1*%
%TO.N,/Wave Generator B/SUM1*%
X163195000Y-63500000D03*
%TD*%
D13*
%TO.P,U19,20*%
%TO.N,+5V*%
X132715000Y-63500000D03*
%TO.P,U19,10*%
%TO.N,GND*%
X125095000Y-86360000D03*
%TO.P,U19,19*%
%TO.N,DIGITAL_B_0*%
X132715000Y-66040000D03*
%TO.P,U19,9*%
%TO.N,D7*%
X125095000Y-83820000D03*
%TO.P,U19,18*%
%TO.N,DIGITAL_B_1*%
X132715000Y-68580000D03*
%TO.P,U19,8*%
%TO.N,D6*%
X125095000Y-81280000D03*
%TO.P,U19,17*%
%TO.N,DIGITAL_B_2*%
X132715000Y-71120000D03*
%TO.P,U19,7*%
%TO.N,D5*%
X125095000Y-78740000D03*
%TO.P,U19,16*%
%TO.N,DIGITAL_B_3*%
X132715000Y-73660000D03*
%TO.P,U19,6*%
%TO.N,D4*%
X125095000Y-76200000D03*
%TO.P,U19,15*%
%TO.N,Net-(U19-Pad15)*%
X132715000Y-76200000D03*
%TO.P,U19,5*%
%TO.N,D3*%
X125095000Y-73660000D03*
%TO.P,U19,14*%
%TO.N,Net-(U19-Pad14)*%
X132715000Y-78740000D03*
%TO.P,U19,4*%
%TO.N,D2*%
X125095000Y-71120000D03*
%TO.P,U19,13*%
%TO.N,Net-(U19-Pad13)*%
X132715000Y-81280000D03*
%TO.P,U19,3*%
%TO.N,D1*%
X125095000Y-68580000D03*
%TO.P,U19,12*%
%TO.N,Net-(U19-Pad12)*%
X132715000Y-83820000D03*
%TO.P,U19,2*%
%TO.N,D0*%
X125095000Y-66040000D03*
%TO.P,U19,11*%
%TO.N,VB_SELECT*%
X132715000Y-86360000D03*
D14*
%TO.P,U19,1*%
%TO.N,/Wave Generator B/COUNT15*%
X125095000Y-63500000D03*
%TD*%
D13*
%TO.P,U18,20*%
%TO.N,+5V*%
X156845000Y-90170000D03*
%TO.P,U18,10*%
%TO.N,GND*%
X149225000Y-113030000D03*
%TO.P,U18,19*%
%TO.N,/Wave Generator B/COUNT15*%
X156845000Y-92710000D03*
%TO.P,U18,9*%
%TO.N,/Wave Generator B/COUNT11*%
X149225000Y-110490000D03*
%TO.P,U18,18*%
%TO.N,/Wave Generator B/SUM15*%
X156845000Y-95250000D03*
%TO.P,U18,8*%
%TO.N,/Wave Generator B/SUM11*%
X149225000Y-107950000D03*
%TO.P,U18,17*%
%TO.N,/Wave Generator B/SUM14*%
X156845000Y-97790000D03*
%TO.P,U18,7*%
%TO.N,/Wave Generator B/SUM10*%
X149225000Y-105410000D03*
%TO.P,U18,16*%
%TO.N,/Wave Generator B/COUNT14*%
X156845000Y-100330000D03*
%TO.P,U18,6*%
%TO.N,/Wave Generator B/COUNT10*%
X149225000Y-102870000D03*
%TO.P,U18,15*%
%TO.N,/Wave Generator B/COUNT13*%
X156845000Y-102870000D03*
%TO.P,U18,5*%
%TO.N,/Wave Generator B/COUNT9*%
X149225000Y-100330000D03*
%TO.P,U18,14*%
%TO.N,/Wave Generator B/SUM13*%
X156845000Y-105410000D03*
%TO.P,U18,4*%
%TO.N,/Wave Generator B/SUM9*%
X149225000Y-97790000D03*
%TO.P,U18,13*%
%TO.N,/Wave Generator B/SUM12*%
X156845000Y-107950000D03*
%TO.P,U18,3*%
%TO.N,/Wave Generator B/SUM8*%
X149225000Y-95250000D03*
%TO.P,U18,12*%
%TO.N,/Wave Generator B/COUNT12*%
X156845000Y-110490000D03*
%TO.P,U18,2*%
%TO.N,/Wave Generator B/COUNT8*%
X149225000Y-92710000D03*
%TO.P,U18,11*%
%TO.N,CLK_62K5*%
X156845000Y-113030000D03*
D14*
%TO.P,U18,1*%
%TO.N,+5V*%
X149225000Y-90170000D03*
%TD*%
D13*
%TO.P,U17,20*%
%TO.N,+5V*%
X170815000Y-90170000D03*
%TO.P,U17,10*%
%TO.N,GND*%
X163195000Y-113030000D03*
%TO.P,U17,19*%
%TO.N,/Wave Generator B/COUNT7*%
X170815000Y-92710000D03*
%TO.P,U17,9*%
%TO.N,/Wave Generator B/COUNT3*%
X163195000Y-110490000D03*
%TO.P,U17,18*%
%TO.N,/Wave Generator B/SUM7*%
X170815000Y-95250000D03*
%TO.P,U17,8*%
%TO.N,/Wave Generator B/SUM3*%
X163195000Y-107950000D03*
%TO.P,U17,17*%
%TO.N,/Wave Generator B/SUM6*%
X170815000Y-97790000D03*
%TO.P,U17,7*%
%TO.N,/Wave Generator B/SUM2*%
X163195000Y-105410000D03*
%TO.P,U17,16*%
%TO.N,/Wave Generator B/COUNT6*%
X170815000Y-100330000D03*
%TO.P,U17,6*%
%TO.N,/Wave Generator B/COUNT2*%
X163195000Y-102870000D03*
%TO.P,U17,15*%
%TO.N,/Wave Generator B/COUNT5*%
X170815000Y-102870000D03*
%TO.P,U17,5*%
%TO.N,/Wave Generator B/COUNT1*%
X163195000Y-100330000D03*
%TO.P,U17,14*%
%TO.N,/Wave Generator B/SUM5*%
X170815000Y-105410000D03*
%TO.P,U17,4*%
%TO.N,/Wave Generator B/SUM1*%
X163195000Y-97790000D03*
%TO.P,U17,13*%
%TO.N,/Wave Generator B/SUM4*%
X170815000Y-107950000D03*
%TO.P,U17,3*%
%TO.N,/Wave Generator B/SUM0*%
X163195000Y-95250000D03*
%TO.P,U17,12*%
%TO.N,/Wave Generator B/COUNT4*%
X170815000Y-110490000D03*
%TO.P,U17,2*%
%TO.N,/Wave Generator B/COUNT0*%
X163195000Y-92710000D03*
%TO.P,U17,11*%
%TO.N,CLK_62K5*%
X170815000Y-113030000D03*
D14*
%TO.P,U17,1*%
%TO.N,+5V*%
X163195000Y-90170000D03*
%TD*%
D13*
%TO.P,U16,20*%
%TO.N,+5V*%
X104775000Y-63500000D03*
%TO.P,U16,10*%
%TO.N,GND*%
X97155000Y-86360000D03*
%TO.P,U16,19*%
%TO.N,/Wave Generator B/ADD8*%
X104775000Y-66040000D03*
%TO.P,U16,9*%
%TO.N,D7*%
X97155000Y-83820000D03*
%TO.P,U16,18*%
%TO.N,/Wave Generator B/ADD9*%
X104775000Y-68580000D03*
%TO.P,U16,8*%
%TO.N,D6*%
X97155000Y-81280000D03*
%TO.P,U16,17*%
%TO.N,/Wave Generator B/ADD10*%
X104775000Y-71120000D03*
%TO.P,U16,7*%
%TO.N,D5*%
X97155000Y-78740000D03*
%TO.P,U16,16*%
%TO.N,/Wave Generator B/ADD11*%
X104775000Y-73660000D03*
%TO.P,U16,6*%
%TO.N,D4*%
X97155000Y-76200000D03*
%TO.P,U16,15*%
%TO.N,/Wave Generator B/ADD12*%
X104775000Y-76200000D03*
%TO.P,U16,5*%
%TO.N,D3*%
X97155000Y-73660000D03*
%TO.P,U16,14*%
%TO.N,/Wave Generator B/ADD13*%
X104775000Y-78740000D03*
%TO.P,U16,4*%
%TO.N,D2*%
X97155000Y-71120000D03*
%TO.P,U16,13*%
%TO.N,/Wave Generator B/ADD14*%
X104775000Y-81280000D03*
%TO.P,U16,3*%
%TO.N,D1*%
X97155000Y-68580000D03*
%TO.P,U16,12*%
%TO.N,/Wave Generator B/ADD15*%
X104775000Y-83820000D03*
%TO.P,U16,2*%
%TO.N,D0*%
X97155000Y-66040000D03*
%TO.P,U16,11*%
%TO.N,FB_H_SELECT*%
X104775000Y-86360000D03*
D14*
%TO.P,U16,1*%
%TO.N,GND*%
X97155000Y-63500000D03*
%TD*%
D13*
%TO.P,U15,20*%
%TO.N,+5V*%
X118745000Y-63500000D03*
%TO.P,U15,10*%
%TO.N,GND*%
X111125000Y-86360000D03*
%TO.P,U15,19*%
%TO.N,/Wave Generator B/ADD0*%
X118745000Y-66040000D03*
%TO.P,U15,9*%
%TO.N,D7*%
X111125000Y-83820000D03*
%TO.P,U15,18*%
%TO.N,/Wave Generator B/ADD1*%
X118745000Y-68580000D03*
%TO.P,U15,8*%
%TO.N,D6*%
X111125000Y-81280000D03*
%TO.P,U15,17*%
%TO.N,/Wave Generator B/ADD2*%
X118745000Y-71120000D03*
%TO.P,U15,7*%
%TO.N,D5*%
X111125000Y-78740000D03*
%TO.P,U15,16*%
%TO.N,/Wave Generator B/ADD3*%
X118745000Y-73660000D03*
%TO.P,U15,6*%
%TO.N,D4*%
X111125000Y-76200000D03*
%TO.P,U15,15*%
%TO.N,/Wave Generator B/ADD4*%
X118745000Y-76200000D03*
%TO.P,U15,5*%
%TO.N,D3*%
X111125000Y-73660000D03*
%TO.P,U15,14*%
%TO.N,/Wave Generator B/ADD5*%
X118745000Y-78740000D03*
%TO.P,U15,4*%
%TO.N,D2*%
X111125000Y-71120000D03*
%TO.P,U15,13*%
%TO.N,/Wave Generator B/ADD6*%
X118745000Y-81280000D03*
%TO.P,U15,3*%
%TO.N,D1*%
X111125000Y-68580000D03*
%TO.P,U15,12*%
%TO.N,/Wave Generator B/ADD7*%
X118745000Y-83820000D03*
%TO.P,U15,2*%
%TO.N,D0*%
X111125000Y-66040000D03*
%TO.P,U15,11*%
%TO.N,FB_L_SELECT*%
X118745000Y-86360000D03*
D14*
%TO.P,U15,1*%
%TO.N,GND*%
X111125000Y-63500000D03*
%TD*%
D13*
%TO.P,U14,16*%
%TO.N,+5V*%
X62865000Y-95250000D03*
%TO.P,U14,8*%
%TO.N,GND*%
X55245000Y-113030000D03*
%TO.P,U14,15*%
%TO.N,/Wave Generator A/ADD14*%
X62865000Y-97790000D03*
%TO.P,U14,7*%
%TO.N,/Wave Generator A/CARRY2*%
X55245000Y-110490000D03*
%TO.P,U14,14*%
%TO.N,/Wave Generator A/COUNT14*%
X62865000Y-100330000D03*
%TO.P,U14,6*%
%TO.N,/Wave Generator A/ADD12*%
X55245000Y-107950000D03*
%TO.P,U14,13*%
%TO.N,/Wave Generator A/SUM14*%
X62865000Y-102870000D03*
%TO.P,U14,5*%
%TO.N,/Wave Generator A/COUNT12*%
X55245000Y-105410000D03*
%TO.P,U14,12*%
%TO.N,/Wave Generator A/COUNT15*%
X62865000Y-105410000D03*
%TO.P,U14,4*%
%TO.N,/Wave Generator A/SUM12*%
X55245000Y-102870000D03*
%TO.P,U14,11*%
%TO.N,/Wave Generator A/ADD15*%
X62865000Y-107950000D03*
%TO.P,U14,3*%
%TO.N,/Wave Generator A/COUNT13*%
X55245000Y-100330000D03*
%TO.P,U14,10*%
%TO.N,/Wave Generator A/SUM15*%
X62865000Y-110490000D03*
%TO.P,U14,2*%
%TO.N,/Wave Generator A/ADD13*%
X55245000Y-97790000D03*
%TO.P,U14,9*%
%TO.N,Net-(U14-Pad9)*%
X62865000Y-113030000D03*
D14*
%TO.P,U14,1*%
%TO.N,/Wave Generator A/SUM13*%
X55245000Y-95250000D03*
%TD*%
D13*
%TO.P,U13,16*%
%TO.N,+5V*%
X76835000Y-95250000D03*
%TO.P,U13,8*%
%TO.N,GND*%
X69215000Y-113030000D03*
%TO.P,U13,15*%
%TO.N,/Wave Generator A/ADD10*%
X76835000Y-97790000D03*
%TO.P,U13,7*%
%TO.N,/Wave Generator A/CARRY1*%
X69215000Y-110490000D03*
%TO.P,U13,14*%
%TO.N,/Wave Generator A/COUNT10*%
X76835000Y-100330000D03*
%TO.P,U13,6*%
%TO.N,/Wave Generator A/ADD8*%
X69215000Y-107950000D03*
%TO.P,U13,13*%
%TO.N,/Wave Generator A/SUM10*%
X76835000Y-102870000D03*
%TO.P,U13,5*%
%TO.N,/Wave Generator A/COUNT8*%
X69215000Y-105410000D03*
%TO.P,U13,12*%
%TO.N,/Wave Generator A/COUNT11*%
X76835000Y-105410000D03*
%TO.P,U13,4*%
%TO.N,/Wave Generator A/SUM8*%
X69215000Y-102870000D03*
%TO.P,U13,11*%
%TO.N,/Wave Generator A/ADD11*%
X76835000Y-107950000D03*
%TO.P,U13,3*%
%TO.N,/Wave Generator A/COUNT9*%
X69215000Y-100330000D03*
%TO.P,U13,10*%
%TO.N,/Wave Generator A/SUM11*%
X76835000Y-110490000D03*
%TO.P,U13,2*%
%TO.N,/Wave Generator A/ADD9*%
X69215000Y-97790000D03*
%TO.P,U13,9*%
%TO.N,/Wave Generator A/CARRY2*%
X76835000Y-113030000D03*
D14*
%TO.P,U13,1*%
%TO.N,/Wave Generator A/SUM9*%
X69215000Y-95250000D03*
%TD*%
D13*
%TO.P,U12,16*%
%TO.N,+5V*%
X38735000Y-63500000D03*
%TO.P,U12,8*%
%TO.N,GND*%
X31115000Y-81280000D03*
%TO.P,U12,15*%
%TO.N,/Wave Generator A/ADD6*%
X38735000Y-66040000D03*
%TO.P,U12,7*%
%TO.N,/Wave Generator A/CARRY0*%
X31115000Y-78740000D03*
%TO.P,U12,14*%
%TO.N,/Wave Generator A/COUNT6*%
X38735000Y-68580000D03*
%TO.P,U12,6*%
%TO.N,/Wave Generator A/ADD4*%
X31115000Y-76200000D03*
%TO.P,U12,13*%
%TO.N,/Wave Generator A/SUM6*%
X38735000Y-71120000D03*
%TO.P,U12,5*%
%TO.N,/Wave Generator A/COUNT4*%
X31115000Y-73660000D03*
%TO.P,U12,12*%
%TO.N,/Wave Generator A/COUNT7*%
X38735000Y-73660000D03*
%TO.P,U12,4*%
%TO.N,/Wave Generator A/SUM4*%
X31115000Y-71120000D03*
%TO.P,U12,11*%
%TO.N,/Wave Generator A/ADD7*%
X38735000Y-76200000D03*
%TO.P,U12,3*%
%TO.N,/Wave Generator A/COUNT5*%
X31115000Y-68580000D03*
%TO.P,U12,10*%
%TO.N,/Wave Generator A/SUM7*%
X38735000Y-78740000D03*
%TO.P,U12,2*%
%TO.N,/Wave Generator A/ADD5*%
X31115000Y-66040000D03*
%TO.P,U12,9*%
%TO.N,/Wave Generator A/CARRY1*%
X38735000Y-81280000D03*
D14*
%TO.P,U12,1*%
%TO.N,/Wave Generator A/SUM5*%
X31115000Y-63500000D03*
%TD*%
D13*
%TO.P,U11,16*%
%TO.N,+5V*%
X24765000Y-63500000D03*
%TO.P,U11,8*%
%TO.N,GND*%
X17145000Y-81280000D03*
%TO.P,U11,15*%
%TO.N,/Wave Generator A/ADD2*%
X24765000Y-66040000D03*
%TO.P,U11,7*%
%TO.N,Net-(U11-Pad7)*%
X17145000Y-78740000D03*
%TO.P,U11,14*%
%TO.N,/Wave Generator A/COUNT2*%
X24765000Y-68580000D03*
%TO.P,U11,6*%
%TO.N,/Wave Generator A/ADD0*%
X17145000Y-76200000D03*
%TO.P,U11,13*%
%TO.N,/Wave Generator A/SUM2*%
X24765000Y-71120000D03*
%TO.P,U11,5*%
%TO.N,/Wave Generator A/COUNT0*%
X17145000Y-73660000D03*
%TO.P,U11,12*%
%TO.N,/Wave Generator A/COUNT3*%
X24765000Y-73660000D03*
%TO.P,U11,4*%
%TO.N,/Wave Generator A/SUM0*%
X17145000Y-71120000D03*
%TO.P,U11,11*%
%TO.N,/Wave Generator A/ADD3*%
X24765000Y-76200000D03*
%TO.P,U11,3*%
%TO.N,/Wave Generator A/COUNT1*%
X17145000Y-68580000D03*
%TO.P,U11,10*%
%TO.N,/Wave Generator A/SUM3*%
X24765000Y-78740000D03*
%TO.P,U11,2*%
%TO.N,/Wave Generator A/ADD1*%
X17145000Y-66040000D03*
%TO.P,U11,9*%
%TO.N,/Wave Generator A/CARRY0*%
X24765000Y-81280000D03*
D14*
%TO.P,U11,1*%
%TO.N,/Wave Generator A/SUM1*%
X17145000Y-63500000D03*
%TD*%
D13*
%TO.P,U10,20*%
%TO.N,+5V*%
X62865000Y-63500000D03*
%TO.P,U10,10*%
%TO.N,GND*%
X55245000Y-86360000D03*
%TO.P,U10,19*%
%TO.N,DIGITAL_A_0*%
X62865000Y-66040000D03*
%TO.P,U10,9*%
%TO.N,D7*%
X55245000Y-83820000D03*
%TO.P,U10,18*%
%TO.N,DIGITAL_A_1*%
X62865000Y-68580000D03*
%TO.P,U10,8*%
%TO.N,D6*%
X55245000Y-81280000D03*
%TO.P,U10,17*%
%TO.N,DIGITAL_A_2*%
X62865000Y-71120000D03*
%TO.P,U10,7*%
%TO.N,D5*%
X55245000Y-78740000D03*
%TO.P,U10,16*%
%TO.N,DIGITAL_A_3*%
X62865000Y-73660000D03*
%TO.P,U10,6*%
%TO.N,D4*%
X55245000Y-76200000D03*
%TO.P,U10,15*%
%TO.N,Net-(U10-Pad15)*%
X62865000Y-76200000D03*
%TO.P,U10,5*%
%TO.N,D3*%
X55245000Y-73660000D03*
%TO.P,U10,14*%
%TO.N,Net-(U10-Pad14)*%
X62865000Y-78740000D03*
%TO.P,U10,4*%
%TO.N,D2*%
X55245000Y-71120000D03*
%TO.P,U10,13*%
%TO.N,Net-(U10-Pad13)*%
X62865000Y-81280000D03*
%TO.P,U10,3*%
%TO.N,D1*%
X55245000Y-68580000D03*
%TO.P,U10,12*%
%TO.N,Net-(U10-Pad12)*%
X62865000Y-83820000D03*
%TO.P,U10,2*%
%TO.N,D0*%
X55245000Y-66040000D03*
%TO.P,U10,11*%
%TO.N,VA_SELECT*%
X62865000Y-86360000D03*
D14*
%TO.P,U10,1*%
%TO.N,/Wave Generator A/COUNT15*%
X55245000Y-63500000D03*
%TD*%
D13*
%TO.P,U9,20*%
%TO.N,+5V*%
X38735000Y-90170000D03*
%TO.P,U9,10*%
%TO.N,GND*%
X31115000Y-113030000D03*
%TO.P,U9,19*%
%TO.N,/Wave Generator A/COUNT15*%
X38735000Y-92710000D03*
%TO.P,U9,9*%
%TO.N,/Wave Generator A/COUNT11*%
X31115000Y-110490000D03*
%TO.P,U9,18*%
%TO.N,/Wave Generator A/SUM15*%
X38735000Y-95250000D03*
%TO.P,U9,8*%
%TO.N,/Wave Generator A/SUM11*%
X31115000Y-107950000D03*
%TO.P,U9,17*%
%TO.N,/Wave Generator A/SUM14*%
X38735000Y-97790000D03*
%TO.P,U9,7*%
%TO.N,/Wave Generator A/SUM10*%
X31115000Y-105410000D03*
%TO.P,U9,16*%
%TO.N,/Wave Generator A/COUNT14*%
X38735000Y-100330000D03*
%TO.P,U9,6*%
%TO.N,/Wave Generator A/COUNT10*%
X31115000Y-102870000D03*
%TO.P,U9,15*%
%TO.N,/Wave Generator A/COUNT13*%
X38735000Y-102870000D03*
%TO.P,U9,5*%
%TO.N,/Wave Generator A/COUNT9*%
X31115000Y-100330000D03*
%TO.P,U9,14*%
%TO.N,/Wave Generator A/SUM13*%
X38735000Y-105410000D03*
%TO.P,U9,4*%
%TO.N,/Wave Generator A/SUM9*%
X31115000Y-97790000D03*
%TO.P,U9,13*%
%TO.N,/Wave Generator A/SUM12*%
X38735000Y-107950000D03*
%TO.P,U9,3*%
%TO.N,/Wave Generator A/SUM8*%
X31115000Y-95250000D03*
%TO.P,U9,12*%
%TO.N,/Wave Generator A/COUNT12*%
X38735000Y-110490000D03*
%TO.P,U9,2*%
%TO.N,/Wave Generator A/COUNT8*%
X31115000Y-92710000D03*
%TO.P,U9,11*%
%TO.N,CLK_62K5*%
X38735000Y-113030000D03*
D14*
%TO.P,U9,1*%
%TO.N,+5V*%
X31115000Y-90170000D03*
%TD*%
D13*
%TO.P,U8,20*%
%TO.N,+5V*%
X24765000Y-90170000D03*
%TO.P,U8,10*%
%TO.N,GND*%
X17145000Y-113030000D03*
%TO.P,U8,19*%
%TO.N,/Wave Generator A/COUNT7*%
X24765000Y-92710000D03*
%TO.P,U8,9*%
%TO.N,/Wave Generator A/COUNT3*%
X17145000Y-110490000D03*
%TO.P,U8,18*%
%TO.N,/Wave Generator A/SUM7*%
X24765000Y-95250000D03*
%TO.P,U8,8*%
%TO.N,/Wave Generator A/SUM3*%
X17145000Y-107950000D03*
%TO.P,U8,17*%
%TO.N,/Wave Generator A/SUM6*%
X24765000Y-97790000D03*
%TO.P,U8,7*%
%TO.N,/Wave Generator A/SUM2*%
X17145000Y-105410000D03*
%TO.P,U8,16*%
%TO.N,/Wave Generator A/COUNT6*%
X24765000Y-100330000D03*
%TO.P,U8,6*%
%TO.N,/Wave Generator A/COUNT2*%
X17145000Y-102870000D03*
%TO.P,U8,15*%
%TO.N,/Wave Generator A/COUNT5*%
X24765000Y-102870000D03*
%TO.P,U8,5*%
%TO.N,/Wave Generator A/COUNT1*%
X17145000Y-100330000D03*
%TO.P,U8,14*%
%TO.N,/Wave Generator A/SUM5*%
X24765000Y-105410000D03*
%TO.P,U8,4*%
%TO.N,/Wave Generator A/SUM1*%
X17145000Y-97790000D03*
%TO.P,U8,13*%
%TO.N,/Wave Generator A/SUM4*%
X24765000Y-107950000D03*
%TO.P,U8,3*%
%TO.N,/Wave Generator A/SUM0*%
X17145000Y-95250000D03*
%TO.P,U8,12*%
%TO.N,/Wave Generator A/COUNT4*%
X24765000Y-110490000D03*
%TO.P,U8,2*%
%TO.N,/Wave Generator A/COUNT0*%
X17145000Y-92710000D03*
%TO.P,U8,11*%
%TO.N,CLK_62K5*%
X24765000Y-113030000D03*
D14*
%TO.P,U8,1*%
%TO.N,+5V*%
X17145000Y-90170000D03*
%TD*%
D13*
%TO.P,U7,20*%
%TO.N,+5V*%
X90805000Y-63500000D03*
%TO.P,U7,10*%
%TO.N,GND*%
X83185000Y-86360000D03*
%TO.P,U7,19*%
%TO.N,/Wave Generator A/ADD8*%
X90805000Y-66040000D03*
%TO.P,U7,9*%
%TO.N,D7*%
X83185000Y-83820000D03*
%TO.P,U7,18*%
%TO.N,/Wave Generator A/ADD9*%
X90805000Y-68580000D03*
%TO.P,U7,8*%
%TO.N,D6*%
X83185000Y-81280000D03*
%TO.P,U7,17*%
%TO.N,/Wave Generator A/ADD10*%
X90805000Y-71120000D03*
%TO.P,U7,7*%
%TO.N,D5*%
X83185000Y-78740000D03*
%TO.P,U7,16*%
%TO.N,/Wave Generator A/ADD11*%
X90805000Y-73660000D03*
%TO.P,U7,6*%
%TO.N,D4*%
X83185000Y-76200000D03*
%TO.P,U7,15*%
%TO.N,/Wave Generator A/ADD12*%
X90805000Y-76200000D03*
%TO.P,U7,5*%
%TO.N,D3*%
X83185000Y-73660000D03*
%TO.P,U7,14*%
%TO.N,/Wave Generator A/ADD13*%
X90805000Y-78740000D03*
%TO.P,U7,4*%
%TO.N,D2*%
X83185000Y-71120000D03*
%TO.P,U7,13*%
%TO.N,/Wave Generator A/ADD14*%
X90805000Y-81280000D03*
%TO.P,U7,3*%
%TO.N,D1*%
X83185000Y-68580000D03*
%TO.P,U7,12*%
%TO.N,/Wave Generator A/ADD15*%
X90805000Y-83820000D03*
%TO.P,U7,2*%
%TO.N,D0*%
X83185000Y-66040000D03*
%TO.P,U7,11*%
%TO.N,FA_H_SELECT*%
X90805000Y-86360000D03*
D14*
%TO.P,U7,1*%
%TO.N,GND*%
X83185000Y-63500000D03*
%TD*%
D13*
%TO.P,U6,20*%
%TO.N,+5V*%
X76835000Y-63500000D03*
%TO.P,U6,10*%
%TO.N,GND*%
X69215000Y-86360000D03*
%TO.P,U6,19*%
%TO.N,/Wave Generator A/ADD0*%
X76835000Y-66040000D03*
%TO.P,U6,9*%
%TO.N,D7*%
X69215000Y-83820000D03*
%TO.P,U6,18*%
%TO.N,/Wave Generator A/ADD1*%
X76835000Y-68580000D03*
%TO.P,U6,8*%
%TO.N,D6*%
X69215000Y-81280000D03*
%TO.P,U6,17*%
%TO.N,/Wave Generator A/ADD2*%
X76835000Y-71120000D03*
%TO.P,U6,7*%
%TO.N,D5*%
X69215000Y-78740000D03*
%TO.P,U6,16*%
%TO.N,/Wave Generator A/ADD3*%
X76835000Y-73660000D03*
%TO.P,U6,6*%
%TO.N,D4*%
X69215000Y-76200000D03*
%TO.P,U6,15*%
%TO.N,/Wave Generator A/ADD4*%
X76835000Y-76200000D03*
%TO.P,U6,5*%
%TO.N,D3*%
X69215000Y-73660000D03*
%TO.P,U6,14*%
%TO.N,/Wave Generator A/ADD5*%
X76835000Y-78740000D03*
%TO.P,U6,4*%
%TO.N,D2*%
X69215000Y-71120000D03*
%TO.P,U6,13*%
%TO.N,/Wave Generator A/ADD6*%
X76835000Y-81280000D03*
%TO.P,U6,3*%
%TO.N,D1*%
X69215000Y-68580000D03*
%TO.P,U6,12*%
%TO.N,/Wave Generator A/ADD7*%
X76835000Y-83820000D03*
%TO.P,U6,2*%
%TO.N,D0*%
X69215000Y-66040000D03*
%TO.P,U6,11*%
%TO.N,FA_L_SELECT*%
X76835000Y-86360000D03*
D14*
%TO.P,U6,1*%
%TO.N,GND*%
X69215000Y-63500000D03*
%TD*%
D13*
%TO.P,U5,16*%
%TO.N,+5V*%
X184785000Y-63500000D03*
%TO.P,U5,8*%
%TO.N,GND*%
X177165000Y-81280000D03*
%TO.P,U5,15*%
%TO.N,Net-(U5-Pad15)*%
X184785000Y-66040000D03*
%TO.P,U5,7*%
%TO.N,+5V*%
X177165000Y-78740000D03*
%TO.P,U5,14*%
%TO.N,CLK_500K*%
X184785000Y-68580000D03*
%TO.P,U5,6*%
%TO.N,Net-(U5-Pad6)*%
X177165000Y-76200000D03*
%TO.P,U5,13*%
%TO.N,CLK_250K*%
X184785000Y-71120000D03*
%TO.P,U5,5*%
%TO.N,Net-(U5-Pad5)*%
X177165000Y-73660000D03*
%TO.P,U5,12*%
%TO.N,CLK_125K*%
X184785000Y-73660000D03*
%TO.P,U5,4*%
%TO.N,Net-(U5-Pad4)*%
X177165000Y-71120000D03*
%TO.P,U5,11*%
%TO.N,CLK_62K5*%
X184785000Y-76200000D03*
%TO.P,U5,3*%
%TO.N,Net-(U5-Pad3)*%
X177165000Y-68580000D03*
%TO.P,U5,10*%
%TO.N,+5V*%
X184785000Y-78740000D03*
%TO.P,U5,2*%
%TO.N,CLK_1M*%
X177165000Y-66040000D03*
%TO.P,U5,9*%
%TO.N,+5V*%
X184785000Y-81280000D03*
D14*
%TO.P,U5,1*%
X177165000Y-63500000D03*
%TD*%
D13*
%TO.P,U4,20*%
%TO.N,+5V*%
X104775000Y-95250000D03*
%TO.P,U4,10*%
%TO.N,GND*%
X97155000Y-118110000D03*
%TO.P,U4,19*%
%TO.N,BUFFERED_A_0*%
X104775000Y-97790000D03*
%TO.P,U4,9*%
%TO.N,DIGITAL_B_3*%
X97155000Y-115570000D03*
%TO.P,U4,18*%
%TO.N,BUFFERED_A_1*%
X104775000Y-100330000D03*
%TO.P,U4,8*%
%TO.N,DIGITAL_B_2*%
X97155000Y-113030000D03*
%TO.P,U4,17*%
%TO.N,BUFFERED_A_2*%
X104775000Y-102870000D03*
%TO.P,U4,7*%
%TO.N,DIGITAL_B_1*%
X97155000Y-110490000D03*
%TO.P,U4,16*%
%TO.N,BUFFERED_A_3*%
X104775000Y-105410000D03*
%TO.P,U4,6*%
%TO.N,DIGITAL_B_0*%
X97155000Y-107950000D03*
%TO.P,U4,15*%
%TO.N,BUFFERED_B_0*%
X104775000Y-107950000D03*
%TO.P,U4,5*%
%TO.N,DIGITAL_A_3*%
X97155000Y-105410000D03*
%TO.P,U4,14*%
%TO.N,BUFFERED_B_1*%
X104775000Y-110490000D03*
%TO.P,U4,4*%
%TO.N,DIGITAL_A_2*%
X97155000Y-102870000D03*
%TO.P,U4,13*%
%TO.N,BUFFERED_B_2*%
X104775000Y-113030000D03*
%TO.P,U4,3*%
%TO.N,DIGITAL_A_1*%
X97155000Y-100330000D03*
%TO.P,U4,12*%
%TO.N,BUFFERED_B_3*%
X104775000Y-115570000D03*
%TO.P,U4,2*%
%TO.N,DIGITAL_A_0*%
X97155000Y-97790000D03*
%TO.P,U4,11*%
%TO.N,+5V*%
X104775000Y-118110000D03*
D14*
%TO.P,U4,1*%
%TO.N,GND*%
X97155000Y-95250000D03*
%TD*%
D13*
%TO.P,U3,16*%
%TO.N,+5V*%
X10795000Y-90170000D03*
%TO.P,U3,8*%
%TO.N,GND*%
X3175000Y-107950000D03*
%TO.P,U3,15*%
%TO.N,Net-(U2-Pad1)*%
X10795000Y-92710000D03*
%TO.P,U3,7*%
%TO.N,Net-(U3-Pad7)*%
X3175000Y-105410000D03*
%TO.P,U3,14*%
%TO.N,Net-(U2-Pad3)*%
X10795000Y-95250000D03*
%TO.P,U3,6*%
%TO.N,+5V*%
X3175000Y-102870000D03*
%TO.P,U3,13*%
%TO.N,Net-(U2-Pad5)*%
X10795000Y-97790000D03*
%TO.P,U3,5*%
%TO.N,!WRITE*%
X3175000Y-100330000D03*
%TO.P,U3,12*%
%TO.N,Net-(U3-Pad12)*%
X10795000Y-100330000D03*
%TO.P,U3,4*%
%TO.N,!AUDIO_SELECT*%
X3175000Y-97790000D03*
%TO.P,U3,11*%
%TO.N,Net-(U2-Pad9)*%
X10795000Y-102870000D03*
%TO.P,U3,3*%
%TO.N,A2*%
X3175000Y-95250000D03*
%TO.P,U3,10*%
%TO.N,Net-(U2-Pad11)*%
X10795000Y-105410000D03*
%TO.P,U3,2*%
%TO.N,A1*%
X3175000Y-92710000D03*
%TO.P,U3,9*%
%TO.N,Net-(U2-Pad13)*%
X10795000Y-107950000D03*
D14*
%TO.P,U3,1*%
%TO.N,A0*%
X3175000Y-90170000D03*
%TD*%
D13*
%TO.P,U2,14*%
%TO.N,+5V*%
X90805000Y-95250000D03*
%TO.P,U2,7*%
%TO.N,GND*%
X83185000Y-110490000D03*
%TO.P,U2,13*%
%TO.N,Net-(U2-Pad13)*%
X90805000Y-97790000D03*
%TO.P,U2,6*%
%TO.N,VA_SELECT*%
X83185000Y-107950000D03*
%TO.P,U2,12*%
%TO.N,VB_SELECT*%
X90805000Y-100330000D03*
%TO.P,U2,5*%
%TO.N,Net-(U2-Pad5)*%
X83185000Y-105410000D03*
%TO.P,U2,11*%
%TO.N,Net-(U2-Pad11)*%
X90805000Y-102870000D03*
%TO.P,U2,4*%
%TO.N,FA_L_SELECT*%
X83185000Y-102870000D03*
%TO.P,U2,10*%
%TO.N,FB_L_SELECT*%
X90805000Y-105410000D03*
%TO.P,U2,3*%
%TO.N,Net-(U2-Pad3)*%
X83185000Y-100330000D03*
%TO.P,U2,9*%
%TO.N,Net-(U2-Pad9)*%
X90805000Y-107950000D03*
%TO.P,U2,2*%
%TO.N,FA_H_SELECT*%
X83185000Y-97790000D03*
%TO.P,U2,8*%
%TO.N,FB_H_SELECT*%
X90805000Y-110490000D03*
D14*
%TO.P,U2,1*%
%TO.N,Net-(U2-Pad1)*%
X83185000Y-95250000D03*
%TD*%
D13*
%TO.P,U1,16*%
%TO.N,+5V*%
X10795000Y-63500000D03*
%TO.P,U1,8*%
%TO.N,GND*%
X3175000Y-81280000D03*
%TO.P,U1,15*%
%TO.N,!PARALLEL_SELECT*%
X10795000Y-66040000D03*
%TO.P,U1,7*%
%TO.N,Net-(U1-Pad7)*%
X3175000Y-78740000D03*
%TO.P,U1,14*%
%TO.N,!SERIAL_SELECT*%
X10795000Y-68580000D03*
%TO.P,U1,6*%
%TO.N,+5V*%
X3175000Y-76200000D03*
%TO.P,U1,13*%
%TO.N,!AUDIO_SELECT*%
X10795000Y-71120000D03*
%TO.P,U1,5*%
%TO.N,A7*%
X3175000Y-73660000D03*
%TO.P,U1,12*%
%TO.N,Net-(U1-Pad12)*%
X10795000Y-73660000D03*
%TO.P,U1,4*%
%TO.N,!P_SELECT*%
X3175000Y-71120000D03*
%TO.P,U1,11*%
%TO.N,Net-(U1-Pad11)*%
X10795000Y-76200000D03*
%TO.P,U1,3*%
%TO.N,A6*%
X3175000Y-68580000D03*
%TO.P,U1,10*%
%TO.N,Net-(U1-Pad10)*%
X10795000Y-78740000D03*
%TO.P,U1,2*%
%TO.N,A5*%
X3175000Y-66040000D03*
%TO.P,U1,9*%
%TO.N,Net-(U1-Pad9)*%
X10795000Y-81280000D03*
D14*
%TO.P,U1,1*%
%TO.N,A4*%
X3175000Y-63500000D03*
%TD*%
D13*
%TO.P,R19,2*%
%TO.N,DIGITAL_B_3*%
X159385000Y-128905000D03*
D10*
%TO.P,R19,1*%
%TO.N,GND*%
X149225000Y-128905000D03*
%TD*%
D13*
%TO.P,R18,2*%
%TO.N,DIGITAL_B_2*%
X159385000Y-123825000D03*
D10*
%TO.P,R18,1*%
%TO.N,GND*%
X149225000Y-123825000D03*
%TD*%
D13*
%TO.P,R17,2*%
%TO.N,DIGITAL_B_1*%
X146685000Y-128905000D03*
D10*
%TO.P,R17,1*%
%TO.N,GND*%
X136525000Y-128905000D03*
%TD*%
D13*
%TO.P,R16,2*%
%TO.N,DIGITAL_B_0*%
X146685000Y-123825000D03*
D10*
%TO.P,R16,1*%
%TO.N,GND*%
X136525000Y-123825000D03*
%TD*%
D13*
%TO.P,R15,2*%
%TO.N,DIGITAL_A_3*%
X133985000Y-128905000D03*
D10*
%TO.P,R15,1*%
%TO.N,GND*%
X123825000Y-128905000D03*
%TD*%
D13*
%TO.P,R14,2*%
%TO.N,DIGITAL_A_2*%
X133985000Y-123825000D03*
D10*
%TO.P,R14,1*%
%TO.N,GND*%
X123825000Y-123825000D03*
%TD*%
D13*
%TO.P,R13,2*%
%TO.N,DIGITAL_A_1*%
X121285000Y-128905000D03*
D10*
%TO.P,R13,1*%
%TO.N,GND*%
X111125000Y-128905000D03*
%TD*%
D13*
%TO.P,R12,2*%
%TO.N,DIGITAL_A_0*%
X121285000Y-123825000D03*
D10*
%TO.P,R12,1*%
%TO.N,GND*%
X111125000Y-123825000D03*
%TD*%
D13*
%TO.P,R11,2*%
%TO.N,BUFFERED_B_3*%
X66675000Y-128905000D03*
D10*
%TO.P,R11,1*%
%TO.N,ANALOG_OUT*%
X56515000Y-128905000D03*
%TD*%
D13*
%TO.P,R10,2*%
%TO.N,ANALOG_OUT*%
X79375000Y-123825000D03*
D10*
%TO.P,R10,1*%
%TO.N,BUFFERED_A_3*%
X69215000Y-123825000D03*
%TD*%
D13*
%TO.P,R9,2*%
%TO.N,ANALOG_OUT*%
X66675000Y-123825000D03*
D10*
%TO.P,R9,1*%
%TO.N,Net-(R6-Pad2)*%
X56515000Y-123825000D03*
%TD*%
D13*
%TO.P,R8,2*%
%TO.N,BUFFERED_B_2*%
X53975000Y-128905000D03*
D10*
%TO.P,R8,1*%
%TO.N,Net-(R6-Pad2)*%
X43815000Y-128905000D03*
%TD*%
D13*
%TO.P,R7,2*%
%TO.N,Net-(R6-Pad2)*%
X53975000Y-123825000D03*
D10*
%TO.P,R7,1*%
%TO.N,BUFFERED_A_2*%
X43815000Y-123825000D03*
%TD*%
D13*
%TO.P,R6,2*%
%TO.N,Net-(R6-Pad2)*%
X41275000Y-128905000D03*
D10*
%TO.P,R6,1*%
%TO.N,Net-(R3-Pad2)*%
X31115000Y-128905000D03*
%TD*%
D13*
%TO.P,R5,2*%
%TO.N,BUFFERED_B_1*%
X41275000Y-123825000D03*
D10*
%TO.P,R5,1*%
%TO.N,Net-(R3-Pad2)*%
X31115000Y-123825000D03*
%TD*%
D13*
%TO.P,R4,2*%
%TO.N,Net-(R3-Pad2)*%
X28575000Y-123825000D03*
D10*
%TO.P,R4,1*%
%TO.N,BUFFERED_A_1*%
X18415000Y-123825000D03*
%TD*%
D13*
%TO.P,R3,2*%
%TO.N,Net-(R3-Pad2)*%
X28575000Y-128905000D03*
D10*
%TO.P,R3,1*%
%TO.N,Net-(R1-Pad2)*%
X18415000Y-128905000D03*
%TD*%
D13*
%TO.P,R2,2*%
%TO.N,BUFFERED_B_0*%
X15875000Y-123825000D03*
D10*
%TO.P,R2,1*%
%TO.N,Net-(R1-Pad2)*%
X5715000Y-123825000D03*
%TD*%
D13*
%TO.P,R1,2*%
%TO.N,Net-(R1-Pad2)*%
X15875000Y-128905000D03*
D10*
%TO.P,R1,1*%
%TO.N,BUFFERED_A_0*%
X5715000Y-128905000D03*
%TD*%
D15*
%TO.P,J2,40*%
%TO.N,GND*%
X142240000Y-114300000D03*
%TO.P,J2,39*%
X139700000Y-114300000D03*
%TO.P,J2,38*%
%TO.N,+5V*%
X142240000Y-111760000D03*
%TO.P,J2,37*%
X139700000Y-111760000D03*
%TO.P,J2,36*%
%TO.N,Net-(J2-Pad36)*%
X142240000Y-109220000D03*
%TO.P,J2,35*%
%TO.N,Net-(J2-Pad35)*%
X139700000Y-109220000D03*
%TO.P,J2,34*%
%TO.N,Net-(J2-Pad34)*%
X142240000Y-106680000D03*
%TO.P,J2,33*%
%TO.N,Net-(J2-Pad33)*%
X139700000Y-106680000D03*
%TO.P,J2,32*%
%TO.N,Net-(J2-Pad32)*%
X142240000Y-104140000D03*
%TO.P,J2,31*%
%TO.N,Net-(J2-Pad31)*%
X139700000Y-104140000D03*
%TO.P,J2,30*%
%TO.N,Net-(J2-Pad30)*%
X142240000Y-101600000D03*
%TO.P,J2,29*%
%TO.N,Net-(J2-Pad29)*%
X139700000Y-101600000D03*
%TO.P,J2,28*%
%TO.N,Net-(J2-Pad28)*%
X142240000Y-99060000D03*
%TO.P,J2,27*%
%TO.N,Net-(J2-Pad27)*%
X139700000Y-99060000D03*
%TO.P,J2,26*%
%TO.N,Net-(J2-Pad26)*%
X142240000Y-96520000D03*
%TO.P,J2,25*%
%TO.N,Net-(J2-Pad25)*%
X139700000Y-96520000D03*
%TO.P,J2,24*%
%TO.N,Net-(J2-Pad24)*%
X142240000Y-93980000D03*
%TO.P,J2,23*%
%TO.N,Net-(J2-Pad23)*%
X139700000Y-93980000D03*
%TO.P,J2,22*%
%TO.N,Net-(J2-Pad22)*%
X142240000Y-91440000D03*
%TO.P,J2,21*%
%TO.N,Net-(J2-Pad21)*%
X139700000Y-91440000D03*
%TO.P,J2,20*%
%TO.N,Net-(J2-Pad20)*%
X142240000Y-88900000D03*
%TO.P,J2,19*%
%TO.N,Net-(J2-Pad19)*%
X139700000Y-88900000D03*
%TO.P,J2,18*%
%TO.N,Net-(J2-Pad18)*%
X142240000Y-86360000D03*
%TO.P,J2,17*%
%TO.N,Net-(J2-Pad17)*%
X139700000Y-86360000D03*
%TO.P,J2,16*%
%TO.N,Net-(J2-Pad16)*%
X142240000Y-83820000D03*
%TO.P,J2,15*%
%TO.N,Net-(J2-Pad15)*%
X139700000Y-83820000D03*
%TO.P,J2,14*%
%TO.N,Net-(J2-Pad14)*%
X142240000Y-81280000D03*
%TO.P,J2,13*%
%TO.N,Net-(J2-Pad13)*%
X139700000Y-81280000D03*
%TO.P,J2,12*%
%TO.N,Net-(J2-Pad12)*%
X142240000Y-78740000D03*
%TO.P,J2,11*%
%TO.N,Net-(J2-Pad11)*%
X139700000Y-78740000D03*
%TO.P,J2,10*%
%TO.N,Net-(J2-Pad10)*%
X142240000Y-76200000D03*
%TO.P,J2,9*%
%TO.N,Net-(J2-Pad9)*%
X139700000Y-76200000D03*
%TO.P,J2,8*%
%TO.N,Net-(J2-Pad8)*%
X142240000Y-73660000D03*
%TO.P,J2,7*%
%TO.N,Net-(J2-Pad7)*%
X139700000Y-73660000D03*
%TO.P,J2,6*%
%TO.N,Net-(J2-Pad6)*%
X142240000Y-71120000D03*
%TO.P,J2,5*%
%TO.N,Net-(J2-Pad5)*%
X139700000Y-71120000D03*
%TO.P,J2,4*%
%TO.N,Net-(J2-Pad4)*%
X142240000Y-68580000D03*
%TO.P,J2,3*%
%TO.N,Net-(J2-Pad3)*%
X139700000Y-68580000D03*
%TO.P,J2,2*%
%TO.N,Net-(J2-Pad2)*%
X142240000Y-66040000D03*
D16*
%TO.P,J2,1*%
%TO.N,Net-(J2-Pad1)*%
X139700000Y-66040000D03*
%TD*%
D15*
%TO.P,J1,40*%
%TO.N,GND*%
X48260000Y-114300000D03*
%TO.P,J1,39*%
X45720000Y-114300000D03*
%TO.P,J1,38*%
%TO.N,+5V*%
X48260000Y-111760000D03*
%TO.P,J1,37*%
X45720000Y-111760000D03*
%TO.P,J1,36*%
%TO.N,D7*%
X48260000Y-109220000D03*
%TO.P,J1,35*%
%TO.N,D6*%
X45720000Y-109220000D03*
%TO.P,J1,34*%
%TO.N,D5*%
X48260000Y-106680000D03*
%TO.P,J1,33*%
%TO.N,D4*%
X45720000Y-106680000D03*
%TO.P,J1,32*%
%TO.N,D3*%
X48260000Y-104140000D03*
%TO.P,J1,31*%
%TO.N,D2*%
X45720000Y-104140000D03*
%TO.P,J1,30*%
%TO.N,D1*%
X48260000Y-101600000D03*
%TO.P,J1,29*%
%TO.N,D0*%
X45720000Y-101600000D03*
%TO.P,J1,28*%
%TO.N,A15*%
X48260000Y-99060000D03*
%TO.P,J1,27*%
%TO.N,A14*%
X45720000Y-99060000D03*
%TO.P,J1,26*%
%TO.N,A13*%
X48260000Y-96520000D03*
%TO.P,J1,25*%
%TO.N,A12*%
X45720000Y-96520000D03*
%TO.P,J1,24*%
%TO.N,A11*%
X48260000Y-93980000D03*
%TO.P,J1,23*%
%TO.N,A10*%
X45720000Y-93980000D03*
%TO.P,J1,22*%
%TO.N,A9*%
X48260000Y-91440000D03*
%TO.P,J1,21*%
%TO.N,A8*%
X45720000Y-91440000D03*
%TO.P,J1,20*%
%TO.N,A7*%
X48260000Y-88900000D03*
%TO.P,J1,19*%
%TO.N,A6*%
X45720000Y-88900000D03*
%TO.P,J1,18*%
%TO.N,A5*%
X48260000Y-86360000D03*
%TO.P,J1,17*%
%TO.N,A4*%
X45720000Y-86360000D03*
%TO.P,J1,16*%
%TO.N,A3*%
X48260000Y-83820000D03*
%TO.P,J1,15*%
%TO.N,A2*%
X45720000Y-83820000D03*
%TO.P,J1,14*%
%TO.N,A1*%
X48260000Y-81280000D03*
%TO.P,J1,13*%
%TO.N,A0*%
X45720000Y-81280000D03*
%TO.P,J1,12*%
%TO.N,!P_SELECT*%
X48260000Y-78740000D03*
%TO.P,J1,11*%
%TO.N,RDY*%
X45720000Y-78740000D03*
%TO.P,J1,10*%
%TO.N,!RESET*%
X48260000Y-76200000D03*
%TO.P,J1,9*%
%TO.N,R!W*%
X45720000Y-76200000D03*
%TO.P,J1,8*%
%TO.N,!WRITE*%
X48260000Y-73660000D03*
%TO.P,J1,7*%
%TO.N,!READ*%
X45720000Y-73660000D03*
%TO.P,J1,6*%
%TO.N,!NMI*%
X48260000Y-71120000D03*
%TO.P,J1,5*%
%TO.N,!IRQ*%
X45720000Y-71120000D03*
%TO.P,J1,4*%
%TO.N,PHI2*%
X48260000Y-68580000D03*
%TO.P,J1,3*%
%TO.N,PHI1*%
X45720000Y-68580000D03*
%TO.P,J1,2*%
%TO.N,CLK*%
X48260000Y-66040000D03*
D16*
%TO.P,J1,1*%
%TO.N,GND*%
X45720000Y-66040000D03*
%TD*%
D17*
%TO.N,D7*%
X90903900Y-89253600D03*
%TO.N,D5*%
X60559700Y-78740000D03*
%TO.N,D3*%
X116612200Y-75222300D03*
X60678500Y-73660000D03*
%TO.N,!AUDIO_SELECT*%
X9643400Y-89406100D03*
%TO.N,FB_H_SELECT*%
X93470800Y-92902000D03*
%TO.N,DIGITAL_B_0*%
X130507100Y-109424500D03*
%TO.N,CLK_62K5*%
X71515400Y-124952000D03*
%TO.N,BUFFERED_A_2*%
X102351200Y-111405700D03*
%TO.N,BUFFERED_A_3*%
X75955000Y-119633700D03*
%TO.N,DIGITAL_A_2*%
X101381600Y-126436900D03*
%TO.N,DIGITAL_A_3*%
X107665900Y-108261100D03*
%TO.N,Net-(U2-Pad3)*%
X80816100Y-92101900D03*
%TO.N,/Wave Generator A/ADD1*%
X75618100Y-62540600D03*
%TO.N,/Wave Generator A/ADD2*%
X74504400Y-62149000D03*
%TO.N,/Wave Generator A/ADD5*%
X73513100Y-62245600D03*
%TO.N,/Wave Generator A/ADD6*%
X71992700Y-61864000D03*
%TO.N,/Wave Generator A/ADD7*%
X43065200Y-86285100D03*
X65539100Y-87569300D03*
%TO.N,/Wave Generator A/ADD8*%
X86241100Y-102731000D03*
%TO.N,/Wave Generator A/ADD9*%
X88404600Y-87287000D03*
%TO.N,/Wave Generator A/ADD10*%
X86864000Y-71957700D03*
%TO.N,/Wave Generator A/ADD12*%
X78137400Y-104140000D03*
%TO.N,/Wave Generator A/ADD13*%
X56370400Y-91095100D03*
X89267300Y-83076600D03*
%TO.N,/Wave Generator A/ADD14*%
X81462400Y-97556800D03*
%TO.N,/Wave Generator A/ADD15*%
X89679600Y-87872500D03*
%TO.N,/Wave Generator A/SUM7*%
X26690300Y-87124300D03*
%TO.N,/Wave Generator A/COUNT15*%
X60468100Y-97262600D03*
X50256300Y-94458600D03*
%TO.N,/Wave Generator A/COUNT11*%
X72903500Y-106301100D03*
%TO.N,/Wave Generator A/SUM11*%
X75559500Y-113675200D03*
%TO.N,/Wave Generator A/SUM14*%
X60906700Y-98633500D03*
X50228300Y-95704900D03*
%TO.N,/Wave Generator A/COUNT10*%
X74752500Y-100330000D03*
%TO.N,/Wave Generator A/SUM13*%
X50295100Y-98055700D03*
%TO.N,/Wave Generator A/CARRY1*%
X54287200Y-80218900D03*
%TO.N,/Wave Generator B/ADD0*%
X127619600Y-71230600D03*
%TO.N,/Wave Generator B/ADD14*%
X121129500Y-95418800D03*
%TO.N,/Wave Generator B/ADD15*%
X113396400Y-100232200D03*
%TO.N,/Wave Generator B/SUM7*%
X160059800Y-91417700D03*
%TO.N,/Wave Generator B/SUM15*%
X151083600Y-96816000D03*
%TO.N,/Wave Generator B/SUM11*%
X147021700Y-109883800D03*
%TO.N,/Wave Generator B/SUM14*%
X150674600Y-98622500D03*
%TO.N,/Wave Generator B/COUNT13*%
X131048400Y-101366200D03*
X146655700Y-104624000D03*
%TO.N,/Wave Generator B/SUM9*%
X134777500Y-92838100D03*
%TO.N,/Wave Generator B/SUM12*%
X128388400Y-112304600D03*
X154632700Y-109669800D03*
%TO.N,/Wave Generator B/CARRY1*%
X155593500Y-83052000D03*
%TD*%
D18*
%TO.N,GND*%
X112475000Y-89535000D02*
X113862000Y-88148000D01*
X113862000Y-88148000D02*
X123307000Y-88148000D01*
X123307000Y-88148000D02*
X125095000Y-86360000D01*
X17145000Y-81280000D02*
X18415000Y-80010000D01*
X18415000Y-80010000D02*
X29845000Y-80010000D01*
X29845000Y-80010000D02*
X31115000Y-81280000D01*
X4445000Y-84455000D02*
X5751900Y-83148100D01*
X5751900Y-83148100D02*
X15276900Y-83148100D01*
X15276900Y-83148100D02*
X17145000Y-81280000D01*
X142240000Y-114300000D02*
X147955000Y-114300000D01*
X147955000Y-114300000D02*
X149225000Y-113030000D01*
X139700000Y-114300000D02*
X142240000Y-114300000D01*
X55245000Y-113030000D02*
X60188400Y-113030000D01*
X60188400Y-113030000D02*
X63363400Y-116205000D01*
X63363400Y-116205000D02*
X70565000Y-116205000D01*
X70565000Y-89535000D02*
X71815300Y-88284700D01*
X71815300Y-88284700D02*
X81260300Y-88284700D01*
X81260300Y-88284700D02*
X83185000Y-86360000D01*
X111125000Y-123825000D02*
X101045000Y-123825000D01*
X101045000Y-123825000D02*
X98505000Y-121285000D01*
X97155000Y-86360000D02*
X95904600Y-85109600D01*
X95904600Y-85109600D02*
X84435400Y-85109600D01*
X84435400Y-85109600D02*
X83185000Y-86360000D01*
X55245000Y-86360000D02*
X56515000Y-85090000D01*
X56515000Y-85090000D02*
X67945000Y-85090000D01*
X67945000Y-85090000D02*
X69215000Y-86360000D01*
X163195000Y-81280000D02*
X161925000Y-80010000D01*
X161925000Y-80010000D02*
X150495000Y-80010000D01*
X150495000Y-80010000D02*
X149225000Y-81280000D01*
X177165000Y-81280000D02*
X175895000Y-80010000D01*
X175895000Y-80010000D02*
X164465000Y-80010000D01*
X164465000Y-80010000D02*
X163195000Y-81280000D01*
X69215000Y-63500000D02*
X67964700Y-62249700D01*
X67964700Y-62249700D02*
X49510300Y-62249700D01*
X49510300Y-62249700D02*
X45720000Y-66040000D01*
X83185000Y-63500000D02*
X81915000Y-64770000D01*
X81915000Y-64770000D02*
X70485000Y-64770000D01*
X70485000Y-64770000D02*
X69215000Y-63500000D01*
X3175000Y-107950000D02*
X1924600Y-106699600D01*
X1924600Y-106699600D02*
X1924600Y-86975400D01*
X1924600Y-86975400D02*
X4445000Y-84455000D01*
X111125000Y-128905000D02*
X112380100Y-127649900D01*
X112380100Y-127649900D02*
X122569900Y-127649900D01*
X122569900Y-127649900D02*
X123825000Y-128905000D01*
X79375000Y-128905000D02*
X111125000Y-128905000D01*
X98505000Y-89535000D02*
X99968000Y-88072000D01*
X99968000Y-88072000D02*
X109413000Y-88072000D01*
X109413000Y-88072000D02*
X111125000Y-86360000D01*
X111125000Y-63500000D02*
X109855000Y-64770000D01*
X109855000Y-64770000D02*
X98425000Y-64770000D01*
X98425000Y-64770000D02*
X97155000Y-63500000D01*
X97155000Y-63500000D02*
X95904600Y-64750400D01*
X95904600Y-64750400D02*
X84435400Y-64750400D01*
X84435400Y-64750400D02*
X83185000Y-63500000D01*
X32385000Y-116205000D02*
X31113900Y-114933900D01*
X31113900Y-114933900D02*
X19766100Y-114933900D01*
X19766100Y-114933900D02*
X18495000Y-116205000D01*
X32385000Y-116205000D02*
X34290000Y-114300000D01*
X34290000Y-114300000D02*
X45720000Y-114300000D01*
X69215000Y-113030000D02*
X70485000Y-111760000D01*
X70485000Y-111760000D02*
X81915000Y-111760000D01*
X81915000Y-111760000D02*
X83185000Y-110490000D01*
X150495000Y-116205000D02*
X151745400Y-114954600D01*
X151745400Y-114954600D02*
X163214600Y-114954600D01*
X163214600Y-114954600D02*
X164465000Y-116205000D01*
X177165000Y-114300000D02*
X166370000Y-114300000D01*
X166370000Y-114300000D02*
X164465000Y-116205000D01*
X45720000Y-114300000D02*
X48260000Y-114300000D01*
X17145000Y-113030000D02*
X6430000Y-113030000D01*
X6430000Y-113030000D02*
X4525000Y-111125000D01*
%TO.N,+5V*%
X170815000Y-90170000D02*
X175895000Y-90170000D01*
X175895000Y-90170000D02*
X177165000Y-91440000D01*
X169465000Y-88820000D02*
X170815000Y-90170000D01*
X156845000Y-90170000D02*
X163195000Y-90170000D01*
X155495000Y-88820000D02*
X156845000Y-90170000D01*
X90805000Y-95250000D02*
X89535000Y-93980000D01*
X89535000Y-93980000D02*
X89535000Y-89535000D01*
X48260000Y-111760000D02*
X50837000Y-114337000D01*
X50837000Y-114337000D02*
X59727000Y-114337000D01*
X59727000Y-114337000D02*
X61595000Y-116205000D01*
X45720000Y-111760000D02*
X48260000Y-111760000D01*
X155495000Y-84455000D02*
X155495000Y-88820000D01*
X155495000Y-88820000D02*
X150575000Y-88820000D01*
X150575000Y-88820000D02*
X149225000Y-90170000D01*
X104775000Y-118110000D02*
X115570000Y-118110000D01*
X115570000Y-118110000D02*
X117475000Y-116205000D01*
X104775000Y-63500000D02*
X103524600Y-62249600D01*
X103524600Y-62249600D02*
X92055400Y-62249600D01*
X92055400Y-62249600D02*
X90805000Y-63500000D01*
X169465000Y-84455000D02*
X169465000Y-88820000D01*
X163195000Y-90170000D02*
X168115000Y-90170000D01*
X168115000Y-90170000D02*
X169465000Y-88820000D01*
X139700000Y-111760000D02*
X142240000Y-111760000D01*
X90805000Y-63500000D02*
X89554600Y-62249600D01*
X89554600Y-62249600D02*
X78085400Y-62249600D01*
X78085400Y-62249600D02*
X76835000Y-63500000D01*
X89535000Y-113665000D02*
X86935800Y-113665000D01*
X86935800Y-113665000D02*
X84395800Y-116205000D01*
X84395800Y-116205000D02*
X75565000Y-116205000D01*
X169465000Y-116205000D02*
X182165000Y-116205000D01*
X182165000Y-116205000D02*
X183435000Y-117475000D01*
X156845000Y-63500000D02*
X155594600Y-64750400D01*
X155594600Y-64750400D02*
X143129600Y-64750400D01*
X143129600Y-64750400D02*
X141879200Y-63500000D01*
X141879200Y-63500000D02*
X132715000Y-63500000D01*
X24765000Y-90170000D02*
X17145000Y-90170000D01*
X31115000Y-90170000D02*
X24765000Y-90170000D01*
X177165000Y-78740000D02*
X184785000Y-78740000D01*
X177165000Y-63500000D02*
X170815000Y-63500000D01*
X17145000Y-90170000D02*
X10795000Y-90170000D01*
D19*
%TO.N,D7*%
X98301300Y-84966300D02*
X98301300Y-86850800D01*
X98301300Y-86850800D02*
X95898500Y-89253600D01*
X95898500Y-89253600D02*
X90903900Y-89253600D01*
X111125000Y-83820000D02*
X112271600Y-84966600D01*
X112271600Y-84966600D02*
X123948400Y-84966600D01*
X123948400Y-84966600D02*
X125095000Y-83820000D01*
X98301300Y-84966300D02*
X109978700Y-84966300D01*
X109978700Y-84966300D02*
X111125000Y-83820000D01*
X98301300Y-84966300D02*
X97155000Y-83820000D01*
X69215000Y-83820000D02*
X70346000Y-84951000D01*
X70346000Y-84951000D02*
X82054000Y-84951000D01*
X82054000Y-84951000D02*
X83185000Y-83820000D01*
X69215000Y-83820000D02*
X68089600Y-82694600D01*
X68089600Y-82694600D02*
X56370400Y-82694600D01*
X56370400Y-82694600D02*
X55245000Y-83820000D01*
%TO.N,D6*%
X97155000Y-81280000D02*
X95983700Y-82451300D01*
X95983700Y-82451300D02*
X84356300Y-82451300D01*
X84356300Y-82451300D02*
X83185000Y-81280000D01*
X97155000Y-81280000D02*
X98280400Y-82405400D01*
X98280400Y-82405400D02*
X109999600Y-82405400D01*
X109999600Y-82405400D02*
X111125000Y-81280000D01*
X83185000Y-81280000D02*
X82043000Y-82422000D01*
X82043000Y-82422000D02*
X70357000Y-82422000D01*
X70357000Y-82422000D02*
X69215000Y-81280000D01*
X55245000Y-81280000D02*
X56376800Y-80148200D01*
X56376800Y-80148200D02*
X68083200Y-80148200D01*
X68083200Y-80148200D02*
X69215000Y-81280000D01*
X111125000Y-81280000D02*
X112273900Y-80131100D01*
X112273900Y-80131100D02*
X123946100Y-80131100D01*
X123946100Y-80131100D02*
X125095000Y-81280000D01*
%TO.N,D5*%
X97155000Y-78740000D02*
X98296300Y-79881300D01*
X98296300Y-79881300D02*
X109983700Y-79881300D01*
X109983700Y-79881300D02*
X111125000Y-78740000D01*
X83185000Y-78740000D02*
X84310400Y-79865400D01*
X84310400Y-79865400D02*
X96029600Y-79865400D01*
X96029600Y-79865400D02*
X97155000Y-78740000D01*
X55245000Y-78740000D02*
X60559700Y-78740000D01*
X69215000Y-78740000D02*
X70342500Y-79867500D01*
X70342500Y-79867500D02*
X82057500Y-79867500D01*
X82057500Y-79867500D02*
X83185000Y-78740000D01*
X111125000Y-78740000D02*
X112251400Y-77613600D01*
X112251400Y-77613600D02*
X120278300Y-77613600D01*
X120278300Y-77613600D02*
X121404700Y-78740000D01*
X121404700Y-78740000D02*
X125095000Y-78740000D01*
%TO.N,D4*%
X111125000Y-76200000D02*
X116518900Y-76200000D01*
X116518900Y-76200000D02*
X117656600Y-75062300D01*
X117656600Y-75062300D02*
X119829000Y-75062300D01*
X119829000Y-75062300D02*
X120966700Y-76200000D01*
X120966700Y-76200000D02*
X125095000Y-76200000D01*
X55245000Y-76200000D02*
X56396900Y-77351900D01*
X56396900Y-77351900D02*
X68063100Y-77351900D01*
X68063100Y-77351900D02*
X69215000Y-76200000D01*
X69215000Y-76200000D02*
X70346500Y-77331500D01*
X70346500Y-77331500D02*
X82053500Y-77331500D01*
X82053500Y-77331500D02*
X83185000Y-76200000D01*
X97155000Y-76200000D02*
X98296500Y-77341500D01*
X98296500Y-77341500D02*
X109983500Y-77341500D01*
X109983500Y-77341500D02*
X111125000Y-76200000D01*
X83185000Y-76200000D02*
X84326300Y-77341300D01*
X84326300Y-77341300D02*
X96013700Y-77341300D01*
X96013700Y-77341300D02*
X97155000Y-76200000D01*
%TO.N,D3*%
X83185000Y-73660000D02*
X84331800Y-74806800D01*
X84331800Y-74806800D02*
X96008200Y-74806800D01*
X96008200Y-74806800D02*
X97155000Y-73660000D01*
X83185000Y-73660000D02*
X82037700Y-74807300D01*
X82037700Y-74807300D02*
X70362300Y-74807300D01*
X70362300Y-74807300D02*
X69215000Y-73660000D01*
X111125000Y-73976700D02*
X115366600Y-73976700D01*
X115366600Y-73976700D02*
X116612200Y-75222300D01*
X97155000Y-73660000D02*
X98297800Y-74802800D01*
X98297800Y-74802800D02*
X110298900Y-74802800D01*
X110298900Y-74802800D02*
X111125000Y-73976700D01*
X111125000Y-73976700D02*
X111125000Y-73660000D01*
X55245000Y-73660000D02*
X60678500Y-73660000D01*
%TO.N,D2*%
X111125000Y-71120000D02*
X112267200Y-72262200D01*
X112267200Y-72262200D02*
X123952800Y-72262200D01*
X123952800Y-72262200D02*
X125095000Y-71120000D01*
X97155000Y-71120000D02*
X98299000Y-72264000D01*
X98299000Y-72264000D02*
X109981000Y-72264000D01*
X109981000Y-72264000D02*
X111125000Y-71120000D01*
X83185000Y-71120000D02*
X84648000Y-72583000D01*
X84648000Y-72583000D02*
X87123100Y-72583000D01*
X87123100Y-72583000D02*
X87450100Y-72256000D01*
X87450100Y-72256000D02*
X96019000Y-72256000D01*
X96019000Y-72256000D02*
X97155000Y-71120000D01*
X83185000Y-71120000D02*
X82047300Y-72257700D01*
X82047300Y-72257700D02*
X75751000Y-72257700D01*
X75751000Y-72257700D02*
X74613300Y-71120000D01*
X74613300Y-71120000D02*
X69215000Y-71120000D01*
X55245000Y-71120000D02*
X56370400Y-69994600D01*
X56370400Y-69994600D02*
X68089600Y-69994600D01*
X68089600Y-69994600D02*
X69215000Y-71120000D01*
%TO.N,D1*%
X111125000Y-68580000D02*
X112250400Y-69705400D01*
X112250400Y-69705400D02*
X123969600Y-69705400D01*
X123969600Y-69705400D02*
X125095000Y-68580000D01*
X97155000Y-68580000D02*
X98296500Y-69721500D01*
X98296500Y-69721500D02*
X109983500Y-69721500D01*
X109983500Y-69721500D02*
X111125000Y-68580000D01*
X97155000Y-68580000D02*
X96013600Y-69721400D01*
X96013600Y-69721400D02*
X84326400Y-69721400D01*
X84326400Y-69721400D02*
X83185000Y-68580000D01*
X83185000Y-68580000D02*
X82043400Y-69721600D01*
X82043400Y-69721600D02*
X70356600Y-69721600D01*
X70356600Y-69721600D02*
X69215000Y-68580000D01*
%TO.N,D0*%
X111125000Y-66040000D02*
X112288400Y-67203400D01*
X112288400Y-67203400D02*
X123931600Y-67203400D01*
X123931600Y-67203400D02*
X125095000Y-66040000D01*
X97155000Y-66040000D02*
X98280400Y-67165400D01*
X98280400Y-67165400D02*
X109999600Y-67165400D01*
X109999600Y-67165400D02*
X111125000Y-66040000D01*
X55245000Y-66040000D02*
X56386300Y-64898700D01*
X56386300Y-64898700D02*
X68073700Y-64898700D01*
X68073700Y-64898700D02*
X69215000Y-66040000D01*
X83185000Y-66040000D02*
X84334400Y-67189400D01*
X84334400Y-67189400D02*
X96005600Y-67189400D01*
X96005600Y-67189400D02*
X97155000Y-66040000D01*
%TO.N,A2*%
X3175000Y-95250000D02*
X3175000Y-94937900D01*
X3175000Y-94937900D02*
X9444500Y-88668400D01*
X9444500Y-88668400D02*
X38634600Y-88668400D01*
X38634600Y-88668400D02*
X43483000Y-83820000D01*
X43483000Y-83820000D02*
X45720000Y-83820000D01*
%TO.N,A1*%
X3175000Y-92710000D02*
X7666900Y-88218100D01*
X7666900Y-88218100D02*
X37970200Y-88218100D01*
X37970200Y-88218100D02*
X43732900Y-82455400D01*
X43732900Y-82455400D02*
X47084600Y-82455400D01*
X47084600Y-82455400D02*
X48260000Y-81280000D01*
%TO.N,A0*%
X3175000Y-90170000D02*
X5577200Y-87767800D01*
X5577200Y-87767800D02*
X37146700Y-87767800D01*
X37146700Y-87767800D02*
X43634500Y-81280000D01*
X43634500Y-81280000D02*
X45720000Y-81280000D01*
%TO.N,!P_SELECT*%
X3175000Y-71120000D02*
X9525000Y-77470000D01*
X9525000Y-77470000D02*
X46990000Y-77470000D01*
X46990000Y-77470000D02*
X48260000Y-78740000D01*
%TO.N,Net-(U2-Pad13)*%
X10795000Y-107950000D02*
X14605000Y-111760000D01*
X14605000Y-111760000D02*
X17523700Y-111760000D01*
X17523700Y-111760000D02*
X18273400Y-112509700D01*
X18273400Y-112509700D02*
X18273400Y-114355500D01*
X18273400Y-114355500D02*
X17356800Y-115272100D01*
X17356800Y-115272100D02*
X17356800Y-116715300D01*
X17356800Y-116715300D02*
X18439200Y-117797700D01*
X18439200Y-117797700D02*
X71651900Y-117797700D01*
X71651900Y-117797700D02*
X74968700Y-114480900D01*
X74968700Y-114480900D02*
X80792800Y-114480900D01*
X80792800Y-114480900D02*
X89223800Y-106049900D01*
X89223800Y-106049900D02*
X89223800Y-99371200D01*
X89223800Y-99371200D02*
X90805000Y-97790000D01*
%TO.N,Net-(U2-Pad9)*%
X10795000Y-102870000D02*
X3351700Y-110313300D01*
X3351700Y-110313300D02*
X3351700Y-111607300D01*
X3351700Y-111607300D02*
X9992400Y-118248000D01*
X9992400Y-118248000D02*
X71918300Y-118248000D01*
X71918300Y-118248000D02*
X75207900Y-114958400D01*
X75207900Y-114958400D02*
X81075800Y-114958400D01*
X81075800Y-114958400D02*
X88084200Y-107950000D01*
X88084200Y-107950000D02*
X90805000Y-107950000D01*
%TO.N,BUFFERED_B_0*%
X15875000Y-123825000D02*
X17064600Y-125014600D01*
X17064600Y-125014600D02*
X21302300Y-125014600D01*
X21302300Y-125014600D02*
X26057900Y-120259000D01*
X26057900Y-120259000D02*
X85332400Y-120259000D01*
X85332400Y-120259000D02*
X88999800Y-116591600D01*
X88999800Y-116591600D02*
X90561200Y-116591600D01*
X90561200Y-116591600D02*
X95392800Y-111760000D01*
X95392800Y-111760000D02*
X100965000Y-111760000D01*
X100965000Y-111760000D02*
X104775000Y-107950000D01*
%TO.N,BUFFERED_B_1*%
X41275000Y-123825000D02*
X42464600Y-125014600D01*
X42464600Y-125014600D02*
X46065400Y-125014600D01*
X46065400Y-125014600D02*
X49920400Y-121159600D01*
X49920400Y-121159600D02*
X85850800Y-121159600D01*
X85850800Y-121159600D02*
X88602700Y-118407700D01*
X88602700Y-118407700D02*
X94461900Y-118407700D01*
X94461900Y-118407700D02*
X96029600Y-116840000D01*
X96029600Y-116840000D02*
X98425000Y-116840000D01*
X98425000Y-116840000D02*
X104775000Y-110490000D01*
%TO.N,BUFFERED_B_2*%
X53975000Y-128905000D02*
X61270100Y-121609900D01*
X61270100Y-121609900D02*
X86037400Y-121609900D01*
X86037400Y-121609900D02*
X88388300Y-119259000D01*
X88388300Y-119259000D02*
X98546000Y-119259000D01*
X98546000Y-119259000D02*
X104775000Y-113030000D01*
%TO.N,ANALOG_OUT*%
X177165000Y-111760000D02*
X152339500Y-111760000D01*
X152339500Y-111760000D02*
X143939800Y-120159700D01*
X143939800Y-120159700D02*
X94541100Y-120159700D01*
X94541100Y-120159700D02*
X92075000Y-122625800D01*
X79375000Y-123825000D02*
X80574200Y-122625800D01*
X80574200Y-122625800D02*
X92075000Y-122625800D01*
X92075000Y-123825000D02*
X92075000Y-122625800D01*
%TO.N,BUFFERED_B_3*%
X104775000Y-115570000D02*
X100635600Y-119709400D01*
X100635600Y-119709400D02*
X88574800Y-119709400D01*
X88574800Y-119709400D02*
X86224000Y-122060200D01*
X86224000Y-122060200D02*
X73519800Y-122060200D01*
X73519800Y-122060200D02*
X66675000Y-128905000D01*
%TO.N,!AUDIO_SELECT*%
X9643400Y-89406100D02*
X9643400Y-91321600D01*
X9643400Y-91321600D02*
X3175000Y-97790000D01*
%TO.N,VB_SELECT*%
X90805000Y-100330000D02*
X94759600Y-96375400D01*
X94759600Y-96375400D02*
X99236400Y-96375400D01*
X99236400Y-96375400D02*
X104759900Y-90851900D01*
X104759900Y-90851900D02*
X128223100Y-90851900D01*
X128223100Y-90851900D02*
X132715000Y-86360000D01*
%TO.N,FB_L_SELECT*%
X90805000Y-105410000D02*
X89674200Y-104279200D01*
X89674200Y-104279200D02*
X89674200Y-99786100D01*
X89674200Y-99786100D02*
X90400300Y-99060000D01*
X90400300Y-99060000D02*
X91140100Y-99060000D01*
X91140100Y-99060000D02*
X98097200Y-92102900D01*
X98097200Y-92102900D02*
X102872000Y-92102900D01*
X102872000Y-92102900D02*
X105279800Y-89695100D01*
X105279800Y-89695100D02*
X110127900Y-89695100D01*
X110127900Y-89695100D02*
X113463000Y-86360000D01*
X113463000Y-86360000D02*
X118745000Y-86360000D01*
%TO.N,FA_H_SELECT*%
X83185000Y-97790000D02*
X83362800Y-97790000D01*
X83362800Y-97790000D02*
X86773900Y-94378900D01*
X86773900Y-94378900D02*
X86773900Y-89890500D01*
X86773900Y-89890500D02*
X90304400Y-86360000D01*
X90304400Y-86360000D02*
X90805000Y-86360000D01*
%TO.N,FB_H_SELECT*%
X93470800Y-92902000D02*
X100012800Y-86360000D01*
X100012800Y-86360000D02*
X104775000Y-86360000D01*
%TO.N,DIGITAL_B_0*%
X97155000Y-107950000D02*
X98345600Y-106759400D01*
X98345600Y-106759400D02*
X105221300Y-106759400D01*
X105221300Y-106759400D02*
X110113400Y-111651500D01*
X110113400Y-111651500D02*
X128280100Y-111651500D01*
X128280100Y-111651500D02*
X130507100Y-109424500D01*
%TO.N,CLK_62K5*%
X156845000Y-113030000D02*
X152056000Y-113030000D01*
X152056000Y-113030000D02*
X144145700Y-120940300D01*
X144145700Y-120940300D02*
X135231900Y-120940300D01*
X135231900Y-120940300D02*
X131220200Y-124952000D01*
X131220200Y-124952000D02*
X71515400Y-124952000D01*
X156845000Y-113030000D02*
X158000500Y-114185500D01*
X158000500Y-114185500D02*
X165350600Y-114185500D01*
X165350600Y-114185500D02*
X166506100Y-113030000D01*
X166506100Y-113030000D02*
X170815000Y-113030000D01*
X170815000Y-113030000D02*
X177492500Y-113030000D01*
X177492500Y-113030000D02*
X183442300Y-107080200D01*
X183442300Y-107080200D02*
X183442300Y-86139000D01*
X183442300Y-86139000D02*
X185934400Y-83646900D01*
X185934400Y-83646900D02*
X185934400Y-77349400D01*
X185934400Y-77349400D02*
X184785000Y-76200000D01*
X24765000Y-113030000D02*
X25904200Y-114169200D01*
X25904200Y-114169200D02*
X31795800Y-114169200D01*
X31795800Y-114169200D02*
X32935000Y-113030000D01*
X32935000Y-113030000D02*
X38735000Y-113030000D01*
%TO.N,Net-(R1-Pad2)*%
X15875000Y-128905000D02*
X18415000Y-128905000D01*
%TO.N,BUFFERED_A_0*%
X104775000Y-97790000D02*
X100965000Y-101600000D01*
X100965000Y-101600000D02*
X96800900Y-101600000D01*
X96800900Y-101600000D02*
X92091800Y-106309100D01*
X92091800Y-106309100D02*
X92091800Y-112713700D01*
X92091800Y-112713700D02*
X89790000Y-115015500D01*
X89790000Y-115015500D02*
X86399200Y-115015500D01*
X86399200Y-115015500D02*
X82856700Y-118558000D01*
X82856700Y-118558000D02*
X75509400Y-118558000D01*
X75509400Y-118558000D02*
X75369000Y-118698400D01*
X75369000Y-118698400D02*
X15921600Y-118698400D01*
X15921600Y-118698400D02*
X5715000Y-128905000D01*
%TO.N,Net-(R3-Pad2)*%
X28575000Y-123825000D02*
X31115000Y-123825000D01*
X28575000Y-128905000D02*
X31115000Y-128905000D01*
%TO.N,BUFFERED_A_1*%
X104775000Y-100330000D02*
X103054600Y-102050400D01*
X103054600Y-102050400D02*
X99877700Y-102050400D01*
X99877700Y-102050400D02*
X97766100Y-104162000D01*
X97766100Y-104162000D02*
X96789300Y-104162000D01*
X96789300Y-104162000D02*
X95579200Y-105372100D01*
X95579200Y-105372100D02*
X95579200Y-109916900D01*
X95579200Y-109916900D02*
X90030200Y-115465900D01*
X90030200Y-115465900D02*
X86585700Y-115465900D01*
X86585700Y-115465900D02*
X83043200Y-119008400D01*
X83043200Y-119008400D02*
X75695900Y-119008400D01*
X75695900Y-119008400D02*
X75520200Y-119184100D01*
X75520200Y-119184100D02*
X23055900Y-119184100D01*
X23055900Y-119184100D02*
X18415000Y-123825000D01*
%TO.N,Net-(R6-Pad2)*%
X53975000Y-123825000D02*
X56515000Y-123825000D01*
X41275000Y-128905000D02*
X43815000Y-128905000D01*
%TO.N,BUFFERED_A_2*%
X102351200Y-111405700D02*
X99456900Y-114300000D01*
X99456900Y-114300000D02*
X96029600Y-114300000D01*
X96029600Y-114300000D02*
X92989300Y-117340300D01*
X92989300Y-117340300D02*
X89033200Y-117340300D01*
X89033200Y-117340300D02*
X85664200Y-120709300D01*
X85664200Y-120709300D02*
X46930700Y-120709300D01*
X46930700Y-120709300D02*
X43815000Y-123825000D01*
%TO.N,BUFFERED_A_3*%
X75955000Y-119633700D02*
X85320700Y-119633700D01*
X85320700Y-119633700D02*
X88813200Y-116141200D01*
X88813200Y-116141200D02*
X89991800Y-116141200D01*
X89991800Y-116141200D02*
X96029600Y-110103400D01*
X96029600Y-110103400D02*
X96029600Y-107449300D01*
X96029600Y-107449300D02*
X96798900Y-106680000D01*
X96798900Y-106680000D02*
X97788100Y-106680000D01*
X97788100Y-106680000D02*
X99058100Y-105410000D01*
X99058100Y-105410000D02*
X104775000Y-105410000D01*
%TO.N,DIGITAL_A_2*%
X101381600Y-126436900D02*
X131373100Y-126436900D01*
X131373100Y-126436900D02*
X133985000Y-123825000D01*
%TO.N,DIGITAL_A_3*%
X97155000Y-105410000D02*
X98280400Y-104284600D01*
X98280400Y-104284600D02*
X105260400Y-104284600D01*
X105260400Y-104284600D02*
X107665900Y-106690100D01*
X107665900Y-106690100D02*
X107665900Y-108261100D01*
%TO.N,Net-(U2-Pad5)*%
X10795000Y-97790000D02*
X14605000Y-101600000D01*
X14605000Y-101600000D02*
X31645200Y-101600000D01*
X31645200Y-101600000D02*
X34104300Y-104059100D01*
X34104300Y-104059100D02*
X39346100Y-104059100D01*
X39346100Y-104059100D02*
X40559400Y-102845800D01*
X40559400Y-102845800D02*
X50555400Y-102845800D01*
X50555400Y-102845800D02*
X51682400Y-101718800D01*
X51682400Y-101718800D02*
X79493800Y-101718800D01*
X79493800Y-101718800D02*
X83185000Y-105410000D01*
%TO.N,Net-(U2-Pad3)*%
X80816100Y-92101900D02*
X56422600Y-92101900D01*
X56422600Y-92101900D02*
X54547000Y-90226300D01*
X54547000Y-90226300D02*
X42139400Y-90226300D01*
X42139400Y-90226300D02*
X41044200Y-91321500D01*
X41044200Y-91321500D02*
X10544400Y-91321500D01*
X10544400Y-91321500D02*
X9630800Y-92235100D01*
X9630800Y-92235100D02*
X9630800Y-94085800D01*
X9630800Y-94085800D02*
X10795000Y-95250000D01*
%TO.N,Net-(U2-Pad1)*%
X83185000Y-95250000D02*
X80706700Y-92771700D01*
X80706700Y-92771700D02*
X42134000Y-92771700D01*
X42134000Y-92771700D02*
X41001200Y-93904500D01*
X41001200Y-93904500D02*
X11989500Y-93904500D01*
X11989500Y-93904500D02*
X10795000Y-92710000D01*
%TO.N,/Wave Generator A/ADD0*%
X76835000Y-66040000D02*
X75420400Y-67454600D01*
X75420400Y-67454600D02*
X57961900Y-67454600D01*
X57961900Y-67454600D02*
X55510100Y-69906400D01*
X55510100Y-69906400D02*
X23438600Y-69906400D01*
X23438600Y-69906400D02*
X17145000Y-76200000D01*
%TO.N,/Wave Generator A/ADD1*%
X75618100Y-62540600D02*
X75618100Y-62378300D01*
X75618100Y-62378300D02*
X73563300Y-60323500D01*
X73563300Y-60323500D02*
X22861500Y-60323500D01*
X22861500Y-60323500D02*
X17145000Y-66040000D01*
%TO.N,/Wave Generator A/ADD2*%
X24765000Y-66040000D02*
X30031200Y-60773800D01*
X30031200Y-60773800D02*
X73129200Y-60773800D01*
X73129200Y-60773800D02*
X74504400Y-62149000D01*
%TO.N,/Wave Generator A/ADD3*%
X76835000Y-73660000D02*
X74104200Y-73660000D01*
X74104200Y-73660000D02*
X72913600Y-72469400D01*
X72913600Y-72469400D02*
X28495600Y-72469400D01*
X28495600Y-72469400D02*
X24765000Y-76200000D01*
%TO.N,/Wave Generator A/ADD4*%
X31115000Y-76200000D02*
X31751800Y-76200000D01*
X31751800Y-76200000D02*
X32965500Y-74986300D01*
X32965500Y-74986300D02*
X69904400Y-74986300D01*
X69904400Y-74986300D02*
X71118100Y-76200000D01*
X71118100Y-76200000D02*
X76835000Y-76200000D01*
%TO.N,/Wave Generator A/ADD5*%
X31115000Y-66040000D02*
X35930900Y-61224100D01*
X35930900Y-61224100D02*
X72491600Y-61224100D01*
X72491600Y-61224100D02*
X73513100Y-62245600D01*
%TO.N,/Wave Generator A/ADD6*%
X38735000Y-66040000D02*
X43100600Y-61674400D01*
X43100600Y-61674400D02*
X71803100Y-61674400D01*
X71803100Y-61674400D02*
X71992700Y-61864000D01*
%TO.N,/Wave Generator A/ADD7*%
X65539100Y-87569300D02*
X44349400Y-87569300D01*
X44349400Y-87569300D02*
X43065200Y-86285100D01*
%TO.N,/Wave Generator A/ADD8*%
X86241100Y-102731000D02*
X86241100Y-104020800D01*
X86241100Y-104020800D02*
X83473600Y-106788300D01*
X83473600Y-106788300D02*
X75137600Y-106788300D01*
X75137600Y-106788300D02*
X73975900Y-107950000D01*
X73975900Y-107950000D02*
X69215000Y-107950000D01*
%TO.N,/Wave Generator A/ADD9*%
X88404600Y-87287000D02*
X84418700Y-91272900D01*
X84418700Y-91272900D02*
X84418700Y-96089100D01*
X84418700Y-96089100D02*
X84005700Y-96502100D01*
X84005700Y-96502100D02*
X70502900Y-96502100D01*
X70502900Y-96502100D02*
X69215000Y-97790000D01*
%TO.N,/Wave Generator A/ADD10*%
X90805000Y-71120000D02*
X87701700Y-71120000D01*
X87701700Y-71120000D02*
X86864000Y-71957700D01*
%TO.N,/Wave Generator A/ADD12*%
X55245000Y-107950000D02*
X56659600Y-106535400D01*
X56659600Y-106535400D02*
X71784800Y-106535400D01*
X71784800Y-106535400D02*
X74180200Y-104140000D01*
X74180200Y-104140000D02*
X78137400Y-104140000D01*
%TO.N,/Wave Generator A/ADD13*%
X89267300Y-83076600D02*
X85654700Y-83076600D01*
X85654700Y-83076600D02*
X83555200Y-85176100D01*
X83555200Y-85176100D02*
X82568700Y-85176100D01*
X82568700Y-85176100D02*
X80259400Y-87485400D01*
X80259400Y-87485400D02*
X67251600Y-87485400D01*
X67251600Y-87485400D02*
X63641900Y-91095100D01*
X63641900Y-91095100D02*
X56370400Y-91095100D01*
%TO.N,/Wave Generator A/ADD14*%
X62865000Y-97790000D02*
X64055600Y-98980600D01*
X64055600Y-98980600D02*
X80038600Y-98980600D01*
X80038600Y-98980600D02*
X81462400Y-97556800D01*
%TO.N,/Wave Generator A/ADD15*%
X62865000Y-107950000D02*
X64055600Y-109140600D01*
X64055600Y-109140600D02*
X83658800Y-109140600D01*
X83658800Y-109140600D02*
X88382700Y-104416700D01*
X88382700Y-104416700D02*
X88382700Y-89087600D01*
X88382700Y-89087600D02*
X89597800Y-87872500D01*
X89597800Y-87872500D02*
X89679600Y-87872500D01*
%TO.N,/Wave Generator A/SUM7*%
X26690300Y-87124300D02*
X27653400Y-87124300D01*
X27653400Y-87124300D02*
X36037700Y-78740000D01*
X36037700Y-78740000D02*
X38735000Y-78740000D01*
%TO.N,/Wave Generator A/COUNT15*%
X50256300Y-94458600D02*
X51042400Y-93672500D01*
X51042400Y-93672500D02*
X56878000Y-93672500D01*
X56878000Y-93672500D02*
X60468100Y-97262600D01*
%TO.N,/Wave Generator A/COUNT11*%
X72903500Y-106301100D02*
X73794600Y-105410000D01*
X73794600Y-105410000D02*
X76835000Y-105410000D01*
%TO.N,/Wave Generator A/SUM11*%
X31115000Y-107950000D02*
X34925000Y-111760000D01*
X34925000Y-111760000D02*
X42178800Y-111760000D01*
X42178800Y-111760000D02*
X43354200Y-112935400D01*
X43354200Y-112935400D02*
X48557700Y-112935400D01*
X48557700Y-112935400D02*
X52969700Y-117347400D01*
X52969700Y-117347400D02*
X71024800Y-117347400D01*
X71024800Y-117347400D02*
X74696900Y-113675300D01*
X74696900Y-113675300D02*
X75559500Y-113675300D01*
X75559500Y-113675300D02*
X75559500Y-113675200D01*
%TO.N,/Wave Generator A/SUM14*%
X50228300Y-95704900D02*
X51810200Y-94123000D01*
X51810200Y-94123000D02*
X56396200Y-94123000D01*
X56396200Y-94123000D02*
X60906700Y-98633500D01*
%TO.N,/Wave Generator A/SUM10*%
X76835000Y-102870000D02*
X74205000Y-102870000D01*
X74205000Y-102870000D02*
X73018600Y-104056400D01*
X73018600Y-104056400D02*
X55003500Y-104056400D01*
X55003500Y-104056400D02*
X51109900Y-107950000D01*
X51109900Y-107950000D02*
X40535200Y-107950000D01*
X40535200Y-107950000D02*
X39409100Y-109076100D01*
X39409100Y-109076100D02*
X34781100Y-109076100D01*
X34781100Y-109076100D02*
X31115000Y-105410000D01*
%TO.N,/Wave Generator A/COUNT14*%
X38735000Y-100330000D02*
X41181900Y-97883100D01*
X41181900Y-97883100D02*
X48836300Y-97883100D01*
X48836300Y-97883100D02*
X50085800Y-99132600D01*
X50085800Y-99132600D02*
X56105100Y-99132600D01*
X56105100Y-99132600D02*
X57302500Y-100330000D01*
X57302500Y-100330000D02*
X62865000Y-100330000D01*
%TO.N,/Wave Generator A/COUNT10*%
X76835000Y-100330000D02*
X74752500Y-100330000D01*
%TO.N,/Wave Generator A/COUNT13*%
X38735000Y-102870000D02*
X41275000Y-100330000D01*
X41275000Y-100330000D02*
X55245000Y-100330000D01*
%TO.N,/Wave Generator A/SUM13*%
X55245000Y-95250000D02*
X52439300Y-98055700D01*
X52439300Y-98055700D02*
X50295100Y-98055700D01*
%TO.N,/Wave Generator A/SUM9*%
X31115000Y-97790000D02*
X32385000Y-96520000D01*
X32385000Y-96520000D02*
X42178800Y-96520000D01*
X42178800Y-96520000D02*
X43354200Y-95344600D01*
X43354200Y-95344600D02*
X48609100Y-95344600D01*
X48609100Y-95344600D02*
X49435400Y-94518300D01*
X49435400Y-94518300D02*
X49435400Y-94346900D01*
X49435400Y-94346900D02*
X50560200Y-93222100D01*
X50560200Y-93222100D02*
X67187100Y-93222100D01*
X67187100Y-93222100D02*
X69215000Y-95250000D01*
%TO.N,/Wave Generator A/SUM12*%
X38735000Y-107950000D02*
X41275000Y-105410000D01*
X41275000Y-105410000D02*
X52705000Y-105410000D01*
X52705000Y-105410000D02*
X55245000Y-102870000D01*
%TO.N,/Wave Generator A/COUNT12*%
X38735000Y-110490000D02*
X50165000Y-110490000D01*
X50165000Y-110490000D02*
X55245000Y-105410000D01*
%TO.N,/Wave Generator A/CARRY0*%
X24765000Y-81280000D02*
X25892200Y-82407200D01*
X25892200Y-82407200D02*
X31621100Y-82407200D01*
X31621100Y-82407200D02*
X32245700Y-81782600D01*
X32245700Y-81782600D02*
X32245700Y-79870700D01*
X32245700Y-79870700D02*
X31115000Y-78740000D01*
%TO.N,/Wave Generator A/CARRY1*%
X38735000Y-81280000D02*
X39952800Y-80062200D01*
X39952800Y-80062200D02*
X54130500Y-80062200D01*
X54130500Y-80062200D02*
X54287200Y-80218900D01*
%TO.N,/Wave Generator A/CARRY2*%
X76835000Y-113030000D02*
X73405800Y-113030000D01*
X73405800Y-113030000D02*
X72268700Y-114167100D01*
X72268700Y-114167100D02*
X66692300Y-114167100D01*
X66692300Y-114167100D02*
X64285200Y-111760000D01*
X64285200Y-111760000D02*
X56515000Y-111760000D01*
X56515000Y-111760000D02*
X55245000Y-110490000D01*
%TO.N,/Wave Generator B/ADD0*%
X127619600Y-71230600D02*
X128779000Y-72390000D01*
X128779000Y-72390000D02*
X159385000Y-72390000D01*
X159385000Y-72390000D02*
X163195000Y-76200000D01*
%TO.N,/Wave Generator B/ADD1*%
X118745000Y-68580000D02*
X123503500Y-68580000D01*
X123503500Y-68580000D02*
X124773500Y-67310000D01*
X124773500Y-67310000D02*
X161925000Y-67310000D01*
X161925000Y-67310000D02*
X163195000Y-66040000D01*
%TO.N,/Wave Generator B/ADD2*%
X118745000Y-71120000D02*
X123503500Y-71120000D01*
X123503500Y-71120000D02*
X124773500Y-69850000D01*
X124773500Y-69850000D02*
X167005000Y-69850000D01*
X167005000Y-69850000D02*
X170815000Y-66040000D01*
%TO.N,/Wave Generator B/ADD3*%
X118745000Y-73660000D02*
X119382000Y-73660000D01*
X119382000Y-73660000D02*
X120652000Y-74930000D01*
X120652000Y-74930000D02*
X159159100Y-74930000D01*
X159159100Y-74930000D02*
X161619700Y-77390600D01*
X161619700Y-77390600D02*
X169624400Y-77390600D01*
X169624400Y-77390600D02*
X170815000Y-76200000D01*
%TO.N,/Wave Generator B/ADD4*%
X118745000Y-76200000D02*
X119687600Y-76200000D01*
X119687600Y-76200000D02*
X120879800Y-77392200D01*
X120879800Y-77392200D02*
X148032800Y-77392200D01*
X148032800Y-77392200D02*
X149225000Y-76200000D01*
%TO.N,/Wave Generator B/ADD7*%
X118745000Y-83820000D02*
X120015000Y-82550000D01*
X120015000Y-82550000D02*
X143511900Y-82550000D01*
X143511900Y-82550000D02*
X148591900Y-77470000D01*
X148591900Y-77470000D02*
X155575000Y-77470000D01*
X155575000Y-77470000D02*
X156845000Y-76200000D01*
%TO.N,/Wave Generator B/ADD14*%
X121129500Y-95418800D02*
X122086100Y-96375400D01*
X122086100Y-96375400D02*
X125762300Y-96375400D01*
X125762300Y-96375400D02*
X127176900Y-97790000D01*
X127176900Y-97790000D02*
X132715000Y-97790000D01*
%TO.N,/Wave Generator B/ADD15*%
X113396400Y-100232200D02*
X117159600Y-103995400D01*
X117159600Y-103995400D02*
X119199400Y-103995400D01*
X119199400Y-103995400D02*
X121884000Y-106680000D01*
X121884000Y-106680000D02*
X130107500Y-106680000D01*
X130107500Y-106680000D02*
X131377500Y-107950000D01*
X131377500Y-107950000D02*
X132715000Y-107950000D01*
%TO.N,/Wave Generator B/SUM7*%
X170815000Y-95250000D02*
X167149700Y-91584700D01*
X167149700Y-91584700D02*
X160226700Y-91584700D01*
X160226700Y-91584700D02*
X160226700Y-91584600D01*
X160226700Y-91584600D02*
X160059800Y-91417700D01*
%TO.N,/Wave Generator B/SUM6*%
X170815000Y-97790000D02*
X172431500Y-97790000D01*
X172431500Y-97790000D02*
X179670200Y-90551300D01*
X179670200Y-90551300D02*
X179670200Y-82131500D01*
X179670200Y-82131500D02*
X177693300Y-80154600D01*
X177693300Y-80154600D02*
X176920700Y-80154600D01*
X176920700Y-80154600D02*
X171840700Y-75074600D01*
X171840700Y-75074600D02*
X169545000Y-75074600D01*
X169545000Y-75074600D02*
X167005000Y-72534600D01*
X167005000Y-72534600D02*
X162664600Y-72534600D01*
X162664600Y-72534600D02*
X161250000Y-71120000D01*
X161250000Y-71120000D02*
X156845000Y-71120000D01*
%TO.N,/Wave Generator B/SUM15*%
X156845000Y-95250000D02*
X152649600Y-95250000D01*
X152649600Y-95250000D02*
X151083600Y-96816000D01*
%TO.N,/Wave Generator B/SUM11*%
X118745000Y-110490000D02*
X120015000Y-109220000D01*
X120015000Y-109220000D02*
X127694000Y-109220000D01*
X127694000Y-109220000D02*
X128129500Y-108784500D01*
X128129500Y-108784500D02*
X131575100Y-108784500D01*
X131575100Y-108784500D02*
X132040300Y-109249700D01*
X132040300Y-109249700D02*
X134935400Y-109249700D01*
X134935400Y-109249700D02*
X136124400Y-110438700D01*
X136124400Y-110438700D02*
X146466800Y-110438700D01*
X146466800Y-110438700D02*
X147021700Y-109883800D01*
%TO.N,/Wave Generator B/SUM14*%
X156845000Y-97790000D02*
X151507100Y-97790000D01*
X151507100Y-97790000D02*
X150674600Y-98622500D01*
%TO.N,/Wave Generator B/SUM10*%
X149225000Y-105410000D02*
X136175700Y-105410000D01*
X136175700Y-105410000D02*
X134905700Y-104140000D01*
X134905700Y-104140000D02*
X120015000Y-104140000D01*
X120015000Y-104140000D02*
X118745000Y-102870000D01*
%TO.N,/Wave Generator B/COUNT14*%
X156845000Y-100330000D02*
X155709000Y-101466000D01*
X155709000Y-101466000D02*
X147258900Y-101466000D01*
X147258900Y-101466000D02*
X146122900Y-100330000D01*
X146122900Y-100330000D02*
X132715000Y-100330000D01*
%TO.N,/Wave Generator B/COUNT10*%
X118745000Y-100330000D02*
X120015000Y-101600000D01*
X120015000Y-101600000D02*
X130397900Y-101600000D01*
X130397900Y-101600000D02*
X130789400Y-101991500D01*
X130789400Y-101991500D02*
X131307500Y-101991500D01*
X131307500Y-101991500D02*
X131601100Y-101697900D01*
X131601100Y-101697900D02*
X135003600Y-101697900D01*
X135003600Y-101697900D02*
X136175700Y-102870000D01*
X136175700Y-102870000D02*
X149225000Y-102870000D01*
%TO.N,/Wave Generator B/COUNT13*%
X131048400Y-101366200D02*
X130012200Y-100330000D01*
X130012200Y-100330000D02*
X125095000Y-100330000D01*
X156845000Y-102870000D02*
X155575000Y-104140000D01*
X155575000Y-104140000D02*
X147139700Y-104140000D01*
X147139700Y-104140000D02*
X146655700Y-104624000D01*
%TO.N,/Wave Generator B/COUNT9*%
X149225000Y-100330000D02*
X146774800Y-97879800D01*
X146774800Y-97879800D02*
X139141000Y-97879800D01*
X139141000Y-97879800D02*
X138105500Y-98915300D01*
X138105500Y-98915300D02*
X112539700Y-98915300D01*
X112539700Y-98915300D02*
X111125000Y-100330000D01*
%TO.N,/Wave Generator B/SUM13*%
X125095000Y-95250000D02*
X130493300Y-95250000D01*
X130493300Y-95250000D02*
X131626400Y-96383100D01*
X131626400Y-96383100D02*
X135042600Y-96383100D01*
X135042600Y-96383100D02*
X136119400Y-95306300D01*
X136119400Y-95306300D02*
X145145700Y-95306300D01*
X145145700Y-95306300D02*
X148899400Y-99060000D01*
X148899400Y-99060000D02*
X150227800Y-99060000D01*
X150227800Y-99060000D02*
X150415600Y-99247800D01*
X150415600Y-99247800D02*
X150933700Y-99247800D01*
X150933700Y-99247800D02*
X151027600Y-99153900D01*
X151027600Y-99153900D02*
X157284600Y-99153900D01*
X157284600Y-99153900D02*
X158003800Y-99873100D01*
X158003800Y-99873100D02*
X158003800Y-104251200D01*
X158003800Y-104251200D02*
X156845000Y-105410000D01*
%TO.N,/Wave Generator B/SUM9*%
X134777500Y-92838100D02*
X113536900Y-92838100D01*
X113536900Y-92838100D02*
X111125000Y-95250000D01*
%TO.N,/Wave Generator B/SUM12*%
X154632700Y-109669800D02*
X152940100Y-109669800D01*
X152940100Y-109669800D02*
X150849900Y-111760000D01*
X150849900Y-111760000D02*
X145781200Y-111760000D01*
X145781200Y-111760000D02*
X144567500Y-112973700D01*
X144567500Y-112973700D02*
X136119400Y-112973700D01*
X136119400Y-112973700D02*
X135045000Y-111899300D01*
X135045000Y-111899300D02*
X128793700Y-111899300D01*
X128793700Y-111899300D02*
X128388400Y-112304600D01*
%TO.N,/Wave Generator B/SUM8*%
X111125000Y-102870000D02*
X109974500Y-101719500D01*
X109974500Y-101719500D02*
X109974500Y-99868300D01*
X109974500Y-99868300D02*
X110782800Y-99060000D01*
X110782800Y-99060000D02*
X111758100Y-99060000D01*
X111758100Y-99060000D02*
X116757000Y-94061100D01*
X116757000Y-94061100D02*
X135562900Y-94061100D01*
X135562900Y-94061100D02*
X136844000Y-92780000D01*
X136844000Y-92780000D02*
X146755000Y-92780000D01*
X146755000Y-92780000D02*
X149225000Y-95250000D01*
%TO.N,/Wave Generator B/COUNT12*%
X156845000Y-110490000D02*
X155399500Y-109044500D01*
X155399500Y-109044500D02*
X154373700Y-109044500D01*
X154373700Y-109044500D02*
X154302900Y-109115300D01*
X154302900Y-109115300D02*
X146110000Y-109115300D01*
X146110000Y-109115300D02*
X144944700Y-107950000D01*
X144944700Y-107950000D02*
X136175700Y-107950000D01*
X136175700Y-107950000D02*
X134773400Y-106547700D01*
X134773400Y-106547700D02*
X131631000Y-106547700D01*
X131631000Y-106547700D02*
X130493300Y-105410000D01*
X130493300Y-105410000D02*
X125095000Y-105410000D01*
%TO.N,/Wave Generator B/COUNT8*%
X111125000Y-105410000D02*
X109522500Y-103807500D01*
X109522500Y-103807500D02*
X109522500Y-97792800D01*
X109522500Y-97792800D02*
X110939900Y-96375400D01*
X110939900Y-96375400D02*
X113792800Y-96375400D01*
X113792800Y-96375400D02*
X116704800Y-93463400D01*
X116704800Y-93463400D02*
X135171800Y-93463400D01*
X135171800Y-93463400D02*
X138392800Y-90242400D01*
X138392800Y-90242400D02*
X146757400Y-90242400D01*
X146757400Y-90242400D02*
X149225000Y-92710000D01*
%TO.N,/Wave Generator B/CARRY0*%
X170815000Y-81280000D02*
X169689600Y-82405400D01*
X169689600Y-82405400D02*
X148736000Y-82405400D01*
X148736000Y-82405400D02*
X148099600Y-81769000D01*
X148099600Y-81769000D02*
X148099600Y-79865400D01*
X148099600Y-79865400D02*
X149225000Y-78740000D01*
%TO.N,/Wave Generator B/CARRY1*%
X155593500Y-83052000D02*
X149511500Y-83052000D01*
X149511500Y-83052000D02*
X144933500Y-87630000D01*
X144933500Y-87630000D02*
X136964500Y-87630000D01*
X136964500Y-87630000D02*
X133292200Y-91302300D01*
X133292200Y-91302300D02*
X113011900Y-91302300D01*
X113011900Y-91302300D02*
X109072200Y-95242000D01*
X109072200Y-95242000D02*
X109072200Y-108437200D01*
X109072200Y-108437200D02*
X111125000Y-110490000D01*
%TO.N,Net-(C1-Pad1)*%
X175340000Y-127025000D02*
X172745000Y-127025000D01*
X172745000Y-127025000D02*
X169545000Y-123825000D01*
%TD*%
M02*
