%TF.GenerationSoftware,KiCad,Pcbnew,(5.1.8)-1*%
%TF.CreationDate,2020-12-06T18:18:42+00:00*%
%TF.ProjectId,io-board,696f2d62-6f61-4726-942e-6b696361645f,rev?*%
%TF.SameCoordinates,Original*%
%TF.FileFunction,Copper,L1,Top*%
%TF.FilePolarity,Positive*%
%FSLAX46Y46*%
G04 Gerber Fmt 4.6, Leading zero omitted, Abs format (unit mm)*
G04 Created by KiCad (PCBNEW (5.1.8)-1) date 2020-12-06 18:18:42*
%MOMM*%
%LPD*%
G01*
G04 APERTURE LIST*
%TA.AperFunction,ComponentPad*%
%ADD10O,1.700000X1.700000*%
%TD*%
%TA.AperFunction,ComponentPad*%
%ADD11R,1.700000X1.700000*%
%TD*%
%TA.AperFunction,ComponentPad*%
%ADD12O,1.600000X1.600000*%
%TD*%
%TA.AperFunction,ComponentPad*%
%ADD13C,1.600000*%
%TD*%
%TA.AperFunction,ComponentPad*%
%ADD14C,1.700000*%
%TD*%
%TA.AperFunction,ComponentPad*%
%ADD15R,1.600000X1.600000*%
%TD*%
%TA.AperFunction,ViaPad*%
%ADD16C,0.600000*%
%TD*%
%TA.AperFunction,Conductor*%
%ADD17C,0.500000*%
%TD*%
%TA.AperFunction,Conductor*%
%ADD18C,0.250000*%
%TD*%
G04 APERTURE END LIST*
D10*
%TO.P,J4,12*%
%TO.N,GND*%
X115570000Y-61595000D03*
%TO.P,J4,11*%
%TO.N,CB2*%
X113030000Y-61595000D03*
%TO.P,J4,10*%
%TO.N,CB1*%
X110490000Y-61595000D03*
%TO.P,J4,9*%
%TO.N,PB7*%
X107950000Y-61595000D03*
%TO.P,J4,8*%
%TO.N,PB6*%
X105410000Y-61595000D03*
%TO.P,J4,7*%
%TO.N,PB5*%
X102870000Y-61595000D03*
%TO.P,J4,6*%
%TO.N,PB4*%
X100330000Y-61595000D03*
%TO.P,J4,5*%
%TO.N,PB3*%
X97790000Y-61595000D03*
%TO.P,J4,4*%
%TO.N,PB2*%
X95250000Y-61595000D03*
%TO.P,J4,3*%
%TO.N,PB1*%
X92710000Y-61595000D03*
%TO.P,J4,2*%
%TO.N,PB0*%
X90170000Y-61595000D03*
D11*
%TO.P,J4,1*%
%TO.N,+5V*%
X87630000Y-61595000D03*
%TD*%
D10*
%TO.P,J3,12*%
%TO.N,GND*%
X79375000Y-61595000D03*
%TO.P,J3,11*%
%TO.N,CA2*%
X76835000Y-61595000D03*
%TO.P,J3,10*%
%TO.N,CA1*%
X74295000Y-61595000D03*
%TO.P,J3,9*%
%TO.N,PA7*%
X71755000Y-61595000D03*
%TO.P,J3,8*%
%TO.N,PA6*%
X69215000Y-61595000D03*
%TO.P,J3,7*%
%TO.N,PA5*%
X66675000Y-61595000D03*
%TO.P,J3,6*%
%TO.N,PA4*%
X64135000Y-61595000D03*
%TO.P,J3,5*%
%TO.N,PA3*%
X61595000Y-61595000D03*
%TO.P,J3,4*%
%TO.N,PA2*%
X59055000Y-61595000D03*
%TO.P,J3,3*%
%TO.N,PA1*%
X56515000Y-61595000D03*
%TO.P,J3,2*%
%TO.N,PA0*%
X53975000Y-61595000D03*
D11*
%TO.P,J3,1*%
%TO.N,+5V*%
X51435000Y-61595000D03*
%TD*%
D12*
%TO.P,W65C22N,40*%
%TO.N,CA1*%
X76835000Y-66040000D03*
%TO.P,W65C22N,20*%
%TO.N,+5V*%
X61595000Y-114300000D03*
%TO.P,W65C22N,39*%
%TO.N,CA2*%
X76835000Y-68580000D03*
%TO.P,W65C22N,19*%
%TO.N,CB2*%
X61595000Y-111760000D03*
%TO.P,W65C22N,38*%
%TO.N,A0*%
X76835000Y-71120000D03*
%TO.P,W65C22N,18*%
%TO.N,CB1*%
X61595000Y-109220000D03*
%TO.P,W65C22N,37*%
%TO.N,A1*%
X76835000Y-73660000D03*
%TO.P,W65C22N,17*%
%TO.N,PB7*%
X61595000Y-106680000D03*
%TO.P,W65C22N,36*%
%TO.N,A2*%
X76835000Y-76200000D03*
%TO.P,W65C22N,16*%
%TO.N,PB6*%
X61595000Y-104140000D03*
%TO.P,W65C22N,35*%
%TO.N,A3*%
X76835000Y-78740000D03*
%TO.P,W65C22N,15*%
%TO.N,PB5*%
X61595000Y-101600000D03*
%TO.P,W65C22N,34*%
%TO.N,!RESET*%
X76835000Y-81280000D03*
%TO.P,W65C22N,14*%
%TO.N,PB4*%
X61595000Y-99060000D03*
%TO.P,W65C22N,33*%
%TO.N,D0*%
X76835000Y-83820000D03*
%TO.P,W65C22N,13*%
%TO.N,PB3*%
X61595000Y-96520000D03*
%TO.P,W65C22N,32*%
%TO.N,D1*%
X76835000Y-86360000D03*
%TO.P,W65C22N,12*%
%TO.N,PB2*%
X61595000Y-93980000D03*
%TO.P,W65C22N,31*%
%TO.N,D2*%
X76835000Y-88900000D03*
%TO.P,W65C22N,11*%
%TO.N,PB1*%
X61595000Y-91440000D03*
%TO.P,W65C22N,30*%
%TO.N,D3*%
X76835000Y-91440000D03*
%TO.P,W65C22N,10*%
%TO.N,PB0*%
X61595000Y-88900000D03*
%TO.P,W65C22N,29*%
%TO.N,D4*%
X76835000Y-93980000D03*
%TO.P,W65C22N,9*%
%TO.N,PA7*%
X61595000Y-86360000D03*
%TO.P,W65C22N,28*%
%TO.N,D5*%
X76835000Y-96520000D03*
%TO.P,W65C22N,8*%
%TO.N,PA6*%
X61595000Y-83820000D03*
%TO.P,W65C22N,27*%
%TO.N,D6*%
X76835000Y-99060000D03*
%TO.P,W65C22N,7*%
%TO.N,PA5*%
X61595000Y-81280000D03*
%TO.P,W65C22N,26*%
%TO.N,D7*%
X76835000Y-101600000D03*
%TO.P,W65C22N,6*%
%TO.N,PA4*%
X61595000Y-78740000D03*
%TO.P,W65C22N,25*%
%TO.N,PHI2*%
X76835000Y-104140000D03*
%TO.P,W65C22N,5*%
%TO.N,PA3*%
X61595000Y-76200000D03*
%TO.P,W65C22N,24*%
%TO.N,+5V*%
X76835000Y-106680000D03*
%TO.P,W65C22N,4*%
%TO.N,PA2*%
X61595000Y-73660000D03*
%TO.P,W65C22N,23*%
%TO.N,!PARALLEL_SELECT*%
X76835000Y-109220000D03*
%TO.P,W65C22N,3*%
%TO.N,PA1*%
X61595000Y-71120000D03*
%TO.P,W65C22N,22*%
%TO.N,R!W*%
X76835000Y-111760000D03*
%TO.P,W65C22N,2*%
%TO.N,PA0*%
X61595000Y-68580000D03*
%TO.P,W65C22N,21*%
%TO.N,!IRQ*%
X76835000Y-114300000D03*
D13*
%TO.P,W65C22N,1*%
%TO.N,GND*%
X61595000Y-66040000D03*
%TD*%
D10*
%TO.P,J5,6*%
%TO.N,GND*%
X136525000Y-61595000D03*
%TO.P,J5,5*%
%TO.N,CTS*%
X133985000Y-61595000D03*
%TO.P,J5,4*%
%TO.N,RTS*%
X131445000Y-61595000D03*
%TO.P,J5,3*%
%TO.N,RXD*%
X128905000Y-61595000D03*
%TO.P,J5,2*%
%TO.N,TXD*%
X126365000Y-61595000D03*
D11*
%TO.P,J5,1*%
%TO.N,+5V*%
X123825000Y-61595000D03*
%TD*%
D13*
%TO.P,C3,2*%
%TO.N,GND*%
X130175000Y-94060000D03*
%TO.P,C3,1*%
%TO.N,+5V*%
X130175000Y-99060000D03*
%TD*%
%TO.P,C2,2*%
%TO.N,GND*%
X101600000Y-71040000D03*
%TO.P,C2,1*%
%TO.N,+5V*%
X101600000Y-66040000D03*
%TD*%
%TO.P,C1,2*%
%TO.N,GND*%
X57785000Y-109300000D03*
%TO.P,C1,1*%
%TO.N,+5V*%
X57785000Y-114300000D03*
%TD*%
D10*
%TO.P,EXP,40*%
%TO.N,GND*%
X142240000Y-114300000D03*
%TO.P,EXP,39*%
X139700000Y-114300000D03*
%TO.P,EXP,38*%
%TO.N,+5V*%
X142240000Y-111760000D03*
%TO.P,EXP,37*%
X139700000Y-111760000D03*
%TO.P,EXP,36*%
%TO.N,D7*%
X142240000Y-109220000D03*
%TO.P,EXP,35*%
%TO.N,D6*%
X139700000Y-109220000D03*
%TO.P,EXP,34*%
%TO.N,D5*%
X142240000Y-106680000D03*
%TO.P,EXP,33*%
%TO.N,D4*%
X139700000Y-106680000D03*
%TO.P,EXP,32*%
%TO.N,D3*%
X142240000Y-104140000D03*
%TO.P,EXP,31*%
%TO.N,D2*%
X139700000Y-104140000D03*
%TO.P,EXP,30*%
%TO.N,D1*%
X142240000Y-101600000D03*
%TO.P,EXP,29*%
%TO.N,D0*%
X139700000Y-101600000D03*
%TO.P,EXP,28*%
%TO.N,A15*%
X142240000Y-99060000D03*
%TO.P,EXP,27*%
%TO.N,A14*%
X139700000Y-99060000D03*
%TO.P,EXP,26*%
%TO.N,A13*%
X142240000Y-96520000D03*
%TO.P,EXP,25*%
%TO.N,A12*%
X139700000Y-96520000D03*
%TO.P,EXP,24*%
%TO.N,A11*%
X142240000Y-93980000D03*
%TO.P,EXP,23*%
%TO.N,A10*%
X139700000Y-93980000D03*
%TO.P,EXP,22*%
%TO.N,A9*%
X142240000Y-91440000D03*
%TO.P,EXP,21*%
%TO.N,A8*%
X139700000Y-91440000D03*
%TO.P,EXP,20*%
%TO.N,A7*%
X142240000Y-88900000D03*
%TO.P,EXP,19*%
%TO.N,A6*%
X139700000Y-88900000D03*
%TO.P,EXP,18*%
%TO.N,A5*%
X142240000Y-86360000D03*
%TO.P,EXP,17*%
%TO.N,A4*%
X139700000Y-86360000D03*
%TO.P,EXP,16*%
%TO.N,A3*%
X142240000Y-83820000D03*
%TO.P,EXP,15*%
%TO.N,A2*%
X139700000Y-83820000D03*
%TO.P,EXP,14*%
%TO.N,A1*%
X142240000Y-81280000D03*
%TO.P,EXP,13*%
%TO.N,A0*%
X139700000Y-81280000D03*
%TO.P,EXP,12*%
%TO.N,!P_SELECT*%
X142240000Y-78740000D03*
%TO.P,EXP,11*%
%TO.N,RDY*%
X139700000Y-78740000D03*
%TO.P,EXP,10*%
%TO.N,!RESET*%
X142240000Y-76200000D03*
%TO.P,EXP,9*%
%TO.N,R!W*%
X139700000Y-76200000D03*
%TO.P,EXP,8*%
%TO.N,!WRITE*%
X142240000Y-73660000D03*
%TO.P,EXP,7*%
%TO.N,!READ*%
X139700000Y-73660000D03*
%TO.P,EXP,6*%
%TO.N,!NMI*%
X142240000Y-71120000D03*
%TO.P,EXP,5*%
%TO.N,!IRQ*%
X139700000Y-71120000D03*
%TO.P,EXP,4*%
%TO.N,PHI2*%
X142240000Y-68580000D03*
%TO.P,EXP,3*%
%TO.N,PHI1*%
X139700000Y-68580000D03*
%TO.P,EXP,2*%
%TO.N,CLK*%
X142240000Y-66040000D03*
D14*
%TO.P,EXP,1*%
%TO.N,GND*%
X139700000Y-66040000D03*
%TD*%
D13*
%TO.P,XTAL,4*%
%TO.N,GND*%
X97790000Y-99060000D03*
%TO.P,XTAL,5*%
%TO.N,CLK_S*%
X97790000Y-91440000D03*
%TO.P,XTAL,8*%
%TO.N,+5V*%
X90170000Y-91440000D03*
D15*
%TO.P,XTAL,1*%
%TO.N,Net-(X1-Pad1)*%
X90170000Y-99060000D03*
%TD*%
D12*
%TO.P,HC138,16*%
%TO.N,+5V*%
X97790000Y-66040000D03*
%TO.P,HC138,8*%
%TO.N,GND*%
X90170000Y-83820000D03*
%TO.P,HC138,15*%
%TO.N,!PARALLEL_SELECT*%
X97790000Y-68580000D03*
%TO.P,HC138,7*%
%TO.N,Net-(U3-Pad7)*%
X90170000Y-81280000D03*
%TO.P,HC138,14*%
%TO.N,!SERIAL_SELECT*%
X97790000Y-71120000D03*
%TO.P,HC138,6*%
%TO.N,+5V*%
X90170000Y-78740000D03*
%TO.P,HC138,13*%
%TO.N,Net-(U3-Pad13)*%
X97790000Y-73660000D03*
%TO.P,HC138,5*%
%TO.N,A7*%
X90170000Y-76200000D03*
%TO.P,HC138,12*%
%TO.N,Net-(U3-Pad12)*%
X97790000Y-76200000D03*
%TO.P,HC138,4*%
%TO.N,!P_SELECT*%
X90170000Y-73660000D03*
%TO.P,HC138,11*%
%TO.N,Net-(U3-Pad11)*%
X97790000Y-78740000D03*
%TO.P,HC138,3*%
%TO.N,A6*%
X90170000Y-71120000D03*
%TO.P,HC138,10*%
%TO.N,Net-(U3-Pad10)*%
X97790000Y-81280000D03*
%TO.P,HC138,2*%
%TO.N,A5*%
X90170000Y-68580000D03*
%TO.P,HC138,9*%
%TO.N,Net-(U3-Pad9)*%
X97790000Y-83820000D03*
D13*
%TO.P,HC138,1*%
%TO.N,A4*%
X90170000Y-66040000D03*
%TD*%
D12*
%TO.P,W65C51N,28*%
%TO.N,R!W*%
X126365000Y-66040000D03*
%TO.P,W65C51N,14*%
%TO.N,A1*%
X111125000Y-99060000D03*
%TO.P,W65C51N,27*%
%TO.N,PHI2*%
X126365000Y-68580000D03*
%TO.P,W65C51N,13*%
%TO.N,A0*%
X111125000Y-96520000D03*
%TO.P,W65C51N,26*%
%TO.N,!IRQ*%
X126365000Y-71120000D03*
%TO.P,W65C51N,12*%
%TO.N,RXD*%
X111125000Y-93980000D03*
%TO.P,W65C51N,25*%
%TO.N,D7*%
X126365000Y-73660000D03*
%TO.P,W65C51N,11*%
%TO.N,Net-(U2-Pad11)*%
X111125000Y-91440000D03*
%TO.P,W65C51N,24*%
%TO.N,D6*%
X126365000Y-76200000D03*
%TO.P,W65C51N,10*%
%TO.N,TXD*%
X111125000Y-88900000D03*
%TO.P,W65C51N,23*%
%TO.N,D5*%
X126365000Y-78740000D03*
%TO.P,W65C51N,9*%
%TO.N,CTS*%
X111125000Y-86360000D03*
%TO.P,W65C51N,22*%
%TO.N,D4*%
X126365000Y-81280000D03*
%TO.P,W65C51N,8*%
%TO.N,RTS*%
X111125000Y-83820000D03*
%TO.P,W65C51N,21*%
%TO.N,D3*%
X126365000Y-83820000D03*
%TO.P,W65C51N,7*%
%TO.N,Net-(U2-Pad7)*%
X111125000Y-81280000D03*
%TO.P,W65C51N,20*%
%TO.N,D2*%
X126365000Y-86360000D03*
%TO.P,W65C51N,6*%
%TO.N,CLK_S*%
X111125000Y-78740000D03*
%TO.P,W65C51N,19*%
%TO.N,D1*%
X126365000Y-88900000D03*
%TO.P,W65C51N,5*%
%TO.N,Net-(U2-Pad5)*%
X111125000Y-76200000D03*
%TO.P,W65C51N,18*%
%TO.N,D0*%
X126365000Y-91440000D03*
%TO.P,W65C51N,4*%
%TO.N,!RESET*%
X111125000Y-73660000D03*
%TO.P,W65C51N,17*%
%TO.N,Net-(U2-Pad17)*%
X126365000Y-93980000D03*
%TO.P,W65C51N,3*%
%TO.N,!SERIAL_SELECT*%
X111125000Y-71120000D03*
%TO.P,W65C51N,16*%
%TO.N,Net-(U2-Pad16)*%
X126365000Y-96520000D03*
%TO.P,W65C51N,2*%
%TO.N,+5V*%
X111125000Y-68580000D03*
%TO.P,W65C51N,15*%
X126365000Y-99060000D03*
D13*
%TO.P,W65C51N,1*%
%TO.N,GND*%
X111125000Y-66040000D03*
%TD*%
D10*
%TO.P,EXP,40*%
%TO.N,GND*%
X48260000Y-114300000D03*
%TO.P,EXP,39*%
X45720000Y-114300000D03*
%TO.P,EXP,38*%
%TO.N,+5V*%
X48260000Y-111760000D03*
%TO.P,EXP,37*%
X45720000Y-111760000D03*
%TO.P,EXP,36*%
%TO.N,D7*%
X48260000Y-109220000D03*
%TO.P,EXP,35*%
%TO.N,D6*%
X45720000Y-109220000D03*
%TO.P,EXP,34*%
%TO.N,D5*%
X48260000Y-106680000D03*
%TO.P,EXP,33*%
%TO.N,D4*%
X45720000Y-106680000D03*
%TO.P,EXP,32*%
%TO.N,D3*%
X48260000Y-104140000D03*
%TO.P,EXP,31*%
%TO.N,D2*%
X45720000Y-104140000D03*
%TO.P,EXP,30*%
%TO.N,D1*%
X48260000Y-101600000D03*
%TO.P,EXP,29*%
%TO.N,D0*%
X45720000Y-101600000D03*
%TO.P,EXP,28*%
%TO.N,A15*%
X48260000Y-99060000D03*
%TO.P,EXP,27*%
%TO.N,A14*%
X45720000Y-99060000D03*
%TO.P,EXP,26*%
%TO.N,A13*%
X48260000Y-96520000D03*
%TO.P,EXP,25*%
%TO.N,A12*%
X45720000Y-96520000D03*
%TO.P,EXP,24*%
%TO.N,A11*%
X48260000Y-93980000D03*
%TO.P,EXP,23*%
%TO.N,A10*%
X45720000Y-93980000D03*
%TO.P,EXP,22*%
%TO.N,A9*%
X48260000Y-91440000D03*
%TO.P,EXP,21*%
%TO.N,A8*%
X45720000Y-91440000D03*
%TO.P,EXP,20*%
%TO.N,A7*%
X48260000Y-88900000D03*
%TO.P,EXP,19*%
%TO.N,A6*%
X45720000Y-88900000D03*
%TO.P,EXP,18*%
%TO.N,A5*%
X48260000Y-86360000D03*
%TO.P,EXP,17*%
%TO.N,A4*%
X45720000Y-86360000D03*
%TO.P,EXP,16*%
%TO.N,A3*%
X48260000Y-83820000D03*
%TO.P,EXP,15*%
%TO.N,A2*%
X45720000Y-83820000D03*
%TO.P,EXP,14*%
%TO.N,A1*%
X48260000Y-81280000D03*
%TO.P,EXP,13*%
%TO.N,A0*%
X45720000Y-81280000D03*
%TO.P,EXP,12*%
%TO.N,!P_SELECT*%
X48260000Y-78740000D03*
%TO.P,EXP,11*%
%TO.N,RDY*%
X45720000Y-78740000D03*
%TO.P,EXP,10*%
%TO.N,!RESET*%
X48260000Y-76200000D03*
%TO.P,EXP,9*%
%TO.N,R!W*%
X45720000Y-76200000D03*
%TO.P,EXP,8*%
%TO.N,!WRITE*%
X48260000Y-73660000D03*
%TO.P,EXP,7*%
%TO.N,!READ*%
X45720000Y-73660000D03*
%TO.P,EXP,6*%
%TO.N,!NMI*%
X48260000Y-71120000D03*
%TO.P,EXP,5*%
%TO.N,!IRQ*%
X45720000Y-71120000D03*
%TO.P,EXP,4*%
%TO.N,PHI2*%
X48260000Y-68580000D03*
%TO.P,EXP,3*%
%TO.N,PHI1*%
X45720000Y-68580000D03*
%TO.P,EXP,2*%
%TO.N,CLK*%
X48260000Y-66040000D03*
D14*
%TO.P,EXP,1*%
%TO.N,GND*%
X45720000Y-66040000D03*
%TD*%
D16*
%TO.N,+5V*%
X88093300Y-94238700D03*
%TO.N,D6*%
X97894500Y-103836800D03*
%TO.N,D5*%
X131354000Y-102169300D03*
%TO.N,D4*%
X64606900Y-105416100D03*
%TO.N,D3*%
X82151000Y-87249300D03*
%TO.N,D2*%
X81657800Y-85202500D03*
%TO.N,A12*%
X52244200Y-115724400D03*
X125884000Y-102705500D03*
%TO.N,A11*%
X44420100Y-89891800D03*
%TO.N,A7*%
X86568400Y-82388800D03*
%TO.N,A6*%
X82773400Y-90105300D03*
%TO.N,A5*%
X84441300Y-64545000D03*
%TO.N,A4*%
X85503700Y-64779400D03*
X127401000Y-70076500D03*
X94722400Y-64938900D03*
%TO.N,A2*%
X86882300Y-88355000D03*
X86118100Y-80853200D03*
%TO.N,A1*%
X88592400Y-79315300D03*
X93125400Y-97027900D03*
X108887000Y-100724600D03*
%TO.N,A0*%
X83418100Y-74768300D03*
X83076600Y-88360900D03*
%TO.N,!RESET*%
X81154300Y-72365400D03*
%TO.N,R!W*%
X50913500Y-112174700D03*
X135896800Y-68572700D03*
%TO.N,PHI2*%
X57206300Y-78085300D03*
X115834100Y-77872500D03*
X86078200Y-79940700D03*
%TO.N,RTS*%
X113946000Y-82878000D03*
%TD*%
D17*
%TO.N,GND*%
X101600000Y-71040000D02*
X101600000Y-70615600D01*
X101600000Y-70615600D02*
X98294500Y-67310100D01*
X98294500Y-67310100D02*
X93345100Y-67310100D01*
X93345100Y-67310100D02*
X89728800Y-63693800D01*
X89728800Y-63693800D02*
X82774100Y-63693800D01*
X82774100Y-63693800D02*
X80675300Y-61595000D01*
X97790000Y-99060000D02*
X99060000Y-97790000D01*
X99060000Y-97790000D02*
X126883900Y-97790000D01*
X126883900Y-97790000D02*
X130175000Y-94498900D01*
X130175000Y-94498900D02*
X130175000Y-94060000D01*
X79375000Y-61595000D02*
X80675300Y-61595000D01*
X79375000Y-61595000D02*
X74930000Y-66040000D01*
X74930000Y-66040000D02*
X61595000Y-66040000D01*
X45720000Y-66040000D02*
X47031000Y-64729000D01*
X47031000Y-64729000D02*
X60284000Y-64729000D01*
X60284000Y-64729000D02*
X61595000Y-66040000D01*
X116870300Y-61595000D02*
X118175900Y-62900600D01*
X118175900Y-62900600D02*
X135219400Y-62900600D01*
X135219400Y-62900600D02*
X136525000Y-61595000D01*
X115570000Y-61595000D02*
X116870300Y-61595000D01*
X139700000Y-114300000D02*
X142240000Y-114300000D01*
%TO.N,+5V*%
X61595000Y-114300000D02*
X57785000Y-114300000D01*
X75584700Y-106680000D02*
X67964700Y-114300000D01*
X67964700Y-114300000D02*
X61595000Y-114300000D01*
X87630000Y-61595000D02*
X88956500Y-62921500D01*
X88956500Y-62921500D02*
X90460900Y-62921500D01*
X90460900Y-62921500D02*
X93579400Y-66040000D01*
X93579400Y-66040000D02*
X96539700Y-66040000D01*
X125114700Y-99060000D02*
X125037400Y-99060000D01*
X125037400Y-99060000D02*
X123783100Y-100314300D01*
X123783100Y-100314300D02*
X109537900Y-100314300D01*
X109537900Y-100314300D02*
X109197900Y-99974300D01*
X109197900Y-99974300D02*
X106456100Y-99974300D01*
X106456100Y-99974300D02*
X106116100Y-100314300D01*
X106116100Y-100314300D02*
X97259700Y-100314300D01*
X97259700Y-100314300D02*
X93875700Y-96930300D01*
X93875700Y-96930300D02*
X93875700Y-96717000D01*
X93875700Y-96717000D02*
X90454400Y-93295700D01*
X90454400Y-93295700D02*
X90170000Y-93295700D01*
X76835000Y-106680000D02*
X75584700Y-106680000D01*
X90170000Y-93295700D02*
X89036300Y-93295700D01*
X89036300Y-93295700D02*
X88093300Y-94238700D01*
X97790000Y-66040000D02*
X96539700Y-66040000D01*
X48260000Y-111760000D02*
X49560300Y-111760000D01*
X57785000Y-114300000D02*
X54909400Y-111424400D01*
X54909400Y-111424400D02*
X49895900Y-111424400D01*
X49895900Y-111424400D02*
X49560300Y-111760000D01*
X126365000Y-99060000D02*
X125114700Y-99060000D01*
X130175000Y-99060000D02*
X126365000Y-99060000D01*
X90170000Y-93295700D02*
X90170000Y-91440000D01*
X48260000Y-111760000D02*
X45720000Y-111760000D01*
X101600000Y-66040000D02*
X104140000Y-68580000D01*
X104140000Y-68580000D02*
X109874700Y-68580000D01*
X87630000Y-61595000D02*
X86329700Y-61595000D01*
X51435000Y-61595000D02*
X52735300Y-60294700D01*
X52735300Y-60294700D02*
X85029400Y-60294700D01*
X85029400Y-60294700D02*
X86329700Y-61595000D01*
X139700000Y-111760000D02*
X142240000Y-111760000D01*
X111125000Y-68580000D02*
X109874700Y-68580000D01*
D18*
%TO.N,D7*%
X76835000Y-101600000D02*
X77960300Y-101600000D01*
X142240000Y-109220000D02*
X142240000Y-108044700D01*
X142240000Y-108044700D02*
X141872600Y-108044700D01*
X141872600Y-108044700D02*
X141064700Y-107236800D01*
X141064700Y-107236800D02*
X141064700Y-106343700D01*
X141064700Y-106343700D02*
X140131000Y-105410000D01*
X140131000Y-105410000D02*
X81770300Y-105410000D01*
X81770300Y-105410000D02*
X77960300Y-101600000D01*
X48260000Y-109220000D02*
X49435300Y-109220000D01*
X76835000Y-101600000D02*
X75709700Y-101600000D01*
X75709700Y-101600000D02*
X74584400Y-102725300D01*
X74584400Y-102725300D02*
X55930000Y-102725300D01*
X55930000Y-102725300D02*
X49435300Y-109220000D01*
%TO.N,D6*%
X97894500Y-103836800D02*
X82737100Y-103836800D01*
X82737100Y-103836800D02*
X77960300Y-99060000D01*
X76835000Y-99060000D02*
X77960300Y-99060000D01*
%TO.N,D5*%
X131354000Y-102169300D02*
X131205500Y-102020800D01*
X131205500Y-102020800D02*
X125625000Y-102020800D01*
X125625000Y-102020800D02*
X124920300Y-102725500D01*
X124920300Y-102725500D02*
X87245700Y-102725500D01*
X87245700Y-102725500D02*
X81040200Y-96520000D01*
X81040200Y-96520000D02*
X76835000Y-96520000D01*
%TO.N,D4*%
X139700000Y-106680000D02*
X80212200Y-106680000D01*
X80212200Y-106680000D02*
X78948300Y-105416100D01*
X78948300Y-105416100D02*
X64606900Y-105416100D01*
X45720000Y-106680000D02*
X45720000Y-107855300D01*
X45720000Y-107855300D02*
X46087400Y-107855300D01*
X46087400Y-107855300D02*
X46895300Y-108663200D01*
X46895300Y-108663200D02*
X46895300Y-109556300D01*
X46895300Y-109556300D02*
X47735900Y-110396900D01*
X47735900Y-110396900D02*
X54260100Y-110396900D01*
X54260100Y-110396900D02*
X59240900Y-105416100D01*
X59240900Y-105416100D02*
X64606900Y-105416100D01*
%TO.N,D3*%
X126365000Y-84945300D02*
X126646300Y-84945300D01*
X126646300Y-84945300D02*
X127529700Y-85828700D01*
X127529700Y-85828700D02*
X127529700Y-89345500D01*
X127529700Y-89345500D02*
X126795400Y-90079800D01*
X126795400Y-90079800D02*
X109909400Y-90079800D01*
X109909400Y-90079800D02*
X107884400Y-88054800D01*
X107884400Y-88054800D02*
X89672800Y-88054800D01*
X89672800Y-88054800D02*
X88867300Y-87249300D01*
X88867300Y-87249300D02*
X82151000Y-87249300D01*
X126365000Y-83820000D02*
X126365000Y-84945300D01*
%TO.N,D2*%
X125239700Y-86360000D02*
X124082200Y-85202500D01*
X124082200Y-85202500D02*
X81657800Y-85202500D01*
X126365000Y-86360000D02*
X125239700Y-86360000D01*
%TO.N,D1*%
X125239700Y-88900000D02*
X123908400Y-87568700D01*
X123908400Y-87568700D02*
X89823600Y-87568700D01*
X89823600Y-87568700D02*
X88614900Y-86360000D01*
X88614900Y-86360000D02*
X77960300Y-86360000D01*
X76835000Y-86360000D02*
X77960300Y-86360000D01*
X126365000Y-88900000D02*
X125239700Y-88900000D01*
%TO.N,D0*%
X76835000Y-83820000D02*
X76835000Y-84945300D01*
X126365000Y-91440000D02*
X114142500Y-91440000D01*
X114142500Y-91440000D02*
X113017100Y-92565400D01*
X113017100Y-92565400D02*
X97323900Y-92565400D01*
X97323900Y-92565400D02*
X93274800Y-88516300D01*
X93274800Y-88516300D02*
X88938100Y-88516300D01*
X88938100Y-88516300D02*
X88121500Y-87699700D01*
X88121500Y-87699700D02*
X82719300Y-87699700D01*
X82719300Y-87699700D02*
X82537900Y-87881100D01*
X82537900Y-87881100D02*
X81632100Y-87881100D01*
X81632100Y-87881100D02*
X81381000Y-87630000D01*
X81381000Y-87630000D02*
X76513200Y-87630000D01*
X76513200Y-87630000D02*
X75709700Y-86826500D01*
X75709700Y-86826500D02*
X75709700Y-85789200D01*
X75709700Y-85789200D02*
X76553600Y-84945300D01*
X76553600Y-84945300D02*
X76835000Y-84945300D01*
%TO.N,A15*%
X141064700Y-99060000D02*
X141064700Y-98692700D01*
X141064700Y-98692700D02*
X140238000Y-97866000D01*
X140238000Y-97866000D02*
X139081800Y-97866000D01*
X139081800Y-97866000D02*
X133613800Y-103334000D01*
X133613800Y-103334000D02*
X98398700Y-103334000D01*
X98398700Y-103334000D02*
X98276200Y-103211500D01*
X98276200Y-103211500D02*
X87094800Y-103211500D01*
X87094800Y-103211500D02*
X81803900Y-97920600D01*
X81803900Y-97920600D02*
X50574700Y-97920600D01*
X50574700Y-97920600D02*
X49435300Y-99060000D01*
X142240000Y-99060000D02*
X141064700Y-99060000D01*
X48260000Y-99060000D02*
X49435300Y-99060000D01*
%TO.N,A14*%
X138524700Y-99060000D02*
X133122500Y-104462200D01*
X133122500Y-104462200D02*
X81459400Y-104462200D01*
X81459400Y-104462200D02*
X77232500Y-100235300D01*
X77232500Y-100235300D02*
X47703200Y-100235300D01*
X47703200Y-100235300D02*
X46895300Y-99427400D01*
X46895300Y-99427400D02*
X46895300Y-99060000D01*
X139700000Y-99060000D02*
X138524700Y-99060000D01*
X45720000Y-99060000D02*
X46895300Y-99060000D01*
%TO.N,A13*%
X47084700Y-96520000D02*
X47084700Y-96887400D01*
X47084700Y-96887400D02*
X46276800Y-97695300D01*
X46276800Y-97695300D02*
X45413400Y-97695300D01*
X45413400Y-97695300D02*
X44535100Y-98573600D01*
X44535100Y-98573600D02*
X44535100Y-112237400D01*
X44535100Y-112237400D02*
X45382100Y-113084400D01*
X45382100Y-113084400D02*
X53883100Y-113084400D01*
X53883100Y-113084400D02*
X56698200Y-115899500D01*
X56698200Y-115899500D02*
X83929100Y-115899500D01*
X83929100Y-115899500D02*
X89338600Y-110490000D01*
X89338600Y-110490000D02*
X142695500Y-110490000D01*
X142695500Y-110490000D02*
X143442300Y-109743200D01*
X143442300Y-109743200D02*
X143442300Y-98532300D01*
X143442300Y-98532300D02*
X142605300Y-97695300D01*
X142605300Y-97695300D02*
X142240000Y-97695300D01*
X142240000Y-96520000D02*
X142240000Y-97695300D01*
X48260000Y-96520000D02*
X47084700Y-96520000D01*
%TO.N,A12*%
X138524700Y-96520000D02*
X132223500Y-102821200D01*
X132223500Y-102821200D02*
X125999700Y-102821200D01*
X125999700Y-102821200D02*
X125884000Y-102705500D01*
X52244200Y-115724400D02*
X45427300Y-115724400D01*
X45427300Y-115724400D02*
X44059600Y-114356700D01*
X44059600Y-114356700D02*
X44059600Y-98180400D01*
X44059600Y-98180400D02*
X45720000Y-96520000D01*
X139700000Y-96520000D02*
X138524700Y-96520000D01*
%TO.N,A11*%
X44420100Y-89891800D02*
X43127800Y-91184100D01*
X43127800Y-91184100D02*
X43127800Y-114698700D01*
X43127800Y-114698700D02*
X45258000Y-116828900D01*
X45258000Y-116828900D02*
X141408300Y-116828900D01*
X141408300Y-116828900D02*
X144420000Y-113817200D01*
X144420000Y-113817200D02*
X144420000Y-91944500D01*
X144420000Y-91944500D02*
X142700200Y-90224700D01*
X142700200Y-90224700D02*
X141790500Y-90224700D01*
X141790500Y-90224700D02*
X141046800Y-90968400D01*
X141046800Y-90968400D02*
X141046800Y-92786800D01*
X141046800Y-92786800D02*
X142240000Y-93980000D01*
%TO.N,A10*%
X139700000Y-93980000D02*
X138643800Y-93980000D01*
X138643800Y-93980000D02*
X131053300Y-101570500D01*
X131053300Y-101570500D02*
X125438400Y-101570500D01*
X125438400Y-101570500D02*
X124756700Y-102252200D01*
X124756700Y-102252200D02*
X87409300Y-102252200D01*
X87409300Y-102252200D02*
X80312400Y-95155300D01*
X80312400Y-95155300D02*
X47703200Y-95155300D01*
X47703200Y-95155300D02*
X46895300Y-94347400D01*
X46895300Y-94347400D02*
X46895300Y-93980000D01*
X45720000Y-93980000D02*
X46895300Y-93980000D01*
%TO.N,A9*%
X142240000Y-92615300D02*
X142607300Y-92615300D01*
X142607300Y-92615300D02*
X143945700Y-93953700D01*
X143945700Y-93953700D02*
X143945700Y-111720300D01*
X143945700Y-111720300D02*
X142636000Y-113030000D01*
X142636000Y-113030000D02*
X138025700Y-113030000D01*
X138025700Y-113030000D02*
X134705800Y-116349900D01*
X134705800Y-116349900D02*
X45415900Y-116349900D01*
X45415900Y-116349900D02*
X43604400Y-114538400D01*
X43604400Y-114538400D02*
X43604400Y-91845000D01*
X43604400Y-91845000D02*
X45195700Y-90253700D01*
X45195700Y-90253700D02*
X46265700Y-90253700D01*
X46265700Y-90253700D02*
X47084700Y-91072700D01*
X47084700Y-91072700D02*
X47084700Y-91440000D01*
X48260000Y-91440000D02*
X47084700Y-91440000D01*
X142240000Y-91440000D02*
X142240000Y-92615300D01*
%TO.N,A8*%
X139700000Y-92615300D02*
X139371600Y-92615300D01*
X139371600Y-92615300D02*
X130866700Y-101120200D01*
X130866700Y-101120200D02*
X125251800Y-101120200D01*
X125251800Y-101120200D02*
X124570200Y-101801800D01*
X124570200Y-101801800D02*
X87859400Y-101801800D01*
X87859400Y-101801800D02*
X78702000Y-92644400D01*
X78702000Y-92644400D02*
X46924400Y-92644400D01*
X46924400Y-92644400D02*
X45720000Y-91440000D01*
X139700000Y-91440000D02*
X139700000Y-92615300D01*
%TO.N,A7*%
X90170000Y-76200000D02*
X91295300Y-76200000D01*
X91295300Y-76200000D02*
X92453800Y-77358500D01*
X92453800Y-77358500D02*
X115322600Y-77358500D01*
X115322600Y-77358500D02*
X115488000Y-77193100D01*
X115488000Y-77193100D02*
X121729700Y-77193100D01*
X121729700Y-77193100D02*
X124546600Y-80010000D01*
X124546600Y-80010000D02*
X142679800Y-80010000D01*
X142679800Y-80010000D02*
X144388700Y-81718900D01*
X144388700Y-81718900D02*
X144388700Y-86751300D01*
X144388700Y-86751300D02*
X142240000Y-88900000D01*
X49435300Y-88900000D02*
X50610600Y-87724700D01*
X50610600Y-87724700D02*
X67877900Y-87724700D01*
X67877900Y-87724700D02*
X73052600Y-82550000D01*
X73052600Y-82550000D02*
X86407200Y-82550000D01*
X86407200Y-82550000D02*
X86568400Y-82388800D01*
X48260000Y-88900000D02*
X49435300Y-88900000D01*
%TO.N,A6*%
X139700000Y-90075300D02*
X139332600Y-90075300D01*
X139332600Y-90075300D02*
X138524700Y-90883200D01*
X138524700Y-90883200D02*
X138524700Y-92750000D01*
X138524700Y-92750000D02*
X130604800Y-100669900D01*
X130604800Y-100669900D02*
X125065200Y-100669900D01*
X125065200Y-100669900D02*
X124383700Y-101351400D01*
X124383700Y-101351400D02*
X94885100Y-101351400D01*
X94885100Y-101351400D02*
X91187000Y-97653300D01*
X91187000Y-97653300D02*
X90321400Y-97653300D01*
X90321400Y-97653300D02*
X82773400Y-90105300D01*
X46895300Y-88900000D02*
X46895300Y-89267300D01*
X46895300Y-89267300D02*
X47733300Y-90105300D01*
X47733300Y-90105300D02*
X82773400Y-90105300D01*
X139700000Y-88900000D02*
X139700000Y-90075300D01*
X45720000Y-88900000D02*
X46895300Y-88900000D01*
%TO.N,A5*%
X90170000Y-68580000D02*
X88391400Y-68580000D01*
X88391400Y-68580000D02*
X84441300Y-64629900D01*
X84441300Y-64629900D02*
X84441300Y-64545000D01*
%TO.N,A4*%
X94722400Y-64938900D02*
X94761800Y-64899500D01*
X94761800Y-64899500D02*
X120884300Y-64899500D01*
X120884300Y-64899500D02*
X125965200Y-69980400D01*
X125965200Y-69980400D02*
X127304900Y-69980400D01*
X127304900Y-69980400D02*
X127401000Y-70076500D01*
X90170000Y-66040000D02*
X86764300Y-66040000D01*
X86764300Y-66040000D02*
X85503700Y-64779400D01*
%TO.N,A3*%
X76835000Y-78740000D02*
X75709700Y-78740000D01*
X48260000Y-83820000D02*
X49435300Y-83820000D01*
X49435300Y-83820000D02*
X50627300Y-85012000D01*
X50627300Y-85012000D02*
X69437700Y-85012000D01*
X69437700Y-85012000D02*
X75709700Y-78740000D01*
X141064700Y-83820000D02*
X141064700Y-83452600D01*
X141064700Y-83452600D02*
X140256800Y-82644700D01*
X140256800Y-82644700D02*
X114597100Y-82644700D01*
X114597100Y-82644700D02*
X114205100Y-82252700D01*
X114205100Y-82252700D02*
X113687000Y-82252700D01*
X113687000Y-82252700D02*
X113491100Y-82448600D01*
X113491100Y-82448600D02*
X89540000Y-82448600D01*
X89540000Y-82448600D02*
X88597800Y-81506400D01*
X88597800Y-81506400D02*
X80726700Y-81506400D01*
X80726700Y-81506400D02*
X77960300Y-78740000D01*
X142240000Y-83820000D02*
X141064700Y-83820000D01*
X76835000Y-78740000D02*
X77960300Y-78740000D01*
%TO.N,A2*%
X76835000Y-76200000D02*
X75709700Y-76200000D01*
X45720000Y-83820000D02*
X46895300Y-83820000D01*
X46895300Y-83820000D02*
X46895300Y-83452600D01*
X46895300Y-83452600D02*
X47703200Y-82644700D01*
X47703200Y-82644700D02*
X69265000Y-82644700D01*
X69265000Y-82644700D02*
X75709700Y-76200000D01*
X86882300Y-88355000D02*
X87494000Y-88966700D01*
X87494000Y-88966700D02*
X91913100Y-88966700D01*
X91913100Y-88966700D02*
X98062700Y-95116300D01*
X98062700Y-95116300D02*
X112078400Y-95116300D01*
X112078400Y-95116300D02*
X114484700Y-92710000D01*
X114484700Y-92710000D02*
X126689500Y-92710000D01*
X126689500Y-92710000D02*
X135579500Y-83820000D01*
X135579500Y-83820000D02*
X139700000Y-83820000D01*
X77960300Y-76200000D02*
X82613500Y-80853200D01*
X82613500Y-80853200D02*
X86118100Y-80853200D01*
X76835000Y-76200000D02*
X77960300Y-76200000D01*
%TO.N,A1*%
X75709700Y-73660000D02*
X71909700Y-77460000D01*
X71909700Y-77460000D02*
X53255300Y-77460000D01*
X53255300Y-77460000D02*
X49435300Y-81280000D01*
X142240000Y-81280000D02*
X143910200Y-82950200D01*
X143910200Y-82950200D02*
X143910200Y-86356300D01*
X143910200Y-86356300D02*
X142636500Y-87630000D01*
X142636500Y-87630000D02*
X139279000Y-87630000D01*
X139279000Y-87630000D02*
X136329100Y-90579900D01*
X136329100Y-90579900D02*
X136329100Y-94305100D01*
X136329100Y-94305100D02*
X130414600Y-100219600D01*
X130414600Y-100219600D02*
X124691500Y-100219600D01*
X124691500Y-100219600D02*
X124011400Y-100899700D01*
X124011400Y-100899700D02*
X109062100Y-100899700D01*
X109062100Y-100899700D02*
X108887000Y-100724600D01*
X88592400Y-79315300D02*
X83615600Y-79315300D01*
X83615600Y-79315300D02*
X77960300Y-73660000D01*
X76835000Y-73660000D02*
X75709700Y-73660000D01*
X77397700Y-73660000D02*
X76835000Y-73660000D01*
X48260000Y-81280000D02*
X49435300Y-81280000D01*
X77397700Y-73660000D02*
X77960300Y-73660000D01*
X108887000Y-100724600D02*
X108710600Y-100901000D01*
X108710600Y-100901000D02*
X96998500Y-100901000D01*
X96998500Y-100901000D02*
X93125400Y-97027900D01*
%TO.N,A0*%
X76835000Y-71120000D02*
X78934700Y-71120000D01*
X78934700Y-71120000D02*
X82583000Y-74768300D01*
X82583000Y-74768300D02*
X83418100Y-74768300D01*
X111125000Y-96520000D02*
X97125500Y-96520000D01*
X97125500Y-96520000D02*
X90796500Y-90191000D01*
X90796500Y-90191000D02*
X84906700Y-90191000D01*
X84906700Y-90191000D02*
X83076600Y-88360900D01*
X111687700Y-96520000D02*
X111125000Y-96520000D01*
X75709700Y-71120000D02*
X74584400Y-72245300D01*
X74584400Y-72245300D02*
X54114900Y-72245300D01*
X54114900Y-72245300D02*
X48795600Y-77564600D01*
X48795600Y-77564600D02*
X47734400Y-77564600D01*
X47734400Y-77564600D02*
X46895300Y-78403700D01*
X46895300Y-78403700D02*
X46895300Y-79296800D01*
X46895300Y-79296800D02*
X46087400Y-80104700D01*
X46087400Y-80104700D02*
X45720000Y-80104700D01*
X45720000Y-81280000D02*
X45720000Y-80104700D01*
X76835000Y-71120000D02*
X75709700Y-71120000D01*
X140287700Y-81280000D02*
X139700000Y-81280000D01*
X112250300Y-96520000D02*
X113375600Y-95394700D01*
X113375600Y-95394700D02*
X126874100Y-95394700D01*
X126874100Y-95394700D02*
X137178800Y-85090000D01*
X137178800Y-85090000D02*
X142650400Y-85090000D01*
X142650400Y-85090000D02*
X143443600Y-84296800D01*
X143443600Y-84296800D02*
X143443600Y-83313500D01*
X143443600Y-83313500D02*
X142585400Y-82455300D01*
X142585400Y-82455300D02*
X141683200Y-82455300D01*
X141683200Y-82455300D02*
X140875300Y-81647400D01*
X140875300Y-81647400D02*
X140875300Y-81280000D01*
X111687700Y-96520000D02*
X112250300Y-96520000D01*
X140287700Y-81280000D02*
X140875300Y-81280000D01*
%TO.N,!RESET*%
X111125000Y-73660000D02*
X100325300Y-73660000D01*
X100325300Y-73660000D02*
X99030700Y-72365400D01*
X99030700Y-72365400D02*
X81154300Y-72365400D01*
X81154300Y-72365400D02*
X78762500Y-69973600D01*
X78762500Y-69973600D02*
X55661700Y-69973600D01*
X55661700Y-69973600D02*
X49435300Y-76200000D01*
X48260000Y-76200000D02*
X49435300Y-76200000D01*
X142240000Y-76200000D02*
X141064700Y-76200000D01*
X111125000Y-73660000D02*
X112250300Y-73660000D01*
X112250300Y-73660000D02*
X113615000Y-75024700D01*
X113615000Y-75024700D02*
X140256800Y-75024700D01*
X140256800Y-75024700D02*
X141064700Y-75832600D01*
X141064700Y-75832600D02*
X141064700Y-76200000D01*
%TO.N,!READ*%
X45720000Y-72484700D02*
X45352700Y-72484700D01*
X45352700Y-72484700D02*
X43597800Y-70729800D01*
X43597800Y-70729800D02*
X43597800Y-65202500D01*
X43597800Y-65202500D02*
X50065300Y-58735000D01*
X50065300Y-58735000D02*
X136639300Y-58735000D01*
X136639300Y-58735000D02*
X143907000Y-66002700D01*
X143907000Y-66002700D02*
X143907000Y-73695900D01*
X143907000Y-73695900D02*
X142767600Y-74835300D01*
X142767600Y-74835300D02*
X141683200Y-74835300D01*
X141683200Y-74835300D02*
X140875300Y-74027400D01*
X140875300Y-74027400D02*
X140875300Y-73660000D01*
X139700000Y-73660000D02*
X140875300Y-73660000D01*
X45720000Y-73660000D02*
X45720000Y-72484700D01*
%TO.N,!WRITE*%
X49435300Y-73660000D02*
X55676300Y-67419000D01*
X55676300Y-67419000D02*
X83445400Y-67419000D01*
X83445400Y-67419000D02*
X85731800Y-69705400D01*
X85731800Y-69705400D02*
X98180500Y-69705400D01*
X98180500Y-69705400D02*
X100640500Y-72165400D01*
X100640500Y-72165400D02*
X108279400Y-72165400D01*
X108279400Y-72165400D02*
X110296400Y-70148400D01*
X110296400Y-70148400D02*
X122616700Y-70148400D01*
X122616700Y-70148400D02*
X124942600Y-72474300D01*
X124942600Y-72474300D02*
X141054300Y-72474300D01*
X141054300Y-72474300D02*
X142240000Y-73660000D01*
X48260000Y-73660000D02*
X49435300Y-73660000D01*
%TO.N,R!W*%
X126365000Y-66040000D02*
X133364100Y-66040000D01*
X133364100Y-66040000D02*
X135896800Y-68572700D01*
X76835000Y-111760000D02*
X75709700Y-111760000D01*
X75709700Y-111760000D02*
X72020500Y-115449200D01*
X72020500Y-115449200D02*
X57110000Y-115449200D01*
X57110000Y-115449200D02*
X53835500Y-112174700D01*
X53835500Y-112174700D02*
X50913500Y-112174700D01*
%TO.N,!NMI*%
X142240000Y-71120000D02*
X142240000Y-69944700D01*
X48260000Y-71120000D02*
X47084700Y-71120000D01*
X47084700Y-71120000D02*
X47084700Y-70752600D01*
X47084700Y-70752600D02*
X46276800Y-69944700D01*
X46276800Y-69944700D02*
X45345100Y-69944700D01*
X45345100Y-69944700D02*
X44048200Y-68647800D01*
X44048200Y-68647800D02*
X44048200Y-65389000D01*
X44048200Y-65389000D02*
X50251800Y-59185400D01*
X50251800Y-59185400D02*
X94507800Y-59185400D01*
X94507800Y-59185400D02*
X96520000Y-61197600D01*
X96520000Y-61197600D02*
X96520000Y-62082400D01*
X96520000Y-62082400D02*
X97925700Y-63488100D01*
X97925700Y-63488100D02*
X134552500Y-63488100D01*
X134552500Y-63488100D02*
X138374400Y-67310000D01*
X138374400Y-67310000D02*
X142716900Y-67310000D01*
X142716900Y-67310000D02*
X143415300Y-68008400D01*
X143415300Y-68008400D02*
X143415300Y-69136800D01*
X143415300Y-69136800D02*
X142607400Y-69944700D01*
X142607400Y-69944700D02*
X142240000Y-69944700D01*
%TO.N,!IRQ*%
X126365000Y-71120000D02*
X139700000Y-71120000D01*
%TO.N,PHI2*%
X86078200Y-79940700D02*
X83111000Y-79940700D01*
X83111000Y-79940700D02*
X78242300Y-75072000D01*
X78242300Y-75072000D02*
X75564100Y-75072000D01*
X75564100Y-75072000D02*
X70740200Y-79895900D01*
X70740200Y-79895900D02*
X59016900Y-79895900D01*
X59016900Y-79895900D02*
X57206300Y-78085300D01*
X115834100Y-77872500D02*
X113765900Y-79940700D01*
X113765900Y-79940700D02*
X86078200Y-79940700D01*
X126927700Y-68580000D02*
X126365000Y-68580000D01*
X126927700Y-68580000D02*
X127490300Y-68580000D01*
X142240000Y-68580000D02*
X141064700Y-68580000D01*
X127490300Y-68580000D02*
X128665600Y-69755300D01*
X128665600Y-69755300D02*
X140256800Y-69755300D01*
X140256800Y-69755300D02*
X141064700Y-68947400D01*
X141064700Y-68947400D02*
X141064700Y-68580000D01*
%TO.N,PHI1*%
X45720000Y-67404700D02*
X45352700Y-67404700D01*
X45352700Y-67404700D02*
X44517800Y-66569800D01*
X44517800Y-66569800D02*
X44517800Y-65574100D01*
X44517800Y-65574100D02*
X50422700Y-59669200D01*
X50422700Y-59669200D02*
X92463900Y-59669200D01*
X92463900Y-59669200D02*
X93980000Y-61185300D01*
X93980000Y-61185300D02*
X93980000Y-62077000D01*
X93980000Y-62077000D02*
X96066500Y-64163500D01*
X96066500Y-64163500D02*
X134108200Y-64163500D01*
X134108200Y-64163500D02*
X138524700Y-68580000D01*
X139700000Y-68580000D02*
X138524700Y-68580000D01*
X45720000Y-68580000D02*
X45720000Y-67404700D01*
%TO.N,RTS*%
X111125000Y-83820000D02*
X113004000Y-83820000D01*
X113004000Y-83820000D02*
X113946000Y-82878000D01*
%TO.N,!SERIAL_SELECT*%
X109999700Y-71120000D02*
X108484900Y-72634800D01*
X108484900Y-72634800D02*
X100430100Y-72634800D01*
X100430100Y-72634800D02*
X98915300Y-71120000D01*
X97790000Y-71120000D02*
X98915300Y-71120000D01*
X111125000Y-71120000D02*
X109999700Y-71120000D01*
%TO.N,!P_SELECT*%
X49435300Y-78740000D02*
X53245300Y-74930000D01*
X53245300Y-74930000D02*
X72711300Y-74930000D01*
X72711300Y-74930000D02*
X75158000Y-72483300D01*
X75158000Y-72483300D02*
X79323600Y-72483300D01*
X79323600Y-72483300D02*
X82233900Y-75393600D01*
X82233900Y-75393600D02*
X87311100Y-75393600D01*
X87311100Y-75393600D02*
X89044700Y-73660000D01*
X90170000Y-73660000D02*
X89044700Y-73660000D01*
X48260000Y-78740000D02*
X49435300Y-78740000D01*
X142240000Y-78740000D02*
X141064700Y-78740000D01*
X90170000Y-73660000D02*
X91295300Y-73660000D01*
X91295300Y-73660000D02*
X92420600Y-74785300D01*
X92420600Y-74785300D02*
X111560600Y-74785300D01*
X111560600Y-74785300D02*
X112250400Y-75475100D01*
X112250400Y-75475100D02*
X120871700Y-75475100D01*
X120871700Y-75475100D02*
X122961300Y-77564700D01*
X122961300Y-77564700D02*
X140256800Y-77564700D01*
X140256800Y-77564700D02*
X141064700Y-78372600D01*
X141064700Y-78372600D02*
X141064700Y-78740000D01*
%TD*%
M02*
