%TF.GenerationSoftware,KiCad,Pcbnew,(5.1.8)-1*%
%TF.CreationDate,2020-12-26T15:16:30+00:00*%
%TF.ProjectId,io-board,696f2d62-6f61-4726-942e-6b696361645f,rev?*%
%TF.SameCoordinates,Original*%
%TF.FileFunction,Soldermask,Top*%
%TF.FilePolarity,Negative*%
%FSLAX46Y46*%
G04 Gerber Fmt 4.6, Leading zero omitted, Abs format (unit mm)*
G04 Created by KiCad (PCBNEW (5.1.8)-1) date 2020-12-26 15:16:30*
%MOMM*%
%LPD*%
G01*
G04 APERTURE LIST*
%ADD10C,1.600000*%
%ADD11O,1.700000X1.700000*%
%ADD12R,1.700000X1.700000*%
%ADD13O,1.600000X1.600000*%
%ADD14C,1.700000*%
%ADD15R,1.600000X1.600000*%
G04 APERTURE END LIST*
D10*
%TO.C,C3*%
X116205000Y-60960000D03*
X121205000Y-60960000D03*
%TD*%
%TO.C,C2*%
X91440000Y-60960000D03*
X96440000Y-60960000D03*
%TD*%
%TO.C,C1*%
X66675000Y-60960000D03*
X71675000Y-60960000D03*
%TD*%
D11*
%TO.C,J3*%
X83185000Y-107950000D03*
X85725000Y-107950000D03*
X88265000Y-107950000D03*
X90805000Y-107950000D03*
X93345000Y-107950000D03*
X95885000Y-107950000D03*
X98425000Y-107950000D03*
X100965000Y-107950000D03*
X103505000Y-107950000D03*
X106045000Y-107950000D03*
X108585000Y-107950000D03*
D12*
X111125000Y-107950000D03*
%TD*%
D13*
%TO.C,U1*%
X76835000Y-66040000D03*
X61595000Y-114300000D03*
X76835000Y-68580000D03*
X61595000Y-111760000D03*
X76835000Y-71120000D03*
X61595000Y-109220000D03*
X76835000Y-73660000D03*
X61595000Y-106680000D03*
X76835000Y-76200000D03*
X61595000Y-104140000D03*
X76835000Y-78740000D03*
X61595000Y-101600000D03*
X76835000Y-81280000D03*
X61595000Y-99060000D03*
X76835000Y-83820000D03*
X61595000Y-96520000D03*
X76835000Y-86360000D03*
X61595000Y-93980000D03*
X76835000Y-88900000D03*
X61595000Y-91440000D03*
X76835000Y-91440000D03*
X61595000Y-88900000D03*
X76835000Y-93980000D03*
X61595000Y-86360000D03*
X76835000Y-96520000D03*
X61595000Y-83820000D03*
X76835000Y-99060000D03*
X61595000Y-81280000D03*
X76835000Y-101600000D03*
X61595000Y-78740000D03*
X76835000Y-104140000D03*
X61595000Y-76200000D03*
X76835000Y-106680000D03*
X61595000Y-73660000D03*
X76835000Y-109220000D03*
X61595000Y-71120000D03*
X76835000Y-111760000D03*
X61595000Y-68580000D03*
X76835000Y-114300000D03*
D10*
X61595000Y-66040000D03*
%TD*%
D11*
%TO.C,J5*%
X117475000Y-107950000D03*
X120015000Y-107950000D03*
X122555000Y-107950000D03*
X125095000Y-107950000D03*
X127635000Y-107950000D03*
D12*
X130175000Y-107950000D03*
%TD*%
D11*
%TO.C,J2*%
X142240000Y-114300000D03*
X139700000Y-114300000D03*
X142240000Y-111760000D03*
X139700000Y-111760000D03*
X142240000Y-109220000D03*
X139700000Y-109220000D03*
X142240000Y-106680000D03*
X139700000Y-106680000D03*
X142240000Y-104140000D03*
X139700000Y-104140000D03*
X142240000Y-101600000D03*
X139700000Y-101600000D03*
X142240000Y-99060000D03*
X139700000Y-99060000D03*
X142240000Y-96520000D03*
X139700000Y-96520000D03*
X142240000Y-93980000D03*
X139700000Y-93980000D03*
X142240000Y-91440000D03*
X139700000Y-91440000D03*
X142240000Y-88900000D03*
X139700000Y-88900000D03*
X142240000Y-86360000D03*
X139700000Y-86360000D03*
X142240000Y-83820000D03*
X139700000Y-83820000D03*
X142240000Y-81280000D03*
X139700000Y-81280000D03*
X142240000Y-78740000D03*
X139700000Y-78740000D03*
X142240000Y-76200000D03*
X139700000Y-76200000D03*
X142240000Y-73660000D03*
X139700000Y-73660000D03*
X142240000Y-71120000D03*
X139700000Y-71120000D03*
X142240000Y-68580000D03*
X139700000Y-68580000D03*
X142240000Y-66040000D03*
D14*
X139700000Y-66040000D03*
%TD*%
D10*
%TO.C,X1*%
X97790000Y-99060000D03*
X97790000Y-91440000D03*
X90170000Y-91440000D03*
D15*
X90170000Y-99060000D03*
%TD*%
D13*
%TO.C,U2*%
X97790000Y-66040000D03*
X90170000Y-83820000D03*
X97790000Y-68580000D03*
X90170000Y-81280000D03*
X97790000Y-71120000D03*
X90170000Y-78740000D03*
X97790000Y-73660000D03*
X90170000Y-76200000D03*
X97790000Y-76200000D03*
X90170000Y-73660000D03*
X97790000Y-78740000D03*
X90170000Y-71120000D03*
X97790000Y-81280000D03*
X90170000Y-68580000D03*
X97790000Y-83820000D03*
D10*
X90170000Y-66040000D03*
%TD*%
D13*
%TO.C,U3*%
X126365000Y-66040000D03*
X111125000Y-99060000D03*
X126365000Y-68580000D03*
X111125000Y-96520000D03*
X126365000Y-71120000D03*
X111125000Y-93980000D03*
X126365000Y-73660000D03*
X111125000Y-91440000D03*
X126365000Y-76200000D03*
X111125000Y-88900000D03*
X126365000Y-78740000D03*
X111125000Y-86360000D03*
X126365000Y-81280000D03*
X111125000Y-83820000D03*
X126365000Y-83820000D03*
X111125000Y-81280000D03*
X126365000Y-86360000D03*
X111125000Y-78740000D03*
X126365000Y-88900000D03*
X111125000Y-76200000D03*
X126365000Y-91440000D03*
X111125000Y-73660000D03*
X126365000Y-93980000D03*
X111125000Y-71120000D03*
X126365000Y-96520000D03*
X111125000Y-68580000D03*
X126365000Y-99060000D03*
D10*
X111125000Y-66040000D03*
%TD*%
D11*
%TO.C,J1*%
X48260000Y-114300000D03*
X45720000Y-114300000D03*
X48260000Y-111760000D03*
X45720000Y-111760000D03*
X48260000Y-109220000D03*
X45720000Y-109220000D03*
X48260000Y-106680000D03*
X45720000Y-106680000D03*
X48260000Y-104140000D03*
X45720000Y-104140000D03*
X48260000Y-101600000D03*
X45720000Y-101600000D03*
X48260000Y-99060000D03*
X45720000Y-99060000D03*
X48260000Y-96520000D03*
X45720000Y-96520000D03*
X48260000Y-93980000D03*
X45720000Y-93980000D03*
X48260000Y-91440000D03*
X45720000Y-91440000D03*
X48260000Y-88900000D03*
X45720000Y-88900000D03*
X48260000Y-86360000D03*
X45720000Y-86360000D03*
X48260000Y-83820000D03*
X45720000Y-83820000D03*
X48260000Y-81280000D03*
X45720000Y-81280000D03*
X48260000Y-78740000D03*
X45720000Y-78740000D03*
X48260000Y-76200000D03*
X45720000Y-76200000D03*
X48260000Y-73660000D03*
X45720000Y-73660000D03*
X48260000Y-71120000D03*
X45720000Y-71120000D03*
X48260000Y-68580000D03*
X45720000Y-68580000D03*
X48260000Y-66040000D03*
D14*
X45720000Y-66040000D03*
%TD*%
M02*
