M48
; DRILL file {KiCad 5.1.9-73d0e3b20d~88~ubuntu20.04.1} date Sat Jan 16 15:59:05 2021
; FORMAT={-:-/ absolute / inch / decimal}
; #@! TF.CreationDate,2021-01-16T15:59:05+00:00
; #@! TF.GenerationSoftware,Kicad,Pcbnew,5.1.9-73d0e3b20d~88~ubuntu20.04.1
; #@! TF.FileFunction,Plated,1,2,PTH
FMAT,2
INCH
T1C0.0118
T2C0.0315
T3C0.0394
%
G90
G05
T1
X2.4725Y-3.4371
X2.5118Y-3.5792
X2.5842Y-3.5949
X2.5986Y-3.7035
X2.6012Y-3.8
X2.6448Y-4.2082
X2.7391Y-3.9641
X2.7607Y-4.0613
X2.7915Y-3.4433
X2.7921Y-4.143
X2.7923Y-4.0552
X2.8527Y-2.6537
X2.8794Y-3.9034
X2.9681Y-2.3779
X3.0635Y-3.2553
X3.0727Y-3.8248
X3.1382Y-3.7072
X3.2159Y-3.35
X3.2534Y-3.8492
X3.2958Y-4.6405
X3.3192Y-4.1766
X3.3309Y-3.7457
X3.7657Y-2.5462
X3.9152Y-2.7606
X3.9199Y-3.5265
X4.0227Y-2.5105
X4.4921Y-3.1545
X4.8019Y-2.85
X4.8184Y-2.7272
X4.9176Y-3.7733
X4.9334Y-3.5527
T2
X2.425Y-2.6
X2.425Y-2.7
X2.425Y-2.8
X2.425Y-2.9
X2.425Y-3.0
X2.425Y-3.1
X2.425Y-3.2
X2.425Y-3.3
X2.425Y-3.4
X2.425Y-3.5
X2.425Y-3.6
X2.425Y-3.7
X2.425Y-3.8
X2.425Y-3.9
X2.425Y-4.0
X2.425Y-4.1
X2.425Y-4.2
X2.425Y-4.3
X2.425Y-4.4
X2.425Y-4.5
X2.625Y-2.4
X2.8219Y-2.4
X3.025Y-2.6
X3.025Y-2.7
X3.025Y-2.8
X3.025Y-2.9
X3.025Y-3.0
X3.025Y-3.1
X3.025Y-3.2
X3.025Y-3.3
X3.025Y-3.4
X3.025Y-3.5
X3.025Y-3.6
X3.025Y-3.7
X3.025Y-3.8
X3.025Y-3.9
X3.025Y-4.0
X3.025Y-4.1
X3.025Y-4.2
X3.025Y-4.3
X3.025Y-4.4
X3.025Y-4.5
X3.55Y-2.6
X3.55Y-2.7
X3.55Y-2.8
X3.55Y-2.9
X3.55Y-3.0
X3.55Y-3.1
X3.55Y-3.2
X3.55Y-3.3
X3.55Y-3.6
X3.55Y-3.9
X3.6Y-2.4
X3.7969Y-2.4
X3.85Y-2.6
X3.85Y-2.7
X3.85Y-2.8
X3.85Y-2.9
X3.85Y-3.0
X3.85Y-3.1
X3.85Y-3.2
X3.85Y-3.3
X3.85Y-3.6
X3.85Y-3.9
X4.375Y-2.6
X4.375Y-2.7
X4.375Y-2.8
X4.375Y-2.9
X4.375Y-3.0
X4.375Y-3.1
X4.375Y-3.2
X4.375Y-3.3
X4.375Y-3.4
X4.375Y-3.5
X4.375Y-3.6
X4.375Y-3.7
X4.375Y-3.8
X4.375Y-3.9
X4.575Y-2.4
X4.7719Y-2.4
X4.975Y-2.6
X4.975Y-2.7
X4.975Y-2.8
X4.975Y-2.9
X4.975Y-3.0
X4.975Y-3.1
X4.975Y-3.2
X4.975Y-3.3
X4.975Y-3.4
X4.975Y-3.5
X4.975Y-3.6
X4.975Y-3.7
X4.975Y-3.8
X4.975Y-3.9
T3
X1.8Y-2.6
X1.8Y-2.7
X1.8Y-2.8
X1.8Y-2.9
X1.8Y-3.0
X1.8Y-3.1
X1.8Y-3.2
X1.8Y-3.3
X1.8Y-3.4
X1.8Y-3.5
X1.8Y-3.6
X1.8Y-3.7
X1.8Y-3.8
X1.8Y-3.9
X1.8Y-4.0
X1.8Y-4.1
X1.8Y-4.2
X1.8Y-4.3
X1.8Y-4.4
X1.8Y-4.5
X1.9Y-2.6
X1.9Y-2.7
X1.9Y-2.8
X1.9Y-2.9
X1.9Y-3.0
X1.9Y-3.1
X1.9Y-3.2
X1.9Y-3.3
X1.9Y-3.4
X1.9Y-3.5
X1.9Y-3.6
X1.9Y-3.7
X1.9Y-3.8
X1.9Y-3.9
X1.9Y-4.0
X1.9Y-4.1
X1.9Y-4.2
X1.9Y-4.3
X1.9Y-4.4
X1.9Y-4.5
X3.275Y-4.25
X3.375Y-4.25
X3.475Y-4.25
X3.575Y-4.25
X3.675Y-4.25
X3.775Y-4.25
X3.875Y-4.25
X3.975Y-4.25
X4.075Y-4.25
X4.175Y-4.25
X4.275Y-4.25
X4.375Y-4.25
X4.625Y-4.25
X4.725Y-4.25
X4.825Y-4.25
X4.925Y-4.25
X5.025Y-4.25
X5.125Y-4.25
X5.5Y-2.6
X5.5Y-2.7
X5.5Y-2.8
X5.5Y-2.9
X5.5Y-3.0
X5.5Y-3.1
X5.5Y-3.2
X5.5Y-3.3
X5.5Y-3.4
X5.5Y-3.5
X5.5Y-3.6
X5.5Y-3.7
X5.5Y-3.8
X5.5Y-3.9
X5.5Y-4.0
X5.5Y-4.1
X5.5Y-4.2
X5.5Y-4.3
X5.5Y-4.4
X5.5Y-4.5
X5.6Y-2.6
X5.6Y-2.7
X5.6Y-2.8
X5.6Y-2.9
X5.6Y-3.0
X5.6Y-3.1
X5.6Y-3.2
X5.6Y-3.3
X5.6Y-3.4
X5.6Y-3.5
X5.6Y-3.6
X5.6Y-3.7
X5.6Y-3.8
X5.6Y-3.9
X5.6Y-4.0
X5.6Y-4.1
X5.6Y-4.2
X5.6Y-4.3
X5.6Y-4.4
X5.6Y-4.5
T0
M30
