M48
; DRILL file {KiCad (5.1.8)-1} date 12/06/20 18:18:45
; FORMAT={-:-/ absolute / inch / decimal}
; #@! TF.CreationDate,2020-12-06T18:18:45+00:00
; #@! TF.GenerationSoftware,Kicad,Pcbnew,(5.1.8)-1
FMAT,2
INCH
T1C0.0118
T2C0.0315
T3C0.0394
%
G90
G05
T1
X1.7488Y-3.539
X2.0045Y-4.4163
X2.0569Y-4.5561
X2.2522Y-3.0742
X2.5436Y-4.1502
X3.1951Y-2.849
X3.2149Y-3.3544
X3.2343Y-3.435
X3.2588Y-3.5475
X3.2707Y-3.4788
X3.2842Y-2.9436
X3.3245Y-2.5411
X3.3663Y-2.5504
X3.3889Y-3.1473
X3.3905Y-3.1832
X3.4082Y-3.2437
X3.4206Y-3.4785
X3.4682Y-3.7102
X3.4879Y-3.1226
X3.6664Y-3.82
X3.7292Y-2.5566
X3.8541Y-4.0881
X4.2869Y-3.9655
X4.4861Y-3.2629
X4.5604Y-3.0658
X4.9561Y-4.0435
X5.0158Y-2.7589
X5.1714Y-4.0224
X5.3503Y-2.6997
T2
X2.275Y-4.3031
X2.275Y-4.5
X4.375Y-2.6
X4.375Y-2.7
X4.375Y-2.8
X4.375Y-2.9
X4.375Y-3.0
X4.375Y-3.1
X4.375Y-3.2
X4.375Y-3.3
X4.375Y-3.4
X4.375Y-3.5
X4.375Y-3.6
X4.375Y-3.7
X4.375Y-3.8
X4.375Y-3.9
X4.975Y-2.6
X4.975Y-2.7
X4.975Y-2.8
X4.975Y-2.9
X4.975Y-3.0
X4.975Y-3.1
X4.975Y-3.2
X4.975Y-3.3
X4.975Y-3.4
X4.975Y-3.5
X4.975Y-3.6
X4.975Y-3.7
X4.975Y-3.8
X4.975Y-3.9
X5.125Y-3.7031
X5.125Y-3.9
X3.55Y-3.6
X3.55Y-3.9
X3.85Y-3.6
X3.85Y-3.9
X4.0Y-2.6
X4.0Y-2.7969
X3.55Y-2.6
X3.55Y-2.7
X3.55Y-2.8
X3.55Y-2.9
X3.55Y-3.0
X3.55Y-3.1
X3.55Y-3.2
X3.55Y-3.3
X3.85Y-2.6
X3.85Y-2.7
X3.85Y-2.8
X3.85Y-2.9
X3.85Y-3.0
X3.85Y-3.1
X3.85Y-3.2
X3.85Y-3.3
X2.425Y-2.6
X2.425Y-2.7
X2.425Y-2.8
X2.425Y-2.9
X2.425Y-3.0
X2.425Y-3.1
X2.425Y-3.2
X2.425Y-3.3
X2.425Y-3.4
X2.425Y-3.5
X2.425Y-3.6
X2.425Y-3.7
X2.425Y-3.8
X2.425Y-3.9
X2.425Y-4.0
X2.425Y-4.1
X2.425Y-4.2
X2.425Y-4.3
X2.425Y-4.4
X2.425Y-4.5
X3.025Y-2.6
X3.025Y-2.7
X3.025Y-2.8
X3.025Y-2.9
X3.025Y-3.0
X3.025Y-3.1
X3.025Y-3.2
X3.025Y-3.3
X3.025Y-3.4
X3.025Y-3.5
X3.025Y-3.6
X3.025Y-3.7
X3.025Y-3.8
X3.025Y-3.9
X3.025Y-4.0
X3.025Y-4.1
X3.025Y-4.2
X3.025Y-4.3
X3.025Y-4.4
X3.025Y-4.5
T3
X4.875Y-2.425
X4.975Y-2.425
X5.075Y-2.425
X5.175Y-2.425
X5.275Y-2.425
X5.375Y-2.425
X1.8Y-2.6
X1.8Y-2.7
X1.8Y-2.8
X1.8Y-2.9
X1.8Y-3.0
X1.8Y-3.1
X1.8Y-3.2
X1.8Y-3.3
X1.8Y-3.4
X1.8Y-3.5
X1.8Y-3.6
X1.8Y-3.7
X1.8Y-3.8
X1.8Y-3.9
X1.8Y-4.0
X1.8Y-4.1
X1.8Y-4.2
X1.8Y-4.3
X1.8Y-4.4
X1.8Y-4.5
X1.9Y-2.6
X1.9Y-2.7
X1.9Y-2.8
X1.9Y-2.9
X1.9Y-3.0
X1.9Y-3.1
X1.9Y-3.2
X1.9Y-3.3
X1.9Y-3.4
X1.9Y-3.5
X1.9Y-3.6
X1.9Y-3.7
X1.9Y-3.8
X1.9Y-3.9
X1.9Y-4.0
X1.9Y-4.1
X1.9Y-4.2
X1.9Y-4.3
X1.9Y-4.4
X1.9Y-4.5
X2.025Y-2.425
X2.125Y-2.425
X2.225Y-2.425
X2.325Y-2.425
X2.425Y-2.425
X2.525Y-2.425
X2.625Y-2.425
X2.725Y-2.425
X2.825Y-2.425
X2.925Y-2.425
X3.025Y-2.425
X3.125Y-2.425
X3.45Y-2.425
X3.55Y-2.425
X3.65Y-2.425
X3.75Y-2.425
X3.85Y-2.425
X3.95Y-2.425
X4.05Y-2.425
X4.15Y-2.425
X4.25Y-2.425
X4.35Y-2.425
X4.45Y-2.425
X4.55Y-2.425
X5.5Y-2.6
X5.5Y-2.7
X5.5Y-2.8
X5.5Y-2.9
X5.5Y-3.0
X5.5Y-3.1
X5.5Y-3.2
X5.5Y-3.3
X5.5Y-3.4
X5.5Y-3.5
X5.5Y-3.6
X5.5Y-3.7
X5.5Y-3.8
X5.5Y-3.9
X5.5Y-4.0
X5.5Y-4.1
X5.5Y-4.2
X5.5Y-4.3
X5.5Y-4.4
X5.5Y-4.5
X5.6Y-2.6
X5.6Y-2.7
X5.6Y-2.8
X5.6Y-2.9
X5.6Y-3.0
X5.6Y-3.1
X5.6Y-3.2
X5.6Y-3.3
X5.6Y-3.4
X5.6Y-3.5
X5.6Y-3.6
X5.6Y-3.7
X5.6Y-3.8
X5.6Y-3.9
X5.6Y-4.0
X5.6Y-4.1
X5.6Y-4.2
X5.6Y-4.3
X5.6Y-4.4
X5.6Y-4.5
T0
M30
