%TF.GenerationSoftware,KiCad,Pcbnew,(5.1.8)-1*%
%TF.CreationDate,2020-12-28T18:03:26+00:00*%
%TF.ProjectId,io-board,696f2d62-6f61-4726-942e-6b696361645f,rev?*%
%TF.SameCoordinates,Original*%
%TF.FileFunction,Legend,Bot*%
%TF.FilePolarity,Positive*%
%FSLAX46Y46*%
G04 Gerber Fmt 4.6, Leading zero omitted, Abs format (unit mm)*
G04 Created by KiCad (PCBNEW (5.1.8)-1) date 2020-12-28 18:03:26*
%MOMM*%
%LPD*%
G01*
G04 APERTURE LIST*
%ADD10C,0.150000*%
G04 APERTURE END LIST*
D10*
X145589047Y-57872380D02*
X145589047Y-58586666D01*
X145636666Y-58729523D01*
X145731904Y-58824761D01*
X145874761Y-58872380D01*
X145970000Y-58872380D01*
X144636666Y-58872380D02*
X145112857Y-58872380D01*
X145112857Y-57872380D01*
X143731904Y-58777142D02*
X143779523Y-58824761D01*
X143922380Y-58872380D01*
X144017619Y-58872380D01*
X144160476Y-58824761D01*
X144255714Y-58729523D01*
X144303333Y-58634285D01*
X144350952Y-58443809D01*
X144350952Y-58300952D01*
X144303333Y-58110476D01*
X144255714Y-58015238D01*
X144160476Y-57920000D01*
X144017619Y-57872380D01*
X143922380Y-57872380D01*
X143779523Y-57920000D01*
X143731904Y-57967619D01*
X143017619Y-57872380D02*
X143017619Y-58586666D01*
X143065238Y-58729523D01*
X143160476Y-58824761D01*
X143303333Y-58872380D01*
X143398571Y-58872380D01*
X142065238Y-58872380D02*
X142541428Y-58872380D01*
X142541428Y-57872380D01*
X141160476Y-58777142D02*
X141208095Y-58824761D01*
X141350952Y-58872380D01*
X141446190Y-58872380D01*
X141589047Y-58824761D01*
X141684285Y-58729523D01*
X141731904Y-58634285D01*
X141779523Y-58443809D01*
X141779523Y-58300952D01*
X141731904Y-58110476D01*
X141684285Y-58015238D01*
X141589047Y-57920000D01*
X141446190Y-57872380D01*
X141350952Y-57872380D01*
X141208095Y-57920000D01*
X141160476Y-57967619D01*
X140446190Y-57872380D02*
X140446190Y-58586666D01*
X140493809Y-58729523D01*
X140589047Y-58824761D01*
X140731904Y-58872380D01*
X140827142Y-58872380D01*
X139493809Y-58872380D02*
X139970000Y-58872380D01*
X139970000Y-57872380D01*
X138589047Y-58777142D02*
X138636666Y-58824761D01*
X138779523Y-58872380D01*
X138874761Y-58872380D01*
X139017619Y-58824761D01*
X139112857Y-58729523D01*
X139160476Y-58634285D01*
X139208095Y-58443809D01*
X139208095Y-58300952D01*
X139160476Y-58110476D01*
X139112857Y-58015238D01*
X139017619Y-57920000D01*
X138874761Y-57872380D01*
X138779523Y-57872380D01*
X138636666Y-57920000D01*
X138589047Y-57967619D01*
X137874761Y-57872380D02*
X137874761Y-58586666D01*
X137922380Y-58729523D01*
X138017619Y-58824761D01*
X138160476Y-58872380D01*
X138255714Y-58872380D01*
X136922380Y-58872380D02*
X137398571Y-58872380D01*
X137398571Y-57872380D01*
X136017619Y-58777142D02*
X136065238Y-58824761D01*
X136208095Y-58872380D01*
X136303333Y-58872380D01*
X136446190Y-58824761D01*
X136541428Y-58729523D01*
X136589047Y-58634285D01*
X136636666Y-58443809D01*
X136636666Y-58300952D01*
X136589047Y-58110476D01*
X136541428Y-58015238D01*
X136446190Y-57920000D01*
X136303333Y-57872380D01*
X136208095Y-57872380D01*
X136065238Y-57920000D01*
X136017619Y-57967619D01*
M02*
