%TF.GenerationSoftware,KiCad,Pcbnew,(5.1.8)-1*%
%TF.CreationDate,2020-12-06T18:18:42+00:00*%
%TF.ProjectId,io-board,696f2d62-6f61-4726-942e-6b696361645f,rev?*%
%TF.SameCoordinates,Original*%
%TF.FileFunction,Copper,L2,Bot*%
%TF.FilePolarity,Positive*%
%FSLAX46Y46*%
G04 Gerber Fmt 4.6, Leading zero omitted, Abs format (unit mm)*
G04 Created by KiCad (PCBNEW (5.1.8)-1) date 2020-12-06 18:18:42*
%MOMM*%
%LPD*%
G01*
G04 APERTURE LIST*
%TA.AperFunction,ComponentPad*%
%ADD10O,1.700000X1.700000*%
%TD*%
%TA.AperFunction,ComponentPad*%
%ADD11R,1.700000X1.700000*%
%TD*%
%TA.AperFunction,ComponentPad*%
%ADD12O,1.600000X1.600000*%
%TD*%
%TA.AperFunction,ComponentPad*%
%ADD13C,1.600000*%
%TD*%
%TA.AperFunction,ComponentPad*%
%ADD14C,1.700000*%
%TD*%
%TA.AperFunction,ComponentPad*%
%ADD15R,1.600000X1.600000*%
%TD*%
%TA.AperFunction,ViaPad*%
%ADD16C,0.600000*%
%TD*%
%TA.AperFunction,Conductor*%
%ADD17C,0.500000*%
%TD*%
%TA.AperFunction,Conductor*%
%ADD18C,0.250000*%
%TD*%
G04 APERTURE END LIST*
D10*
%TO.P,J4,12*%
%TO.N,GND*%
X115570000Y-61595000D03*
%TO.P,J4,11*%
%TO.N,CB2*%
X113030000Y-61595000D03*
%TO.P,J4,10*%
%TO.N,CB1*%
X110490000Y-61595000D03*
%TO.P,J4,9*%
%TO.N,PB7*%
X107950000Y-61595000D03*
%TO.P,J4,8*%
%TO.N,PB6*%
X105410000Y-61595000D03*
%TO.P,J4,7*%
%TO.N,PB5*%
X102870000Y-61595000D03*
%TO.P,J4,6*%
%TO.N,PB4*%
X100330000Y-61595000D03*
%TO.P,J4,5*%
%TO.N,PB3*%
X97790000Y-61595000D03*
%TO.P,J4,4*%
%TO.N,PB2*%
X95250000Y-61595000D03*
%TO.P,J4,3*%
%TO.N,PB1*%
X92710000Y-61595000D03*
%TO.P,J4,2*%
%TO.N,PB0*%
X90170000Y-61595000D03*
D11*
%TO.P,J4,1*%
%TO.N,+5V*%
X87630000Y-61595000D03*
%TD*%
D10*
%TO.P,J3,12*%
%TO.N,GND*%
X79375000Y-61595000D03*
%TO.P,J3,11*%
%TO.N,CA2*%
X76835000Y-61595000D03*
%TO.P,J3,10*%
%TO.N,CA1*%
X74295000Y-61595000D03*
%TO.P,J3,9*%
%TO.N,PA7*%
X71755000Y-61595000D03*
%TO.P,J3,8*%
%TO.N,PA6*%
X69215000Y-61595000D03*
%TO.P,J3,7*%
%TO.N,PA5*%
X66675000Y-61595000D03*
%TO.P,J3,6*%
%TO.N,PA4*%
X64135000Y-61595000D03*
%TO.P,J3,5*%
%TO.N,PA3*%
X61595000Y-61595000D03*
%TO.P,J3,4*%
%TO.N,PA2*%
X59055000Y-61595000D03*
%TO.P,J3,3*%
%TO.N,PA1*%
X56515000Y-61595000D03*
%TO.P,J3,2*%
%TO.N,PA0*%
X53975000Y-61595000D03*
D11*
%TO.P,J3,1*%
%TO.N,+5V*%
X51435000Y-61595000D03*
%TD*%
D12*
%TO.P,W65C22N,40*%
%TO.N,CA1*%
X76835000Y-66040000D03*
%TO.P,W65C22N,20*%
%TO.N,+5V*%
X61595000Y-114300000D03*
%TO.P,W65C22N,39*%
%TO.N,CA2*%
X76835000Y-68580000D03*
%TO.P,W65C22N,19*%
%TO.N,CB2*%
X61595000Y-111760000D03*
%TO.P,W65C22N,38*%
%TO.N,A0*%
X76835000Y-71120000D03*
%TO.P,W65C22N,18*%
%TO.N,CB1*%
X61595000Y-109220000D03*
%TO.P,W65C22N,37*%
%TO.N,A1*%
X76835000Y-73660000D03*
%TO.P,W65C22N,17*%
%TO.N,PB7*%
X61595000Y-106680000D03*
%TO.P,W65C22N,36*%
%TO.N,A2*%
X76835000Y-76200000D03*
%TO.P,W65C22N,16*%
%TO.N,PB6*%
X61595000Y-104140000D03*
%TO.P,W65C22N,35*%
%TO.N,A3*%
X76835000Y-78740000D03*
%TO.P,W65C22N,15*%
%TO.N,PB5*%
X61595000Y-101600000D03*
%TO.P,W65C22N,34*%
%TO.N,!RESET*%
X76835000Y-81280000D03*
%TO.P,W65C22N,14*%
%TO.N,PB4*%
X61595000Y-99060000D03*
%TO.P,W65C22N,33*%
%TO.N,D0*%
X76835000Y-83820000D03*
%TO.P,W65C22N,13*%
%TO.N,PB3*%
X61595000Y-96520000D03*
%TO.P,W65C22N,32*%
%TO.N,D1*%
X76835000Y-86360000D03*
%TO.P,W65C22N,12*%
%TO.N,PB2*%
X61595000Y-93980000D03*
%TO.P,W65C22N,31*%
%TO.N,D2*%
X76835000Y-88900000D03*
%TO.P,W65C22N,11*%
%TO.N,PB1*%
X61595000Y-91440000D03*
%TO.P,W65C22N,30*%
%TO.N,D3*%
X76835000Y-91440000D03*
%TO.P,W65C22N,10*%
%TO.N,PB0*%
X61595000Y-88900000D03*
%TO.P,W65C22N,29*%
%TO.N,D4*%
X76835000Y-93980000D03*
%TO.P,W65C22N,9*%
%TO.N,PA7*%
X61595000Y-86360000D03*
%TO.P,W65C22N,28*%
%TO.N,D5*%
X76835000Y-96520000D03*
%TO.P,W65C22N,8*%
%TO.N,PA6*%
X61595000Y-83820000D03*
%TO.P,W65C22N,27*%
%TO.N,D6*%
X76835000Y-99060000D03*
%TO.P,W65C22N,7*%
%TO.N,PA5*%
X61595000Y-81280000D03*
%TO.P,W65C22N,26*%
%TO.N,D7*%
X76835000Y-101600000D03*
%TO.P,W65C22N,6*%
%TO.N,PA4*%
X61595000Y-78740000D03*
%TO.P,W65C22N,25*%
%TO.N,PHI2*%
X76835000Y-104140000D03*
%TO.P,W65C22N,5*%
%TO.N,PA3*%
X61595000Y-76200000D03*
%TO.P,W65C22N,24*%
%TO.N,+5V*%
X76835000Y-106680000D03*
%TO.P,W65C22N,4*%
%TO.N,PA2*%
X61595000Y-73660000D03*
%TO.P,W65C22N,23*%
%TO.N,!PARALLEL_SELECT*%
X76835000Y-109220000D03*
%TO.P,W65C22N,3*%
%TO.N,PA1*%
X61595000Y-71120000D03*
%TO.P,W65C22N,22*%
%TO.N,R!W*%
X76835000Y-111760000D03*
%TO.P,W65C22N,2*%
%TO.N,PA0*%
X61595000Y-68580000D03*
%TO.P,W65C22N,21*%
%TO.N,!IRQ*%
X76835000Y-114300000D03*
D13*
%TO.P,W65C22N,1*%
%TO.N,GND*%
X61595000Y-66040000D03*
%TD*%
D10*
%TO.P,J5,6*%
%TO.N,GND*%
X136525000Y-61595000D03*
%TO.P,J5,5*%
%TO.N,CTS*%
X133985000Y-61595000D03*
%TO.P,J5,4*%
%TO.N,RTS*%
X131445000Y-61595000D03*
%TO.P,J5,3*%
%TO.N,RXD*%
X128905000Y-61595000D03*
%TO.P,J5,2*%
%TO.N,TXD*%
X126365000Y-61595000D03*
D11*
%TO.P,J5,1*%
%TO.N,+5V*%
X123825000Y-61595000D03*
%TD*%
D13*
%TO.P,C3,2*%
%TO.N,GND*%
X130175000Y-94060000D03*
%TO.P,C3,1*%
%TO.N,+5V*%
X130175000Y-99060000D03*
%TD*%
%TO.P,C2,2*%
%TO.N,GND*%
X101600000Y-71040000D03*
%TO.P,C2,1*%
%TO.N,+5V*%
X101600000Y-66040000D03*
%TD*%
%TO.P,C1,2*%
%TO.N,GND*%
X57785000Y-109300000D03*
%TO.P,C1,1*%
%TO.N,+5V*%
X57785000Y-114300000D03*
%TD*%
D10*
%TO.P,EXP,40*%
%TO.N,GND*%
X142240000Y-114300000D03*
%TO.P,EXP,39*%
X139700000Y-114300000D03*
%TO.P,EXP,38*%
%TO.N,+5V*%
X142240000Y-111760000D03*
%TO.P,EXP,37*%
X139700000Y-111760000D03*
%TO.P,EXP,36*%
%TO.N,D7*%
X142240000Y-109220000D03*
%TO.P,EXP,35*%
%TO.N,D6*%
X139700000Y-109220000D03*
%TO.P,EXP,34*%
%TO.N,D5*%
X142240000Y-106680000D03*
%TO.P,EXP,33*%
%TO.N,D4*%
X139700000Y-106680000D03*
%TO.P,EXP,32*%
%TO.N,D3*%
X142240000Y-104140000D03*
%TO.P,EXP,31*%
%TO.N,D2*%
X139700000Y-104140000D03*
%TO.P,EXP,30*%
%TO.N,D1*%
X142240000Y-101600000D03*
%TO.P,EXP,29*%
%TO.N,D0*%
X139700000Y-101600000D03*
%TO.P,EXP,28*%
%TO.N,A15*%
X142240000Y-99060000D03*
%TO.P,EXP,27*%
%TO.N,A14*%
X139700000Y-99060000D03*
%TO.P,EXP,26*%
%TO.N,A13*%
X142240000Y-96520000D03*
%TO.P,EXP,25*%
%TO.N,A12*%
X139700000Y-96520000D03*
%TO.P,EXP,24*%
%TO.N,A11*%
X142240000Y-93980000D03*
%TO.P,EXP,23*%
%TO.N,A10*%
X139700000Y-93980000D03*
%TO.P,EXP,22*%
%TO.N,A9*%
X142240000Y-91440000D03*
%TO.P,EXP,21*%
%TO.N,A8*%
X139700000Y-91440000D03*
%TO.P,EXP,20*%
%TO.N,A7*%
X142240000Y-88900000D03*
%TO.P,EXP,19*%
%TO.N,A6*%
X139700000Y-88900000D03*
%TO.P,EXP,18*%
%TO.N,A5*%
X142240000Y-86360000D03*
%TO.P,EXP,17*%
%TO.N,A4*%
X139700000Y-86360000D03*
%TO.P,EXP,16*%
%TO.N,A3*%
X142240000Y-83820000D03*
%TO.P,EXP,15*%
%TO.N,A2*%
X139700000Y-83820000D03*
%TO.P,EXP,14*%
%TO.N,A1*%
X142240000Y-81280000D03*
%TO.P,EXP,13*%
%TO.N,A0*%
X139700000Y-81280000D03*
%TO.P,EXP,12*%
%TO.N,!P_SELECT*%
X142240000Y-78740000D03*
%TO.P,EXP,11*%
%TO.N,RDY*%
X139700000Y-78740000D03*
%TO.P,EXP,10*%
%TO.N,!RESET*%
X142240000Y-76200000D03*
%TO.P,EXP,9*%
%TO.N,R!W*%
X139700000Y-76200000D03*
%TO.P,EXP,8*%
%TO.N,!WRITE*%
X142240000Y-73660000D03*
%TO.P,EXP,7*%
%TO.N,!READ*%
X139700000Y-73660000D03*
%TO.P,EXP,6*%
%TO.N,!NMI*%
X142240000Y-71120000D03*
%TO.P,EXP,5*%
%TO.N,!IRQ*%
X139700000Y-71120000D03*
%TO.P,EXP,4*%
%TO.N,PHI2*%
X142240000Y-68580000D03*
%TO.P,EXP,3*%
%TO.N,PHI1*%
X139700000Y-68580000D03*
%TO.P,EXP,2*%
%TO.N,CLK*%
X142240000Y-66040000D03*
D14*
%TO.P,EXP,1*%
%TO.N,GND*%
X139700000Y-66040000D03*
%TD*%
D13*
%TO.P,XTAL,4*%
%TO.N,GND*%
X97790000Y-99060000D03*
%TO.P,XTAL,5*%
%TO.N,CLK_S*%
X97790000Y-91440000D03*
%TO.P,XTAL,8*%
%TO.N,+5V*%
X90170000Y-91440000D03*
D15*
%TO.P,XTAL,1*%
%TO.N,Net-(X1-Pad1)*%
X90170000Y-99060000D03*
%TD*%
D12*
%TO.P,HC138,16*%
%TO.N,+5V*%
X97790000Y-66040000D03*
%TO.P,HC138,8*%
%TO.N,GND*%
X90170000Y-83820000D03*
%TO.P,HC138,15*%
%TO.N,!PARALLEL_SELECT*%
X97790000Y-68580000D03*
%TO.P,HC138,7*%
%TO.N,Net-(U3-Pad7)*%
X90170000Y-81280000D03*
%TO.P,HC138,14*%
%TO.N,!SERIAL_SELECT*%
X97790000Y-71120000D03*
%TO.P,HC138,6*%
%TO.N,+5V*%
X90170000Y-78740000D03*
%TO.P,HC138,13*%
%TO.N,Net-(U3-Pad13)*%
X97790000Y-73660000D03*
%TO.P,HC138,5*%
%TO.N,A7*%
X90170000Y-76200000D03*
%TO.P,HC138,12*%
%TO.N,Net-(U3-Pad12)*%
X97790000Y-76200000D03*
%TO.P,HC138,4*%
%TO.N,!P_SELECT*%
X90170000Y-73660000D03*
%TO.P,HC138,11*%
%TO.N,Net-(U3-Pad11)*%
X97790000Y-78740000D03*
%TO.P,HC138,3*%
%TO.N,A6*%
X90170000Y-71120000D03*
%TO.P,HC138,10*%
%TO.N,Net-(U3-Pad10)*%
X97790000Y-81280000D03*
%TO.P,HC138,2*%
%TO.N,A5*%
X90170000Y-68580000D03*
%TO.P,HC138,9*%
%TO.N,Net-(U3-Pad9)*%
X97790000Y-83820000D03*
D13*
%TO.P,HC138,1*%
%TO.N,A4*%
X90170000Y-66040000D03*
%TD*%
D12*
%TO.P,W65C51N,28*%
%TO.N,R!W*%
X126365000Y-66040000D03*
%TO.P,W65C51N,14*%
%TO.N,A1*%
X111125000Y-99060000D03*
%TO.P,W65C51N,27*%
%TO.N,PHI2*%
X126365000Y-68580000D03*
%TO.P,W65C51N,13*%
%TO.N,A0*%
X111125000Y-96520000D03*
%TO.P,W65C51N,26*%
%TO.N,!IRQ*%
X126365000Y-71120000D03*
%TO.P,W65C51N,12*%
%TO.N,RXD*%
X111125000Y-93980000D03*
%TO.P,W65C51N,25*%
%TO.N,D7*%
X126365000Y-73660000D03*
%TO.P,W65C51N,11*%
%TO.N,Net-(U2-Pad11)*%
X111125000Y-91440000D03*
%TO.P,W65C51N,24*%
%TO.N,D6*%
X126365000Y-76200000D03*
%TO.P,W65C51N,10*%
%TO.N,TXD*%
X111125000Y-88900000D03*
%TO.P,W65C51N,23*%
%TO.N,D5*%
X126365000Y-78740000D03*
%TO.P,W65C51N,9*%
%TO.N,CTS*%
X111125000Y-86360000D03*
%TO.P,W65C51N,22*%
%TO.N,D4*%
X126365000Y-81280000D03*
%TO.P,W65C51N,8*%
%TO.N,RTS*%
X111125000Y-83820000D03*
%TO.P,W65C51N,21*%
%TO.N,D3*%
X126365000Y-83820000D03*
%TO.P,W65C51N,7*%
%TO.N,Net-(U2-Pad7)*%
X111125000Y-81280000D03*
%TO.P,W65C51N,20*%
%TO.N,D2*%
X126365000Y-86360000D03*
%TO.P,W65C51N,6*%
%TO.N,CLK_S*%
X111125000Y-78740000D03*
%TO.P,W65C51N,19*%
%TO.N,D1*%
X126365000Y-88900000D03*
%TO.P,W65C51N,5*%
%TO.N,Net-(U2-Pad5)*%
X111125000Y-76200000D03*
%TO.P,W65C51N,18*%
%TO.N,D0*%
X126365000Y-91440000D03*
%TO.P,W65C51N,4*%
%TO.N,!RESET*%
X111125000Y-73660000D03*
%TO.P,W65C51N,17*%
%TO.N,Net-(U2-Pad17)*%
X126365000Y-93980000D03*
%TO.P,W65C51N,3*%
%TO.N,!SERIAL_SELECT*%
X111125000Y-71120000D03*
%TO.P,W65C51N,16*%
%TO.N,Net-(U2-Pad16)*%
X126365000Y-96520000D03*
%TO.P,W65C51N,2*%
%TO.N,+5V*%
X111125000Y-68580000D03*
%TO.P,W65C51N,15*%
X126365000Y-99060000D03*
D13*
%TO.P,W65C51N,1*%
%TO.N,GND*%
X111125000Y-66040000D03*
%TD*%
D10*
%TO.P,EXP,40*%
%TO.N,GND*%
X48260000Y-114300000D03*
%TO.P,EXP,39*%
X45720000Y-114300000D03*
%TO.P,EXP,38*%
%TO.N,+5V*%
X48260000Y-111760000D03*
%TO.P,EXP,37*%
X45720000Y-111760000D03*
%TO.P,EXP,36*%
%TO.N,D7*%
X48260000Y-109220000D03*
%TO.P,EXP,35*%
%TO.N,D6*%
X45720000Y-109220000D03*
%TO.P,EXP,34*%
%TO.N,D5*%
X48260000Y-106680000D03*
%TO.P,EXP,33*%
%TO.N,D4*%
X45720000Y-106680000D03*
%TO.P,EXP,32*%
%TO.N,D3*%
X48260000Y-104140000D03*
%TO.P,EXP,31*%
%TO.N,D2*%
X45720000Y-104140000D03*
%TO.P,EXP,30*%
%TO.N,D1*%
X48260000Y-101600000D03*
%TO.P,EXP,29*%
%TO.N,D0*%
X45720000Y-101600000D03*
%TO.P,EXP,28*%
%TO.N,A15*%
X48260000Y-99060000D03*
%TO.P,EXP,27*%
%TO.N,A14*%
X45720000Y-99060000D03*
%TO.P,EXP,26*%
%TO.N,A13*%
X48260000Y-96520000D03*
%TO.P,EXP,25*%
%TO.N,A12*%
X45720000Y-96520000D03*
%TO.P,EXP,24*%
%TO.N,A11*%
X48260000Y-93980000D03*
%TO.P,EXP,23*%
%TO.N,A10*%
X45720000Y-93980000D03*
%TO.P,EXP,22*%
%TO.N,A9*%
X48260000Y-91440000D03*
%TO.P,EXP,21*%
%TO.N,A8*%
X45720000Y-91440000D03*
%TO.P,EXP,20*%
%TO.N,A7*%
X48260000Y-88900000D03*
%TO.P,EXP,19*%
%TO.N,A6*%
X45720000Y-88900000D03*
%TO.P,EXP,18*%
%TO.N,A5*%
X48260000Y-86360000D03*
%TO.P,EXP,17*%
%TO.N,A4*%
X45720000Y-86360000D03*
%TO.P,EXP,16*%
%TO.N,A3*%
X48260000Y-83820000D03*
%TO.P,EXP,15*%
%TO.N,A2*%
X45720000Y-83820000D03*
%TO.P,EXP,14*%
%TO.N,A1*%
X48260000Y-81280000D03*
%TO.P,EXP,13*%
%TO.N,A0*%
X45720000Y-81280000D03*
%TO.P,EXP,12*%
%TO.N,!P_SELECT*%
X48260000Y-78740000D03*
%TO.P,EXP,11*%
%TO.N,RDY*%
X45720000Y-78740000D03*
%TO.P,EXP,10*%
%TO.N,!RESET*%
X48260000Y-76200000D03*
%TO.P,EXP,9*%
%TO.N,R!W*%
X45720000Y-76200000D03*
%TO.P,EXP,8*%
%TO.N,!WRITE*%
X48260000Y-73660000D03*
%TO.P,EXP,7*%
%TO.N,!READ*%
X45720000Y-73660000D03*
%TO.P,EXP,6*%
%TO.N,!NMI*%
X48260000Y-71120000D03*
%TO.P,EXP,5*%
%TO.N,!IRQ*%
X45720000Y-71120000D03*
%TO.P,EXP,4*%
%TO.N,PHI2*%
X48260000Y-68580000D03*
%TO.P,EXP,3*%
%TO.N,PHI1*%
X45720000Y-68580000D03*
%TO.P,EXP,2*%
%TO.N,CLK*%
X48260000Y-66040000D03*
D14*
%TO.P,EXP,1*%
%TO.N,GND*%
X45720000Y-66040000D03*
%TD*%
D16*
%TO.N,+5V*%
X88093300Y-94238700D03*
%TO.N,D6*%
X97894500Y-103836800D03*
%TO.N,D5*%
X131354000Y-102169300D03*
%TO.N,D4*%
X64606900Y-105416100D03*
%TO.N,D3*%
X82151000Y-87249300D03*
%TO.N,D2*%
X81657800Y-85202500D03*
%TO.N,A12*%
X52244200Y-115724400D03*
X125884000Y-102705500D03*
%TO.N,A11*%
X44420100Y-89891800D03*
%TO.N,A7*%
X86568400Y-82388800D03*
%TO.N,A6*%
X82773400Y-90105300D03*
%TO.N,A5*%
X84441300Y-64545000D03*
%TO.N,A4*%
X85503700Y-64779400D03*
X127401000Y-70076500D03*
X94722400Y-64938900D03*
%TO.N,A2*%
X86882300Y-88355000D03*
X86118100Y-80853200D03*
%TO.N,A1*%
X88592400Y-79315300D03*
X93125400Y-97027900D03*
X108887000Y-100724600D03*
%TO.N,A0*%
X83418100Y-74768300D03*
X83076600Y-88360900D03*
%TO.N,!RESET*%
X81154300Y-72365400D03*
%TO.N,R!W*%
X50913500Y-112174700D03*
X135896800Y-68572700D03*
%TO.N,PHI2*%
X57206300Y-78085300D03*
X115834100Y-77872500D03*
X86078200Y-79940700D03*
%TO.N,RTS*%
X113946000Y-82878000D03*
%TD*%
D17*
%TO.N,GND*%
X115570000Y-61595000D02*
X115570000Y-62895300D01*
X111125000Y-66040000D02*
X114269700Y-62895300D01*
X114269700Y-62895300D02*
X115570000Y-62895300D01*
X101600000Y-71040000D02*
X106125000Y-71040000D01*
X106125000Y-71040000D02*
X111125000Y-66040000D01*
X45720000Y-114300000D02*
X46959700Y-114300000D01*
X45720000Y-66040000D02*
X43219500Y-68540500D01*
X43219500Y-68540500D02*
X43219500Y-111799500D01*
X43219500Y-111799500D02*
X45720000Y-114300000D01*
X48260000Y-114300000D02*
X46959700Y-114300000D01*
X95166000Y-92726600D02*
X89676900Y-92726600D01*
X89676900Y-92726600D02*
X88912300Y-91962000D01*
X88912300Y-91962000D02*
X88912300Y-86328000D01*
X88912300Y-86328000D02*
X90170000Y-85070300D01*
X95166000Y-92726600D02*
X95166000Y-96436000D01*
X95166000Y-96436000D02*
X97790000Y-99060000D01*
X101600000Y-71040000D02*
X101600000Y-81792300D01*
X101600000Y-81792300D02*
X95166000Y-88226300D01*
X95166000Y-88226300D02*
X95166000Y-92726600D01*
X130175000Y-94060000D02*
X128903600Y-95331400D01*
X128903600Y-95331400D02*
X128903600Y-103503600D01*
X128903600Y-103503600D02*
X139700000Y-114300000D01*
X90170000Y-83820000D02*
X90170000Y-85070300D01*
X136525000Y-61595000D02*
X136525000Y-62895300D01*
X136525000Y-62895300D02*
X136555300Y-62895300D01*
X136555300Y-62895300D02*
X139700000Y-66040000D01*
X48260000Y-114300000D02*
X52785000Y-114300000D01*
X52785000Y-114300000D02*
X57785000Y-109300000D01*
%TO.N,+5V*%
X130175000Y-99060000D02*
X130175000Y-102235000D01*
X130175000Y-102235000D02*
X139700000Y-111760000D01*
X123825000Y-61595000D02*
X122524700Y-61595000D01*
X111125000Y-68580000D02*
X115539700Y-68580000D01*
X115539700Y-68580000D02*
X122524700Y-61595000D01*
X99549300Y-66549000D02*
X99549300Y-71177600D01*
X99549300Y-71177600D02*
X98336900Y-72390000D01*
X98336900Y-72390000D02*
X97226400Y-72390000D01*
X97226400Y-72390000D02*
X91420300Y-78196100D01*
X91420300Y-78196100D02*
X91420300Y-78740000D01*
X90170000Y-91440000D02*
X91420300Y-90189700D01*
X91420300Y-90189700D02*
X91420300Y-78740000D01*
X99549300Y-66549000D02*
X99040300Y-66040000D01*
X101600000Y-66040000D02*
X101091000Y-66549000D01*
X101091000Y-66549000D02*
X99549300Y-66549000D01*
X97790000Y-66040000D02*
X99040300Y-66040000D01*
X90170000Y-78740000D02*
X91420300Y-78740000D01*
X76835000Y-105429700D02*
X77326800Y-105429700D01*
X77326800Y-105429700D02*
X88093300Y-94663200D01*
X88093300Y-94663200D02*
X88093300Y-94238700D01*
X76835000Y-106680000D02*
X76835000Y-105429700D01*
D18*
%TO.N,D7*%
X142240000Y-109220000D02*
X142240000Y-108044700D01*
X126365000Y-73660000D02*
X126365000Y-74785300D01*
X126365000Y-74785300D02*
X126591400Y-74785300D01*
X126591400Y-74785300D02*
X127490300Y-75684200D01*
X127490300Y-75684200D02*
X127490300Y-75812800D01*
X127490300Y-75812800D02*
X139402100Y-87724600D01*
X139402100Y-87724600D02*
X140225600Y-87724600D01*
X140225600Y-87724600D02*
X141064600Y-88563600D01*
X141064600Y-88563600D02*
X141064600Y-89425600D01*
X141064600Y-89425600D02*
X141809000Y-90170000D01*
X141809000Y-90170000D02*
X142712700Y-90170000D01*
X142712700Y-90170000D02*
X144846600Y-92303900D01*
X144846600Y-92303900D02*
X144846600Y-105805400D01*
X144846600Y-105805400D02*
X142607300Y-108044700D01*
X142607300Y-108044700D02*
X142240000Y-108044700D01*
%TO.N,D6*%
X124718500Y-101735700D02*
X99995600Y-101735700D01*
X99995600Y-101735700D02*
X97894500Y-103836800D01*
X139700000Y-110395300D02*
X140065300Y-110395300D01*
X140065300Y-110395300D02*
X140915100Y-111245100D01*
X140915100Y-111245100D02*
X140915100Y-114787800D01*
X140915100Y-114787800D02*
X140199900Y-115503000D01*
X140199900Y-115503000D02*
X139175300Y-115503000D01*
X139175300Y-115503000D02*
X126509300Y-102837000D01*
X126509300Y-102837000D02*
X126509300Y-102387000D01*
X126509300Y-102387000D02*
X125858000Y-101735700D01*
X125858000Y-101735700D02*
X124718500Y-101735700D01*
X46895300Y-109220000D02*
X46895300Y-108852600D01*
X46895300Y-108852600D02*
X47703200Y-108044700D01*
X47703200Y-108044700D02*
X58121400Y-108044700D01*
X58121400Y-108044700D02*
X60453200Y-110376500D01*
X60453200Y-110376500D02*
X63127000Y-110376500D01*
X63127000Y-110376500D02*
X74443500Y-99060000D01*
X74443500Y-99060000D02*
X75709700Y-99060000D01*
X124718500Y-101735700D02*
X124718500Y-78690500D01*
X124718500Y-78690500D02*
X126083700Y-77325300D01*
X126083700Y-77325300D02*
X126365000Y-77325300D01*
X45720000Y-109220000D02*
X46895300Y-109220000D01*
X76835000Y-99060000D02*
X75709700Y-99060000D01*
X139700000Y-109220000D02*
X139700000Y-110395300D01*
X126365000Y-76200000D02*
X126365000Y-77325300D01*
%TO.N,D5*%
X142240000Y-106680000D02*
X141058900Y-107861100D01*
X141058900Y-107861100D02*
X137045800Y-107861100D01*
X137045800Y-107861100D02*
X131354000Y-102169300D01*
X126365000Y-79865300D02*
X126083700Y-79865300D01*
X126083700Y-79865300D02*
X125219600Y-80729400D01*
X125219600Y-80729400D02*
X125219600Y-91386100D01*
X125219600Y-91386100D02*
X126413200Y-92579700D01*
X126413200Y-92579700D02*
X130361400Y-92579700D01*
X130361400Y-92579700D02*
X131354000Y-93572300D01*
X131354000Y-93572300D02*
X131354000Y-102169300D01*
X126365000Y-78740000D02*
X126365000Y-79865300D01*
X75709700Y-96520000D02*
X64423400Y-107806300D01*
X64423400Y-107806300D02*
X59793800Y-107806300D01*
X59793800Y-107806300D02*
X58667500Y-106680000D01*
X58667500Y-106680000D02*
X49435300Y-106680000D01*
X76835000Y-96520000D02*
X75709700Y-96520000D01*
X48260000Y-106680000D02*
X49435300Y-106680000D01*
%TO.N,D4*%
X64606900Y-105416100D02*
X76043000Y-93980000D01*
X76043000Y-93980000D02*
X76835000Y-93980000D01*
X139700000Y-106680000D02*
X140875300Y-106680000D01*
X126365000Y-81280000D02*
X127490300Y-81280000D01*
X127490300Y-81280000D02*
X138920300Y-92710000D01*
X138920300Y-92710000D02*
X142640700Y-92710000D01*
X142640700Y-92710000D02*
X144396200Y-94465500D01*
X144396200Y-94465500D02*
X144396200Y-103649800D01*
X144396200Y-103649800D02*
X142541300Y-105504700D01*
X142541300Y-105504700D02*
X141683200Y-105504700D01*
X141683200Y-105504700D02*
X140875300Y-106312600D01*
X140875300Y-106312600D02*
X140875300Y-106680000D01*
%TO.N,D3*%
X77960300Y-91440000D02*
X82151000Y-87249300D01*
X127490300Y-83820000D02*
X138920300Y-95250000D01*
X138920300Y-95250000D02*
X142352400Y-95250000D01*
X142352400Y-95250000D02*
X143945800Y-96843400D01*
X143945800Y-96843400D02*
X143945800Y-102434200D01*
X143945800Y-102434200D02*
X142240000Y-104140000D01*
X76835000Y-91440000D02*
X77960300Y-91440000D01*
X126365000Y-83820000D02*
X127490300Y-83820000D01*
X48260000Y-104140000D02*
X49435300Y-104140000D01*
X76835000Y-91440000D02*
X75709700Y-91440000D01*
X75709700Y-91440000D02*
X75709700Y-91627900D01*
X75709700Y-91627900D02*
X62022300Y-105315300D01*
X62022300Y-105315300D02*
X50610600Y-105315300D01*
X50610600Y-105315300D02*
X49435300Y-104140000D01*
%TO.N,D2*%
X77960300Y-88900000D02*
X81657800Y-85202500D01*
X76835000Y-88900000D02*
X77960300Y-88900000D01*
X75709700Y-88900000D02*
X75709700Y-89139900D01*
X75709700Y-89139900D02*
X61884900Y-102964700D01*
X61884900Y-102964700D02*
X47703200Y-102964700D01*
X47703200Y-102964700D02*
X46895300Y-103772600D01*
X46895300Y-103772600D02*
X46895300Y-104140000D01*
X140875300Y-104140000D02*
X140875300Y-103772600D01*
X140875300Y-103772600D02*
X141683200Y-102964700D01*
X141683200Y-102964700D02*
X142539900Y-102964700D01*
X142539900Y-102964700D02*
X143436500Y-102068100D01*
X143436500Y-102068100D02*
X143436500Y-98545600D01*
X143436500Y-98545600D02*
X142680900Y-97790000D01*
X142680900Y-97790000D02*
X138920300Y-97790000D01*
X138920300Y-97790000D02*
X127490300Y-86360000D01*
X76835000Y-88900000D02*
X75709700Y-88900000D01*
X45720000Y-104140000D02*
X46895300Y-104140000D01*
X139700000Y-104140000D02*
X140875300Y-104140000D01*
X126365000Y-86360000D02*
X127490300Y-86360000D01*
%TO.N,D1*%
X76835000Y-86360000D02*
X75709700Y-86360000D01*
X75709700Y-86360000D02*
X75709700Y-86604200D01*
X75709700Y-86604200D02*
X62128500Y-100185400D01*
X62128500Y-100185400D02*
X61104800Y-100185400D01*
X61104800Y-100185400D02*
X59690200Y-101600000D01*
X59690200Y-101600000D02*
X48260000Y-101600000D01*
X141064700Y-101600000D02*
X141064700Y-101232600D01*
X141064700Y-101232600D02*
X140256800Y-100424700D01*
X140256800Y-100424700D02*
X139349100Y-100424700D01*
X139349100Y-100424700D02*
X133026500Y-94102100D01*
X133026500Y-94102100D02*
X133026500Y-93910100D01*
X133026500Y-93910100D02*
X128016400Y-88900000D01*
X128016400Y-88900000D02*
X127490300Y-88900000D01*
X142240000Y-101600000D02*
X141064700Y-101600000D01*
X126365000Y-88900000D02*
X127490300Y-88900000D01*
%TO.N,D0*%
X76835000Y-83820000D02*
X75709700Y-83820000D01*
X45720000Y-101600000D02*
X46895300Y-101600000D01*
X75709700Y-83820000D02*
X75709700Y-84064200D01*
X75709700Y-84064200D02*
X62128500Y-97645400D01*
X62128500Y-97645400D02*
X53445200Y-97645400D01*
X53445200Y-97645400D02*
X50665900Y-100424700D01*
X50665900Y-100424700D02*
X47703200Y-100424700D01*
X47703200Y-100424700D02*
X46895300Y-101232600D01*
X46895300Y-101232600D02*
X46895300Y-101600000D01*
X139700000Y-101600000D02*
X132576200Y-94476200D01*
X132576200Y-94476200D02*
X132576200Y-94157600D01*
X132576200Y-94157600D02*
X129858600Y-91440000D01*
X129858600Y-91440000D02*
X126365000Y-91440000D01*
%TO.N,A12*%
X52244200Y-115724400D02*
X52451200Y-115931400D01*
X52451200Y-115931400D02*
X112658100Y-115931400D01*
X112658100Y-115931400D02*
X125884000Y-102705500D01*
%TO.N,A11*%
X48260000Y-93980000D02*
X48260000Y-92804700D01*
X48260000Y-92804700D02*
X47892600Y-92804700D01*
X47892600Y-92804700D02*
X47084700Y-91996800D01*
X47084700Y-91996800D02*
X47084700Y-91132700D01*
X47084700Y-91132700D02*
X46216600Y-90264600D01*
X46216600Y-90264600D02*
X44792900Y-90264600D01*
X44792900Y-90264600D02*
X44420100Y-89891800D01*
%TO.N,A7*%
X86568400Y-82388800D02*
X87215900Y-81741300D01*
X87215900Y-81741300D02*
X87215900Y-79154100D01*
X87215900Y-79154100D02*
X90170000Y-76200000D01*
%TO.N,A6*%
X82773400Y-90105300D02*
X82858200Y-90105300D01*
X82858200Y-90105300D02*
X84592100Y-88371400D01*
X84592100Y-88371400D02*
X84592100Y-77598300D01*
X84592100Y-77598300D02*
X89945100Y-72245300D01*
X89945100Y-72245300D02*
X90170000Y-72245300D01*
X90170000Y-71120000D02*
X90170000Y-72245300D01*
%TO.N,A5*%
X84214300Y-62125400D02*
X82454800Y-60366000D01*
X82454800Y-60366000D02*
X63628200Y-60366000D01*
X63628200Y-60366000D02*
X62958600Y-61035600D01*
X62958600Y-61035600D02*
X62958600Y-64133900D01*
X62958600Y-64133900D02*
X64135000Y-65310300D01*
X64135000Y-65310300D02*
X64135000Y-75289000D01*
X64135000Y-75289000D02*
X61954000Y-77470000D01*
X61954000Y-77470000D02*
X58706000Y-77470000D01*
X58706000Y-77470000D02*
X49816000Y-86360000D01*
X49816000Y-86360000D02*
X49435300Y-86360000D01*
X84441300Y-64545000D02*
X84441300Y-62352500D01*
X84441300Y-62352500D02*
X84214300Y-62125400D01*
X84214300Y-62125400D02*
X86820600Y-59519100D01*
X86820600Y-59519100D02*
X133604600Y-59519100D01*
X133604600Y-59519100D02*
X135255000Y-61169500D01*
X135255000Y-61169500D02*
X135255000Y-78577700D01*
X135255000Y-78577700D02*
X139227300Y-82550000D01*
X139227300Y-82550000D02*
X140131000Y-82550000D01*
X140131000Y-82550000D02*
X140875400Y-83294400D01*
X140875400Y-83294400D02*
X140875400Y-84187400D01*
X140875400Y-84187400D02*
X141872700Y-85184700D01*
X141872700Y-85184700D02*
X142240000Y-85184700D01*
X142240000Y-86360000D02*
X142240000Y-85184700D01*
X48260000Y-86360000D02*
X49435300Y-86360000D01*
%TO.N,A4*%
X139700000Y-85184700D02*
X139332700Y-85184700D01*
X139332700Y-85184700D02*
X127940700Y-73792700D01*
X127940700Y-73792700D02*
X127940700Y-70616200D01*
X127940700Y-70616200D02*
X127401000Y-70076500D01*
X45720000Y-86360000D02*
X46895300Y-86360000D01*
X85503700Y-64779400D02*
X77893100Y-72390000D01*
X77893100Y-72390000D02*
X76467000Y-72390000D01*
X76467000Y-72390000D02*
X63459300Y-85397700D01*
X63459300Y-85397700D02*
X63459300Y-86095400D01*
X63459300Y-86095400D02*
X62019400Y-87535300D01*
X62019400Y-87535300D02*
X47703200Y-87535300D01*
X47703200Y-87535300D02*
X46895300Y-86727400D01*
X46895300Y-86727400D02*
X46895300Y-86360000D01*
X90170000Y-66040000D02*
X93621300Y-66040000D01*
X93621300Y-66040000D02*
X94722400Y-64938900D01*
X139700000Y-86360000D02*
X139700000Y-85184700D01*
%TO.N,A2*%
X86882300Y-88355000D02*
X85943000Y-87415700D01*
X85943000Y-87415700D02*
X85943000Y-81028300D01*
X85943000Y-81028300D02*
X86118100Y-80853200D01*
%TO.N,A1*%
X93125400Y-97027900D02*
X88275100Y-92177600D01*
X88275100Y-92177600D02*
X88275100Y-79632600D01*
X88275100Y-79632600D02*
X88592400Y-79315300D01*
X109999700Y-99060000D02*
X109999700Y-99611900D01*
X109999700Y-99611900D02*
X108887000Y-100724600D01*
X111125000Y-99060000D02*
X109999700Y-99060000D01*
%TO.N,A0*%
X83076600Y-88360900D02*
X83418100Y-88019400D01*
X83418100Y-88019400D02*
X83418100Y-74768300D01*
%TO.N,!RESET*%
X81154300Y-72365400D02*
X80585000Y-72934700D01*
X80585000Y-72934700D02*
X80585000Y-77530000D01*
X80585000Y-77530000D02*
X76835000Y-81280000D01*
%TO.N,CLK*%
X142240000Y-64864700D02*
X135993800Y-58618500D01*
X135993800Y-58618500D02*
X52195100Y-58618500D01*
X52195100Y-58618500D02*
X48260000Y-62553600D01*
X48260000Y-62553600D02*
X48260000Y-66040000D01*
X142240000Y-66040000D02*
X142240000Y-64864700D01*
%TO.N,R!W*%
X126365000Y-67165300D02*
X125657000Y-67165300D01*
X125657000Y-67165300D02*
X115034200Y-77788100D01*
X115034200Y-77788100D02*
X115034200Y-86593800D01*
X115034200Y-86593800D02*
X111458000Y-90170000D01*
X111458000Y-90170000D02*
X109988900Y-90170000D01*
X109988900Y-90170000D02*
X88398900Y-111760000D01*
X88398900Y-111760000D02*
X76835000Y-111760000D01*
X126365000Y-66040000D02*
X126365000Y-67165300D01*
X45720000Y-76200000D02*
X43794800Y-78125200D01*
X43794800Y-78125200D02*
X43794800Y-109008300D01*
X43794800Y-109008300D02*
X45276500Y-110490000D01*
X45276500Y-110490000D02*
X49228800Y-110490000D01*
X49228800Y-110490000D02*
X50913500Y-112174700D01*
X139700000Y-75024700D02*
X139332700Y-75024700D01*
X139332700Y-75024700D02*
X135896800Y-71588800D01*
X135896800Y-71588800D02*
X135896800Y-68572700D01*
X139700000Y-76200000D02*
X139700000Y-75024700D01*
%TO.N,RDY*%
X139700000Y-77564700D02*
X140067400Y-77564700D01*
X140067400Y-77564700D02*
X140875300Y-76756800D01*
X140875300Y-76756800D02*
X140875300Y-64233700D01*
X140875300Y-64233700D02*
X135710400Y-59068800D01*
X135710400Y-59068800D02*
X54793200Y-59068800D01*
X54793200Y-59068800D02*
X52610400Y-61251600D01*
X52610400Y-61251600D02*
X52610400Y-63377800D01*
X52610400Y-63377800D02*
X48594000Y-67394200D01*
X48594000Y-67394200D02*
X47744800Y-67394200D01*
X47744800Y-67394200D02*
X46895300Y-68243700D01*
X46895300Y-68243700D02*
X46895300Y-76756800D01*
X46895300Y-76756800D02*
X46087400Y-77564700D01*
X46087400Y-77564700D02*
X45720000Y-77564700D01*
X139700000Y-78740000D02*
X139700000Y-77564700D01*
X45720000Y-78740000D02*
X45720000Y-77564700D01*
%TO.N,!IRQ*%
X126365000Y-72245300D02*
X126083700Y-72245300D01*
X126083700Y-72245300D02*
X124268100Y-74060900D01*
X124268100Y-74060900D02*
X124268100Y-82434000D01*
X124268100Y-82434000D02*
X111452100Y-95250000D01*
X111452100Y-95250000D02*
X105545900Y-95250000D01*
X105545900Y-95250000D02*
X86495900Y-114300000D01*
X86495900Y-114300000D02*
X76835000Y-114300000D01*
X126365000Y-71120000D02*
X126365000Y-72245300D01*
X75709700Y-114300000D02*
X74544400Y-115465300D01*
X74544400Y-115465300D02*
X52869500Y-115465300D01*
X52869500Y-115465300D02*
X52503300Y-115099100D01*
X52503300Y-115099100D02*
X51985200Y-115099100D01*
X51985200Y-115099100D02*
X51607900Y-115476400D01*
X51607900Y-115476400D02*
X45169900Y-115476400D01*
X45169900Y-115476400D02*
X42644200Y-112950700D01*
X42644200Y-112950700D02*
X42644200Y-67423200D01*
X42644200Y-67423200D02*
X45212100Y-64855300D01*
X45212100Y-64855300D02*
X46198100Y-64855300D01*
X46198100Y-64855300D02*
X46895500Y-65552700D01*
X46895500Y-65552700D02*
X46895500Y-66528800D01*
X46895500Y-66528800D02*
X46114300Y-67310000D01*
X46114300Y-67310000D02*
X45263700Y-67310000D01*
X45263700Y-67310000D02*
X44544700Y-68029000D01*
X44544700Y-68029000D02*
X44544700Y-69136800D01*
X44544700Y-69136800D02*
X45352600Y-69944700D01*
X45352600Y-69944700D02*
X45720000Y-69944700D01*
X76835000Y-114300000D02*
X75709700Y-114300000D01*
X45720000Y-71120000D02*
X45720000Y-69944700D01*
%TO.N,PHI2*%
X76835000Y-103014700D02*
X77116300Y-103014700D01*
X77116300Y-103014700D02*
X85492700Y-94638300D01*
X85492700Y-94638300D02*
X85492700Y-80526200D01*
X85492700Y-80526200D02*
X86078200Y-79940700D01*
X48260000Y-68580000D02*
X48260000Y-69755300D01*
X57206300Y-78085300D02*
X48876300Y-69755300D01*
X48876300Y-69755300D02*
X48260000Y-69755300D01*
X126365000Y-68580000D02*
X125239700Y-68580000D01*
X125239700Y-68580000D02*
X115947200Y-77872500D01*
X115947200Y-77872500D02*
X115834100Y-77872500D01*
X76835000Y-104140000D02*
X76835000Y-103014700D01*
%TO.N,PB6*%
X61595000Y-104140000D02*
X75619400Y-90115600D01*
X75619400Y-90115600D02*
X77629200Y-90115600D01*
X77629200Y-90115600D02*
X82790800Y-84954000D01*
X82790800Y-84954000D02*
X82790800Y-74363100D01*
X82790800Y-74363100D02*
X89843900Y-67310000D01*
X89843900Y-67310000D02*
X93577400Y-67310000D01*
X93577400Y-67310000D02*
X97098500Y-63788900D01*
X97098500Y-63788900D02*
X102408100Y-63788900D01*
X102408100Y-63788900D02*
X104234700Y-61962300D01*
X104234700Y-61962300D02*
X104234700Y-61595000D01*
X105410000Y-61595000D02*
X104234700Y-61595000D01*
%TO.N,PB5*%
X61595000Y-101600000D02*
X75565000Y-87630000D01*
X75565000Y-87630000D02*
X77202400Y-87630000D01*
X77202400Y-87630000D02*
X82161100Y-82671300D01*
X82161100Y-82671300D02*
X82161100Y-74355900D01*
X82161100Y-74355900D02*
X87608700Y-68908300D01*
X87608700Y-68908300D02*
X87608700Y-66935100D01*
X87608700Y-66935100D02*
X90234800Y-64309000D01*
X90234800Y-64309000D02*
X95490200Y-64309000D01*
X95490200Y-64309000D02*
X96460700Y-63338500D01*
X96460700Y-63338500D02*
X100318500Y-63338500D01*
X100318500Y-63338500D02*
X101694700Y-61962300D01*
X101694700Y-61962300D02*
X101694700Y-61595000D01*
X102870000Y-61595000D02*
X101694700Y-61595000D01*
%TO.N,PB4*%
X61595000Y-99060000D02*
X75565000Y-85090000D01*
X75565000Y-85090000D02*
X77178000Y-85090000D01*
X77178000Y-85090000D02*
X81710700Y-80557300D01*
X81710700Y-80557300D02*
X81710700Y-74169400D01*
X81710700Y-74169400D02*
X85856200Y-70023900D01*
X85856200Y-70023900D02*
X85856200Y-68050700D01*
X85856200Y-68050700D02*
X90048300Y-63858600D01*
X90048300Y-63858600D02*
X95303000Y-63858600D01*
X95303000Y-63858600D02*
X96391300Y-62770300D01*
X96391300Y-62770300D02*
X98346800Y-62770300D01*
X98346800Y-62770300D02*
X99154700Y-61962400D01*
X99154700Y-61962400D02*
X99154700Y-61595000D01*
X100330000Y-61595000D02*
X99154700Y-61595000D01*
%TO.N,PB3*%
X97790000Y-61595000D02*
X96614700Y-61595000D01*
X61595000Y-96520000D02*
X75565000Y-82550000D01*
X75565000Y-82550000D02*
X77219400Y-82550000D01*
X77219400Y-82550000D02*
X81035400Y-78734000D01*
X81035400Y-78734000D02*
X81035400Y-74207800D01*
X81035400Y-74207800D02*
X84059800Y-71183400D01*
X84059800Y-71183400D02*
X84059800Y-69145000D01*
X84059800Y-69145000D02*
X89956200Y-63248600D01*
X89956200Y-63248600D02*
X95267400Y-63248600D01*
X95267400Y-63248600D02*
X96614700Y-61901300D01*
X96614700Y-61901300D02*
X96614700Y-61595000D01*
%TO.N,PB2*%
X94074700Y-61595000D02*
X94074700Y-61962400D01*
X94074700Y-61962400D02*
X93266800Y-62770300D01*
X93266800Y-62770300D02*
X89797600Y-62770300D01*
X89797600Y-62770300D02*
X80134600Y-72433300D01*
X80134600Y-72433300D02*
X80134600Y-77072700D01*
X80134600Y-77072700D02*
X77197300Y-80010000D01*
X77197300Y-80010000D02*
X76409000Y-80010000D01*
X76409000Y-80010000D02*
X62720300Y-93698700D01*
X62720300Y-93698700D02*
X62720300Y-93980000D01*
X95250000Y-61595000D02*
X94074700Y-61595000D01*
X61595000Y-93980000D02*
X62720300Y-93980000D01*
%TO.N,PB1*%
X61595000Y-90314700D02*
X61876300Y-90314700D01*
X61876300Y-90314700D02*
X73699700Y-78491300D01*
X73699700Y-78491300D02*
X73699700Y-77732800D01*
X73699700Y-77732800D02*
X76502500Y-74930000D01*
X76502500Y-74930000D02*
X77156600Y-74930000D01*
X77156600Y-74930000D02*
X78453000Y-73633600D01*
X78453000Y-73633600D02*
X78453000Y-72714500D01*
X78453000Y-72714500D02*
X86454700Y-64712800D01*
X86454700Y-64712800D02*
X86454700Y-60593900D01*
X86454700Y-60593900D02*
X86628900Y-60419700D01*
X86628900Y-60419700D02*
X90726800Y-60419700D01*
X90726800Y-60419700D02*
X91534700Y-61227600D01*
X91534700Y-61227600D02*
X91534700Y-61595000D01*
X92710000Y-61595000D02*
X91534700Y-61595000D01*
X61595000Y-91440000D02*
X61595000Y-90314700D01*
%TO.N,PB0*%
X88994700Y-61595000D02*
X88994700Y-62809700D01*
X88994700Y-62809700D02*
X79684300Y-72120100D01*
X79684300Y-72120100D02*
X79684300Y-74990400D01*
X79684300Y-74990400D02*
X77204700Y-77470000D01*
X77204700Y-77470000D02*
X76448800Y-77470000D01*
X76448800Y-77470000D02*
X75338100Y-78580700D01*
X75338100Y-78580700D02*
X75338100Y-79372400D01*
X75338100Y-79372400D02*
X62089100Y-92621400D01*
X62089100Y-92621400D02*
X61163600Y-92621400D01*
X61163600Y-92621400D02*
X60451100Y-91908900D01*
X60451100Y-91908900D02*
X60451100Y-90043900D01*
X60451100Y-90043900D02*
X61595000Y-88900000D01*
X90170000Y-61595000D02*
X88994700Y-61595000D01*
%TO.N,CA1*%
X74295000Y-61595000D02*
X74295000Y-62770300D01*
X76835000Y-66040000D02*
X76835000Y-64914700D01*
X76835000Y-64914700D02*
X74690600Y-62770300D01*
X74690600Y-62770300D02*
X74295000Y-62770300D01*
%TO.N,PA7*%
X61595000Y-86360000D02*
X61595000Y-85234700D01*
X61595000Y-85234700D02*
X61876300Y-85234700D01*
X61876300Y-85234700D02*
X71755000Y-75356000D01*
X71755000Y-75356000D02*
X71755000Y-61595000D01*
%TO.N,PA6*%
X61595000Y-83820000D02*
X61595000Y-82694700D01*
X61595000Y-82694700D02*
X61876300Y-82694700D01*
X61876300Y-82694700D02*
X69215000Y-75356000D01*
X69215000Y-75356000D02*
X69215000Y-61595000D01*
%TO.N,PA5*%
X66675000Y-61595000D02*
X66675000Y-75279000D01*
X66675000Y-75279000D02*
X61799300Y-80154700D01*
X61799300Y-80154700D02*
X61595000Y-80154700D01*
X61595000Y-81280000D02*
X61595000Y-80154700D01*
%TO.N,PA4*%
X64135000Y-61595000D02*
X64135000Y-62770300D01*
X61595000Y-78740000D02*
X64621800Y-75713200D01*
X64621800Y-75713200D02*
X64621800Y-63257100D01*
X64621800Y-63257100D02*
X64135000Y-62770300D01*
%TO.N,PA3*%
X61595000Y-62770300D02*
X61595000Y-63407200D01*
X61595000Y-63407200D02*
X63668900Y-65481100D01*
X63668900Y-65481100D02*
X63668900Y-73282100D01*
X63668900Y-73282100D02*
X61876300Y-75074700D01*
X61876300Y-75074700D02*
X61595000Y-75074700D01*
X61595000Y-61595000D02*
X61595000Y-62770300D01*
X61595000Y-76200000D02*
X61595000Y-75074700D01*
%TO.N,PA2*%
X59055000Y-62770300D02*
X59936500Y-62770300D01*
X59936500Y-62770300D02*
X63218000Y-66051800D01*
X63218000Y-66051800D02*
X63218000Y-71193000D01*
X63218000Y-71193000D02*
X61876300Y-72534700D01*
X61876300Y-72534700D02*
X61595000Y-72534700D01*
X59055000Y-61595000D02*
X59055000Y-62770300D01*
X61595000Y-73660000D02*
X61595000Y-72534700D01*
%TO.N,PA1*%
X56515000Y-62770300D02*
X61054700Y-67310000D01*
X61054700Y-67310000D02*
X61925400Y-67310000D01*
X61925400Y-67310000D02*
X62754700Y-68139300D01*
X62754700Y-68139300D02*
X62754700Y-69116300D01*
X62754700Y-69116300D02*
X61876300Y-69994700D01*
X61876300Y-69994700D02*
X61595000Y-69994700D01*
X56515000Y-61595000D02*
X56515000Y-62770300D01*
X61595000Y-71120000D02*
X61595000Y-69994700D01*
%TO.N,PA0*%
X53975000Y-61595000D02*
X53975000Y-62770300D01*
X61595000Y-68580000D02*
X60469700Y-68580000D01*
X60469700Y-68580000D02*
X54660000Y-62770300D01*
X54660000Y-62770300D02*
X53975000Y-62770300D01*
%TO.N,CA2*%
X76835000Y-61595000D02*
X76835000Y-62770300D01*
X76835000Y-68580000D02*
X76835000Y-67454700D01*
X76835000Y-67454700D02*
X77116300Y-67454700D01*
X77116300Y-67454700D02*
X77971900Y-66599100D01*
X77971900Y-66599100D02*
X77971900Y-63907200D01*
X77971900Y-63907200D02*
X76835000Y-62770300D01*
%TO.N,CB2*%
X114205300Y-61595000D02*
X114205300Y-61227600D01*
X114205300Y-61227600D02*
X115013200Y-60419700D01*
X115013200Y-60419700D02*
X116124400Y-60419700D01*
X116124400Y-60419700D02*
X116759300Y-61054600D01*
X116759300Y-61054600D02*
X116759300Y-62542100D01*
X116759300Y-62542100D02*
X111991400Y-67310000D01*
X111991400Y-67310000D02*
X110797500Y-67310000D01*
X110797500Y-67310000D02*
X105645000Y-72462500D01*
X105645000Y-72462500D02*
X105645000Y-79338900D01*
X105645000Y-79338900D02*
X96612000Y-88371900D01*
X96612000Y-88371900D02*
X96612000Y-95653900D01*
X96612000Y-95653900D02*
X98919100Y-97961000D01*
X98919100Y-97961000D02*
X98919100Y-99344700D01*
X98919100Y-99344700D02*
X87683600Y-110580200D01*
X87683600Y-110580200D02*
X63900000Y-110580200D01*
X63900000Y-110580200D02*
X63900000Y-110580300D01*
X63900000Y-110580300D02*
X62720300Y-111760000D01*
X113030000Y-61595000D02*
X114205300Y-61595000D01*
X61595000Y-111760000D02*
X62720300Y-111760000D01*
%TO.N,CB1*%
X61595000Y-109220000D02*
X63646600Y-109220000D01*
X63646600Y-109220000D02*
X75076600Y-97790000D01*
X75076600Y-97790000D02*
X77166800Y-97790000D01*
X77166800Y-97790000D02*
X85042400Y-89914400D01*
X85042400Y-89914400D02*
X85042400Y-79714100D01*
X85042400Y-79714100D02*
X89826500Y-74930000D01*
X89826500Y-74930000D02*
X90561000Y-74930000D01*
X90561000Y-74930000D02*
X96026000Y-69465000D01*
X96026000Y-69465000D02*
X96026000Y-66135200D01*
X96026000Y-66135200D02*
X97246600Y-64914600D01*
X97246600Y-64914600D02*
X106362400Y-64914600D01*
X106362400Y-64914600D02*
X109314700Y-61962300D01*
X109314700Y-61962300D02*
X109314700Y-61595000D01*
X110490000Y-61595000D02*
X109314700Y-61595000D01*
%TO.N,PB7*%
X62720300Y-106680000D02*
X62720300Y-106418400D01*
X62720300Y-106418400D02*
X76284100Y-92854600D01*
X76284100Y-92854600D02*
X77935900Y-92854600D01*
X77935900Y-92854600D02*
X81784000Y-89006500D01*
X81784000Y-89006500D02*
X83315400Y-89006500D01*
X83315400Y-89006500D02*
X83962300Y-88359600D01*
X83962300Y-88359600D02*
X83962300Y-75736100D01*
X83962300Y-75736100D02*
X89848400Y-69850000D01*
X89848400Y-69850000D02*
X91674300Y-69850000D01*
X91674300Y-69850000D02*
X97285100Y-64239200D01*
X97285100Y-64239200D02*
X104497800Y-64239200D01*
X104497800Y-64239200D02*
X106774700Y-61962300D01*
X106774700Y-61962300D02*
X106774700Y-61595000D01*
X107950000Y-61595000D02*
X106774700Y-61595000D01*
X61595000Y-106680000D02*
X62720300Y-106680000D01*
%TO.N,!PARALLEL_SELECT*%
X76835000Y-109220000D02*
X76835000Y-108094700D01*
X97790000Y-68580000D02*
X97790000Y-69705300D01*
X97790000Y-69705300D02*
X97508600Y-69705300D01*
X97508600Y-69705300D02*
X96664700Y-70549200D01*
X96664700Y-70549200D02*
X96664700Y-71336200D01*
X96664700Y-71336200D02*
X90675500Y-77325400D01*
X90675500Y-77325400D02*
X89681500Y-77325400D01*
X89681500Y-77325400D02*
X87824700Y-79182200D01*
X87824700Y-79182200D02*
X87824700Y-92853100D01*
X87824700Y-92853100D02*
X88726000Y-93754400D01*
X88726000Y-93754400D02*
X88726000Y-96485000D01*
X88726000Y-96485000D02*
X77116300Y-108094700D01*
X77116300Y-108094700D02*
X76835000Y-108094700D01*
%TO.N,RXD*%
X128905000Y-61595000D02*
X128905000Y-67667700D01*
X128905000Y-67667700D02*
X126722700Y-69850000D01*
X126722700Y-69850000D02*
X126022400Y-69850000D01*
X126022400Y-69850000D02*
X120400000Y-75472400D01*
X120400000Y-75472400D02*
X120400000Y-83861000D01*
X120400000Y-83861000D02*
X111406300Y-92854700D01*
X111406300Y-92854700D02*
X111125000Y-92854700D01*
X111125000Y-93980000D02*
X111125000Y-92854700D01*
%TO.N,TXD*%
X126365000Y-61595000D02*
X126365000Y-63736900D01*
X126365000Y-63736900D02*
X113308100Y-76793800D01*
X113308100Y-76793800D02*
X113308100Y-85872900D01*
X113308100Y-85872900D02*
X111406300Y-87774700D01*
X111406300Y-87774700D02*
X111125000Y-87774700D01*
X111125000Y-88900000D02*
X111125000Y-87774700D01*
%TO.N,CTS*%
X132809700Y-61595000D02*
X132809700Y-61227600D01*
X132809700Y-61227600D02*
X131551500Y-59969400D01*
X131551500Y-59969400D02*
X126276800Y-59969400D01*
X126276800Y-59969400D02*
X125000400Y-61245800D01*
X125000400Y-61245800D02*
X125000400Y-63318300D01*
X125000400Y-63318300D02*
X112250300Y-76068400D01*
X112250300Y-76068400D02*
X112250300Y-84390800D01*
X112250300Y-84390800D02*
X111406400Y-85234700D01*
X111406400Y-85234700D02*
X111125000Y-85234700D01*
X133985000Y-61595000D02*
X132809700Y-61595000D01*
X111125000Y-86360000D02*
X111125000Y-85234700D01*
%TO.N,RTS*%
X131445000Y-61595000D02*
X130269700Y-61595000D01*
X113946000Y-82878000D02*
X113946000Y-76867200D01*
X113946000Y-76867200D02*
X127540400Y-63272800D01*
X127540400Y-63272800D02*
X127540400Y-61232200D01*
X127540400Y-61232200D02*
X128352900Y-60419700D01*
X128352900Y-60419700D02*
X129395700Y-60419700D01*
X129395700Y-60419700D02*
X130269700Y-61293700D01*
X130269700Y-61293700D02*
X130269700Y-61595000D01*
%TO.N,CLK_S*%
X111125000Y-78740000D02*
X109999700Y-78740000D01*
X109999700Y-78740000D02*
X109999700Y-79230300D01*
X109999700Y-79230300D02*
X97790000Y-91440000D01*
%TD*%
M02*
