%TF.GenerationSoftware,KiCad,Pcbnew,5.1.9-73d0e3b20d~88~ubuntu20.04.1*%
%TF.CreationDate,2021-01-16T15:59:04+00:00*%
%TF.ProjectId,io-board,696f2d62-6f61-4726-942e-6b696361645f,rev?*%
%TF.SameCoordinates,Original*%
%TF.FileFunction,Copper,L1,Top*%
%TF.FilePolarity,Positive*%
%FSLAX46Y46*%
G04 Gerber Fmt 4.6, Leading zero omitted, Abs format (unit mm)*
G04 Created by KiCad (PCBNEW 5.1.9-73d0e3b20d~88~ubuntu20.04.1) date 2021-01-16 15:59:04*
%MOMM*%
%LPD*%
G01*
G04 APERTURE LIST*
%TA.AperFunction,ComponentPad*%
%ADD10C,1.600000*%
%TD*%
%TA.AperFunction,ComponentPad*%
%ADD11O,1.700000X1.700000*%
%TD*%
%TA.AperFunction,ComponentPad*%
%ADD12R,1.700000X1.700000*%
%TD*%
%TA.AperFunction,ComponentPad*%
%ADD13O,1.600000X1.600000*%
%TD*%
%TA.AperFunction,ComponentPad*%
%ADD14R,1.600000X1.600000*%
%TD*%
%TA.AperFunction,ViaPad*%
%ADD15C,0.600000*%
%TD*%
%TA.AperFunction,Conductor*%
%ADD16C,0.500000*%
%TD*%
%TA.AperFunction,Conductor*%
%ADD17C,0.250000*%
%TD*%
G04 APERTURE END LIST*
D10*
%TO.P,C3,1*%
%TO.N,GND*%
X116205000Y-60960000D03*
%TO.P,C3,2*%
%TO.N,+5V*%
X121205000Y-60960000D03*
%TD*%
%TO.P,C2,1*%
%TO.N,GND*%
X91440000Y-60960000D03*
%TO.P,C2,2*%
%TO.N,+5V*%
X96440000Y-60960000D03*
%TD*%
%TO.P,C1,1*%
%TO.N,GND*%
X66675000Y-60960000D03*
%TO.P,C1,2*%
%TO.N,+5V*%
X71675000Y-60960000D03*
%TD*%
D11*
%TO.P,J3,12*%
%TO.N,GND*%
X83185000Y-107950000D03*
%TO.P,J3,11*%
%TO.N,CA2*%
X85725000Y-107950000D03*
%TO.P,J3,10*%
%TO.N,CA1*%
X88265000Y-107950000D03*
%TO.P,J3,9*%
%TO.N,PA7*%
X90805000Y-107950000D03*
%TO.P,J3,8*%
%TO.N,PA6*%
X93345000Y-107950000D03*
%TO.P,J3,7*%
%TO.N,PA5*%
X95885000Y-107950000D03*
%TO.P,J3,6*%
%TO.N,PA4*%
X98425000Y-107950000D03*
%TO.P,J3,5*%
%TO.N,PA3*%
X100965000Y-107950000D03*
%TO.P,J3,4*%
%TO.N,PA2*%
X103505000Y-107950000D03*
%TO.P,J3,3*%
%TO.N,PA1*%
X106045000Y-107950000D03*
%TO.P,J3,2*%
%TO.N,PA0*%
X108585000Y-107950000D03*
D12*
%TO.P,J3,1*%
%TO.N,+5V*%
X111125000Y-107950000D03*
%TD*%
D13*
%TO.P,U1,40*%
%TO.N,CA1*%
X76835000Y-66040000D03*
%TO.P,U1,20*%
%TO.N,+5V*%
X61595000Y-114300000D03*
%TO.P,U1,39*%
%TO.N,CA2*%
X76835000Y-68580000D03*
%TO.P,U1,19*%
%TO.N,CB2*%
X61595000Y-111760000D03*
%TO.P,U1,38*%
%TO.N,A0*%
X76835000Y-71120000D03*
%TO.P,U1,18*%
%TO.N,CB1*%
X61595000Y-109220000D03*
%TO.P,U1,37*%
%TO.N,A1*%
X76835000Y-73660000D03*
%TO.P,U1,17*%
%TO.N,PB7*%
X61595000Y-106680000D03*
%TO.P,U1,36*%
%TO.N,A2*%
X76835000Y-76200000D03*
%TO.P,U1,16*%
%TO.N,PB6*%
X61595000Y-104140000D03*
%TO.P,U1,35*%
%TO.N,A3*%
X76835000Y-78740000D03*
%TO.P,U1,15*%
%TO.N,PB5*%
X61595000Y-101600000D03*
%TO.P,U1,34*%
%TO.N,!RESET*%
X76835000Y-81280000D03*
%TO.P,U1,14*%
%TO.N,PB4*%
X61595000Y-99060000D03*
%TO.P,U1,33*%
%TO.N,D0*%
X76835000Y-83820000D03*
%TO.P,U1,13*%
%TO.N,PB3*%
X61595000Y-96520000D03*
%TO.P,U1,32*%
%TO.N,D1*%
X76835000Y-86360000D03*
%TO.P,U1,12*%
%TO.N,PB2*%
X61595000Y-93980000D03*
%TO.P,U1,31*%
%TO.N,D2*%
X76835000Y-88900000D03*
%TO.P,U1,11*%
%TO.N,PB1*%
X61595000Y-91440000D03*
%TO.P,U1,30*%
%TO.N,D3*%
X76835000Y-91440000D03*
%TO.P,U1,10*%
%TO.N,PB0*%
X61595000Y-88900000D03*
%TO.P,U1,29*%
%TO.N,D4*%
X76835000Y-93980000D03*
%TO.P,U1,9*%
%TO.N,PA7*%
X61595000Y-86360000D03*
%TO.P,U1,28*%
%TO.N,D5*%
X76835000Y-96520000D03*
%TO.P,U1,8*%
%TO.N,PA6*%
X61595000Y-83820000D03*
%TO.P,U1,27*%
%TO.N,D6*%
X76835000Y-99060000D03*
%TO.P,U1,7*%
%TO.N,PA5*%
X61595000Y-81280000D03*
%TO.P,U1,26*%
%TO.N,D7*%
X76835000Y-101600000D03*
%TO.P,U1,6*%
%TO.N,PA4*%
X61595000Y-78740000D03*
%TO.P,U1,25*%
%TO.N,PHI2*%
X76835000Y-104140000D03*
%TO.P,U1,5*%
%TO.N,PA3*%
X61595000Y-76200000D03*
%TO.P,U1,24*%
%TO.N,+5V*%
X76835000Y-106680000D03*
%TO.P,U1,4*%
%TO.N,PA2*%
X61595000Y-73660000D03*
%TO.P,U1,23*%
%TO.N,!PARALLEL_SELECT*%
X76835000Y-109220000D03*
%TO.P,U1,3*%
%TO.N,PA1*%
X61595000Y-71120000D03*
%TO.P,U1,22*%
%TO.N,R!W*%
X76835000Y-111760000D03*
%TO.P,U1,2*%
%TO.N,PA0*%
X61595000Y-68580000D03*
%TO.P,U1,21*%
%TO.N,!IRQ*%
X76835000Y-114300000D03*
D14*
%TO.P,U1,1*%
%TO.N,GND*%
X61595000Y-66040000D03*
%TD*%
D11*
%TO.P,J5,6*%
%TO.N,GND*%
X117475000Y-107950000D03*
%TO.P,J5,5*%
%TO.N,CTS*%
X120015000Y-107950000D03*
%TO.P,J5,4*%
%TO.N,RTS*%
X122555000Y-107950000D03*
%TO.P,J5,3*%
%TO.N,RXD*%
X125095000Y-107950000D03*
%TO.P,J5,2*%
%TO.N,TXD*%
X127635000Y-107950000D03*
D12*
%TO.P,J5,1*%
%TO.N,+5V*%
X130175000Y-107950000D03*
%TD*%
D11*
%TO.P,J2,40*%
%TO.N,GND*%
X142240000Y-114300000D03*
%TO.P,J2,39*%
X139700000Y-114300000D03*
%TO.P,J2,38*%
%TO.N,+5V*%
X142240000Y-111760000D03*
%TO.P,J2,37*%
X139700000Y-111760000D03*
%TO.P,J2,36*%
%TO.N,D7*%
X142240000Y-109220000D03*
%TO.P,J2,35*%
%TO.N,D6*%
X139700000Y-109220000D03*
%TO.P,J2,34*%
%TO.N,D5*%
X142240000Y-106680000D03*
%TO.P,J2,33*%
%TO.N,D4*%
X139700000Y-106680000D03*
%TO.P,J2,32*%
%TO.N,D3*%
X142240000Y-104140000D03*
%TO.P,J2,31*%
%TO.N,D2*%
X139700000Y-104140000D03*
%TO.P,J2,30*%
%TO.N,D1*%
X142240000Y-101600000D03*
%TO.P,J2,29*%
%TO.N,D0*%
X139700000Y-101600000D03*
%TO.P,J2,28*%
%TO.N,A15*%
X142240000Y-99060000D03*
%TO.P,J2,27*%
%TO.N,A14*%
X139700000Y-99060000D03*
%TO.P,J2,26*%
%TO.N,A13*%
X142240000Y-96520000D03*
%TO.P,J2,25*%
%TO.N,A12*%
X139700000Y-96520000D03*
%TO.P,J2,24*%
%TO.N,A11*%
X142240000Y-93980000D03*
%TO.P,J2,23*%
%TO.N,A10*%
X139700000Y-93980000D03*
%TO.P,J2,22*%
%TO.N,A9*%
X142240000Y-91440000D03*
%TO.P,J2,21*%
%TO.N,A8*%
X139700000Y-91440000D03*
%TO.P,J2,20*%
%TO.N,A7*%
X142240000Y-88900000D03*
%TO.P,J2,19*%
%TO.N,A6*%
X139700000Y-88900000D03*
%TO.P,J2,18*%
%TO.N,A5*%
X142240000Y-86360000D03*
%TO.P,J2,17*%
%TO.N,A4*%
X139700000Y-86360000D03*
%TO.P,J2,16*%
%TO.N,A3*%
X142240000Y-83820000D03*
%TO.P,J2,15*%
%TO.N,A2*%
X139700000Y-83820000D03*
%TO.P,J2,14*%
%TO.N,A1*%
X142240000Y-81280000D03*
%TO.P,J2,13*%
%TO.N,A0*%
X139700000Y-81280000D03*
%TO.P,J2,12*%
%TO.N,GND*%
X142240000Y-78740000D03*
%TO.P,J2,11*%
X139700000Y-78740000D03*
%TO.P,J2,10*%
%TO.N,CLK*%
X142240000Y-76200000D03*
%TO.P,J2,9*%
%TO.N,RDY*%
X139700000Y-76200000D03*
%TO.P,J2,8*%
%TO.N,!RESET*%
X142240000Y-73660000D03*
%TO.P,J2,7*%
%TO.N,R!W*%
X139700000Y-73660000D03*
%TO.P,J2,6*%
%TO.N,!WRITE*%
X142240000Y-71120000D03*
%TO.P,J2,5*%
%TO.N,!READ*%
X139700000Y-71120000D03*
%TO.P,J2,4*%
%TO.N,!NMI*%
X142240000Y-68580000D03*
%TO.P,J2,3*%
%TO.N,!IRQ*%
X139700000Y-68580000D03*
%TO.P,J2,2*%
%TO.N,PHI2*%
X142240000Y-66040000D03*
D12*
%TO.P,J2,1*%
%TO.N,PHI1*%
X139700000Y-66040000D03*
%TD*%
D10*
%TO.P,X1,4*%
%TO.N,GND*%
X90170000Y-91440000D03*
%TO.P,X1,5*%
%TO.N,CLK_S*%
X90170000Y-99060000D03*
%TO.P,X1,8*%
%TO.N,+5V*%
X97790000Y-99060000D03*
D14*
%TO.P,X1,1*%
%TO.N,Net-(X1-Pad1)*%
X97790000Y-91440000D03*
%TD*%
D13*
%TO.P,U2,16*%
%TO.N,+5V*%
X97790000Y-66040000D03*
%TO.P,U2,8*%
%TO.N,GND*%
X90170000Y-83820000D03*
%TO.P,U2,15*%
%TO.N,!PARALLEL_SELECT*%
X97790000Y-68580000D03*
%TO.P,U2,7*%
%TO.N,Net-(U2-Pad7)*%
X90170000Y-81280000D03*
%TO.P,U2,14*%
%TO.N,!SERIAL_SELECT*%
X97790000Y-71120000D03*
%TO.P,U2,6*%
%TO.N,A15*%
X90170000Y-78740000D03*
%TO.P,U2,13*%
%TO.N,Net-(U2-Pad13)*%
X97790000Y-73660000D03*
%TO.P,U2,5*%
%TO.N,A14*%
X90170000Y-76200000D03*
%TO.P,U2,12*%
%TO.N,Net-(U2-Pad12)*%
X97790000Y-76200000D03*
%TO.P,U2,4*%
%TO.N,A7*%
X90170000Y-73660000D03*
%TO.P,U2,11*%
%TO.N,Net-(U2-Pad11)*%
X97790000Y-78740000D03*
%TO.P,U2,3*%
%TO.N,A6*%
X90170000Y-71120000D03*
%TO.P,U2,10*%
%TO.N,Net-(U2-Pad10)*%
X97790000Y-81280000D03*
%TO.P,U2,2*%
%TO.N,A5*%
X90170000Y-68580000D03*
%TO.P,U2,9*%
%TO.N,Net-(U2-Pad9)*%
X97790000Y-83820000D03*
D14*
%TO.P,U2,1*%
%TO.N,A4*%
X90170000Y-66040000D03*
%TD*%
D13*
%TO.P,U3,28*%
%TO.N,R!W*%
X126365000Y-66040000D03*
%TO.P,U3,14*%
%TO.N,A1*%
X111125000Y-99060000D03*
%TO.P,U3,27*%
%TO.N,PHI2*%
X126365000Y-68580000D03*
%TO.P,U3,13*%
%TO.N,A0*%
X111125000Y-96520000D03*
%TO.P,U3,26*%
%TO.N,!IRQ*%
X126365000Y-71120000D03*
%TO.P,U3,12*%
%TO.N,RXD*%
X111125000Y-93980000D03*
%TO.P,U3,25*%
%TO.N,D7*%
X126365000Y-73660000D03*
%TO.P,U3,11*%
%TO.N,Net-(U3-Pad11)*%
X111125000Y-91440000D03*
%TO.P,U3,24*%
%TO.N,D6*%
X126365000Y-76200000D03*
%TO.P,U3,10*%
%TO.N,TXD*%
X111125000Y-88900000D03*
%TO.P,U3,23*%
%TO.N,D5*%
X126365000Y-78740000D03*
%TO.P,U3,9*%
%TO.N,CTS*%
X111125000Y-86360000D03*
%TO.P,U3,22*%
%TO.N,D4*%
X126365000Y-81280000D03*
%TO.P,U3,8*%
%TO.N,RTS*%
X111125000Y-83820000D03*
%TO.P,U3,21*%
%TO.N,D3*%
X126365000Y-83820000D03*
%TO.P,U3,7*%
%TO.N,Net-(U3-Pad7)*%
X111125000Y-81280000D03*
%TO.P,U3,20*%
%TO.N,D2*%
X126365000Y-86360000D03*
%TO.P,U3,6*%
%TO.N,CLK_S*%
X111125000Y-78740000D03*
%TO.P,U3,19*%
%TO.N,D1*%
X126365000Y-88900000D03*
%TO.P,U3,5*%
%TO.N,Net-(U3-Pad5)*%
X111125000Y-76200000D03*
%TO.P,U3,18*%
%TO.N,D0*%
X126365000Y-91440000D03*
%TO.P,U3,4*%
%TO.N,!RESET*%
X111125000Y-73660000D03*
%TO.P,U3,17*%
%TO.N,Net-(U3-Pad17)*%
X126365000Y-93980000D03*
%TO.P,U3,3*%
%TO.N,!SERIAL_SELECT*%
X111125000Y-71120000D03*
%TO.P,U3,16*%
%TO.N,Net-(U3-Pad16)*%
X126365000Y-96520000D03*
%TO.P,U3,2*%
%TO.N,+5V*%
X111125000Y-68580000D03*
%TO.P,U3,15*%
X126365000Y-99060000D03*
D14*
%TO.P,U3,1*%
%TO.N,GND*%
X111125000Y-66040000D03*
%TD*%
D11*
%TO.P,J1,40*%
%TO.N,GND*%
X48260000Y-114300000D03*
%TO.P,J1,39*%
X45720000Y-114300000D03*
%TO.P,J1,38*%
%TO.N,+5V*%
X48260000Y-111760000D03*
%TO.P,J1,37*%
X45720000Y-111760000D03*
%TO.P,J1,36*%
%TO.N,D7*%
X48260000Y-109220000D03*
%TO.P,J1,35*%
%TO.N,D6*%
X45720000Y-109220000D03*
%TO.P,J1,34*%
%TO.N,D5*%
X48260000Y-106680000D03*
%TO.P,J1,33*%
%TO.N,D4*%
X45720000Y-106680000D03*
%TO.P,J1,32*%
%TO.N,D3*%
X48260000Y-104140000D03*
%TO.P,J1,31*%
%TO.N,D2*%
X45720000Y-104140000D03*
%TO.P,J1,30*%
%TO.N,D1*%
X48260000Y-101600000D03*
%TO.P,J1,29*%
%TO.N,D0*%
X45720000Y-101600000D03*
%TO.P,J1,28*%
%TO.N,A15*%
X48260000Y-99060000D03*
%TO.P,J1,27*%
%TO.N,A14*%
X45720000Y-99060000D03*
%TO.P,J1,26*%
%TO.N,A13*%
X48260000Y-96520000D03*
%TO.P,J1,25*%
%TO.N,A12*%
X45720000Y-96520000D03*
%TO.P,J1,24*%
%TO.N,A11*%
X48260000Y-93980000D03*
%TO.P,J1,23*%
%TO.N,A10*%
X45720000Y-93980000D03*
%TO.P,J1,22*%
%TO.N,A9*%
X48260000Y-91440000D03*
%TO.P,J1,21*%
%TO.N,A8*%
X45720000Y-91440000D03*
%TO.P,J1,20*%
%TO.N,A7*%
X48260000Y-88900000D03*
%TO.P,J1,19*%
%TO.N,A6*%
X45720000Y-88900000D03*
%TO.P,J1,18*%
%TO.N,A5*%
X48260000Y-86360000D03*
%TO.P,J1,17*%
%TO.N,A4*%
X45720000Y-86360000D03*
%TO.P,J1,16*%
%TO.N,A3*%
X48260000Y-83820000D03*
%TO.P,J1,15*%
%TO.N,A2*%
X45720000Y-83820000D03*
%TO.P,J1,14*%
%TO.N,A1*%
X48260000Y-81280000D03*
%TO.P,J1,13*%
%TO.N,A0*%
X45720000Y-81280000D03*
%TO.P,J1,12*%
%TO.N,GND*%
X48260000Y-78740000D03*
%TO.P,J1,11*%
X45720000Y-78740000D03*
%TO.P,J1,10*%
%TO.N,CLK*%
X48260000Y-76200000D03*
%TO.P,J1,9*%
%TO.N,RDY*%
X45720000Y-76200000D03*
%TO.P,J1,8*%
%TO.N,!RESET*%
X48260000Y-73660000D03*
%TO.P,J1,7*%
%TO.N,R!W*%
X45720000Y-73660000D03*
%TO.P,J1,6*%
%TO.N,!WRITE*%
X48260000Y-71120000D03*
%TO.P,J1,5*%
%TO.N,!READ*%
X45720000Y-71120000D03*
%TO.P,J1,4*%
%TO.N,!NMI*%
X48260000Y-68580000D03*
%TO.P,J1,3*%
%TO.N,!IRQ*%
X45720000Y-68580000D03*
%TO.P,J1,2*%
%TO.N,PHI2*%
X48260000Y-66040000D03*
D12*
%TO.P,J1,1*%
%TO.N,PHI1*%
X45720000Y-66040000D03*
%TD*%
D15*
%TO.N,+5V*%
X84307800Y-106085600D03*
%TO.N,D5*%
X66070000Y-96520000D03*
%TO.N,D4*%
X124907100Y-95842400D03*
X66004500Y-94069700D03*
%TO.N,D3*%
X78045800Y-97150700D03*
X73136800Y-99146500D03*
%TO.N,D2*%
X65639000Y-91310900D03*
X125308900Y-90239200D03*
%TO.N,D1*%
X63800600Y-90911800D03*
%TO.N,D0*%
X62800800Y-87301900D03*
%TO.N,A15*%
X82637200Y-97768500D03*
%TO.N,A14*%
X84604600Y-95139600D03*
%TO.N,A13*%
X67179100Y-106888900D03*
%TO.N,A8*%
X83713700Y-117867700D03*
%TO.N,A7*%
X81684700Y-85090000D03*
%TO.N,A6*%
X121968000Y-72390000D03*
%TO.N,A4*%
X122386800Y-69272000D03*
%TO.N,A2*%
X77812600Y-82685600D03*
%TO.N,A1*%
X79709900Y-94163300D03*
%TO.N,A0*%
X114100600Y-80124000D03*
%TO.N,!RESET*%
X102175700Y-63765600D03*
X72458800Y-67404400D03*
%TO.N,PHI2*%
X75389900Y-60399000D03*
%TO.N,PA6*%
X70918800Y-105232200D03*
%TO.N,PA5*%
X70123000Y-103157400D03*
%TO.N,PA4*%
X70924300Y-103000900D03*
%TO.N,PA3*%
X69573400Y-100688000D03*
%TO.N,PA2*%
X99566300Y-89572700D03*
X70903900Y-87459100D03*
%TO.N,PA1*%
X99445700Y-70118400D03*
%TO.N,PA0*%
X95650000Y-64674300D03*
%TD*%
D16*
%TO.N,GND*%
X91440000Y-60960000D02*
X93307900Y-62827900D01*
X93307900Y-62827900D02*
X107912900Y-62827900D01*
X107912900Y-62827900D02*
X111125000Y-66040000D01*
X66675000Y-60960000D02*
X67925400Y-62210400D01*
X67925400Y-62210400D02*
X90189600Y-62210400D01*
X90189600Y-62210400D02*
X91440000Y-60960000D01*
X117475000Y-107950000D02*
X123825000Y-114300000D01*
X123825000Y-114300000D02*
X139700000Y-114300000D01*
X83185000Y-107950000D02*
X84485400Y-109250400D01*
X84485400Y-109250400D02*
X116174600Y-109250400D01*
X116174600Y-109250400D02*
X117475000Y-107950000D01*
X142240000Y-78740000D02*
X139700000Y-78740000D01*
X139700000Y-114300000D02*
X142240000Y-114300000D01*
X45720000Y-114300000D02*
X48260000Y-114300000D01*
%TO.N,+5V*%
X130175000Y-107950000D02*
X133985000Y-111760000D01*
X133985000Y-111760000D02*
X139700000Y-111760000D01*
X111125000Y-107950000D02*
X112432700Y-106642300D01*
X112432700Y-106642300D02*
X128867300Y-106642300D01*
X128867300Y-106642300D02*
X130175000Y-107950000D01*
X111125000Y-68580000D02*
X100330000Y-68580000D01*
X100330000Y-68580000D02*
X97790000Y-66040000D01*
X76835000Y-106680000D02*
X77429400Y-106085600D01*
X77429400Y-106085600D02*
X84307800Y-106085600D01*
X142240000Y-111760000D02*
X139700000Y-111760000D01*
X48260000Y-111760000D02*
X59055000Y-111760000D01*
X59055000Y-111760000D02*
X61595000Y-114300000D01*
X45720000Y-111760000D02*
X48260000Y-111760000D01*
D17*
%TO.N,D7*%
X68571200Y-103818000D02*
X70789200Y-101600000D01*
X70789200Y-101600000D02*
X76835000Y-101600000D01*
X48260000Y-109220000D02*
X49530000Y-107950000D01*
X49530000Y-107950000D02*
X64439200Y-107950000D01*
X64439200Y-107950000D02*
X68571200Y-103818000D01*
X68571200Y-103818000D02*
X75243200Y-110490000D01*
X75243200Y-110490000D02*
X115257600Y-110490000D01*
X115257600Y-110490000D02*
X120260400Y-115492800D01*
X120260400Y-115492800D02*
X142756800Y-115492800D01*
X142756800Y-115492800D02*
X143424000Y-114825600D01*
X143424000Y-114825600D02*
X143424000Y-110404000D01*
X143424000Y-110404000D02*
X142240000Y-109220000D01*
%TO.N,D6*%
X139700000Y-109220000D02*
X135191700Y-104711700D01*
X135191700Y-104711700D02*
X91536600Y-104711700D01*
X91536600Y-104711700D02*
X85884900Y-99060000D01*
X85884900Y-99060000D02*
X76835000Y-99060000D01*
X76835000Y-99060000D02*
X75832700Y-100062300D01*
X75832700Y-100062300D02*
X68933700Y-100062300D01*
X68933700Y-100062300D02*
X63586000Y-105410000D01*
X63586000Y-105410000D02*
X51433100Y-105410000D01*
X51433100Y-105410000D02*
X48893100Y-107950000D01*
X48893100Y-107950000D02*
X46990000Y-107950000D01*
X46990000Y-107950000D02*
X45720000Y-109220000D01*
%TO.N,D5*%
X142240000Y-106680000D02*
X143432600Y-105487400D01*
X143432600Y-105487400D02*
X143432600Y-103595300D01*
X143432600Y-103595300D02*
X142707300Y-102870000D01*
X142707300Y-102870000D02*
X138524600Y-102870000D01*
X138524600Y-102870000D02*
X136416400Y-100761800D01*
X136416400Y-100761800D02*
X89543700Y-100761800D01*
X89543700Y-100761800D02*
X85301900Y-96520000D01*
X85301900Y-96520000D02*
X76835000Y-96520000D01*
X76835000Y-96520000D02*
X66070000Y-96520000D01*
%TO.N,D4*%
X124907100Y-95842400D02*
X123074600Y-97674900D01*
X123074600Y-97674900D02*
X102865100Y-97674900D01*
X102865100Y-97674900D02*
X101744400Y-96554200D01*
X101744400Y-96554200D02*
X88175800Y-96554200D01*
X88175800Y-96554200D02*
X85158600Y-93537000D01*
X85158600Y-93537000D02*
X77278000Y-93537000D01*
X77278000Y-93537000D02*
X76835000Y-93980000D01*
X66004500Y-94069700D02*
X76745300Y-94069700D01*
X76745300Y-94069700D02*
X76835000Y-93980000D01*
%TO.N,D3*%
X142240000Y-104140000D02*
X141059900Y-105320100D01*
X141059900Y-105320100D02*
X138434700Y-105320100D01*
X138434700Y-105320100D02*
X134326700Y-101212100D01*
X134326700Y-101212100D02*
X89310800Y-101212100D01*
X89310800Y-101212100D02*
X85234300Y-97135600D01*
X85234300Y-97135600D02*
X78060900Y-97135600D01*
X78060900Y-97135600D02*
X78045800Y-97150700D01*
X48260000Y-104140000D02*
X49530000Y-102870000D01*
X49530000Y-102870000D02*
X63818900Y-102870000D01*
X63818900Y-102870000D02*
X67542400Y-99146500D01*
X67542400Y-99146500D02*
X73136800Y-99146500D01*
%TO.N,D2*%
X76835000Y-88900000D02*
X98009300Y-88900000D01*
X98009300Y-88900000D02*
X99348500Y-90239200D01*
X99348500Y-90239200D02*
X125308900Y-90239200D01*
X65639000Y-91310900D02*
X66979000Y-91310900D01*
X66979000Y-91310900D02*
X69389900Y-88900000D01*
X69389900Y-88900000D02*
X76835000Y-88900000D01*
%TO.N,D1*%
X126365000Y-88900000D02*
X125145900Y-87680900D01*
X125145900Y-87680900D02*
X80066900Y-87680900D01*
X80066900Y-87680900D02*
X78746000Y-86360000D01*
X78746000Y-86360000D02*
X76835000Y-86360000D01*
X63800600Y-90911800D02*
X66037500Y-88674900D01*
X66037500Y-88674900D02*
X68593600Y-88674900D01*
X68593600Y-88674900D02*
X70908500Y-86360000D01*
X70908500Y-86360000D02*
X76835000Y-86360000D01*
%TO.N,D0*%
X126365000Y-91440000D02*
X127510500Y-90294500D01*
X127510500Y-90294500D02*
X127510500Y-88449200D01*
X127510500Y-88449200D02*
X126742400Y-87681100D01*
X126742400Y-87681100D02*
X125885900Y-87681100D01*
X125885900Y-87681100D02*
X125239600Y-87034800D01*
X125239600Y-87034800D02*
X114708800Y-87034800D01*
X114708800Y-87034800D02*
X112888800Y-85214800D01*
X112888800Y-85214800D02*
X83979900Y-85214800D01*
X83979900Y-85214800D02*
X82585100Y-83820000D01*
X82585100Y-83820000D02*
X76835000Y-83820000D01*
X76835000Y-83820000D02*
X70741500Y-83820000D01*
X70741500Y-83820000D02*
X67259600Y-87301900D01*
X67259600Y-87301900D02*
X62800800Y-87301900D01*
%TO.N,A15*%
X142240000Y-99060000D02*
X143883000Y-100703000D01*
X143883000Y-100703000D02*
X143883000Y-106706900D01*
X143883000Y-106706900D02*
X142726400Y-107863500D01*
X142726400Y-107863500D02*
X138980400Y-107863500D01*
X138980400Y-107863500D02*
X133229600Y-102112700D01*
X133229600Y-102112700D02*
X89574500Y-102112700D01*
X89574500Y-102112700D02*
X85230300Y-97768500D01*
X85230300Y-97768500D02*
X82637200Y-97768500D01*
X48260000Y-99060000D02*
X49450600Y-100250600D01*
X49450600Y-100250600D02*
X64124000Y-100250600D01*
X64124000Y-100250600D02*
X66598500Y-97776100D01*
X66598500Y-97776100D02*
X82629600Y-97776100D01*
X82629600Y-97776100D02*
X82637200Y-97768500D01*
%TO.N,A14*%
X84604600Y-95139600D02*
X89708700Y-100243700D01*
X89708700Y-100243700D02*
X138516300Y-100243700D01*
X138516300Y-100243700D02*
X139700000Y-99060000D01*
X45720000Y-99060000D02*
X46990000Y-97790000D01*
X46990000Y-97790000D02*
X61916500Y-97790000D01*
X61916500Y-97790000D02*
X64566900Y-95139600D01*
X64566900Y-95139600D02*
X84604600Y-95139600D01*
%TO.N,A13*%
X67179100Y-106888900D02*
X76233300Y-115943100D01*
X76233300Y-115943100D02*
X142943400Y-115943100D01*
X142943400Y-115943100D02*
X144333300Y-114553200D01*
X144333300Y-114553200D02*
X144333300Y-98613300D01*
X144333300Y-98613300D02*
X142240000Y-96520000D01*
%TO.N,A12*%
X139700000Y-96520000D02*
X138285400Y-95105400D01*
X138285400Y-95105400D02*
X88391800Y-95105400D01*
X88391800Y-95105400D02*
X86141000Y-92854600D01*
X86141000Y-92854600D02*
X64311900Y-92854600D01*
X64311900Y-92854600D02*
X61916500Y-95250000D01*
X61916500Y-95250000D02*
X46990000Y-95250000D01*
X46990000Y-95250000D02*
X45720000Y-96520000D01*
%TO.N,A11*%
X48260000Y-93980000D02*
X47040400Y-92760400D01*
X47040400Y-92760400D02*
X45277000Y-92760400D01*
X45277000Y-92760400D02*
X44035400Y-94002000D01*
X44035400Y-94002000D02*
X44035400Y-111805600D01*
X44035400Y-111805600D02*
X45259800Y-113030000D01*
X45259800Y-113030000D02*
X54759000Y-113030000D01*
X54759000Y-113030000D02*
X58604400Y-116875400D01*
X58604400Y-116875400D02*
X143299400Y-116875400D01*
X143299400Y-116875400D02*
X145233900Y-114940900D01*
X145233900Y-114940900D02*
X145233900Y-96973900D01*
X145233900Y-96973900D02*
X142240000Y-93980000D01*
%TO.N,A10*%
X45720000Y-93980000D02*
X44493600Y-95206400D01*
X44493600Y-95206400D02*
X44493600Y-109667600D01*
X44493600Y-109667600D02*
X45397200Y-110571200D01*
X45397200Y-110571200D02*
X68050200Y-110571200D01*
X68050200Y-110571200D02*
X73893900Y-116414900D01*
X73893900Y-116414900D02*
X143108500Y-116414900D01*
X143108500Y-116414900D02*
X144783600Y-114739800D01*
X144783600Y-114739800D02*
X144783600Y-97337200D01*
X144783600Y-97337200D02*
X142791000Y-95344600D01*
X142791000Y-95344600D02*
X141064600Y-95344600D01*
X141064600Y-95344600D02*
X139700000Y-93980000D01*
%TO.N,A9*%
X48260000Y-91440000D02*
X49393500Y-90306500D01*
X49393500Y-90306500D02*
X62087300Y-90306500D01*
X62087300Y-90306500D02*
X63717100Y-91936300D01*
X63717100Y-91936300D02*
X72629300Y-91936300D01*
X72629300Y-91936300D02*
X74251000Y-90314600D01*
X74251000Y-90314600D02*
X98785100Y-90314600D01*
X98785100Y-90314600D02*
X101036000Y-92565500D01*
X101036000Y-92565500D02*
X131207300Y-92565500D01*
X131207300Y-92565500D02*
X133523400Y-90249400D01*
X133523400Y-90249400D02*
X141049400Y-90249400D01*
X141049400Y-90249400D02*
X142240000Y-91440000D01*
%TO.N,A8*%
X45720000Y-91440000D02*
X43525100Y-93634900D01*
X43525100Y-93634900D02*
X43525100Y-113821600D01*
X43525100Y-113821600D02*
X47571200Y-117867700D01*
X47571200Y-117867700D02*
X83713700Y-117867700D01*
%TO.N,A7*%
X48260000Y-88900000D02*
X49400000Y-87760000D01*
X49400000Y-87760000D02*
X62160800Y-87760000D01*
X62160800Y-87760000D02*
X62328100Y-87927300D01*
X62328100Y-87927300D02*
X68388000Y-87927300D01*
X68388000Y-87927300D02*
X71225300Y-85090000D01*
X71225300Y-85090000D02*
X81684700Y-85090000D01*
X142240000Y-88900000D02*
X143444900Y-87695100D01*
X143444900Y-87695100D02*
X143444900Y-83358500D01*
X143444900Y-83358500D02*
X142636400Y-82550000D01*
X142636400Y-82550000D02*
X141830600Y-82550000D01*
X141830600Y-82550000D02*
X140875400Y-81594800D01*
X140875400Y-81594800D02*
X140875400Y-80754400D01*
X140875400Y-80754400D02*
X140131000Y-80010000D01*
X140131000Y-80010000D02*
X139187300Y-80010000D01*
X139187300Y-80010000D02*
X136791900Y-77614600D01*
X136791900Y-77614600D02*
X94124600Y-77614600D01*
X94124600Y-77614600D02*
X90170000Y-73660000D01*
%TO.N,A6*%
X90170000Y-71120000D02*
X91440000Y-72390000D01*
X91440000Y-72390000D02*
X121968000Y-72390000D01*
X45720000Y-88900000D02*
X44525700Y-87705700D01*
X44525700Y-87705700D02*
X44525700Y-83340600D01*
X44525700Y-83340600D02*
X45316300Y-82550000D01*
X45316300Y-82550000D02*
X48893100Y-82550000D01*
X48893100Y-82550000D02*
X53973100Y-77470000D01*
X53973100Y-77470000D02*
X83820000Y-77470000D01*
X83820000Y-77470000D02*
X90170000Y-71120000D01*
%TO.N,A4*%
X90170000Y-66040000D02*
X95586400Y-66040000D01*
X95586400Y-66040000D02*
X96745300Y-64881100D01*
X96745300Y-64881100D02*
X106389900Y-64881100D01*
X106389900Y-64881100D02*
X108818800Y-67310000D01*
X108818800Y-67310000D02*
X120424800Y-67310000D01*
X120424800Y-67310000D02*
X122386800Y-69272000D01*
%TO.N,A3*%
X48260000Y-83820000D02*
X51925400Y-80154600D01*
X51925400Y-80154600D02*
X75420400Y-80154600D01*
X75420400Y-80154600D02*
X76835000Y-78740000D01*
X76835000Y-78740000D02*
X77960400Y-79865400D01*
X77960400Y-79865400D02*
X111346400Y-79865400D01*
X111346400Y-79865400D02*
X114031000Y-82550000D01*
X114031000Y-82550000D02*
X140970000Y-82550000D01*
X140970000Y-82550000D02*
X142240000Y-83820000D01*
%TO.N,A2*%
X77812600Y-82685600D02*
X71239000Y-82685600D01*
X71239000Y-82685600D02*
X68893200Y-85031400D01*
X68893200Y-85031400D02*
X46931400Y-85031400D01*
X46931400Y-85031400D02*
X45720000Y-83820000D01*
X139700000Y-83820000D02*
X138574300Y-84945700D01*
X138574300Y-84945700D02*
X115423300Y-84945700D01*
X115423300Y-84945700D02*
X113163200Y-82685600D01*
X113163200Y-82685600D02*
X77812600Y-82685600D01*
%TO.N,A1*%
X111125000Y-99060000D02*
X99844900Y-99060000D01*
X99844900Y-99060000D02*
X98239800Y-97454900D01*
X98239800Y-97454900D02*
X87930100Y-97454900D01*
X87930100Y-97454900D02*
X84638500Y-94163300D01*
X84638500Y-94163300D02*
X79709900Y-94163300D01*
X111125000Y-99060000D02*
X123360600Y-99060000D01*
X123360600Y-99060000D02*
X124725200Y-97695400D01*
X124725200Y-97695400D02*
X140225600Y-97695400D01*
X140225600Y-97695400D02*
X140876900Y-97044100D01*
X140876900Y-97044100D02*
X140876900Y-96034600D01*
X140876900Y-96034600D02*
X140186900Y-95344600D01*
X140186900Y-95344600D02*
X139336000Y-95344600D01*
X139336000Y-95344600D02*
X138512600Y-94521200D01*
X138512600Y-94521200D02*
X138512600Y-93502400D01*
X138512600Y-93502400D02*
X139304900Y-92710100D01*
X139304900Y-92710100D02*
X142644700Y-92710100D01*
X142644700Y-92710100D02*
X143895300Y-91459500D01*
X143895300Y-91459500D02*
X143895300Y-82935300D01*
X143895300Y-82935300D02*
X142240000Y-81280000D01*
X76835000Y-73660000D02*
X75565000Y-74930000D01*
X75565000Y-74930000D02*
X54610000Y-74930000D01*
X54610000Y-74930000D02*
X48260000Y-81280000D01*
%TO.N,A0*%
X76835000Y-71120000D02*
X75565000Y-72390000D01*
X75565000Y-72390000D02*
X56513100Y-72390000D01*
X56513100Y-72390000D02*
X48893100Y-80010000D01*
X48893100Y-80010000D02*
X46990000Y-80010000D01*
X46990000Y-80010000D02*
X45720000Y-81280000D01*
X139700000Y-81280000D02*
X138544000Y-80124000D01*
X138544000Y-80124000D02*
X114100600Y-80124000D01*
%TO.N,!RESET*%
X102175700Y-63765600D02*
X76097600Y-63765600D01*
X76097600Y-63765600D02*
X72458800Y-67404400D01*
X48260000Y-73660000D02*
X54515600Y-67404400D01*
X54515600Y-67404400D02*
X72458800Y-67404400D01*
X111125000Y-73660000D02*
X112315600Y-74850600D01*
X112315600Y-74850600D02*
X141049400Y-74850600D01*
X141049400Y-74850600D02*
X142240000Y-73660000D01*
%TO.N,CLK*%
X48260000Y-76200000D02*
X54754700Y-69705300D01*
X54754700Y-69705300D02*
X62061200Y-69705300D01*
X62061200Y-69705300D02*
X62961400Y-68805100D01*
X62961400Y-68805100D02*
X74233600Y-68805100D01*
X74233600Y-68805100D02*
X75600900Y-67437800D01*
X75600900Y-67437800D02*
X98260200Y-67437800D01*
X98260200Y-67437800D02*
X100719700Y-69897300D01*
X100719700Y-69897300D02*
X123550800Y-69897300D01*
X123550800Y-69897300D02*
X126043500Y-72390000D01*
X126043500Y-72390000D02*
X142660800Y-72390000D01*
X142660800Y-72390000D02*
X143427800Y-73157000D01*
X143427800Y-73157000D02*
X143427800Y-75012200D01*
X143427800Y-75012200D02*
X142240000Y-76200000D01*
%TO.N,!READ*%
X140970000Y-68170600D02*
X140970000Y-69850000D01*
X141830600Y-67310000D02*
X140970000Y-68170600D01*
X143462200Y-66547100D02*
X142699300Y-67310000D01*
X142699300Y-67310000D02*
X141830600Y-67310000D01*
X143462200Y-65597300D02*
X143462200Y-66547100D01*
X51088798Y-58386200D02*
X136251100Y-58386200D01*
X140970000Y-69850000D02*
X139700000Y-71120000D01*
X44505100Y-69905100D02*
X44505100Y-64969898D01*
X136251100Y-58386200D02*
X143462200Y-65597300D01*
X44505100Y-64969898D02*
X51088798Y-58386200D01*
X45720000Y-71120000D02*
X44505100Y-69905100D01*
%TO.N,!IRQ*%
X126365000Y-71120000D02*
X117497500Y-62252500D01*
X117497500Y-62252500D02*
X108900100Y-62252500D01*
X108900100Y-62252500D02*
X106448400Y-59800800D01*
X106448400Y-59800800D02*
X89271500Y-59800800D01*
X89271500Y-59800800D02*
X88021900Y-61050400D01*
X88021900Y-61050400D02*
X74428000Y-61050400D01*
X74428000Y-61050400D02*
X73178400Y-59800800D01*
X73178400Y-59800800D02*
X61482300Y-59800800D01*
X61482300Y-59800800D02*
X53973100Y-67310000D01*
X53973100Y-67310000D02*
X46990000Y-67310000D01*
X46990000Y-67310000D02*
X45720000Y-68580000D01*
X126365000Y-71120000D02*
X128905000Y-68580000D01*
X128905000Y-68580000D02*
X139700000Y-68580000D01*
%TO.N,PHI2*%
X126365000Y-68580000D02*
X117121100Y-59336100D01*
X117121100Y-59336100D02*
X75907000Y-59336100D01*
X75907000Y-59336100D02*
X75389900Y-59853200D01*
X75389900Y-59853200D02*
X74872800Y-59336100D01*
X74872800Y-59336100D02*
X54963900Y-59336100D01*
X54963900Y-59336100D02*
X48260000Y-66040000D01*
X75389900Y-59853200D02*
X75389900Y-60399000D01*
X142240000Y-66040000D02*
X141042400Y-67237600D01*
X141042400Y-67237600D02*
X127707400Y-67237600D01*
X127707400Y-67237600D02*
X126365000Y-68580000D01*
%TO.N,PHI1*%
X139700000Y-66040000D02*
X132497900Y-58837900D01*
X132497900Y-58837900D02*
X52922100Y-58837900D01*
X52922100Y-58837900D02*
X45720000Y-66040000D01*
%TO.N,PA6*%
X70918800Y-105232200D02*
X73517800Y-107831200D01*
X73517800Y-107831200D02*
X79974300Y-107831200D01*
X79974300Y-107831200D02*
X81051900Y-106753600D01*
X81051900Y-106753600D02*
X92148600Y-106753600D01*
X92148600Y-106753600D02*
X93345000Y-107950000D01*
%TO.N,PA5*%
X70123000Y-103157400D02*
X72379600Y-105414000D01*
X72379600Y-105414000D02*
X85683000Y-105414000D01*
X85683000Y-105414000D02*
X86372500Y-106103500D01*
X86372500Y-106103500D02*
X94038500Y-106103500D01*
X94038500Y-106103500D02*
X95885000Y-107950000D01*
%TO.N,PA4*%
X70924300Y-103000900D02*
X83906800Y-103000900D01*
X83906800Y-103000900D02*
X86559100Y-105653200D01*
X86559100Y-105653200D02*
X96128200Y-105653200D01*
X96128200Y-105653200D02*
X98425000Y-107950000D01*
%TO.N,PA3*%
X69573400Y-100688000D02*
X75843900Y-100688000D01*
X75843900Y-100688000D02*
X76057900Y-100474000D01*
X76057900Y-100474000D02*
X83298800Y-100474000D01*
X83298800Y-100474000D02*
X87986900Y-105162100D01*
X87986900Y-105162100D02*
X98177100Y-105162100D01*
X98177100Y-105162100D02*
X100965000Y-107950000D01*
%TO.N,PA2*%
X70903900Y-87459100D02*
X71125600Y-87680800D01*
X71125600Y-87680800D02*
X79111500Y-87680800D01*
X79111500Y-87680800D02*
X79562000Y-88131300D01*
X79562000Y-88131300D02*
X98124900Y-88131300D01*
X98124900Y-88131300D02*
X99566300Y-89572700D01*
%TO.N,PA1*%
X61595000Y-71120000D02*
X62751500Y-69963500D01*
X62751500Y-69963500D02*
X99290800Y-69963500D01*
X99290800Y-69963500D02*
X99445700Y-70118400D01*
%TO.N,PA0*%
X61595000Y-68580000D02*
X61975800Y-68199200D01*
X61975800Y-68199200D02*
X72579800Y-68199200D01*
X72579800Y-68199200D02*
X76104700Y-64674300D01*
X76104700Y-64674300D02*
X95650000Y-64674300D01*
%TO.N,!SERIAL_SELECT*%
X111125000Y-71120000D02*
X97790000Y-71120000D01*
%TD*%
M02*
