M48
; DRILL file {KiCad (5.1.8)-1} date 12/26/20 15:16:32
; FORMAT={-:-/ absolute / inch / decimal}
; #@! TF.CreationDate,2020-12-26T15:16:32+00:00
; #@! TF.GenerationSoftware,Kicad,Pcbnew,(5.1.8)-1
FMAT,2
INCH
T1C0.0118
T2C0.0315
T3C0.0394
%
G90
G05
T1
X1.9939Y-3.2576
X2.1415Y-4.4468
X2.3311Y-2.4939
X2.3538Y-2.7301
X2.3565Y-2.5185
X2.6662Y-3.1969
X2.7355Y-3.37
X2.7561Y-3.1555
X2.7754Y-2.5152
X2.8516Y-3.7778
X2.852Y-3.7426
X2.9646Y-4.1457
X3.0642Y-4.0396
X3.0738Y-3.8751
X3.1439Y-2.7253
X3.1606Y-3.4901
X3.2106Y-3.527
X3.2183Y-2.9523
X3.2328Y-3.2085
X3.237Y-3.3385
X3.2902Y-3.4105
X3.2927Y-3.2962
X3.4687Y-2.6472
X3.7507Y-3.0749
X3.7899Y-3.3455
X3.9888Y-3.5521
X4.7121Y-3.3
X4.8184Y-2.4989
X4.8184Y-2.625
X4.8184Y-2.7291
X4.8988Y-3.7157
X5.0312Y-3.2
X5.0415Y-2.9187
X5.0527Y-2.7732
X5.6408Y-3.5592
T2
X2.625Y-2.4
X2.8219Y-2.4
X3.55Y-2.6
X3.55Y-2.7
X3.55Y-2.8
X3.55Y-2.9
X3.55Y-3.0
X3.55Y-3.1
X3.55Y-3.2
X3.55Y-3.3
X3.85Y-2.6
X3.85Y-2.7
X3.85Y-2.8
X3.85Y-2.9
X3.85Y-3.0
X3.85Y-3.1
X3.85Y-3.2
X3.85Y-3.3
X3.6Y-2.4
X3.7969Y-2.4
X3.55Y-3.6
X3.55Y-3.9
X3.85Y-3.6
X3.85Y-3.9
X4.375Y-2.6
X4.375Y-2.7
X4.375Y-2.8
X4.375Y-2.9
X4.375Y-3.0
X4.375Y-3.1
X4.375Y-3.2
X4.375Y-3.3
X4.375Y-3.4
X4.375Y-3.5
X4.375Y-3.6
X4.375Y-3.7
X4.375Y-3.8
X4.375Y-3.9
X4.975Y-2.6
X4.975Y-2.7
X4.975Y-2.8
X4.975Y-2.9
X4.975Y-3.0
X4.975Y-3.1
X4.975Y-3.2
X4.975Y-3.3
X4.975Y-3.4
X4.975Y-3.5
X4.975Y-3.6
X4.975Y-3.7
X4.975Y-3.8
X4.975Y-3.9
X2.425Y-2.6
X2.425Y-2.7
X2.425Y-2.8
X2.425Y-2.9
X2.425Y-3.0
X2.425Y-3.1
X2.425Y-3.2
X2.425Y-3.3
X2.425Y-3.4
X2.425Y-3.5
X2.425Y-3.6
X2.425Y-3.7
X2.425Y-3.8
X2.425Y-3.9
X2.425Y-4.0
X2.425Y-4.1
X2.425Y-4.2
X2.425Y-4.3
X2.425Y-4.4
X2.425Y-4.5
X3.025Y-2.6
X3.025Y-2.7
X3.025Y-2.8
X3.025Y-2.9
X3.025Y-3.0
X3.025Y-3.1
X3.025Y-3.2
X3.025Y-3.3
X3.025Y-3.4
X3.025Y-3.5
X3.025Y-3.6
X3.025Y-3.7
X3.025Y-3.8
X3.025Y-3.9
X3.025Y-4.0
X3.025Y-4.1
X3.025Y-4.2
X3.025Y-4.3
X3.025Y-4.4
X3.025Y-4.5
X4.575Y-2.4
X4.7719Y-2.4
T3
X3.275Y-4.25
X3.375Y-4.25
X3.475Y-4.25
X3.575Y-4.25
X3.675Y-4.25
X3.775Y-4.25
X3.875Y-4.25
X3.975Y-4.25
X4.075Y-4.25
X4.175Y-4.25
X4.275Y-4.25
X4.375Y-4.25
X1.8Y-2.6
X1.8Y-2.7
X1.8Y-2.8
X1.8Y-2.9
X1.8Y-3.0
X1.8Y-3.1
X1.8Y-3.2
X1.8Y-3.3
X1.8Y-3.4
X1.8Y-3.5
X1.8Y-3.6
X1.8Y-3.7
X1.8Y-3.8
X1.8Y-3.9
X1.8Y-4.0
X1.8Y-4.1
X1.8Y-4.2
X1.8Y-4.3
X1.8Y-4.4
X1.8Y-4.5
X1.9Y-2.6
X1.9Y-2.7
X1.9Y-2.8
X1.9Y-2.9
X1.9Y-3.0
X1.9Y-3.1
X1.9Y-3.2
X1.9Y-3.3
X1.9Y-3.4
X1.9Y-3.5
X1.9Y-3.6
X1.9Y-3.7
X1.9Y-3.8
X1.9Y-3.9
X1.9Y-4.0
X1.9Y-4.1
X1.9Y-4.2
X1.9Y-4.3
X1.9Y-4.4
X1.9Y-4.5
X5.5Y-2.6
X5.5Y-2.7
X5.5Y-2.8
X5.5Y-2.9
X5.5Y-3.0
X5.5Y-3.1
X5.5Y-3.2
X5.5Y-3.3
X5.5Y-3.4
X5.5Y-3.5
X5.5Y-3.6
X5.5Y-3.7
X5.5Y-3.8
X5.5Y-3.9
X5.5Y-4.0
X5.5Y-4.1
X5.5Y-4.2
X5.5Y-4.3
X5.5Y-4.4
X5.5Y-4.5
X5.6Y-2.6
X5.6Y-2.7
X5.6Y-2.8
X5.6Y-2.9
X5.6Y-3.0
X5.6Y-3.1
X5.6Y-3.2
X5.6Y-3.3
X5.6Y-3.4
X5.6Y-3.5
X5.6Y-3.6
X5.6Y-3.7
X5.6Y-3.8
X5.6Y-3.9
X5.6Y-4.0
X5.6Y-4.1
X5.6Y-4.2
X5.6Y-4.3
X5.6Y-4.4
X5.6Y-4.5
X4.625Y-4.25
X4.725Y-4.25
X4.825Y-4.25
X4.925Y-4.25
X5.025Y-4.25
X5.125Y-4.25
T0
M30
