%TF.GenerationSoftware,KiCad,Pcbnew,(5.1.8)-1*%
%TF.CreationDate,2020-12-06T18:18:42+00:00*%
%TF.ProjectId,io-board,696f2d62-6f61-4726-942e-6b696361645f,rev?*%
%TF.SameCoordinates,Original*%
%TF.FileFunction,Legend,Top*%
%TF.FilePolarity,Positive*%
%FSLAX46Y46*%
G04 Gerber Fmt 4.6, Leading zero omitted, Abs format (unit mm)*
G04 Created by KiCad (PCBNEW (5.1.8)-1) date 2020-12-06 18:18:42*
%MOMM*%
%LPD*%
G01*
G04 APERTURE LIST*
%ADD10C,0.300000*%
%ADD11C,0.120000*%
%ADD12C,0.150000*%
G04 APERTURE END LIST*
D10*
X121257142Y-58574285D02*
X121328571Y-58360000D01*
X121328571Y-58002857D01*
X121257142Y-57860000D01*
X121185714Y-57788571D01*
X121042857Y-57717142D01*
X120900000Y-57717142D01*
X120757142Y-57788571D01*
X120685714Y-57860000D01*
X120614285Y-58002857D01*
X120542857Y-58288571D01*
X120471428Y-58431428D01*
X120400000Y-58502857D01*
X120257142Y-58574285D01*
X120114285Y-58574285D01*
X119971428Y-58502857D01*
X119900000Y-58431428D01*
X119828571Y-58288571D01*
X119828571Y-57931428D01*
X119900000Y-57717142D01*
X121257142Y-56502857D02*
X121328571Y-56645714D01*
X121328571Y-56931428D01*
X121257142Y-57074285D01*
X121114285Y-57145714D01*
X120542857Y-57145714D01*
X120400000Y-57074285D01*
X120328571Y-56931428D01*
X120328571Y-56645714D01*
X120400000Y-56502857D01*
X120542857Y-56431428D01*
X120685714Y-56431428D01*
X120828571Y-57145714D01*
X121328571Y-55788571D02*
X120328571Y-55788571D01*
X120614285Y-55788571D02*
X120471428Y-55717142D01*
X120400000Y-55645714D01*
X120328571Y-55502857D01*
X120328571Y-55360000D01*
X121328571Y-54860000D02*
X120328571Y-54860000D01*
X119828571Y-54860000D02*
X119900000Y-54931428D01*
X119971428Y-54860000D01*
X119900000Y-54788571D01*
X119828571Y-54860000D01*
X119971428Y-54860000D01*
X121328571Y-53502857D02*
X120542857Y-53502857D01*
X120400000Y-53574285D01*
X120328571Y-53717142D01*
X120328571Y-54002857D01*
X120400000Y-54145714D01*
X121257142Y-53502857D02*
X121328571Y-53645714D01*
X121328571Y-54002857D01*
X121257142Y-54145714D01*
X121114285Y-54217142D01*
X120971428Y-54217142D01*
X120828571Y-54145714D01*
X120757142Y-54002857D01*
X120757142Y-53645714D01*
X120685714Y-53502857D01*
X121328571Y-52574285D02*
X121257142Y-52717142D01*
X121114285Y-52788571D01*
X119828571Y-52788571D01*
X85133571Y-59137857D02*
X83633571Y-59137857D01*
X83633571Y-58566428D01*
X83705000Y-58423571D01*
X83776428Y-58352142D01*
X83919285Y-58280714D01*
X84133571Y-58280714D01*
X84276428Y-58352142D01*
X84347857Y-58423571D01*
X84419285Y-58566428D01*
X84419285Y-59137857D01*
X85133571Y-57423571D02*
X85062142Y-57566428D01*
X84990714Y-57637857D01*
X84847857Y-57709285D01*
X84419285Y-57709285D01*
X84276428Y-57637857D01*
X84205000Y-57566428D01*
X84133571Y-57423571D01*
X84133571Y-57209285D01*
X84205000Y-57066428D01*
X84276428Y-56995000D01*
X84419285Y-56923571D01*
X84847857Y-56923571D01*
X84990714Y-56995000D01*
X85062142Y-57066428D01*
X85133571Y-57209285D01*
X85133571Y-57423571D01*
X85133571Y-56280714D02*
X84133571Y-56280714D01*
X84419285Y-56280714D02*
X84276428Y-56209285D01*
X84205000Y-56137857D01*
X84133571Y-55995000D01*
X84133571Y-55852142D01*
X84133571Y-55566428D02*
X84133571Y-54995000D01*
X83633571Y-55352142D02*
X84919285Y-55352142D01*
X85062142Y-55280714D01*
X85133571Y-55137857D01*
X85133571Y-54995000D01*
X84347857Y-52852142D02*
X84419285Y-52637857D01*
X84490714Y-52566428D01*
X84633571Y-52495000D01*
X84847857Y-52495000D01*
X84990714Y-52566428D01*
X85062142Y-52637857D01*
X85133571Y-52780714D01*
X85133571Y-53352142D01*
X83633571Y-53352142D01*
X83633571Y-52852142D01*
X83705000Y-52709285D01*
X83776428Y-52637857D01*
X83919285Y-52566428D01*
X84062142Y-52566428D01*
X84205000Y-52637857D01*
X84276428Y-52709285D01*
X84347857Y-52852142D01*
X84347857Y-53352142D01*
X48938571Y-59137857D02*
X47438571Y-59137857D01*
X47438571Y-58566428D01*
X47510000Y-58423571D01*
X47581428Y-58352142D01*
X47724285Y-58280714D01*
X47938571Y-58280714D01*
X48081428Y-58352142D01*
X48152857Y-58423571D01*
X48224285Y-58566428D01*
X48224285Y-59137857D01*
X48938571Y-57423571D02*
X48867142Y-57566428D01*
X48795714Y-57637857D01*
X48652857Y-57709285D01*
X48224285Y-57709285D01*
X48081428Y-57637857D01*
X48010000Y-57566428D01*
X47938571Y-57423571D01*
X47938571Y-57209285D01*
X48010000Y-57066428D01*
X48081428Y-56995000D01*
X48224285Y-56923571D01*
X48652857Y-56923571D01*
X48795714Y-56995000D01*
X48867142Y-57066428D01*
X48938571Y-57209285D01*
X48938571Y-57423571D01*
X48938571Y-56280714D02*
X47938571Y-56280714D01*
X48224285Y-56280714D02*
X48081428Y-56209285D01*
X48010000Y-56137857D01*
X47938571Y-55995000D01*
X47938571Y-55852142D01*
X47938571Y-55566428D02*
X47938571Y-54995000D01*
X47438571Y-55352142D02*
X48724285Y-55352142D01*
X48867142Y-55280714D01*
X48938571Y-55137857D01*
X48938571Y-54995000D01*
X48510000Y-53423571D02*
X48510000Y-52709285D01*
X48938571Y-53566428D02*
X47438571Y-53066428D01*
X48938571Y-52566428D01*
X82295238Y-112930952D02*
X81819047Y-112930952D01*
X81580952Y-113050000D01*
X81461904Y-113169047D01*
X81223809Y-113526190D01*
X81104761Y-114002380D01*
X81104761Y-114954761D01*
X81223809Y-115192857D01*
X81342857Y-115311904D01*
X81580952Y-115430952D01*
X82057142Y-115430952D01*
X82295238Y-115311904D01*
X82414285Y-115192857D01*
X82533333Y-114954761D01*
X82533333Y-114359523D01*
X82414285Y-114121428D01*
X82295238Y-114002380D01*
X82057142Y-113883333D01*
X81580952Y-113883333D01*
X81342857Y-114002380D01*
X81223809Y-114121428D01*
X81104761Y-114359523D01*
X84795238Y-112930952D02*
X83604761Y-112930952D01*
X83485714Y-114121428D01*
X83604761Y-114002380D01*
X83842857Y-113883333D01*
X84438095Y-113883333D01*
X84676190Y-114002380D01*
X84795238Y-114121428D01*
X84914285Y-114359523D01*
X84914285Y-114954761D01*
X84795238Y-115192857D01*
X84676190Y-115311904D01*
X84438095Y-115430952D01*
X83842857Y-115430952D01*
X83604761Y-115311904D01*
X83485714Y-115192857D01*
X86461904Y-112930952D02*
X86700000Y-112930952D01*
X86938095Y-113050000D01*
X87057142Y-113169047D01*
X87176190Y-113407142D01*
X87295238Y-113883333D01*
X87295238Y-114478571D01*
X87176190Y-114954761D01*
X87057142Y-115192857D01*
X86938095Y-115311904D01*
X86700000Y-115430952D01*
X86461904Y-115430952D01*
X86223809Y-115311904D01*
X86104761Y-115192857D01*
X85985714Y-114954761D01*
X85866666Y-114478571D01*
X85866666Y-113883333D01*
X85985714Y-113407142D01*
X86104761Y-113169047D01*
X86223809Y-113050000D01*
X86461904Y-112930952D01*
X89557142Y-112930952D02*
X88366666Y-112930952D01*
X88247619Y-114121428D01*
X88366666Y-114002380D01*
X88604761Y-113883333D01*
X89200000Y-113883333D01*
X89438095Y-114002380D01*
X89557142Y-114121428D01*
X89676190Y-114359523D01*
X89676190Y-114954761D01*
X89557142Y-115192857D01*
X89438095Y-115311904D01*
X89200000Y-115430952D01*
X88604761Y-115430952D01*
X88366666Y-115311904D01*
X88247619Y-115192857D01*
X92652380Y-115430952D02*
X92652380Y-112930952D01*
X93485714Y-114716666D01*
X94319047Y-112930952D01*
X94319047Y-115430952D01*
X95866666Y-115430952D02*
X95628571Y-115311904D01*
X95509523Y-115192857D01*
X95390476Y-114954761D01*
X95390476Y-114240476D01*
X95509523Y-114002380D01*
X95628571Y-113883333D01*
X95866666Y-113764285D01*
X96223809Y-113764285D01*
X96461904Y-113883333D01*
X96580952Y-114002380D01*
X96700000Y-114240476D01*
X96700000Y-114954761D01*
X96580952Y-115192857D01*
X96461904Y-115311904D01*
X96223809Y-115430952D01*
X95866666Y-115430952D01*
X98842857Y-115430952D02*
X98842857Y-112930952D01*
X98842857Y-115311904D02*
X98604761Y-115430952D01*
X98128571Y-115430952D01*
X97890476Y-115311904D01*
X97771428Y-115192857D01*
X97652380Y-114954761D01*
X97652380Y-114240476D01*
X97771428Y-114002380D01*
X97890476Y-113883333D01*
X98128571Y-113764285D01*
X98604761Y-113764285D01*
X98842857Y-113883333D01*
X101104761Y-113764285D02*
X101104761Y-115430952D01*
X100033333Y-113764285D02*
X100033333Y-115073809D01*
X100152380Y-115311904D01*
X100390476Y-115430952D01*
X100747619Y-115430952D01*
X100985714Y-115311904D01*
X101104761Y-115192857D01*
X102652380Y-115430952D02*
X102414285Y-115311904D01*
X102295238Y-115073809D01*
X102295238Y-112930952D01*
X104676190Y-115430952D02*
X104676190Y-114121428D01*
X104557142Y-113883333D01*
X104319047Y-113764285D01*
X103842857Y-113764285D01*
X103604761Y-113883333D01*
X104676190Y-115311904D02*
X104438095Y-115430952D01*
X103842857Y-115430952D01*
X103604761Y-115311904D01*
X103485714Y-115073809D01*
X103485714Y-114835714D01*
X103604761Y-114597619D01*
X103842857Y-114478571D01*
X104438095Y-114478571D01*
X104676190Y-114359523D01*
X105866666Y-115430952D02*
X105866666Y-113764285D01*
X105866666Y-114240476D02*
X105985714Y-114002380D01*
X106104761Y-113883333D01*
X106342857Y-113764285D01*
X106580952Y-113764285D01*
X109319047Y-115430952D02*
X109319047Y-112930952D01*
X110271428Y-112930952D01*
X110509523Y-113050000D01*
X110628571Y-113169047D01*
X110747619Y-113407142D01*
X110747619Y-113764285D01*
X110628571Y-114002380D01*
X110509523Y-114121428D01*
X110271428Y-114240476D01*
X109319047Y-114240476D01*
X113247619Y-115192857D02*
X113128571Y-115311904D01*
X112771428Y-115430952D01*
X112533333Y-115430952D01*
X112176190Y-115311904D01*
X111938095Y-115073809D01*
X111819047Y-114835714D01*
X111700000Y-114359523D01*
X111700000Y-114002380D01*
X111819047Y-113526190D01*
X111938095Y-113288095D01*
X112176190Y-113050000D01*
X112533333Y-112930952D01*
X112771428Y-112930952D01*
X113128571Y-113050000D01*
X113247619Y-113169047D01*
X114319047Y-114478571D02*
X116223809Y-114478571D01*
X119319047Y-115430952D02*
X119319047Y-112930952D01*
X120985714Y-112930952D02*
X121461904Y-112930952D01*
X121700000Y-113050000D01*
X121938095Y-113288095D01*
X122057142Y-113764285D01*
X122057142Y-114597619D01*
X121938095Y-115073809D01*
X121700000Y-115311904D01*
X121461904Y-115430952D01*
X120985714Y-115430952D01*
X120747619Y-115311904D01*
X120509523Y-115073809D01*
X120390476Y-114597619D01*
X120390476Y-113764285D01*
X120509523Y-113288095D01*
X120747619Y-113050000D01*
X120985714Y-112930952D01*
X125866666Y-114121428D02*
X126223809Y-114240476D01*
X126342857Y-114359523D01*
X126461904Y-114597619D01*
X126461904Y-114954761D01*
X126342857Y-115192857D01*
X126223809Y-115311904D01*
X125985714Y-115430952D01*
X125033333Y-115430952D01*
X125033333Y-112930952D01*
X125866666Y-112930952D01*
X126104761Y-113050000D01*
X126223809Y-113169047D01*
X126342857Y-113407142D01*
X126342857Y-113645238D01*
X126223809Y-113883333D01*
X126104761Y-114002380D01*
X125866666Y-114121428D01*
X125033333Y-114121428D01*
X127890476Y-115430952D02*
X127652380Y-115311904D01*
X127533333Y-115192857D01*
X127414285Y-114954761D01*
X127414285Y-114240476D01*
X127533333Y-114002380D01*
X127652380Y-113883333D01*
X127890476Y-113764285D01*
X128247619Y-113764285D01*
X128485714Y-113883333D01*
X128604761Y-114002380D01*
X128723809Y-114240476D01*
X128723809Y-114954761D01*
X128604761Y-115192857D01*
X128485714Y-115311904D01*
X128247619Y-115430952D01*
X127890476Y-115430952D01*
X130866666Y-115430952D02*
X130866666Y-114121428D01*
X130747619Y-113883333D01*
X130509523Y-113764285D01*
X130033333Y-113764285D01*
X129795238Y-113883333D01*
X130866666Y-115311904D02*
X130628571Y-115430952D01*
X130033333Y-115430952D01*
X129795238Y-115311904D01*
X129676190Y-115073809D01*
X129676190Y-114835714D01*
X129795238Y-114597619D01*
X130033333Y-114478571D01*
X130628571Y-114478571D01*
X130866666Y-114359523D01*
X132057142Y-115430952D02*
X132057142Y-113764285D01*
X132057142Y-114240476D02*
X132176190Y-114002380D01*
X132295238Y-113883333D01*
X132533333Y-113764285D01*
X132771428Y-113764285D01*
X134676190Y-115430952D02*
X134676190Y-112930952D01*
X134676190Y-115311904D02*
X134438095Y-115430952D01*
X133961904Y-115430952D01*
X133723809Y-115311904D01*
X133604761Y-115192857D01*
X133485714Y-114954761D01*
X133485714Y-114240476D01*
X133604761Y-114002380D01*
X133723809Y-113883333D01*
X133961904Y-113764285D01*
X134438095Y-113764285D01*
X134676190Y-113883333D01*
D11*
%TO.C,J4*%
X86360000Y-62865000D02*
X86360000Y-61595000D01*
X87630000Y-62865000D02*
X86360000Y-62865000D01*
X115950000Y-60552071D02*
X115950000Y-60155000D01*
X115190000Y-60552071D02*
X115190000Y-60155000D01*
X115950000Y-51495000D02*
X115950000Y-57495000D01*
X115190000Y-51495000D02*
X115950000Y-51495000D01*
X115190000Y-57495000D02*
X115190000Y-51495000D01*
X114300000Y-60155000D02*
X114300000Y-57495000D01*
X113410000Y-60552071D02*
X113410000Y-60155000D01*
X112650000Y-60552071D02*
X112650000Y-60155000D01*
X113410000Y-51495000D02*
X113410000Y-57495000D01*
X112650000Y-51495000D02*
X113410000Y-51495000D01*
X112650000Y-57495000D02*
X112650000Y-51495000D01*
X111760000Y-60155000D02*
X111760000Y-57495000D01*
X110870000Y-60552071D02*
X110870000Y-60155000D01*
X110110000Y-60552071D02*
X110110000Y-60155000D01*
X110870000Y-51495000D02*
X110870000Y-57495000D01*
X110110000Y-51495000D02*
X110870000Y-51495000D01*
X110110000Y-57495000D02*
X110110000Y-51495000D01*
X109220000Y-60155000D02*
X109220000Y-57495000D01*
X108330000Y-60552071D02*
X108330000Y-60155000D01*
X107570000Y-60552071D02*
X107570000Y-60155000D01*
X108330000Y-51495000D02*
X108330000Y-57495000D01*
X107570000Y-51495000D02*
X108330000Y-51495000D01*
X107570000Y-57495000D02*
X107570000Y-51495000D01*
X106680000Y-60155000D02*
X106680000Y-57495000D01*
X105790000Y-60552071D02*
X105790000Y-60155000D01*
X105030000Y-60552071D02*
X105030000Y-60155000D01*
X105790000Y-51495000D02*
X105790000Y-57495000D01*
X105030000Y-51495000D02*
X105790000Y-51495000D01*
X105030000Y-57495000D02*
X105030000Y-51495000D01*
X104140000Y-60155000D02*
X104140000Y-57495000D01*
X103250000Y-60552071D02*
X103250000Y-60155000D01*
X102490000Y-60552071D02*
X102490000Y-60155000D01*
X103250000Y-51495000D02*
X103250000Y-57495000D01*
X102490000Y-51495000D02*
X103250000Y-51495000D01*
X102490000Y-57495000D02*
X102490000Y-51495000D01*
X101600000Y-60155000D02*
X101600000Y-57495000D01*
X100710000Y-60552071D02*
X100710000Y-60155000D01*
X99950000Y-60552071D02*
X99950000Y-60155000D01*
X100710000Y-51495000D02*
X100710000Y-57495000D01*
X99950000Y-51495000D02*
X100710000Y-51495000D01*
X99950000Y-57495000D02*
X99950000Y-51495000D01*
X99060000Y-60155000D02*
X99060000Y-57495000D01*
X98170000Y-60552071D02*
X98170000Y-60155000D01*
X97410000Y-60552071D02*
X97410000Y-60155000D01*
X98170000Y-51495000D02*
X98170000Y-57495000D01*
X97410000Y-51495000D02*
X98170000Y-51495000D01*
X97410000Y-57495000D02*
X97410000Y-51495000D01*
X96520000Y-60155000D02*
X96520000Y-57495000D01*
X95630000Y-60552071D02*
X95630000Y-60155000D01*
X94870000Y-60552071D02*
X94870000Y-60155000D01*
X95630000Y-51495000D02*
X95630000Y-57495000D01*
X94870000Y-51495000D02*
X95630000Y-51495000D01*
X94870000Y-57495000D02*
X94870000Y-51495000D01*
X93980000Y-60155000D02*
X93980000Y-57495000D01*
X93090000Y-60552071D02*
X93090000Y-60155000D01*
X92330000Y-60552071D02*
X92330000Y-60155000D01*
X93090000Y-51495000D02*
X93090000Y-57495000D01*
X92330000Y-51495000D02*
X93090000Y-51495000D01*
X92330000Y-57495000D02*
X92330000Y-51495000D01*
X91440000Y-60155000D02*
X91440000Y-57495000D01*
X90550000Y-60552071D02*
X90550000Y-60155000D01*
X89790000Y-60552071D02*
X89790000Y-60155000D01*
X90550000Y-51495000D02*
X90550000Y-57495000D01*
X89790000Y-51495000D02*
X90550000Y-51495000D01*
X89790000Y-57495000D02*
X89790000Y-51495000D01*
X88900000Y-60155000D02*
X88900000Y-57495000D01*
X88010000Y-60485000D02*
X88010000Y-60155000D01*
X87250000Y-60485000D02*
X87250000Y-60155000D01*
X87910000Y-57495000D02*
X87910000Y-51495000D01*
X87790000Y-57495000D02*
X87790000Y-51495000D01*
X87670000Y-57495000D02*
X87670000Y-51495000D01*
X87550000Y-57495000D02*
X87550000Y-51495000D01*
X87430000Y-57495000D02*
X87430000Y-51495000D01*
X87310000Y-57495000D02*
X87310000Y-51495000D01*
X88010000Y-51495000D02*
X88010000Y-57495000D01*
X87250000Y-51495000D02*
X88010000Y-51495000D01*
X87250000Y-57495000D02*
X87250000Y-51495000D01*
X86300000Y-57495000D02*
X86300000Y-60155000D01*
X116900000Y-57495000D02*
X86300000Y-57495000D01*
X116900000Y-60155000D02*
X116900000Y-57495000D01*
X86300000Y-60155000D02*
X116900000Y-60155000D01*
%TO.C,J3*%
X50165000Y-62865000D02*
X50165000Y-61595000D01*
X51435000Y-62865000D02*
X50165000Y-62865000D01*
X79755000Y-60552071D02*
X79755000Y-60155000D01*
X78995000Y-60552071D02*
X78995000Y-60155000D01*
X79755000Y-51495000D02*
X79755000Y-57495000D01*
X78995000Y-51495000D02*
X79755000Y-51495000D01*
X78995000Y-57495000D02*
X78995000Y-51495000D01*
X78105000Y-60155000D02*
X78105000Y-57495000D01*
X77215000Y-60552071D02*
X77215000Y-60155000D01*
X76455000Y-60552071D02*
X76455000Y-60155000D01*
X77215000Y-51495000D02*
X77215000Y-57495000D01*
X76455000Y-51495000D02*
X77215000Y-51495000D01*
X76455000Y-57495000D02*
X76455000Y-51495000D01*
X75565000Y-60155000D02*
X75565000Y-57495000D01*
X74675000Y-60552071D02*
X74675000Y-60155000D01*
X73915000Y-60552071D02*
X73915000Y-60155000D01*
X74675000Y-51495000D02*
X74675000Y-57495000D01*
X73915000Y-51495000D02*
X74675000Y-51495000D01*
X73915000Y-57495000D02*
X73915000Y-51495000D01*
X73025000Y-60155000D02*
X73025000Y-57495000D01*
X72135000Y-60552071D02*
X72135000Y-60155000D01*
X71375000Y-60552071D02*
X71375000Y-60155000D01*
X72135000Y-51495000D02*
X72135000Y-57495000D01*
X71375000Y-51495000D02*
X72135000Y-51495000D01*
X71375000Y-57495000D02*
X71375000Y-51495000D01*
X70485000Y-60155000D02*
X70485000Y-57495000D01*
X69595000Y-60552071D02*
X69595000Y-60155000D01*
X68835000Y-60552071D02*
X68835000Y-60155000D01*
X69595000Y-51495000D02*
X69595000Y-57495000D01*
X68835000Y-51495000D02*
X69595000Y-51495000D01*
X68835000Y-57495000D02*
X68835000Y-51495000D01*
X67945000Y-60155000D02*
X67945000Y-57495000D01*
X67055000Y-60552071D02*
X67055000Y-60155000D01*
X66295000Y-60552071D02*
X66295000Y-60155000D01*
X67055000Y-51495000D02*
X67055000Y-57495000D01*
X66295000Y-51495000D02*
X67055000Y-51495000D01*
X66295000Y-57495000D02*
X66295000Y-51495000D01*
X65405000Y-60155000D02*
X65405000Y-57495000D01*
X64515000Y-60552071D02*
X64515000Y-60155000D01*
X63755000Y-60552071D02*
X63755000Y-60155000D01*
X64515000Y-51495000D02*
X64515000Y-57495000D01*
X63755000Y-51495000D02*
X64515000Y-51495000D01*
X63755000Y-57495000D02*
X63755000Y-51495000D01*
X62865000Y-60155000D02*
X62865000Y-57495000D01*
X61975000Y-60552071D02*
X61975000Y-60155000D01*
X61215000Y-60552071D02*
X61215000Y-60155000D01*
X61975000Y-51495000D02*
X61975000Y-57495000D01*
X61215000Y-51495000D02*
X61975000Y-51495000D01*
X61215000Y-57495000D02*
X61215000Y-51495000D01*
X60325000Y-60155000D02*
X60325000Y-57495000D01*
X59435000Y-60552071D02*
X59435000Y-60155000D01*
X58675000Y-60552071D02*
X58675000Y-60155000D01*
X59435000Y-51495000D02*
X59435000Y-57495000D01*
X58675000Y-51495000D02*
X59435000Y-51495000D01*
X58675000Y-57495000D02*
X58675000Y-51495000D01*
X57785000Y-60155000D02*
X57785000Y-57495000D01*
X56895000Y-60552071D02*
X56895000Y-60155000D01*
X56135000Y-60552071D02*
X56135000Y-60155000D01*
X56895000Y-51495000D02*
X56895000Y-57495000D01*
X56135000Y-51495000D02*
X56895000Y-51495000D01*
X56135000Y-57495000D02*
X56135000Y-51495000D01*
X55245000Y-60155000D02*
X55245000Y-57495000D01*
X54355000Y-60552071D02*
X54355000Y-60155000D01*
X53595000Y-60552071D02*
X53595000Y-60155000D01*
X54355000Y-51495000D02*
X54355000Y-57495000D01*
X53595000Y-51495000D02*
X54355000Y-51495000D01*
X53595000Y-57495000D02*
X53595000Y-51495000D01*
X52705000Y-60155000D02*
X52705000Y-57495000D01*
X51815000Y-60485000D02*
X51815000Y-60155000D01*
X51055000Y-60485000D02*
X51055000Y-60155000D01*
X51715000Y-57495000D02*
X51715000Y-51495000D01*
X51595000Y-57495000D02*
X51595000Y-51495000D01*
X51475000Y-57495000D02*
X51475000Y-51495000D01*
X51355000Y-57495000D02*
X51355000Y-51495000D01*
X51235000Y-57495000D02*
X51235000Y-51495000D01*
X51115000Y-57495000D02*
X51115000Y-51495000D01*
X51815000Y-51495000D02*
X51815000Y-57495000D01*
X51055000Y-51495000D02*
X51815000Y-51495000D01*
X51055000Y-57495000D02*
X51055000Y-51495000D01*
X50105000Y-57495000D02*
X50105000Y-60155000D01*
X80705000Y-57495000D02*
X50105000Y-57495000D01*
X80705000Y-60155000D02*
X80705000Y-57495000D01*
X50105000Y-60155000D02*
X80705000Y-60155000D01*
%TO.C,W65C22N*%
X78165000Y-64650000D02*
X60265000Y-64650000D01*
X78165000Y-115690000D02*
X78165000Y-64650000D01*
X60265000Y-115690000D02*
X78165000Y-115690000D01*
X60265000Y-64650000D02*
X60265000Y-115690000D01*
X75675000Y-64710000D02*
X70215000Y-64710000D01*
X75675000Y-115630000D02*
X75675000Y-64710000D01*
X62755000Y-115630000D02*
X75675000Y-115630000D01*
X62755000Y-64710000D02*
X62755000Y-115630000D01*
X68215000Y-64710000D02*
X62755000Y-64710000D01*
X70215000Y-64710000D02*
G75*
G02*
X68215000Y-64710000I-1000000J0D01*
G01*
%TO.C,J5*%
X122555000Y-62865000D02*
X122555000Y-61595000D01*
X123825000Y-62865000D02*
X122555000Y-62865000D01*
X136905000Y-60552071D02*
X136905000Y-60155000D01*
X136145000Y-60552071D02*
X136145000Y-60155000D01*
X136905000Y-51495000D02*
X136905000Y-57495000D01*
X136145000Y-51495000D02*
X136905000Y-51495000D01*
X136145000Y-57495000D02*
X136145000Y-51495000D01*
X135255000Y-60155000D02*
X135255000Y-57495000D01*
X134365000Y-60552071D02*
X134365000Y-60155000D01*
X133605000Y-60552071D02*
X133605000Y-60155000D01*
X134365000Y-51495000D02*
X134365000Y-57495000D01*
X133605000Y-51495000D02*
X134365000Y-51495000D01*
X133605000Y-57495000D02*
X133605000Y-51495000D01*
X132715000Y-60155000D02*
X132715000Y-57495000D01*
X131825000Y-60552071D02*
X131825000Y-60155000D01*
X131065000Y-60552071D02*
X131065000Y-60155000D01*
X131825000Y-51495000D02*
X131825000Y-57495000D01*
X131065000Y-51495000D02*
X131825000Y-51495000D01*
X131065000Y-57495000D02*
X131065000Y-51495000D01*
X130175000Y-60155000D02*
X130175000Y-57495000D01*
X129285000Y-60552071D02*
X129285000Y-60155000D01*
X128525000Y-60552071D02*
X128525000Y-60155000D01*
X129285000Y-51495000D02*
X129285000Y-57495000D01*
X128525000Y-51495000D02*
X129285000Y-51495000D01*
X128525000Y-57495000D02*
X128525000Y-51495000D01*
X127635000Y-60155000D02*
X127635000Y-57495000D01*
X126745000Y-60552071D02*
X126745000Y-60155000D01*
X125985000Y-60552071D02*
X125985000Y-60155000D01*
X126745000Y-51495000D02*
X126745000Y-57495000D01*
X125985000Y-51495000D02*
X126745000Y-51495000D01*
X125985000Y-57495000D02*
X125985000Y-51495000D01*
X125095000Y-60155000D02*
X125095000Y-57495000D01*
X124205000Y-60485000D02*
X124205000Y-60155000D01*
X123445000Y-60485000D02*
X123445000Y-60155000D01*
X124105000Y-57495000D02*
X124105000Y-51495000D01*
X123985000Y-57495000D02*
X123985000Y-51495000D01*
X123865000Y-57495000D02*
X123865000Y-51495000D01*
X123745000Y-57495000D02*
X123745000Y-51495000D01*
X123625000Y-57495000D02*
X123625000Y-51495000D01*
X123505000Y-57495000D02*
X123505000Y-51495000D01*
X124205000Y-51495000D02*
X124205000Y-57495000D01*
X123445000Y-51495000D02*
X124205000Y-51495000D01*
X123445000Y-57495000D02*
X123445000Y-51495000D01*
X122495000Y-57495000D02*
X122495000Y-60155000D01*
X137855000Y-57495000D02*
X122495000Y-57495000D01*
X137855000Y-60155000D02*
X137855000Y-57495000D01*
X122495000Y-60155000D02*
X137855000Y-60155000D01*
%TO.C,C3*%
X131100000Y-93440000D02*
X131545000Y-93440000D01*
X128805000Y-93440000D02*
X129250000Y-93440000D01*
X131100000Y-99680000D02*
X131545000Y-99680000D01*
X128805000Y-99680000D02*
X129250000Y-99680000D01*
X131545000Y-99680000D02*
X131545000Y-93440000D01*
X128805000Y-99680000D02*
X128805000Y-93440000D01*
%TO.C,C2*%
X100675000Y-71660000D02*
X100230000Y-71660000D01*
X102970000Y-71660000D02*
X102525000Y-71660000D01*
X100675000Y-65420000D02*
X100230000Y-65420000D01*
X102970000Y-65420000D02*
X102525000Y-65420000D01*
X100230000Y-65420000D02*
X100230000Y-71660000D01*
X102970000Y-65420000D02*
X102970000Y-71660000D01*
%TO.C,C1*%
X58710000Y-108680000D02*
X59155000Y-108680000D01*
X56415000Y-108680000D02*
X56860000Y-108680000D01*
X58710000Y-114920000D02*
X59155000Y-114920000D01*
X56415000Y-114920000D02*
X56860000Y-114920000D01*
X59155000Y-114920000D02*
X59155000Y-108680000D01*
X56415000Y-114920000D02*
X56415000Y-108680000D01*
%TO.C,EXP*%
X138370000Y-115630000D02*
X143570000Y-115630000D01*
X138370000Y-67310000D02*
X138370000Y-115630000D01*
X143570000Y-64710000D02*
X143570000Y-115630000D01*
X138370000Y-67310000D02*
X140970000Y-67310000D01*
X140970000Y-67310000D02*
X140970000Y-64710000D01*
X140970000Y-64710000D02*
X143570000Y-64710000D01*
X138370000Y-66040000D02*
X138370000Y-64710000D01*
X138370000Y-64710000D02*
X139700000Y-64710000D01*
%TO.C,XTAL*%
X87530000Y-101700000D02*
X99680000Y-101700000D01*
X100430000Y-100950000D02*
X100430000Y-89550000D01*
X99680000Y-88800000D02*
X88280000Y-88800000D01*
X87530000Y-89550000D02*
X87530000Y-101700000D01*
X88280000Y-88800000D02*
G75*
G03*
X87530000Y-89550000I0J-750000D01*
G01*
X100430000Y-89550000D02*
G75*
G03*
X99680000Y-88800000I-750000J0D01*
G01*
X99680000Y-101700000D02*
G75*
G03*
X100430000Y-100950000I0J750000D01*
G01*
%TO.C,HC138*%
X99120000Y-64650000D02*
X88840000Y-64650000D01*
X99120000Y-85210000D02*
X99120000Y-64650000D01*
X88840000Y-85210000D02*
X99120000Y-85210000D01*
X88840000Y-64650000D02*
X88840000Y-85210000D01*
X96630000Y-64710000D02*
X94980000Y-64710000D01*
X96630000Y-85150000D02*
X96630000Y-64710000D01*
X91330000Y-85150000D02*
X96630000Y-85150000D01*
X91330000Y-64710000D02*
X91330000Y-85150000D01*
X92980000Y-64710000D02*
X91330000Y-64710000D01*
X94980000Y-64710000D02*
G75*
G02*
X92980000Y-64710000I-1000000J0D01*
G01*
%TO.C,W65C51N*%
X127695000Y-64650000D02*
X109795000Y-64650000D01*
X127695000Y-100450000D02*
X127695000Y-64650000D01*
X109795000Y-100450000D02*
X127695000Y-100450000D01*
X109795000Y-64650000D02*
X109795000Y-100450000D01*
X125205000Y-64710000D02*
X119745000Y-64710000D01*
X125205000Y-100390000D02*
X125205000Y-64710000D01*
X112285000Y-100390000D02*
X125205000Y-100390000D01*
X112285000Y-64710000D02*
X112285000Y-100390000D01*
X117745000Y-64710000D02*
X112285000Y-64710000D01*
X119745000Y-64710000D02*
G75*
G02*
X117745000Y-64710000I-1000000J0D01*
G01*
%TO.C,EXP*%
X44390000Y-115630000D02*
X49590000Y-115630000D01*
X44390000Y-67310000D02*
X44390000Y-115630000D01*
X49590000Y-64710000D02*
X49590000Y-115630000D01*
X44390000Y-67310000D02*
X46990000Y-67310000D01*
X46990000Y-67310000D02*
X46990000Y-64710000D01*
X46990000Y-64710000D02*
X49590000Y-64710000D01*
X44390000Y-66040000D02*
X44390000Y-64710000D01*
X44390000Y-64710000D02*
X45720000Y-64710000D01*
%TO.C,W65C22N*%
D12*
X65857857Y-63162380D02*
X66095952Y-64162380D01*
X66286428Y-63448095D01*
X66476904Y-64162380D01*
X66715000Y-63162380D01*
X67524523Y-63162380D02*
X67334047Y-63162380D01*
X67238809Y-63210000D01*
X67191190Y-63257619D01*
X67095952Y-63400476D01*
X67048333Y-63590952D01*
X67048333Y-63971904D01*
X67095952Y-64067142D01*
X67143571Y-64114761D01*
X67238809Y-64162380D01*
X67429285Y-64162380D01*
X67524523Y-64114761D01*
X67572142Y-64067142D01*
X67619761Y-63971904D01*
X67619761Y-63733809D01*
X67572142Y-63638571D01*
X67524523Y-63590952D01*
X67429285Y-63543333D01*
X67238809Y-63543333D01*
X67143571Y-63590952D01*
X67095952Y-63638571D01*
X67048333Y-63733809D01*
X68524523Y-63162380D02*
X68048333Y-63162380D01*
X68000714Y-63638571D01*
X68048333Y-63590952D01*
X68143571Y-63543333D01*
X68381666Y-63543333D01*
X68476904Y-63590952D01*
X68524523Y-63638571D01*
X68572142Y-63733809D01*
X68572142Y-63971904D01*
X68524523Y-64067142D01*
X68476904Y-64114761D01*
X68381666Y-64162380D01*
X68143571Y-64162380D01*
X68048333Y-64114761D01*
X68000714Y-64067142D01*
X69572142Y-64067142D02*
X69524523Y-64114761D01*
X69381666Y-64162380D01*
X69286428Y-64162380D01*
X69143571Y-64114761D01*
X69048333Y-64019523D01*
X69000714Y-63924285D01*
X68953095Y-63733809D01*
X68953095Y-63590952D01*
X69000714Y-63400476D01*
X69048333Y-63305238D01*
X69143571Y-63210000D01*
X69286428Y-63162380D01*
X69381666Y-63162380D01*
X69524523Y-63210000D01*
X69572142Y-63257619D01*
X69953095Y-63257619D02*
X70000714Y-63210000D01*
X70095952Y-63162380D01*
X70334047Y-63162380D01*
X70429285Y-63210000D01*
X70476904Y-63257619D01*
X70524523Y-63352857D01*
X70524523Y-63448095D01*
X70476904Y-63590952D01*
X69905476Y-64162380D01*
X70524523Y-64162380D01*
X70905476Y-63257619D02*
X70953095Y-63210000D01*
X71048333Y-63162380D01*
X71286428Y-63162380D01*
X71381666Y-63210000D01*
X71429285Y-63257619D01*
X71476904Y-63352857D01*
X71476904Y-63448095D01*
X71429285Y-63590952D01*
X70857857Y-64162380D01*
X71476904Y-64162380D01*
X71905476Y-64162380D02*
X71905476Y-63162380D01*
X72476904Y-64162380D01*
X72476904Y-63162380D01*
%TO.C,C3*%
X130008333Y-92432142D02*
X129960714Y-92479761D01*
X129817857Y-92527380D01*
X129722619Y-92527380D01*
X129579761Y-92479761D01*
X129484523Y-92384523D01*
X129436904Y-92289285D01*
X129389285Y-92098809D01*
X129389285Y-91955952D01*
X129436904Y-91765476D01*
X129484523Y-91670238D01*
X129579761Y-91575000D01*
X129722619Y-91527380D01*
X129817857Y-91527380D01*
X129960714Y-91575000D01*
X130008333Y-91622619D01*
X130341666Y-91527380D02*
X130960714Y-91527380D01*
X130627380Y-91908333D01*
X130770238Y-91908333D01*
X130865476Y-91955952D01*
X130913095Y-92003571D01*
X130960714Y-92098809D01*
X130960714Y-92336904D01*
X130913095Y-92432142D01*
X130865476Y-92479761D01*
X130770238Y-92527380D01*
X130484523Y-92527380D01*
X130389285Y-92479761D01*
X130341666Y-92432142D01*
%TO.C,C2*%
X101433333Y-64492142D02*
X101385714Y-64539761D01*
X101242857Y-64587380D01*
X101147619Y-64587380D01*
X101004761Y-64539761D01*
X100909523Y-64444523D01*
X100861904Y-64349285D01*
X100814285Y-64158809D01*
X100814285Y-64015952D01*
X100861904Y-63825476D01*
X100909523Y-63730238D01*
X101004761Y-63635000D01*
X101147619Y-63587380D01*
X101242857Y-63587380D01*
X101385714Y-63635000D01*
X101433333Y-63682619D01*
X101814285Y-63682619D02*
X101861904Y-63635000D01*
X101957142Y-63587380D01*
X102195238Y-63587380D01*
X102290476Y-63635000D01*
X102338095Y-63682619D01*
X102385714Y-63777857D01*
X102385714Y-63873095D01*
X102338095Y-64015952D01*
X101766666Y-64587380D01*
X102385714Y-64587380D01*
%TO.C,C1*%
X57618333Y-107672142D02*
X57570714Y-107719761D01*
X57427857Y-107767380D01*
X57332619Y-107767380D01*
X57189761Y-107719761D01*
X57094523Y-107624523D01*
X57046904Y-107529285D01*
X56999285Y-107338809D01*
X56999285Y-107195952D01*
X57046904Y-107005476D01*
X57094523Y-106910238D01*
X57189761Y-106815000D01*
X57332619Y-106767380D01*
X57427857Y-106767380D01*
X57570714Y-106815000D01*
X57618333Y-106862619D01*
X58570714Y-107767380D02*
X57999285Y-107767380D01*
X58285000Y-107767380D02*
X58285000Y-106767380D01*
X58189761Y-106910238D01*
X58094523Y-107005476D01*
X57999285Y-107053095D01*
%TO.C,EXP*%
X139779523Y-116768571D02*
X140112857Y-116768571D01*
X140255714Y-117292380D02*
X139779523Y-117292380D01*
X139779523Y-116292380D01*
X140255714Y-116292380D01*
X140589047Y-116292380D02*
X141255714Y-117292380D01*
X141255714Y-116292380D02*
X140589047Y-117292380D01*
X141636666Y-117292380D02*
X141636666Y-116292380D01*
X142017619Y-116292380D01*
X142112857Y-116340000D01*
X142160476Y-116387619D01*
X142208095Y-116482857D01*
X142208095Y-116625714D01*
X142160476Y-116720952D01*
X142112857Y-116768571D01*
X142017619Y-116816190D01*
X141636666Y-116816190D01*
%TO.C,XTAL*%
X92432380Y-87252380D02*
X93099047Y-88252380D01*
X93099047Y-87252380D02*
X92432380Y-88252380D01*
X93337142Y-87252380D02*
X93908571Y-87252380D01*
X93622857Y-88252380D02*
X93622857Y-87252380D01*
X94194285Y-87966666D02*
X94670476Y-87966666D01*
X94099047Y-88252380D02*
X94432380Y-87252380D01*
X94765714Y-88252380D01*
X95575238Y-88252380D02*
X95099047Y-88252380D01*
X95099047Y-87252380D01*
%TO.C,HC138*%
X91765714Y-64162380D02*
X91765714Y-63162380D01*
X91765714Y-63638571D02*
X92337142Y-63638571D01*
X92337142Y-64162380D02*
X92337142Y-63162380D01*
X93384761Y-64067142D02*
X93337142Y-64114761D01*
X93194285Y-64162380D01*
X93099047Y-64162380D01*
X92956190Y-64114761D01*
X92860952Y-64019523D01*
X92813333Y-63924285D01*
X92765714Y-63733809D01*
X92765714Y-63590952D01*
X92813333Y-63400476D01*
X92860952Y-63305238D01*
X92956190Y-63210000D01*
X93099047Y-63162380D01*
X93194285Y-63162380D01*
X93337142Y-63210000D01*
X93384761Y-63257619D01*
X94337142Y-64162380D02*
X93765714Y-64162380D01*
X94051428Y-64162380D02*
X94051428Y-63162380D01*
X93956190Y-63305238D01*
X93860952Y-63400476D01*
X93765714Y-63448095D01*
X94670476Y-63162380D02*
X95289523Y-63162380D01*
X94956190Y-63543333D01*
X95099047Y-63543333D01*
X95194285Y-63590952D01*
X95241904Y-63638571D01*
X95289523Y-63733809D01*
X95289523Y-63971904D01*
X95241904Y-64067142D01*
X95194285Y-64114761D01*
X95099047Y-64162380D01*
X94813333Y-64162380D01*
X94718095Y-64114761D01*
X94670476Y-64067142D01*
X95860952Y-63590952D02*
X95765714Y-63543333D01*
X95718095Y-63495714D01*
X95670476Y-63400476D01*
X95670476Y-63352857D01*
X95718095Y-63257619D01*
X95765714Y-63210000D01*
X95860952Y-63162380D01*
X96051428Y-63162380D01*
X96146666Y-63210000D01*
X96194285Y-63257619D01*
X96241904Y-63352857D01*
X96241904Y-63400476D01*
X96194285Y-63495714D01*
X96146666Y-63543333D01*
X96051428Y-63590952D01*
X95860952Y-63590952D01*
X95765714Y-63638571D01*
X95718095Y-63686190D01*
X95670476Y-63781428D01*
X95670476Y-63971904D01*
X95718095Y-64067142D01*
X95765714Y-64114761D01*
X95860952Y-64162380D01*
X96051428Y-64162380D01*
X96146666Y-64114761D01*
X96194285Y-64067142D01*
X96241904Y-63971904D01*
X96241904Y-63781428D01*
X96194285Y-63686190D01*
X96146666Y-63638571D01*
X96051428Y-63590952D01*
%TO.C,W65C51N*%
X115387857Y-63162380D02*
X115625952Y-64162380D01*
X115816428Y-63448095D01*
X116006904Y-64162380D01*
X116245000Y-63162380D01*
X117054523Y-63162380D02*
X116864047Y-63162380D01*
X116768809Y-63210000D01*
X116721190Y-63257619D01*
X116625952Y-63400476D01*
X116578333Y-63590952D01*
X116578333Y-63971904D01*
X116625952Y-64067142D01*
X116673571Y-64114761D01*
X116768809Y-64162380D01*
X116959285Y-64162380D01*
X117054523Y-64114761D01*
X117102142Y-64067142D01*
X117149761Y-63971904D01*
X117149761Y-63733809D01*
X117102142Y-63638571D01*
X117054523Y-63590952D01*
X116959285Y-63543333D01*
X116768809Y-63543333D01*
X116673571Y-63590952D01*
X116625952Y-63638571D01*
X116578333Y-63733809D01*
X118054523Y-63162380D02*
X117578333Y-63162380D01*
X117530714Y-63638571D01*
X117578333Y-63590952D01*
X117673571Y-63543333D01*
X117911666Y-63543333D01*
X118006904Y-63590952D01*
X118054523Y-63638571D01*
X118102142Y-63733809D01*
X118102142Y-63971904D01*
X118054523Y-64067142D01*
X118006904Y-64114761D01*
X117911666Y-64162380D01*
X117673571Y-64162380D01*
X117578333Y-64114761D01*
X117530714Y-64067142D01*
X119102142Y-64067142D02*
X119054523Y-64114761D01*
X118911666Y-64162380D01*
X118816428Y-64162380D01*
X118673571Y-64114761D01*
X118578333Y-64019523D01*
X118530714Y-63924285D01*
X118483095Y-63733809D01*
X118483095Y-63590952D01*
X118530714Y-63400476D01*
X118578333Y-63305238D01*
X118673571Y-63210000D01*
X118816428Y-63162380D01*
X118911666Y-63162380D01*
X119054523Y-63210000D01*
X119102142Y-63257619D01*
X120006904Y-63162380D02*
X119530714Y-63162380D01*
X119483095Y-63638571D01*
X119530714Y-63590952D01*
X119625952Y-63543333D01*
X119864047Y-63543333D01*
X119959285Y-63590952D01*
X120006904Y-63638571D01*
X120054523Y-63733809D01*
X120054523Y-63971904D01*
X120006904Y-64067142D01*
X119959285Y-64114761D01*
X119864047Y-64162380D01*
X119625952Y-64162380D01*
X119530714Y-64114761D01*
X119483095Y-64067142D01*
X121006904Y-64162380D02*
X120435476Y-64162380D01*
X120721190Y-64162380D02*
X120721190Y-63162380D01*
X120625952Y-63305238D01*
X120530714Y-63400476D01*
X120435476Y-63448095D01*
X121435476Y-64162380D02*
X121435476Y-63162380D01*
X122006904Y-64162380D01*
X122006904Y-63162380D01*
%TO.C,EXP*%
X45799523Y-116768571D02*
X46132857Y-116768571D01*
X46275714Y-117292380D02*
X45799523Y-117292380D01*
X45799523Y-116292380D01*
X46275714Y-116292380D01*
X46609047Y-116292380D02*
X47275714Y-117292380D01*
X47275714Y-116292380D02*
X46609047Y-117292380D01*
X47656666Y-117292380D02*
X47656666Y-116292380D01*
X48037619Y-116292380D01*
X48132857Y-116340000D01*
X48180476Y-116387619D01*
X48228095Y-116482857D01*
X48228095Y-116625714D01*
X48180476Y-116720952D01*
X48132857Y-116768571D01*
X48037619Y-116816190D01*
X47656666Y-116816190D01*
%TD*%
M02*
