%TF.GenerationSoftware,KiCad,Pcbnew,(5.1.8)-1*%
%TF.CreationDate,2020-12-06T18:21:21+00:00*%
%TF.ProjectId,computer,636f6d70-7574-4657-922e-6b696361645f,rev?*%
%TF.SameCoordinates,Original*%
%TF.FileFunction,Soldermask,Bot*%
%TF.FilePolarity,Negative*%
%FSLAX46Y46*%
G04 Gerber Fmt 4.6, Leading zero omitted, Abs format (unit mm)*
G04 Created by KiCad (PCBNEW (5.1.8)-1) date 2020-12-06 18:21:21*
%MOMM*%
%LPD*%
G01*
G04 APERTURE LIST*
%ADD10O,1.700000X1.700000*%
%ADD11R,1.700000X1.700000*%
%ADD12C,1.600000*%
%ADD13R,1.600000X1.600000*%
%ADD14R,1.050000X1.500000*%
%ADD15O,1.050000X1.500000*%
%ADD16C,2.000000*%
%ADD17O,1.600000X1.600000*%
G04 APERTURE END LIST*
D10*
%TO.C,EXP*%
X167640000Y-82550000D03*
X165100000Y-82550000D03*
X167640000Y-80010000D03*
X165100000Y-80010000D03*
X167640000Y-77470000D03*
X165100000Y-77470000D03*
X167640000Y-74930000D03*
X165100000Y-74930000D03*
X167640000Y-72390000D03*
X165100000Y-72390000D03*
X167640000Y-69850000D03*
X165100000Y-69850000D03*
X167640000Y-67310000D03*
X165100000Y-67310000D03*
X167640000Y-64770000D03*
X165100000Y-64770000D03*
X167640000Y-62230000D03*
X165100000Y-62230000D03*
X167640000Y-59690000D03*
X165100000Y-59690000D03*
X167640000Y-57150000D03*
X165100000Y-57150000D03*
X167640000Y-54610000D03*
X165100000Y-54610000D03*
X167640000Y-52070000D03*
X165100000Y-52070000D03*
X167640000Y-49530000D03*
X165100000Y-49530000D03*
X167640000Y-46990000D03*
X165100000Y-46990000D03*
X167640000Y-44450000D03*
X165100000Y-44450000D03*
X167640000Y-41910000D03*
X165100000Y-41910000D03*
X167640000Y-39370000D03*
X165100000Y-39370000D03*
X167640000Y-36830000D03*
X165100000Y-36830000D03*
X167640000Y-34290000D03*
D11*
X165100000Y-34290000D03*
%TD*%
D12*
%TO.C,XTAL*%
X111125000Y-81915000D03*
X118745000Y-81915000D03*
X118745000Y-74295000D03*
D13*
X111125000Y-74295000D03*
%TD*%
D14*
%TO.C,DS1813*%
X127000000Y-74930000D03*
D15*
X129540000Y-74930000D03*
X128270000Y-74930000D03*
%TD*%
D16*
%TO.C,RESET*%
X141755000Y-76835000D03*
X141755000Y-81335000D03*
X135255000Y-76835000D03*
X135255000Y-81335000D03*
%TD*%
D17*
%TO.C,R3*%
X158750000Y-83185000D03*
D12*
X148590000Y-83185000D03*
%TD*%
D17*
%TO.C,R2*%
X158750000Y-79135000D03*
D12*
X148590000Y-79135000D03*
%TD*%
D17*
%TO.C,R1*%
X158750000Y-75085000D03*
D12*
X148590000Y-75085000D03*
%TD*%
D11*
%TO.C,XTAL_EN*%
X105410000Y-74295000D03*
D10*
X102870000Y-74295000D03*
%TD*%
D12*
%TO.C,C4*%
X151210000Y-29845000D03*
X156210000Y-29845000D03*
%TD*%
%TO.C,C3*%
X132160000Y-29845000D03*
X137160000Y-29845000D03*
%TD*%
%TO.C,C2*%
X109300000Y-29845000D03*
X114300000Y-29845000D03*
%TD*%
%TO.C,C1*%
X86440000Y-29845000D03*
X91440000Y-29845000D03*
%TD*%
D17*
%TO.C,AS6C62256*%
X142240000Y-34290000D03*
X127000000Y-67310000D03*
X142240000Y-36830000D03*
X127000000Y-64770000D03*
X142240000Y-39370000D03*
X127000000Y-62230000D03*
X142240000Y-41910000D03*
X127000000Y-59690000D03*
X142240000Y-44450000D03*
X127000000Y-57150000D03*
X142240000Y-46990000D03*
X127000000Y-54610000D03*
X142240000Y-49530000D03*
X127000000Y-52070000D03*
X142240000Y-52070000D03*
X127000000Y-49530000D03*
X142240000Y-54610000D03*
X127000000Y-46990000D03*
X142240000Y-57150000D03*
X127000000Y-44450000D03*
X142240000Y-59690000D03*
X127000000Y-41910000D03*
X142240000Y-62230000D03*
X127000000Y-39370000D03*
X142240000Y-64770000D03*
X127000000Y-36830000D03*
X142240000Y-67310000D03*
X127000000Y-34290000D03*
%TD*%
%TO.C,HC00*%
X157480000Y-54610000D03*
X149860000Y-69850000D03*
X157480000Y-57150000D03*
X149860000Y-67310000D03*
X157480000Y-59690000D03*
X149860000Y-64770000D03*
X157480000Y-62230000D03*
X149860000Y-62230000D03*
X157480000Y-64770000D03*
X149860000Y-59690000D03*
X157480000Y-67310000D03*
X149860000Y-57150000D03*
X157480000Y-69850000D03*
D13*
X149860000Y-54610000D03*
%TD*%
D17*
%TO.C,HC30*%
X157480000Y-34290000D03*
X149860000Y-49530000D03*
X157480000Y-36830000D03*
X149860000Y-46990000D03*
X157480000Y-39370000D03*
X149860000Y-44450000D03*
X157480000Y-41910000D03*
X149860000Y-41910000D03*
X157480000Y-44450000D03*
X149860000Y-39370000D03*
X157480000Y-46990000D03*
X149860000Y-36830000D03*
X157480000Y-49530000D03*
X149860000Y-34290000D03*
%TD*%
%TO.C,28C256*%
X119380000Y-34290000D03*
X104140000Y-67310000D03*
X119380000Y-36830000D03*
X104140000Y-64770000D03*
X119380000Y-39370000D03*
X104140000Y-62230000D03*
X119380000Y-41910000D03*
X104140000Y-59690000D03*
X119380000Y-44450000D03*
X104140000Y-57150000D03*
X119380000Y-46990000D03*
X104140000Y-54610000D03*
X119380000Y-49530000D03*
X104140000Y-52070000D03*
X119380000Y-52070000D03*
X104140000Y-49530000D03*
X119380000Y-54610000D03*
X104140000Y-46990000D03*
X119380000Y-57150000D03*
X104140000Y-44450000D03*
X119380000Y-59690000D03*
X104140000Y-41910000D03*
X119380000Y-62230000D03*
X104140000Y-39370000D03*
X119380000Y-64770000D03*
X104140000Y-36830000D03*
X119380000Y-67310000D03*
X104140000Y-34290000D03*
%TD*%
%TO.C,W65C02S*%
X96520000Y-34290000D03*
X81280000Y-82550000D03*
X96520000Y-36830000D03*
X81280000Y-80010000D03*
X96520000Y-39370000D03*
X81280000Y-77470000D03*
X96520000Y-41910000D03*
X81280000Y-74930000D03*
X96520000Y-44450000D03*
X81280000Y-72390000D03*
X96520000Y-46990000D03*
X81280000Y-69850000D03*
X96520000Y-49530000D03*
X81280000Y-67310000D03*
X96520000Y-52070000D03*
X81280000Y-64770000D03*
X96520000Y-54610000D03*
X81280000Y-62230000D03*
X96520000Y-57150000D03*
X81280000Y-59690000D03*
X96520000Y-59690000D03*
X81280000Y-57150000D03*
X96520000Y-62230000D03*
X81280000Y-54610000D03*
X96520000Y-64770000D03*
X81280000Y-52070000D03*
X96520000Y-67310000D03*
X81280000Y-49530000D03*
X96520000Y-69850000D03*
X81280000Y-46990000D03*
X96520000Y-72390000D03*
X81280000Y-44450000D03*
X96520000Y-74930000D03*
X81280000Y-41910000D03*
X96520000Y-77470000D03*
X81280000Y-39370000D03*
X96520000Y-80010000D03*
X81280000Y-36830000D03*
X96520000Y-82550000D03*
X81280000Y-34290000D03*
%TD*%
D10*
%TO.C,EXP*%
X73660000Y-82550000D03*
X71120000Y-82550000D03*
X73660000Y-80010000D03*
X71120000Y-80010000D03*
X73660000Y-77470000D03*
X71120000Y-77470000D03*
X73660000Y-74930000D03*
X71120000Y-74930000D03*
X73660000Y-72390000D03*
X71120000Y-72390000D03*
X73660000Y-69850000D03*
X71120000Y-69850000D03*
X73660000Y-67310000D03*
X71120000Y-67310000D03*
X73660000Y-64770000D03*
X71120000Y-64770000D03*
X73660000Y-62230000D03*
X71120000Y-62230000D03*
X73660000Y-59690000D03*
X71120000Y-59690000D03*
X73660000Y-57150000D03*
X71120000Y-57150000D03*
X73660000Y-54610000D03*
X71120000Y-54610000D03*
X73660000Y-52070000D03*
X71120000Y-52070000D03*
X73660000Y-49530000D03*
X71120000Y-49530000D03*
X73660000Y-46990000D03*
X71120000Y-46990000D03*
X73660000Y-44450000D03*
X71120000Y-44450000D03*
X73660000Y-41910000D03*
X71120000Y-41910000D03*
X73660000Y-39370000D03*
X71120000Y-39370000D03*
X73660000Y-36830000D03*
X71120000Y-36830000D03*
X73660000Y-34290000D03*
X71120000Y-34290000D03*
%TD*%
M02*
