%TF.GenerationSoftware,KiCad,Pcbnew,(5.1.8)-1*%
%TF.CreationDate,2020-12-26T15:35:11+00:00*%
%TF.ProjectId,computer,636f6d70-7574-4657-922e-6b696361645f,rev?*%
%TF.SameCoordinates,Original*%
%TF.FileFunction,Legend,Top*%
%TF.FilePolarity,Positive*%
%FSLAX46Y46*%
G04 Gerber Fmt 4.6, Leading zero omitted, Abs format (unit mm)*
G04 Created by KiCad (PCBNEW (5.1.8)-1) date 2020-12-26 15:35:11*
%MOMM*%
%LPD*%
G01*
G04 APERTURE LIST*
%ADD10C,0.120000*%
%ADD11C,0.150000*%
G04 APERTURE END LIST*
D10*
%TO.C,R3*%
X157710000Y-83185000D02*
X156940000Y-83185000D01*
X149630000Y-83185000D02*
X150400000Y-83185000D01*
X156940000Y-81815000D02*
X150400000Y-81815000D01*
X156940000Y-84555000D02*
X156940000Y-81815000D01*
X150400000Y-84555000D02*
X156940000Y-84555000D01*
X150400000Y-81815000D02*
X150400000Y-84555000D01*
%TO.C,R1*%
X157710000Y-75565000D02*
X156940000Y-75565000D01*
X149630000Y-75565000D02*
X150400000Y-75565000D01*
X156940000Y-74195000D02*
X150400000Y-74195000D01*
X156940000Y-76935000D02*
X156940000Y-74195000D01*
X150400000Y-76935000D02*
X156940000Y-76935000D01*
X150400000Y-74195000D02*
X150400000Y-76935000D01*
%TO.C,C4*%
X156750000Y-30135000D02*
X156750000Y-30580000D01*
X156750000Y-27840000D02*
X156750000Y-28285000D01*
X150510000Y-30135000D02*
X150510000Y-30580000D01*
X150510000Y-27840000D02*
X150510000Y-28285000D01*
X150510000Y-30580000D02*
X156750000Y-30580000D01*
X150510000Y-27840000D02*
X156750000Y-27840000D01*
%TO.C,C3*%
X137700000Y-30135000D02*
X137700000Y-30580000D01*
X137700000Y-27840000D02*
X137700000Y-28285000D01*
X131460000Y-30135000D02*
X131460000Y-30580000D01*
X131460000Y-27840000D02*
X131460000Y-28285000D01*
X131460000Y-30580000D02*
X137700000Y-30580000D01*
X131460000Y-27840000D02*
X137700000Y-27840000D01*
%TO.C,C2*%
X114840000Y-30135000D02*
X114840000Y-30580000D01*
X114840000Y-27840000D02*
X114840000Y-28285000D01*
X108600000Y-30135000D02*
X108600000Y-30580000D01*
X108600000Y-27840000D02*
X108600000Y-28285000D01*
X108600000Y-30580000D02*
X114840000Y-30580000D01*
X108600000Y-27840000D02*
X114840000Y-27840000D01*
%TO.C,C1*%
X91980000Y-30135000D02*
X91980000Y-30580000D01*
X91980000Y-27840000D02*
X91980000Y-28285000D01*
X85740000Y-30135000D02*
X85740000Y-30580000D01*
X85740000Y-27840000D02*
X85740000Y-28285000D01*
X85740000Y-30580000D02*
X91980000Y-30580000D01*
X85740000Y-27840000D02*
X91980000Y-27840000D01*
%TO.C,U3*%
X143570000Y-32900000D02*
X125670000Y-32900000D01*
X143570000Y-68700000D02*
X143570000Y-32900000D01*
X125670000Y-68700000D02*
X143570000Y-68700000D01*
X125670000Y-32900000D02*
X125670000Y-68700000D01*
X141080000Y-32960000D02*
X135620000Y-32960000D01*
X141080000Y-68640000D02*
X141080000Y-32960000D01*
X128160000Y-68640000D02*
X141080000Y-68640000D01*
X128160000Y-32960000D02*
X128160000Y-68640000D01*
X133620000Y-32960000D02*
X128160000Y-32960000D01*
X135620000Y-32960000D02*
G75*
G02*
X133620000Y-32960000I-1000000J0D01*
G01*
%TO.C,J2*%
X163770000Y-83880000D02*
X168970000Y-83880000D01*
X163770000Y-35560000D02*
X163770000Y-83880000D01*
X168970000Y-32960000D02*
X168970000Y-83880000D01*
X163770000Y-35560000D02*
X166370000Y-35560000D01*
X166370000Y-35560000D02*
X166370000Y-32960000D01*
X166370000Y-32960000D02*
X168970000Y-32960000D01*
X163770000Y-34290000D02*
X163770000Y-32960000D01*
X163770000Y-32960000D02*
X165100000Y-32960000D01*
%TO.C,X1*%
X108485000Y-71655000D02*
X108485000Y-83805000D01*
X109235000Y-84555000D02*
X120635000Y-84555000D01*
X121385000Y-83805000D02*
X121385000Y-72405000D01*
X120635000Y-71655000D02*
X108485000Y-71655000D01*
X121385000Y-72405000D02*
G75*
G03*
X120635000Y-71655000I-750000J0D01*
G01*
X120635000Y-84555000D02*
G75*
G03*
X121385000Y-83805000I0J750000D01*
G01*
X108485000Y-83805000D02*
G75*
G03*
X109235000Y-84555000I750000J0D01*
G01*
%TO.C,U6*%
X125870000Y-83930000D02*
X125870000Y-78740000D01*
X130670000Y-83930000D02*
X125870000Y-83930000D01*
X130670000Y-78740000D02*
X130670000Y-83930000D01*
X125870000Y-78740000D02*
X130670000Y-78740000D01*
X129540000Y-75950000D02*
X129540000Y-78740000D01*
X128270000Y-75950000D02*
X128270000Y-78740000D01*
X127000000Y-75950000D02*
X127000000Y-78740000D01*
%TO.C,SW1*%
X142005000Y-79835000D02*
X142005000Y-78335000D01*
X140755000Y-75835000D02*
X136255000Y-75835000D01*
X135005000Y-78335000D02*
X135005000Y-79835000D01*
X136255000Y-82335000D02*
X140755000Y-82335000D01*
%TO.C,R2*%
X157710000Y-79375000D02*
X156940000Y-79375000D01*
X149630000Y-79375000D02*
X150400000Y-79375000D01*
X156940000Y-78005000D02*
X150400000Y-78005000D01*
X156940000Y-80745000D02*
X156940000Y-78005000D01*
X150400000Y-80745000D02*
X156940000Y-80745000D01*
X150400000Y-78005000D02*
X150400000Y-80745000D01*
%TO.C,JP1*%
X106105000Y-75735000D02*
X100905000Y-75735000D01*
X100905000Y-75735000D02*
X100905000Y-78395000D01*
X100905000Y-78395000D02*
X106105000Y-78395000D01*
X106105000Y-78395000D02*
X106105000Y-75735000D01*
X105155000Y-78395000D02*
X105155000Y-84395000D01*
X105155000Y-84395000D02*
X104395000Y-84395000D01*
X104395000Y-84395000D02*
X104395000Y-78395000D01*
X105095000Y-78395000D02*
X105095000Y-84395000D01*
X104975000Y-78395000D02*
X104975000Y-84395000D01*
X104855000Y-78395000D02*
X104855000Y-84395000D01*
X104735000Y-78395000D02*
X104735000Y-84395000D01*
X104615000Y-78395000D02*
X104615000Y-84395000D01*
X104495000Y-78395000D02*
X104495000Y-84395000D01*
X105155000Y-75405000D02*
X105155000Y-75735000D01*
X104395000Y-75405000D02*
X104395000Y-75735000D01*
X103505000Y-75735000D02*
X103505000Y-78395000D01*
X102615000Y-78395000D02*
X102615000Y-84395000D01*
X102615000Y-84395000D02*
X101855000Y-84395000D01*
X101855000Y-84395000D02*
X101855000Y-78395000D01*
X102615000Y-75337929D02*
X102615000Y-75735000D01*
X101855000Y-75337929D02*
X101855000Y-75735000D01*
X104775000Y-73025000D02*
X106045000Y-73025000D01*
X106045000Y-73025000D02*
X106045000Y-74295000D01*
%TO.C,U5*%
X158810000Y-53220000D02*
X148530000Y-53220000D01*
X158810000Y-71240000D02*
X158810000Y-53220000D01*
X148530000Y-71240000D02*
X158810000Y-71240000D01*
X148530000Y-53220000D02*
X148530000Y-71240000D01*
X156320000Y-53280000D02*
X154670000Y-53280000D01*
X156320000Y-71180000D02*
X156320000Y-53280000D01*
X151020000Y-71180000D02*
X156320000Y-71180000D01*
X151020000Y-53280000D02*
X151020000Y-71180000D01*
X152670000Y-53280000D02*
X151020000Y-53280000D01*
X154670000Y-53280000D02*
G75*
G02*
X152670000Y-53280000I-1000000J0D01*
G01*
%TO.C,U4*%
X158810000Y-32900000D02*
X148530000Y-32900000D01*
X158810000Y-50920000D02*
X158810000Y-32900000D01*
X148530000Y-50920000D02*
X158810000Y-50920000D01*
X148530000Y-32900000D02*
X148530000Y-50920000D01*
X156320000Y-32960000D02*
X154670000Y-32960000D01*
X156320000Y-50860000D02*
X156320000Y-32960000D01*
X151020000Y-50860000D02*
X156320000Y-50860000D01*
X151020000Y-32960000D02*
X151020000Y-50860000D01*
X152670000Y-32960000D02*
X151020000Y-32960000D01*
X154670000Y-32960000D02*
G75*
G02*
X152670000Y-32960000I-1000000J0D01*
G01*
%TO.C,U2*%
X120710000Y-32900000D02*
X102810000Y-32900000D01*
X120710000Y-68700000D02*
X120710000Y-32900000D01*
X102810000Y-68700000D02*
X120710000Y-68700000D01*
X102810000Y-32900000D02*
X102810000Y-68700000D01*
X118220000Y-32960000D02*
X112760000Y-32960000D01*
X118220000Y-68640000D02*
X118220000Y-32960000D01*
X105300000Y-68640000D02*
X118220000Y-68640000D01*
X105300000Y-32960000D02*
X105300000Y-68640000D01*
X110760000Y-32960000D02*
X105300000Y-32960000D01*
X112760000Y-32960000D02*
G75*
G02*
X110760000Y-32960000I-1000000J0D01*
G01*
%TO.C,U1*%
X97850000Y-32900000D02*
X79950000Y-32900000D01*
X97850000Y-83940000D02*
X97850000Y-32900000D01*
X79950000Y-83940000D02*
X97850000Y-83940000D01*
X79950000Y-32900000D02*
X79950000Y-83940000D01*
X95360000Y-32960000D02*
X89900000Y-32960000D01*
X95360000Y-83880000D02*
X95360000Y-32960000D01*
X82440000Y-83880000D02*
X95360000Y-83880000D01*
X82440000Y-32960000D02*
X82440000Y-83880000D01*
X87900000Y-32960000D02*
X82440000Y-32960000D01*
X89900000Y-32960000D02*
G75*
G02*
X87900000Y-32960000I-1000000J0D01*
G01*
%TO.C,J1*%
X69790000Y-83880000D02*
X74990000Y-83880000D01*
X69790000Y-35560000D02*
X69790000Y-83880000D01*
X74990000Y-32960000D02*
X74990000Y-83880000D01*
X69790000Y-35560000D02*
X72390000Y-35560000D01*
X72390000Y-35560000D02*
X72390000Y-32960000D01*
X72390000Y-32960000D02*
X74990000Y-32960000D01*
X69790000Y-34290000D02*
X69790000Y-32960000D01*
X69790000Y-32960000D02*
X71120000Y-32960000D01*
%TO.C,U3*%
D11*
X130548571Y-31916666D02*
X131024761Y-31916666D01*
X130453333Y-32202380D02*
X130786666Y-31202380D01*
X131120000Y-32202380D01*
X131405714Y-32154761D02*
X131548571Y-32202380D01*
X131786666Y-32202380D01*
X131881904Y-32154761D01*
X131929523Y-32107142D01*
X131977142Y-32011904D01*
X131977142Y-31916666D01*
X131929523Y-31821428D01*
X131881904Y-31773809D01*
X131786666Y-31726190D01*
X131596190Y-31678571D01*
X131500952Y-31630952D01*
X131453333Y-31583333D01*
X131405714Y-31488095D01*
X131405714Y-31392857D01*
X131453333Y-31297619D01*
X131500952Y-31250000D01*
X131596190Y-31202380D01*
X131834285Y-31202380D01*
X131977142Y-31250000D01*
X132834285Y-31202380D02*
X132643809Y-31202380D01*
X132548571Y-31250000D01*
X132500952Y-31297619D01*
X132405714Y-31440476D01*
X132358095Y-31630952D01*
X132358095Y-32011904D01*
X132405714Y-32107142D01*
X132453333Y-32154761D01*
X132548571Y-32202380D01*
X132739047Y-32202380D01*
X132834285Y-32154761D01*
X132881904Y-32107142D01*
X132929523Y-32011904D01*
X132929523Y-31773809D01*
X132881904Y-31678571D01*
X132834285Y-31630952D01*
X132739047Y-31583333D01*
X132548571Y-31583333D01*
X132453333Y-31630952D01*
X132405714Y-31678571D01*
X132358095Y-31773809D01*
X133929523Y-32107142D02*
X133881904Y-32154761D01*
X133739047Y-32202380D01*
X133643809Y-32202380D01*
X133500952Y-32154761D01*
X133405714Y-32059523D01*
X133358095Y-31964285D01*
X133310476Y-31773809D01*
X133310476Y-31630952D01*
X133358095Y-31440476D01*
X133405714Y-31345238D01*
X133500952Y-31250000D01*
X133643809Y-31202380D01*
X133739047Y-31202380D01*
X133881904Y-31250000D01*
X133929523Y-31297619D01*
X134786666Y-31202380D02*
X134596190Y-31202380D01*
X134500952Y-31250000D01*
X134453333Y-31297619D01*
X134358095Y-31440476D01*
X134310476Y-31630952D01*
X134310476Y-32011904D01*
X134358095Y-32107142D01*
X134405714Y-32154761D01*
X134500952Y-32202380D01*
X134691428Y-32202380D01*
X134786666Y-32154761D01*
X134834285Y-32107142D01*
X134881904Y-32011904D01*
X134881904Y-31773809D01*
X134834285Y-31678571D01*
X134786666Y-31630952D01*
X134691428Y-31583333D01*
X134500952Y-31583333D01*
X134405714Y-31630952D01*
X134358095Y-31678571D01*
X134310476Y-31773809D01*
X135262857Y-31297619D02*
X135310476Y-31250000D01*
X135405714Y-31202380D01*
X135643809Y-31202380D01*
X135739047Y-31250000D01*
X135786666Y-31297619D01*
X135834285Y-31392857D01*
X135834285Y-31488095D01*
X135786666Y-31630952D01*
X135215238Y-32202380D01*
X135834285Y-32202380D01*
X136215238Y-31297619D02*
X136262857Y-31250000D01*
X136358095Y-31202380D01*
X136596190Y-31202380D01*
X136691428Y-31250000D01*
X136739047Y-31297619D01*
X136786666Y-31392857D01*
X136786666Y-31488095D01*
X136739047Y-31630952D01*
X136167619Y-32202380D01*
X136786666Y-32202380D01*
X137691428Y-31202380D02*
X137215238Y-31202380D01*
X137167619Y-31678571D01*
X137215238Y-31630952D01*
X137310476Y-31583333D01*
X137548571Y-31583333D01*
X137643809Y-31630952D01*
X137691428Y-31678571D01*
X137739047Y-31773809D01*
X137739047Y-32011904D01*
X137691428Y-32107142D01*
X137643809Y-32154761D01*
X137548571Y-32202380D01*
X137310476Y-32202380D01*
X137215238Y-32154761D01*
X137167619Y-32107142D01*
X138596190Y-31202380D02*
X138405714Y-31202380D01*
X138310476Y-31250000D01*
X138262857Y-31297619D01*
X138167619Y-31440476D01*
X138120000Y-31630952D01*
X138120000Y-32011904D01*
X138167619Y-32107142D01*
X138215238Y-32154761D01*
X138310476Y-32202380D01*
X138500952Y-32202380D01*
X138596190Y-32154761D01*
X138643809Y-32107142D01*
X138691428Y-32011904D01*
X138691428Y-31773809D01*
X138643809Y-31678571D01*
X138596190Y-31630952D01*
X138500952Y-31583333D01*
X138310476Y-31583333D01*
X138215238Y-31630952D01*
X138167619Y-31678571D01*
X138120000Y-31773809D01*
%TO.C,J2*%
X165179523Y-84808571D02*
X165512857Y-84808571D01*
X165655714Y-85332380D02*
X165179523Y-85332380D01*
X165179523Y-84332380D01*
X165655714Y-84332380D01*
X165989047Y-84332380D02*
X166655714Y-85332380D01*
X166655714Y-84332380D02*
X165989047Y-85332380D01*
X167036666Y-85332380D02*
X167036666Y-84332380D01*
X167417619Y-84332380D01*
X167512857Y-84380000D01*
X167560476Y-84427619D01*
X167608095Y-84522857D01*
X167608095Y-84665714D01*
X167560476Y-84760952D01*
X167512857Y-84808571D01*
X167417619Y-84856190D01*
X167036666Y-84856190D01*
%TO.C,X1*%
X113720714Y-70937380D02*
X113149285Y-70937380D01*
X113435000Y-70937380D02*
X113435000Y-69937380D01*
X113339761Y-70080238D01*
X113244523Y-70175476D01*
X113149285Y-70223095D01*
X114149285Y-70937380D02*
X114149285Y-69937380D01*
X114482619Y-70651666D01*
X114815952Y-69937380D01*
X114815952Y-70937380D01*
X115292142Y-70937380D02*
X115292142Y-69937380D01*
X115292142Y-70413571D02*
X115863571Y-70413571D01*
X115863571Y-70937380D02*
X115863571Y-69937380D01*
X116244523Y-70270714D02*
X116768333Y-70270714D01*
X116244523Y-70937380D01*
X116768333Y-70937380D01*
%TO.C,U6*%
X125627142Y-73477380D02*
X125627142Y-72477380D01*
X125865238Y-72477380D01*
X126008095Y-72525000D01*
X126103333Y-72620238D01*
X126150952Y-72715476D01*
X126198571Y-72905952D01*
X126198571Y-73048809D01*
X126150952Y-73239285D01*
X126103333Y-73334523D01*
X126008095Y-73429761D01*
X125865238Y-73477380D01*
X125627142Y-73477380D01*
X126579523Y-73429761D02*
X126722380Y-73477380D01*
X126960476Y-73477380D01*
X127055714Y-73429761D01*
X127103333Y-73382142D01*
X127150952Y-73286904D01*
X127150952Y-73191666D01*
X127103333Y-73096428D01*
X127055714Y-73048809D01*
X126960476Y-73001190D01*
X126770000Y-72953571D01*
X126674761Y-72905952D01*
X126627142Y-72858333D01*
X126579523Y-72763095D01*
X126579523Y-72667857D01*
X126627142Y-72572619D01*
X126674761Y-72525000D01*
X126770000Y-72477380D01*
X127008095Y-72477380D01*
X127150952Y-72525000D01*
X128103333Y-73477380D02*
X127531904Y-73477380D01*
X127817619Y-73477380D02*
X127817619Y-72477380D01*
X127722380Y-72620238D01*
X127627142Y-72715476D01*
X127531904Y-72763095D01*
X128674761Y-72905952D02*
X128579523Y-72858333D01*
X128531904Y-72810714D01*
X128484285Y-72715476D01*
X128484285Y-72667857D01*
X128531904Y-72572619D01*
X128579523Y-72525000D01*
X128674761Y-72477380D01*
X128865238Y-72477380D01*
X128960476Y-72525000D01*
X129008095Y-72572619D01*
X129055714Y-72667857D01*
X129055714Y-72715476D01*
X129008095Y-72810714D01*
X128960476Y-72858333D01*
X128865238Y-72905952D01*
X128674761Y-72905952D01*
X128579523Y-72953571D01*
X128531904Y-73001190D01*
X128484285Y-73096428D01*
X128484285Y-73286904D01*
X128531904Y-73382142D01*
X128579523Y-73429761D01*
X128674761Y-73477380D01*
X128865238Y-73477380D01*
X128960476Y-73429761D01*
X129008095Y-73382142D01*
X129055714Y-73286904D01*
X129055714Y-73096428D01*
X129008095Y-73001190D01*
X128960476Y-72953571D01*
X128865238Y-72905952D01*
X130008095Y-73477380D02*
X129436666Y-73477380D01*
X129722380Y-73477380D02*
X129722380Y-72477380D01*
X129627142Y-72620238D01*
X129531904Y-72715476D01*
X129436666Y-72763095D01*
X130341428Y-72477380D02*
X130960476Y-72477380D01*
X130627142Y-72858333D01*
X130770000Y-72858333D01*
X130865238Y-72905952D01*
X130912857Y-72953571D01*
X130960476Y-73048809D01*
X130960476Y-73286904D01*
X130912857Y-73382142D01*
X130865238Y-73429761D01*
X130770000Y-73477380D01*
X130484285Y-73477380D01*
X130389047Y-73429761D01*
X130341428Y-73382142D01*
%TO.C,SW1*%
X136977619Y-74747380D02*
X136644285Y-74271190D01*
X136406190Y-74747380D02*
X136406190Y-73747380D01*
X136787142Y-73747380D01*
X136882380Y-73795000D01*
X136930000Y-73842619D01*
X136977619Y-73937857D01*
X136977619Y-74080714D01*
X136930000Y-74175952D01*
X136882380Y-74223571D01*
X136787142Y-74271190D01*
X136406190Y-74271190D01*
X137406190Y-74223571D02*
X137739523Y-74223571D01*
X137882380Y-74747380D02*
X137406190Y-74747380D01*
X137406190Y-73747380D01*
X137882380Y-73747380D01*
X138263333Y-74699761D02*
X138406190Y-74747380D01*
X138644285Y-74747380D01*
X138739523Y-74699761D01*
X138787142Y-74652142D01*
X138834761Y-74556904D01*
X138834761Y-74461666D01*
X138787142Y-74366428D01*
X138739523Y-74318809D01*
X138644285Y-74271190D01*
X138453809Y-74223571D01*
X138358571Y-74175952D01*
X138310952Y-74128333D01*
X138263333Y-74033095D01*
X138263333Y-73937857D01*
X138310952Y-73842619D01*
X138358571Y-73795000D01*
X138453809Y-73747380D01*
X138691904Y-73747380D01*
X138834761Y-73795000D01*
X139263333Y-74223571D02*
X139596666Y-74223571D01*
X139739523Y-74747380D02*
X139263333Y-74747380D01*
X139263333Y-73747380D01*
X139739523Y-73747380D01*
X140025238Y-73747380D02*
X140596666Y-73747380D01*
X140310952Y-74747380D02*
X140310952Y-73747380D01*
%TO.C,JP1*%
X100600238Y-71207380D02*
X101266904Y-72207380D01*
X101266904Y-71207380D02*
X100600238Y-72207380D01*
X101505000Y-71207380D02*
X102076428Y-71207380D01*
X101790714Y-72207380D02*
X101790714Y-71207380D01*
X102362142Y-71921666D02*
X102838333Y-71921666D01*
X102266904Y-72207380D02*
X102600238Y-71207380D01*
X102933571Y-72207380D01*
X103743095Y-72207380D02*
X103266904Y-72207380D01*
X103266904Y-71207380D01*
X103838333Y-72302619D02*
X104600238Y-72302619D01*
X104838333Y-71683571D02*
X105171666Y-71683571D01*
X105314523Y-72207380D02*
X104838333Y-72207380D01*
X104838333Y-71207380D01*
X105314523Y-71207380D01*
X105743095Y-72207380D02*
X105743095Y-71207380D01*
X106314523Y-72207380D01*
X106314523Y-71207380D01*
%TO.C,U5*%
X150884285Y-51522380D02*
X151550952Y-51522380D01*
X151122380Y-52522380D01*
X152360476Y-51855714D02*
X152360476Y-52522380D01*
X152122380Y-51474761D02*
X151884285Y-52189047D01*
X152503333Y-52189047D01*
X152884285Y-52522380D02*
X152884285Y-51522380D01*
X152884285Y-51998571D02*
X153455714Y-51998571D01*
X153455714Y-52522380D02*
X153455714Y-51522380D01*
X154503333Y-52427142D02*
X154455714Y-52474761D01*
X154312857Y-52522380D01*
X154217619Y-52522380D01*
X154074761Y-52474761D01*
X153979523Y-52379523D01*
X153931904Y-52284285D01*
X153884285Y-52093809D01*
X153884285Y-51950952D01*
X153931904Y-51760476D01*
X153979523Y-51665238D01*
X154074761Y-51570000D01*
X154217619Y-51522380D01*
X154312857Y-51522380D01*
X154455714Y-51570000D01*
X154503333Y-51617619D01*
X155122380Y-51522380D02*
X155217619Y-51522380D01*
X155312857Y-51570000D01*
X155360476Y-51617619D01*
X155408095Y-51712857D01*
X155455714Y-51903333D01*
X155455714Y-52141428D01*
X155408095Y-52331904D01*
X155360476Y-52427142D01*
X155312857Y-52474761D01*
X155217619Y-52522380D01*
X155122380Y-52522380D01*
X155027142Y-52474761D01*
X154979523Y-52427142D01*
X154931904Y-52331904D01*
X154884285Y-52141428D01*
X154884285Y-51903333D01*
X154931904Y-51712857D01*
X154979523Y-51617619D01*
X155027142Y-51570000D01*
X155122380Y-51522380D01*
X156074761Y-51522380D02*
X156170000Y-51522380D01*
X156265238Y-51570000D01*
X156312857Y-51617619D01*
X156360476Y-51712857D01*
X156408095Y-51903333D01*
X156408095Y-52141428D01*
X156360476Y-52331904D01*
X156312857Y-52427142D01*
X156265238Y-52474761D01*
X156170000Y-52522380D01*
X156074761Y-52522380D01*
X155979523Y-52474761D01*
X155931904Y-52427142D01*
X155884285Y-52331904D01*
X155836666Y-52141428D01*
X155836666Y-51903333D01*
X155884285Y-51712857D01*
X155931904Y-51617619D01*
X155979523Y-51570000D01*
X156074761Y-51522380D01*
%TO.C,U4*%
X150884285Y-31202380D02*
X151550952Y-31202380D01*
X151122380Y-32202380D01*
X152360476Y-31535714D02*
X152360476Y-32202380D01*
X152122380Y-31154761D02*
X151884285Y-31869047D01*
X152503333Y-31869047D01*
X152884285Y-32202380D02*
X152884285Y-31202380D01*
X152884285Y-31678571D02*
X153455714Y-31678571D01*
X153455714Y-32202380D02*
X153455714Y-31202380D01*
X154503333Y-32107142D02*
X154455714Y-32154761D01*
X154312857Y-32202380D01*
X154217619Y-32202380D01*
X154074761Y-32154761D01*
X153979523Y-32059523D01*
X153931904Y-31964285D01*
X153884285Y-31773809D01*
X153884285Y-31630952D01*
X153931904Y-31440476D01*
X153979523Y-31345238D01*
X154074761Y-31250000D01*
X154217619Y-31202380D01*
X154312857Y-31202380D01*
X154455714Y-31250000D01*
X154503333Y-31297619D01*
X154836666Y-31202380D02*
X155455714Y-31202380D01*
X155122380Y-31583333D01*
X155265238Y-31583333D01*
X155360476Y-31630952D01*
X155408095Y-31678571D01*
X155455714Y-31773809D01*
X155455714Y-32011904D01*
X155408095Y-32107142D01*
X155360476Y-32154761D01*
X155265238Y-32202380D01*
X154979523Y-32202380D01*
X154884285Y-32154761D01*
X154836666Y-32107142D01*
X156074761Y-31202380D02*
X156170000Y-31202380D01*
X156265238Y-31250000D01*
X156312857Y-31297619D01*
X156360476Y-31392857D01*
X156408095Y-31583333D01*
X156408095Y-31821428D01*
X156360476Y-32011904D01*
X156312857Y-32107142D01*
X156265238Y-32154761D01*
X156170000Y-32202380D01*
X156074761Y-32202380D01*
X155979523Y-32154761D01*
X155931904Y-32107142D01*
X155884285Y-32011904D01*
X155836666Y-31821428D01*
X155836666Y-31583333D01*
X155884285Y-31392857D01*
X155931904Y-31297619D01*
X155979523Y-31250000D01*
X156074761Y-31202380D01*
%TO.C,U2*%
X109069523Y-31297619D02*
X109117142Y-31250000D01*
X109212380Y-31202380D01*
X109450476Y-31202380D01*
X109545714Y-31250000D01*
X109593333Y-31297619D01*
X109640952Y-31392857D01*
X109640952Y-31488095D01*
X109593333Y-31630952D01*
X109021904Y-32202380D01*
X109640952Y-32202380D01*
X110212380Y-31630952D02*
X110117142Y-31583333D01*
X110069523Y-31535714D01*
X110021904Y-31440476D01*
X110021904Y-31392857D01*
X110069523Y-31297619D01*
X110117142Y-31250000D01*
X110212380Y-31202380D01*
X110402857Y-31202380D01*
X110498095Y-31250000D01*
X110545714Y-31297619D01*
X110593333Y-31392857D01*
X110593333Y-31440476D01*
X110545714Y-31535714D01*
X110498095Y-31583333D01*
X110402857Y-31630952D01*
X110212380Y-31630952D01*
X110117142Y-31678571D01*
X110069523Y-31726190D01*
X110021904Y-31821428D01*
X110021904Y-32011904D01*
X110069523Y-32107142D01*
X110117142Y-32154761D01*
X110212380Y-32202380D01*
X110402857Y-32202380D01*
X110498095Y-32154761D01*
X110545714Y-32107142D01*
X110593333Y-32011904D01*
X110593333Y-31821428D01*
X110545714Y-31726190D01*
X110498095Y-31678571D01*
X110402857Y-31630952D01*
X111593333Y-32107142D02*
X111545714Y-32154761D01*
X111402857Y-32202380D01*
X111307619Y-32202380D01*
X111164761Y-32154761D01*
X111069523Y-32059523D01*
X111021904Y-31964285D01*
X110974285Y-31773809D01*
X110974285Y-31630952D01*
X111021904Y-31440476D01*
X111069523Y-31345238D01*
X111164761Y-31250000D01*
X111307619Y-31202380D01*
X111402857Y-31202380D01*
X111545714Y-31250000D01*
X111593333Y-31297619D01*
X111974285Y-31297619D02*
X112021904Y-31250000D01*
X112117142Y-31202380D01*
X112355238Y-31202380D01*
X112450476Y-31250000D01*
X112498095Y-31297619D01*
X112545714Y-31392857D01*
X112545714Y-31488095D01*
X112498095Y-31630952D01*
X111926666Y-32202380D01*
X112545714Y-32202380D01*
X113450476Y-31202380D02*
X112974285Y-31202380D01*
X112926666Y-31678571D01*
X112974285Y-31630952D01*
X113069523Y-31583333D01*
X113307619Y-31583333D01*
X113402857Y-31630952D01*
X113450476Y-31678571D01*
X113498095Y-31773809D01*
X113498095Y-32011904D01*
X113450476Y-32107142D01*
X113402857Y-32154761D01*
X113307619Y-32202380D01*
X113069523Y-32202380D01*
X112974285Y-32154761D01*
X112926666Y-32107142D01*
X114355238Y-31202380D02*
X114164761Y-31202380D01*
X114069523Y-31250000D01*
X114021904Y-31297619D01*
X113926666Y-31440476D01*
X113879047Y-31630952D01*
X113879047Y-32011904D01*
X113926666Y-32107142D01*
X113974285Y-32154761D01*
X114069523Y-32202380D01*
X114260000Y-32202380D01*
X114355238Y-32154761D01*
X114402857Y-32107142D01*
X114450476Y-32011904D01*
X114450476Y-31773809D01*
X114402857Y-31678571D01*
X114355238Y-31630952D01*
X114260000Y-31583333D01*
X114069523Y-31583333D01*
X113974285Y-31630952D01*
X113926666Y-31678571D01*
X113879047Y-31773809D01*
%TO.C,U1*%
X85590476Y-31202380D02*
X85828571Y-32202380D01*
X86019047Y-31488095D01*
X86209523Y-32202380D01*
X86447619Y-31202380D01*
X87257142Y-31202380D02*
X87066666Y-31202380D01*
X86971428Y-31250000D01*
X86923809Y-31297619D01*
X86828571Y-31440476D01*
X86780952Y-31630952D01*
X86780952Y-32011904D01*
X86828571Y-32107142D01*
X86876190Y-32154761D01*
X86971428Y-32202380D01*
X87161904Y-32202380D01*
X87257142Y-32154761D01*
X87304761Y-32107142D01*
X87352380Y-32011904D01*
X87352380Y-31773809D01*
X87304761Y-31678571D01*
X87257142Y-31630952D01*
X87161904Y-31583333D01*
X86971428Y-31583333D01*
X86876190Y-31630952D01*
X86828571Y-31678571D01*
X86780952Y-31773809D01*
X88257142Y-31202380D02*
X87780952Y-31202380D01*
X87733333Y-31678571D01*
X87780952Y-31630952D01*
X87876190Y-31583333D01*
X88114285Y-31583333D01*
X88209523Y-31630952D01*
X88257142Y-31678571D01*
X88304761Y-31773809D01*
X88304761Y-32011904D01*
X88257142Y-32107142D01*
X88209523Y-32154761D01*
X88114285Y-32202380D01*
X87876190Y-32202380D01*
X87780952Y-32154761D01*
X87733333Y-32107142D01*
X89304761Y-32107142D02*
X89257142Y-32154761D01*
X89114285Y-32202380D01*
X89019047Y-32202380D01*
X88876190Y-32154761D01*
X88780952Y-32059523D01*
X88733333Y-31964285D01*
X88685714Y-31773809D01*
X88685714Y-31630952D01*
X88733333Y-31440476D01*
X88780952Y-31345238D01*
X88876190Y-31250000D01*
X89019047Y-31202380D01*
X89114285Y-31202380D01*
X89257142Y-31250000D01*
X89304761Y-31297619D01*
X89923809Y-31202380D02*
X90019047Y-31202380D01*
X90114285Y-31250000D01*
X90161904Y-31297619D01*
X90209523Y-31392857D01*
X90257142Y-31583333D01*
X90257142Y-31821428D01*
X90209523Y-32011904D01*
X90161904Y-32107142D01*
X90114285Y-32154761D01*
X90019047Y-32202380D01*
X89923809Y-32202380D01*
X89828571Y-32154761D01*
X89780952Y-32107142D01*
X89733333Y-32011904D01*
X89685714Y-31821428D01*
X89685714Y-31583333D01*
X89733333Y-31392857D01*
X89780952Y-31297619D01*
X89828571Y-31250000D01*
X89923809Y-31202380D01*
X90638095Y-31297619D02*
X90685714Y-31250000D01*
X90780952Y-31202380D01*
X91019047Y-31202380D01*
X91114285Y-31250000D01*
X91161904Y-31297619D01*
X91209523Y-31392857D01*
X91209523Y-31488095D01*
X91161904Y-31630952D01*
X90590476Y-32202380D01*
X91209523Y-32202380D01*
X91590476Y-32154761D02*
X91733333Y-32202380D01*
X91971428Y-32202380D01*
X92066666Y-32154761D01*
X92114285Y-32107142D01*
X92161904Y-32011904D01*
X92161904Y-31916666D01*
X92114285Y-31821428D01*
X92066666Y-31773809D01*
X91971428Y-31726190D01*
X91780952Y-31678571D01*
X91685714Y-31630952D01*
X91638095Y-31583333D01*
X91590476Y-31488095D01*
X91590476Y-31392857D01*
X91638095Y-31297619D01*
X91685714Y-31250000D01*
X91780952Y-31202380D01*
X92019047Y-31202380D01*
X92161904Y-31250000D01*
%TO.C,J1*%
X71199523Y-84808571D02*
X71532857Y-84808571D01*
X71675714Y-85332380D02*
X71199523Y-85332380D01*
X71199523Y-84332380D01*
X71675714Y-84332380D01*
X72009047Y-84332380D02*
X72675714Y-85332380D01*
X72675714Y-84332380D02*
X72009047Y-85332380D01*
X73056666Y-85332380D02*
X73056666Y-84332380D01*
X73437619Y-84332380D01*
X73532857Y-84380000D01*
X73580476Y-84427619D01*
X73628095Y-84522857D01*
X73628095Y-84665714D01*
X73580476Y-84760952D01*
X73532857Y-84808571D01*
X73437619Y-84856190D01*
X73056666Y-84856190D01*
%TD*%
M02*
