%TF.GenerationSoftware,KiCad,Pcbnew,(5.1.8)-1*%
%TF.CreationDate,2020-12-06T18:21:21+00:00*%
%TF.ProjectId,computer,636f6d70-7574-4657-922e-6b696361645f,rev?*%
%TF.SameCoordinates,Original*%
%TF.FileFunction,Legend,Bot*%
%TF.FilePolarity,Positive*%
%FSLAX46Y46*%
G04 Gerber Fmt 4.6, Leading zero omitted, Abs format (unit mm)*
G04 Created by KiCad (PCBNEW (5.1.8)-1) date 2020-12-06 18:21:21*
%MOMM*%
%LPD*%
G01*
G04 APERTURE LIST*
%ADD10C,0.100000*%
G04 APERTURE END LIST*
D10*
X170989047Y-19772380D02*
X170989047Y-20486666D01*
X171036666Y-20629523D01*
X171131904Y-20724761D01*
X171274761Y-20772380D01*
X171370000Y-20772380D01*
X170036666Y-20772380D02*
X170512857Y-20772380D01*
X170512857Y-19772380D01*
X169131904Y-20677142D02*
X169179523Y-20724761D01*
X169322380Y-20772380D01*
X169417619Y-20772380D01*
X169560476Y-20724761D01*
X169655714Y-20629523D01*
X169703333Y-20534285D01*
X169750952Y-20343809D01*
X169750952Y-20200952D01*
X169703333Y-20010476D01*
X169655714Y-19915238D01*
X169560476Y-19820000D01*
X169417619Y-19772380D01*
X169322380Y-19772380D01*
X169179523Y-19820000D01*
X169131904Y-19867619D01*
X168417619Y-19772380D02*
X168417619Y-20486666D01*
X168465238Y-20629523D01*
X168560476Y-20724761D01*
X168703333Y-20772380D01*
X168798571Y-20772380D01*
X167465238Y-20772380D02*
X167941428Y-20772380D01*
X167941428Y-19772380D01*
X166560476Y-20677142D02*
X166608095Y-20724761D01*
X166750952Y-20772380D01*
X166846190Y-20772380D01*
X166989047Y-20724761D01*
X167084285Y-20629523D01*
X167131904Y-20534285D01*
X167179523Y-20343809D01*
X167179523Y-20200952D01*
X167131904Y-20010476D01*
X167084285Y-19915238D01*
X166989047Y-19820000D01*
X166846190Y-19772380D01*
X166750952Y-19772380D01*
X166608095Y-19820000D01*
X166560476Y-19867619D01*
X165846190Y-19772380D02*
X165846190Y-20486666D01*
X165893809Y-20629523D01*
X165989047Y-20724761D01*
X166131904Y-20772380D01*
X166227142Y-20772380D01*
X164893809Y-20772380D02*
X165370000Y-20772380D01*
X165370000Y-19772380D01*
X163989047Y-20677142D02*
X164036666Y-20724761D01*
X164179523Y-20772380D01*
X164274761Y-20772380D01*
X164417619Y-20724761D01*
X164512857Y-20629523D01*
X164560476Y-20534285D01*
X164608095Y-20343809D01*
X164608095Y-20200952D01*
X164560476Y-20010476D01*
X164512857Y-19915238D01*
X164417619Y-19820000D01*
X164274761Y-19772380D01*
X164179523Y-19772380D01*
X164036666Y-19820000D01*
X163989047Y-19867619D01*
X163274761Y-19772380D02*
X163274761Y-20486666D01*
X163322380Y-20629523D01*
X163417619Y-20724761D01*
X163560476Y-20772380D01*
X163655714Y-20772380D01*
X162322380Y-20772380D02*
X162798571Y-20772380D01*
X162798571Y-19772380D01*
X161417619Y-20677142D02*
X161465238Y-20724761D01*
X161608095Y-20772380D01*
X161703333Y-20772380D01*
X161846190Y-20724761D01*
X161941428Y-20629523D01*
X161989047Y-20534285D01*
X162036666Y-20343809D01*
X162036666Y-20200952D01*
X161989047Y-20010476D01*
X161941428Y-19915238D01*
X161846190Y-19820000D01*
X161703333Y-19772380D01*
X161608095Y-19772380D01*
X161465238Y-19820000D01*
X161417619Y-19867619D01*
M02*
