M48
; DRILL file {KiCad (5.1.8)-1} date 12/26/20 15:35:12
; FORMAT={-:-/ absolute / inch / decimal}
; #@! TF.CreationDate,2020-12-26T15:35:12+00:00
; #@! TF.GenerationSoftware,Kicad,Pcbnew,(5.1.8)-1
FMAT,2
INCH
T1C0.0118
T2C0.0295
T3C0.0315
T4C0.0394
T5C0.0433
%
G90
G05
T1
X3.0298Y-1.6435
X3.0986Y-3.1
X3.2713Y-1.5093
X3.4Y-1.7548
X3.566Y-1.8528
X3.6265Y-2.7376
X3.6336Y-1.9778
X3.6468Y-2.7977
X3.649Y-2.964
X3.6511Y-2.55
X3.7537Y-2.7941
X3.7743Y-2.6014
X3.9542Y-2.559
X3.981Y-2.2253
X4.1297Y-2.1971
X4.1977Y-2.8328
X4.3317Y-1.2667
X4.4376Y-2.7585
X4.4715Y-3.0215
X4.5178Y-2.6895
X4.9448Y-2.7174
X5.0063Y-2.8054
X5.0438Y-2.7141
X5.0684Y-2.83
X5.0684Y-2.8997
X5.5314Y-1.6479
X5.7868Y-2.7759
X5.8061Y-2.8656
X5.8127Y-1.9043
X5.925Y-3.05
X5.9378Y-1.5069
X5.9929Y-2.0743
X5.9929Y-2.2359
X6.1062Y-1.65
X6.144Y-2.1199
X6.2847Y-2.832
X6.2877Y-1.4057
X6.3105Y-2.7207
X6.3909Y-2.7396
X6.4183Y-2.7777
T2
X5.0Y-2.95
X5.05Y-2.95
X5.1Y-2.95
T3
X5.2Y-1.15
X5.3969Y-1.15
X4.1Y-1.35
X4.1Y-1.45
X4.1Y-1.55
X4.1Y-1.65
X4.1Y-1.75
X4.1Y-1.85
X4.1Y-1.95
X4.1Y-2.05
X4.1Y-2.15
X4.1Y-2.25
X4.1Y-2.35
X4.1Y-2.45
X4.1Y-2.55
X4.1Y-2.65
X4.7Y-1.35
X4.7Y-1.45
X4.7Y-1.55
X4.7Y-1.65
X4.7Y-1.75
X4.7Y-1.85
X4.7Y-1.95
X4.7Y-2.05
X4.7Y-2.15
X4.7Y-2.25
X4.7Y-2.35
X4.7Y-2.45
X4.7Y-2.55
X4.7Y-2.65
X5.9Y-1.35
X5.9Y-1.45
X5.9Y-1.55
X5.9Y-1.65
X5.9Y-1.75
X5.9Y-1.85
X5.9Y-1.95
X6.2Y-1.35
X6.2Y-1.45
X6.2Y-1.55
X6.2Y-1.65
X6.2Y-1.75
X6.2Y-1.85
X6.2Y-1.95
X3.2Y-1.35
X3.2Y-1.45
X3.2Y-1.55
X3.2Y-1.65
X3.2Y-1.75
X3.2Y-1.85
X3.2Y-1.95
X3.2Y-2.05
X3.2Y-2.15
X3.2Y-2.25
X3.2Y-2.35
X3.2Y-2.45
X3.2Y-2.55
X3.2Y-2.65
X3.2Y-2.75
X3.2Y-2.85
X3.2Y-2.95
X3.2Y-3.05
X3.2Y-3.15
X3.2Y-3.25
X3.8Y-1.35
X3.8Y-1.45
X3.8Y-1.55
X3.8Y-1.65
X3.8Y-1.75
X3.8Y-1.85
X3.8Y-1.95
X3.8Y-2.05
X3.8Y-2.15
X3.8Y-2.25
X3.8Y-2.35
X3.8Y-2.45
X3.8Y-2.55
X3.8Y-2.65
X3.8Y-2.75
X3.8Y-2.85
X3.8Y-2.95
X3.8Y-3.05
X3.8Y-3.15
X3.8Y-3.25
X5.0Y-1.35
X5.0Y-1.45
X5.0Y-1.55
X5.0Y-1.65
X5.0Y-1.75
X5.0Y-1.85
X5.0Y-1.95
X5.0Y-2.05
X5.0Y-2.15
X5.0Y-2.25
X5.0Y-2.35
X5.0Y-2.45
X5.0Y-2.55
X5.0Y-2.65
X5.6Y-1.35
X5.6Y-1.45
X5.6Y-1.55
X5.6Y-1.65
X5.6Y-1.75
X5.6Y-1.85
X5.6Y-1.95
X5.6Y-2.05
X5.6Y-2.15
X5.6Y-2.25
X5.6Y-2.35
X5.6Y-2.45
X5.6Y-2.55
X5.6Y-2.65
X5.85Y-2.975
X6.25Y-2.975
X5.9Y-2.15
X5.9Y-2.25
X5.9Y-2.35
X5.9Y-2.45
X5.9Y-2.55
X5.9Y-2.65
X5.9Y-2.75
X6.2Y-2.15
X6.2Y-2.25
X6.2Y-2.35
X6.2Y-2.45
X6.2Y-2.55
X6.2Y-2.65
X6.2Y-2.75
X3.4Y-1.15
X3.5969Y-1.15
X4.3Y-1.15
X4.4969Y-1.15
X4.375Y-2.925
X4.375Y-3.225
X4.675Y-2.925
X4.675Y-3.225
X5.85Y-3.125
X6.25Y-3.125
X5.95Y-1.15
X6.1469Y-1.15
X5.85Y-3.275
X6.25Y-3.275
T4
X4.025Y-2.925
X4.125Y-2.925
X6.5Y-1.35
X6.5Y-1.45
X6.5Y-1.55
X6.5Y-1.65
X6.5Y-1.75
X6.5Y-1.85
X6.5Y-1.95
X6.5Y-2.05
X6.5Y-2.15
X6.5Y-2.25
X6.5Y-2.35
X6.5Y-2.45
X6.5Y-2.55
X6.5Y-2.65
X6.5Y-2.75
X6.5Y-2.85
X6.5Y-2.95
X6.5Y-3.05
X6.5Y-3.15
X6.5Y-3.25
X6.6Y-1.35
X6.6Y-1.45
X6.6Y-1.55
X6.6Y-1.65
X6.6Y-1.75
X6.6Y-1.85
X6.6Y-1.95
X6.6Y-2.05
X6.6Y-2.15
X6.6Y-2.25
X6.6Y-2.35
X6.6Y-2.45
X6.6Y-2.55
X6.6Y-2.65
X6.6Y-2.75
X6.6Y-2.85
X6.6Y-2.95
X6.6Y-3.05
X6.6Y-3.15
X6.6Y-3.25
X2.8Y-1.35
X2.8Y-1.45
X2.8Y-1.55
X2.8Y-1.65
X2.8Y-1.75
X2.8Y-1.85
X2.8Y-1.95
X2.8Y-2.05
X2.8Y-2.15
X2.8Y-2.25
X2.8Y-2.35
X2.8Y-2.45
X2.8Y-2.55
X2.8Y-2.65
X2.8Y-2.75
X2.8Y-2.85
X2.8Y-2.95
X2.8Y-3.05
X2.8Y-3.15
X2.8Y-3.25
X2.9Y-1.35
X2.9Y-1.45
X2.9Y-1.55
X2.9Y-1.65
X2.9Y-1.75
X2.9Y-1.85
X2.9Y-1.95
X2.9Y-2.05
X2.9Y-2.15
X2.9Y-2.25
X2.9Y-2.35
X2.9Y-2.45
X2.9Y-2.55
X2.9Y-2.65
X2.9Y-2.75
X2.9Y-2.85
X2.9Y-2.95
X2.9Y-3.05
X2.9Y-3.15
X2.9Y-3.25
T5
X5.325Y-3.025
X5.325Y-3.2022
X5.5809Y-3.025
X5.5809Y-3.2022
T0
M30
