M48
; DRILL file {KiCad (5.1.8)-1} date 12/06/20 18:21:23
; FORMAT={-:-/ absolute / inch / decimal}
; #@! TF.CreationDate,2020-12-06T18:21:23+00:00
; #@! TF.GenerationSoftware,Kicad,Pcbnew,(5.1.8)-1
FMAT,2
INCH
T1C0.0118
T2C0.0295
T3C0.0315
T4C0.0394
T5C0.0433
%
G90
G05
T1
X2.9713Y-2.4486
X3.0173Y-2.4322
X3.0718Y-1.7232
X3.0877Y-3.0696
X3.1316Y-2.2818
X3.2543Y-2.6039
X3.3005Y-2.8724
X3.4829Y-3.0326
X3.6938Y-2.1808
X3.8544Y-2.2221
X3.9185Y-2.5113
X3.9679Y-2.77
X4.1551Y-1.5946
X4.1651Y-2.8034
X4.2477Y-2.8787
X4.2731Y-2.7961
X4.2817Y-2.7495
X4.4289Y-3.2449
X4.4489Y-2.5793
X4.4738Y-2.5596
X4.4766Y-2.3222
X4.6817Y-1.2426
X4.8281Y-1.071
X4.837Y-2.6606
X4.9462Y-1.5221
X5.3524Y-2.85
X5.5409Y-2.116
X5.6482Y-2.0188
X5.6927Y-2.999
X5.7318Y-1.5186
X5.8347Y-2.8941
X5.8676Y-1.9943
X5.9828Y-2.1291
X6.009Y-2.1723
X6.1164Y-1.8506
X6.1897Y-3.0011
X6.2496Y-2.0753
X6.3Y-1.6815
X6.3121Y-1.3675
X6.347Y-1.9473
X6.3769Y-1.9733
X6.4245Y-1.7221
X6.4462Y-1.869
X6.5521Y-1.7021
X6.6577Y-1.6748
T2
X5.0Y-2.95
X5.05Y-2.95
X5.1Y-2.95
T3
X4.375Y-2.925
X4.375Y-3.225
X4.675Y-2.925
X4.675Y-3.225
X4.3031Y-1.175
X4.5Y-1.175
X5.85Y-3.1156
X6.25Y-3.1156
X5.2031Y-1.175
X5.4Y-1.175
X3.2Y-1.35
X3.2Y-1.45
X3.2Y-1.55
X3.2Y-1.65
X3.2Y-1.75
X3.2Y-1.85
X3.2Y-1.95
X3.2Y-2.05
X3.2Y-2.15
X3.2Y-2.25
X3.2Y-2.35
X3.2Y-2.45
X3.2Y-2.55
X3.2Y-2.65
X3.2Y-2.75
X3.2Y-2.85
X3.2Y-2.95
X3.2Y-3.05
X3.2Y-3.15
X3.2Y-3.25
X3.8Y-1.35
X3.8Y-1.45
X3.8Y-1.55
X3.8Y-1.65
X3.8Y-1.75
X3.8Y-1.85
X3.8Y-1.95
X3.8Y-2.05
X3.8Y-2.15
X3.8Y-2.25
X3.8Y-2.35
X3.8Y-2.45
X3.8Y-2.55
X3.8Y-2.65
X3.8Y-2.75
X3.8Y-2.85
X3.8Y-2.95
X3.8Y-3.05
X3.8Y-3.15
X3.8Y-3.25
X5.0Y-1.35
X5.0Y-1.45
X5.0Y-1.55
X5.0Y-1.65
X5.0Y-1.75
X5.0Y-1.85
X5.0Y-1.95
X5.0Y-2.05
X5.0Y-2.15
X5.0Y-2.25
X5.0Y-2.35
X5.0Y-2.45
X5.0Y-2.55
X5.0Y-2.65
X5.6Y-1.35
X5.6Y-1.45
X5.6Y-1.55
X5.6Y-1.65
X5.6Y-1.75
X5.6Y-1.85
X5.6Y-1.95
X5.6Y-2.05
X5.6Y-2.15
X5.6Y-2.25
X5.6Y-2.35
X5.6Y-2.45
X5.6Y-2.55
X5.6Y-2.65
X4.1Y-1.35
X4.1Y-1.45
X4.1Y-1.55
X4.1Y-1.65
X4.1Y-1.75
X4.1Y-1.85
X4.1Y-1.95
X4.1Y-2.05
X4.1Y-2.15
X4.1Y-2.25
X4.1Y-2.35
X4.1Y-2.45
X4.1Y-2.55
X4.1Y-2.65
X4.7Y-1.35
X4.7Y-1.45
X4.7Y-1.55
X4.7Y-1.65
X4.7Y-1.75
X4.7Y-1.85
X4.7Y-1.95
X4.7Y-2.05
X4.7Y-2.15
X4.7Y-2.25
X4.7Y-2.35
X4.7Y-2.45
X4.7Y-2.55
X4.7Y-2.65
X5.9Y-2.15
X5.9Y-2.25
X5.9Y-2.35
X5.9Y-2.45
X5.9Y-2.55
X5.9Y-2.65
X5.9Y-2.75
X6.2Y-2.15
X6.2Y-2.25
X6.2Y-2.35
X6.2Y-2.45
X6.2Y-2.55
X6.2Y-2.65
X6.2Y-2.75
X3.4031Y-1.175
X3.6Y-1.175
X5.9531Y-1.175
X6.15Y-1.175
X5.85Y-2.9561
X6.25Y-2.9561
X5.9Y-1.35
X5.9Y-1.45
X5.9Y-1.55
X5.9Y-1.65
X5.9Y-1.75
X5.9Y-1.85
X5.9Y-1.95
X6.2Y-1.35
X6.2Y-1.45
X6.2Y-1.55
X6.2Y-1.65
X6.2Y-1.75
X6.2Y-1.85
X6.2Y-1.95
X5.85Y-3.275
X6.25Y-3.275
T4
X4.05Y-2.925
X4.15Y-2.925
X2.8Y-1.35
X2.8Y-1.45
X2.8Y-1.55
X2.8Y-1.65
X2.8Y-1.75
X2.8Y-1.85
X2.8Y-1.95
X2.8Y-2.05
X2.8Y-2.15
X2.8Y-2.25
X2.8Y-2.35
X2.8Y-2.45
X2.8Y-2.55
X2.8Y-2.65
X2.8Y-2.75
X2.8Y-2.85
X2.8Y-2.95
X2.8Y-3.05
X2.8Y-3.15
X2.8Y-3.25
X2.9Y-1.35
X2.9Y-1.45
X2.9Y-1.55
X2.9Y-1.65
X2.9Y-1.75
X2.9Y-1.85
X2.9Y-1.95
X2.9Y-2.05
X2.9Y-2.15
X2.9Y-2.25
X2.9Y-2.35
X2.9Y-2.45
X2.9Y-2.55
X2.9Y-2.65
X2.9Y-2.75
X2.9Y-2.85
X2.9Y-2.95
X2.9Y-3.05
X2.9Y-3.15
X2.9Y-3.25
X6.5Y-1.35
X6.5Y-1.45
X6.5Y-1.55
X6.5Y-1.65
X6.5Y-1.75
X6.5Y-1.85
X6.5Y-1.95
X6.5Y-2.05
X6.5Y-2.15
X6.5Y-2.25
X6.5Y-2.35
X6.5Y-2.45
X6.5Y-2.55
X6.5Y-2.65
X6.5Y-2.75
X6.5Y-2.85
X6.5Y-2.95
X6.5Y-3.05
X6.5Y-3.15
X6.5Y-3.25
X6.6Y-1.35
X6.6Y-1.45
X6.6Y-1.55
X6.6Y-1.65
X6.6Y-1.75
X6.6Y-1.85
X6.6Y-1.95
X6.6Y-2.05
X6.6Y-2.15
X6.6Y-2.25
X6.6Y-2.35
X6.6Y-2.45
X6.6Y-2.55
X6.6Y-2.65
X6.6Y-2.75
X6.6Y-2.85
X6.6Y-2.95
X6.6Y-3.05
X6.6Y-3.15
X6.6Y-3.25
T5
X5.325Y-3.025
X5.325Y-3.2022
X5.5809Y-3.025
X5.5809Y-3.2022
T0
M30
