%TF.GenerationSoftware,KiCad,Pcbnew,(5.1.8)-1*%
%TF.CreationDate,2020-12-06T18:21:21+00:00*%
%TF.ProjectId,computer,636f6d70-7574-4657-922e-6b696361645f,rev?*%
%TF.SameCoordinates,Original*%
%TF.FileFunction,Copper,L2,Bot*%
%TF.FilePolarity,Positive*%
%FSLAX46Y46*%
G04 Gerber Fmt 4.6, Leading zero omitted, Abs format (unit mm)*
G04 Created by KiCad (PCBNEW (5.1.8)-1) date 2020-12-06 18:21:21*
%MOMM*%
%LPD*%
G01*
G04 APERTURE LIST*
%TA.AperFunction,ComponentPad*%
%ADD10O,1.700000X1.700000*%
%TD*%
%TA.AperFunction,ComponentPad*%
%ADD11R,1.700000X1.700000*%
%TD*%
%TA.AperFunction,ComponentPad*%
%ADD12C,1.600000*%
%TD*%
%TA.AperFunction,ComponentPad*%
%ADD13R,1.600000X1.600000*%
%TD*%
%TA.AperFunction,ComponentPad*%
%ADD14R,1.050000X1.500000*%
%TD*%
%TA.AperFunction,ComponentPad*%
%ADD15O,1.050000X1.500000*%
%TD*%
%TA.AperFunction,ComponentPad*%
%ADD16C,2.000000*%
%TD*%
%TA.AperFunction,ComponentPad*%
%ADD17O,1.600000X1.600000*%
%TD*%
%TA.AperFunction,ViaPad*%
%ADD18C,0.600000*%
%TD*%
%TA.AperFunction,Conductor*%
%ADD19C,0.500000*%
%TD*%
%TA.AperFunction,Conductor*%
%ADD20C,0.250000*%
%TD*%
G04 APERTURE END LIST*
D10*
%TO.P,EXP,40*%
%TO.N,GND*%
X167640000Y-82550000D03*
%TO.P,EXP,39*%
X165100000Y-82550000D03*
%TO.P,EXP,38*%
%TO.N,+5V*%
X167640000Y-80010000D03*
%TO.P,EXP,37*%
X165100000Y-80010000D03*
%TO.P,EXP,36*%
%TO.N,D7*%
X167640000Y-77470000D03*
%TO.P,EXP,35*%
%TO.N,D6*%
X165100000Y-77470000D03*
%TO.P,EXP,34*%
%TO.N,D5*%
X167640000Y-74930000D03*
%TO.P,EXP,33*%
%TO.N,D4*%
X165100000Y-74930000D03*
%TO.P,EXP,32*%
%TO.N,D3*%
X167640000Y-72390000D03*
%TO.P,EXP,31*%
%TO.N,D2*%
X165100000Y-72390000D03*
%TO.P,EXP,30*%
%TO.N,D1*%
X167640000Y-69850000D03*
%TO.P,EXP,29*%
%TO.N,D0*%
X165100000Y-69850000D03*
%TO.P,EXP,28*%
%TO.N,A15*%
X167640000Y-67310000D03*
%TO.P,EXP,27*%
%TO.N,A14*%
X165100000Y-67310000D03*
%TO.P,EXP,26*%
%TO.N,A13*%
X167640000Y-64770000D03*
%TO.P,EXP,25*%
%TO.N,A12*%
X165100000Y-64770000D03*
%TO.P,EXP,24*%
%TO.N,A11*%
X167640000Y-62230000D03*
%TO.P,EXP,23*%
%TO.N,A10*%
X165100000Y-62230000D03*
%TO.P,EXP,22*%
%TO.N,A9*%
X167640000Y-59690000D03*
%TO.P,EXP,21*%
%TO.N,A8*%
X165100000Y-59690000D03*
%TO.P,EXP,20*%
%TO.N,A7*%
X167640000Y-57150000D03*
%TO.P,EXP,19*%
%TO.N,A6*%
X165100000Y-57150000D03*
%TO.P,EXP,18*%
%TO.N,A5*%
X167640000Y-54610000D03*
%TO.P,EXP,17*%
%TO.N,A4*%
X165100000Y-54610000D03*
%TO.P,EXP,16*%
%TO.N,A3*%
X167640000Y-52070000D03*
%TO.P,EXP,15*%
%TO.N,A2*%
X165100000Y-52070000D03*
%TO.P,EXP,14*%
%TO.N,A1*%
X167640000Y-49530000D03*
%TO.P,EXP,13*%
%TO.N,A0*%
X165100000Y-49530000D03*
%TO.P,EXP,12*%
%TO.N,!P_SELECT*%
X167640000Y-46990000D03*
%TO.P,EXP,11*%
%TO.N,RDY*%
X165100000Y-46990000D03*
%TO.P,EXP,10*%
%TO.N,!RESET*%
X167640000Y-44450000D03*
%TO.P,EXP,9*%
%TO.N,R!W*%
X165100000Y-44450000D03*
%TO.P,EXP,8*%
%TO.N,!WRITE*%
X167640000Y-41910000D03*
%TO.P,EXP,7*%
%TO.N,!READ*%
X165100000Y-41910000D03*
%TO.P,EXP,6*%
%TO.N,!NMI*%
X167640000Y-39370000D03*
%TO.P,EXP,5*%
%TO.N,!IRQ*%
X165100000Y-39370000D03*
%TO.P,EXP,4*%
%TO.N,PHI2*%
X167640000Y-36830000D03*
%TO.P,EXP,3*%
%TO.N,PHI1*%
X165100000Y-36830000D03*
%TO.P,EXP,2*%
%TO.N,CLK*%
X167640000Y-34290000D03*
D11*
%TO.P,EXP,1*%
%TO.N,GND*%
X165100000Y-34290000D03*
%TD*%
D12*
%TO.P,XTAL,4*%
%TO.N,GND*%
X111125000Y-81915000D03*
%TO.P,XTAL,5*%
%TO.N,CLK1*%
X118745000Y-81915000D03*
%TO.P,XTAL,8*%
%TO.N,+5V*%
X118745000Y-74295000D03*
D13*
%TO.P,XTAL,1*%
%TO.N,Net-(X1-Pad1)*%
X111125000Y-74295000D03*
%TD*%
D14*
%TO.P,DS1813,1*%
%TO.N,!RESET*%
X127000000Y-74930000D03*
D15*
%TO.P,DS1813,3*%
%TO.N,GND*%
X129540000Y-74930000D03*
%TO.P,DS1813,2*%
%TO.N,+5V*%
X128270000Y-74930000D03*
%TD*%
D16*
%TO.P,RESET,1*%
%TO.N,!RESET*%
X141755000Y-76835000D03*
%TO.P,RESET,2*%
%TO.N,GND*%
X141755000Y-81335000D03*
%TO.P,RESET,1*%
%TO.N,!RESET*%
X135255000Y-76835000D03*
%TO.P,RESET,2*%
%TO.N,GND*%
X135255000Y-81335000D03*
%TD*%
D17*
%TO.P,R3,2*%
%TO.N,!IRQ*%
X158750000Y-83185000D03*
D12*
%TO.P,R3,1*%
%TO.N,+5V*%
X148590000Y-83185000D03*
%TD*%
D17*
%TO.P,R2,2*%
%TO.N,!NMI*%
X158750000Y-79135000D03*
D12*
%TO.P,R2,1*%
%TO.N,+5V*%
X148590000Y-79135000D03*
%TD*%
D17*
%TO.P,R1,2*%
%TO.N,RDY*%
X158750000Y-75085000D03*
D12*
%TO.P,R1,1*%
%TO.N,+5V*%
X148590000Y-75085000D03*
%TD*%
D11*
%TO.P,XTAL_EN,1*%
%TO.N,CLK*%
X105410000Y-74295000D03*
D10*
%TO.P,XTAL_EN,2*%
%TO.N,CLK1*%
X102870000Y-74295000D03*
%TD*%
D12*
%TO.P,C4,2*%
%TO.N,GND*%
X151210000Y-29845000D03*
%TO.P,C4,1*%
%TO.N,+5V*%
X156210000Y-29845000D03*
%TD*%
%TO.P,C3,2*%
%TO.N,GND*%
X132160000Y-29845000D03*
%TO.P,C3,1*%
%TO.N,+5V*%
X137160000Y-29845000D03*
%TD*%
%TO.P,C2,2*%
%TO.N,GND*%
X109300000Y-29845000D03*
%TO.P,C2,1*%
%TO.N,+5V*%
X114300000Y-29845000D03*
%TD*%
%TO.P,C1,2*%
%TO.N,GND*%
X86440000Y-29845000D03*
%TO.P,C1,1*%
%TO.N,+5V*%
X91440000Y-29845000D03*
%TD*%
D17*
%TO.P,AS6C62256,28*%
%TO.N,+5V*%
X142240000Y-34290000D03*
%TO.P,AS6C62256,14*%
%TO.N,GND*%
X127000000Y-67310000D03*
%TO.P,AS6C62256,27*%
%TO.N,!WRITE*%
X142240000Y-36830000D03*
%TO.P,AS6C62256,13*%
%TO.N,D2*%
X127000000Y-64770000D03*
%TO.P,AS6C62256,26*%
%TO.N,A13*%
X142240000Y-39370000D03*
%TO.P,AS6C62256,12*%
%TO.N,D1*%
X127000000Y-62230000D03*
%TO.P,AS6C62256,25*%
%TO.N,A8*%
X142240000Y-41910000D03*
%TO.P,AS6C62256,11*%
%TO.N,D0*%
X127000000Y-59690000D03*
%TO.P,AS6C62256,24*%
%TO.N,A9*%
X142240000Y-44450000D03*
%TO.P,AS6C62256,10*%
%TO.N,A0*%
X127000000Y-57150000D03*
%TO.P,AS6C62256,23*%
%TO.N,A11*%
X142240000Y-46990000D03*
%TO.P,AS6C62256,9*%
%TO.N,A1*%
X127000000Y-54610000D03*
%TO.P,AS6C62256,22*%
%TO.N,!READ*%
X142240000Y-49530000D03*
%TO.P,AS6C62256,8*%
%TO.N,A2*%
X127000000Y-52070000D03*
%TO.P,AS6C62256,21*%
%TO.N,A10*%
X142240000Y-52070000D03*
%TO.P,AS6C62256,7*%
%TO.N,A3*%
X127000000Y-49530000D03*
%TO.P,AS6C62256,20*%
%TO.N,!RAM_SELECT*%
X142240000Y-54610000D03*
%TO.P,AS6C62256,6*%
%TO.N,A4*%
X127000000Y-46990000D03*
%TO.P,AS6C62256,19*%
%TO.N,D7*%
X142240000Y-57150000D03*
%TO.P,AS6C62256,5*%
%TO.N,A5*%
X127000000Y-44450000D03*
%TO.P,AS6C62256,18*%
%TO.N,D6*%
X142240000Y-59690000D03*
%TO.P,AS6C62256,4*%
%TO.N,A6*%
X127000000Y-41910000D03*
%TO.P,AS6C62256,17*%
%TO.N,D5*%
X142240000Y-62230000D03*
%TO.P,AS6C62256,3*%
%TO.N,A7*%
X127000000Y-39370000D03*
%TO.P,AS6C62256,16*%
%TO.N,D4*%
X142240000Y-64770000D03*
%TO.P,AS6C62256,2*%
%TO.N,A12*%
X127000000Y-36830000D03*
%TO.P,AS6C62256,15*%
%TO.N,D3*%
X142240000Y-67310000D03*
%TO.P,AS6C62256,1*%
%TO.N,A14*%
X127000000Y-34290000D03*
%TD*%
%TO.P,HC00,14*%
%TO.N,+5V*%
X157480000Y-54610000D03*
%TO.P,HC00,7*%
%TO.N,GND*%
X149860000Y-69850000D03*
%TO.P,HC00,13*%
%TO.N,!READ*%
X157480000Y-57150000D03*
%TO.P,HC00,6*%
%TO.N,!RAM_SELECT*%
X149860000Y-67310000D03*
%TO.P,HC00,12*%
%TO.N,PHI2*%
X157480000Y-59690000D03*
%TO.P,HC00,5*%
%TO.N,!ROM_SELECT*%
X149860000Y-64770000D03*
%TO.P,HC00,11*%
%TO.N,!WRITE*%
X157480000Y-62230000D03*
%TO.P,HC00,4*%
%TO.N,!P_SELECT*%
X149860000Y-62230000D03*
%TO.P,HC00,10*%
%TO.N,PHI2*%
X157480000Y-64770000D03*
%TO.P,HC00,3*%
%TO.N,!ROM_SELECT*%
X149860000Y-59690000D03*
%TO.P,HC00,9*%
%TO.N,R!W*%
X157480000Y-67310000D03*
%TO.P,HC00,2*%
%TO.N,A15*%
X149860000Y-57150000D03*
%TO.P,HC00,8*%
%TO.N,!READ*%
X157480000Y-69850000D03*
D13*
%TO.P,HC00,1*%
%TO.N,A15*%
X149860000Y-54610000D03*
%TD*%
D17*
%TO.P,HC30,14*%
%TO.N,+5V*%
X157480000Y-34290000D03*
%TO.P,HC30,7*%
%TO.N,GND*%
X149860000Y-49530000D03*
%TO.P,HC30,13*%
%TO.N,N/C*%
X157480000Y-36830000D03*
%TO.P,HC30,6*%
%TO.N,A13*%
X149860000Y-46990000D03*
%TO.P,HC30,12*%
%TO.N,!ROM_SELECT*%
X157480000Y-39370000D03*
%TO.P,HC30,5*%
%TO.N,A12*%
X149860000Y-44450000D03*
%TO.P,HC30,11*%
%TO.N,A14*%
X157480000Y-41910000D03*
%TO.P,HC30,4*%
%TO.N,A11*%
X149860000Y-41910000D03*
%TO.P,HC30,10*%
%TO.N,N/C*%
X157480000Y-44450000D03*
%TO.P,HC30,3*%
%TO.N,A10*%
X149860000Y-39370000D03*
%TO.P,HC30,9*%
%TO.N,N/C*%
X157480000Y-46990000D03*
%TO.P,HC30,2*%
%TO.N,A9*%
X149860000Y-36830000D03*
%TO.P,HC30,8*%
%TO.N,!P_SELECT*%
X157480000Y-49530000D03*
%TO.P,HC30,1*%
%TO.N,A8*%
X149860000Y-34290000D03*
%TD*%
%TO.P,28C256,28*%
%TO.N,+5V*%
X119380000Y-34290000D03*
%TO.P,28C256,14*%
%TO.N,GND*%
X104140000Y-67310000D03*
%TO.P,28C256,27*%
%TO.N,+5V*%
X119380000Y-36830000D03*
%TO.P,28C256,13*%
%TO.N,D2*%
X104140000Y-64770000D03*
%TO.P,28C256,26*%
%TO.N,A13*%
X119380000Y-39370000D03*
%TO.P,28C256,12*%
%TO.N,D1*%
X104140000Y-62230000D03*
%TO.P,28C256,25*%
%TO.N,A8*%
X119380000Y-41910000D03*
%TO.P,28C256,11*%
%TO.N,D0*%
X104140000Y-59690000D03*
%TO.P,28C256,24*%
%TO.N,A9*%
X119380000Y-44450000D03*
%TO.P,28C256,10*%
%TO.N,A0*%
X104140000Y-57150000D03*
%TO.P,28C256,23*%
%TO.N,A11*%
X119380000Y-46990000D03*
%TO.P,28C256,9*%
%TO.N,A1*%
X104140000Y-54610000D03*
%TO.P,28C256,22*%
%TO.N,!READ*%
X119380000Y-49530000D03*
%TO.P,28C256,8*%
%TO.N,A2*%
X104140000Y-52070000D03*
%TO.P,28C256,21*%
%TO.N,A10*%
X119380000Y-52070000D03*
%TO.P,28C256,7*%
%TO.N,A3*%
X104140000Y-49530000D03*
%TO.P,28C256,20*%
%TO.N,!ROM_SELECT*%
X119380000Y-54610000D03*
%TO.P,28C256,6*%
%TO.N,A4*%
X104140000Y-46990000D03*
%TO.P,28C256,19*%
%TO.N,D7*%
X119380000Y-57150000D03*
%TO.P,28C256,5*%
%TO.N,A5*%
X104140000Y-44450000D03*
%TO.P,28C256,18*%
%TO.N,D6*%
X119380000Y-59690000D03*
%TO.P,28C256,4*%
%TO.N,A6*%
X104140000Y-41910000D03*
%TO.P,28C256,17*%
%TO.N,D5*%
X119380000Y-62230000D03*
%TO.P,28C256,3*%
%TO.N,A7*%
X104140000Y-39370000D03*
%TO.P,28C256,16*%
%TO.N,D4*%
X119380000Y-64770000D03*
%TO.P,28C256,2*%
%TO.N,A12*%
X104140000Y-36830000D03*
%TO.P,28C256,15*%
%TO.N,D3*%
X119380000Y-67310000D03*
%TO.P,28C256,1*%
%TO.N,A14*%
X104140000Y-34290000D03*
%TD*%
%TO.P,W65C02S,40*%
%TO.N,!RESET*%
X96520000Y-34290000D03*
%TO.P,W65C02S,20*%
%TO.N,A11*%
X81280000Y-82550000D03*
%TO.P,W65C02S,39*%
%TO.N,PHI2*%
X96520000Y-36830000D03*
%TO.P,W65C02S,19*%
%TO.N,A10*%
X81280000Y-80010000D03*
%TO.P,W65C02S,38*%
%TO.N,+5V*%
X96520000Y-39370000D03*
%TO.P,W65C02S,18*%
%TO.N,A9*%
X81280000Y-77470000D03*
%TO.P,W65C02S,37*%
%TO.N,CLK*%
X96520000Y-41910000D03*
%TO.P,W65C02S,17*%
%TO.N,A8*%
X81280000Y-74930000D03*
%TO.P,W65C02S,36*%
%TO.N,+5V*%
X96520000Y-44450000D03*
%TO.P,W65C02S,16*%
%TO.N,A7*%
X81280000Y-72390000D03*
%TO.P,W65C02S,35*%
%TO.N,Net-(U1-Pad35)*%
X96520000Y-46990000D03*
%TO.P,W65C02S,15*%
%TO.N,A6*%
X81280000Y-69850000D03*
%TO.P,W65C02S,34*%
%TO.N,R!W*%
X96520000Y-49530000D03*
%TO.P,W65C02S,14*%
%TO.N,A5*%
X81280000Y-67310000D03*
%TO.P,W65C02S,33*%
%TO.N,D0*%
X96520000Y-52070000D03*
%TO.P,W65C02S,13*%
%TO.N,A4*%
X81280000Y-64770000D03*
%TO.P,W65C02S,32*%
%TO.N,D1*%
X96520000Y-54610000D03*
%TO.P,W65C02S,12*%
%TO.N,A3*%
X81280000Y-62230000D03*
%TO.P,W65C02S,31*%
%TO.N,D2*%
X96520000Y-57150000D03*
%TO.P,W65C02S,11*%
%TO.N,A2*%
X81280000Y-59690000D03*
%TO.P,W65C02S,30*%
%TO.N,D3*%
X96520000Y-59690000D03*
%TO.P,W65C02S,10*%
%TO.N,A1*%
X81280000Y-57150000D03*
%TO.P,W65C02S,29*%
%TO.N,D4*%
X96520000Y-62230000D03*
%TO.P,W65C02S,9*%
%TO.N,A0*%
X81280000Y-54610000D03*
%TO.P,W65C02S,28*%
%TO.N,D5*%
X96520000Y-64770000D03*
%TO.P,W65C02S,8*%
%TO.N,+5V*%
X81280000Y-52070000D03*
%TO.P,W65C02S,27*%
%TO.N,D6*%
X96520000Y-67310000D03*
%TO.P,W65C02S,7*%
%TO.N,Net-(U1-Pad7)*%
X81280000Y-49530000D03*
%TO.P,W65C02S,26*%
%TO.N,D7*%
X96520000Y-69850000D03*
%TO.P,W65C02S,6*%
%TO.N,!NMI*%
X81280000Y-46990000D03*
%TO.P,W65C02S,25*%
%TO.N,A15*%
X96520000Y-72390000D03*
%TO.P,W65C02S,5*%
%TO.N,Net-(U1-Pad5)*%
X81280000Y-44450000D03*
%TO.P,W65C02S,24*%
%TO.N,A14*%
X96520000Y-74930000D03*
%TO.P,W65C02S,4*%
%TO.N,!IRQ*%
X81280000Y-41910000D03*
%TO.P,W65C02S,23*%
%TO.N,A13*%
X96520000Y-77470000D03*
%TO.P,W65C02S,3*%
%TO.N,PHI1*%
X81280000Y-39370000D03*
%TO.P,W65C02S,22*%
%TO.N,A12*%
X96520000Y-80010000D03*
%TO.P,W65C02S,2*%
%TO.N,RDY*%
X81280000Y-36830000D03*
%TO.P,W65C02S,21*%
%TO.N,GND*%
X96520000Y-82550000D03*
%TO.P,W65C02S,1*%
%TO.N,Net-(U1-Pad1)*%
X81280000Y-34290000D03*
%TD*%
D10*
%TO.P,EXP,40*%
%TO.N,GND*%
X73660000Y-82550000D03*
%TO.P,EXP,39*%
X71120000Y-82550000D03*
%TO.P,EXP,38*%
%TO.N,+5V*%
X73660000Y-80010000D03*
%TO.P,EXP,37*%
X71120000Y-80010000D03*
%TO.P,EXP,36*%
%TO.N,D7*%
X73660000Y-77470000D03*
%TO.P,EXP,35*%
%TO.N,D6*%
X71120000Y-77470000D03*
%TO.P,EXP,34*%
%TO.N,D5*%
X73660000Y-74930000D03*
%TO.P,EXP,33*%
%TO.N,D4*%
X71120000Y-74930000D03*
%TO.P,EXP,32*%
%TO.N,D3*%
X73660000Y-72390000D03*
%TO.P,EXP,31*%
%TO.N,D2*%
X71120000Y-72390000D03*
%TO.P,EXP,30*%
%TO.N,D1*%
X73660000Y-69850000D03*
%TO.P,EXP,29*%
%TO.N,D0*%
X71120000Y-69850000D03*
%TO.P,EXP,28*%
%TO.N,A15*%
X73660000Y-67310000D03*
%TO.P,EXP,27*%
%TO.N,A14*%
X71120000Y-67310000D03*
%TO.P,EXP,26*%
%TO.N,A13*%
X73660000Y-64770000D03*
%TO.P,EXP,25*%
%TO.N,A12*%
X71120000Y-64770000D03*
%TO.P,EXP,24*%
%TO.N,A11*%
X73660000Y-62230000D03*
%TO.P,EXP,23*%
%TO.N,A10*%
X71120000Y-62230000D03*
%TO.P,EXP,22*%
%TO.N,A9*%
X73660000Y-59690000D03*
%TO.P,EXP,21*%
%TO.N,A8*%
X71120000Y-59690000D03*
%TO.P,EXP,20*%
%TO.N,A7*%
X73660000Y-57150000D03*
%TO.P,EXP,19*%
%TO.N,A6*%
X71120000Y-57150000D03*
%TO.P,EXP,18*%
%TO.N,A5*%
X73660000Y-54610000D03*
%TO.P,EXP,17*%
%TO.N,A4*%
X71120000Y-54610000D03*
%TO.P,EXP,16*%
%TO.N,A3*%
X73660000Y-52070000D03*
%TO.P,EXP,15*%
%TO.N,A2*%
X71120000Y-52070000D03*
%TO.P,EXP,14*%
%TO.N,A1*%
X73660000Y-49530000D03*
%TO.P,EXP,13*%
%TO.N,A0*%
X71120000Y-49530000D03*
%TO.P,EXP,12*%
%TO.N,!P_SELECT*%
X73660000Y-46990000D03*
%TO.P,EXP,11*%
%TO.N,RDY*%
X71120000Y-46990000D03*
%TO.P,EXP,10*%
%TO.N,!RESET*%
X73660000Y-44450000D03*
%TO.P,EXP,9*%
%TO.N,R!W*%
X71120000Y-44450000D03*
%TO.P,EXP,8*%
%TO.N,!WRITE*%
X73660000Y-41910000D03*
%TO.P,EXP,7*%
%TO.N,!READ*%
X71120000Y-41910000D03*
%TO.P,EXP,6*%
%TO.N,!NMI*%
X73660000Y-39370000D03*
%TO.P,EXP,5*%
%TO.N,!IRQ*%
X71120000Y-39370000D03*
%TO.P,EXP,4*%
%TO.N,PHI2*%
X73660000Y-36830000D03*
%TO.P,EXP,3*%
%TO.N,PHI1*%
X71120000Y-36830000D03*
%TO.P,EXP,2*%
%TO.N,CLK*%
X73660000Y-34290000D03*
%TO.P,EXP,1*%
%TO.N,GND*%
X71120000Y-34290000D03*
%TD*%
D18*
%TO.N,!READ*%
X158738900Y-52713000D03*
X160021200Y-42710800D03*
%TO.N,RDY*%
X144594800Y-76175300D03*
%TO.N,R!W*%
X163182600Y-43741500D03*
X122633400Y-27203000D03*
%TO.N,!RESET*%
X118915700Y-31562300D03*
%TO.N,PHI2*%
X160327600Y-34735000D03*
%TO.N,A14*%
X105794700Y-71207200D03*
X145586800Y-38572700D03*
%TO.N,A13*%
X88466000Y-77028400D03*
X163733700Y-47472100D03*
X107891900Y-73119700D03*
X125634200Y-38662600D03*
%TO.N,A12*%
X155355400Y-47005100D03*
%TO.N,A11*%
X112494200Y-82421500D03*
X166423200Y-43233200D03*
%TO.N,A10*%
X113705000Y-58982700D03*
%TO.N,A9*%
X108537100Y-71020100D03*
X151962800Y-54078700D03*
%TO.N,A8*%
X108756000Y-69836400D03*
X75472000Y-62195600D03*
X152628100Y-55176800D03*
%TO.N,A7*%
X76640500Y-61778300D03*
X79543300Y-57957700D03*
X105540100Y-40503200D03*
%TO.N,A6*%
X143463500Y-51276400D03*
X78024500Y-43768700D03*
%TO.N,A2*%
X161973700Y-50123000D03*
%TO.N,A1*%
X161214300Y-49461700D03*
%TO.N,A0*%
X149037100Y-50655500D03*
X97901400Y-56442600D03*
X93823600Y-55393100D03*
%TO.N,D7*%
X157217900Y-76226900D03*
X113001200Y-65515200D03*
%TO.N,D6*%
X78426600Y-77967600D03*
X113635000Y-65014600D03*
%TO.N,D4*%
X99531000Y-63787600D03*
X83833300Y-72958300D03*
%TO.N,D3*%
X100784300Y-70359100D03*
%TO.N,D2*%
X135951800Y-72390000D03*
%TO.N,D1*%
X82658700Y-66139500D03*
X148201000Y-73510900D03*
%TO.N,A15*%
X140738100Y-53746700D03*
X122860900Y-67578900D03*
%TO.N,!P_SELECT*%
X169105800Y-42540000D03*
%TD*%
D19*
%TO.N,GND*%
X104140000Y-68560300D02*
X104140000Y-70639200D01*
X104140000Y-70639200D02*
X111125000Y-77624200D01*
X111125000Y-77624200D02*
X111125000Y-81915000D01*
X149860000Y-68599700D02*
X149313000Y-68599700D01*
X149313000Y-68599700D02*
X148609600Y-67896300D01*
X148609600Y-67896300D02*
X148609600Y-52241400D01*
X148609600Y-52241400D02*
X149860000Y-50991000D01*
X149860000Y-50991000D02*
X149860000Y-50780300D01*
X149860000Y-49530000D02*
X149860000Y-50780300D01*
X149860000Y-69850000D02*
X149860000Y-68599700D01*
X109300000Y-29845000D02*
X107097000Y-32048000D01*
X107097000Y-32048000D02*
X107097000Y-64353000D01*
X107097000Y-64353000D02*
X104140000Y-67310000D01*
X165100000Y-82550000D02*
X163799700Y-82550000D01*
X141755000Y-81335000D02*
X144865800Y-84445800D01*
X144865800Y-84445800D02*
X161903900Y-84445800D01*
X161903900Y-84445800D02*
X163799700Y-82550000D01*
X129540000Y-74930000D02*
X129540000Y-76130300D01*
X135255000Y-81335000D02*
X130050300Y-76130300D01*
X130050300Y-76130300D02*
X129540000Y-76130300D01*
X104140000Y-67310000D02*
X104140000Y-68560300D01*
%TO.N,+5V*%
X157480000Y-35540300D02*
X158023900Y-35540300D01*
X158023900Y-35540300D02*
X158738900Y-36255300D01*
X158738900Y-36255300D02*
X158738900Y-51651900D01*
X158738900Y-51651900D02*
X157480000Y-52910800D01*
X157480000Y-52910800D02*
X157480000Y-53359700D01*
X119380000Y-36830000D02*
X119380000Y-38080300D01*
X118745000Y-74295000D02*
X120669600Y-72370400D01*
X120669600Y-72370400D02*
X120669600Y-38826000D01*
X120669600Y-38826000D02*
X119923900Y-38080300D01*
X119923900Y-38080300D02*
X119380000Y-38080300D01*
X81280000Y-52070000D02*
X87649700Y-52070000D01*
X87649700Y-52070000D02*
X95269700Y-44450000D01*
X142240000Y-34290000D02*
X140989700Y-34290000D01*
X140989700Y-34290000D02*
X140989700Y-33674700D01*
X140989700Y-33674700D02*
X137160000Y-29845000D01*
X119380000Y-34290000D02*
X118129700Y-34290000D01*
X118129700Y-34290000D02*
X118129700Y-33674700D01*
X118129700Y-33674700D02*
X114300000Y-29845000D01*
X119380000Y-36830000D02*
X119380000Y-34290000D01*
X148590000Y-75085000D02*
X148590000Y-79135000D01*
X96520000Y-38119700D02*
X97063900Y-38119700D01*
X97063900Y-38119700D02*
X97809600Y-37374000D01*
X97809600Y-37374000D02*
X97809600Y-33796100D01*
X97809600Y-33796100D02*
X93858500Y-29845000D01*
X93858500Y-29845000D02*
X91440000Y-29845000D01*
X96520000Y-39370000D02*
X96520000Y-38119700D01*
X157480000Y-34290000D02*
X157480000Y-35540300D01*
X157480000Y-54610000D02*
X157480000Y-53359700D01*
X157480000Y-34290000D02*
X157480000Y-33039700D01*
X157480000Y-33039700D02*
X156210000Y-31769700D01*
X156210000Y-31769700D02*
X156210000Y-29845000D01*
X96520000Y-39370000D02*
X96520000Y-40620300D01*
X95269700Y-44450000D02*
X95269700Y-41326700D01*
X95269700Y-41326700D02*
X95976100Y-40620300D01*
X95976100Y-40620300D02*
X96520000Y-40620300D01*
X95444800Y-44450000D02*
X95269700Y-44450000D01*
X96520000Y-44450000D02*
X95444800Y-44450000D01*
D20*
%TO.N,CLK*%
X118109000Y-30843100D02*
X118109000Y-31661800D01*
X118109000Y-31661800D02*
X119281900Y-32834700D01*
X119281900Y-32834700D02*
X119551100Y-32834700D01*
X119551100Y-32834700D02*
X121293500Y-34577100D01*
X121293500Y-34577100D02*
X121293500Y-74590400D01*
X121293500Y-74590400D02*
X112831900Y-83052000D01*
X112831900Y-83052000D02*
X110610800Y-83052000D01*
X110610800Y-83052000D02*
X105410000Y-77851200D01*
X105410000Y-77851200D02*
X105410000Y-74295000D01*
X166464700Y-34290000D02*
X166464700Y-33435900D01*
X166464700Y-33435900D02*
X159606500Y-26577700D01*
X159606500Y-26577700D02*
X122374400Y-26577700D01*
X122374400Y-26577700D02*
X118109000Y-30843100D01*
X98402500Y-33512200D02*
X103730700Y-28184000D01*
X103730700Y-28184000D02*
X115449900Y-28184000D01*
X115449900Y-28184000D02*
X118109000Y-30843100D01*
X98402500Y-33512200D02*
X98402500Y-40027500D01*
X98402500Y-40027500D02*
X96520000Y-41910000D01*
X74835300Y-34290000D02*
X80413900Y-28711400D01*
X80413900Y-28711400D02*
X93601700Y-28711400D01*
X93601700Y-28711400D02*
X98402500Y-33512200D01*
X73660000Y-34290000D02*
X74835300Y-34290000D01*
X167640000Y-34290000D02*
X166464700Y-34290000D01*
%TO.N,!READ*%
X158738900Y-52713000D02*
X160021200Y-51430700D01*
X160021200Y-51430700D02*
X160021200Y-42710800D01*
X158738900Y-52713000D02*
X158738900Y-55328400D01*
X158738900Y-55328400D02*
X157480000Y-56587300D01*
X157480000Y-57150000D02*
X157480000Y-56587300D01*
X157480000Y-68724700D02*
X157198700Y-68724700D01*
X157198700Y-68724700D02*
X155885200Y-67411200D01*
X155885200Y-67411200D02*
X155885200Y-59588800D01*
X155885200Y-59588800D02*
X157198700Y-58275300D01*
X157198700Y-58275300D02*
X157480000Y-58275300D01*
X157480000Y-69850000D02*
X157480000Y-68724700D01*
X157480000Y-57150000D02*
X157480000Y-58275300D01*
%TO.N,!WRITE*%
X167640000Y-41910000D02*
X166464700Y-41910000D01*
X166464700Y-41910000D02*
X166464700Y-42257500D01*
X166464700Y-42257500D02*
X165542200Y-43180000D01*
X165542200Y-43180000D02*
X164704300Y-43180000D01*
X164704300Y-43180000D02*
X162612100Y-45272200D01*
X162612100Y-45272200D02*
X162612100Y-57097900D01*
X162612100Y-57097900D02*
X157480000Y-62230000D01*
%TO.N,RDY*%
X165100000Y-46990000D02*
X165100000Y-48165300D01*
X158750000Y-75085000D02*
X158750000Y-73959700D01*
X158750000Y-73959700D02*
X164129700Y-68580000D01*
X164129700Y-68580000D02*
X168037400Y-68580000D01*
X168037400Y-68580000D02*
X168815400Y-67802000D01*
X168815400Y-67802000D02*
X168815400Y-64281200D01*
X168815400Y-64281200D02*
X168000800Y-63466600D01*
X168000800Y-63466600D02*
X167136700Y-63466600D01*
X167136700Y-63466600D02*
X166275300Y-62605200D01*
X166275300Y-62605200D02*
X166275300Y-48973200D01*
X166275300Y-48973200D02*
X165467400Y-48165300D01*
X165467400Y-48165300D02*
X165100000Y-48165300D01*
X69944700Y-46990000D02*
X69437700Y-47497000D01*
X69437700Y-47497000D02*
X69437700Y-80009100D01*
X69437700Y-80009100D02*
X70708400Y-81279800D01*
X70708400Y-81279800D02*
X71514000Y-81279800D01*
X71514000Y-81279800D02*
X72390000Y-82155800D01*
X72390000Y-82155800D02*
X72390000Y-83038800D01*
X72390000Y-83038800D02*
X75367700Y-86016500D01*
X75367700Y-86016500D02*
X134753600Y-86016500D01*
X134753600Y-86016500D02*
X144594800Y-76175300D01*
X69944700Y-46990000D02*
X69944700Y-36293100D01*
X69944700Y-36293100D02*
X70590800Y-35647000D01*
X70590800Y-35647000D02*
X78971700Y-35647000D01*
X78971700Y-35647000D02*
X80154700Y-36830000D01*
X71120000Y-46990000D02*
X69944700Y-46990000D01*
X81280000Y-36830000D02*
X80154700Y-36830000D01*
%TO.N,R!W*%
X157480000Y-66184700D02*
X157761300Y-66184700D01*
X157761300Y-66184700D02*
X163075400Y-60870600D01*
X163075400Y-60870600D02*
X163075400Y-47246100D01*
X163075400Y-47246100D02*
X164696200Y-45625300D01*
X164696200Y-45625300D02*
X165100000Y-45625300D01*
X122633400Y-27203000D02*
X156460100Y-27203000D01*
X156460100Y-27203000D02*
X163182600Y-33925500D01*
X163182600Y-33925500D02*
X163182600Y-43741500D01*
X165100000Y-44450000D02*
X165100000Y-45625300D01*
X157480000Y-67310000D02*
X157480000Y-66184700D01*
%TO.N,!IRQ*%
X158750000Y-83185000D02*
X159875300Y-83185000D01*
X165100000Y-39370000D02*
X166275300Y-39370000D01*
X166275300Y-39370000D02*
X166275300Y-39002700D01*
X166275300Y-39002700D02*
X167088100Y-38189900D01*
X167088100Y-38189900D02*
X168146800Y-38189900D01*
X168146800Y-38189900D02*
X170216100Y-40259200D01*
X170216100Y-40259200D02*
X170216100Y-76564600D01*
X170216100Y-76564600D02*
X168135400Y-78645300D01*
X168135400Y-78645300D02*
X167340400Y-78645300D01*
X167340400Y-78645300D02*
X166275400Y-79710300D01*
X166275400Y-79710300D02*
X166275400Y-80535600D01*
X166275400Y-80535600D02*
X165531000Y-81280000D01*
X165531000Y-81280000D02*
X161780300Y-81280000D01*
X161780300Y-81280000D02*
X159875300Y-83185000D01*
X81280000Y-41910000D02*
X80154700Y-41910000D01*
X71120000Y-39370000D02*
X72295300Y-39370000D01*
X72295300Y-39370000D02*
X72295300Y-39002700D01*
X72295300Y-39002700D02*
X73113700Y-38184300D01*
X73113700Y-38184300D02*
X76429000Y-38184300D01*
X76429000Y-38184300D02*
X80154700Y-41910000D01*
%TO.N,!RESET*%
X127000000Y-74930000D02*
X126149700Y-74930000D01*
X118915700Y-31562300D02*
X121743900Y-34390500D01*
X121743900Y-34390500D02*
X121743900Y-70524200D01*
X121743900Y-70524200D02*
X126149700Y-74930000D01*
X95394700Y-34290000D02*
X95394700Y-34485700D01*
X95394700Y-34485700D02*
X81714000Y-48166400D01*
X81714000Y-48166400D02*
X78551700Y-48166400D01*
X78551700Y-48166400D02*
X74835300Y-44450000D01*
X96520000Y-34290000D02*
X95394700Y-34290000D01*
X73660000Y-44450000D02*
X74835300Y-44450000D01*
%TO.N,PHI2*%
X157480000Y-59690000D02*
X160540200Y-56629800D01*
X160540200Y-56629800D02*
X160540200Y-43076200D01*
X160540200Y-43076200D02*
X160646500Y-42969900D01*
X160646500Y-42969900D02*
X160646500Y-35053900D01*
X160646500Y-35053900D02*
X160327600Y-34735000D01*
X157480000Y-64770000D02*
X157480000Y-63644700D01*
X157480000Y-59690000D02*
X157480000Y-60815300D01*
X157480000Y-60815300D02*
X157198700Y-60815300D01*
X157198700Y-60815300D02*
X156354700Y-61659300D01*
X156354700Y-61659300D02*
X156354700Y-62800800D01*
X156354700Y-62800800D02*
X157198600Y-63644700D01*
X157198600Y-63644700D02*
X157480000Y-63644700D01*
%TO.N,!RAM_SELECT*%
X149860000Y-67310000D02*
X151038000Y-68488000D01*
X151038000Y-68488000D02*
X151038000Y-70063800D01*
X151038000Y-70063800D02*
X150125500Y-70976300D01*
X150125500Y-70976300D02*
X149363000Y-70976300D01*
X149363000Y-70976300D02*
X146794900Y-68408200D01*
X146794900Y-68408200D02*
X146794900Y-60008800D01*
X146794900Y-60008800D02*
X142521400Y-55735300D01*
X142521400Y-55735300D02*
X142240000Y-55735300D01*
X142240000Y-54610000D02*
X142240000Y-55735300D01*
%TO.N,A14*%
X104140000Y-33164700D02*
X108670300Y-28634400D01*
X108670300Y-28634400D02*
X109681100Y-28634400D01*
X109681100Y-28634400D02*
X110457900Y-29411200D01*
X110457900Y-29411200D02*
X110457900Y-30487300D01*
X110457900Y-30487300D02*
X107672400Y-33272800D01*
X107672400Y-33272800D02*
X107672400Y-69329500D01*
X107672400Y-69329500D02*
X105794700Y-71207200D01*
X104140000Y-34290000D02*
X104140000Y-33164700D01*
X163924700Y-67310000D02*
X159797200Y-71437500D01*
X159797200Y-71437500D02*
X156712000Y-71437500D01*
X156712000Y-71437500D02*
X154723200Y-69448700D01*
X154723200Y-69448700D02*
X154723200Y-45551100D01*
X154723200Y-45551100D02*
X157239000Y-43035300D01*
X157239000Y-43035300D02*
X157480000Y-43035300D01*
X127000000Y-34290000D02*
X128125300Y-34290000D01*
X128125300Y-34290000D02*
X129250600Y-35415300D01*
X129250600Y-35415300D02*
X142429400Y-35415300D01*
X142429400Y-35415300D02*
X145586800Y-38572700D01*
X165100000Y-67310000D02*
X163924700Y-67310000D01*
X157480000Y-41910000D02*
X157480000Y-43035300D01*
%TO.N,A13*%
X73660000Y-65945300D02*
X74027400Y-65945300D01*
X74027400Y-65945300D02*
X74835300Y-66753200D01*
X74835300Y-66753200D02*
X74835300Y-75897500D01*
X74835300Y-75897500D02*
X80114700Y-81176900D01*
X80114700Y-81176900D02*
X80114700Y-82999100D01*
X80114700Y-82999100D02*
X80791300Y-83675700D01*
X80791300Y-83675700D02*
X81818700Y-83675700D01*
X81818700Y-83675700D02*
X88466000Y-77028400D01*
X119380000Y-40495300D02*
X119098700Y-40495300D01*
X119098700Y-40495300D02*
X108122800Y-51471200D01*
X108122800Y-51471200D02*
X108122800Y-70550000D01*
X108122800Y-70550000D02*
X107891900Y-70780900D01*
X107891900Y-70780900D02*
X107891900Y-73119700D01*
X73660000Y-64770000D02*
X73660000Y-65945300D01*
X166464700Y-64770000D02*
X166464700Y-64402600D01*
X166464700Y-64402600D02*
X165656800Y-63594700D01*
X165656800Y-63594700D02*
X164795500Y-63594700D01*
X164795500Y-63594700D02*
X163733700Y-62532900D01*
X163733700Y-62532900D02*
X163733700Y-47472100D01*
X167640000Y-64770000D02*
X166464700Y-64770000D01*
X119380000Y-39370000D02*
X119380000Y-40495300D01*
X125634200Y-38662600D02*
X125634200Y-36604200D01*
X125634200Y-36604200D02*
X126539700Y-35698700D01*
X126539700Y-35698700D02*
X127630900Y-35698700D01*
X127630900Y-35698700D02*
X131302200Y-39370000D01*
X131302200Y-39370000D02*
X142240000Y-39370000D01*
%TO.N,A12*%
X96520000Y-80010000D02*
X95394700Y-80010000D01*
X71120000Y-64770000D02*
X71120000Y-65945300D01*
X71120000Y-65945300D02*
X70752700Y-65945300D01*
X70752700Y-65945300D02*
X69939400Y-66758600D01*
X69939400Y-66758600D02*
X69939400Y-77971200D01*
X69939400Y-77971200D02*
X70726100Y-78757900D01*
X70726100Y-78757900D02*
X71559800Y-78757900D01*
X71559800Y-78757900D02*
X72484600Y-79682700D01*
X72484600Y-79682700D02*
X72484600Y-80535600D01*
X72484600Y-80535600D02*
X73229000Y-81280000D01*
X73229000Y-81280000D02*
X74127200Y-81280000D01*
X74127200Y-81280000D02*
X78352100Y-85504900D01*
X78352100Y-85504900D02*
X89899800Y-85504900D01*
X89899800Y-85504900D02*
X95394700Y-80010000D01*
X104140000Y-36830000D02*
X104140000Y-37955300D01*
X96520000Y-80010000D02*
X96520000Y-78884700D01*
X96520000Y-78884700D02*
X96801300Y-78884700D01*
X96801300Y-78884700D02*
X101690300Y-73995700D01*
X101690300Y-73995700D02*
X101690300Y-68145300D01*
X101690300Y-68145300D02*
X103795600Y-66040000D01*
X103795600Y-66040000D02*
X104496200Y-66040000D01*
X104496200Y-66040000D02*
X106188500Y-64347700D01*
X106188500Y-64347700D02*
X106188500Y-39722500D01*
X106188500Y-39722500D02*
X104421300Y-37955300D01*
X104421300Y-37955300D02*
X104140000Y-37955300D01*
X165100000Y-64770000D02*
X163924700Y-64770000D01*
X163924700Y-64770000D02*
X163924700Y-65063800D01*
X163924700Y-65063800D02*
X158001400Y-70987100D01*
X158001400Y-70987100D02*
X156989700Y-70987100D01*
X156989700Y-70987100D02*
X155355400Y-69352800D01*
X155355400Y-69352800D02*
X155355400Y-47005100D01*
X149860000Y-44450000D02*
X148734700Y-44450000D01*
X127000000Y-36830000D02*
X128125300Y-36830000D01*
X128125300Y-36830000D02*
X139415600Y-48120300D01*
X139415600Y-48120300D02*
X145064400Y-48120300D01*
X145064400Y-48120300D02*
X148734700Y-44450000D01*
%TO.N,A11*%
X73660000Y-63405300D02*
X73971600Y-63405300D01*
X73971600Y-63405300D02*
X75658900Y-65092600D01*
X75658900Y-65092600D02*
X75658900Y-76084200D01*
X75658900Y-76084200D02*
X80999400Y-81424700D01*
X80999400Y-81424700D02*
X81280000Y-81424700D01*
X119380000Y-46990000D02*
X119380000Y-48115300D01*
X119380000Y-48115300D02*
X119098700Y-48115300D01*
X119098700Y-48115300D02*
X112375800Y-54838200D01*
X112375800Y-54838200D02*
X112375800Y-82303100D01*
X112375800Y-82303100D02*
X112494200Y-82421500D01*
X81280000Y-82550000D02*
X81280000Y-81424700D01*
X73660000Y-62230000D02*
X73660000Y-63405300D01*
X167640000Y-62230000D02*
X167640000Y-61054700D01*
X167640000Y-61054700D02*
X168007300Y-61054700D01*
X168007300Y-61054700D02*
X168820900Y-60241100D01*
X168820900Y-60241100D02*
X168820900Y-49027300D01*
X168820900Y-49027300D02*
X167959000Y-48165400D01*
X167959000Y-48165400D02*
X167150600Y-48165400D01*
X167150600Y-48165400D02*
X166423200Y-47438000D01*
X166423200Y-47438000D02*
X166423200Y-43233200D01*
X149860000Y-41910000D02*
X148734700Y-41910000D01*
X148734700Y-41910000D02*
X143654700Y-46990000D01*
X143654700Y-46990000D02*
X142240000Y-46990000D01*
%TO.N,A10*%
X149860000Y-40495300D02*
X150141400Y-40495300D01*
X150141400Y-40495300D02*
X150985300Y-41339200D01*
X150985300Y-41339200D02*
X150985300Y-44995200D01*
X150985300Y-44995200D02*
X150260500Y-45720000D01*
X150260500Y-45720000D02*
X149535400Y-45720000D01*
X149535400Y-45720000D02*
X144133900Y-51121500D01*
X144133900Y-51121500D02*
X144133900Y-51505200D01*
X144133900Y-51505200D02*
X143569100Y-52070000D01*
X143569100Y-52070000D02*
X143365300Y-52070000D01*
X119380000Y-52070000D02*
X119380000Y-53195300D01*
X113705000Y-58982700D02*
X113705000Y-58589000D01*
X113705000Y-58589000D02*
X119098700Y-53195300D01*
X119098700Y-53195300D02*
X119380000Y-53195300D01*
X149860000Y-39370000D02*
X149860000Y-40495300D01*
X142240000Y-52070000D02*
X143365300Y-52070000D01*
%TO.N,A9*%
X119380000Y-45575300D02*
X119098700Y-45575300D01*
X119098700Y-45575300D02*
X109852500Y-54821500D01*
X109852500Y-54821500D02*
X109852500Y-69704700D01*
X109852500Y-69704700D02*
X108537100Y-71020100D01*
X81280000Y-76344700D02*
X81075500Y-76344700D01*
X81075500Y-76344700D02*
X76258000Y-71527200D01*
X76258000Y-71527200D02*
X76258000Y-63947200D01*
X76258000Y-63947200D02*
X74835300Y-62524500D01*
X74835300Y-62524500D02*
X74835300Y-61673200D01*
X74835300Y-61673200D02*
X74027400Y-60865300D01*
X74027400Y-60865300D02*
X73660000Y-60865300D01*
X119380000Y-44450000D02*
X119380000Y-45575300D01*
X149860000Y-37288200D02*
X151962800Y-39391000D01*
X151962800Y-39391000D02*
X151962800Y-54078700D01*
X149860000Y-36830000D02*
X149860000Y-37288200D01*
X149860000Y-37392600D02*
X149860000Y-37955300D01*
X149860000Y-37392600D02*
X149860000Y-37288200D01*
X142240000Y-44450000D02*
X143365300Y-44450000D01*
X143365300Y-44450000D02*
X143365300Y-44168700D01*
X143365300Y-44168700D02*
X149578700Y-37955300D01*
X149578700Y-37955300D02*
X149860000Y-37955300D01*
X81280000Y-77470000D02*
X81280000Y-76344700D01*
X73660000Y-59690000D02*
X73660000Y-60865300D01*
%TO.N,A8*%
X108756000Y-69836400D02*
X108756000Y-53455000D01*
X108756000Y-53455000D02*
X119175700Y-43035300D01*
X119175700Y-43035300D02*
X119380000Y-43035300D01*
X149860000Y-34852600D02*
X152628100Y-37620700D01*
X152628100Y-37620700D02*
X152628100Y-55176800D01*
X81280000Y-73804700D02*
X81075500Y-73804700D01*
X81075500Y-73804700D02*
X77074500Y-69803700D01*
X77074500Y-69803700D02*
X77074500Y-63798100D01*
X77074500Y-63798100D02*
X75472000Y-62195600D01*
X119380000Y-41910000D02*
X119380000Y-43035300D01*
X143365300Y-41910000D02*
X143365300Y-41678600D01*
X143365300Y-41678600D02*
X149628500Y-35415400D01*
X149628500Y-35415400D02*
X149628500Y-35415300D01*
X149628500Y-35415300D02*
X149860000Y-35415300D01*
X81280000Y-74930000D02*
X81280000Y-73804700D01*
X149860000Y-34852600D02*
X149860000Y-35415300D01*
X149860000Y-34290000D02*
X149860000Y-34852600D01*
X142240000Y-41910000D02*
X143365300Y-41910000D01*
%TO.N,A7*%
X81280000Y-72390000D02*
X81280000Y-71264700D01*
X76640500Y-61778300D02*
X77524900Y-62662700D01*
X77524900Y-62662700D02*
X77524900Y-67790900D01*
X77524900Y-67790900D02*
X80998700Y-71264700D01*
X80998700Y-71264700D02*
X81280000Y-71264700D01*
X104140000Y-39897200D02*
X104746000Y-40503200D01*
X104746000Y-40503200D02*
X105540100Y-40503200D01*
X104140000Y-39897200D02*
X98317200Y-45720000D01*
X98317200Y-45720000D02*
X96193900Y-45720000D01*
X96193900Y-45720000D02*
X83628100Y-58285800D01*
X83628100Y-58285800D02*
X79871400Y-58285800D01*
X79871400Y-58285800D02*
X79543300Y-57957700D01*
X104140000Y-39370000D02*
X104140000Y-39897200D01*
%TO.N,A6*%
X128125300Y-41910000D02*
X136870700Y-50655400D01*
X136870700Y-50655400D02*
X142923700Y-50655400D01*
X142923700Y-50655400D02*
X143504100Y-51235800D01*
X143504100Y-51235800D02*
X143463500Y-51276400D01*
X127000000Y-41910000D02*
X128125300Y-41910000D01*
X71120000Y-55974700D02*
X70752700Y-55974700D01*
X70752700Y-55974700D02*
X69888100Y-55110100D01*
X69888100Y-55110100D02*
X69888100Y-49049600D01*
X69888100Y-49049600D02*
X70593200Y-48344500D01*
X70593200Y-48344500D02*
X71429700Y-48344500D01*
X71429700Y-48344500D02*
X72390000Y-47384200D01*
X72390000Y-47384200D02*
X72390000Y-44055200D01*
X72390000Y-44055200D02*
X73188400Y-43256800D01*
X73188400Y-43256800D02*
X77512600Y-43256800D01*
X77512600Y-43256800D02*
X78024500Y-43768700D01*
X81280000Y-68724700D02*
X81075500Y-68724700D01*
X81075500Y-68724700D02*
X78337000Y-65986200D01*
X78337000Y-65986200D02*
X78337000Y-62590400D01*
X78337000Y-62590400D02*
X74071900Y-58325300D01*
X74071900Y-58325300D02*
X72770400Y-58325300D01*
X72770400Y-58325300D02*
X71120000Y-56674900D01*
X81280000Y-69850000D02*
X81280000Y-68724700D01*
X71120000Y-56674900D02*
X71120000Y-55974700D01*
X71120000Y-57150000D02*
X71120000Y-56674900D01*
%TO.N,A5*%
X104140000Y-44450000D02*
X103014700Y-44450000D01*
X81280000Y-66361600D02*
X95127800Y-52513800D01*
X95127800Y-52513800D02*
X95127800Y-51821600D01*
X95127800Y-51821600D02*
X96242700Y-50706700D01*
X96242700Y-50706700D02*
X97039300Y-50706700D01*
X97039300Y-50706700D02*
X103014700Y-44731300D01*
X103014700Y-44731300D02*
X103014700Y-44450000D01*
X73660000Y-55785300D02*
X74027300Y-55785300D01*
X74027300Y-55785300D02*
X78994000Y-60752000D01*
X78994000Y-60752000D02*
X78994000Y-64075600D01*
X78994000Y-64075600D02*
X81280000Y-66361600D01*
X81280000Y-66747300D02*
X81280000Y-66361600D01*
X81280000Y-67310000D02*
X81280000Y-66851800D01*
X81280000Y-66747300D02*
X81280000Y-66851800D01*
X73660000Y-54610000D02*
X73660000Y-55785300D01*
%TO.N,A4*%
X104140000Y-46990000D02*
X104140000Y-45864700D01*
X81280000Y-63926000D02*
X95019300Y-50186700D01*
X95019300Y-50186700D02*
X95019300Y-49373100D01*
X95019300Y-49373100D02*
X96132400Y-48260000D01*
X96132400Y-48260000D02*
X97351000Y-48260000D01*
X97351000Y-48260000D02*
X102286900Y-43324100D01*
X102286900Y-43324100D02*
X104606200Y-43324100D01*
X104606200Y-43324100D02*
X105265300Y-43983200D01*
X105265300Y-43983200D02*
X105265300Y-45020800D01*
X105265300Y-45020800D02*
X104421400Y-45864700D01*
X104421400Y-45864700D02*
X104140000Y-45864700D01*
X81280000Y-63926000D02*
X81280000Y-63644700D01*
X81280000Y-64770000D02*
X81280000Y-63926000D01*
X71120000Y-54610000D02*
X72295300Y-54610000D01*
X72295300Y-54610000D02*
X72295300Y-54242700D01*
X72295300Y-54242700D02*
X73143300Y-53394700D01*
X73143300Y-53394700D02*
X74112500Y-53394700D01*
X74112500Y-53394700D02*
X74940800Y-54223000D01*
X74940800Y-54223000D02*
X74940800Y-54991400D01*
X74940800Y-54991400D02*
X79667500Y-59718100D01*
X79667500Y-59718100D02*
X79667500Y-62313500D01*
X79667500Y-62313500D02*
X80998700Y-63644700D01*
X80998700Y-63644700D02*
X81280000Y-63644700D01*
%TO.N,A3*%
X73660000Y-52070000D02*
X78883300Y-57293300D01*
X78883300Y-57293300D02*
X78883300Y-58297000D01*
X78883300Y-58297000D02*
X80154700Y-59568400D01*
X80154700Y-59568400D02*
X80154700Y-60172200D01*
X80154700Y-60172200D02*
X81087200Y-61104700D01*
X81087200Y-61104700D02*
X81280000Y-61104700D01*
X81280000Y-62230000D02*
X81280000Y-61104700D01*
%TO.N,A2*%
X127000000Y-50944700D02*
X127281300Y-50944700D01*
X127281300Y-50944700D02*
X128144200Y-50081800D01*
X128144200Y-50081800D02*
X128144200Y-46507800D01*
X128144200Y-46507800D02*
X127356400Y-45720000D01*
X127356400Y-45720000D02*
X126615400Y-45720000D01*
X126615400Y-45720000D02*
X124543600Y-43648200D01*
X124543600Y-43648200D02*
X124543600Y-34486500D01*
X124543600Y-34486500D02*
X130789300Y-28240800D01*
X130789300Y-28240800D02*
X156837700Y-28240800D01*
X156837700Y-28240800D02*
X161973700Y-33376800D01*
X161973700Y-33376800D02*
X161973700Y-50123000D01*
X127000000Y-52070000D02*
X127000000Y-50944700D01*
%TO.N,A1*%
X127000000Y-53484700D02*
X127281300Y-53484700D01*
X127281300Y-53484700D02*
X128594600Y-52171400D01*
X128594600Y-52171400D02*
X128594600Y-44415100D01*
X128594600Y-44415100D02*
X127359500Y-43180000D01*
X127359500Y-43180000D02*
X126617000Y-43180000D01*
X126617000Y-43180000D02*
X124993900Y-41556900D01*
X124993900Y-41556900D02*
X124993900Y-34673100D01*
X124993900Y-34673100D02*
X130975900Y-28691100D01*
X130975900Y-28691100D02*
X156651100Y-28691100D01*
X156651100Y-28691100D02*
X161214300Y-33254300D01*
X161214300Y-33254300D02*
X161214300Y-49461700D01*
X127000000Y-54610000D02*
X127000000Y-53484700D01*
X81280000Y-57150000D02*
X81280000Y-56024700D01*
X73660000Y-49530000D02*
X74835300Y-49530000D01*
X74835300Y-49530000D02*
X74835300Y-49861300D01*
X74835300Y-49861300D02*
X80998700Y-56024700D01*
X80998700Y-56024700D02*
X81280000Y-56024700D01*
%TO.N,A0*%
X71120000Y-49530000D02*
X72295300Y-49530000D01*
X72295300Y-49530000D02*
X72295300Y-49162700D01*
X72295300Y-49162700D02*
X73113700Y-48344300D01*
X73113700Y-48344300D02*
X75014300Y-48344300D01*
X75014300Y-48344300D02*
X81280000Y-54610000D01*
X127000000Y-57150000D02*
X128125300Y-57150000D01*
X128125300Y-57150000D02*
X132154100Y-53121200D01*
X132154100Y-53121200D02*
X141348400Y-53121200D01*
X141348400Y-53121200D02*
X141441400Y-53214200D01*
X141441400Y-53214200D02*
X146478400Y-53214200D01*
X146478400Y-53214200D02*
X149037100Y-50655500D01*
X93823600Y-55393100D02*
X94165900Y-55735400D01*
X94165900Y-55735400D02*
X97194200Y-55735400D01*
X97194200Y-55735400D02*
X97901400Y-56442600D01*
%TO.N,D7*%
X113001200Y-65515200D02*
X113001200Y-64448000D01*
X113001200Y-64448000D02*
X119173900Y-58275300D01*
X119173900Y-58275300D02*
X119380000Y-58275300D01*
X73660000Y-77470000D02*
X79214000Y-83024000D01*
X79214000Y-83024000D02*
X79214000Y-83372200D01*
X79214000Y-83372200D02*
X80431600Y-84589800D01*
X80431600Y-84589800D02*
X82502000Y-84589800D01*
X82502000Y-84589800D02*
X96116500Y-70975300D01*
X96116500Y-70975300D02*
X96520000Y-70975300D01*
X96520000Y-69850000D02*
X96520000Y-70975300D01*
X157217900Y-76226900D02*
X153906900Y-76226900D01*
X153906900Y-76226900D02*
X145893100Y-68213100D01*
X145893100Y-68213100D02*
X145893100Y-61647100D01*
X145893100Y-61647100D02*
X142521300Y-58275300D01*
X142521300Y-58275300D02*
X142240000Y-58275300D01*
X142240000Y-57150000D02*
X142240000Y-58275300D01*
X119380000Y-57150000D02*
X119380000Y-58275300D01*
%TO.N,D6*%
X96520000Y-67310000D02*
X95394700Y-67310000D01*
X78426600Y-77967600D02*
X79102400Y-78643400D01*
X79102400Y-78643400D02*
X84061300Y-78643400D01*
X84061300Y-78643400D02*
X95394700Y-67310000D01*
X142240000Y-60815300D02*
X141958700Y-60815300D01*
X141958700Y-60815300D02*
X141114600Y-61659400D01*
X141114600Y-61659400D02*
X141114600Y-65242100D01*
X141114600Y-65242100D02*
X141912500Y-66040000D01*
X141912500Y-66040000D02*
X142604800Y-66040000D01*
X142604800Y-66040000D02*
X143794400Y-67229600D01*
X143794400Y-67229600D02*
X143794400Y-68098400D01*
X143794400Y-68098400D02*
X153448800Y-77752800D01*
X153448800Y-77752800D02*
X163641900Y-77752800D01*
X163641900Y-77752800D02*
X163924700Y-77470000D01*
X119380000Y-59690000D02*
X114055400Y-65014600D01*
X114055400Y-65014600D02*
X113635000Y-65014600D01*
X165100000Y-77470000D02*
X163924700Y-77470000D01*
X142240000Y-59690000D02*
X142240000Y-60815300D01*
%TO.N,D5*%
X73660000Y-76105300D02*
X74045600Y-76105300D01*
X74045600Y-76105300D02*
X79664300Y-81724000D01*
X79664300Y-81724000D02*
X79664300Y-83185600D01*
X79664300Y-83185600D02*
X80604800Y-84126100D01*
X80604800Y-84126100D02*
X82252700Y-84126100D01*
X82252700Y-84126100D02*
X89091300Y-77287500D01*
X89091300Y-77287500D02*
X89091300Y-75678200D01*
X89091300Y-75678200D02*
X96189500Y-68580000D01*
X96189500Y-68580000D02*
X96841800Y-68580000D01*
X96841800Y-68580000D02*
X97645300Y-67776500D01*
X97645300Y-67776500D02*
X97645300Y-66739200D01*
X97645300Y-66739200D02*
X96801400Y-65895300D01*
X96801400Y-65895300D02*
X96520000Y-65895300D01*
X142240000Y-63355300D02*
X142521300Y-63355300D01*
X142521300Y-63355300D02*
X145442700Y-66276700D01*
X145442700Y-66276700D02*
X145442700Y-68399700D01*
X145442700Y-68399700D02*
X153895200Y-76852200D01*
X153895200Y-76852200D02*
X159751600Y-76852200D01*
X159751600Y-76852200D02*
X162878500Y-73725300D01*
X162878500Y-73725300D02*
X165627300Y-73725300D01*
X165627300Y-73725300D02*
X166464700Y-74562700D01*
X166464700Y-74562700D02*
X166464700Y-74930000D01*
X96520000Y-64770000D02*
X96520000Y-65895300D01*
X73660000Y-74930000D02*
X73660000Y-76105300D01*
X142240000Y-62230000D02*
X142240000Y-63355300D01*
X167640000Y-74930000D02*
X166464700Y-74930000D01*
%TO.N,D4*%
X97645300Y-62230000D02*
X99202900Y-63787600D01*
X99202900Y-63787600D02*
X99531000Y-63787600D01*
X142240000Y-64770000D02*
X144992400Y-67522400D01*
X144992400Y-67522400D02*
X144992400Y-68591300D01*
X144992400Y-68591300D02*
X153703600Y-77302500D01*
X153703600Y-77302500D02*
X161552200Y-77302500D01*
X161552200Y-77302500D02*
X163924700Y-74930000D01*
X96520000Y-62230000D02*
X97645300Y-62230000D01*
X83833300Y-72958300D02*
X94561600Y-62230000D01*
X94561600Y-62230000D02*
X96520000Y-62230000D01*
X165100000Y-74930000D02*
X163924700Y-74930000D01*
%TO.N,D3*%
X96520000Y-59690000D02*
X96520000Y-60815300D01*
X96520000Y-60815300D02*
X97504600Y-60815300D01*
X97504600Y-60815300D02*
X100784300Y-64095000D01*
X100784300Y-64095000D02*
X100784300Y-70359100D01*
%TO.N,D2*%
X127000000Y-64770000D02*
X128331800Y-64770000D01*
X128331800Y-64770000D02*
X135951800Y-72390000D01*
X104140000Y-64770000D02*
X104140000Y-63644700D01*
X96520000Y-57150000D02*
X97645300Y-57150000D01*
X97645300Y-57150000D02*
X97645300Y-57431300D01*
X97645300Y-57431300D02*
X103858700Y-63644700D01*
X103858700Y-63644700D02*
X104140000Y-63644700D01*
%TO.N,D1*%
X96520000Y-54610000D02*
X93722400Y-54610000D01*
X93722400Y-54610000D02*
X82658700Y-65673700D01*
X82658700Y-65673700D02*
X82658700Y-66139500D01*
X104140000Y-61104700D02*
X103765700Y-61104700D01*
X103765700Y-61104700D02*
X97645300Y-54984300D01*
X97645300Y-54984300D02*
X97645300Y-54610000D01*
X127000000Y-62230000D02*
X128125300Y-62230000D01*
X128125300Y-62230000D02*
X139406200Y-73510900D01*
X139406200Y-73510900D02*
X148201000Y-73510900D01*
X104140000Y-62230000D02*
X104140000Y-61104700D01*
X96520000Y-54610000D02*
X97645300Y-54610000D01*
%TO.N,D0*%
X103014700Y-59690000D02*
X103014700Y-59321300D01*
X103014700Y-59321300D02*
X96888700Y-53195300D01*
X96888700Y-53195300D02*
X96520000Y-53195300D01*
X96520000Y-52070000D02*
X96520000Y-53195300D01*
X104140000Y-59690000D02*
X103014700Y-59690000D01*
%TO.N,!NMI*%
X167640000Y-40545300D02*
X168007300Y-40545300D01*
X168007300Y-40545300D02*
X169765700Y-42303700D01*
X169765700Y-42303700D02*
X169765700Y-74466700D01*
X169765700Y-74466700D02*
X167937800Y-76294600D01*
X167937800Y-76294600D02*
X167114400Y-76294600D01*
X167114400Y-76294600D02*
X166275400Y-77133600D01*
X166275400Y-77133600D02*
X166275400Y-77995600D01*
X166275400Y-77995600D02*
X165602400Y-78668600D01*
X165602400Y-78668600D02*
X160341700Y-78668600D01*
X160341700Y-78668600D02*
X159875300Y-79135000D01*
X81280000Y-46990000D02*
X81280000Y-45864700D01*
X73660000Y-39370000D02*
X74835300Y-39370000D01*
X74835300Y-39370000D02*
X74835300Y-39659900D01*
X74835300Y-39659900D02*
X81040100Y-45864700D01*
X81040100Y-45864700D02*
X81280000Y-45864700D01*
X158750000Y-79135000D02*
X159875300Y-79135000D01*
X167640000Y-39370000D02*
X167640000Y-40545300D01*
%TO.N,A15*%
X73660000Y-68485300D02*
X73292700Y-68485300D01*
X73292700Y-68485300D02*
X72470400Y-69307600D01*
X72470400Y-69307600D02*
X72470400Y-77981400D01*
X72470400Y-77981400D02*
X73229000Y-78740000D01*
X73229000Y-78740000D02*
X74116300Y-78740000D01*
X74116300Y-78740000D02*
X78763600Y-83387300D01*
X78763600Y-83387300D02*
X78763600Y-83558700D01*
X78763600Y-83558700D02*
X80245100Y-85040200D01*
X80245100Y-85040200D02*
X82744500Y-85040200D01*
X82744500Y-85040200D02*
X95394700Y-72390000D01*
X96520000Y-72390000D02*
X95394700Y-72390000D01*
X73660000Y-67310000D02*
X73660000Y-68485300D01*
X122860900Y-67578900D02*
X122860900Y-64771600D01*
X122860900Y-64771600D02*
X126598600Y-61033900D01*
X126598600Y-61033900D02*
X133450900Y-61033900D01*
X133450900Y-61033900D02*
X140738100Y-53746700D01*
X149860000Y-54610000D02*
X149860000Y-57150000D01*
%TO.N,CLK1*%
X102870000Y-75470300D02*
X102870000Y-76027600D01*
X102870000Y-76027600D02*
X110344700Y-83502300D01*
X110344700Y-83502300D02*
X117157700Y-83502300D01*
X117157700Y-83502300D02*
X118745000Y-81915000D01*
X102870000Y-74295000D02*
X102870000Y-75470300D01*
%TO.N,!ROM_SELECT*%
X149860000Y-59690000D02*
X149860000Y-58564700D01*
X157480000Y-39370000D02*
X157480000Y-40495300D01*
X157480000Y-40495300D02*
X157198700Y-40495300D01*
X157198700Y-40495300D02*
X153290500Y-44403500D01*
X153290500Y-44403500D02*
X153290500Y-55415500D01*
X153290500Y-55415500D02*
X150141300Y-58564700D01*
X150141300Y-58564700D02*
X149860000Y-58564700D01*
%TO.N,!P_SELECT*%
X167640000Y-45814700D02*
X168007300Y-45814700D01*
X168007300Y-45814700D02*
X169105800Y-44716200D01*
X169105800Y-44716200D02*
X169105800Y-42540000D01*
X167640000Y-46990000D02*
X167640000Y-45814700D01*
X167640000Y-46990000D02*
X169271300Y-48621300D01*
X169271300Y-48621300D02*
X169271300Y-69928200D01*
X169271300Y-69928200D02*
X168079500Y-71120000D01*
X168079500Y-71120000D02*
X164669800Y-71120000D01*
X164669800Y-71120000D02*
X159561900Y-76227900D01*
X159561900Y-76227900D02*
X158293800Y-76227900D01*
X158293800Y-76227900D02*
X151969900Y-69904000D01*
X151969900Y-69904000D02*
X151969900Y-65183900D01*
X151969900Y-65183900D02*
X150141300Y-63355300D01*
X150141300Y-63355300D02*
X149860000Y-63355300D01*
X149860000Y-62230000D02*
X149860000Y-63355300D01*
%TD*%
M02*
