%TF.GenerationSoftware,KiCad,Pcbnew,(5.1.8)-1*%
%TF.CreationDate,2020-12-26T15:35:11+00:00*%
%TF.ProjectId,computer,636f6d70-7574-4657-922e-6b696361645f,rev?*%
%TF.SameCoordinates,Original*%
%TF.FileFunction,Legend,Bot*%
%TF.FilePolarity,Positive*%
%FSLAX46Y46*%
G04 Gerber Fmt 4.6, Leading zero omitted, Abs format (unit mm)*
G04 Created by KiCad (PCBNEW (5.1.8)-1) date 2020-12-26 15:35:11*
%MOMM*%
%LPD*%
G01*
G04 APERTURE LIST*
%ADD10C,0.100000*%
G04 APERTURE END LIST*
D10*
X170989047Y-26122380D02*
X170989047Y-26836666D01*
X171036666Y-26979523D01*
X171131904Y-27074761D01*
X171274761Y-27122380D01*
X171370000Y-27122380D01*
X170036666Y-27122380D02*
X170512857Y-27122380D01*
X170512857Y-26122380D01*
X169131904Y-27027142D02*
X169179523Y-27074761D01*
X169322380Y-27122380D01*
X169417619Y-27122380D01*
X169560476Y-27074761D01*
X169655714Y-26979523D01*
X169703333Y-26884285D01*
X169750952Y-26693809D01*
X169750952Y-26550952D01*
X169703333Y-26360476D01*
X169655714Y-26265238D01*
X169560476Y-26170000D01*
X169417619Y-26122380D01*
X169322380Y-26122380D01*
X169179523Y-26170000D01*
X169131904Y-26217619D01*
X168417619Y-26122380D02*
X168417619Y-26836666D01*
X168465238Y-26979523D01*
X168560476Y-27074761D01*
X168703333Y-27122380D01*
X168798571Y-27122380D01*
X167465238Y-27122380D02*
X167941428Y-27122380D01*
X167941428Y-26122380D01*
X166560476Y-27027142D02*
X166608095Y-27074761D01*
X166750952Y-27122380D01*
X166846190Y-27122380D01*
X166989047Y-27074761D01*
X167084285Y-26979523D01*
X167131904Y-26884285D01*
X167179523Y-26693809D01*
X167179523Y-26550952D01*
X167131904Y-26360476D01*
X167084285Y-26265238D01*
X166989047Y-26170000D01*
X166846190Y-26122380D01*
X166750952Y-26122380D01*
X166608095Y-26170000D01*
X166560476Y-26217619D01*
X165846190Y-26122380D02*
X165846190Y-26836666D01*
X165893809Y-26979523D01*
X165989047Y-27074761D01*
X166131904Y-27122380D01*
X166227142Y-27122380D01*
X164893809Y-27122380D02*
X165370000Y-27122380D01*
X165370000Y-26122380D01*
X163989047Y-27027142D02*
X164036666Y-27074761D01*
X164179523Y-27122380D01*
X164274761Y-27122380D01*
X164417619Y-27074761D01*
X164512857Y-26979523D01*
X164560476Y-26884285D01*
X164608095Y-26693809D01*
X164608095Y-26550952D01*
X164560476Y-26360476D01*
X164512857Y-26265238D01*
X164417619Y-26170000D01*
X164274761Y-26122380D01*
X164179523Y-26122380D01*
X164036666Y-26170000D01*
X163989047Y-26217619D01*
X163274761Y-26122380D02*
X163274761Y-26836666D01*
X163322380Y-26979523D01*
X163417619Y-27074761D01*
X163560476Y-27122380D01*
X163655714Y-27122380D01*
X162322380Y-27122380D02*
X162798571Y-27122380D01*
X162798571Y-26122380D01*
X161417619Y-27027142D02*
X161465238Y-27074761D01*
X161608095Y-27122380D01*
X161703333Y-27122380D01*
X161846190Y-27074761D01*
X161941428Y-26979523D01*
X161989047Y-26884285D01*
X162036666Y-26693809D01*
X162036666Y-26550952D01*
X161989047Y-26360476D01*
X161941428Y-26265238D01*
X161846190Y-26170000D01*
X161703333Y-26122380D01*
X161608095Y-26122380D01*
X161465238Y-26170000D01*
X161417619Y-26217619D01*
M02*
