%TF.GenerationSoftware,KiCad,Pcbnew,5.1.9-73d0e3b20d~88~ubuntu20.04.1*%
%TF.CreationDate,2021-01-16T15:58:39+00:00*%
%TF.ProjectId,main-board,6d61696e-2d62-46f6-9172-642e6b696361,rev?*%
%TF.SameCoordinates,Original*%
%TF.FileFunction,Legend,Top*%
%TF.FilePolarity,Positive*%
%FSLAX46Y46*%
G04 Gerber Fmt 4.6, Leading zero omitted, Abs format (unit mm)*
G04 Created by KiCad (PCBNEW 5.1.9-73d0e3b20d~88~ubuntu20.04.1) date 2021-01-16 15:58:39*
%MOMM*%
%LPD*%
G01*
G04 APERTURE LIST*
%ADD10C,0.120000*%
%ADD11C,0.150000*%
G04 APERTURE END LIST*
D10*
%TO.C,U3*%
X133620000Y-32960000D02*
X128160000Y-32960000D01*
X128160000Y-32960000D02*
X128160000Y-68640000D01*
X128160000Y-68640000D02*
X141080000Y-68640000D01*
X141080000Y-68640000D02*
X141080000Y-32960000D01*
X141080000Y-32960000D02*
X135620000Y-32960000D01*
X125670000Y-32900000D02*
X125670000Y-68700000D01*
X125670000Y-68700000D02*
X143570000Y-68700000D01*
X143570000Y-68700000D02*
X143570000Y-32900000D01*
X143570000Y-32900000D02*
X125670000Y-32900000D01*
X135620000Y-32960000D02*
G75*
G02*
X133620000Y-32960000I-1000000J0D01*
G01*
%TO.C,U2*%
X110760000Y-32960000D02*
X105300000Y-32960000D01*
X105300000Y-32960000D02*
X105300000Y-73720000D01*
X105300000Y-73720000D02*
X118220000Y-73720000D01*
X118220000Y-73720000D02*
X118220000Y-32960000D01*
X118220000Y-32960000D02*
X112760000Y-32960000D01*
X102810000Y-32900000D02*
X102810000Y-73780000D01*
X102810000Y-73780000D02*
X120710000Y-73780000D01*
X120710000Y-73780000D02*
X120710000Y-32900000D01*
X120710000Y-32900000D02*
X102810000Y-32900000D01*
X112760000Y-32960000D02*
G75*
G02*
X110760000Y-32960000I-1000000J0D01*
G01*
%TO.C,U4*%
X158810000Y-32900000D02*
X148530000Y-32900000D01*
X158810000Y-50920000D02*
X158810000Y-32900000D01*
X148530000Y-50920000D02*
X158810000Y-50920000D01*
X148530000Y-32900000D02*
X148530000Y-50920000D01*
X156320000Y-32960000D02*
X154670000Y-32960000D01*
X156320000Y-50860000D02*
X156320000Y-32960000D01*
X151020000Y-50860000D02*
X156320000Y-50860000D01*
X151020000Y-32960000D02*
X151020000Y-50860000D01*
X152670000Y-32960000D02*
X151020000Y-32960000D01*
X154670000Y-32960000D02*
G75*
G02*
X152670000Y-32960000I-1000000J0D01*
G01*
%TO.C,R3*%
X157710000Y-83185000D02*
X156940000Y-83185000D01*
X149630000Y-83185000D02*
X150400000Y-83185000D01*
X156940000Y-81815000D02*
X150400000Y-81815000D01*
X156940000Y-84555000D02*
X156940000Y-81815000D01*
X150400000Y-84555000D02*
X156940000Y-84555000D01*
X150400000Y-81815000D02*
X150400000Y-84555000D01*
%TO.C,R1*%
X157710000Y-75565000D02*
X156940000Y-75565000D01*
X149630000Y-75565000D02*
X150400000Y-75565000D01*
X156940000Y-74195000D02*
X150400000Y-74195000D01*
X156940000Y-76935000D02*
X156940000Y-74195000D01*
X150400000Y-76935000D02*
X156940000Y-76935000D01*
X150400000Y-74195000D02*
X150400000Y-76935000D01*
%TO.C,C4*%
X156750000Y-30135000D02*
X156750000Y-30580000D01*
X156750000Y-27840000D02*
X156750000Y-28285000D01*
X150510000Y-30135000D02*
X150510000Y-30580000D01*
X150510000Y-27840000D02*
X150510000Y-28285000D01*
X150510000Y-30580000D02*
X156750000Y-30580000D01*
X150510000Y-27840000D02*
X156750000Y-27840000D01*
%TO.C,C3*%
X137700000Y-30135000D02*
X137700000Y-30580000D01*
X137700000Y-27840000D02*
X137700000Y-28285000D01*
X131460000Y-30135000D02*
X131460000Y-30580000D01*
X131460000Y-27840000D02*
X131460000Y-28285000D01*
X131460000Y-30580000D02*
X137700000Y-30580000D01*
X131460000Y-27840000D02*
X137700000Y-27840000D01*
%TO.C,C2*%
X114840000Y-30135000D02*
X114840000Y-30580000D01*
X114840000Y-27840000D02*
X114840000Y-28285000D01*
X108600000Y-30135000D02*
X108600000Y-30580000D01*
X108600000Y-27840000D02*
X108600000Y-28285000D01*
X108600000Y-30580000D02*
X114840000Y-30580000D01*
X108600000Y-27840000D02*
X114840000Y-27840000D01*
%TO.C,C1*%
X91980000Y-30135000D02*
X91980000Y-30580000D01*
X91980000Y-27840000D02*
X91980000Y-28285000D01*
X85740000Y-30135000D02*
X85740000Y-30580000D01*
X85740000Y-27840000D02*
X85740000Y-28285000D01*
X85740000Y-30580000D02*
X91980000Y-30580000D01*
X85740000Y-27840000D02*
X91980000Y-27840000D01*
%TO.C,J2*%
X163770000Y-83880000D02*
X168970000Y-83880000D01*
X163770000Y-35560000D02*
X163770000Y-83880000D01*
X168970000Y-32960000D02*
X168970000Y-83880000D01*
X163770000Y-35560000D02*
X166370000Y-35560000D01*
X166370000Y-35560000D02*
X166370000Y-32960000D01*
X166370000Y-32960000D02*
X168970000Y-32960000D01*
X163770000Y-34290000D02*
X163770000Y-32960000D01*
X163770000Y-32960000D02*
X165100000Y-32960000D01*
%TO.C,X1*%
X147220000Y-54510000D02*
X147220000Y-66660000D01*
X147970000Y-67410000D02*
X159370000Y-67410000D01*
X160120000Y-66660000D02*
X160120000Y-55260000D01*
X159370000Y-54510000D02*
X147220000Y-54510000D01*
X160120000Y-55260000D02*
G75*
G03*
X159370000Y-54510000I-750000J0D01*
G01*
X159370000Y-67410000D02*
G75*
G03*
X160120000Y-66660000I0J750000D01*
G01*
X147220000Y-66660000D02*
G75*
G03*
X147970000Y-67410000I750000J0D01*
G01*
%TO.C,U6*%
X137300000Y-83930000D02*
X137300000Y-78740000D01*
X142100000Y-83930000D02*
X137300000Y-83930000D01*
X142100000Y-78740000D02*
X142100000Y-83930000D01*
X137300000Y-78740000D02*
X142100000Y-78740000D01*
X140970000Y-75950000D02*
X140970000Y-78740000D01*
X139700000Y-75950000D02*
X139700000Y-78740000D01*
X138430000Y-75950000D02*
X138430000Y-78740000D01*
%TO.C,SW1*%
X115335000Y-81740000D02*
X115335000Y-80240000D01*
X114085000Y-77740000D02*
X109585000Y-77740000D01*
X108335000Y-80240000D02*
X108335000Y-81740000D01*
X109585000Y-84240000D02*
X114085000Y-84240000D01*
%TO.C,R2*%
X157710000Y-79375000D02*
X156940000Y-79375000D01*
X149630000Y-79375000D02*
X150400000Y-79375000D01*
X156940000Y-78005000D02*
X150400000Y-78005000D01*
X156940000Y-80745000D02*
X156940000Y-78005000D01*
X150400000Y-80745000D02*
X156940000Y-80745000D01*
X150400000Y-78005000D02*
X150400000Y-80745000D01*
%TO.C,JP1*%
X132140000Y-76370000D02*
X126940000Y-76370000D01*
X126940000Y-76370000D02*
X126940000Y-79030000D01*
X126940000Y-79030000D02*
X132140000Y-79030000D01*
X132140000Y-79030000D02*
X132140000Y-76370000D01*
X131190000Y-79030000D02*
X131190000Y-85030000D01*
X131190000Y-85030000D02*
X130430000Y-85030000D01*
X130430000Y-85030000D02*
X130430000Y-79030000D01*
X131130000Y-79030000D02*
X131130000Y-85030000D01*
X131010000Y-79030000D02*
X131010000Y-85030000D01*
X130890000Y-79030000D02*
X130890000Y-85030000D01*
X130770000Y-79030000D02*
X130770000Y-85030000D01*
X130650000Y-79030000D02*
X130650000Y-85030000D01*
X130530000Y-79030000D02*
X130530000Y-85030000D01*
X131190000Y-76040000D02*
X131190000Y-76370000D01*
X130430000Y-76040000D02*
X130430000Y-76370000D01*
X129540000Y-76370000D02*
X129540000Y-79030000D01*
X128650000Y-79030000D02*
X128650000Y-85030000D01*
X128650000Y-85030000D02*
X127890000Y-85030000D01*
X127890000Y-85030000D02*
X127890000Y-79030000D01*
X128650000Y-75972929D02*
X128650000Y-76370000D01*
X127890000Y-75972929D02*
X127890000Y-76370000D01*
X130810000Y-73660000D02*
X132080000Y-73660000D01*
X132080000Y-73660000D02*
X132080000Y-74930000D01*
%TO.C,U1*%
X97850000Y-32900000D02*
X79950000Y-32900000D01*
X97850000Y-83940000D02*
X97850000Y-32900000D01*
X79950000Y-83940000D02*
X97850000Y-83940000D01*
X79950000Y-32900000D02*
X79950000Y-83940000D01*
X95360000Y-32960000D02*
X89900000Y-32960000D01*
X95360000Y-83880000D02*
X95360000Y-32960000D01*
X82440000Y-83880000D02*
X95360000Y-83880000D01*
X82440000Y-32960000D02*
X82440000Y-83880000D01*
X87900000Y-32960000D02*
X82440000Y-32960000D01*
X89900000Y-32960000D02*
G75*
G02*
X87900000Y-32960000I-1000000J0D01*
G01*
%TO.C,J1*%
X69790000Y-32960000D02*
X71120000Y-32960000D01*
X69790000Y-34290000D02*
X69790000Y-32960000D01*
X72390000Y-32960000D02*
X74990000Y-32960000D01*
X72390000Y-35560000D02*
X72390000Y-32960000D01*
X69790000Y-35560000D02*
X72390000Y-35560000D01*
X74990000Y-32960000D02*
X74990000Y-83880000D01*
X69790000Y-35560000D02*
X69790000Y-83880000D01*
X69790000Y-83880000D02*
X74990000Y-83880000D01*
%TO.C,U3*%
D11*
X130548571Y-31916666D02*
X131024761Y-31916666D01*
X130453333Y-32202380D02*
X130786666Y-31202380D01*
X131120000Y-32202380D01*
X131405714Y-32154761D02*
X131548571Y-32202380D01*
X131786666Y-32202380D01*
X131881904Y-32154761D01*
X131929523Y-32107142D01*
X131977142Y-32011904D01*
X131977142Y-31916666D01*
X131929523Y-31821428D01*
X131881904Y-31773809D01*
X131786666Y-31726190D01*
X131596190Y-31678571D01*
X131500952Y-31630952D01*
X131453333Y-31583333D01*
X131405714Y-31488095D01*
X131405714Y-31392857D01*
X131453333Y-31297619D01*
X131500952Y-31250000D01*
X131596190Y-31202380D01*
X131834285Y-31202380D01*
X131977142Y-31250000D01*
X132834285Y-31202380D02*
X132643809Y-31202380D01*
X132548571Y-31250000D01*
X132500952Y-31297619D01*
X132405714Y-31440476D01*
X132358095Y-31630952D01*
X132358095Y-32011904D01*
X132405714Y-32107142D01*
X132453333Y-32154761D01*
X132548571Y-32202380D01*
X132739047Y-32202380D01*
X132834285Y-32154761D01*
X132881904Y-32107142D01*
X132929523Y-32011904D01*
X132929523Y-31773809D01*
X132881904Y-31678571D01*
X132834285Y-31630952D01*
X132739047Y-31583333D01*
X132548571Y-31583333D01*
X132453333Y-31630952D01*
X132405714Y-31678571D01*
X132358095Y-31773809D01*
X133929523Y-32107142D02*
X133881904Y-32154761D01*
X133739047Y-32202380D01*
X133643809Y-32202380D01*
X133500952Y-32154761D01*
X133405714Y-32059523D01*
X133358095Y-31964285D01*
X133310476Y-31773809D01*
X133310476Y-31630952D01*
X133358095Y-31440476D01*
X133405714Y-31345238D01*
X133500952Y-31250000D01*
X133643809Y-31202380D01*
X133739047Y-31202380D01*
X133881904Y-31250000D01*
X133929523Y-31297619D01*
X134786666Y-31202380D02*
X134596190Y-31202380D01*
X134500952Y-31250000D01*
X134453333Y-31297619D01*
X134358095Y-31440476D01*
X134310476Y-31630952D01*
X134310476Y-32011904D01*
X134358095Y-32107142D01*
X134405714Y-32154761D01*
X134500952Y-32202380D01*
X134691428Y-32202380D01*
X134786666Y-32154761D01*
X134834285Y-32107142D01*
X134881904Y-32011904D01*
X134881904Y-31773809D01*
X134834285Y-31678571D01*
X134786666Y-31630952D01*
X134691428Y-31583333D01*
X134500952Y-31583333D01*
X134405714Y-31630952D01*
X134358095Y-31678571D01*
X134310476Y-31773809D01*
X135262857Y-31297619D02*
X135310476Y-31250000D01*
X135405714Y-31202380D01*
X135643809Y-31202380D01*
X135739047Y-31250000D01*
X135786666Y-31297619D01*
X135834285Y-31392857D01*
X135834285Y-31488095D01*
X135786666Y-31630952D01*
X135215238Y-32202380D01*
X135834285Y-32202380D01*
X136215238Y-31297619D02*
X136262857Y-31250000D01*
X136358095Y-31202380D01*
X136596190Y-31202380D01*
X136691428Y-31250000D01*
X136739047Y-31297619D01*
X136786666Y-31392857D01*
X136786666Y-31488095D01*
X136739047Y-31630952D01*
X136167619Y-32202380D01*
X136786666Y-32202380D01*
X137691428Y-31202380D02*
X137215238Y-31202380D01*
X137167619Y-31678571D01*
X137215238Y-31630952D01*
X137310476Y-31583333D01*
X137548571Y-31583333D01*
X137643809Y-31630952D01*
X137691428Y-31678571D01*
X137739047Y-31773809D01*
X137739047Y-32011904D01*
X137691428Y-32107142D01*
X137643809Y-32154761D01*
X137548571Y-32202380D01*
X137310476Y-32202380D01*
X137215238Y-32154761D01*
X137167619Y-32107142D01*
X138596190Y-31202380D02*
X138405714Y-31202380D01*
X138310476Y-31250000D01*
X138262857Y-31297619D01*
X138167619Y-31440476D01*
X138120000Y-31630952D01*
X138120000Y-32011904D01*
X138167619Y-32107142D01*
X138215238Y-32154761D01*
X138310476Y-32202380D01*
X138500952Y-32202380D01*
X138596190Y-32154761D01*
X138643809Y-32107142D01*
X138691428Y-32011904D01*
X138691428Y-31773809D01*
X138643809Y-31678571D01*
X138596190Y-31630952D01*
X138500952Y-31583333D01*
X138310476Y-31583333D01*
X138215238Y-31630952D01*
X138167619Y-31678571D01*
X138120000Y-31773809D01*
%TO.C,U2*%
X107331428Y-32154761D02*
X107474285Y-32202380D01*
X107712380Y-32202380D01*
X107807619Y-32154761D01*
X107855238Y-32107142D01*
X107902857Y-32011904D01*
X107902857Y-31916666D01*
X107855238Y-31821428D01*
X107807619Y-31773809D01*
X107712380Y-31726190D01*
X107521904Y-31678571D01*
X107426666Y-31630952D01*
X107379047Y-31583333D01*
X107331428Y-31488095D01*
X107331428Y-31392857D01*
X107379047Y-31297619D01*
X107426666Y-31250000D01*
X107521904Y-31202380D01*
X107760000Y-31202380D01*
X107902857Y-31250000D01*
X108283809Y-32154761D02*
X108426666Y-32202380D01*
X108664761Y-32202380D01*
X108760000Y-32154761D01*
X108807619Y-32107142D01*
X108855238Y-32011904D01*
X108855238Y-31916666D01*
X108807619Y-31821428D01*
X108760000Y-31773809D01*
X108664761Y-31726190D01*
X108474285Y-31678571D01*
X108379047Y-31630952D01*
X108331428Y-31583333D01*
X108283809Y-31488095D01*
X108283809Y-31392857D01*
X108331428Y-31297619D01*
X108379047Y-31250000D01*
X108474285Y-31202380D01*
X108712380Y-31202380D01*
X108855238Y-31250000D01*
X109140952Y-31202380D02*
X109712380Y-31202380D01*
X109426666Y-32202380D02*
X109426666Y-31202380D01*
X109950476Y-31202380D02*
X110569523Y-31202380D01*
X110236190Y-31583333D01*
X110379047Y-31583333D01*
X110474285Y-31630952D01*
X110521904Y-31678571D01*
X110569523Y-31773809D01*
X110569523Y-32011904D01*
X110521904Y-32107142D01*
X110474285Y-32154761D01*
X110379047Y-32202380D01*
X110093333Y-32202380D01*
X109998095Y-32154761D01*
X109950476Y-32107142D01*
X111045714Y-32202380D02*
X111236190Y-32202380D01*
X111331428Y-32154761D01*
X111379047Y-32107142D01*
X111474285Y-31964285D01*
X111521904Y-31773809D01*
X111521904Y-31392857D01*
X111474285Y-31297619D01*
X111426666Y-31250000D01*
X111331428Y-31202380D01*
X111140952Y-31202380D01*
X111045714Y-31250000D01*
X110998095Y-31297619D01*
X110950476Y-31392857D01*
X110950476Y-31630952D01*
X110998095Y-31726190D01*
X111045714Y-31773809D01*
X111140952Y-31821428D01*
X111331428Y-31821428D01*
X111426666Y-31773809D01*
X111474285Y-31726190D01*
X111521904Y-31630952D01*
X111902857Y-32154761D02*
X112045714Y-32202380D01*
X112283809Y-32202380D01*
X112379047Y-32154761D01*
X112426666Y-32107142D01*
X112474285Y-32011904D01*
X112474285Y-31916666D01*
X112426666Y-31821428D01*
X112379047Y-31773809D01*
X112283809Y-31726190D01*
X112093333Y-31678571D01*
X111998095Y-31630952D01*
X111950476Y-31583333D01*
X111902857Y-31488095D01*
X111902857Y-31392857D01*
X111950476Y-31297619D01*
X111998095Y-31250000D01*
X112093333Y-31202380D01*
X112331428Y-31202380D01*
X112474285Y-31250000D01*
X113236190Y-31678571D02*
X112902857Y-31678571D01*
X112902857Y-32202380D02*
X112902857Y-31202380D01*
X113379047Y-31202380D01*
X113950476Y-31202380D02*
X114045714Y-31202380D01*
X114140952Y-31250000D01*
X114188571Y-31297619D01*
X114236190Y-31392857D01*
X114283809Y-31583333D01*
X114283809Y-31821428D01*
X114236190Y-32011904D01*
X114188571Y-32107142D01*
X114140952Y-32154761D01*
X114045714Y-32202380D01*
X113950476Y-32202380D01*
X113855238Y-32154761D01*
X113807619Y-32107142D01*
X113760000Y-32011904D01*
X113712380Y-31821428D01*
X113712380Y-31583333D01*
X113760000Y-31392857D01*
X113807619Y-31297619D01*
X113855238Y-31250000D01*
X113950476Y-31202380D01*
X115236190Y-32202380D02*
X114664761Y-32202380D01*
X114950476Y-32202380D02*
X114950476Y-31202380D01*
X114855238Y-31345238D01*
X114760000Y-31440476D01*
X114664761Y-31488095D01*
X115855238Y-31202380D02*
X115950476Y-31202380D01*
X116045714Y-31250000D01*
X116093333Y-31297619D01*
X116140952Y-31392857D01*
X116188571Y-31583333D01*
X116188571Y-31821428D01*
X116140952Y-32011904D01*
X116093333Y-32107142D01*
X116045714Y-32154761D01*
X115950476Y-32202380D01*
X115855238Y-32202380D01*
X115760000Y-32154761D01*
X115712380Y-32107142D01*
X115664761Y-32011904D01*
X115617142Y-31821428D01*
X115617142Y-31583333D01*
X115664761Y-31392857D01*
X115712380Y-31297619D01*
X115760000Y-31250000D01*
X115855238Y-31202380D01*
%TO.C,U4*%
X150884285Y-31202380D02*
X151550952Y-31202380D01*
X151122380Y-32202380D01*
X152360476Y-31535714D02*
X152360476Y-32202380D01*
X152122380Y-31154761D02*
X151884285Y-31869047D01*
X152503333Y-31869047D01*
X152884285Y-32202380D02*
X152884285Y-31202380D01*
X152884285Y-31678571D02*
X153455714Y-31678571D01*
X153455714Y-32202380D02*
X153455714Y-31202380D01*
X154503333Y-32107142D02*
X154455714Y-32154761D01*
X154312857Y-32202380D01*
X154217619Y-32202380D01*
X154074761Y-32154761D01*
X153979523Y-32059523D01*
X153931904Y-31964285D01*
X153884285Y-31773809D01*
X153884285Y-31630952D01*
X153931904Y-31440476D01*
X153979523Y-31345238D01*
X154074761Y-31250000D01*
X154217619Y-31202380D01*
X154312857Y-31202380D01*
X154455714Y-31250000D01*
X154503333Y-31297619D01*
X155122380Y-31202380D02*
X155217619Y-31202380D01*
X155312857Y-31250000D01*
X155360476Y-31297619D01*
X155408095Y-31392857D01*
X155455714Y-31583333D01*
X155455714Y-31821428D01*
X155408095Y-32011904D01*
X155360476Y-32107142D01*
X155312857Y-32154761D01*
X155217619Y-32202380D01*
X155122380Y-32202380D01*
X155027142Y-32154761D01*
X154979523Y-32107142D01*
X154931904Y-32011904D01*
X154884285Y-31821428D01*
X154884285Y-31583333D01*
X154931904Y-31392857D01*
X154979523Y-31297619D01*
X155027142Y-31250000D01*
X155122380Y-31202380D01*
X156074761Y-31202380D02*
X156170000Y-31202380D01*
X156265238Y-31250000D01*
X156312857Y-31297619D01*
X156360476Y-31392857D01*
X156408095Y-31583333D01*
X156408095Y-31821428D01*
X156360476Y-32011904D01*
X156312857Y-32107142D01*
X156265238Y-32154761D01*
X156170000Y-32202380D01*
X156074761Y-32202380D01*
X155979523Y-32154761D01*
X155931904Y-32107142D01*
X155884285Y-32011904D01*
X155836666Y-31821428D01*
X155836666Y-31583333D01*
X155884285Y-31392857D01*
X155931904Y-31297619D01*
X155979523Y-31250000D01*
X156074761Y-31202380D01*
%TO.C,R1*%
X153074761Y-72842380D02*
X152503333Y-72842380D01*
X152789047Y-72842380D02*
X152789047Y-71842380D01*
X152693809Y-71985238D01*
X152598571Y-72080476D01*
X152503333Y-72128095D01*
X153693809Y-71842380D02*
X153789047Y-71842380D01*
X153884285Y-71890000D01*
X153931904Y-71937619D01*
X153979523Y-72032857D01*
X154027142Y-72223333D01*
X154027142Y-72461428D01*
X153979523Y-72651904D01*
X153931904Y-72747142D01*
X153884285Y-72794761D01*
X153789047Y-72842380D01*
X153693809Y-72842380D01*
X153598571Y-72794761D01*
X153550952Y-72747142D01*
X153503333Y-72651904D01*
X153455714Y-72461428D01*
X153455714Y-72223333D01*
X153503333Y-72032857D01*
X153550952Y-71937619D01*
X153598571Y-71890000D01*
X153693809Y-71842380D01*
X154455714Y-72842380D02*
X154455714Y-71842380D01*
X154550952Y-72461428D02*
X154836666Y-72842380D01*
X154836666Y-72175714D02*
X154455714Y-72556666D01*
%TO.C,J2*%
X165179523Y-84808571D02*
X165512857Y-84808571D01*
X165655714Y-85332380D02*
X165179523Y-85332380D01*
X165179523Y-84332380D01*
X165655714Y-84332380D01*
X165989047Y-84332380D02*
X166655714Y-85332380D01*
X166655714Y-84332380D02*
X165989047Y-85332380D01*
X167036666Y-85332380D02*
X167036666Y-84332380D01*
X167417619Y-84332380D01*
X167512857Y-84380000D01*
X167560476Y-84427619D01*
X167608095Y-84522857D01*
X167608095Y-84665714D01*
X167560476Y-84760952D01*
X167512857Y-84808571D01*
X167417619Y-84856190D01*
X167036666Y-84856190D01*
%TO.C,X1*%
X152455714Y-53792380D02*
X151884285Y-53792380D01*
X152170000Y-53792380D02*
X152170000Y-52792380D01*
X152074761Y-52935238D01*
X151979523Y-53030476D01*
X151884285Y-53078095D01*
X152884285Y-53792380D02*
X152884285Y-52792380D01*
X153217619Y-53506666D01*
X153550952Y-52792380D01*
X153550952Y-53792380D01*
X154027142Y-53792380D02*
X154027142Y-52792380D01*
X154027142Y-53268571D02*
X154598571Y-53268571D01*
X154598571Y-53792380D02*
X154598571Y-52792380D01*
X154979523Y-53125714D02*
X155503333Y-53125714D01*
X154979523Y-53792380D01*
X155503333Y-53792380D01*
%TO.C,U6*%
X137057142Y-72842380D02*
X137057142Y-71842380D01*
X137295238Y-71842380D01*
X137438095Y-71890000D01*
X137533333Y-71985238D01*
X137580952Y-72080476D01*
X137628571Y-72270952D01*
X137628571Y-72413809D01*
X137580952Y-72604285D01*
X137533333Y-72699523D01*
X137438095Y-72794761D01*
X137295238Y-72842380D01*
X137057142Y-72842380D01*
X138009523Y-72794761D02*
X138152380Y-72842380D01*
X138390476Y-72842380D01*
X138485714Y-72794761D01*
X138533333Y-72747142D01*
X138580952Y-72651904D01*
X138580952Y-72556666D01*
X138533333Y-72461428D01*
X138485714Y-72413809D01*
X138390476Y-72366190D01*
X138200000Y-72318571D01*
X138104761Y-72270952D01*
X138057142Y-72223333D01*
X138009523Y-72128095D01*
X138009523Y-72032857D01*
X138057142Y-71937619D01*
X138104761Y-71890000D01*
X138200000Y-71842380D01*
X138438095Y-71842380D01*
X138580952Y-71890000D01*
X139533333Y-72842380D02*
X138961904Y-72842380D01*
X139247619Y-72842380D02*
X139247619Y-71842380D01*
X139152380Y-71985238D01*
X139057142Y-72080476D01*
X138961904Y-72128095D01*
X140104761Y-72270952D02*
X140009523Y-72223333D01*
X139961904Y-72175714D01*
X139914285Y-72080476D01*
X139914285Y-72032857D01*
X139961904Y-71937619D01*
X140009523Y-71890000D01*
X140104761Y-71842380D01*
X140295238Y-71842380D01*
X140390476Y-71890000D01*
X140438095Y-71937619D01*
X140485714Y-72032857D01*
X140485714Y-72080476D01*
X140438095Y-72175714D01*
X140390476Y-72223333D01*
X140295238Y-72270952D01*
X140104761Y-72270952D01*
X140009523Y-72318571D01*
X139961904Y-72366190D01*
X139914285Y-72461428D01*
X139914285Y-72651904D01*
X139961904Y-72747142D01*
X140009523Y-72794761D01*
X140104761Y-72842380D01*
X140295238Y-72842380D01*
X140390476Y-72794761D01*
X140438095Y-72747142D01*
X140485714Y-72651904D01*
X140485714Y-72461428D01*
X140438095Y-72366190D01*
X140390476Y-72318571D01*
X140295238Y-72270952D01*
X141438095Y-72842380D02*
X140866666Y-72842380D01*
X141152380Y-72842380D02*
X141152380Y-71842380D01*
X141057142Y-71985238D01*
X140961904Y-72080476D01*
X140866666Y-72128095D01*
X141771428Y-71842380D02*
X142390476Y-71842380D01*
X142057142Y-72223333D01*
X142200000Y-72223333D01*
X142295238Y-72270952D01*
X142342857Y-72318571D01*
X142390476Y-72413809D01*
X142390476Y-72651904D01*
X142342857Y-72747142D01*
X142295238Y-72794761D01*
X142200000Y-72842380D01*
X141914285Y-72842380D01*
X141819047Y-72794761D01*
X141771428Y-72747142D01*
%TO.C,SW1*%
X110307619Y-76652380D02*
X109974285Y-76176190D01*
X109736190Y-76652380D02*
X109736190Y-75652380D01*
X110117142Y-75652380D01*
X110212380Y-75700000D01*
X110260000Y-75747619D01*
X110307619Y-75842857D01*
X110307619Y-75985714D01*
X110260000Y-76080952D01*
X110212380Y-76128571D01*
X110117142Y-76176190D01*
X109736190Y-76176190D01*
X110736190Y-76128571D02*
X111069523Y-76128571D01*
X111212380Y-76652380D02*
X110736190Y-76652380D01*
X110736190Y-75652380D01*
X111212380Y-75652380D01*
X111593333Y-76604761D02*
X111736190Y-76652380D01*
X111974285Y-76652380D01*
X112069523Y-76604761D01*
X112117142Y-76557142D01*
X112164761Y-76461904D01*
X112164761Y-76366666D01*
X112117142Y-76271428D01*
X112069523Y-76223809D01*
X111974285Y-76176190D01*
X111783809Y-76128571D01*
X111688571Y-76080952D01*
X111640952Y-76033333D01*
X111593333Y-75938095D01*
X111593333Y-75842857D01*
X111640952Y-75747619D01*
X111688571Y-75700000D01*
X111783809Y-75652380D01*
X112021904Y-75652380D01*
X112164761Y-75700000D01*
X112593333Y-76128571D02*
X112926666Y-76128571D01*
X113069523Y-76652380D02*
X112593333Y-76652380D01*
X112593333Y-75652380D01*
X113069523Y-75652380D01*
X113355238Y-75652380D02*
X113926666Y-75652380D01*
X113640952Y-76652380D02*
X113640952Y-75652380D01*
%TO.C,JP1*%
X126635238Y-71842380D02*
X127301904Y-72842380D01*
X127301904Y-71842380D02*
X126635238Y-72842380D01*
X127540000Y-71842380D02*
X128111428Y-71842380D01*
X127825714Y-72842380D02*
X127825714Y-71842380D01*
X128397142Y-72556666D02*
X128873333Y-72556666D01*
X128301904Y-72842380D02*
X128635238Y-71842380D01*
X128968571Y-72842380D01*
X129778095Y-72842380D02*
X129301904Y-72842380D01*
X129301904Y-71842380D01*
X129873333Y-72937619D02*
X130635238Y-72937619D01*
X130873333Y-72318571D02*
X131206666Y-72318571D01*
X131349523Y-72842380D02*
X130873333Y-72842380D01*
X130873333Y-71842380D01*
X131349523Y-71842380D01*
X131778095Y-72842380D02*
X131778095Y-71842380D01*
X132349523Y-72842380D01*
X132349523Y-71842380D01*
%TO.C,U1*%
X85590476Y-31202380D02*
X85828571Y-32202380D01*
X86019047Y-31488095D01*
X86209523Y-32202380D01*
X86447619Y-31202380D01*
X87257142Y-31202380D02*
X87066666Y-31202380D01*
X86971428Y-31250000D01*
X86923809Y-31297619D01*
X86828571Y-31440476D01*
X86780952Y-31630952D01*
X86780952Y-32011904D01*
X86828571Y-32107142D01*
X86876190Y-32154761D01*
X86971428Y-32202380D01*
X87161904Y-32202380D01*
X87257142Y-32154761D01*
X87304761Y-32107142D01*
X87352380Y-32011904D01*
X87352380Y-31773809D01*
X87304761Y-31678571D01*
X87257142Y-31630952D01*
X87161904Y-31583333D01*
X86971428Y-31583333D01*
X86876190Y-31630952D01*
X86828571Y-31678571D01*
X86780952Y-31773809D01*
X88257142Y-31202380D02*
X87780952Y-31202380D01*
X87733333Y-31678571D01*
X87780952Y-31630952D01*
X87876190Y-31583333D01*
X88114285Y-31583333D01*
X88209523Y-31630952D01*
X88257142Y-31678571D01*
X88304761Y-31773809D01*
X88304761Y-32011904D01*
X88257142Y-32107142D01*
X88209523Y-32154761D01*
X88114285Y-32202380D01*
X87876190Y-32202380D01*
X87780952Y-32154761D01*
X87733333Y-32107142D01*
X89304761Y-32107142D02*
X89257142Y-32154761D01*
X89114285Y-32202380D01*
X89019047Y-32202380D01*
X88876190Y-32154761D01*
X88780952Y-32059523D01*
X88733333Y-31964285D01*
X88685714Y-31773809D01*
X88685714Y-31630952D01*
X88733333Y-31440476D01*
X88780952Y-31345238D01*
X88876190Y-31250000D01*
X89019047Y-31202380D01*
X89114285Y-31202380D01*
X89257142Y-31250000D01*
X89304761Y-31297619D01*
X89923809Y-31202380D02*
X90019047Y-31202380D01*
X90114285Y-31250000D01*
X90161904Y-31297619D01*
X90209523Y-31392857D01*
X90257142Y-31583333D01*
X90257142Y-31821428D01*
X90209523Y-32011904D01*
X90161904Y-32107142D01*
X90114285Y-32154761D01*
X90019047Y-32202380D01*
X89923809Y-32202380D01*
X89828571Y-32154761D01*
X89780952Y-32107142D01*
X89733333Y-32011904D01*
X89685714Y-31821428D01*
X89685714Y-31583333D01*
X89733333Y-31392857D01*
X89780952Y-31297619D01*
X89828571Y-31250000D01*
X89923809Y-31202380D01*
X90638095Y-31297619D02*
X90685714Y-31250000D01*
X90780952Y-31202380D01*
X91019047Y-31202380D01*
X91114285Y-31250000D01*
X91161904Y-31297619D01*
X91209523Y-31392857D01*
X91209523Y-31488095D01*
X91161904Y-31630952D01*
X90590476Y-32202380D01*
X91209523Y-32202380D01*
X91590476Y-32154761D02*
X91733333Y-32202380D01*
X91971428Y-32202380D01*
X92066666Y-32154761D01*
X92114285Y-32107142D01*
X92161904Y-32011904D01*
X92161904Y-31916666D01*
X92114285Y-31821428D01*
X92066666Y-31773809D01*
X91971428Y-31726190D01*
X91780952Y-31678571D01*
X91685714Y-31630952D01*
X91638095Y-31583333D01*
X91590476Y-31488095D01*
X91590476Y-31392857D01*
X91638095Y-31297619D01*
X91685714Y-31250000D01*
X91780952Y-31202380D01*
X92019047Y-31202380D01*
X92161904Y-31250000D01*
%TO.C,J1*%
X71199523Y-84808571D02*
X71532857Y-84808571D01*
X71675714Y-85332380D02*
X71199523Y-85332380D01*
X71199523Y-84332380D01*
X71675714Y-84332380D01*
X72009047Y-84332380D02*
X72675714Y-85332380D01*
X72675714Y-84332380D02*
X72009047Y-85332380D01*
X73056666Y-85332380D02*
X73056666Y-84332380D01*
X73437619Y-84332380D01*
X73532857Y-84380000D01*
X73580476Y-84427619D01*
X73628095Y-84522857D01*
X73628095Y-84665714D01*
X73580476Y-84760952D01*
X73532857Y-84808571D01*
X73437619Y-84856190D01*
X73056666Y-84856190D01*
%TD*%
M02*
