%TF.GenerationSoftware,KiCad,Pcbnew,5.1.9-73d0e3b20d~88~ubuntu20.04.1*%
%TF.CreationDate,2021-01-16T15:58:39+00:00*%
%TF.ProjectId,main-board,6d61696e-2d62-46f6-9172-642e6b696361,rev?*%
%TF.SameCoordinates,Original*%
%TF.FileFunction,Copper,L1,Top*%
%TF.FilePolarity,Positive*%
%FSLAX46Y46*%
G04 Gerber Fmt 4.6, Leading zero omitted, Abs format (unit mm)*
G04 Created by KiCad (PCBNEW 5.1.9-73d0e3b20d~88~ubuntu20.04.1) date 2021-01-16 15:58:39*
%MOMM*%
%LPD*%
G01*
G04 APERTURE LIST*
%TA.AperFunction,ComponentPad*%
%ADD10O,1.600000X1.600000*%
%TD*%
%TA.AperFunction,ComponentPad*%
%ADD11R,1.600000X1.600000*%
%TD*%
%TA.AperFunction,ComponentPad*%
%ADD12C,1.600000*%
%TD*%
%TA.AperFunction,ComponentPad*%
%ADD13O,1.700000X1.700000*%
%TD*%
%TA.AperFunction,ComponentPad*%
%ADD14R,1.700000X1.700000*%
%TD*%
%TA.AperFunction,ComponentPad*%
%ADD15R,1.050000X1.500000*%
%TD*%
%TA.AperFunction,ComponentPad*%
%ADD16O,1.050000X1.500000*%
%TD*%
%TA.AperFunction,ComponentPad*%
%ADD17C,2.000000*%
%TD*%
%TA.AperFunction,ViaPad*%
%ADD18C,0.600000*%
%TD*%
%TA.AperFunction,Conductor*%
%ADD19C,0.500000*%
%TD*%
%TA.AperFunction,Conductor*%
%ADD20C,0.250000*%
%TD*%
G04 APERTURE END LIST*
D10*
%TO.P,U3,28*%
%TO.N,+5V*%
X142240000Y-34290000D03*
%TO.P,U3,14*%
%TO.N,GND*%
X127000000Y-67310000D03*
%TO.P,U3,27*%
%TO.N,!WRITE*%
X142240000Y-36830000D03*
%TO.P,U3,13*%
%TO.N,D2*%
X127000000Y-64770000D03*
%TO.P,U3,26*%
%TO.N,A13*%
X142240000Y-39370000D03*
%TO.P,U3,12*%
%TO.N,D1*%
X127000000Y-62230000D03*
%TO.P,U3,25*%
%TO.N,A8*%
X142240000Y-41910000D03*
%TO.P,U3,11*%
%TO.N,D0*%
X127000000Y-59690000D03*
%TO.P,U3,24*%
%TO.N,A9*%
X142240000Y-44450000D03*
%TO.P,U3,10*%
%TO.N,A0*%
X127000000Y-57150000D03*
%TO.P,U3,23*%
%TO.N,A11*%
X142240000Y-46990000D03*
%TO.P,U3,9*%
%TO.N,A1*%
X127000000Y-54610000D03*
%TO.P,U3,22*%
%TO.N,!READ*%
X142240000Y-49530000D03*
%TO.P,U3,8*%
%TO.N,A2*%
X127000000Y-52070000D03*
%TO.P,U3,21*%
%TO.N,A10*%
X142240000Y-52070000D03*
%TO.P,U3,7*%
%TO.N,A3*%
X127000000Y-49530000D03*
%TO.P,U3,20*%
%TO.N,!RAM_SELECT*%
X142240000Y-54610000D03*
%TO.P,U3,6*%
%TO.N,A4*%
X127000000Y-46990000D03*
%TO.P,U3,19*%
%TO.N,D7*%
X142240000Y-57150000D03*
%TO.P,U3,5*%
%TO.N,A5*%
X127000000Y-44450000D03*
%TO.P,U3,18*%
%TO.N,D6*%
X142240000Y-59690000D03*
%TO.P,U3,4*%
%TO.N,A6*%
X127000000Y-41910000D03*
%TO.P,U3,17*%
%TO.N,D5*%
X142240000Y-62230000D03*
%TO.P,U3,3*%
%TO.N,A7*%
X127000000Y-39370000D03*
%TO.P,U3,16*%
%TO.N,D4*%
X142240000Y-64770000D03*
%TO.P,U3,2*%
%TO.N,A12*%
X127000000Y-36830000D03*
%TO.P,U3,15*%
%TO.N,D3*%
X142240000Y-67310000D03*
D11*
%TO.P,U3,1*%
%TO.N,A14*%
X127000000Y-34290000D03*
%TD*%
D10*
%TO.P,U2,32*%
%TO.N,+5V*%
X119380000Y-34290000D03*
%TO.P,U2,16*%
%TO.N,GND*%
X104140000Y-72390000D03*
%TO.P,U2,31*%
%TO.N,+5V*%
X119380000Y-36830000D03*
%TO.P,U2,15*%
%TO.N,D2*%
X104140000Y-69850000D03*
%TO.P,U2,30*%
%TO.N,Net-(U2-Pad30)*%
X119380000Y-39370000D03*
%TO.P,U2,14*%
%TO.N,D1*%
X104140000Y-67310000D03*
%TO.P,U2,29*%
%TO.N,GND*%
X119380000Y-41910000D03*
%TO.P,U2,13*%
%TO.N,D0*%
X104140000Y-64770000D03*
%TO.P,U2,28*%
%TO.N,A13*%
X119380000Y-44450000D03*
%TO.P,U2,12*%
%TO.N,A0*%
X104140000Y-62230000D03*
%TO.P,U2,27*%
%TO.N,A8*%
X119380000Y-46990000D03*
%TO.P,U2,11*%
%TO.N,A1*%
X104140000Y-59690000D03*
%TO.P,U2,26*%
%TO.N,A9*%
X119380000Y-49530000D03*
%TO.P,U2,10*%
%TO.N,A2*%
X104140000Y-57150000D03*
%TO.P,U2,25*%
%TO.N,A11*%
X119380000Y-52070000D03*
%TO.P,U2,9*%
%TO.N,A3*%
X104140000Y-54610000D03*
%TO.P,U2,24*%
%TO.N,!READ*%
X119380000Y-54610000D03*
%TO.P,U2,8*%
%TO.N,A4*%
X104140000Y-52070000D03*
%TO.P,U2,23*%
%TO.N,A10*%
X119380000Y-57150000D03*
%TO.P,U2,7*%
%TO.N,A5*%
X104140000Y-49530000D03*
%TO.P,U2,22*%
%TO.N,!ROM_SELECT*%
X119380000Y-59690000D03*
%TO.P,U2,6*%
%TO.N,A6*%
X104140000Y-46990000D03*
%TO.P,U2,21*%
%TO.N,D7*%
X119380000Y-62230000D03*
%TO.P,U2,5*%
%TO.N,A7*%
X104140000Y-44450000D03*
%TO.P,U2,20*%
%TO.N,D6*%
X119380000Y-64770000D03*
%TO.P,U2,4*%
%TO.N,A12*%
X104140000Y-41910000D03*
%TO.P,U2,19*%
%TO.N,D5*%
X119380000Y-67310000D03*
%TO.P,U2,3*%
%TO.N,GND*%
X104140000Y-39370000D03*
%TO.P,U2,18*%
%TO.N,D4*%
X119380000Y-69850000D03*
%TO.P,U2,2*%
%TO.N,GND*%
X104140000Y-36830000D03*
%TO.P,U2,17*%
%TO.N,D3*%
X119380000Y-72390000D03*
D11*
%TO.P,U2,1*%
%TO.N,Net-(U2-Pad1)*%
X104140000Y-34290000D03*
%TD*%
D10*
%TO.P,U4,14*%
%TO.N,+5V*%
X157480000Y-34290000D03*
%TO.P,U4,7*%
%TO.N,GND*%
X149860000Y-49530000D03*
%TO.P,U4,13*%
%TO.N,!READ*%
X157480000Y-36830000D03*
%TO.P,U4,6*%
%TO.N,N/C*%
X149860000Y-46990000D03*
%TO.P,U4,12*%
%TO.N,PHI2*%
X157480000Y-39370000D03*
%TO.P,U4,5*%
%TO.N,N/C*%
X149860000Y-44450000D03*
%TO.P,U4,11*%
%TO.N,!WRITE*%
X157480000Y-41910000D03*
%TO.P,U4,4*%
%TO.N,N/C*%
X149860000Y-41910000D03*
%TO.P,U4,10*%
%TO.N,PHI2*%
X157480000Y-44450000D03*
%TO.P,U4,3*%
%TO.N,!ROM_SELECT*%
X149860000Y-39370000D03*
%TO.P,U4,9*%
%TO.N,R!W*%
X157480000Y-46990000D03*
%TO.P,U4,2*%
%TO.N,!RAM_SELECT*%
X149860000Y-36830000D03*
%TO.P,U4,8*%
%TO.N,!READ*%
X157480000Y-49530000D03*
D11*
%TO.P,U4,1*%
%TO.N,A14*%
X149860000Y-34290000D03*
%TD*%
D10*
%TO.P,R3,2*%
%TO.N,!IRQ*%
X158750000Y-83185000D03*
D12*
%TO.P,R3,1*%
%TO.N,+5V*%
X148590000Y-83185000D03*
%TD*%
D10*
%TO.P,R1,2*%
%TO.N,RDY*%
X158750000Y-75565000D03*
D12*
%TO.P,R1,1*%
%TO.N,+5V*%
X148590000Y-75565000D03*
%TD*%
%TO.P,C4,2*%
%TO.N,+5V*%
X156130000Y-29210000D03*
%TO.P,C4,1*%
%TO.N,GND*%
X151130000Y-29210000D03*
%TD*%
%TO.P,C3,2*%
%TO.N,+5V*%
X137080000Y-29210000D03*
%TO.P,C3,1*%
%TO.N,GND*%
X132080000Y-29210000D03*
%TD*%
%TO.P,C2,2*%
%TO.N,+5V*%
X114220000Y-29210000D03*
%TO.P,C2,1*%
%TO.N,GND*%
X109220000Y-29210000D03*
%TD*%
%TO.P,C1,2*%
%TO.N,GND*%
X91360000Y-29210000D03*
%TO.P,C1,1*%
%TO.N,+5V*%
X86360000Y-29210000D03*
%TD*%
D13*
%TO.P,J2,40*%
%TO.N,GND*%
X167640000Y-82550000D03*
%TO.P,J2,39*%
X165100000Y-82550000D03*
%TO.P,J2,38*%
%TO.N,+5V*%
X167640000Y-80010000D03*
%TO.P,J2,37*%
X165100000Y-80010000D03*
%TO.P,J2,36*%
%TO.N,D7*%
X167640000Y-77470000D03*
%TO.P,J2,35*%
%TO.N,D6*%
X165100000Y-77470000D03*
%TO.P,J2,34*%
%TO.N,D5*%
X167640000Y-74930000D03*
%TO.P,J2,33*%
%TO.N,D4*%
X165100000Y-74930000D03*
%TO.P,J2,32*%
%TO.N,D3*%
X167640000Y-72390000D03*
%TO.P,J2,31*%
%TO.N,D2*%
X165100000Y-72390000D03*
%TO.P,J2,30*%
%TO.N,D1*%
X167640000Y-69850000D03*
%TO.P,J2,29*%
%TO.N,D0*%
X165100000Y-69850000D03*
%TO.P,J2,28*%
%TO.N,!RAM_SELECT*%
X167640000Y-67310000D03*
%TO.P,J2,27*%
%TO.N,A14*%
X165100000Y-67310000D03*
%TO.P,J2,26*%
%TO.N,A13*%
X167640000Y-64770000D03*
%TO.P,J2,25*%
%TO.N,A12*%
X165100000Y-64770000D03*
%TO.P,J2,24*%
%TO.N,A11*%
X167640000Y-62230000D03*
%TO.P,J2,23*%
%TO.N,A10*%
X165100000Y-62230000D03*
%TO.P,J2,22*%
%TO.N,A9*%
X167640000Y-59690000D03*
%TO.P,J2,21*%
%TO.N,A8*%
X165100000Y-59690000D03*
%TO.P,J2,20*%
%TO.N,A7*%
X167640000Y-57150000D03*
%TO.P,J2,19*%
%TO.N,A6*%
X165100000Y-57150000D03*
%TO.P,J2,18*%
%TO.N,A5*%
X167640000Y-54610000D03*
%TO.P,J2,17*%
%TO.N,A4*%
X165100000Y-54610000D03*
%TO.P,J2,16*%
%TO.N,A3*%
X167640000Y-52070000D03*
%TO.P,J2,15*%
%TO.N,A2*%
X165100000Y-52070000D03*
%TO.P,J2,14*%
%TO.N,A1*%
X167640000Y-49530000D03*
%TO.P,J2,13*%
%TO.N,A0*%
X165100000Y-49530000D03*
%TO.P,J2,12*%
%TO.N,GND*%
X167640000Y-46990000D03*
%TO.P,J2,11*%
X165100000Y-46990000D03*
%TO.P,J2,10*%
%TO.N,CLK*%
X167640000Y-44450000D03*
%TO.P,J2,9*%
%TO.N,RDY*%
X165100000Y-44450000D03*
%TO.P,J2,8*%
%TO.N,!RESET*%
X167640000Y-41910000D03*
%TO.P,J2,7*%
%TO.N,R!W*%
X165100000Y-41910000D03*
%TO.P,J2,6*%
%TO.N,!WRITE*%
X167640000Y-39370000D03*
%TO.P,J2,5*%
%TO.N,!READ*%
X165100000Y-39370000D03*
%TO.P,J2,4*%
%TO.N,!NMI*%
X167640000Y-36830000D03*
%TO.P,J2,3*%
%TO.N,!IRQ*%
X165100000Y-36830000D03*
%TO.P,J2,2*%
%TO.N,PHI2*%
X167640000Y-34290000D03*
D14*
%TO.P,J2,1*%
%TO.N,PHI1*%
X165100000Y-34290000D03*
%TD*%
D12*
%TO.P,X1,4*%
%TO.N,GND*%
X149860000Y-64770000D03*
%TO.P,X1,5*%
%TO.N,CLK1*%
X157480000Y-64770000D03*
%TO.P,X1,8*%
%TO.N,+5V*%
X157480000Y-57150000D03*
D11*
%TO.P,X1,1*%
%TO.N,Net-(X1-Pad1)*%
X149860000Y-57150000D03*
%TD*%
D15*
%TO.P,U6,1*%
%TO.N,!RESET*%
X138430000Y-74930000D03*
D16*
%TO.P,U6,3*%
%TO.N,GND*%
X140970000Y-74930000D03*
%TO.P,U6,2*%
%TO.N,+5V*%
X139700000Y-74930000D03*
%TD*%
D17*
%TO.P,SW1,1*%
%TO.N,!RESET*%
X115085000Y-78740000D03*
%TO.P,SW1,2*%
%TO.N,GND*%
X115085000Y-83240000D03*
%TO.P,SW1,1*%
%TO.N,!RESET*%
X108585000Y-78740000D03*
%TO.P,SW1,2*%
%TO.N,GND*%
X108585000Y-83240000D03*
%TD*%
D10*
%TO.P,R2,2*%
%TO.N,!NMI*%
X158750000Y-79375000D03*
D12*
%TO.P,R2,1*%
%TO.N,+5V*%
X148590000Y-79375000D03*
%TD*%
D14*
%TO.P,JP1,1*%
%TO.N,CLK*%
X130810000Y-74930000D03*
D13*
%TO.P,JP1,2*%
%TO.N,CLK1*%
X128270000Y-74930000D03*
%TD*%
D10*
%TO.P,U1,40*%
%TO.N,!RESET*%
X96520000Y-34290000D03*
%TO.P,U1,20*%
%TO.N,A11*%
X81280000Y-82550000D03*
%TO.P,U1,39*%
%TO.N,PHI2*%
X96520000Y-36830000D03*
%TO.P,U1,19*%
%TO.N,A10*%
X81280000Y-80010000D03*
%TO.P,U1,38*%
%TO.N,+5V*%
X96520000Y-39370000D03*
%TO.P,U1,18*%
%TO.N,A9*%
X81280000Y-77470000D03*
%TO.P,U1,37*%
%TO.N,CLK*%
X96520000Y-41910000D03*
%TO.P,U1,17*%
%TO.N,A8*%
X81280000Y-74930000D03*
%TO.P,U1,36*%
%TO.N,+5V*%
X96520000Y-44450000D03*
%TO.P,U1,16*%
%TO.N,A7*%
X81280000Y-72390000D03*
%TO.P,U1,35*%
%TO.N,Net-(U1-Pad35)*%
X96520000Y-46990000D03*
%TO.P,U1,15*%
%TO.N,A6*%
X81280000Y-69850000D03*
%TO.P,U1,34*%
%TO.N,R!W*%
X96520000Y-49530000D03*
%TO.P,U1,14*%
%TO.N,A5*%
X81280000Y-67310000D03*
%TO.P,U1,33*%
%TO.N,D0*%
X96520000Y-52070000D03*
%TO.P,U1,13*%
%TO.N,A4*%
X81280000Y-64770000D03*
%TO.P,U1,32*%
%TO.N,D1*%
X96520000Y-54610000D03*
%TO.P,U1,12*%
%TO.N,A3*%
X81280000Y-62230000D03*
%TO.P,U1,31*%
%TO.N,D2*%
X96520000Y-57150000D03*
%TO.P,U1,11*%
%TO.N,A2*%
X81280000Y-59690000D03*
%TO.P,U1,30*%
%TO.N,D3*%
X96520000Y-59690000D03*
%TO.P,U1,10*%
%TO.N,A1*%
X81280000Y-57150000D03*
%TO.P,U1,29*%
%TO.N,D4*%
X96520000Y-62230000D03*
%TO.P,U1,9*%
%TO.N,A0*%
X81280000Y-54610000D03*
%TO.P,U1,28*%
%TO.N,D5*%
X96520000Y-64770000D03*
%TO.P,U1,8*%
%TO.N,+5V*%
X81280000Y-52070000D03*
%TO.P,U1,27*%
%TO.N,D6*%
X96520000Y-67310000D03*
%TO.P,U1,7*%
%TO.N,Net-(U1-Pad7)*%
X81280000Y-49530000D03*
%TO.P,U1,26*%
%TO.N,D7*%
X96520000Y-69850000D03*
%TO.P,U1,6*%
%TO.N,!NMI*%
X81280000Y-46990000D03*
%TO.P,U1,25*%
%TO.N,!RAM_SELECT*%
X96520000Y-72390000D03*
%TO.P,U1,5*%
%TO.N,Net-(U1-Pad5)*%
X81280000Y-44450000D03*
%TO.P,U1,24*%
%TO.N,A14*%
X96520000Y-74930000D03*
%TO.P,U1,4*%
%TO.N,!IRQ*%
X81280000Y-41910000D03*
%TO.P,U1,23*%
%TO.N,A13*%
X96520000Y-77470000D03*
%TO.P,U1,3*%
%TO.N,PHI1*%
X81280000Y-39370000D03*
%TO.P,U1,22*%
%TO.N,A12*%
X96520000Y-80010000D03*
%TO.P,U1,2*%
%TO.N,RDY*%
X81280000Y-36830000D03*
%TO.P,U1,21*%
%TO.N,GND*%
X96520000Y-82550000D03*
D11*
%TO.P,U1,1*%
%TO.N,Net-(U1-Pad1)*%
X81280000Y-34290000D03*
%TD*%
D14*
%TO.P,J1,1*%
%TO.N,PHI1*%
X71120000Y-34290000D03*
D13*
%TO.P,J1,2*%
%TO.N,PHI2*%
X73660000Y-34290000D03*
%TO.P,J1,3*%
%TO.N,!IRQ*%
X71120000Y-36830000D03*
%TO.P,J1,4*%
%TO.N,!NMI*%
X73660000Y-36830000D03*
%TO.P,J1,5*%
%TO.N,!READ*%
X71120000Y-39370000D03*
%TO.P,J1,6*%
%TO.N,!WRITE*%
X73660000Y-39370000D03*
%TO.P,J1,7*%
%TO.N,R!W*%
X71120000Y-41910000D03*
%TO.P,J1,8*%
%TO.N,!RESET*%
X73660000Y-41910000D03*
%TO.P,J1,9*%
%TO.N,RDY*%
X71120000Y-44450000D03*
%TO.P,J1,10*%
%TO.N,CLK*%
X73660000Y-44450000D03*
%TO.P,J1,11*%
%TO.N,GND*%
X71120000Y-46990000D03*
%TO.P,J1,12*%
X73660000Y-46990000D03*
%TO.P,J1,13*%
%TO.N,A0*%
X71120000Y-49530000D03*
%TO.P,J1,14*%
%TO.N,A1*%
X73660000Y-49530000D03*
%TO.P,J1,15*%
%TO.N,A2*%
X71120000Y-52070000D03*
%TO.P,J1,16*%
%TO.N,A3*%
X73660000Y-52070000D03*
%TO.P,J1,17*%
%TO.N,A4*%
X71120000Y-54610000D03*
%TO.P,J1,18*%
%TO.N,A5*%
X73660000Y-54610000D03*
%TO.P,J1,19*%
%TO.N,A6*%
X71120000Y-57150000D03*
%TO.P,J1,20*%
%TO.N,A7*%
X73660000Y-57150000D03*
%TO.P,J1,21*%
%TO.N,A8*%
X71120000Y-59690000D03*
%TO.P,J1,22*%
%TO.N,A9*%
X73660000Y-59690000D03*
%TO.P,J1,23*%
%TO.N,A10*%
X71120000Y-62230000D03*
%TO.P,J1,24*%
%TO.N,A11*%
X73660000Y-62230000D03*
%TO.P,J1,25*%
%TO.N,A12*%
X71120000Y-64770000D03*
%TO.P,J1,26*%
%TO.N,A13*%
X73660000Y-64770000D03*
%TO.P,J1,27*%
%TO.N,A14*%
X71120000Y-67310000D03*
%TO.P,J1,28*%
%TO.N,!RAM_SELECT*%
X73660000Y-67310000D03*
%TO.P,J1,29*%
%TO.N,D0*%
X71120000Y-69850000D03*
%TO.P,J1,30*%
%TO.N,D1*%
X73660000Y-69850000D03*
%TO.P,J1,31*%
%TO.N,D2*%
X71120000Y-72390000D03*
%TO.P,J1,32*%
%TO.N,D3*%
X73660000Y-72390000D03*
%TO.P,J1,33*%
%TO.N,D4*%
X71120000Y-74930000D03*
%TO.P,J1,34*%
%TO.N,D5*%
X73660000Y-74930000D03*
%TO.P,J1,35*%
%TO.N,D6*%
X71120000Y-77470000D03*
%TO.P,J1,36*%
%TO.N,D7*%
X73660000Y-77470000D03*
%TO.P,J1,37*%
%TO.N,+5V*%
X71120000Y-80010000D03*
%TO.P,J1,38*%
X73660000Y-80010000D03*
%TO.P,J1,39*%
%TO.N,GND*%
X71120000Y-82550000D03*
%TO.P,J1,40*%
X73660000Y-82550000D03*
%TD*%
D18*
%TO.N,+5V*%
X155740500Y-75701500D03*
X86360000Y-44425800D03*
%TO.N,!READ*%
X113460700Y-43324200D03*
%TO.N,R!W*%
X84910000Y-49409800D03*
%TO.N,!RESET*%
X94168600Y-40640000D03*
%TO.N,!RAM_SELECT*%
X143614300Y-62980600D03*
X138539300Y-71062700D03*
%TO.N,A13*%
X105934100Y-74949300D03*
X98308500Y-70163000D03*
%TO.N,A12*%
X161944600Y-71465200D03*
X117514000Y-39118400D03*
X106532600Y-73817600D03*
%TO.N,A11*%
X148417400Y-57257500D03*
%TO.N,A10*%
X147792100Y-57788700D03*
%TO.N,A9*%
X150985400Y-58432400D03*
X106734500Y-75068300D03*
%TO.N,A8*%
X151616800Y-59113100D03*
X140445100Y-43168800D03*
X69850000Y-31115000D03*
%TO.N,A7*%
X158010600Y-32523900D03*
X130100100Y-32523900D03*
%TO.N,A6*%
X130309000Y-60836600D03*
X116231900Y-52999000D03*
X108450200Y-51426100D03*
%TO.N,A5*%
X130446000Y-56478300D03*
X77476700Y-56781600D03*
%TO.N,A4*%
X106293400Y-71629400D03*
X130759300Y-59127300D03*
%TO.N,A3*%
X90437500Y-53999700D03*
%TO.N,A2*%
X155700000Y-47007500D03*
%TO.N,A1*%
X100409500Y-59690000D03*
X95163500Y-55245000D03*
%TO.N,A0*%
X162415700Y-54134800D03*
X95185900Y-51283000D03*
%TO.N,D7*%
X112501700Y-69238900D03*
X92110400Y-78604800D03*
%TO.N,D6*%
X92111100Y-74116200D03*
%TO.N,D5*%
X92123100Y-71161500D03*
X130280300Y-62966400D03*
%TO.N,D3*%
X131877500Y-67310000D03*
X102515500Y-74631500D03*
%TO.N,D2*%
X108125300Y-75855100D03*
%TO.N,D1*%
X90577300Y-55578300D03*
%TO.N,D0*%
X131187100Y-65857600D03*
%TO.N,CLK1*%
X156517000Y-72353600D03*
%TO.N,!ROM_SELECT*%
X128567600Y-48274700D03*
X146194600Y-43035400D03*
%TD*%
D19*
%TO.N,GND*%
X109220000Y-29210000D02*
X91360000Y-29210000D01*
X165100000Y-46990000D02*
X167640000Y-46990000D01*
X149860000Y-49530000D02*
X151130000Y-48260000D01*
X151130000Y-48260000D02*
X163830000Y-48260000D01*
X163830000Y-48260000D02*
X165100000Y-46990000D01*
X96520000Y-82550000D02*
X95266200Y-83803800D01*
X95266200Y-83803800D02*
X74913800Y-83803800D01*
X74913800Y-83803800D02*
X73660000Y-82550000D01*
X108585000Y-83240000D02*
X97210000Y-83240000D01*
X97210000Y-83240000D02*
X96520000Y-82550000D01*
X108585000Y-83240000D02*
X115085000Y-83240000D01*
X73660000Y-82550000D02*
X71120000Y-82550000D01*
X132080000Y-29210000D02*
X133353900Y-27936100D01*
X133353900Y-27936100D02*
X149856100Y-27936100D01*
X149856100Y-27936100D02*
X151130000Y-29210000D01*
X165100000Y-82550000D02*
X167640000Y-82550000D01*
X71120000Y-46990000D02*
X73660000Y-46990000D01*
%TO.N,+5V*%
X155740500Y-75701500D02*
X157509000Y-77470000D01*
X157509000Y-77470000D02*
X162560000Y-77470000D01*
X162560000Y-77470000D02*
X165100000Y-80010000D01*
X148590000Y-75565000D02*
X148726500Y-75701500D01*
X148726500Y-75701500D02*
X155740500Y-75701500D01*
X119380000Y-34290000D02*
X122262100Y-31407900D01*
X122262100Y-31407900D02*
X134882100Y-31407900D01*
X134882100Y-31407900D02*
X137080000Y-29210000D01*
X148022900Y-76132100D02*
X140561800Y-76132100D01*
X140561800Y-76132100D02*
X139700000Y-75270300D01*
X139700000Y-75270300D02*
X139700000Y-74930000D01*
X148590000Y-75565000D02*
X148022900Y-76132100D01*
X148022900Y-76132100D02*
X148590000Y-76699200D01*
X148590000Y-76699200D02*
X148590000Y-79375000D01*
X167640000Y-80010000D02*
X165100000Y-80010000D01*
X148590000Y-79375000D02*
X148590000Y-83185000D01*
X71120000Y-80010000D02*
X73660000Y-80010000D01*
X96520000Y-44450000D02*
X96495800Y-44425800D01*
X96495800Y-44425800D02*
X86360000Y-44425800D01*
X142240000Y-34290000D02*
X143490400Y-35540400D01*
X143490400Y-35540400D02*
X156229600Y-35540400D01*
X156229600Y-35540400D02*
X157480000Y-34290000D01*
D20*
%TO.N,CLK*%
X130810000Y-74930000D02*
X132386100Y-73353900D01*
X132386100Y-73353900D02*
X159788000Y-73353900D01*
X159788000Y-73353900D02*
X162555000Y-76120900D01*
X162555000Y-76120900D02*
X168120000Y-76120900D01*
X168120000Y-76120900D02*
X169306800Y-74934100D01*
X169306800Y-74934100D02*
X169306800Y-46116800D01*
X169306800Y-46116800D02*
X167640000Y-44450000D01*
X73660000Y-44450000D02*
X75010500Y-43099500D01*
X75010500Y-43099500D02*
X95330500Y-43099500D01*
X95330500Y-43099500D02*
X96520000Y-41910000D01*
%TO.N,!READ*%
X119380000Y-54610000D02*
X124708900Y-54610000D01*
X124708900Y-54610000D02*
X125978900Y-53340000D01*
X125978900Y-53340000D02*
X138430000Y-53340000D01*
X138430000Y-53340000D02*
X142240000Y-49530000D01*
X157480000Y-49530000D02*
X156348800Y-50661200D01*
X156348800Y-50661200D02*
X144008100Y-50661200D01*
X144008100Y-50661200D02*
X142876900Y-49530000D01*
X142876900Y-49530000D02*
X142240000Y-49530000D01*
X71120000Y-39370000D02*
X72484600Y-40734600D01*
X72484600Y-40734600D02*
X72484600Y-44975600D01*
X72484600Y-44975600D02*
X73135900Y-45626900D01*
X73135900Y-45626900D02*
X82335000Y-45626900D01*
X82335000Y-45626900D02*
X84412000Y-43549900D01*
X84412000Y-43549900D02*
X95517000Y-43549900D01*
X95517000Y-43549900D02*
X95742700Y-43324200D01*
X95742700Y-43324200D02*
X113460700Y-43324200D01*
X157480000Y-36830000D02*
X160020000Y-39370000D01*
X160020000Y-39370000D02*
X165100000Y-39370000D01*
%TO.N,!WRITE*%
X73660000Y-39370000D02*
X79376900Y-39370000D01*
X79376900Y-39370000D02*
X80646900Y-38100000D01*
X80646900Y-38100000D02*
X127808800Y-38100000D01*
X127808800Y-38100000D02*
X129078800Y-36830000D01*
X129078800Y-36830000D02*
X142240000Y-36830000D01*
X142240000Y-36830000D02*
X144649100Y-36830000D01*
X144649100Y-36830000D02*
X148364500Y-40545400D01*
X148364500Y-40545400D02*
X156115400Y-40545400D01*
X156115400Y-40545400D02*
X157480000Y-41910000D01*
X167640000Y-39370000D02*
X166370000Y-40640000D01*
X166370000Y-40640000D02*
X158750000Y-40640000D01*
X158750000Y-40640000D02*
X157480000Y-41910000D01*
%TO.N,RDY*%
X70716300Y-38100000D02*
X69925700Y-38890600D01*
X69925700Y-38890600D02*
X69925700Y-43255700D01*
X69925700Y-43255700D02*
X71120000Y-44450000D01*
X81280000Y-36830000D02*
X80010000Y-38100000D01*
X80010000Y-38100000D02*
X70716300Y-38100000D01*
X166370000Y-43180000D02*
X165100000Y-44450000D01*
X166370000Y-41500600D02*
X166370000Y-43180000D01*
X167230600Y-40640000D02*
X166370000Y-41500600D01*
X169281600Y-39390800D02*
X168032400Y-40640000D01*
X161714100Y-25984900D02*
X169281600Y-33552400D01*
X168032400Y-40640000D02*
X167230600Y-40640000D01*
X76503688Y-25984900D02*
X161714100Y-25984900D01*
X169281600Y-33552400D02*
X169281600Y-39390800D01*
X69487100Y-33001488D02*
X76503688Y-25984900D01*
X69487100Y-36870800D02*
X69487100Y-33001488D01*
X70716300Y-38100000D02*
X69487100Y-36870800D01*
%TO.N,R!W*%
X84910000Y-49409800D02*
X96399800Y-49409800D01*
X96399800Y-49409800D02*
X96520000Y-49530000D01*
X96520000Y-49530000D02*
X97790000Y-48260000D01*
X97790000Y-48260000D02*
X104535600Y-48260000D01*
X104535600Y-48260000D02*
X107842800Y-44952800D01*
X107842800Y-44952800D02*
X116832300Y-44952800D01*
X116832300Y-44952800D02*
X118605100Y-43180000D01*
X118605100Y-43180000D02*
X119807300Y-43180000D01*
X119807300Y-43180000D02*
X121527700Y-41459600D01*
X121527700Y-41459600D02*
X125547300Y-41459600D01*
X125547300Y-41459600D02*
X126366900Y-40640000D01*
X126366900Y-40640000D02*
X138748300Y-40640000D01*
X138748300Y-40640000D02*
X141154500Y-38233800D01*
X141154500Y-38233800D02*
X143092600Y-38233800D01*
X143092600Y-38233800D02*
X147959400Y-43100600D01*
X147959400Y-43100600D02*
X163909400Y-43100600D01*
X163909400Y-43100600D02*
X165100000Y-41910000D01*
%TO.N,!IRQ*%
X166370000Y-38100000D02*
X165100000Y-36830000D01*
X168831300Y-37315000D02*
X168046300Y-38100000D01*
X168046300Y-38100000D02*
X166370000Y-38100000D01*
X168831300Y-33739000D02*
X168831300Y-37315000D01*
X161527500Y-26435200D02*
X168831300Y-33739000D01*
X76689798Y-26435200D02*
X161527500Y-26435200D01*
X69937400Y-33187598D02*
X76689798Y-26435200D01*
X71120000Y-36830000D02*
X69937400Y-35647400D01*
X69937400Y-35647400D02*
X69937400Y-33187598D01*
%TO.N,!RESET*%
X115085000Y-78740000D02*
X134620000Y-78740000D01*
X134620000Y-78740000D02*
X138430000Y-74930000D01*
X108585000Y-78740000D02*
X115085000Y-78740000D01*
X138430000Y-74930000D02*
X138430000Y-74764600D01*
X138430000Y-74764600D02*
X139390300Y-73804300D01*
X139390300Y-73804300D02*
X154763700Y-73804300D01*
X154763700Y-73804300D02*
X157704600Y-76745200D01*
X157704600Y-76745200D02*
X162648900Y-76745200D01*
X162648900Y-76745200D02*
X164578000Y-78674300D01*
X164578000Y-78674300D02*
X168106200Y-78674300D01*
X168106200Y-78674300D02*
X169757200Y-77023300D01*
X169757200Y-77023300D02*
X169757200Y-44027200D01*
X169757200Y-44027200D02*
X167640000Y-41910000D01*
X73660000Y-41910000D02*
X74930000Y-40640000D01*
X74930000Y-40640000D02*
X94168600Y-40640000D01*
%TO.N,PHI2*%
X96520000Y-36830000D02*
X97676000Y-35674000D01*
X97676000Y-35674000D02*
X142742500Y-35674000D01*
X142742500Y-35674000D02*
X143184300Y-36115800D01*
X143184300Y-36115800D02*
X145462600Y-36115800D01*
X145462600Y-36115800D02*
X147302200Y-37955400D01*
X147302200Y-37955400D02*
X156065400Y-37955400D01*
X156065400Y-37955400D02*
X157480000Y-39370000D01*
X73660000Y-34290000D02*
X74785400Y-35415400D01*
X74785400Y-35415400D02*
X95105400Y-35415400D01*
X95105400Y-35415400D02*
X96520000Y-36830000D01*
%TO.N,PHI1*%
X165100000Y-34290000D02*
X157696400Y-26886400D01*
X157696400Y-26886400D02*
X78523600Y-26886400D01*
X78523600Y-26886400D02*
X71120000Y-34290000D01*
%TO.N,!RAM_SELECT*%
X167640000Y-67310000D02*
X166370000Y-66040000D01*
X166370000Y-66040000D02*
X163431800Y-66040000D01*
X163431800Y-66040000D02*
X160522600Y-63130800D01*
X160522600Y-63130800D02*
X143764500Y-63130800D01*
X143764500Y-63130800D02*
X143614300Y-62980600D01*
X138539300Y-71062700D02*
X113257100Y-71062700D01*
X113257100Y-71062700D02*
X111577800Y-72742000D01*
X111577800Y-72742000D02*
X106087000Y-72742000D01*
X106087000Y-72742000D02*
X104861200Y-73967800D01*
X104861200Y-73967800D02*
X98097800Y-73967800D01*
X98097800Y-73967800D02*
X96520000Y-72390000D01*
X73660000Y-67310000D02*
X74787300Y-66182700D01*
X74787300Y-66182700D02*
X90312700Y-66182700D01*
X90312700Y-66182700D02*
X96520000Y-72390000D01*
%TO.N,A14*%
X96520000Y-74930000D02*
X96520000Y-74655100D01*
X96520000Y-74655100D02*
X90379000Y-68514100D01*
X90379000Y-68514100D02*
X72324100Y-68514100D01*
X72324100Y-68514100D02*
X71120000Y-67310000D01*
X127000000Y-34290000D02*
X128125400Y-33164600D01*
X128125400Y-33164600D02*
X148734600Y-33164600D01*
X148734600Y-33164600D02*
X149860000Y-34290000D01*
%TO.N,A13*%
X96520000Y-77470000D02*
X103413400Y-77470000D01*
X103413400Y-77470000D02*
X105934100Y-74949300D01*
X73660000Y-64770000D02*
X77515800Y-64770000D01*
X77515800Y-64770000D02*
X78655200Y-63630600D01*
X78655200Y-63630600D02*
X91040400Y-63630600D01*
X91040400Y-63630600D02*
X95989800Y-68580000D01*
X95989800Y-68580000D02*
X96955500Y-68580000D01*
X96955500Y-68580000D02*
X98308500Y-69933000D01*
X98308500Y-69933000D02*
X98308500Y-70163000D01*
X142240000Y-39370000D02*
X138375500Y-43234500D01*
X138375500Y-43234500D02*
X120595500Y-43234500D01*
X120595500Y-43234500D02*
X119380000Y-44450000D01*
%TO.N,A12*%
X107359800Y-74324100D02*
X126102500Y-74324100D01*
X126102500Y-74324100D02*
X128698300Y-71728300D01*
X128698300Y-71728300D02*
X161681500Y-71728300D01*
X161681500Y-71728300D02*
X161944600Y-71465200D01*
X107359800Y-74324100D02*
X106853300Y-73817600D01*
X106853300Y-73817600D02*
X106532600Y-73817600D01*
X96520000Y-80010000D02*
X102677200Y-80010000D01*
X102677200Y-80010000D02*
X107359800Y-75327400D01*
X107359800Y-75327400D02*
X107359800Y-74324100D01*
X104140000Y-41910000D02*
X114722400Y-41910000D01*
X114722400Y-41910000D02*
X117514000Y-39118400D01*
%TO.N,A11*%
X73660000Y-62230000D02*
X77602100Y-58287900D01*
X77602100Y-58287900D02*
X82363800Y-58287900D01*
X82363800Y-58287900D02*
X83501700Y-57150000D01*
X83501700Y-57150000D02*
X94143000Y-57150000D01*
X94143000Y-57150000D02*
X95413000Y-55880000D01*
X95413000Y-55880000D02*
X104773100Y-55880000D01*
X104773100Y-55880000D02*
X106943200Y-53709900D01*
X106943200Y-53709900D02*
X116480200Y-53709900D01*
X116480200Y-53709900D02*
X118120100Y-52070000D01*
X118120100Y-52070000D02*
X119380000Y-52070000D01*
X167640000Y-62230000D02*
X166370000Y-60960000D01*
X166370000Y-60960000D02*
X151606400Y-60960000D01*
X151606400Y-60960000D02*
X148417400Y-57771000D01*
X148417400Y-57771000D02*
X148417400Y-57257500D01*
X142240000Y-46990000D02*
X138574600Y-50655400D01*
X138574600Y-50655400D02*
X120794600Y-50655400D01*
X120794600Y-50655400D02*
X119380000Y-52070000D01*
%TO.N,A10*%
X142240000Y-52070000D02*
X138503300Y-55806700D01*
X138503300Y-55806700D02*
X126121600Y-55806700D01*
X126121600Y-55806700D02*
X125644900Y-56283400D01*
X125644900Y-56283400D02*
X120246600Y-56283400D01*
X120246600Y-56283400D02*
X119380000Y-57150000D01*
X165100000Y-62230000D02*
X152233400Y-62230000D01*
X152233400Y-62230000D02*
X147792100Y-57788700D01*
X71120000Y-62230000D02*
X72296400Y-63406400D01*
X72296400Y-63406400D02*
X76520600Y-63406400D01*
X76520600Y-63406400D02*
X78967000Y-60960000D01*
X78967000Y-60960000D02*
X104461500Y-60960000D01*
X104461500Y-60960000D02*
X108271500Y-57150000D01*
X108271500Y-57150000D02*
X119380000Y-57150000D01*
%TO.N,A9*%
X81280000Y-77470000D02*
X92561700Y-77470000D01*
X92561700Y-77470000D02*
X93701100Y-78609400D01*
X93701100Y-78609400D02*
X103193400Y-78609400D01*
X103193400Y-78609400D02*
X106734500Y-75068300D01*
X119380000Y-49530000D02*
X119830400Y-49079600D01*
X119830400Y-49079600D02*
X125547300Y-49079600D01*
X125547300Y-49079600D02*
X126253900Y-48373000D01*
X126253900Y-48373000D02*
X127781600Y-48373000D01*
X127781600Y-48373000D02*
X128308600Y-48900000D01*
X128308600Y-48900000D02*
X137790000Y-48900000D01*
X137790000Y-48900000D02*
X142240000Y-44450000D01*
X167640000Y-59690000D02*
X166382400Y-58432400D01*
X166382400Y-58432400D02*
X150985400Y-58432400D01*
%TO.N,A8*%
X165100000Y-59690000D02*
X164523100Y-59113100D01*
X164523100Y-59113100D02*
X151616800Y-59113100D01*
X71120000Y-59690000D02*
X69036800Y-57606800D01*
X69036800Y-57606800D02*
X69036800Y-33143200D01*
X140445100Y-43168800D02*
X138038500Y-45575400D01*
X138038500Y-45575400D02*
X126823000Y-45575400D01*
X126823000Y-45575400D02*
X125408400Y-46990000D01*
X125408400Y-46990000D02*
X119380000Y-46990000D01*
X142240000Y-41910000D02*
X141703900Y-41910000D01*
X141703900Y-41910000D02*
X140445100Y-43168800D01*
X69036800Y-31928200D02*
X69850000Y-31115000D01*
X69036800Y-33143200D02*
X69036800Y-31928200D01*
%TO.N,A7*%
X104140000Y-44450000D02*
X102870000Y-45720000D01*
X102870000Y-45720000D02*
X88034700Y-45720000D01*
X88034700Y-45720000D02*
X85420500Y-48334200D01*
X85420500Y-48334200D02*
X80868900Y-48334200D01*
X80868900Y-48334200D02*
X78488100Y-50715000D01*
X78488100Y-50715000D02*
X78488100Y-52321900D01*
X78488100Y-52321900D02*
X73660000Y-57150000D01*
X158010600Y-32523900D02*
X130100100Y-32523900D01*
X104140000Y-44450000D02*
X113231000Y-44450000D01*
X113231000Y-44450000D02*
X116896400Y-40784600D01*
X116896400Y-40784600D02*
X125585400Y-40784600D01*
X125585400Y-40784600D02*
X127000000Y-39370000D01*
%TO.N,A6*%
X130309000Y-60836600D02*
X142805300Y-60836600D01*
X142805300Y-60836600D02*
X147685900Y-55956000D01*
X147685900Y-55956000D02*
X163906000Y-55956000D01*
X163906000Y-55956000D02*
X165100000Y-57150000D01*
X104140000Y-46990000D02*
X98423100Y-46990000D01*
X98423100Y-46990000D02*
X97152900Y-48260200D01*
X97152900Y-48260200D02*
X91578800Y-48260200D01*
X91578800Y-48260200D02*
X91054500Y-48784500D01*
X91054500Y-48784500D02*
X84651000Y-48784500D01*
X84651000Y-48784500D02*
X82635600Y-50799900D01*
X82635600Y-50799900D02*
X82635600Y-50800000D01*
X82635600Y-50800000D02*
X80946100Y-50800000D01*
X80946100Y-50800000D02*
X79688600Y-52057500D01*
X79688600Y-52057500D02*
X79688600Y-52801700D01*
X79688600Y-52801700D02*
X74138900Y-58351400D01*
X74138900Y-58351400D02*
X72321400Y-58351400D01*
X72321400Y-58351400D02*
X71120000Y-57150000D01*
X108450200Y-51426100D02*
X114659000Y-51426100D01*
X114659000Y-51426100D02*
X116231900Y-52999000D01*
%TO.N,A5*%
X167640000Y-54610000D02*
X166449400Y-53419400D01*
X166449400Y-53419400D02*
X141527500Y-53419400D01*
X141527500Y-53419400D02*
X138468600Y-56478300D01*
X138468600Y-56478300D02*
X130446000Y-56478300D01*
X104140000Y-49530000D02*
X103012300Y-50657700D01*
X103012300Y-50657700D02*
X84291600Y-50657700D01*
X84291600Y-50657700D02*
X81609300Y-53340000D01*
X81609300Y-53340000D02*
X80918300Y-53340000D01*
X80918300Y-53340000D02*
X77476700Y-56781600D01*
X104140000Y-49530000D02*
X107805400Y-45864600D01*
X107805400Y-45864600D02*
X125585400Y-45864600D01*
X125585400Y-45864600D02*
X127000000Y-44450000D01*
%TO.N,A4*%
X81280000Y-64770000D02*
X89536900Y-64770000D01*
X89536900Y-64770000D02*
X95886900Y-71120000D01*
X95886900Y-71120000D02*
X96841600Y-71120000D01*
X96841600Y-71120000D02*
X99239000Y-73517400D01*
X99239000Y-73517400D02*
X104674700Y-73517400D01*
X104674700Y-73517400D02*
X106293400Y-71898700D01*
X106293400Y-71898700D02*
X106293400Y-71629400D01*
X130759300Y-59127300D02*
X140899600Y-59127300D01*
X140899600Y-59127300D02*
X141606900Y-58420000D01*
X141606900Y-58420000D02*
X143365400Y-58420000D01*
X143365400Y-58420000D02*
X146513100Y-55272300D01*
X146513100Y-55272300D02*
X164437700Y-55272300D01*
X164437700Y-55272300D02*
X165100000Y-54610000D01*
X104140000Y-52070000D02*
X107805500Y-48404500D01*
X107805500Y-48404500D02*
X125585500Y-48404500D01*
X125585500Y-48404500D02*
X127000000Y-46990000D01*
%TO.N,A3*%
X127000000Y-49530000D02*
X137796900Y-49530000D01*
X137796900Y-49530000D02*
X141556600Y-45770300D01*
X141556600Y-45770300D02*
X168091000Y-45770300D01*
X168091000Y-45770300D02*
X168856400Y-46535700D01*
X168856400Y-46535700D02*
X168856400Y-50853600D01*
X168856400Y-50853600D02*
X167640000Y-52070000D01*
X104140000Y-54610000D02*
X107949200Y-50800800D01*
X107949200Y-50800800D02*
X119909600Y-50800800D01*
X119909600Y-50800800D02*
X121180400Y-49530000D01*
X121180400Y-49530000D02*
X127000000Y-49530000D01*
X90437500Y-53999700D02*
X90967300Y-53469900D01*
X90967300Y-53469900D02*
X102999900Y-53469900D01*
X102999900Y-53469900D02*
X104140000Y-54610000D01*
%TO.N,A2*%
X104140000Y-57150000D02*
X106015200Y-55274800D01*
X106015200Y-55274800D02*
X115770400Y-55274800D01*
X115770400Y-55274800D02*
X117705200Y-53340000D01*
X117705200Y-53340000D02*
X125093200Y-53340000D01*
X125093200Y-53340000D02*
X126363200Y-52070000D01*
X126363200Y-52070000D02*
X127000000Y-52070000D01*
X155700000Y-47007500D02*
X151568800Y-47007500D01*
X151568800Y-47007500D02*
X150460900Y-48115400D01*
X150460900Y-48115400D02*
X142063000Y-48115400D01*
X142063000Y-48115400D02*
X138108400Y-52070000D01*
X138108400Y-52070000D02*
X127000000Y-52070000D01*
X81280000Y-59690000D02*
X81916800Y-59690000D01*
X81916800Y-59690000D02*
X83186800Y-58420000D01*
X83186800Y-58420000D02*
X102870000Y-58420000D01*
X102870000Y-58420000D02*
X104140000Y-57150000D01*
%TO.N,A1*%
X100409500Y-59690000D02*
X104140000Y-59690000D01*
X81280000Y-57150000D02*
X81873700Y-56556300D01*
X81873700Y-56556300D02*
X93852200Y-56556300D01*
X93852200Y-56556300D02*
X95163500Y-55245000D01*
X127000000Y-54610000D02*
X137816700Y-54610000D01*
X137816700Y-54610000D02*
X141484100Y-50942600D01*
X141484100Y-50942600D02*
X143334300Y-50942600D01*
X143334300Y-50942600D02*
X143503300Y-51111600D01*
X143503300Y-51111600D02*
X160240400Y-51111600D01*
X160240400Y-51111600D02*
X160552000Y-50800000D01*
X160552000Y-50800000D02*
X166370000Y-50800000D01*
X166370000Y-50800000D02*
X167640000Y-49530000D01*
X104140000Y-59690000D02*
X108094600Y-55735400D01*
X108094600Y-55735400D02*
X125237800Y-55735400D01*
X125237800Y-55735400D02*
X126363200Y-54610000D01*
X126363200Y-54610000D02*
X127000000Y-54610000D01*
%TO.N,A0*%
X127000000Y-57150000D02*
X138715500Y-57150000D01*
X138715500Y-57150000D02*
X139840900Y-56024600D01*
X139840900Y-56024600D02*
X143569200Y-56024600D01*
X143569200Y-56024600D02*
X145459000Y-54134800D01*
X145459000Y-54134800D02*
X162415700Y-54134800D01*
X104140000Y-62230000D02*
X107950000Y-58420000D01*
X107950000Y-58420000D02*
X120267000Y-58420000D01*
X120267000Y-58420000D02*
X121537000Y-57150000D01*
X121537000Y-57150000D02*
X127000000Y-57150000D01*
X81280000Y-54610000D02*
X84607000Y-51283000D01*
X84607000Y-51283000D02*
X95185900Y-51283000D01*
%TO.N,D7*%
X96520000Y-69850000D02*
X97663800Y-70993800D01*
X97663800Y-70993800D02*
X110746800Y-70993800D01*
X110746800Y-70993800D02*
X112501700Y-69238900D01*
X119380000Y-62230000D02*
X123108000Y-58502000D01*
X123108000Y-58502000D02*
X140888000Y-58502000D01*
X140888000Y-58502000D02*
X142240000Y-57150000D01*
X73660000Y-77470000D02*
X74794800Y-78604800D01*
X74794800Y-78604800D02*
X92110400Y-78604800D01*
%TO.N,D6*%
X142240000Y-59690000D02*
X142177400Y-59752600D01*
X142177400Y-59752600D02*
X130454000Y-59752600D01*
X130454000Y-59752600D02*
X129359400Y-60847200D01*
X129359400Y-60847200D02*
X126479700Y-60847200D01*
X126479700Y-60847200D02*
X122556900Y-64770000D01*
X122556900Y-64770000D02*
X119380000Y-64770000D01*
X96520000Y-67310000D02*
X95380700Y-66170700D01*
X95380700Y-66170700D02*
X95380700Y-64314400D01*
X95380700Y-64314400D02*
X96093300Y-63601800D01*
X96093300Y-63601800D02*
X99388800Y-63601800D01*
X99388800Y-63601800D02*
X101694900Y-65907900D01*
X101694900Y-65907900D02*
X105860600Y-65907900D01*
X105860600Y-65907900D02*
X106998500Y-64770000D01*
X106998500Y-64770000D02*
X119380000Y-64770000D01*
X71120000Y-77470000D02*
X72390000Y-76200000D01*
X72390000Y-76200000D02*
X90027300Y-76200000D01*
X90027300Y-76200000D02*
X92111100Y-74116200D01*
%TO.N,D5*%
X119380000Y-67310000D02*
X118249500Y-68440500D01*
X118249500Y-68440500D02*
X100190500Y-68440500D01*
X100190500Y-68440500D02*
X96520000Y-64770000D01*
X73660000Y-74930000D02*
X72484600Y-73754600D01*
X72484600Y-73754600D02*
X72484600Y-71864400D01*
X72484600Y-71864400D02*
X73187500Y-71161500D01*
X73187500Y-71161500D02*
X92123100Y-71161500D01*
X130280300Y-62966400D02*
X131016700Y-62230000D01*
X131016700Y-62230000D02*
X142240000Y-62230000D01*
X142240000Y-62230000D02*
X151077000Y-62230000D01*
X151077000Y-62230000D02*
X151527400Y-62680400D01*
X151527400Y-62680400D02*
X162073300Y-62680400D01*
X162073300Y-62680400D02*
X162892900Y-63500000D01*
X162892900Y-63500000D02*
X168075100Y-63500000D01*
X168075100Y-63500000D02*
X168856400Y-64281300D01*
X168856400Y-64281300D02*
X168856400Y-73713600D01*
X168856400Y-73713600D02*
X167640000Y-74930000D01*
%TO.N,D4*%
X165100000Y-74930000D02*
X163269400Y-73099400D01*
X163269400Y-73099400D02*
X163269400Y-72876100D01*
X163269400Y-72876100D02*
X163234200Y-72840900D01*
X163234200Y-72840900D02*
X163234200Y-72802900D01*
X163234200Y-72802900D02*
X163216600Y-72785300D01*
X163216600Y-72785300D02*
X163216600Y-72739400D01*
X163216600Y-72739400D02*
X162837500Y-72360300D01*
X162837500Y-72360300D02*
X162837500Y-72125600D01*
X162837500Y-72125600D02*
X162796200Y-72084300D01*
X162796200Y-72084300D02*
X162796200Y-71967400D01*
X162796200Y-71967400D02*
X162759600Y-71930800D01*
X162759600Y-71930800D02*
X162759600Y-71831400D01*
X162759600Y-71831400D02*
X162723000Y-71794800D01*
X162723000Y-71794800D02*
X162723000Y-71729600D01*
X162723000Y-71729600D02*
X162686400Y-71693000D01*
X162686400Y-71693000D02*
X162686400Y-71660400D01*
X162686400Y-71660400D02*
X162649800Y-71623800D01*
X162649800Y-71623800D02*
X162649800Y-71566600D01*
X162649800Y-71566600D02*
X162626600Y-71543400D01*
X162626600Y-71543400D02*
X162626600Y-71331200D01*
X162626600Y-71331200D02*
X162590000Y-71294600D01*
X162590000Y-71294600D02*
X162590000Y-71252500D01*
X162590000Y-71252500D02*
X162569900Y-71232400D01*
X162569900Y-71232400D02*
X162569900Y-71206100D01*
X162569900Y-71206100D02*
X162203700Y-70839900D01*
X162203700Y-70839900D02*
X142267500Y-70839900D01*
X142267500Y-70839900D02*
X141283300Y-69855700D01*
X141283300Y-69855700D02*
X127919000Y-69855700D01*
X127919000Y-69855700D02*
X124112000Y-66048600D01*
X124112000Y-66048600D02*
X126550600Y-63610000D01*
X126550600Y-63610000D02*
X127431600Y-63610000D01*
X127431600Y-63610000D02*
X128591600Y-64770000D01*
X128591600Y-64770000D02*
X142240000Y-64770000D01*
X119380000Y-69850000D02*
X120016900Y-69850000D01*
X120016900Y-69850000D02*
X121054500Y-68812400D01*
X121054500Y-68812400D02*
X121348200Y-68812400D01*
X121348200Y-68812400D02*
X124112000Y-66048600D01*
%TO.N,D3*%
X167640000Y-72390000D02*
X166327000Y-71077000D01*
X166327000Y-71077000D02*
X163714600Y-71077000D01*
X163714600Y-71077000D02*
X159947600Y-67310000D01*
X159947600Y-67310000D02*
X142240000Y-67310000D01*
X119380000Y-72390000D02*
X118577700Y-73192300D01*
X118577700Y-73192300D02*
X106273600Y-73192300D01*
X106273600Y-73192300D02*
X104834400Y-74631500D01*
X104834400Y-74631500D02*
X102515500Y-74631500D01*
X102515500Y-74631500D02*
X101040100Y-76106900D01*
X101040100Y-76106900D02*
X96075800Y-76106900D01*
X96075800Y-76106900D02*
X93413400Y-73444500D01*
X93413400Y-73444500D02*
X90889800Y-73444500D01*
X90889800Y-73444500D02*
X90808200Y-73526100D01*
X90808200Y-73526100D02*
X74796100Y-73526100D01*
X74796100Y-73526100D02*
X73660000Y-72390000D01*
X142240000Y-67310000D02*
X131877500Y-67310000D01*
%TO.N,D2*%
X165100000Y-72390000D02*
X164390700Y-72390000D01*
X164390700Y-72390000D02*
X160621900Y-68621200D01*
X160621900Y-68621200D02*
X130851200Y-68621200D01*
X130851200Y-68621200D02*
X127000000Y-64770000D01*
X71120000Y-72390000D02*
X69925700Y-73584300D01*
X69925700Y-73584300D02*
X69925700Y-77949400D01*
X69925700Y-77949400D02*
X70716300Y-78740000D01*
X70716300Y-78740000D02*
X74172700Y-78740000D01*
X74172700Y-78740000D02*
X76582100Y-81149400D01*
X76582100Y-81149400D02*
X102831000Y-81149400D01*
X102831000Y-81149400D02*
X108125300Y-75855100D01*
%TO.N,D1*%
X104140000Y-67310000D02*
X111216600Y-67310000D01*
X111216600Y-67310000D02*
X112486600Y-66040000D01*
X112486600Y-66040000D02*
X123190000Y-66040000D01*
X123190000Y-66040000D02*
X127000000Y-62230000D01*
X127000000Y-62230000D02*
X128401300Y-63631300D01*
X128401300Y-63631300D02*
X159560900Y-63631300D01*
X159560900Y-63631300D02*
X164509600Y-68580000D01*
X164509600Y-68580000D02*
X166370000Y-68580000D01*
X166370000Y-68580000D02*
X167640000Y-69850000D01*
X90577300Y-55578300D02*
X91545600Y-54610000D01*
X91545600Y-54610000D02*
X96520000Y-54610000D01*
%TO.N,D0*%
X71120000Y-69850000D02*
X69900200Y-68630200D01*
X69900200Y-68630200D02*
X69900200Y-61719400D01*
X69900200Y-61719400D02*
X70659600Y-60960000D01*
X70659600Y-60960000D02*
X74182800Y-60960000D01*
X74182800Y-60960000D02*
X79407400Y-55735400D01*
X79407400Y-55735400D02*
X84839700Y-55735400D01*
X84839700Y-55735400D02*
X88505100Y-52070000D01*
X88505100Y-52070000D02*
X96520000Y-52070000D01*
X104140000Y-64770000D02*
X105410000Y-63500000D01*
X105410000Y-63500000D02*
X123190000Y-63500000D01*
X123190000Y-63500000D02*
X127000000Y-59690000D01*
X165100000Y-69850000D02*
X161290000Y-66040000D01*
X161290000Y-66040000D02*
X131369500Y-66040000D01*
X131369500Y-66040000D02*
X131187100Y-65857600D01*
%TO.N,!NMI*%
X73660000Y-36830000D02*
X72452200Y-35622200D01*
X72452200Y-35622200D02*
X72452200Y-33819600D01*
X72452200Y-33819600D02*
X78935000Y-27336800D01*
X78935000Y-27336800D02*
X155925100Y-27336800D01*
X155925100Y-27336800D02*
X164053700Y-35465400D01*
X164053700Y-35465400D02*
X166275400Y-35465400D01*
X166275400Y-35465400D02*
X167640000Y-36830000D01*
%TO.N,CLK1*%
X128270000Y-74930000D02*
X130846400Y-72353600D01*
X130846400Y-72353600D02*
X156517000Y-72353600D01*
%TO.N,!ROM_SELECT*%
X146194600Y-43035400D02*
X141655900Y-43035400D01*
X141655900Y-43035400D02*
X136416600Y-48274700D01*
X136416600Y-48274700D02*
X128567600Y-48274700D01*
%TD*%
M02*
