M48
; DRILL file {KiCad 5.1.9-73d0e3b20d~88~ubuntu20.04.1} date Sat Jan 16 15:58:40 2021
; FORMAT={-:-/ absolute / inch / decimal}
; #@! TF.CreationDate,2021-01-16T15:58:40+00:00
; #@! TF.GenerationSoftware,Kicad,Pcbnew,5.1.9-73d0e3b20d~88~ubuntu20.04.1
; #@! TF.FileFunction,Plated,1,2,PTH
FMAT,2
INCH
T1C0.0118
T2C0.0295
T3C0.0315
T4C0.0394
T5C0.0433
%
G90
G05
T1
X2.75Y-1.225
X3.0503Y-2.2355
X3.3429Y-1.9453
X3.4Y-1.749
X3.5605Y-2.126
X3.566Y-2.1881
X3.6264Y-3.0947
X3.6264Y-2.918
X3.6269Y-2.8016
X3.7074Y-1.6
X3.7466Y-2.175
X3.7475Y-2.019
X3.8704Y-2.7623
X3.9531Y-2.35
X4.036Y-2.9382
X4.1706Y-2.9508
X4.1848Y-2.8201
X4.1942Y-2.9062
X4.2021Y-2.9554
X4.2569Y-2.9864
X4.2697Y-2.0246
X4.4292Y-2.7259
X4.467Y-1.7057
X4.5761Y-2.0866
X4.6265Y-1.5401
X5.0617Y-1.9006
X5.1221Y-1.2805
X5.1291Y-2.479
X5.1303Y-2.3951
X5.1357Y-2.2236
X5.148Y-2.3278
X5.1648Y-2.5928
X5.192Y-2.65
X5.4543Y-2.7977
X5.5293Y-1.6996
X5.6541Y-2.4796
X5.7557Y-1.6943
X5.8186Y-2.2751
X5.8432Y-2.2542
X5.9443Y-2.3005
X5.9692Y-2.3273
X6.1299Y-1.8507
X6.1315Y-2.9804
X6.1621Y-2.8486
X6.2209Y-1.2805
X6.3758Y-2.8136
X6.3943Y-2.1313
T2
X5.45Y-2.95
X5.5Y-2.95
X5.55Y-2.95
T3
X3.2Y-1.35
X3.2Y-1.45
X3.2Y-1.55
X3.2Y-1.65
X3.2Y-1.75
X3.2Y-1.85
X3.2Y-1.95
X3.2Y-2.05
X3.2Y-2.15
X3.2Y-2.25
X3.2Y-2.35
X3.2Y-2.45
X3.2Y-2.55
X3.2Y-2.65
X3.2Y-2.75
X3.2Y-2.85
X3.2Y-2.95
X3.2Y-3.05
X3.2Y-3.15
X3.2Y-3.25
X3.4Y-1.15
X3.5969Y-1.15
X3.8Y-1.35
X3.8Y-1.45
X3.8Y-1.55
X3.8Y-1.65
X3.8Y-1.75
X3.8Y-1.85
X3.8Y-1.95
X3.8Y-2.05
X3.8Y-2.15
X3.8Y-2.25
X3.8Y-2.35
X3.8Y-2.45
X3.8Y-2.55
X3.8Y-2.65
X3.8Y-2.75
X3.8Y-2.85
X3.8Y-2.95
X3.8Y-3.05
X3.8Y-3.15
X3.8Y-3.25
X4.1Y-1.35
X4.1Y-1.45
X4.1Y-1.55
X4.1Y-1.65
X4.1Y-1.75
X4.1Y-1.85
X4.1Y-1.95
X4.1Y-2.05
X4.1Y-2.15
X4.1Y-2.25
X4.1Y-2.35
X4.1Y-2.45
X4.1Y-2.55
X4.1Y-2.65
X4.1Y-2.75
X4.1Y-2.85
X4.3Y-1.15
X4.4969Y-1.15
X4.7Y-1.35
X4.7Y-1.45
X4.7Y-1.55
X4.7Y-1.65
X4.7Y-1.75
X4.7Y-1.85
X4.7Y-1.95
X4.7Y-2.05
X4.7Y-2.15
X4.7Y-2.25
X4.7Y-2.35
X4.7Y-2.45
X4.7Y-2.55
X4.7Y-2.65
X4.7Y-2.75
X4.7Y-2.85
X5.0Y-1.35
X5.0Y-1.45
X5.0Y-1.55
X5.0Y-1.65
X5.0Y-1.75
X5.0Y-1.85
X5.0Y-1.95
X5.0Y-2.05
X5.0Y-2.15
X5.0Y-2.25
X5.0Y-2.35
X5.0Y-2.45
X5.0Y-2.55
X5.0Y-2.65
X5.2Y-1.15
X5.3969Y-1.15
X5.6Y-1.35
X5.6Y-1.45
X5.6Y-1.55
X5.6Y-1.65
X5.6Y-1.75
X5.6Y-1.85
X5.6Y-1.95
X5.6Y-2.05
X5.6Y-2.15
X5.6Y-2.25
X5.6Y-2.35
X5.6Y-2.45
X5.6Y-2.55
X5.6Y-2.65
X5.85Y-2.975
X5.85Y-3.125
X5.85Y-3.275
X5.9Y-1.35
X5.9Y-1.45
X5.9Y-1.55
X5.9Y-1.65
X5.9Y-1.75
X5.9Y-1.85
X5.9Y-1.95
X5.9Y-2.25
X5.9Y-2.55
X5.95Y-1.15
X6.1469Y-1.15
X6.2Y-1.35
X6.2Y-1.45
X6.2Y-1.55
X6.2Y-1.65
X6.2Y-1.75
X6.2Y-1.85
X6.2Y-1.95
X6.2Y-2.25
X6.2Y-2.55
X6.25Y-2.975
X6.25Y-3.125
X6.25Y-3.275
T4
X2.8Y-1.35
X2.8Y-1.45
X2.8Y-1.55
X2.8Y-1.65
X2.8Y-1.75
X2.8Y-1.85
X2.8Y-1.95
X2.8Y-2.05
X2.8Y-2.15
X2.8Y-2.25
X2.8Y-2.35
X2.8Y-2.45
X2.8Y-2.55
X2.8Y-2.65
X2.8Y-2.75
X2.8Y-2.85
X2.8Y-2.95
X2.8Y-3.05
X2.8Y-3.15
X2.8Y-3.25
X2.9Y-1.35
X2.9Y-1.45
X2.9Y-1.55
X2.9Y-1.65
X2.9Y-1.75
X2.9Y-1.85
X2.9Y-1.95
X2.9Y-2.05
X2.9Y-2.15
X2.9Y-2.25
X2.9Y-2.35
X2.9Y-2.45
X2.9Y-2.55
X2.9Y-2.65
X2.9Y-2.75
X2.9Y-2.85
X2.9Y-2.95
X2.9Y-3.05
X2.9Y-3.15
X2.9Y-3.25
X5.05Y-2.95
X5.15Y-2.95
X6.5Y-1.35
X6.5Y-1.45
X6.5Y-1.55
X6.5Y-1.65
X6.5Y-1.75
X6.5Y-1.85
X6.5Y-1.95
X6.5Y-2.05
X6.5Y-2.15
X6.5Y-2.25
X6.5Y-2.35
X6.5Y-2.45
X6.5Y-2.55
X6.5Y-2.65
X6.5Y-2.75
X6.5Y-2.85
X6.5Y-2.95
X6.5Y-3.05
X6.5Y-3.15
X6.5Y-3.25
X6.6Y-1.35
X6.6Y-1.45
X6.6Y-1.55
X6.6Y-1.65
X6.6Y-1.75
X6.6Y-1.85
X6.6Y-1.95
X6.6Y-2.05
X6.6Y-2.15
X6.6Y-2.25
X6.6Y-2.35
X6.6Y-2.45
X6.6Y-2.55
X6.6Y-2.65
X6.6Y-2.75
X6.6Y-2.85
X6.6Y-2.95
X6.6Y-3.05
X6.6Y-3.15
X6.6Y-3.25
T5
X4.275Y-3.1
X4.275Y-3.2772
X4.5309Y-3.1
X4.5309Y-3.2772
T0
M30
