%TF.GenerationSoftware,KiCad,Pcbnew,(5.1.8)-1*%
%TF.CreationDate,2020-12-28T18:03:08+00:00*%
%TF.ProjectId,main-board,6d61696e-2d62-46f6-9172-642e6b696361,rev?*%
%TF.SameCoordinates,Original*%
%TF.FileFunction,Soldermask,Bot*%
%TF.FilePolarity,Negative*%
%FSLAX46Y46*%
G04 Gerber Fmt 4.6, Leading zero omitted, Abs format (unit mm)*
G04 Created by KiCad (PCBNEW (5.1.8)-1) date 2020-12-28 18:03:08*
%MOMM*%
%LPD*%
G01*
G04 APERTURE LIST*
%ADD10O,1.600000X1.600000*%
%ADD11C,1.600000*%
%ADD12O,1.700000X1.700000*%
%ADD13R,1.700000X1.700000*%
%ADD14R,1.600000X1.600000*%
%ADD15R,1.050000X1.500000*%
%ADD16O,1.050000X1.500000*%
%ADD17C,2.000000*%
G04 APERTURE END LIST*
D10*
%TO.C,R3*%
X158750000Y-83185000D03*
D11*
X148590000Y-83185000D03*
%TD*%
D10*
%TO.C,R1*%
X158750000Y-75565000D03*
D11*
X148590000Y-75565000D03*
%TD*%
%TO.C,C4*%
X156130000Y-29210000D03*
X151130000Y-29210000D03*
%TD*%
%TO.C,C3*%
X137080000Y-29210000D03*
X132080000Y-29210000D03*
%TD*%
%TO.C,C2*%
X114220000Y-29210000D03*
X109220000Y-29210000D03*
%TD*%
%TO.C,C1*%
X91360000Y-29210000D03*
X86360000Y-29210000D03*
%TD*%
D10*
%TO.C,U3*%
X142240000Y-34290000D03*
X127000000Y-67310000D03*
X142240000Y-36830000D03*
X127000000Y-64770000D03*
X142240000Y-39370000D03*
X127000000Y-62230000D03*
X142240000Y-41910000D03*
X127000000Y-59690000D03*
X142240000Y-44450000D03*
X127000000Y-57150000D03*
X142240000Y-46990000D03*
X127000000Y-54610000D03*
X142240000Y-49530000D03*
X127000000Y-52070000D03*
X142240000Y-52070000D03*
X127000000Y-49530000D03*
X142240000Y-54610000D03*
X127000000Y-46990000D03*
X142240000Y-57150000D03*
X127000000Y-44450000D03*
X142240000Y-59690000D03*
X127000000Y-41910000D03*
X142240000Y-62230000D03*
X127000000Y-39370000D03*
X142240000Y-64770000D03*
X127000000Y-36830000D03*
X142240000Y-67310000D03*
X127000000Y-34290000D03*
%TD*%
D12*
%TO.C,J2*%
X167640000Y-82550000D03*
X165100000Y-82550000D03*
X167640000Y-80010000D03*
X165100000Y-80010000D03*
X167640000Y-77470000D03*
X165100000Y-77470000D03*
X167640000Y-74930000D03*
X165100000Y-74930000D03*
X167640000Y-72390000D03*
X165100000Y-72390000D03*
X167640000Y-69850000D03*
X165100000Y-69850000D03*
X167640000Y-67310000D03*
X165100000Y-67310000D03*
X167640000Y-64770000D03*
X165100000Y-64770000D03*
X167640000Y-62230000D03*
X165100000Y-62230000D03*
X167640000Y-59690000D03*
X165100000Y-59690000D03*
X167640000Y-57150000D03*
X165100000Y-57150000D03*
X167640000Y-54610000D03*
X165100000Y-54610000D03*
X167640000Y-52070000D03*
X165100000Y-52070000D03*
X167640000Y-49530000D03*
X165100000Y-49530000D03*
X167640000Y-46990000D03*
X165100000Y-46990000D03*
X167640000Y-44450000D03*
X165100000Y-44450000D03*
X167640000Y-41910000D03*
X165100000Y-41910000D03*
X167640000Y-39370000D03*
X165100000Y-39370000D03*
X167640000Y-36830000D03*
X165100000Y-36830000D03*
X167640000Y-34290000D03*
D13*
X165100000Y-34290000D03*
%TD*%
D11*
%TO.C,X1*%
X111125000Y-81915000D03*
X118745000Y-81915000D03*
X118745000Y-74295000D03*
D14*
X111125000Y-74295000D03*
%TD*%
D15*
%TO.C,U6*%
X127000000Y-74930000D03*
D16*
X129540000Y-74930000D03*
X128270000Y-74930000D03*
%TD*%
D17*
%TO.C,SW1*%
X141755000Y-76835000D03*
X141755000Y-81335000D03*
X135255000Y-76835000D03*
X135255000Y-81335000D03*
%TD*%
D10*
%TO.C,R2*%
X158750000Y-79375000D03*
D11*
X148590000Y-79375000D03*
%TD*%
D13*
%TO.C,JP1*%
X104775000Y-74295000D03*
D12*
X102235000Y-74295000D03*
%TD*%
D10*
%TO.C,U5*%
X157480000Y-54610000D03*
X149860000Y-69850000D03*
X157480000Y-57150000D03*
X149860000Y-67310000D03*
X157480000Y-59690000D03*
X149860000Y-64770000D03*
X157480000Y-62230000D03*
X149860000Y-62230000D03*
X157480000Y-64770000D03*
X149860000Y-59690000D03*
X157480000Y-67310000D03*
X149860000Y-57150000D03*
X157480000Y-69850000D03*
D14*
X149860000Y-54610000D03*
%TD*%
D10*
%TO.C,U4*%
X157480000Y-34290000D03*
X149860000Y-49530000D03*
X157480000Y-36830000D03*
X149860000Y-46990000D03*
X157480000Y-39370000D03*
X149860000Y-44450000D03*
X157480000Y-41910000D03*
X149860000Y-41910000D03*
X157480000Y-44450000D03*
X149860000Y-39370000D03*
X157480000Y-46990000D03*
X149860000Y-36830000D03*
X157480000Y-49530000D03*
X149860000Y-34290000D03*
%TD*%
%TO.C,U2*%
X119380000Y-34290000D03*
X104140000Y-67310000D03*
X119380000Y-36830000D03*
X104140000Y-64770000D03*
X119380000Y-39370000D03*
X104140000Y-62230000D03*
X119380000Y-41910000D03*
X104140000Y-59690000D03*
X119380000Y-44450000D03*
X104140000Y-57150000D03*
X119380000Y-46990000D03*
X104140000Y-54610000D03*
X119380000Y-49530000D03*
X104140000Y-52070000D03*
X119380000Y-52070000D03*
X104140000Y-49530000D03*
X119380000Y-54610000D03*
X104140000Y-46990000D03*
X119380000Y-57150000D03*
X104140000Y-44450000D03*
X119380000Y-59690000D03*
X104140000Y-41910000D03*
X119380000Y-62230000D03*
X104140000Y-39370000D03*
X119380000Y-64770000D03*
X104140000Y-36830000D03*
X119380000Y-67310000D03*
X104140000Y-34290000D03*
%TD*%
%TO.C,U1*%
X96520000Y-34290000D03*
X81280000Y-82550000D03*
X96520000Y-36830000D03*
X81280000Y-80010000D03*
X96520000Y-39370000D03*
X81280000Y-77470000D03*
X96520000Y-41910000D03*
X81280000Y-74930000D03*
X96520000Y-44450000D03*
X81280000Y-72390000D03*
X96520000Y-46990000D03*
X81280000Y-69850000D03*
X96520000Y-49530000D03*
X81280000Y-67310000D03*
X96520000Y-52070000D03*
X81280000Y-64770000D03*
X96520000Y-54610000D03*
X81280000Y-62230000D03*
X96520000Y-57150000D03*
X81280000Y-59690000D03*
X96520000Y-59690000D03*
X81280000Y-57150000D03*
X96520000Y-62230000D03*
X81280000Y-54610000D03*
X96520000Y-64770000D03*
X81280000Y-52070000D03*
X96520000Y-67310000D03*
X81280000Y-49530000D03*
X96520000Y-69850000D03*
X81280000Y-46990000D03*
X96520000Y-72390000D03*
X81280000Y-44450000D03*
X96520000Y-74930000D03*
X81280000Y-41910000D03*
X96520000Y-77470000D03*
X81280000Y-39370000D03*
X96520000Y-80010000D03*
X81280000Y-36830000D03*
X96520000Y-82550000D03*
X81280000Y-34290000D03*
%TD*%
D12*
%TO.C,J1*%
X73660000Y-82550000D03*
X71120000Y-82550000D03*
X73660000Y-80010000D03*
X71120000Y-80010000D03*
X73660000Y-77470000D03*
X71120000Y-77470000D03*
X73660000Y-74930000D03*
X71120000Y-74930000D03*
X73660000Y-72390000D03*
X71120000Y-72390000D03*
X73660000Y-69850000D03*
X71120000Y-69850000D03*
X73660000Y-67310000D03*
X71120000Y-67310000D03*
X73660000Y-64770000D03*
X71120000Y-64770000D03*
X73660000Y-62230000D03*
X71120000Y-62230000D03*
X73660000Y-59690000D03*
X71120000Y-59690000D03*
X73660000Y-57150000D03*
X71120000Y-57150000D03*
X73660000Y-54610000D03*
X71120000Y-54610000D03*
X73660000Y-52070000D03*
X71120000Y-52070000D03*
X73660000Y-49530000D03*
X71120000Y-49530000D03*
X73660000Y-46990000D03*
X71120000Y-46990000D03*
X73660000Y-44450000D03*
X71120000Y-44450000D03*
X73660000Y-41910000D03*
X71120000Y-41910000D03*
X73660000Y-39370000D03*
X71120000Y-39370000D03*
X73660000Y-36830000D03*
X71120000Y-36830000D03*
X73660000Y-34290000D03*
X71120000Y-34290000D03*
%TD*%
M02*
