%TF.GenerationSoftware,KiCad,Pcbnew,(5.1.8)-1*%
%TF.CreationDate,2020-12-28T18:03:08+00:00*%
%TF.ProjectId,main-board,6d61696e-2d62-46f6-9172-642e6b696361,rev?*%
%TF.SameCoordinates,Original*%
%TF.FileFunction,Copper,L2,Bot*%
%TF.FilePolarity,Positive*%
%FSLAX46Y46*%
G04 Gerber Fmt 4.6, Leading zero omitted, Abs format (unit mm)*
G04 Created by KiCad (PCBNEW (5.1.8)-1) date 2020-12-28 18:03:08*
%MOMM*%
%LPD*%
G01*
G04 APERTURE LIST*
%TA.AperFunction,ComponentPad*%
%ADD10O,1.600000X1.600000*%
%TD*%
%TA.AperFunction,ComponentPad*%
%ADD11C,1.600000*%
%TD*%
%TA.AperFunction,ComponentPad*%
%ADD12O,1.700000X1.700000*%
%TD*%
%TA.AperFunction,ComponentPad*%
%ADD13R,1.700000X1.700000*%
%TD*%
%TA.AperFunction,ComponentPad*%
%ADD14R,1.600000X1.600000*%
%TD*%
%TA.AperFunction,ComponentPad*%
%ADD15R,1.050000X1.500000*%
%TD*%
%TA.AperFunction,ComponentPad*%
%ADD16O,1.050000X1.500000*%
%TD*%
%TA.AperFunction,ComponentPad*%
%ADD17C,2.000000*%
%TD*%
%TA.AperFunction,ViaPad*%
%ADD18C,0.600000*%
%TD*%
%TA.AperFunction,Conductor*%
%ADD19C,0.500000*%
%TD*%
%TA.AperFunction,Conductor*%
%ADD20C,0.250000*%
%TD*%
G04 APERTURE END LIST*
D10*
%TO.P,R3,2*%
%TO.N,!IRQ*%
X158750000Y-83185000D03*
D11*
%TO.P,R3,1*%
%TO.N,+5V*%
X148590000Y-83185000D03*
%TD*%
D10*
%TO.P,R1,2*%
%TO.N,RDY*%
X158750000Y-75565000D03*
D11*
%TO.P,R1,1*%
%TO.N,+5V*%
X148590000Y-75565000D03*
%TD*%
%TO.P,C4,2*%
%TO.N,+5V*%
X156130000Y-29210000D03*
%TO.P,C4,1*%
%TO.N,GND*%
X151130000Y-29210000D03*
%TD*%
%TO.P,C3,2*%
%TO.N,+5V*%
X137080000Y-29210000D03*
%TO.P,C3,1*%
%TO.N,GND*%
X132080000Y-29210000D03*
%TD*%
%TO.P,C2,2*%
%TO.N,+5V*%
X114220000Y-29210000D03*
%TO.P,C2,1*%
%TO.N,GND*%
X109220000Y-29210000D03*
%TD*%
%TO.P,C1,2*%
%TO.N,GND*%
X91360000Y-29210000D03*
%TO.P,C1,1*%
%TO.N,+5V*%
X86360000Y-29210000D03*
%TD*%
D10*
%TO.P,U3,28*%
%TO.N,+5V*%
X142240000Y-34290000D03*
%TO.P,U3,14*%
%TO.N,GND*%
X127000000Y-67310000D03*
%TO.P,U3,27*%
%TO.N,!WRITE*%
X142240000Y-36830000D03*
%TO.P,U3,13*%
%TO.N,D2*%
X127000000Y-64770000D03*
%TO.P,U3,26*%
%TO.N,A13*%
X142240000Y-39370000D03*
%TO.P,U3,12*%
%TO.N,D1*%
X127000000Y-62230000D03*
%TO.P,U3,25*%
%TO.N,A8*%
X142240000Y-41910000D03*
%TO.P,U3,11*%
%TO.N,D0*%
X127000000Y-59690000D03*
%TO.P,U3,24*%
%TO.N,A9*%
X142240000Y-44450000D03*
%TO.P,U3,10*%
%TO.N,A0*%
X127000000Y-57150000D03*
%TO.P,U3,23*%
%TO.N,A11*%
X142240000Y-46990000D03*
%TO.P,U3,9*%
%TO.N,A1*%
X127000000Y-54610000D03*
%TO.P,U3,22*%
%TO.N,!READ*%
X142240000Y-49530000D03*
%TO.P,U3,8*%
%TO.N,A2*%
X127000000Y-52070000D03*
%TO.P,U3,21*%
%TO.N,A10*%
X142240000Y-52070000D03*
%TO.P,U3,7*%
%TO.N,A3*%
X127000000Y-49530000D03*
%TO.P,U3,20*%
%TO.N,!RAM_SELECT*%
X142240000Y-54610000D03*
%TO.P,U3,6*%
%TO.N,A4*%
X127000000Y-46990000D03*
%TO.P,U3,19*%
%TO.N,D7*%
X142240000Y-57150000D03*
%TO.P,U3,5*%
%TO.N,A5*%
X127000000Y-44450000D03*
%TO.P,U3,18*%
%TO.N,D6*%
X142240000Y-59690000D03*
%TO.P,U3,4*%
%TO.N,A6*%
X127000000Y-41910000D03*
%TO.P,U3,17*%
%TO.N,D5*%
X142240000Y-62230000D03*
%TO.P,U3,3*%
%TO.N,A7*%
X127000000Y-39370000D03*
%TO.P,U3,16*%
%TO.N,D4*%
X142240000Y-64770000D03*
%TO.P,U3,2*%
%TO.N,A12*%
X127000000Y-36830000D03*
%TO.P,U3,15*%
%TO.N,D3*%
X142240000Y-67310000D03*
%TO.P,U3,1*%
%TO.N,A14*%
X127000000Y-34290000D03*
%TD*%
D12*
%TO.P,J2,40*%
%TO.N,GND*%
X167640000Y-82550000D03*
%TO.P,J2,39*%
X165100000Y-82550000D03*
%TO.P,J2,38*%
%TO.N,+5V*%
X167640000Y-80010000D03*
%TO.P,J2,37*%
X165100000Y-80010000D03*
%TO.P,J2,36*%
%TO.N,D7*%
X167640000Y-77470000D03*
%TO.P,J2,35*%
%TO.N,D6*%
X165100000Y-77470000D03*
%TO.P,J2,34*%
%TO.N,D5*%
X167640000Y-74930000D03*
%TO.P,J2,33*%
%TO.N,D4*%
X165100000Y-74930000D03*
%TO.P,J2,32*%
%TO.N,D3*%
X167640000Y-72390000D03*
%TO.P,J2,31*%
%TO.N,D2*%
X165100000Y-72390000D03*
%TO.P,J2,30*%
%TO.N,D1*%
X167640000Y-69850000D03*
%TO.P,J2,29*%
%TO.N,D0*%
X165100000Y-69850000D03*
%TO.P,J2,28*%
%TO.N,A15*%
X167640000Y-67310000D03*
%TO.P,J2,27*%
%TO.N,A14*%
X165100000Y-67310000D03*
%TO.P,J2,26*%
%TO.N,A13*%
X167640000Y-64770000D03*
%TO.P,J2,25*%
%TO.N,A12*%
X165100000Y-64770000D03*
%TO.P,J2,24*%
%TO.N,A11*%
X167640000Y-62230000D03*
%TO.P,J2,23*%
%TO.N,A10*%
X165100000Y-62230000D03*
%TO.P,J2,22*%
%TO.N,A9*%
X167640000Y-59690000D03*
%TO.P,J2,21*%
%TO.N,A8*%
X165100000Y-59690000D03*
%TO.P,J2,20*%
%TO.N,A7*%
X167640000Y-57150000D03*
%TO.P,J2,19*%
%TO.N,A6*%
X165100000Y-57150000D03*
%TO.P,J2,18*%
%TO.N,A5*%
X167640000Y-54610000D03*
%TO.P,J2,17*%
%TO.N,A4*%
X165100000Y-54610000D03*
%TO.P,J2,16*%
%TO.N,A3*%
X167640000Y-52070000D03*
%TO.P,J2,15*%
%TO.N,A2*%
X165100000Y-52070000D03*
%TO.P,J2,14*%
%TO.N,A1*%
X167640000Y-49530000D03*
%TO.P,J2,13*%
%TO.N,A0*%
X165100000Y-49530000D03*
%TO.P,J2,12*%
%TO.N,!P_SELECT*%
X167640000Y-46990000D03*
%TO.P,J2,11*%
%TO.N,RDY*%
X165100000Y-46990000D03*
%TO.P,J2,10*%
%TO.N,!RESET*%
X167640000Y-44450000D03*
%TO.P,J2,9*%
%TO.N,R!W*%
X165100000Y-44450000D03*
%TO.P,J2,8*%
%TO.N,!WRITE*%
X167640000Y-41910000D03*
%TO.P,J2,7*%
%TO.N,!READ*%
X165100000Y-41910000D03*
%TO.P,J2,6*%
%TO.N,!NMI*%
X167640000Y-39370000D03*
%TO.P,J2,5*%
%TO.N,!IRQ*%
X165100000Y-39370000D03*
%TO.P,J2,4*%
%TO.N,PHI2*%
X167640000Y-36830000D03*
%TO.P,J2,3*%
%TO.N,PHI1*%
X165100000Y-36830000D03*
%TO.P,J2,2*%
%TO.N,CLK*%
X167640000Y-34290000D03*
D13*
%TO.P,J2,1*%
%TO.N,GND*%
X165100000Y-34290000D03*
%TD*%
D11*
%TO.P,X1,4*%
%TO.N,GND*%
X111125000Y-81915000D03*
%TO.P,X1,5*%
%TO.N,CLK1*%
X118745000Y-81915000D03*
%TO.P,X1,8*%
%TO.N,+5V*%
X118745000Y-74295000D03*
D14*
%TO.P,X1,1*%
%TO.N,Net-(X1-Pad1)*%
X111125000Y-74295000D03*
%TD*%
D15*
%TO.P,U6,1*%
%TO.N,!RESET*%
X127000000Y-74930000D03*
D16*
%TO.P,U6,3*%
%TO.N,GND*%
X129540000Y-74930000D03*
%TO.P,U6,2*%
%TO.N,+5V*%
X128270000Y-74930000D03*
%TD*%
D17*
%TO.P,SW1,1*%
%TO.N,!RESET*%
X141755000Y-76835000D03*
%TO.P,SW1,2*%
%TO.N,GND*%
X141755000Y-81335000D03*
%TO.P,SW1,1*%
%TO.N,!RESET*%
X135255000Y-76835000D03*
%TO.P,SW1,2*%
%TO.N,GND*%
X135255000Y-81335000D03*
%TD*%
D10*
%TO.P,R2,2*%
%TO.N,!NMI*%
X158750000Y-79375000D03*
D11*
%TO.P,R2,1*%
%TO.N,+5V*%
X148590000Y-79375000D03*
%TD*%
D13*
%TO.P,JP1,1*%
%TO.N,CLK*%
X104775000Y-74295000D03*
D12*
%TO.P,JP1,2*%
%TO.N,CLK1*%
X102235000Y-74295000D03*
%TD*%
D10*
%TO.P,U5,14*%
%TO.N,+5V*%
X157480000Y-54610000D03*
%TO.P,U5,7*%
%TO.N,GND*%
X149860000Y-69850000D03*
%TO.P,U5,13*%
%TO.N,!READ*%
X157480000Y-57150000D03*
%TO.P,U5,6*%
%TO.N,!RAM_SELECT*%
X149860000Y-67310000D03*
%TO.P,U5,12*%
%TO.N,PHI2*%
X157480000Y-59690000D03*
%TO.P,U5,5*%
%TO.N,!ROM_SELECT*%
X149860000Y-64770000D03*
%TO.P,U5,11*%
%TO.N,!WRITE*%
X157480000Y-62230000D03*
%TO.P,U5,4*%
%TO.N,!P_SELECT*%
X149860000Y-62230000D03*
%TO.P,U5,10*%
%TO.N,PHI2*%
X157480000Y-64770000D03*
%TO.P,U5,3*%
%TO.N,!ROM_SELECT*%
X149860000Y-59690000D03*
%TO.P,U5,9*%
%TO.N,R!W*%
X157480000Y-67310000D03*
%TO.P,U5,2*%
%TO.N,A15*%
X149860000Y-57150000D03*
%TO.P,U5,8*%
%TO.N,!READ*%
X157480000Y-69850000D03*
D14*
%TO.P,U5,1*%
%TO.N,A15*%
X149860000Y-54610000D03*
%TD*%
D10*
%TO.P,U4,14*%
%TO.N,+5V*%
X157480000Y-34290000D03*
%TO.P,U4,7*%
%TO.N,GND*%
X149860000Y-49530000D03*
%TO.P,U4,13*%
%TO.N,N/C*%
X157480000Y-36830000D03*
%TO.P,U4,6*%
%TO.N,A13*%
X149860000Y-46990000D03*
%TO.P,U4,12*%
%TO.N,!ROM_SELECT*%
X157480000Y-39370000D03*
%TO.P,U4,5*%
%TO.N,A12*%
X149860000Y-44450000D03*
%TO.P,U4,11*%
%TO.N,A14*%
X157480000Y-41910000D03*
%TO.P,U4,4*%
%TO.N,A11*%
X149860000Y-41910000D03*
%TO.P,U4,10*%
%TO.N,N/C*%
X157480000Y-44450000D03*
%TO.P,U4,3*%
%TO.N,A10*%
X149860000Y-39370000D03*
%TO.P,U4,9*%
%TO.N,N/C*%
X157480000Y-46990000D03*
%TO.P,U4,2*%
%TO.N,A9*%
X149860000Y-36830000D03*
%TO.P,U4,8*%
%TO.N,!P_SELECT*%
X157480000Y-49530000D03*
%TO.P,U4,1*%
%TO.N,A8*%
X149860000Y-34290000D03*
%TD*%
%TO.P,U2,28*%
%TO.N,+5V*%
X119380000Y-34290000D03*
%TO.P,U2,14*%
%TO.N,GND*%
X104140000Y-67310000D03*
%TO.P,U2,27*%
%TO.N,+5V*%
X119380000Y-36830000D03*
%TO.P,U2,13*%
%TO.N,D2*%
X104140000Y-64770000D03*
%TO.P,U2,26*%
%TO.N,A13*%
X119380000Y-39370000D03*
%TO.P,U2,12*%
%TO.N,D1*%
X104140000Y-62230000D03*
%TO.P,U2,25*%
%TO.N,A8*%
X119380000Y-41910000D03*
%TO.P,U2,11*%
%TO.N,D0*%
X104140000Y-59690000D03*
%TO.P,U2,24*%
%TO.N,A9*%
X119380000Y-44450000D03*
%TO.P,U2,10*%
%TO.N,A0*%
X104140000Y-57150000D03*
%TO.P,U2,23*%
%TO.N,A11*%
X119380000Y-46990000D03*
%TO.P,U2,9*%
%TO.N,A1*%
X104140000Y-54610000D03*
%TO.P,U2,22*%
%TO.N,!READ*%
X119380000Y-49530000D03*
%TO.P,U2,8*%
%TO.N,A2*%
X104140000Y-52070000D03*
%TO.P,U2,21*%
%TO.N,A10*%
X119380000Y-52070000D03*
%TO.P,U2,7*%
%TO.N,A3*%
X104140000Y-49530000D03*
%TO.P,U2,20*%
%TO.N,!ROM_SELECT*%
X119380000Y-54610000D03*
%TO.P,U2,6*%
%TO.N,A4*%
X104140000Y-46990000D03*
%TO.P,U2,19*%
%TO.N,D7*%
X119380000Y-57150000D03*
%TO.P,U2,5*%
%TO.N,A5*%
X104140000Y-44450000D03*
%TO.P,U2,18*%
%TO.N,D6*%
X119380000Y-59690000D03*
%TO.P,U2,4*%
%TO.N,A6*%
X104140000Y-41910000D03*
%TO.P,U2,17*%
%TO.N,D5*%
X119380000Y-62230000D03*
%TO.P,U2,3*%
%TO.N,A7*%
X104140000Y-39370000D03*
%TO.P,U2,16*%
%TO.N,D4*%
X119380000Y-64770000D03*
%TO.P,U2,2*%
%TO.N,A12*%
X104140000Y-36830000D03*
%TO.P,U2,15*%
%TO.N,D3*%
X119380000Y-67310000D03*
%TO.P,U2,1*%
%TO.N,A14*%
X104140000Y-34290000D03*
%TD*%
%TO.P,U1,40*%
%TO.N,!RESET*%
X96520000Y-34290000D03*
%TO.P,U1,20*%
%TO.N,A11*%
X81280000Y-82550000D03*
%TO.P,U1,39*%
%TO.N,PHI2*%
X96520000Y-36830000D03*
%TO.P,U1,19*%
%TO.N,A10*%
X81280000Y-80010000D03*
%TO.P,U1,38*%
%TO.N,+5V*%
X96520000Y-39370000D03*
%TO.P,U1,18*%
%TO.N,A9*%
X81280000Y-77470000D03*
%TO.P,U1,37*%
%TO.N,CLK*%
X96520000Y-41910000D03*
%TO.P,U1,17*%
%TO.N,A8*%
X81280000Y-74930000D03*
%TO.P,U1,36*%
%TO.N,+5V*%
X96520000Y-44450000D03*
%TO.P,U1,16*%
%TO.N,A7*%
X81280000Y-72390000D03*
%TO.P,U1,35*%
%TO.N,Net-(U1-Pad35)*%
X96520000Y-46990000D03*
%TO.P,U1,15*%
%TO.N,A6*%
X81280000Y-69850000D03*
%TO.P,U1,34*%
%TO.N,R!W*%
X96520000Y-49530000D03*
%TO.P,U1,14*%
%TO.N,A5*%
X81280000Y-67310000D03*
%TO.P,U1,33*%
%TO.N,D0*%
X96520000Y-52070000D03*
%TO.P,U1,13*%
%TO.N,A4*%
X81280000Y-64770000D03*
%TO.P,U1,32*%
%TO.N,D1*%
X96520000Y-54610000D03*
%TO.P,U1,12*%
%TO.N,A3*%
X81280000Y-62230000D03*
%TO.P,U1,31*%
%TO.N,D2*%
X96520000Y-57150000D03*
%TO.P,U1,11*%
%TO.N,A2*%
X81280000Y-59690000D03*
%TO.P,U1,30*%
%TO.N,D3*%
X96520000Y-59690000D03*
%TO.P,U1,10*%
%TO.N,A1*%
X81280000Y-57150000D03*
%TO.P,U1,29*%
%TO.N,D4*%
X96520000Y-62230000D03*
%TO.P,U1,9*%
%TO.N,A0*%
X81280000Y-54610000D03*
%TO.P,U1,28*%
%TO.N,D5*%
X96520000Y-64770000D03*
%TO.P,U1,8*%
%TO.N,+5V*%
X81280000Y-52070000D03*
%TO.P,U1,27*%
%TO.N,D6*%
X96520000Y-67310000D03*
%TO.P,U1,7*%
%TO.N,Net-(U1-Pad7)*%
X81280000Y-49530000D03*
%TO.P,U1,26*%
%TO.N,D7*%
X96520000Y-69850000D03*
%TO.P,U1,6*%
%TO.N,!NMI*%
X81280000Y-46990000D03*
%TO.P,U1,25*%
%TO.N,A15*%
X96520000Y-72390000D03*
%TO.P,U1,5*%
%TO.N,Net-(U1-Pad5)*%
X81280000Y-44450000D03*
%TO.P,U1,24*%
%TO.N,A14*%
X96520000Y-74930000D03*
%TO.P,U1,4*%
%TO.N,!IRQ*%
X81280000Y-41910000D03*
%TO.P,U1,23*%
%TO.N,A13*%
X96520000Y-77470000D03*
%TO.P,U1,3*%
%TO.N,PHI1*%
X81280000Y-39370000D03*
%TO.P,U1,22*%
%TO.N,A12*%
X96520000Y-80010000D03*
%TO.P,U1,2*%
%TO.N,RDY*%
X81280000Y-36830000D03*
%TO.P,U1,21*%
%TO.N,GND*%
X96520000Y-82550000D03*
%TO.P,U1,1*%
%TO.N,Net-(U1-Pad1)*%
X81280000Y-34290000D03*
%TD*%
D12*
%TO.P,J1,40*%
%TO.N,GND*%
X73660000Y-82550000D03*
%TO.P,J1,39*%
X71120000Y-82550000D03*
%TO.P,J1,38*%
%TO.N,+5V*%
X73660000Y-80010000D03*
%TO.P,J1,37*%
X71120000Y-80010000D03*
%TO.P,J1,36*%
%TO.N,D7*%
X73660000Y-77470000D03*
%TO.P,J1,35*%
%TO.N,D6*%
X71120000Y-77470000D03*
%TO.P,J1,34*%
%TO.N,D5*%
X73660000Y-74930000D03*
%TO.P,J1,33*%
%TO.N,D4*%
X71120000Y-74930000D03*
%TO.P,J1,32*%
%TO.N,D3*%
X73660000Y-72390000D03*
%TO.P,J1,31*%
%TO.N,D2*%
X71120000Y-72390000D03*
%TO.P,J1,30*%
%TO.N,D1*%
X73660000Y-69850000D03*
%TO.P,J1,29*%
%TO.N,D0*%
X71120000Y-69850000D03*
%TO.P,J1,28*%
%TO.N,A15*%
X73660000Y-67310000D03*
%TO.P,J1,27*%
%TO.N,A14*%
X71120000Y-67310000D03*
%TO.P,J1,26*%
%TO.N,A13*%
X73660000Y-64770000D03*
%TO.P,J1,25*%
%TO.N,A12*%
X71120000Y-64770000D03*
%TO.P,J1,24*%
%TO.N,A11*%
X73660000Y-62230000D03*
%TO.P,J1,23*%
%TO.N,A10*%
X71120000Y-62230000D03*
%TO.P,J1,22*%
%TO.N,A9*%
X73660000Y-59690000D03*
%TO.P,J1,21*%
%TO.N,A8*%
X71120000Y-59690000D03*
%TO.P,J1,20*%
%TO.N,A7*%
X73660000Y-57150000D03*
%TO.P,J1,19*%
%TO.N,A6*%
X71120000Y-57150000D03*
%TO.P,J1,18*%
%TO.N,A5*%
X73660000Y-54610000D03*
%TO.P,J1,17*%
%TO.N,A4*%
X71120000Y-54610000D03*
%TO.P,J1,16*%
%TO.N,A3*%
X73660000Y-52070000D03*
%TO.P,J1,15*%
%TO.N,A2*%
X71120000Y-52070000D03*
%TO.P,J1,14*%
%TO.N,A1*%
X73660000Y-49530000D03*
%TO.P,J1,13*%
%TO.N,A0*%
X71120000Y-49530000D03*
%TO.P,J1,12*%
%TO.N,!P_SELECT*%
X73660000Y-46990000D03*
%TO.P,J1,11*%
%TO.N,RDY*%
X71120000Y-46990000D03*
%TO.P,J1,10*%
%TO.N,!RESET*%
X73660000Y-44450000D03*
%TO.P,J1,9*%
%TO.N,R!W*%
X71120000Y-44450000D03*
%TO.P,J1,8*%
%TO.N,!WRITE*%
X73660000Y-41910000D03*
%TO.P,J1,7*%
%TO.N,!READ*%
X71120000Y-41910000D03*
%TO.P,J1,6*%
%TO.N,!NMI*%
X73660000Y-39370000D03*
%TO.P,J1,5*%
%TO.N,!IRQ*%
X71120000Y-39370000D03*
%TO.P,J1,4*%
%TO.N,PHI2*%
X73660000Y-36830000D03*
%TO.P,J1,3*%
%TO.N,PHI1*%
X71120000Y-36830000D03*
%TO.P,J1,2*%
%TO.N,CLK*%
X73660000Y-34290000D03*
%TO.P,J1,1*%
%TO.N,GND*%
X71120000Y-34290000D03*
%TD*%
D18*
%TO.N,+5V*%
X86360000Y-44573100D03*
%TO.N,CLK*%
X110024200Y-32175400D03*
X83091100Y-38335300D03*
%TO.N,!READ*%
X150821200Y-38275700D03*
%TO.N,!WRITE*%
X76956700Y-41746000D03*
%TO.N,A13*%
X95343400Y-70970400D03*
%TO.N,A12*%
X152218700Y-56792700D03*
X78703700Y-78740000D03*
%TO.N,A11*%
X155097700Y-41910000D03*
%TO.N,A9*%
X159707300Y-35704600D03*
%TO.N,A8*%
X106621400Y-71953100D03*
X152218700Y-52686200D03*
%TO.N,A7*%
X92294200Y-50237300D03*
%TO.N,A6*%
X92112900Y-69534400D03*
X140496500Y-41856600D03*
%TO.N,A5*%
X90577300Y-47061700D03*
%TO.N,A4*%
X92738900Y-64770000D03*
%TO.N,A2*%
X101117000Y-56522800D03*
X160287000Y-69105200D03*
X128112500Y-68937800D03*
%TO.N,A1*%
X104895400Y-55806400D03*
X128736400Y-73653600D03*
%TO.N,A0*%
X159632100Y-71933500D03*
X127160400Y-71257400D03*
%TO.N,D7*%
X112713800Y-70066000D03*
%TO.N,D6*%
X114752800Y-68313400D03*
X150495000Y-77470000D03*
%TO.N,D5*%
X92684100Y-75285500D03*
X147475300Y-72787400D03*
%TO.N,D4*%
X100436300Y-64999800D03*
X162330100Y-69585900D03*
%TO.N,D3*%
X92628500Y-71062600D03*
X95868200Y-66076000D03*
X163024900Y-70553200D03*
%TO.N,D2*%
X128736300Y-71882700D03*
%TO.N,D1*%
X125598300Y-69021800D03*
%TO.N,A15*%
X146985900Y-70508200D03*
%TO.N,CLK1*%
X113575100Y-76745100D03*
%TO.N,!ROM_SELECT*%
X156058300Y-53845900D03*
%TO.N,!P_SELECT*%
X147642800Y-48368500D03*
%TD*%
D19*
%TO.N,GND*%
X128905000Y-67310000D02*
X127000000Y-67310000D01*
X132080000Y-29210000D02*
X132080000Y-64135000D01*
X132080000Y-64135000D02*
X128905000Y-67310000D01*
X129540000Y-74930000D02*
X129540000Y-67945000D01*
X129540000Y-67945000D02*
X128905000Y-67310000D01*
X151765000Y-69850000D02*
X149860000Y-69850000D01*
X153035000Y-49530000D02*
X153035000Y-68580000D01*
X153035000Y-68580000D02*
X151765000Y-69850000D01*
X151130000Y-29210000D02*
X153035000Y-31115000D01*
X153035000Y-31115000D02*
X153035000Y-49530000D01*
X149860000Y-49530000D02*
X153035000Y-49530000D01*
X91360000Y-29210000D02*
X91360000Y-79295000D01*
X91360000Y-79295000D02*
X94615000Y-82550000D01*
X94615000Y-82550000D02*
X96520000Y-82550000D01*
X109220000Y-29210000D02*
X109220000Y-64135000D01*
X109220000Y-64135000D02*
X106045000Y-67310000D01*
X106045000Y-67310000D02*
X104140000Y-67310000D01*
X133424999Y-83165001D02*
X135255000Y-81335000D01*
X111125000Y-81915000D02*
X112375001Y-83165001D01*
X129540000Y-83145002D02*
X129559999Y-83165001D01*
X129540000Y-74930000D02*
X129540000Y-83145002D01*
X129559999Y-83165001D02*
X133424999Y-83165001D01*
X112375001Y-83165001D02*
X129559999Y-83165001D01*
X141755000Y-81335000D02*
X149805000Y-81335000D01*
X163214999Y-84435001D02*
X154920001Y-84435001D01*
X165100000Y-82550000D02*
X163214999Y-84435001D01*
X154920001Y-84435001D02*
X150812500Y-80327500D01*
X149805000Y-81335000D02*
X150812500Y-80327500D01*
X151765000Y-79375000D02*
X150812500Y-80327500D01*
X151765000Y-69850000D02*
X151765000Y-79375000D01*
%TO.N,+5V*%
X114220000Y-29210000D02*
X119300000Y-34290000D01*
X119300000Y-34290000D02*
X119340000Y-34290000D01*
X119340000Y-34290000D02*
X119380000Y-34330000D01*
X119380000Y-34330000D02*
X119380000Y-36830000D01*
X119340000Y-34290000D02*
X119380000Y-34290000D01*
X120633900Y-72406100D02*
X118745000Y-74295000D01*
X119380000Y-36830000D02*
X120633900Y-38083900D01*
X120633900Y-38083900D02*
X120633900Y-72406100D01*
X120633900Y-72406100D02*
X124358200Y-76130400D01*
X124358200Y-76130400D02*
X127748900Y-76130400D01*
X127748900Y-76130400D02*
X128270000Y-75609300D01*
X128270000Y-75609300D02*
X128270000Y-74930000D01*
X96520000Y-44450000D02*
X95269500Y-43199500D01*
X95269500Y-43199500D02*
X95269500Y-40620500D01*
X95269500Y-40620500D02*
X96520000Y-39370000D01*
X86360000Y-44573100D02*
X86360000Y-48895000D01*
X86360000Y-48895000D02*
X83185000Y-52070000D01*
X83185000Y-52070000D02*
X81280000Y-52070000D01*
X86360000Y-29210000D02*
X86360000Y-44573100D01*
X157480000Y-34290000D02*
X154305000Y-34290000D01*
X156130000Y-29210000D02*
X154305000Y-31035000D01*
X154305000Y-31035000D02*
X154305000Y-34290000D01*
X154305000Y-34290000D02*
X154305000Y-53340000D01*
X154305000Y-53340000D02*
X155575000Y-54610000D01*
X155575000Y-54610000D02*
X157480000Y-54610000D01*
X137080000Y-29210000D02*
X142160000Y-34290000D01*
X142160000Y-34290000D02*
X142240000Y-34290000D01*
X107930001Y-27959999D02*
X96520000Y-39370000D01*
X112969999Y-27959999D02*
X107930001Y-27959999D01*
X114220000Y-29210000D02*
X112969999Y-27959999D01*
X148590000Y-75565000D02*
X148590000Y-79375000D01*
D20*
%TO.N,CLK*%
X110024200Y-32175400D02*
X110024200Y-67029100D01*
X110024200Y-67029100D02*
X104775000Y-72278300D01*
X104775000Y-72278300D02*
X104775000Y-74295000D01*
X83091100Y-38335300D02*
X83091100Y-37041400D01*
X83091100Y-37041400D02*
X81510600Y-35460900D01*
X81510600Y-35460900D02*
X80229200Y-35460900D01*
X80229200Y-35460900D02*
X79058300Y-34290000D01*
X79058300Y-34290000D02*
X73660000Y-34290000D01*
%TO.N,!READ*%
X150821200Y-38275700D02*
X150733300Y-38187800D01*
X150733300Y-38187800D02*
X149391000Y-38187800D01*
X149391000Y-38187800D02*
X147257000Y-40321800D01*
X147257000Y-40321800D02*
X147257000Y-41030500D01*
X147257000Y-41030500D02*
X142567500Y-45720000D01*
X142567500Y-45720000D02*
X141916600Y-45720000D01*
X141916600Y-45720000D02*
X141098200Y-46538400D01*
X141098200Y-46538400D02*
X141098200Y-48388200D01*
X141098200Y-48388200D02*
X142240000Y-49530000D01*
X156323900Y-65902800D02*
X157990600Y-65902800D01*
X157990600Y-65902800D02*
X158609100Y-65284300D01*
X158609100Y-65284300D02*
X158609100Y-64307500D01*
X158609100Y-64307500D02*
X157801600Y-63500000D01*
X157801600Y-63500000D02*
X157075800Y-63500000D01*
X157075800Y-63500000D02*
X156324200Y-62748400D01*
X156324200Y-62748400D02*
X156324200Y-61765400D01*
X156324200Y-61765400D02*
X157129600Y-60960000D01*
X157129600Y-60960000D02*
X157867200Y-60960000D01*
X157867200Y-60960000D02*
X159810300Y-59016900D01*
X159810300Y-59016900D02*
X159810300Y-47199700D01*
X159810300Y-47199700D02*
X165100000Y-41910000D01*
X157480000Y-57150000D02*
X155423600Y-59206400D01*
X155423600Y-59206400D02*
X155423600Y-65002500D01*
X155423600Y-65002500D02*
X156323900Y-65902800D01*
X156323900Y-65902800D02*
X156323900Y-68693900D01*
X156323900Y-68693900D02*
X157480000Y-69850000D01*
%TO.N,!WRITE*%
X157480000Y-62230000D02*
X160583000Y-59127000D01*
X160583000Y-59127000D02*
X160583000Y-47304700D01*
X160583000Y-47304700D02*
X164802300Y-43085400D01*
X164802300Y-43085400D02*
X166464600Y-43085400D01*
X166464600Y-43085400D02*
X167640000Y-41910000D01*
X131445000Y-26035000D02*
X132080000Y-26670000D01*
X83941400Y-28453600D02*
X86360000Y-26035000D01*
X83941400Y-38369400D02*
X83941400Y-28453600D01*
X78062700Y-40640000D02*
X81670800Y-40640000D01*
X76956700Y-41746000D02*
X78062700Y-40640000D01*
X81670800Y-40640000D02*
X83941400Y-38369400D01*
X132080000Y-26670000D02*
X142240000Y-36830000D01*
X86360000Y-26035000D02*
X131445000Y-26035000D01*
X132045000Y-26635000D02*
X132080000Y-26670000D01*
%TO.N,RDY*%
X165100000Y-46990000D02*
X161483700Y-50606300D01*
X71120000Y-46990000D02*
X69932400Y-45802400D01*
X69932400Y-45802400D02*
X69932400Y-36335600D01*
X69932400Y-36335600D02*
X70620500Y-35647500D01*
X70620500Y-35647500D02*
X79460600Y-35647500D01*
X79460600Y-35647500D02*
X80643100Y-36830000D01*
X80643100Y-36830000D02*
X81280000Y-36830000D01*
X161483700Y-50606300D02*
X161483700Y-64580100D01*
X161483700Y-64580100D02*
X158750000Y-67313800D01*
X158750000Y-75565000D02*
X158750000Y-67310000D01*
%TO.N,R!W*%
X165100000Y-44450000D02*
X161033400Y-48516600D01*
X161033400Y-48516600D02*
X161033400Y-63756600D01*
X161033400Y-63756600D02*
X157480000Y-67310000D01*
%TO.N,!IRQ*%
X165100000Y-39370000D02*
X158611000Y-45859000D01*
X158611000Y-45859000D02*
X158611000Y-55072100D01*
X158611000Y-55072100D02*
X157803100Y-55880000D01*
X157803100Y-55880000D02*
X157149000Y-55880000D01*
X157149000Y-55880000D02*
X154973300Y-58055700D01*
X154973300Y-58055700D02*
X154973300Y-79408300D01*
X154973300Y-79408300D02*
X158750000Y-83185000D01*
%TO.N,!RESET*%
X73660000Y-44450000D02*
X72446400Y-45663600D01*
X72446400Y-45663600D02*
X72446400Y-47499000D01*
X72446400Y-47499000D02*
X73292300Y-48344900D01*
X73292300Y-48344900D02*
X76461900Y-48344900D01*
X76461900Y-48344900D02*
X78832200Y-50715200D01*
X78832200Y-50715200D02*
X81718800Y-50715200D01*
X81718800Y-50715200D02*
X85001100Y-47432900D01*
X85001100Y-47432900D02*
X85001100Y-28911500D01*
X85001100Y-28911500D02*
X85831300Y-28081300D01*
X85831300Y-28081300D02*
X91828100Y-28081300D01*
X91828100Y-28081300D02*
X96520000Y-32773200D01*
X96520000Y-32773200D02*
X96520000Y-34290000D01*
X96520000Y-32773200D02*
X101988200Y-27305000D01*
X101988200Y-27305000D02*
X118745000Y-27305000D01*
X118745000Y-27305000D02*
X122555000Y-31115000D01*
X122555000Y-31115000D02*
X122555000Y-72390000D01*
X125095000Y-74930000D02*
X127000000Y-74930000D01*
X122555000Y-72390000D02*
X125095000Y-74930000D01*
%TO.N,PHI2*%
X167640000Y-36830000D02*
X166275400Y-38194600D01*
X166275400Y-38194600D02*
X166275400Y-39859400D01*
X166275400Y-39859400D02*
X165589400Y-40545400D01*
X165589400Y-40545400D02*
X164802400Y-40545400D01*
X164802400Y-40545400D02*
X159108800Y-46239000D01*
X159108800Y-46239000D02*
X159108800Y-58061200D01*
X159108800Y-58061200D02*
X157480000Y-59690000D01*
X157480000Y-59690000D02*
X155873900Y-61296100D01*
X155873900Y-61296100D02*
X155873900Y-63163900D01*
X155873900Y-63163900D02*
X157480000Y-64770000D01*
%TO.N,PHI1*%
X71120000Y-36830000D02*
X72390000Y-38100000D01*
X72390000Y-38100000D02*
X80010000Y-38100000D01*
X80010000Y-38100000D02*
X81280000Y-39370000D01*
%TO.N,!RAM_SELECT*%
X149860000Y-67310000D02*
X143654600Y-61104600D01*
X143654600Y-61104600D02*
X143654600Y-56024600D01*
X143654600Y-56024600D02*
X142240000Y-54610000D01*
%TO.N,A14*%
X157480000Y-41910000D02*
X163753000Y-35637000D01*
X163753000Y-35637000D02*
X168127000Y-35637000D01*
X168127000Y-35637000D02*
X169282100Y-36792100D01*
X169282100Y-36792100D02*
X169282100Y-54630200D01*
X169282100Y-54630200D02*
X167937700Y-55974600D01*
X167937700Y-55974600D02*
X167114400Y-55974600D01*
X167114400Y-55974600D02*
X166370000Y-56719000D01*
X166370000Y-56719000D02*
X166370000Y-66040000D01*
X166370000Y-66040000D02*
X165100000Y-67310000D01*
X96520000Y-74930000D02*
X98949700Y-72500300D01*
X98949700Y-72500300D02*
X98949700Y-70896800D01*
X98949700Y-70896800D02*
X103806500Y-66040000D01*
X103806500Y-66040000D02*
X104536000Y-66040000D01*
X104536000Y-66040000D02*
X106004900Y-64571100D01*
X106004900Y-64571100D02*
X106004900Y-36154900D01*
X106004900Y-36154900D02*
X104140000Y-34290000D01*
%TO.N,A13*%
X95343400Y-70970400D02*
X95343400Y-76293400D01*
X95343400Y-76293400D02*
X96520000Y-77470000D01*
X119380000Y-39370000D02*
X110474600Y-48275400D01*
X110474600Y-48275400D02*
X110474600Y-67215600D01*
X110474600Y-67215600D02*
X105981100Y-71709100D01*
X105981100Y-71709100D02*
X105981100Y-75293300D01*
X105981100Y-75293300D02*
X103804400Y-77470000D01*
X103804400Y-77470000D02*
X96520000Y-77470000D01*
%TO.N,A12*%
X104140000Y-36830000D02*
X105554600Y-38244600D01*
X105554600Y-38244600D02*
X105554600Y-59952800D01*
X105554600Y-59952800D02*
X104691000Y-60816400D01*
X104691000Y-60816400D02*
X103591700Y-60816400D01*
X103591700Y-60816400D02*
X98000500Y-55225200D01*
X98000500Y-55225200D02*
X98000500Y-54449700D01*
X98000500Y-54449700D02*
X97014100Y-53463300D01*
X97014100Y-53463300D02*
X96044200Y-53463300D01*
X96044200Y-53463300D02*
X94797000Y-54710500D01*
X94797000Y-54710500D02*
X94797000Y-68009800D01*
X94797000Y-68009800D02*
X92003200Y-70803600D01*
X92003200Y-70803600D02*
X92003200Y-75493200D01*
X92003200Y-75493200D02*
X96520000Y-80010000D01*
X149860000Y-44450000D02*
X148270900Y-46039100D01*
X148270900Y-46039100D02*
X148270900Y-50597100D01*
X148270900Y-50597100D02*
X152218700Y-54544900D01*
X152218700Y-54544900D02*
X152218700Y-56792700D01*
X71120000Y-64770000D02*
X72484600Y-66134600D01*
X72484600Y-66134600D02*
X72484600Y-67835600D01*
X72484600Y-67835600D02*
X73229000Y-68580000D01*
X73229000Y-68580000D02*
X74132700Y-68580000D01*
X74132700Y-68580000D02*
X74835400Y-69282700D01*
X74835400Y-69282700D02*
X74835400Y-74871700D01*
X74835400Y-74871700D02*
X78703700Y-78740000D01*
%TO.N,A11*%
X82421400Y-81408600D02*
X82421400Y-79559600D01*
X82421400Y-79559600D02*
X81601800Y-78740000D01*
X81601800Y-78740000D02*
X80956800Y-78740000D01*
X80956800Y-78740000D02*
X75922800Y-73706000D01*
X75922800Y-73706000D02*
X75922800Y-64492800D01*
X75922800Y-64492800D02*
X73660000Y-62230000D01*
X167640000Y-62230000D02*
X170214800Y-59655200D01*
X170214800Y-59655200D02*
X170214800Y-34486900D01*
X170214800Y-34486900D02*
X168383900Y-32656000D01*
X168383900Y-32656000D02*
X160880800Y-32656000D01*
X160880800Y-32656000D02*
X157832200Y-35704600D01*
X157832200Y-35704600D02*
X156993800Y-35704600D01*
X156993800Y-35704600D02*
X155097700Y-37600700D01*
X155097700Y-37600700D02*
X155097700Y-41910000D01*
X119380000Y-46990000D02*
X113001700Y-53368300D01*
X113001700Y-53368300D02*
X113001700Y-67910200D01*
X113001700Y-67910200D02*
X107191500Y-73720400D01*
X107191500Y-73720400D02*
X107191500Y-75356700D01*
X107191500Y-75356700D02*
X98415500Y-84132700D01*
X98415500Y-84132700D02*
X85145500Y-84132700D01*
X85145500Y-84132700D02*
X82421400Y-81408600D01*
X82421400Y-81408600D02*
X81280000Y-82550000D01*
X142240000Y-46990000D02*
X144780000Y-46990000D01*
X144780000Y-46990000D02*
X149860000Y-41910000D01*
%TO.N,A10*%
X71120000Y-62230000D02*
X72295400Y-63405400D01*
X72295400Y-63405400D02*
X72295400Y-65074800D01*
X72295400Y-65074800D02*
X73260600Y-66040000D01*
X73260600Y-66040000D02*
X74061900Y-66040000D01*
X74061900Y-66040000D02*
X75285800Y-67263900D01*
X75285800Y-67263900D02*
X75285800Y-74015800D01*
X75285800Y-74015800D02*
X81280000Y-80010000D01*
X119380000Y-52070000D02*
X113452000Y-57998000D01*
X113452000Y-57998000D02*
X113452000Y-68443500D01*
X113452000Y-68443500D02*
X107641800Y-74253700D01*
X107641800Y-74253700D02*
X107641800Y-75543300D01*
X107641800Y-75543300D02*
X98602100Y-84583000D01*
X98602100Y-84583000D02*
X81721500Y-84583000D01*
X81721500Y-84583000D02*
X80118700Y-82980200D01*
X80118700Y-82980200D02*
X80118700Y-81171300D01*
X80118700Y-81171300D02*
X81280000Y-80010000D01*
X142240000Y-52070000D02*
X143510000Y-50800000D01*
X143510000Y-50800000D02*
X143510000Y-49206800D01*
X143510000Y-49206800D02*
X149536800Y-43180000D01*
X149536800Y-43180000D02*
X150201100Y-43180000D01*
X150201100Y-43180000D02*
X151008500Y-42372600D01*
X151008500Y-42372600D02*
X151008500Y-40518500D01*
X151008500Y-40518500D02*
X149860000Y-39370000D01*
%TO.N,A9*%
X82421400Y-76328600D02*
X82421400Y-74479600D01*
X82421400Y-74479600D02*
X81601800Y-73660000D01*
X81601800Y-73660000D02*
X80958400Y-73660000D01*
X80958400Y-73660000D02*
X77078000Y-69779600D01*
X77078000Y-69779600D02*
X77078000Y-63108000D01*
X77078000Y-63108000D02*
X73660000Y-59690000D01*
X167640000Y-59690000D02*
X169764400Y-57565600D01*
X169764400Y-57565600D02*
X169764400Y-34744800D01*
X169764400Y-34744800D02*
X168128300Y-33108700D01*
X168128300Y-33108700D02*
X162303200Y-33108700D01*
X162303200Y-33108700D02*
X159707300Y-35704600D01*
X119380000Y-44450000D02*
X112551400Y-51278600D01*
X112551400Y-51278600D02*
X112551400Y-67723600D01*
X112551400Y-67723600D02*
X106741200Y-73533800D01*
X106741200Y-73533800D02*
X106741200Y-75170100D01*
X106741200Y-75170100D02*
X98229000Y-83682300D01*
X98229000Y-83682300D02*
X89775100Y-83682300D01*
X89775100Y-83682300D02*
X82421400Y-76328600D01*
X82421400Y-76328600D02*
X81280000Y-77470000D01*
X149860000Y-36830000D02*
X142240000Y-44450000D01*
%TO.N,A8*%
X81280000Y-74930000D02*
X76573100Y-70223100D01*
X76573100Y-70223100D02*
X76573100Y-63438100D01*
X76573100Y-63438100D02*
X74095000Y-60960000D01*
X74095000Y-60960000D02*
X72390000Y-60960000D01*
X72390000Y-60960000D02*
X71120000Y-59690000D01*
X119380000Y-41910000D02*
X110925000Y-50365000D01*
X110925000Y-50365000D02*
X110925000Y-67649500D01*
X110925000Y-67649500D02*
X106621400Y-71953100D01*
X149860000Y-35109900D02*
X151458900Y-36708800D01*
X151458900Y-36708800D02*
X151458900Y-44491200D01*
X151458900Y-44491200D02*
X150230100Y-45720000D01*
X150230100Y-45720000D02*
X149477700Y-45720000D01*
X149477700Y-45720000D02*
X148721300Y-46476400D01*
X148721300Y-46476400D02*
X148721300Y-50013800D01*
X148721300Y-50013800D02*
X151393700Y-52686200D01*
X151393700Y-52686200D02*
X152218700Y-52686200D01*
X142240000Y-41910000D02*
X149040100Y-35109900D01*
X149040100Y-35109900D02*
X149860000Y-35109900D01*
X149860000Y-35109900D02*
X149860000Y-34290000D01*
%TO.N,A7*%
X81280000Y-72390000D02*
X82421400Y-71248600D01*
X82421400Y-71248600D02*
X82421400Y-69399600D01*
X82421400Y-69399600D02*
X81601800Y-68580000D01*
X81601800Y-68580000D02*
X80958500Y-68580000D01*
X80958500Y-68580000D02*
X79463400Y-67084900D01*
X79463400Y-67084900D02*
X79463400Y-63590300D01*
X79463400Y-63590300D02*
X77082500Y-61209400D01*
X77082500Y-61209400D02*
X77082500Y-60572500D01*
X77082500Y-60572500D02*
X73660000Y-57150000D01*
X92294200Y-50237300D02*
X92294200Y-49544400D01*
X92294200Y-49544400D02*
X96118600Y-45720000D01*
X96118600Y-45720000D02*
X97790000Y-45720000D01*
X97790000Y-45720000D02*
X104140000Y-39370000D01*
%TO.N,A6*%
X104140000Y-41910000D02*
X97790000Y-48260000D01*
X97790000Y-48260000D02*
X96190400Y-48260000D01*
X96190400Y-48260000D02*
X92112900Y-52337500D01*
X92112900Y-52337500D02*
X92112900Y-69534400D01*
X71120000Y-57150000D02*
X72390000Y-58420000D01*
X72390000Y-58420000D02*
X74054400Y-58420000D01*
X74054400Y-58420000D02*
X76472900Y-60838500D01*
X76472900Y-60838500D02*
X76472900Y-61326000D01*
X76472900Y-61326000D02*
X78111400Y-62964500D01*
X78111400Y-62964500D02*
X78111400Y-66681400D01*
X78111400Y-66681400D02*
X81280000Y-69850000D01*
X140496500Y-39494100D02*
X140496500Y-41856600D01*
X165100000Y-57150000D02*
X163913100Y-58336900D01*
X170665100Y-34300200D02*
X164423600Y-28058700D01*
X163913100Y-67785600D02*
X164636400Y-68508900D01*
X164423600Y-28058700D02*
X150658000Y-28058700D01*
X164636400Y-68508900D02*
X168180102Y-68508900D01*
X149987800Y-28728900D02*
X149987800Y-30739700D01*
X163913100Y-58336900D02*
X163913100Y-67785600D01*
X168180102Y-68508900D02*
X170665100Y-66023902D01*
X141890600Y-38100000D02*
X140496500Y-39494100D01*
X170665100Y-66023902D02*
X170665100Y-34300200D01*
X150658000Y-28058700D02*
X149987800Y-28728900D01*
X149987800Y-30739700D02*
X142627500Y-38100000D01*
X142627500Y-38100000D02*
X141890600Y-38100000D01*
%TO.N,A5*%
X81601800Y-63500000D02*
X82421400Y-64319600D01*
X82421400Y-64319600D02*
X82421400Y-66168600D01*
X82421400Y-66168600D02*
X81280000Y-67310000D01*
X73660000Y-54610000D02*
X78867800Y-59817800D01*
X78867800Y-59817800D02*
X78867800Y-61409400D01*
X78867800Y-61409400D02*
X80958400Y-63500000D01*
X80958400Y-63500000D02*
X81601800Y-63500000D01*
X90577300Y-47061700D02*
X90577300Y-54524500D01*
X90577300Y-54524500D02*
X81601800Y-63500000D01*
%TO.N,A4*%
X81280000Y-64770000D02*
X77532800Y-61022800D01*
X77532800Y-61022800D02*
X77532800Y-59358300D01*
X77532800Y-59358300D02*
X74054500Y-55880000D01*
X74054500Y-55880000D02*
X72390000Y-55880000D01*
X72390000Y-55880000D02*
X71120000Y-54610000D01*
X92738900Y-54638900D02*
X92738900Y-64770000D01*
X96124998Y-50800000D02*
X92738900Y-54186098D01*
X92738900Y-54186098D02*
X92738900Y-54638900D01*
X100330000Y-50800000D02*
X96124998Y-50800000D01*
X104140000Y-46990000D02*
X100330000Y-50800000D01*
%TO.N,A3*%
X73660000Y-52070000D02*
X74296900Y-52070000D01*
X74296900Y-52070000D02*
X80646900Y-58420000D01*
X80646900Y-58420000D02*
X81601800Y-58420000D01*
X81601800Y-58420000D02*
X82421400Y-59239600D01*
X82421400Y-59239600D02*
X82421400Y-61088600D01*
X82421400Y-61088600D02*
X81280000Y-62230000D01*
%TO.N,A2*%
X128112500Y-68937800D02*
X127035600Y-68937800D01*
X127035600Y-68937800D02*
X125874300Y-67776500D01*
X125874300Y-67776500D02*
X125874300Y-66832400D01*
X125874300Y-66832400D02*
X126666700Y-66040000D01*
X126666700Y-66040000D02*
X127398400Y-66040000D01*
X127398400Y-66040000D02*
X128125400Y-65313000D01*
X128125400Y-65313000D02*
X128125400Y-53195400D01*
X128125400Y-53195400D02*
X127000000Y-52070000D01*
X165100000Y-52070000D02*
X162609600Y-54560400D01*
X162609600Y-54560400D02*
X162609600Y-66782600D01*
X162609600Y-66782600D02*
X160287000Y-69105200D01*
X101117000Y-56522800D02*
X101117000Y-55093000D01*
X101117000Y-55093000D02*
X104140000Y-52070000D01*
X71120000Y-52070000D02*
X72390000Y-53340000D01*
X72390000Y-53340000D02*
X74930000Y-53340000D01*
X74930000Y-53340000D02*
X81280000Y-59690000D01*
%TO.N,A1*%
X104140000Y-54610000D02*
X104895400Y-55365400D01*
X104895400Y-55365400D02*
X104895400Y-55806400D01*
X127000000Y-54610000D02*
X123980400Y-57629600D01*
X123980400Y-57629600D02*
X123980400Y-68977700D01*
X128656300Y-73653600D02*
X128736400Y-73653600D01*
X123980400Y-68977700D02*
X128656300Y-73653600D01*
%TO.N,A0*%
X127000000Y-57150000D02*
X124433700Y-59716300D01*
X124433700Y-59716300D02*
X124433700Y-68793200D01*
X124433700Y-68793200D02*
X126897900Y-71257400D01*
X126897900Y-71257400D02*
X127160400Y-71257400D01*
X165100000Y-49530000D02*
X162159200Y-52470800D01*
X162159200Y-52470800D02*
X162159200Y-64541500D01*
X162159200Y-64541500D02*
X159632100Y-67068600D01*
X159632100Y-67068600D02*
X159632100Y-71933500D01*
X71120000Y-49530000D02*
X72390000Y-50800000D01*
X72390000Y-50800000D02*
X77470000Y-50800000D01*
X77470000Y-50800000D02*
X81280000Y-54610000D01*
%TO.N,D7*%
X73660000Y-77470000D02*
X73950700Y-77470000D01*
X73950700Y-77470000D02*
X81536900Y-85056200D01*
X81536900Y-85056200D02*
X98765800Y-85056200D01*
X98765800Y-85056200D02*
X109610200Y-74211800D01*
X109610200Y-74211800D02*
X109610200Y-73169600D01*
X109610200Y-73169600D02*
X112713800Y-70066000D01*
X112713800Y-70066000D02*
X113902300Y-68877500D01*
X113902300Y-68877500D02*
X113902300Y-62627700D01*
X113902300Y-62627700D02*
X119380000Y-57150000D01*
X142240000Y-57150000D02*
X140394300Y-58995700D01*
X140394300Y-58995700D02*
X140394300Y-81850200D01*
X140394300Y-81850200D02*
X143612800Y-85068700D01*
X143612800Y-85068700D02*
X164279100Y-85068700D01*
X164279100Y-85068700D02*
X166370000Y-82977800D01*
X166370000Y-82977800D02*
X166370000Y-78740000D01*
X166370000Y-78740000D02*
X167640000Y-77470000D01*
%TO.N,D6*%
X71120000Y-77470000D02*
X72295400Y-78645400D01*
X72295400Y-78645400D02*
X74468400Y-78645400D01*
X74468400Y-78645400D02*
X81329500Y-85506500D01*
X81329500Y-85506500D02*
X101987100Y-85506500D01*
X101987100Y-85506500D02*
X114752800Y-72740800D01*
X114752800Y-72740800D02*
X114752800Y-68313400D01*
X114752800Y-68313400D02*
X114752800Y-64317200D01*
X114752800Y-64317200D02*
X119380000Y-59690000D01*
X142240000Y-59690000D02*
X142240000Y-60326900D01*
X142240000Y-60326900D02*
X146227000Y-64313900D01*
X146227000Y-64313900D02*
X146227000Y-70673800D01*
X146227000Y-70673800D02*
X147308200Y-71755000D01*
X147308200Y-71755000D02*
X147367902Y-71755000D01*
X147367902Y-71755000D02*
X147955000Y-71755000D01*
X150495000Y-74295000D02*
X150495000Y-77470000D01*
X147955000Y-71755000D02*
X150495000Y-74295000D01*
%TO.N,D5*%
X96520000Y-64770000D02*
X97674300Y-65924300D01*
X97674300Y-65924300D02*
X97674300Y-67749000D01*
X97674300Y-67749000D02*
X96843300Y-68580000D01*
X96843300Y-68580000D02*
X96166200Y-68580000D01*
X96166200Y-68580000D02*
X92684100Y-72062100D01*
X92684100Y-72062100D02*
X92684100Y-75285500D01*
X142240000Y-62230000D02*
X145776700Y-65766700D01*
X145776700Y-65766700D02*
X145776700Y-71088800D01*
X145776700Y-71088800D02*
X147475300Y-72787400D01*
%TO.N,D4*%
X100436300Y-64999800D02*
X99289800Y-64999800D01*
X99289800Y-64999800D02*
X96520000Y-62230000D01*
X71120000Y-74930000D02*
X69914300Y-76135700D01*
X69914300Y-76135700D02*
X69914300Y-77933000D01*
X69914300Y-77933000D02*
X70721300Y-78740000D01*
X70721300Y-78740000D02*
X71529400Y-78740000D01*
X71529400Y-78740000D02*
X72484600Y-79695200D01*
X72484600Y-79695200D02*
X72484600Y-80535600D01*
X72484600Y-80535600D02*
X73229000Y-81280000D01*
X73229000Y-81280000D02*
X76238900Y-81280000D01*
X76238900Y-81280000D02*
X80915700Y-85956800D01*
X80915700Y-85956800D02*
X102186900Y-85956800D01*
X102186900Y-85956800D02*
X117806100Y-70337600D01*
X117806100Y-70337600D02*
X117806100Y-66343900D01*
X117806100Y-66343900D02*
X119380000Y-64770000D01*
X165100000Y-74930000D02*
X162330100Y-72160100D01*
X162330100Y-72160100D02*
X162330100Y-69585900D01*
%TO.N,D3*%
X95391500Y-66076000D02*
X95868200Y-66076000D01*
X96520000Y-59690000D02*
X95391500Y-60818500D01*
X95391500Y-60818500D02*
X95391500Y-66076000D01*
X92628500Y-71062600D02*
X95391500Y-68299600D01*
X95391500Y-68299600D02*
X95391500Y-66076000D01*
X167640000Y-72390000D02*
X166370000Y-71120000D01*
X166370000Y-71120000D02*
X163591700Y-71120000D01*
X163591700Y-71120000D02*
X163024900Y-70553200D01*
%TO.N,D2*%
X96520000Y-57150000D02*
X104140000Y-64770000D01*
X127000000Y-64770000D02*
X125410200Y-66359800D01*
X125410200Y-66359800D02*
X125410200Y-67949300D01*
X125410200Y-67949300D02*
X128736300Y-71275400D01*
X128736300Y-71275400D02*
X128736300Y-71882700D01*
%TO.N,D1*%
X125598300Y-69021800D02*
X124946000Y-68369500D01*
X124946000Y-68369500D02*
X124946000Y-64284000D01*
X124946000Y-64284000D02*
X127000000Y-62230000D01*
X96520000Y-54610000D02*
X104140000Y-62230000D01*
%TO.N,D0*%
X104140000Y-59690000D02*
X103399900Y-59690000D01*
X103399900Y-59690000D02*
X98717400Y-55007500D01*
X98717400Y-55007500D02*
X98717400Y-54267400D01*
X98717400Y-54267400D02*
X96520000Y-52070000D01*
%TO.N,!NMI*%
X167640000Y-39370000D02*
X168815400Y-40545400D01*
X168815400Y-40545400D02*
X168815400Y-42398800D01*
X168815400Y-42398800D02*
X168034200Y-43180000D01*
X168034200Y-43180000D02*
X167240700Y-43180000D01*
X167240700Y-43180000D02*
X166275400Y-44145300D01*
X166275400Y-44145300D02*
X166275400Y-52559400D01*
X166275400Y-52559400D02*
X165589400Y-53245400D01*
X165589400Y-53245400D02*
X164802300Y-53245400D01*
X164802300Y-53245400D02*
X163462700Y-54585000D01*
X163462700Y-54585000D02*
X163462700Y-67447700D01*
X163462700Y-67447700D02*
X161674700Y-69235700D01*
X161674700Y-69235700D02*
X161674700Y-76210400D01*
X161674700Y-76210400D02*
X161674600Y-76210400D01*
X73660000Y-39370000D02*
X81280000Y-46990000D01*
X161674700Y-76450300D02*
X161674700Y-76210400D01*
X158750000Y-79375000D02*
X161674700Y-76450300D01*
%TO.N,A15*%
X146985900Y-70508200D02*
X148914100Y-68580000D01*
X148914100Y-68580000D02*
X150208700Y-68580000D01*
X150208700Y-68580000D02*
X151479100Y-67309600D01*
X151479100Y-67309600D02*
X151479100Y-58769100D01*
X151479100Y-58769100D02*
X149860000Y-57150000D01*
X149860000Y-54610000D02*
X149860000Y-57150000D01*
%TO.N,CLK1*%
X113575100Y-76745100D02*
X118745000Y-81915000D01*
%TO.N,!ROM_SELECT*%
X157480000Y-39370000D02*
X156058300Y-40791700D01*
X156058300Y-40791700D02*
X156058300Y-53845900D01*
X149860000Y-64770000D02*
X148734600Y-63644600D01*
X148734600Y-63644600D02*
X148734600Y-60815400D01*
X148734600Y-60815400D02*
X149860000Y-59690000D01*
%TO.N,!P_SELECT*%
X149860000Y-62230000D02*
X151019700Y-61070300D01*
X151019700Y-61070300D02*
X151019700Y-59252800D01*
X151019700Y-59252800D02*
X150186900Y-58420000D01*
X150186900Y-58420000D02*
X149502400Y-58420000D01*
X149502400Y-58420000D02*
X143852100Y-52769600D01*
X143852100Y-52769600D02*
X147642800Y-48978900D01*
X147642800Y-48978900D02*
X147642800Y-48368500D01*
X143424300Y-53197400D02*
X143852100Y-52769600D01*
X139844500Y-51296900D02*
X141745000Y-53197400D01*
X141745000Y-53197400D02*
X143424300Y-53197400D01*
X139844500Y-35309498D02*
X139844500Y-51296900D01*
X131205002Y-26670000D02*
X139844500Y-35309498D01*
X84391800Y-28883900D02*
X86605700Y-26670000D01*
X86605700Y-26670000D02*
X131205002Y-26670000D01*
X84391800Y-45526200D02*
X84391800Y-28883900D01*
X76997300Y-48166600D02*
X81751400Y-48166600D01*
X81751400Y-48166600D02*
X84391800Y-45526200D01*
X75820700Y-46990000D02*
X76997300Y-48166600D01*
X73660000Y-46990000D02*
X75820700Y-46990000D01*
%TD*%
M02*
